<svg width="584" height="535" viewBox="0 0 584 535" fill="none" xmlns="http://www.w3.org/2000/svg">
<path fill-rule="evenodd" clip-rule="evenodd" d="M283.202 203.198C289.113 201.859 294.733 210.71 300.372 208.491C309.321 204.969 311.12 189.853 320.638 188.466C328.02 187.391 333.416 196.69 337.213 203.124C340.782 209.172 337.052 217.937 341.32 223.514C348.542 232.95 373.744 233.978 369.227 244.956C363.959 257.76 340.958 246.172 329.078 253.269C323.552 256.57 330.391 269.518 324.356 271.761C317.613 274.266 311.017 266.523 305.34 262.089C301.668 259.222 302.07 251.402 297.46 250.755C290.95 249.841 286.122 257.718 279.595 258.476C265.049 260.164 248.26 266.214 236.213 257.863C227.57 251.873 227.252 234.936 233.895 226.799C242.222 216.6 259.234 220.806 271.108 215.122C276.279 212.647 277.61 204.465 283.202 203.198Z" stroke="#2714FF" stroke-opacity="0.94" stroke-width="1.01463"/>
<path fill-rule="evenodd" clip-rule="evenodd" d="M241.512 128.078C264.171 122.944 285.715 156.874 307.332 148.368C341.636 134.868 348.53 76.9223 385.016 71.6068C413.314 67.4841 434.001 103.132 448.554 127.793C462.236 150.977 447.938 184.579 464.299 205.956C491.981 242.128 588.589 246.069 571.275 288.149C551.081 337.233 462.909 292.812 417.37 320.017C396.186 332.672 422.404 382.306 399.271 390.902C373.421 400.507 348.138 370.825 326.375 353.828C312.299 342.835 313.84 312.86 296.168 310.38C271.213 306.878 252.707 337.073 227.685 339.977C171.926 346.448 107.568 369.639 61.3866 337.628C28.2567 314.664 27.0384 249.739 52.5032 218.549C84.424 179.452 149.634 195.575 195.153 173.787C214.974 164.299 220.077 132.935 241.512 128.078Z" stroke="#2714FF" stroke-opacity="0.94" stroke-width="1.01463"/>
<path d="M300.509 207.311C294.556 209.654 288.624 200.311 282.384 201.724C276.482 203.062 275.077 211.698 269.619 214.311C257.085 220.311 239.128 215.871 230.338 226.637C223.326 235.225 223.662 253.103 232.785 259.427C245.501 268.241 263.223 261.855 278.577 260.073C285.467 259.274 290.563 250.959 297.434 251.923C302.301 252.606 301.876 260.861 305.752 263.887C311.745 268.568 318.707 276.741 325.825 274.096C332.195 271.729 324.976 258.062 330.809 254.577C343.349 247.086 367.628 259.318 373.189 245.802C377.956 234.215 351.354 233.129 343.731 223.169C339.226 217.283 343.163 208.03 339.396 201.646L339.262 201.419C335.262 194.639 329.606 185.052 321.9 186.174C311.853 187.638 309.955 203.594 300.509 207.311Z" stroke="#2714FF" stroke-opacity="0.94" stroke-width="1.01463"/>
<path d="M300.645 206.132C294.379 208.598 288.134 198.763 281.566 200.251C275.353 201.659 273.874 210.75 268.129 213.5C254.935 219.815 236.034 215.142 226.781 226.475C219.4 235.515 219.753 254.334 229.356 260.99C242.742 270.269 261.397 263.547 277.558 261.671C284.811 260.829 290.175 252.077 297.409 253.092C302.531 253.811 302.084 262.5 306.164 265.686C312.472 270.612 319.801 279.216 327.294 276.432C333.999 273.94 326.399 259.554 332.54 255.885C345.739 248 371.296 260.876 377.15 246.649C382.168 234.451 354.166 233.309 346.142 222.825C341.4 216.628 345.544 206.889 341.579 200.169L341.438 199.93C337.227 192.793 331.273 182.701 323.162 183.883C312.586 185.423 310.588 202.219 300.645 206.132Z" stroke="#2714FF" stroke-opacity="0.94" stroke-width="1.01463"/>
<path d="M300.782 204.954C294.203 207.543 287.646 197.216 280.75 198.779C274.226 200.257 272.673 209.802 266.64 212.69C252.787 219.321 232.94 214.414 223.225 226.313C215.475 235.806 215.846 255.565 225.929 262.555C239.984 272.297 259.571 265.239 276.541 263.27C284.157 262.386 289.789 253.196 297.384 254.262C302.763 255.016 302.293 264.139 306.577 267.485C313.201 272.658 320.896 281.692 328.763 278.768C335.803 276.152 327.824 261.046 334.272 257.195C348.131 248.915 374.966 262.434 381.112 247.496C386.382 234.689 356.979 233.489 348.554 222.481C343.575 215.974 347.926 205.748 343.762 198.692L343.615 198.441C339.193 190.947 332.942 180.351 324.425 181.592C313.32 183.209 311.222 200.845 300.782 204.954Z" stroke="#2714FF" stroke-opacity="0.94" stroke-width="1.01463"/>
<path d="M300.918 203.774C294.025 206.487 287.156 195.668 279.931 197.305C273.097 198.854 271.47 208.854 265.15 211.879C250.637 218.826 229.845 213.685 219.668 226.151C211.549 236.096 211.937 256.796 222.5 264.118C237.225 274.325 257.745 266.93 275.523 264.867C283.501 263.941 289.401 254.314 297.358 255.43C302.993 256.221 302.501 265.778 306.989 269.283C313.928 274.703 321.989 284.166 330.231 281.104C337.607 278.363 329.248 262.538 336.002 258.503C350.522 249.829 378.635 263.992 385.073 248.342C390.594 234.925 359.791 233.669 350.965 222.136C345.749 215.32 350.307 204.606 345.945 197.214L345.79 196.952C341.158 189.101 334.609 178 325.686 179.3C314.053 180.995 311.855 199.47 300.918 203.774Z" stroke="#2714FF" stroke-opacity="0.94" stroke-width="1.01463"/>
<path d="M301.055 202.596C293.849 205.432 286.667 194.121 279.114 195.833C271.97 197.452 270.269 207.906 263.661 211.069C248.488 218.332 226.752 212.957 216.111 225.99C207.623 236.387 208.029 258.028 219.073 265.683C234.466 276.353 255.919 268.623 274.505 266.466C282.846 265.498 289.015 255.433 297.333 256.6C303.224 257.427 302.71 267.419 307.402 271.083C314.656 276.748 323.084 286.642 331.701 283.441C339.412 280.575 330.672 264.031 337.734 259.812C352.913 250.744 382.304 265.551 389.036 249.19C394.807 235.163 362.604 233.849 353.377 221.792C347.923 214.666 352.689 203.466 348.129 195.738L347.967 195.463C343.124 187.256 336.277 175.65 326.949 177.009C314.787 178.781 312.489 198.096 301.055 202.596Z" stroke="#2714FF" stroke-opacity="0.94" stroke-width="1.01463"/>
<path d="M301.191 201.416C293.672 204.375 286.178 192.573 278.297 194.359C270.841 196.049 269.066 206.958 262.172 210.258C246.339 217.836 223.657 212.228 212.554 225.827C203.697 236.676 204.121 259.259 215.644 267.246C231.707 278.38 254.093 270.314 273.487 268.063C282.19 267.053 288.627 256.55 297.307 257.768C303.454 258.631 302.918 269.057 307.814 272.881C315.384 278.793 324.178 289.117 333.169 285.776C341.215 282.786 332.096 265.522 339.465 261.12C355.304 251.658 385.973 267.109 392.997 250.036C399.019 235.399 365.416 234.029 355.788 221.447C350.097 214.012 355.07 202.324 350.311 194.26L350.142 193.974C345.09 185.409 337.945 173.299 328.211 174.717C315.52 176.566 313.122 196.721 301.191 201.416Z" stroke="#2714FF" stroke-opacity="0.94" stroke-width="1.01463"/>
<path d="M301.327 200.238C293.495 203.321 285.689 191.027 277.479 192.887C269.713 194.647 267.864 206.011 260.683 209.448C244.19 217.342 220.563 211.501 208.998 225.666C199.772 236.967 200.213 260.491 212.217 268.811C228.949 280.409 252.267 272.007 272.469 269.662C281.535 268.61 288.241 257.669 297.282 258.938C303.685 259.837 303.127 270.698 308.227 274.681C316.112 280.839 325.272 291.593 334.638 288.113C343.02 284.999 333.52 267.015 341.196 262.43C357.696 252.573 389.642 268.668 396.959 250.884C403.232 235.637 368.229 234.209 358.199 221.104C352.272 213.358 357.452 201.184 352.495 192.784L352.319 192.486C347.055 183.564 339.613 170.949 329.473 172.426C316.254 174.352 313.756 195.347 301.327 200.238Z" stroke="#2714FF" stroke-opacity="0.94" stroke-width="1.01463"/>
<path d="M301.464 199.059C293.319 202.265 285.201 189.48 276.663 191.414C268.586 193.244 266.663 205.063 259.194 208.638C242.042 216.848 217.47 210.772 205.442 225.505C195.846 237.258 196.305 261.722 208.789 270.375C226.191 282.437 250.442 273.699 271.452 271.26C280.881 270.166 287.854 258.788 297.257 260.108C303.917 261.042 303.336 272.337 308.64 276.479C316.84 282.884 326.367 294.068 336.108 290.449C344.825 287.21 334.945 268.507 342.928 263.739C360.088 253.488 393.312 270.226 400.921 251.731C407.445 235.874 371.042 234.389 360.611 220.76C354.446 212.704 359.834 200.043 354.679 191.307L354.495 190.997C349.022 181.718 341.281 168.599 330.736 170.135C316.988 172.138 314.39 193.973 301.464 199.059Z" stroke="#2714FF" stroke-opacity="0.94" stroke-width="1.01463"/>
<path d="M301.6 197.88C293.141 201.209 284.711 187.932 275.844 189.941C267.457 191.841 265.46 204.114 257.704 207.827C239.892 216.353 214.375 210.044 201.885 225.343C191.92 237.547 192.397 262.953 205.361 271.939C223.432 284.465 248.615 275.39 270.434 272.858C280.225 271.722 287.467 259.906 297.231 261.276C304.147 262.247 303.544 273.976 309.052 278.278C317.568 284.929 327.461 296.543 337.576 292.785C346.628 289.421 336.369 269.999 344.659 265.047C362.478 254.402 396.98 271.784 404.882 252.577C411.657 236.111 373.854 234.569 363.022 220.415C356.62 212.05 362.215 198.901 356.861 189.829L356.671 189.507C350.987 179.872 342.949 166.248 331.998 167.843C317.721 169.923 315.023 192.598 301.6 197.88Z" stroke="#2714FF" stroke-opacity="0.94" stroke-width="1.01463"/>
<path d="M301.737 196.702C292.965 200.154 284.222 186.385 275.027 188.468C266.329 190.439 264.258 203.167 256.215 207.017C237.744 215.858 211.282 209.315 198.328 225.181C187.995 237.838 188.489 264.184 201.933 273.503C220.673 286.493 246.79 277.082 269.416 274.456C279.57 273.278 287.08 261.024 297.207 262.446C304.378 263.452 303.753 275.616 309.465 280.077C318.296 286.974 328.556 299.019 339.046 295.121C348.433 291.633 337.793 271.492 346.39 266.356C364.87 255.317 400.649 273.343 408.844 253.425C415.87 236.348 376.667 234.749 365.434 220.071C358.795 211.396 364.597 197.761 359.045 188.353L358.847 188.019C352.953 178.027 344.617 163.898 333.261 165.552C318.455 167.709 315.657 191.224 301.737 196.702Z" stroke="#2714FF" stroke-opacity="0.94" stroke-width="1.01463"/>
<path d="M301.873 195.522C292.788 199.098 283.733 184.837 274.21 186.995C265.201 189.036 263.056 202.218 254.726 206.206C235.594 215.363 208.187 208.587 194.771 225.019C184.069 238.128 184.581 265.415 198.505 275.067C217.915 288.52 244.964 278.774 268.398 276.054C278.915 274.833 286.693 262.142 297.181 263.614C304.609 264.657 303.961 277.255 309.877 281.875C319.024 289.019 329.65 301.494 340.514 297.457C350.237 293.844 339.218 272.984 348.121 267.665C367.261 256.231 404.318 274.9 412.806 254.271C420.083 236.585 379.479 234.929 367.845 219.726C360.969 210.742 366.978 196.619 361.228 186.875L361.024 186.529C354.918 176.18 346.285 161.547 334.523 163.261C319.188 165.495 316.291 189.849 301.873 195.522Z" stroke="#2714FF" stroke-opacity="0.94" stroke-width="1.01463"/>
<path d="M302.01 194.344C292.611 198.043 283.244 183.29 273.392 185.523C264.073 187.634 261.854 201.271 253.236 205.396C233.445 214.869 205.093 207.859 191.215 224.858C180.143 238.419 180.673 266.647 195.077 276.631C215.156 290.549 243.138 280.466 267.38 277.653C278.26 276.39 286.306 263.261 297.156 264.784C304.84 265.863 304.169 278.895 310.289 283.675C319.751 291.064 330.744 303.97 341.983 299.794C352.041 296.056 340.642 274.476 349.852 268.974C369.652 257.146 407.987 276.459 416.768 255.119C424.295 236.823 382.292 235.109 370.256 219.383C363.143 210.088 369.359 195.479 363.411 185.399L363.199 185.041C356.883 174.335 347.953 159.197 335.785 160.97C319.922 163.281 316.924 188.475 302.01 194.344Z" stroke="#2714FF" stroke-opacity="0.94" stroke-width="1.01463"/>
<path d="M302.146 193.164C292.434 196.986 282.755 181.742 272.575 184.049C262.945 186.231 260.652 200.322 251.747 204.585C231.296 214.374 201.999 207.13 187.658 224.695C176.217 238.708 176.764 267.877 191.649 278.195C212.397 292.576 241.312 282.157 266.362 279.25C277.604 277.945 285.919 264.379 297.13 265.953C305.07 267.067 304.378 280.534 310.702 285.473C320.479 293.109 331.838 306.444 343.452 302.129C353.845 298.267 342.066 275.968 351.583 270.282C372.043 258.06 411.656 278.017 420.729 255.965C428.508 237.059 385.104 235.289 372.667 219.038C365.317 209.433 371.741 194.337 365.594 183.921L365.376 183.551C358.849 172.489 349.62 156.846 337.047 158.678C320.655 161.066 317.558 187.1 302.146 193.164Z" stroke="#2714FF" stroke-opacity="0.94" stroke-width="1.01463"/>
<path d="M302.283 191.986C292.257 195.931 282.266 180.195 271.757 182.577C261.817 184.829 259.45 199.375 250.258 203.775C229.147 213.879 198.905 206.402 184.101 224.534C172.291 238.999 172.856 269.109 188.221 279.759C209.639 294.605 239.486 283.85 265.345 280.849C276.949 279.502 285.532 265.498 297.105 267.122C305.301 268.273 304.586 282.174 311.114 287.272C321.207 295.155 332.933 308.92 344.921 304.466C355.649 300.479 343.49 277.461 353.315 271.592C374.434 258.975 415.325 279.576 424.691 256.812C432.721 237.297 387.917 235.469 375.079 218.694C367.492 208.78 374.122 193.197 367.777 182.445L367.552 182.063C360.815 170.643 351.288 154.496 338.31 156.387C321.389 158.852 318.192 185.726 302.283 191.986Z" stroke="#2714FF" stroke-opacity="0.94" stroke-width="1.01463"/>
<path d="M302.419 190.807C292.08 194.875 281.777 178.648 270.94 181.103C260.689 183.426 258.248 198.426 248.768 202.964C226.998 213.384 195.811 205.673 180.544 224.372C168.366 239.289 168.948 270.34 184.793 281.323C206.88 296.632 237.66 285.541 264.327 282.446C276.294 281.057 285.145 266.616 297.08 268.291C305.532 269.477 304.795 283.813 311.527 289.071C321.935 297.199 334.027 311.395 346.39 306.801C357.453 302.69 344.914 278.952 355.046 272.9C376.826 259.889 418.994 281.134 428.653 257.659C436.933 237.533 390.729 235.649 377.49 218.349C369.666 208.125 376.504 192.055 369.96 180.967L369.728 180.573C362.78 168.797 352.956 152.145 339.572 154.095C322.122 156.637 318.825 184.351 302.419 190.807Z" stroke="#2714FF" stroke-opacity="0.94" stroke-width="1.01463"/>
<path d="M302.556 189.629C291.904 193.82 281.288 177.101 270.123 179.631C259.561 182.024 257.046 197.479 247.279 202.154C224.849 212.89 192.717 204.945 176.988 224.211C164.44 239.58 165.04 271.572 181.365 282.887C204.121 298.661 235.834 287.234 263.309 284.045C275.639 282.614 284.758 267.735 297.054 269.461C305.763 270.683 305.003 285.453 311.939 290.87C322.663 299.245 335.121 313.871 347.859 309.138C359.258 304.903 346.339 280.445 356.777 274.209C379.217 260.804 422.664 282.693 432.615 258.506C441.146 237.771 393.542 235.829 379.902 218.006C371.84 207.472 378.885 190.915 372.144 179.491L371.904 179.085C364.746 166.952 354.624 149.795 340.835 151.804C322.856 154.424 319.459 182.977 302.556 189.629Z" stroke="#2714FF" stroke-opacity="0.94" stroke-width="1.01463"/>
<path d="M302.692 188.449C291.727 192.764 280.799 175.553 269.305 178.157C258.432 180.621 255.844 196.53 245.79 201.343C222.7 212.395 189.623 204.216 173.431 224.048C160.514 239.869 161.132 272.802 177.937 284.451C201.363 300.688 234.008 288.925 262.291 285.642C274.984 284.169 284.371 268.853 297.029 270.629C305.993 271.887 305.212 287.092 312.351 292.668C323.391 301.289 336.215 316.346 349.328 311.473C361.062 307.113 347.763 281.937 358.508 275.517C381.608 261.718 426.333 284.25 436.576 259.353C445.359 238.008 396.354 236.008 382.313 217.661C374.014 206.817 381.266 189.773 374.327 178.013L374.08 177.595C366.712 165.105 356.292 147.444 342.097 149.512C323.589 152.209 320.092 181.602 302.692 188.449Z" stroke="#2714FF" stroke-opacity="0.94" stroke-width="1.01463"/>
<path d="M302.829 187.271C291.55 191.709 280.31 174.006 268.488 176.685C257.305 179.219 254.642 195.583 244.3 200.533C220.551 211.901 186.529 203.488 169.875 223.887C156.589 240.16 157.224 274.034 174.509 286.015C198.604 302.717 232.182 290.617 261.273 287.241C274.329 285.726 283.984 269.971 297.004 271.799C306.224 273.093 305.42 288.732 312.764 294.467C324.119 303.335 337.31 318.822 350.797 313.81C362.866 309.326 349.187 283.429 360.24 276.827C383.999 262.633 430.002 285.809 440.538 260.2C449.571 238.245 399.167 236.189 384.724 217.317C376.189 206.164 383.648 188.632 376.51 176.536L376.256 176.107C368.677 163.26 357.96 145.094 343.359 147.222C324.323 149.995 320.726 180.228 302.829 187.271Z" stroke="#2714FF" stroke-opacity="0.94" stroke-width="1.01463"/>
<path d="M302.965 186.091C291.373 190.653 279.82 172.458 267.67 175.212C256.176 177.816 253.439 194.634 242.811 199.722C218.402 211.406 183.434 202.76 166.317 223.725C152.662 240.45 153.315 275.265 171.081 287.579C195.845 304.744 230.356 292.309 260.255 288.839C273.673 287.281 283.596 271.089 296.978 272.968C306.455 274.298 305.628 290.371 313.176 296.266C324.846 305.38 338.403 321.296 352.265 316.146C364.67 311.537 350.611 284.921 361.97 278.135C386.39 263.547 433.67 287.367 444.499 261.047C453.783 238.482 401.979 236.369 387.135 216.972C378.362 205.509 386.029 187.491 378.693 175.059L378.432 174.617C370.642 161.414 359.627 142.744 344.621 144.93C325.056 147.78 321.359 178.853 302.965 186.091Z" stroke="#2714FF" stroke-opacity="0.94" stroke-width="1.01463"/>
<path d="M303.102 184.913C291.196 189.598 279.332 170.911 266.853 173.739C255.048 176.414 252.238 193.687 241.322 198.912C216.253 210.911 180.341 202.032 162.761 223.564C148.737 240.741 149.408 276.496 167.653 289.143C193.086 306.772 228.53 294.001 259.238 290.437C273.018 288.838 283.21 272.208 296.953 274.137C306.686 275.503 305.837 292.011 313.589 298.065C325.574 307.425 339.498 323.772 353.734 318.482C366.474 313.749 352.035 286.414 363.702 279.444C388.782 264.462 437.34 288.926 448.461 261.894C457.996 238.719 404.792 236.549 389.547 216.628C380.537 204.855 388.411 186.35 380.876 173.582L380.608 173.129C372.608 159.568 361.296 140.393 345.884 142.639C325.79 145.566 321.993 177.479 303.102 184.913Z" stroke="#2714FF" stroke-opacity="0.94" stroke-width="1.01463"/>
<path d="M303.238 183.734C291.019 188.542 278.842 169.364 266.035 172.266C253.92 175.011 251.036 192.738 239.832 198.101C214.104 210.416 177.246 201.303 159.204 223.401C144.811 241.031 145.5 277.727 164.225 290.707C190.328 308.8 226.704 295.692 258.22 292.035C272.363 290.393 282.823 273.326 296.927 275.306C306.916 276.708 306.045 293.65 314.001 299.863C326.302 309.47 340.592 326.247 355.203 320.818C368.278 315.96 353.459 287.906 365.433 280.753C391.173 265.376 441.009 290.483 452.423 262.741C462.209 238.956 407.604 236.728 391.958 216.284C382.711 204.201 390.792 185.209 383.059 172.105L382.785 171.639C374.574 157.722 362.964 138.043 347.146 140.347C326.523 143.351 322.627 176.104 303.238 183.734Z" stroke="#2714FF" stroke-opacity="0.94" stroke-width="1.01463"/>
<path d="M303.375 182.555C290.843 187.486 278.354 167.817 265.218 170.793C252.792 173.609 249.834 191.791 238.343 197.291C211.955 209.922 174.153 200.575 155.648 223.24C140.886 241.321 141.592 278.959 160.798 292.271C187.569 310.828 224.879 297.384 257.202 293.633C271.708 291.95 282.436 274.445 296.903 276.475C307.148 277.913 306.254 295.29 314.414 301.663C327.03 311.516 341.687 328.723 356.673 323.154C370.083 318.171 354.884 289.398 367.165 282.062C393.564 266.291 444.678 292.042 456.385 263.588C466.422 239.193 410.417 236.909 394.37 215.94C384.886 203.547 393.174 184.068 385.243 170.628L384.961 170.151C376.54 155.876 364.632 135.692 348.409 138.056C327.257 141.137 323.261 174.729 303.375 182.555Z" stroke="#2714FF" stroke-opacity="0.94" stroke-width="1.01463"/>
<path d="M303.511 181.376C290.666 186.431 277.864 166.269 264.4 169.32C251.664 172.206 248.631 190.843 236.853 196.48C209.806 209.427 171.058 199.846 152.091 223.078C136.959 241.611 137.683 280.19 157.369 293.835C184.81 312.856 223.052 299.076 256.184 295.231C271.052 293.505 282.049 275.563 296.877 277.644C307.378 279.118 306.462 296.929 314.826 303.461C327.757 313.56 342.781 331.198 358.141 325.49C371.886 320.383 356.308 290.89 368.895 283.37C395.955 267.205 448.347 293.6 460.346 264.435C470.634 239.43 413.229 237.088 396.781 215.595C387.059 202.893 395.555 182.927 387.425 169.151L387.136 168.661C378.505 154.03 366.299 133.342 349.67 135.764C327.99 138.923 323.894 173.355 303.511 181.376Z" stroke="#2714FF" stroke-opacity="0.94" stroke-width="1.01463"/>
<path d="M303.648 180.197C290.489 185.375 277.376 164.722 263.583 167.847C250.536 170.804 247.43 189.895 235.365 195.67C207.657 208.932 167.965 199.118 148.534 222.917C133.034 241.902 133.776 281.421 153.942 295.399C182.052 314.884 221.227 300.768 255.167 296.829C270.397 295.062 281.662 276.682 296.852 278.813C307.609 280.323 306.671 298.569 315.239 305.26C328.486 315.606 343.876 333.673 359.61 327.827C373.691 322.595 357.732 292.383 370.627 284.679C398.347 268.12 452.016 295.159 464.309 265.282C474.847 239.668 416.042 237.269 399.193 215.251C389.234 202.239 397.937 181.786 389.609 167.674L389.313 167.173C380.471 152.185 367.968 130.992 350.933 133.473C328.724 136.709 324.528 171.98 303.648 180.197Z" stroke="#2714FF" stroke-opacity="0.94" stroke-width="1.01463"/>
<path d="M303.784 179.018C290.312 184.319 276.886 163.174 262.765 166.374C249.407 169.401 246.227 188.946 233.875 194.859C205.508 208.437 164.87 198.389 144.977 222.754C129.108 242.192 129.867 282.652 150.513 296.963C179.293 316.912 219.4 302.46 254.148 298.427C269.742 296.617 281.275 277.8 296.826 279.982C307.84 281.528 306.879 300.208 315.651 307.059C329.213 317.651 344.969 336.148 361.079 330.162C375.495 324.806 359.156 293.874 372.358 285.988C400.737 269.034 455.685 296.717 468.27 266.128C479.06 239.904 418.854 237.448 401.603 214.907C391.408 201.585 400.318 180.644 391.792 166.197L391.489 165.683C382.436 150.338 369.635 128.641 352.195 131.182C329.457 134.494 325.161 170.606 303.784 179.018Z" stroke="#2714FF" stroke-opacity="0.94" stroke-width="1.01463"/>
<path d="M303.921 177.839C290.136 183.264 276.397 161.627 261.948 164.901C248.28 167.999 245.026 187.999 232.386 194.049C203.359 207.943 161.776 197.661 141.421 222.593C125.182 242.482 125.959 283.883 147.086 298.527C176.535 318.94 217.575 304.152 253.131 300.025C269.087 298.174 280.888 278.918 296.801 281.152C308.071 282.733 307.088 301.848 316.064 308.858C329.941 319.696 346.064 338.624 362.548 332.499C377.299 327.018 360.581 295.367 374.09 287.297C403.129 269.949 459.354 298.275 472.232 266.976C483.273 240.142 421.667 237.629 404.015 214.563C393.582 200.931 402.7 179.504 393.975 164.72L393.665 164.195C384.402 148.493 371.303 126.291 353.458 128.891C330.191 132.28 325.795 169.231 303.921 177.839Z" stroke="#2714FF" stroke-opacity="0.94" stroke-width="1.01463"/>
<path d="M304.057 176.661C289.959 182.209 275.909 160.08 261.131 163.429C247.152 166.596 243.824 187.051 230.897 193.239C201.21 207.448 158.682 196.933 137.864 222.432C121.257 242.773 122.051 285.115 143.658 300.092C173.776 320.968 215.749 305.844 252.113 301.624C268.432 299.73 280.501 280.037 296.776 282.321C308.302 283.939 307.296 303.488 316.476 310.657C330.669 321.742 347.158 341.1 364.017 334.835C379.104 329.229 362.005 296.859 375.821 288.606C405.52 270.864 463.023 299.834 476.194 267.823C487.485 240.379 424.48 237.809 406.427 214.219C395.757 200.277 405.081 178.363 396.159 163.243L395.842 162.706C386.368 146.647 372.971 123.941 354.72 126.6C330.925 130.066 326.429 167.857 304.057 176.661Z" stroke="#2714FF" stroke-opacity="0.94" stroke-width="1.01463"/>
<path d="M304.193 175.482C289.782 181.153 275.419 158.532 260.313 161.955C246.023 165.193 242.621 186.103 229.407 192.428C199.061 206.953 155.588 196.204 134.307 222.269C117.331 243.063 118.143 286.346 140.23 301.655C171.017 322.996 213.923 307.536 251.095 303.221C267.776 301.285 280.114 281.155 296.75 283.49C308.532 285.143 307.505 305.127 316.888 312.455C331.397 323.786 348.252 343.574 365.486 337.171C380.908 331.441 363.429 298.351 377.552 289.914C407.911 271.778 466.692 301.392 480.155 268.669C491.698 240.616 427.292 237.988 408.838 213.874C397.931 199.623 407.462 177.221 398.341 161.766L398.017 161.216C388.333 144.801 374.639 121.59 355.982 124.308C331.658 127.851 327.062 166.482 304.193 175.482Z" stroke="#2714FF" stroke-opacity="0.94" stroke-width="1.01463"/>
<path d="M304.33 174.303C289.605 180.098 274.93 156.985 259.496 160.483C244.896 163.791 241.42 185.155 227.918 191.618C196.912 206.459 152.494 195.476 130.751 222.108C113.405 243.353 114.235 287.577 136.802 303.22C168.259 325.024 212.097 309.228 250.077 304.82C267.121 302.842 279.727 282.274 296.725 284.659C308.763 286.349 307.713 306.767 317.301 314.254C332.125 325.832 349.347 346.05 366.955 339.507C382.712 333.652 364.853 299.844 379.283 291.223C410.303 272.693 470.362 302.95 484.117 269.517C495.911 240.853 430.105 238.169 411.249 213.53C400.105 198.969 409.844 176.081 400.525 160.289L400.194 159.728C390.299 142.956 376.307 119.24 357.245 122.017C332.392 125.637 327.696 165.108 304.33 174.303Z" stroke="#2714FF" stroke-opacity="0.94" stroke-width="1.01463"/>
<path d="M304.466 173.124C289.428 179.042 274.441 155.438 258.678 159.009C243.767 162.388 240.217 184.207 226.428 190.807C194.763 205.964 149.4 194.747 127.194 221.946C109.479 243.643 110.327 288.808 133.374 304.783C165.5 327.052 210.271 310.919 249.059 306.417C266.466 304.397 279.34 283.392 296.7 285.828C308.994 287.553 307.922 308.406 317.713 316.053C332.853 327.876 350.441 348.525 368.424 341.843C384.516 335.864 366.277 301.335 381.014 292.532C412.694 273.607 474.03 304.508 488.079 270.363C500.123 241.09 432.917 238.348 413.66 213.186C402.279 198.314 412.225 174.939 402.708 158.811L402.37 158.239C392.264 141.109 377.975 116.889 358.507 119.725C333.125 123.423 328.329 163.733 304.466 173.124Z" stroke="#2714FF" stroke-opacity="0.94" stroke-width="1.01463"/>
<path d="M304.603 171.945C289.251 177.986 273.952 153.89 257.861 157.536C242.639 160.986 239.015 183.258 224.939 189.996C192.614 205.469 146.306 194.019 123.637 221.784C105.554 243.933 106.419 290.039 129.946 306.347C162.741 329.079 208.445 312.611 248.041 308.015C265.811 305.953 278.953 284.51 296.674 286.997C309.225 288.758 308.13 310.045 318.126 317.851C333.581 329.921 351.535 351 369.893 344.179C386.32 338.075 367.702 302.827 382.746 293.84C415.085 274.521 477.699 306.066 492.041 271.21C504.336 241.327 435.73 238.528 416.072 212.841C404.454 197.66 414.607 173.798 404.891 157.334L404.546 156.749C394.23 139.263 379.643 114.538 359.769 117.433C333.859 121.208 328.963 162.358 304.603 171.945Z" stroke="#2714FF" stroke-opacity="0.94" stroke-width="1.01463"/>
<path d="M304.739 170.766C289.074 176.931 273.463 152.343 257.043 156.064C241.511 159.583 237.813 182.311 223.45 189.186C190.465 204.974 143.212 193.291 120.081 221.622C101.628 244.224 102.511 291.271 126.518 307.911C159.983 331.108 206.619 314.303 247.023 309.614C265.156 307.509 278.566 285.628 296.649 288.166C309.455 289.964 308.338 311.685 318.538 319.651C334.308 331.967 352.629 353.476 371.361 346.515C388.124 340.287 369.126 304.32 384.477 295.15C417.476 275.436 481.368 307.625 496.002 272.057C508.548 241.564 438.542 238.708 418.483 212.497C406.628 197.006 416.988 172.657 407.074 155.857L406.722 155.261C396.195 137.418 381.311 112.188 361.031 115.142C334.592 118.994 329.597 160.984 304.739 170.766Z" stroke="#2714FF" stroke-opacity="0.94" stroke-width="1.01463"/>
<path d="M304.876 169.588C288.898 175.875 272.974 150.796 256.226 154.591C240.383 158.181 236.611 181.363 221.961 188.376C188.316 204.48 140.118 192.563 116.524 221.461C97.7021 244.515 98.6026 292.502 123.09 309.476C157.224 333.136 204.793 315.995 246.006 311.212C264.5 309.066 278.179 286.747 296.624 289.336C309.686 291.169 308.547 313.325 318.951 321.45C335.036 334.013 353.724 355.952 372.83 348.852C389.929 342.499 370.55 305.813 386.208 296.459C419.867 276.351 485.038 309.184 499.964 272.905C512.761 241.802 441.355 238.889 420.894 212.153C408.802 196.353 419.37 171.517 409.257 154.381L408.898 153.772C398.161 135.572 382.979 109.838 362.294 112.852C335.326 116.78 330.231 159.61 304.876 169.588Z" stroke="#2714FF" stroke-opacity="0.94" stroke-width="1.01463"/>
<path d="M305.012 168.408C288.721 174.819 272.485 149.248 255.409 153.118C239.255 156.778 235.409 180.415 220.471 187.565C186.167 203.985 137.023 191.834 112.967 221.299C93.7763 244.804 94.6944 293.733 119.662 311.039C154.465 335.164 202.967 317.687 244.988 312.81C263.845 310.621 277.792 287.865 296.598 290.504C309.917 292.374 308.755 314.964 319.363 323.248C335.764 336.057 354.818 358.426 374.299 351.188C391.733 344.71 371.974 307.304 387.939 297.767C422.259 277.265 488.707 310.742 503.926 273.751C516.974 242.038 444.168 239.068 423.306 211.809C410.976 195.698 421.751 170.375 411.441 152.903L411.074 152.283C400.127 133.726 384.646 107.487 363.556 110.56C336.06 114.565 330.864 158.235 305.012 168.408Z" stroke="#2714FF" stroke-opacity="0.94" stroke-width="1.01463"/>
<path d="M305.149 167.23C288.544 173.764 271.996 147.702 254.591 151.645C238.127 155.376 234.207 179.467 218.982 186.755C184.018 203.491 133.929 191.106 109.411 221.138C89.8506 245.095 90.7865 294.965 116.234 312.604C151.707 337.192 201.141 319.379 243.97 314.408C263.19 312.178 277.405 288.984 296.573 291.674C310.148 293.579 308.964 316.604 319.776 325.047C336.492 338.103 355.912 360.902 375.768 353.524C393.537 346.922 373.398 308.797 389.671 299.076C424.65 278.18 492.376 312.3 507.888 274.598C521.186 242.276 446.98 239.249 425.717 211.465C413.151 195.045 424.133 169.235 413.624 151.427L413.251 150.794C402.092 131.881 386.314 105.137 364.819 108.269C336.793 112.352 331.498 156.861 305.149 167.23Z" stroke="#2714FF" stroke-opacity="0.94" stroke-width="1.01463"/>
<path d="M305.285 166.05C288.367 172.708 271.507 146.154 253.774 150.172C236.999 153.973 233.005 178.519 217.493 185.944C181.869 202.995 130.835 190.377 105.854 220.975C85.9248 245.385 86.8783 296.195 112.806 314.167C148.948 339.219 199.315 321.07 242.952 316.006C262.535 313.733 277.018 290.102 296.548 292.843C310.379 294.784 309.172 318.243 320.188 326.846C337.22 340.147 357.007 363.377 377.237 355.86C395.341 349.133 374.823 310.289 391.402 300.384C427.041 279.094 496.045 313.858 511.849 275.445C525.399 242.512 449.793 239.428 428.128 211.12C415.325 194.39 426.514 168.093 415.807 149.949L415.427 149.305C404.058 130.034 387.982 102.786 366.081 105.977C337.527 110.137 332.131 155.486 305.285 166.05Z" stroke="#2714FF" stroke-opacity="0.94" stroke-width="1.01463"/>
<path d="M305.422 164.872C288.191 171.653 271.018 144.607 252.956 148.699C235.871 152.571 231.803 177.571 216.004 185.134C179.72 202.501 127.741 189.649 102.297 220.814C81.9992 245.676 82.9703 297.427 109.378 315.732C146.19 341.248 197.49 322.763 241.935 317.604C261.88 315.29 276.631 291.221 296.522 294.012C310.61 295.989 309.381 319.883 320.601 328.645C337.948 342.193 358.101 365.853 378.706 358.196C397.145 351.345 376.247 311.781 393.133 301.694C429.432 280.009 499.714 315.417 515.811 276.292C529.612 242.75 452.605 239.608 430.54 210.776C417.499 193.736 428.896 166.952 417.99 148.472L417.603 147.816C406.024 128.189 389.65 100.436 367.343 103.686C338.26 107.923 332.765 154.112 305.422 164.872Z" stroke="#2714FF" stroke-opacity="0.94" stroke-width="1.01463"/>
<path d="M305.558 163.693C288.014 170.597 270.529 143.059 252.139 147.226C234.743 151.168 230.601 176.623 214.514 184.323C177.571 202.006 124.647 188.92 98.7404 220.652C78.0733 245.965 79.0621 298.658 105.95 317.295C143.431 343.275 195.664 324.454 240.917 319.202C261.224 316.845 276.244 292.338 296.497 295.181C310.84 297.194 309.589 321.522 321.013 330.443C338.676 344.237 359.195 368.327 380.175 360.532C398.949 353.556 377.671 313.273 394.864 303.002C431.823 280.923 503.383 316.975 519.773 277.139C533.824 242.986 455.418 239.788 432.951 210.431C419.673 193.082 431.277 165.811 420.173 146.995L419.779 146.326C407.989 126.342 391.318 98.0851 368.606 101.394C338.994 105.708 333.399 152.737 305.558 163.693Z" stroke="#2714FF" stroke-opacity="0.94" stroke-width="1.01463"/>
<path d="M305.695 162.514C287.837 169.542 270.04 141.512 251.322 145.754C233.615 149.766 229.399 175.675 213.025 183.513C175.422 201.512 121.553 188.192 95.1839 220.49C74.1477 246.256 75.1541 299.889 102.522 318.86C140.672 345.304 193.838 326.146 239.899 320.8C260.569 318.401 275.857 293.457 296.472 296.35C311.071 298.399 309.798 323.162 321.426 332.243C339.404 346.283 360.29 370.803 381.644 362.868C400.754 355.768 379.095 314.766 396.596 304.311C434.215 281.838 507.052 318.533 523.735 277.986C538.037 243.224 458.23 239.968 435.363 210.088C421.848 192.428 433.659 164.67 422.357 145.518L421.955 144.838C409.955 124.497 392.986 95.7352 369.868 99.1031C339.728 103.494 334.032 151.363 305.695 162.514Z" stroke="#2714FF" stroke-opacity="0.94" stroke-width="1.01463"/>
<path d="M305.831 161.335C287.66 168.486 269.55 139.965 250.504 144.28C232.486 148.363 228.196 174.727 211.535 182.702C173.273 201.017 118.459 187.464 91.6266 220.328C70.2214 246.546 71.2454 301.12 99.0938 320.424C137.913 347.331 192.011 327.838 238.88 322.398C259.914 319.957 275.47 294.575 296.446 297.519C311.301 299.604 310.006 324.801 321.837 334.041C340.131 348.328 361.383 373.278 383.112 365.204C402.557 357.979 380.519 316.258 398.326 305.62C436.605 282.753 510.72 320.091 527.696 278.833C542.249 243.461 461.042 240.148 437.773 209.743C424.021 191.774 436.039 163.529 424.539 144.041L424.131 143.349C411.92 122.651 394.653 93.3846 371.13 96.8117C340.46 101.28 334.665 149.988 305.831 161.335Z" stroke="#2714FF" stroke-opacity="0.94" stroke-width="1.01463"/>
<path d="M305.968 160.157C287.483 167.431 269.062 138.418 249.687 142.808C231.359 146.961 226.995 173.779 210.046 181.892C171.124 200.522 115.365 186.736 88.0705 220.167C66.2962 246.837 67.338 302.352 95.6665 321.988C135.155 349.36 190.186 329.53 237.863 323.997C259.259 321.514 275.083 295.694 296.421 298.689C311.533 300.81 310.215 326.441 322.251 335.84C340.859 350.373 362.478 375.754 384.582 367.541C404.362 360.191 381.944 317.75 400.058 306.929C438.997 283.667 514.39 321.65 531.658 279.68C546.463 243.698 463.856 240.328 440.185 209.399C426.196 191.12 438.422 162.388 426.723 142.564L426.308 141.86C413.886 120.806 396.322 91.0344 372.393 94.5206C341.195 99.0657 335.3 148.614 305.968 160.157Z" stroke="#2714FF" stroke-opacity="0.94" stroke-width="1.01463"/>
<path d="M306.104 158.977C287.306 166.375 268.572 136.87 248.869 141.334C230.23 145.558 225.792 172.831 208.556 181.081C168.975 200.027 112.27 186.007 84.5132 220.005C62.3699 247.127 63.4293 303.583 92.2379 323.552C132.396 351.387 188.359 331.222 236.845 325.594C258.603 323.069 274.696 296.812 296.395 299.858C311.763 302.014 310.423 328.08 322.662 337.639C341.587 352.418 363.572 378.229 386.05 369.876C406.166 362.402 383.367 319.242 401.789 308.237C441.388 284.582 518.059 323.208 535.619 280.527C550.675 243.935 466.667 240.508 442.596 209.055C428.37 190.466 440.802 161.247 428.906 141.087L428.483 140.371C415.851 118.959 397.989 88.6836 373.654 92.2288C341.928 96.851 335.933 147.239 306.104 158.977Z" stroke="#2714FF" stroke-opacity="0.94" stroke-width="1.01463"/>
<path d="M306.241 157.799C287.13 165.319 268.084 135.323 248.052 139.862C229.102 144.156 224.591 171.883 207.068 180.271C166.826 199.533 109.177 185.279 80.9571 219.843C58.4448 247.417 59.5218 304.814 88.8106 325.116C129.638 353.416 186.534 332.914 235.828 327.193C257.949 324.626 274.309 297.931 296.371 301.027C311.994 303.22 310.632 329.72 323.075 339.438C342.315 354.464 364.667 380.705 387.52 372.213C407.971 364.614 384.792 320.735 403.521 309.547C443.78 285.496 521.728 324.767 539.582 281.374C554.888 244.172 469.481 240.688 445.008 208.711C430.545 189.812 443.185 160.106 431.089 139.61L430.66 138.882C417.817 117.114 399.658 86.3335 374.917 89.9378C342.662 94.637 336.567 145.865 306.241 157.799Z" stroke="#2714FF" stroke-opacity="0.94" stroke-width="1.01463"/>
<path d="M306.377 156.619C286.952 164.263 267.594 133.775 247.234 138.389C227.974 142.753 223.388 170.935 205.578 179.46C164.677 199.038 106.082 184.55 77.3998 219.681C54.5184 247.707 55.6131 306.045 85.382 326.68C126.878 355.443 184.708 334.605 234.809 328.791C257.293 326.181 273.922 299.049 296.345 302.196C312.225 304.424 310.84 331.359 323.487 341.236C343.042 356.508 365.761 383.179 388.988 374.549C409.774 366.825 386.216 322.226 405.251 310.855C446.17 286.411 525.397 326.325 543.543 282.22C559.1 244.409 472.293 240.868 447.419 208.366C432.718 189.157 445.565 158.965 433.272 138.133L432.835 137.393C419.782 115.268 401.325 83.9826 376.179 87.6461C343.395 92.4223 337.2 144.49 306.377 156.619Z" stroke="#2714FF" stroke-opacity="0.94" stroke-width="1.01463"/>
<path d="M306.513 155.441C286.776 163.208 267.105 132.228 246.417 136.916C226.846 141.351 222.186 169.987 204.089 178.65C162.528 198.544 102.988 183.822 73.8433 219.52C50.5928 247.998 51.7052 307.277 81.9542 328.244C124.12 357.472 182.882 336.298 233.791 330.389C256.638 327.738 273.535 300.168 296.319 303.365C312.456 305.63 311.048 332.999 323.9 343.036C343.77 358.554 366.855 385.655 390.457 376.885C411.578 369.037 387.64 323.719 406.983 312.164C448.562 287.326 529.066 327.883 547.505 283.068C563.313 244.646 475.105 241.048 449.83 208.022C434.893 188.504 447.947 157.824 435.455 136.656L435.012 135.904C421.748 113.422 402.993 81.6327 377.442 85.3552C344.128 90.2085 337.834 143.116 306.513 155.441Z" stroke="#2714FF" stroke-opacity="0.94" stroke-width="1.01463"/>
<path d="M306.65 154.261C286.599 162.152 266.616 130.68 245.599 135.442C225.718 139.947 220.984 169.039 202.599 177.839C160.379 198.048 99.8942 183.093 70.2865 219.357C46.6669 248.287 47.797 308.507 78.5262 329.807C121.361 359.499 181.056 337.989 232.773 331.986C255.982 329.293 273.148 301.285 296.294 304.534C312.686 306.834 311.257 334.637 324.312 344.833C344.498 360.598 367.949 388.13 391.926 379.22C413.382 371.248 389.064 325.21 408.714 313.472C450.953 288.239 532.735 329.441 551.466 283.914C567.525 244.883 477.918 241.227 452.242 207.677C437.067 187.849 450.328 156.682 437.638 135.178L437.188 134.414C423.713 111.575 404.661 79.2814 378.704 83.063C344.862 87.9933 338.467 141.74 306.65 154.261Z" stroke="#2714FF" stroke-opacity="0.94" stroke-width="1.01463"/>
<path d="M306.786 153.083C286.422 161.097 266.127 129.133 244.782 133.97C224.59 138.545 219.782 168.091 201.11 177.029C158.23 197.554 96.8003 182.365 66.7299 219.196C42.7413 248.578 43.889 309.739 75.0984 331.372C118.603 361.527 179.23 339.681 231.756 333.585C255.327 330.849 272.761 302.404 296.269 305.703C312.917 308.04 311.465 336.277 324.725 346.633C345.226 362.644 369.044 390.606 393.395 381.557C415.187 373.46 390.489 326.703 410.445 314.781C453.344 289.154 536.404 331 555.428 284.761C571.738 245.12 480.73 241.408 454.653 207.333C439.241 187.195 452.71 155.542 439.822 133.702L439.364 132.926C425.679 109.73 406.329 76.9315 379.966 80.7722C345.595 85.7796 339.101 140.367 306.786 153.083Z" stroke="#2714FF" stroke-opacity="0.94" stroke-width="1.01463"/>
<path d="M306.923 151.904C286.245 160.041 265.638 127.585 243.964 132.497C223.462 137.142 218.58 167.143 199.621 176.218C156.081 197.059 93.7063 181.636 63.1734 219.034C38.8157 248.868 39.9811 310.97 71.6705 332.935C115.844 363.555 177.404 341.372 230.738 335.183C254.672 332.405 272.374 303.522 296.244 306.872C313.148 309.244 311.674 337.916 325.137 348.431C345.954 364.689 370.138 393.08 394.864 383.893C416.991 375.671 391.913 328.195 412.176 316.09C455.736 290.068 540.073 332.558 559.39 285.608C575.951 245.357 483.543 241.587 457.065 206.989C441.416 186.541 455.092 154.4 442.005 132.224L441.54 131.436C427.645 107.884 407.997 74.5806 381.229 78.4804C346.329 83.5648 339.735 138.992 306.923 151.904Z" stroke="#2714FF" stroke-opacity="0.94" stroke-width="1.01463"/>
<path d="M307.059 150.725C286.068 158.986 265.149 126.039 243.147 131.024C222.333 135.74 217.378 166.195 198.131 175.408C153.932 196.565 90.6119 180.908 59.6163 218.873C34.8896 249.159 36.0726 312.201 68.2422 334.5C113.085 365.583 175.578 343.065 229.72 336.781C254.017 333.961 271.987 304.641 296.218 308.042C313.379 310.45 311.882 339.557 325.55 350.231C346.682 366.734 371.232 395.556 396.333 386.229C418.795 377.883 393.337 329.688 413.907 317.399C458.126 290.983 543.742 334.116 563.352 286.455C580.163 245.595 486.355 241.768 459.476 206.645C443.59 185.887 457.473 153.26 444.188 130.748L443.716 129.948C429.61 106.039 409.665 72.2308 382.491 76.1896C347.062 81.351 340.368 137.618 307.059 150.725Z" stroke="#2714FF" stroke-opacity="0.94" stroke-width="1.01463"/>
<path d="M307.196 149.546C285.892 157.929 264.66 124.491 242.329 129.551C221.205 134.337 216.176 165.247 196.642 174.597C151.783 196.069 87.518 180.179 56.0598 218.71C30.964 249.449 32.1647 313.432 64.8144 336.063C110.327 367.61 173.752 344.756 228.702 338.379C253.362 335.517 271.6 305.759 296.193 309.21C313.61 311.655 312.091 341.195 325.962 352.029C347.41 368.779 372.326 398.031 397.802 388.565C420.599 380.094 394.761 331.179 415.639 318.707C460.518 291.897 547.411 335.674 567.313 287.302C584.376 245.831 489.168 241.947 461.887 206.3C445.764 185.233 459.854 152.118 446.371 129.27L445.892 128.458C431.576 104.192 411.333 69.8797 383.753 73.8976C347.796 79.1361 341.002 136.242 307.196 149.546Z" stroke="#2714FF" stroke-opacity="0.94" stroke-width="1.01463"/>
</svg>
