<svg width="132" height="132" viewBox="0 0 132 132" fill="none" xmlns="http://www.w3.org/2000/svg">
<path fill-rule="evenodd" clip-rule="evenodd" d="M58.5167 60.224C59.585 58.9745 59.3457 56.4249 60.9526 55.9897C62.6893 55.5194 64.2818 57.4335 65.9562 58.2094C67.0673 58.7242 68.0181 59.6181 69.2159 59.8185C70.8956 60.0995 72.6638 58.871 74.2218 59.5924C75.6746 60.2652 76.2663 62.028 77.0242 63.4342C77.8524 64.9709 79.6562 66.7438 78.8856 68.2459C77.9349 70.0991 75.051 69.7912 73.2347 70.8206C72.3217 71.338 71.8513 72.4775 70.8464 72.8021C69.8712 73.1172 68.637 72.0602 67.7663 72.5872C66.3171 73.4644 66.2893 75.9651 64.6825 76.533C63.3823 76.9925 61.9646 75.7996 60.7463 75.0683C59.4832 74.31 57.907 73.5752 57.4487 72.1904C56.9648 70.7284 58.7905 69.2746 58.3415 67.8028C57.7775 65.9539 54.6836 65.1782 54.7277 63.2704C54.7661 61.6078 57.4533 61.4678 58.5167 60.224Z" stroke="#2714FF" stroke-opacity="0.94" stroke-width="0.371332"/>
<path fill-rule="evenodd" clip-rule="evenodd" d="M33.1179 39.82C37.7407 34.413 36.6963 23.373 43.6539 21.4939C51.1738 19.4629 58.0761 27.7556 65.3301 31.12C70.1431 33.3523 74.2637 37.2256 79.4518 38.0971C86.7266 39.3191 94.3802 34.0052 101.13 37.1338C107.424 40.051 109.991 47.6853 113.278 53.7761C116.869 60.4322 124.687 68.1143 121.354 74.6155C117.242 82.6364 104.752 81.2945 96.8896 85.7458C92.9373 87.9834 90.9038 92.9155 86.5528 94.318C82.3303 95.6792 76.9821 91.099 73.2131 93.3781C66.9396 97.1717 66.8273 107.999 59.8703 110.453C54.2412 112.439 48.0977 107.269 42.8193 104.099C37.3469 100.812 30.5188 97.6254 28.5296 91.6284C26.4294 85.2964 34.3315 79.0076 32.3827 72.6338C29.9345 64.6268 16.5333 61.2587 16.7184 52.9985C16.8797 45.7999 28.5165 45.2019 33.1179 39.82Z" stroke="#2714FF" stroke-opacity="0.94" stroke-width="0.371332"/>
<path d="M60.6131 55.313C58.9013 55.7765 59.1565 58.4926 58.0184 59.8236C56.8857 61.1485 54.023 61.2975 53.9822 63.0687C53.9353 65.1011 57.2313 65.9276 57.8323 67.8972C58.3106 69.4651 56.3658 71.0137 56.8814 72.5713C57.3697 74.0464 59.0489 74.8293 60.3945 75.6372C61.6924 76.4164 63.2029 77.6873 64.5879 77.1978C66.2996 76.593 66.329 73.929 67.8728 72.9946C68.8004 72.4332 70.1152 73.5593 71.1541 73.2237C72.2247 72.8779 72.7257 71.6641 73.6983 71.1129C75.6331 70.0165 78.7054 70.3446 79.7181 68.3705C80.5389 66.7704 78.6172 64.8816 77.7348 63.2445C76.9274 61.7464 76.2969 59.8685 74.7492 59.1518C73.0893 58.3831 71.2058 59.6918 69.4164 59.3923C68.1403 59.1787 67.1273 58.2264 65.9437 57.6779C64.1598 56.8513 62.4633 54.8121 60.6131 55.313Z" stroke="#2714FF" stroke-opacity="0.94" stroke-width="0.371332"/>
<path d="M60.2747 54.637C58.4579 55.1288 58.7289 58.0114 57.5211 59.424C56.319 60.83 53.2809 60.988 53.2376 62.8677C53.188 65.0246 56.6861 65.902 57.324 67.9924C57.8318 69.6564 55.7678 71.2997 56.3151 72.9528C56.8334 74.5184 58.6156 75.3494 60.0437 76.2068C61.4213 77.0338 63.0244 78.3827 64.4943 77.8633C66.3109 77.2215 66.342 74.3942 67.9804 73.4026C68.9647 72.8069 70.3602 74.0021 71.4628 73.646C72.599 73.279 73.1307 71.9909 74.1628 71.406C76.2162 70.2424 79.4768 70.5908 80.5515 68.4958C81.4226 66.7977 79.383 64.793 78.4464 63.0555C77.5894 61.4656 76.9202 59.4725 75.2775 58.7118C73.5159 57.8959 71.5169 59.2847 69.6178 58.9668C68.2635 58.74 67.1884 57.7293 65.9322 57.1472C64.0389 56.2698 62.2382 54.1055 60.2747 54.637Z" stroke="#2714FF" stroke-opacity="0.94" stroke-width="0.371332"/>
<path d="M59.9352 53.9603C58.0136 54.4804 58.3003 57.5295 57.0229 59.0236C55.7514 60.5108 52.5377 60.6777 52.4921 62.666C52.4397 64.9475 56.1399 65.8757 56.8147 68.0868C57.3519 69.8469 55.1688 71.5851 55.7478 73.3336C56.2962 74.9897 58.1813 75.8687 59.692 76.7757C61.1491 77.6506 62.8449 79.0774 64.3997 78.5281C66.3212 77.8493 66.3539 74.8588 68.0869 73.81C69.1281 73.1799 70.6043 74.4442 71.7706 74.0675C72.9723 73.6795 73.5346 72.3169 74.6264 71.6983C76.7983 70.4677 80.2473 70.8364 81.384 68.6204C82.3053 66.8242 80.1478 64.7037 79.157 62.8658C78.2504 61.1841 77.5424 59.0759 75.8049 58.2711C73.9414 57.4081 71.8271 58.877 69.8183 58.5406C68.3857 58.3006 67.2484 57.2315 65.9196 56.6157C63.917 55.6876 62.0122 53.3982 59.9352 53.9603Z" stroke="#2714FF" stroke-opacity="0.94" stroke-width="0.371332"/>
<path d="M59.596 53.2844C57.5695 53.8328 57.872 57.0483 56.5248 58.6239C55.184 60.1922 51.7949 60.3682 51.7468 62.465C51.6916 64.871 55.594 65.8501 56.3057 68.1819C56.8723 70.0382 54.57 71.8712 55.1807 73.7152C55.7591 75.4617 57.7472 76.3888 59.3405 77.3454C60.8772 78.268 62.6656 79.7728 64.3053 79.1936C66.3318 78.4778 66.3661 75.324 68.1937 74.2181C69.2917 73.5536 70.8486 74.887 72.0785 74.4898C73.3459 74.0806 73.9389 72.6437 75.0902 71.9914C77.3807 70.6936 81.0181 71.0826 82.2167 68.7457C83.1883 66.8515 80.9128 64.6151 79.8679 62.6769C78.9117 60.9032 78.165 58.6799 76.3325 57.8312C74.3673 56.9209 72.1375 58.4699 70.019 58.115C68.5082 57.862 67.3087 56.7344 65.9074 56.0849C63.7953 55.106 61.7864 52.6916 59.596 53.2844Z" stroke="#2714FF" stroke-opacity="0.94" stroke-width="0.371332"/>
<path d="M59.2566 52.6077C57.1251 53.1844 57.4434 56.5664 56.0266 58.2235C54.6163 59.873 51.0517 60.0579 51.0013 62.2633C50.9434 64.7939 55.0478 65.8237 55.7965 68.2763C56.3925 70.2287 53.9711 72.1565 54.6135 74.096C55.2219 75.9329 57.3129 76.9081 58.9887 77.9143C60.6051 78.8848 62.4861 80.4675 64.2107 79.8584C66.3421 79.1056 66.3781 75.7886 68.3003 74.6254C69.4551 73.9266 71.0926 75.329 72.3862 74.9114C73.7192 74.4811 74.3428 72.9698 75.5538 72.2837C77.9628 70.9189 81.7885 71.3281 83.0492 68.8702C84.071 66.8781 81.6776 64.5258 80.5785 62.4872C79.5727 60.6217 78.7872 58.2833 76.8599 57.3905C74.7928 56.433 72.4476 58.0621 70.2194 57.6888C68.6304 57.4226 67.3688 56.2366 65.8948 55.5535C63.6733 54.5238 61.5603 51.9843 59.2566 52.6077Z" stroke="#2714FF" stroke-opacity="0.94" stroke-width="0.371332"/>
<path d="M58.9181 51.9317C56.6818 52.5367 57.0158 56.0852 55.5293 57.8238C54.0497 59.5544 50.3096 59.7484 50.2567 62.0623C50.196 64.7174 54.5026 65.7981 55.2882 68.3715C55.9136 70.42 53.3731 72.4425 54.0471 74.4776C54.6856 76.4049 56.8796 77.4282 58.6379 78.4839C60.3339 79.5022 62.3076 81.163 64.1171 80.5239C66.3533 79.7342 66.391 76.2538 68.4078 75.0335C69.6195 74.3004 71.3377 75.7718 72.6949 75.3337C74.0935 74.8822 74.7478 73.2966 76.0184 72.5768C78.5459 71.1448 82.56 71.5743 83.8826 68.9955C84.9546 66.9054 82.4433 64.4372 81.29 62.2982C80.2347 60.3409 79.4105 57.8873 77.3882 56.9505C75.2194 55.9459 72.7588 57.6551 70.4209 57.2633C68.7536 56.9839 67.4298 55.7395 65.8833 55.0227C63.5524 53.9423 61.3353 51.2778 58.9181 51.9317Z" stroke="#2714FF" stroke-opacity="0.94" stroke-width="0.371332"/>
<path d="M58.5787 51.255C56.2374 51.8883 56.5872 55.6033 55.031 57.4235C53.482 59.2352 49.5665 59.4381 49.5112 61.8606C49.4477 64.6403 53.9564 65.7718 54.779 68.4659C55.4338 70.6105 52.7741 72.7279 53.4799 74.8584C54.1483 76.8762 56.4453 77.9475 58.2862 79.0528C60.0617 80.119 62.1281 81.8577 64.0224 81.1887C66.3636 80.362 66.403 76.7184 68.5143 75.4409C69.7828 74.6734 71.5817 76.2139 73.0027 75.7553C74.4668 75.2827 75.1518 73.6227 76.4819 72.8691C79.128 71.3701 83.3305 71.8199 84.7151 69.1201C85.8373 66.9319 83.2081 64.3479 82.0007 62.1085C80.8957 60.0594 80.0328 57.4907 77.9156 56.5099C75.6449 55.458 73.0689 57.2473 70.6213 56.8371C68.8758 56.5446 67.4899 55.2417 65.8708 54.4912C63.4305 53.3601 61.1092 50.5705 58.5787 51.255Z" stroke="#2714FF" stroke-opacity="0.94" stroke-width="0.371332"/>
<path d="M58.2393 50.5785C55.793 51.2402 56.1587 55.1216 54.5328 57.0233C52.9144 58.9162 48.8234 59.1281 48.7657 61.6591C48.6995 64.5633 53.4102 65.7457 54.2697 68.5606C54.954 70.8013 52.1751 73.0135 52.9126 75.2395C53.611 77.3477 56.011 78.4671 57.9344 79.622C59.7896 80.736 61.9486 82.5527 63.9278 81.8538C66.3739 80.99 66.4149 77.1831 68.6209 75.8485C69.9462 75.0466 71.8257 76.6563 73.3104 76.1771C74.8402 75.6834 75.5557 73.949 76.9455 73.1617C79.7102 71.5956 84.101 72.0656 85.5475 69.245C86.72 66.9587 83.9729 64.2588 82.7113 61.9191C81.5568 59.7781 80.655 57.0942 78.4429 56.0694C76.0705 54.9704 73.3791 56.8398 70.8218 56.4111C68.998 56.1054 67.55 54.7442 65.8582 53.96C63.3085 52.7781 60.8832 49.8634 58.2393 50.5785Z" stroke="#2714FF" stroke-opacity="0.94" stroke-width="0.371332"/>
<path d="M57.8998 49.9023C55.3487 50.5923 55.7301 54.6402 54.0345 56.6234C52.3468 58.5974 48.0802 58.8183 48.0201 61.4578C47.9512 64.4866 52.864 65.7198 53.7605 68.6554C54.4741 70.9923 51.5761 73.2993 52.3453 75.6208C53.0738 77.8194 55.5767 78.9869 57.5826 80.1914C59.5174 81.3532 61.7692 83.2478 63.8332 82.519C66.3842 81.6183 66.4269 77.6481 68.7274 76.2563C70.1096 75.4201 72.0698 77.0988 73.6181 76.5991C75.2135 76.0843 75.9597 74.2755 77.4091 73.4545C80.2923 71.8213 84.8715 72.3116 86.38 69.37C87.6027 66.9858 84.7377 64.17 83.4219 61.7299C82.2178 59.497 81.2773 56.698 78.9703 55.6292C76.496 54.483 73.6893 56.4325 71.0222 55.9854C69.1202 55.6665 67.61 54.2469 65.8457 53.429C63.1866 52.1963 60.6571 49.1566 57.8998 49.9023Z" stroke="#2714FF" stroke-opacity="0.94" stroke-width="0.371332"/>
<path d="M57.5611 49.2259C54.9051 49.9441 55.3023 54.1585 53.537 56.2233C51.7799 58.2784 47.3379 58.5082 47.2753 61.2564C47.2036 64.4097 52.3185 65.6937 53.252 68.7501C53.995 71.1831 50.9779 73.5849 51.7787 76.0018C52.5372 78.2909 55.1432 79.5065 57.2316 80.7605C59.246 81.9702 61.5904 83.9428 63.7394 83.1841C66.3953 82.2464 66.4396 78.1129 68.8347 76.6639C70.2737 75.7933 72.3146 77.5411 73.9266 77.0209C75.5876 76.4849 76.3644 74.6018 77.8734 73.7471C80.8752 72.0468 85.6427 72.5574 87.2132 69.4948C88.4862 67.0126 85.5032 64.0809 84.1332 61.5404C82.8795 59.2157 81.9003 56.3016 79.4984 55.1888C76.9223 53.9953 74.0002 56.025 71.2234 55.5594C69.2432 55.2274 67.6708 53.7493 65.8339 52.8978C63.0654 51.6143 60.4318 48.4495 57.5611 49.2259Z" stroke="#2714FF" stroke-opacity="0.94" stroke-width="0.371332"/>
<path d="M57.2219 48.5496C54.461 49.2962 54.874 53.6771 53.0389 55.8234C51.2125 57.9596 46.595 58.1985 46.5301 61.0551C46.4555 64.3331 51.7726 65.6679 52.743 68.845C53.5154 71.3741 50.3791 73.8707 51.2117 76.3831C52.0002 78.7627 54.7091 80.0263 56.8801 81.3299C58.9741 82.5874 61.4112 84.638 63.645 83.8493C66.4058 82.8747 66.4518 78.578 68.9415 77.0717C70.4373 76.1668 72.5589 77.9837 74.2345 77.443C75.9611 76.8859 76.7687 74.9284 78.3372 74.0399C81.4575 72.2725 86.4134 72.8034 88.0459 69.6199C89.3691 67.0396 86.2683 63.9921 84.8441 61.3512C83.5408 58.9346 82.5229 55.9054 80.026 54.7486C77.3482 53.508 74.3106 55.6177 71.4241 55.1337C69.3657 54.7885 67.7311 53.252 65.8216 52.3668C62.9437 51.0326 60.206 47.7427 57.2219 48.5496Z" stroke="#2714FF" stroke-opacity="0.94" stroke-width="0.371332"/>
<path d="M56.8827 47.8732C54.0169 48.6481 54.4456 53.1954 52.5409 55.4232C50.6451 57.6406 45.8521 57.8884 45.7848 60.8536C45.7075 64.2561 51.2267 65.6418 52.234 68.9397C53.0358 71.5649 49.7804 74.1563 50.6446 76.7642C51.4632 79.2342 54.2751 80.5458 56.5286 81.8991C58.7022 83.2044 61.2319 85.3329 63.5506 84.5144C66.4164 83.5027 66.464 79.0427 69.0483 77.4793C70.601 76.5401 72.8032 78.426 74.5425 77.8648C76.3347 77.2865 77.1729 75.2547 78.801 74.3325C82.0399 72.498 87.1841 73.0492 88.8786 69.7447C90.2521 67.0664 87.0333 63.9031 85.5549 61.1618C84.2021 58.6533 83.1454 55.509 80.5536 54.3082C77.774 53.0203 74.621 55.2102 71.6248 54.7077C69.4881 54.3494 67.7914 52.7544 65.8094 51.8355C62.822 50.4506 59.9802 47.0356 56.8827 47.8732Z" stroke="#2714FF" stroke-opacity="0.94" stroke-width="0.371332"/>
<path d="M56.5433 47.1965C53.5725 47.9997 54.0171 52.7135 52.0427 55.0228C50.0774 57.3214 45.109 57.5782 45.0392 60.6519C44.9592 64.179 50.6805 65.6155 51.7247 69.0341C52.556 71.7554 49.1814 74.4416 50.0773 77.145C50.9259 79.7055 53.8408 81.0652 56.1768 82.468C58.4301 83.8211 61.0524 86.0276 63.456 85.1792C66.4267 84.1305 66.4759 79.5073 69.1549 77.8867C70.7643 76.9131 73.0472 78.8681 74.8502 78.2864C76.708 77.687 77.5769 75.5808 79.2646 74.6249C82.622 72.7232 87.9546 73.2947 89.7111 69.8693C91.1348 67.093 87.7981 63.8138 86.2655 60.9721C84.8631 58.3718 83.7677 55.1123 81.081 53.8675C78.1995 52.5324 74.9311 54.8024 71.8253 54.2815C69.6103 53.91 67.8515 52.2566 65.7968 51.3041C62.7001 49.8684 59.7542 46.3284 56.5433 47.1965Z" stroke="#2714FF" stroke-opacity="0.94" stroke-width="0.371332"/>
<path d="M56.2046 46.5205C53.1289 47.3521 53.5892 52.2323 51.5451 54.6232C49.5105 57.0029 44.3666 57.2686 44.2944 60.4509C44.2116 64.1025 50.135 65.5899 51.2162 69.1292C52.0769 71.9467 48.5832 74.7277 49.5108 77.5266C50.3893 80.1774 53.4072 81.5852 55.8258 83.0377C58.1587 84.4386 60.8737 86.7231 63.3622 85.8447C66.4377 84.7591 66.4886 79.9725 69.2622 78.2948C70.9285 77.2868 73.292 79.3109 75.1587 78.7087C77.0821 78.0881 77.9816 75.9076 79.7289 74.9179C83.2049 72.9492 88.7258 73.5409 90.5443 69.9946C92.0182 67.1203 88.5636 63.7252 86.9769 60.7832C85.5249 58.091 84.3907 54.7164 81.6091 53.4276C78.6258 52.0453 75.242 54.3953 72.0264 53.856C69.7333 53.4713 67.9123 51.7596 65.785 50.7733C62.5789 49.2869 59.5289 45.6218 56.2046 46.5205Z" stroke="#2714FF" stroke-opacity="0.94" stroke-width="0.371332"/>
<path d="M55.8647 45.8438C52.684 46.7037 53.1602 51.7504 51.0464 54.2228C48.9424 56.6836 43.623 56.9584 43.5484 60.2492C43.4629 64.0254 49.5883 65.5635 50.7065 69.2236C51.5966 72.1372 47.9837 75.013 48.943 77.9074C49.8516 80.6487 52.9724 82.1046 55.4736 83.6066C57.886 85.0553 60.6937 87.4178 63.2671 86.5095C66.4475 85.3869 66.5001 80.4371 69.3682 78.7021C71.0913 77.6598 73.5355 79.753 75.4659 79.1303C77.4549 78.4886 78.3851 76.2336 80.192 75.2103C83.7865 73.1745 89.4958 73.7864 91.3763 70.1192C92.9004 67.1468 89.3279 63.6359 87.687 60.5935C86.1854 57.8095 85.0125 54.3197 82.1359 52.9869C79.0509 51.5574 75.5517 53.9876 72.2264 53.4298C69.855 53.032 67.9719 51.2618 65.772 50.2418C62.4565 48.7046 59.3023 44.9145 55.8647 45.8438Z" stroke="#2714FF" stroke-opacity="0.94" stroke-width="0.371332"/>
<path d="M55.5262 45.1681C52.2407 46.0562 52.7326 51.2695 50.5491 53.8233C48.3758 56.3653 42.8809 56.6491 42.8039 60.0485C42.7155 63.9492 49.0431 65.5382 50.1982 69.319C51.1177 72.3287 47.3857 75.2993 48.3767 78.2892C49.3153 81.1209 52.5391 82.6249 55.1228 84.1764C57.6148 85.673 60.5152 88.1135 63.1734 87.1752C66.4588 86.0156 66.513 80.9026 69.4757 79.1104C71.2557 78.0337 73.7806 80.196 75.7746 79.5528C77.8292 78.89 78.79 76.5607 80.6565 75.5036C84.3696 73.4007 90.2673 74.0329 92.2097 70.2448C93.7841 67.1744 90.0937 63.5475 88.3986 60.4048C86.8474 57.5289 85.6357 53.924 82.6643 52.5472C79.4774 51.0705 75.8628 53.5808 72.4278 53.0045C69.9782 52.5935 68.0329 50.7649 65.7605 49.7113C62.3355 48.1234 59.0773 44.2081 55.5262 45.1681Z" stroke="#2714FF" stroke-opacity="0.94" stroke-width="0.371332"/>
<path d="M55.1865 44.4911C51.7961 45.4076 52.3038 50.7873 50.0506 53.4227C47.8079 56.0458 42.1375 56.3385 42.0581 59.8465C41.967 63.8718 48.4967 65.5116 49.6887 69.4132C50.6376 72.519 46.7865 75.5844 47.8092 78.6698C48.7778 81.5919 52.1046 83.144 54.7708 84.7451C57.3425 86.2895 60.3355 88.8079 63.0786 87.8398C66.4688 86.6432 66.5247 81.3669 69.582 79.5175C71.4188 78.4065 74.0244 80.6379 76.0821 79.9741C78.2023 79.2902 79.1938 76.8865 81.1199 75.7957C84.9515 73.6257 91.0375 74.2782 93.0419 70.3691C94.6665 67.2007 90.8582 63.458 89.1089 60.2148C87.5082 57.2471 86.2578 53.5271 83.1914 52.1062C79.9028 50.5824 76.1728 53.1728 72.628 52.578C70.1002 52.1539 68.0927 50.2669 65.7477 49.1796C62.2134 47.5409 58.851 43.5006 55.1865 44.4911Z" stroke="#2714FF" stroke-opacity="0.94" stroke-width="0.371332"/>
<path d="M54.8471 43.8142C51.3517 44.759 51.8752 50.3052 49.5523 53.0221C47.2402 55.7264 41.3944 56.028 41.3126 59.6445C41.2187 63.7944 47.9505 65.485 49.1795 69.5074C50.1578 72.7093 46.1875 75.8695 47.2419 79.0504C48.2405 82.063 51.6703 83.6631 54.419 85.3138C57.0703 86.906 60.156 89.5024 62.984 88.5043C66.4791 87.2708 66.5367 81.8312 69.6886 79.9247C71.5822 78.7793 74.2684 81.0797 76.3898 80.3954C78.5756 79.6904 79.5977 77.2123 81.5834 76.0878C85.5336 73.8507 91.808 74.5235 93.8744 70.4935C95.5492 67.227 91.623 63.3685 89.8195 60.0249C88.1692 56.9653 86.88 53.1302 83.7187 51.6653C80.3283 50.0943 76.4829 52.7648 72.8285 52.1516C70.2224 51.7143 68.1528 49.7689 65.7352 48.6479C62.0914 46.9584 58.6249 42.7931 54.8471 43.8142Z" stroke="#2714FF" stroke-opacity="0.94" stroke-width="0.371332"/>
<path d="M54.5079 43.1387C50.9076 44.1118 51.4469 49.8245 49.0543 52.6229C46.6728 55.4083 40.6515 55.719 40.5673 59.444C40.4707 63.7184 47.4045 65.4599 48.6705 69.603C49.6782 72.901 45.5887 76.156 46.6748 79.4324C47.7035 82.5354 51.2362 84.1836 54.0675 85.8839C56.7984 87.524 59.9767 90.1983 62.8896 89.1703C66.4897 87.8998 66.5489 82.2969 69.7954 80.3332C71.7458 79.1534 74.5127 81.523 76.6977 80.8182C78.9492 80.092 80.002 77.5396 82.0473 76.3813C86.116 74.0771 92.5788 74.7702 94.7071 70.6192C96.4322 67.2548 92.388 63.2803 90.5304 59.8364C88.8305 56.685 87.5026 52.7347 84.2463 51.2258C80.7541 49.6076 76.7933 52.3582 73.0292 51.7265C70.3448 51.2761 68.2131 49.2723 65.7229 48.1176C61.9698 46.3774 58.3991 42.087 54.5079 43.1387Z" stroke="#2714FF" stroke-opacity="0.94" stroke-width="0.371332"/>
<path d="M54.1685 42.4618C50.4632 43.4632 51.0183 49.3423 48.556 52.2223C46.1052 55.0888 39.9084 55.4085 39.8218 59.2421C39.7224 63.641 46.8583 65.4333 48.1612 69.6971C49.1984 73.0913 44.9898 76.4411 46.1075 79.813C47.1662 83.0065 50.8019 84.7027 53.7157 86.4526C56.5263 88.1405 59.7972 90.8928 62.795 89.8349C66.5 88.5273 66.5609 82.7612 69.9019 80.7403C71.9092 79.5262 74.7568 81.9649 77.0055 81.2395C79.3225 80.4922 80.4059 77.8654 82.5108 76.6734C86.6981 74.3021 93.3492 75.0155 95.5396 70.7436C97.3149 67.2811 93.1528 63.1908 91.241 59.6465C89.4915 56.4032 88.1248 52.3378 84.7737 50.7849C81.1797 49.1195 77.1035 51.9502 73.2297 51.3001C70.467 50.8365 68.2731 48.7742 65.7104 47.5859C61.8478 45.7949 58.1731 41.3794 54.1685 42.4618Z" stroke="#2714FF" stroke-opacity="0.94" stroke-width="0.371332"/>
<path d="M53.83 41.7858C50.0199 42.8155 50.5907 48.8611 48.0587 51.8226C45.5385 54.7703 39.1662 55.0989 39.0772 59.041C38.9751 63.5645 46.3131 65.4077 47.653 69.7923C48.7195 73.2826 44.3918 76.7272 45.5412 80.1945C46.6299 83.4784 50.3686 85.2227 53.3649 87.0222C56.2551 88.7579 59.6187 91.5882 62.7014 90.5004C66.5113 89.1559 66.5738 83.2265 70.0095 81.1484C72.0736 79.8999 75.0018 82.4077 77.3142 81.6618C79.6968 80.8933 80.8109 78.1922 82.9754 76.9665C87.2812 74.5281 94.1207 75.2617 96.373 70.8689C98.1986 67.3084 93.9186 63.1022 91.9526 59.4575C90.1535 56.1224 88.7481 51.9419 85.302 50.345C81.6062 48.6323 77.4146 51.5431 73.4311 50.8746C70.5902 50.3978 68.3342 48.2772 65.6988 47.0552C61.7269 45.2134 57.948 40.6728 53.83 41.7858Z" stroke="#2714FF" stroke-opacity="0.94" stroke-width="0.371332"/>
<path d="M53.4906 41.1089C49.5755 42.1669 50.1621 48.379 47.5605 51.422C44.9709 54.4508 38.4231 54.7884 38.3317 58.8391C38.2268 63.4871 45.7669 65.3811 47.1437 69.8865C48.2397 73.4729 43.7928 77.0123 44.9739 80.5751C46.0926 83.9495 49.9343 85.7418 53.0132 87.5909C55.9829 89.3745 59.4392 92.2827 62.6068 91.1649C66.5216 89.7834 66.5858 83.6908 70.116 81.5555C72.237 80.2727 75.2458 82.8495 77.6219 82.0832C80.0702 81.2935 81.2149 78.5181 83.4389 77.2586C87.8634 74.7531 94.8912 75.507 97.2055 70.9932C99.0813 67.3347 94.6834 63.0127 92.6632 59.2676C90.8146 55.8406 89.3704 51.545 85.8294 49.9041C82.0318 48.1442 77.7248 51.1351 73.6315 50.4481C70.7125 49.9582 68.3942 47.7791 65.6863 46.5235C61.6049 44.631 57.722 39.9653 53.4906 41.1089Z" stroke="#2714FF" stroke-opacity="0.94" stroke-width="0.371332"/>
<path d="M53.1514 40.4333C49.1314 41.5197 49.7338 47.8983 47.0625 51.0228C44.4035 54.1327 37.6802 54.4793 37.5864 58.6386C37.4787 63.4112 45.221 65.356 46.6347 69.9821C47.7601 73.6646 43.194 77.2988 44.4069 80.9571C45.5556 84.4219 49.5003 86.2624 52.6617 88.161C55.711 89.9924 59.26 92.9786 62.5124 91.8309C66.5321 90.4124 66.598 84.1565 70.2228 81.9641C72.4006 80.6469 75.4901 83.2928 77.9298 82.5059C80.4437 81.6952 81.6191 78.8453 83.9028 77.5521C88.4457 74.9795 95.6619 75.7537 98.0382 71.119C99.9642 67.3624 95.4484 62.9246 93.374 59.0791C91.4758 55.5603 89.9929 51.1495 86.357 49.4646C82.4576 47.6575 78.0352 50.7285 73.8322 50.0231C70.8349 49.52 68.4545 47.2825 65.674 45.9932C61.4833 44.0499 57.4962 39.2592 53.1514 40.4333Z" stroke="#2714FF" stroke-opacity="0.94" stroke-width="0.371332"/>
<path d="M52.8119 39.7564C48.687 40.8711 49.3052 47.4161 46.5642 50.6221C43.8359 53.8133 36.9371 54.1688 36.8409 58.4366C36.7304 63.3338 44.6748 65.3294 46.1255 70.0762C47.2802 73.8549 42.5951 77.5839 43.8396 81.3377C45.0183 84.893 49.066 86.7815 52.3099 88.7297C55.4389 90.6089 59.0805 93.6731 62.4178 92.4955C66.5424 91.04 66.6099 84.6208 70.3294 82.3712C72.564 81.0197 75.7342 83.7346 78.2376 82.9273C80.8171 82.0954 82.0231 79.1712 84.3663 77.8442C89.0278 75.2046 96.4324 75.999 98.8706 71.2434C100.847 67.3888 96.2132 62.835 94.0847 58.8892C92.1369 55.2785 90.6152 50.7526 86.8844 49.0237C82.8832 47.1694 78.3454 50.3205 74.0327 49.5967C70.9571 49.0804 68.5146 46.7845 65.6615 45.4615C61.3613 43.4675 57.2702 38.5517 52.8119 39.7564Z" stroke="#2714FF" stroke-opacity="0.94" stroke-width="0.371332"/>
<path d="M52.4732 39.08C48.2434 40.2229 48.8774 46.9345 46.0667 50.222C43.269 53.4942 36.1947 53.8588 36.0961 58.2351C35.9829 63.2569 44.1294 65.3033 45.617 70.1709C46.8011 74.0457 41.9968 77.8695 43.2731 81.7188C44.4818 85.3645 48.6324 87.301 51.9589 89.2989C55.1675 91.2259 58.9018 94.368 62.3239 93.1605C66.5534 91.6681 66.6226 85.0856 70.4366 82.7788C72.7281 81.3929 75.9789 84.177 78.546 83.3491C81.1911 82.496 82.4278 79.4975 84.8306 78.1368C89.6107 75.43 97.2036 76.2448 99.7038 71.3682C101.73 67.4156 96.9787 62.746 94.796 58.6998C92.7986 54.9972 91.2382 50.3562 87.4125 48.5833C83.3095 46.6818 78.6563 49.913 74.2339 49.1707C71.0801 48.6413 68.5754 46.2869 65.6497 44.9302C61.2401 42.8855 57.0448 37.8446 52.4732 39.08Z" stroke="#2714FF" stroke-opacity="0.94" stroke-width="0.371332"/>
<path d="M52.134 38.4038C47.7993 39.575 48.4491 46.453 45.5686 49.8221C42.7016 53.1755 35.4519 53.549 35.3508 58.0339C35.2348 63.1802 43.5834 65.2775 45.108 70.2658C46.3215 74.2367 41.3981 78.1553 42.706 82.1001C43.9448 85.8362 48.1984 87.8209 51.6074 89.8683C54.8956 91.8431 58.7225 95.0632 62.2296 93.8258C66.564 92.2964 66.6348 85.5506 70.5434 83.1866C72.8917 81.7664 76.2232 84.6195 78.854 83.7711C81.5647 82.897 82.832 79.824 85.2945 78.4296C90.1931 75.6558 97.9743 76.4908 100.537 71.4933C102.613 67.4426 97.7438 62.6572 95.5068 58.5106C93.4599 54.7161 91.8607 49.96 87.9401 48.1431C83.7353 46.1944 78.9667 49.5057 74.4346 48.7449C71.2025 48.2024 68.6357 45.7896 65.6374 44.3992C61.1184 42.3037 56.819 37.1378 52.134 38.4038Z" stroke="#2714FF" stroke-opacity="0.94" stroke-width="0.371332"/>
<path d="M51.7946 37.7275C47.355 38.9271 48.0205 45.9716 45.0704 49.4222C42.134 52.8567 34.7087 53.2392 34.6053 57.8327C34.4865 63.1035 43.0372 65.2516 44.5987 70.3607C45.8417 74.4277 40.7991 78.4412 42.1387 82.4814C43.4075 86.3079 47.7641 88.3407 51.2556 90.4376C54.6234 92.4603 58.543 95.7584 62.135 94.491C66.5743 92.9246 66.6468 86.0156 70.65 83.5945C73.0551 82.1399 76.4673 85.0621 79.1617 84.1932C81.938 83.2979 83.236 80.1506 85.758 78.7225C90.7752 75.8815 98.7448 76.7368 101.369 71.6183C103.496 67.4697 98.5086 62.5683 96.2175 58.3214C94.1209 54.4351 92.483 49.5638 88.4674 47.7029C84.1608 45.707 79.2768 49.0984 74.635 48.3192C71.3247 47.7635 68.6958 45.2923 65.6249 43.8682C60.9965 41.722 56.593 36.431 51.7946 37.7275Z" stroke="#2714FF" stroke-opacity="0.94" stroke-width="0.371332"/>
<path d="M51.4554 37.0511C46.9109 38.279 47.5922 45.4899 44.5724 49.022C41.5666 52.5377 33.9659 52.9292 33.86 57.6312C33.7385 63.0266 42.4913 65.2256 44.0897 70.4553C45.3621 74.6185 40.2004 78.7267 41.5717 82.8625C42.8705 86.7795 47.33 88.8602 50.9041 91.0068C54.3515 93.0773 58.3638 96.4534 62.0406 95.1561C66.5848 93.5527 66.659 86.4804 70.7568 84.0021C73.2187 82.5131 76.7116 85.5044 79.4697 84.615C82.3116 83.6986 83.6402 80.4769 86.2219 79.015C91.3576 76.107 99.5156 76.9825 102.202 71.7431C104.379 67.4965 99.2736 62.4793 96.9283 58.1319C94.7822 54.1538 93.1055 49.1674 88.995 47.2624C84.5867 45.2194 79.5872 48.6909 74.8357 47.8932C71.4472 47.3244 68.7561 44.7947 65.6126 43.337C60.8748 41.14 56.3672 35.7239 51.4554 37.0511Z" stroke="#2714FF" stroke-opacity="0.94" stroke-width="0.371332"/>
<path d="M51.1164 36.3746C46.467 37.6308 47.1641 45.0083 44.0746 48.6219C40.9994 52.2187 33.2232 52.6192 33.1149 57.4297C32.9907 62.9496 41.9456 65.1995 43.5809 70.55C44.8828 74.8092 39.6019 79.0123 41.0049 83.2435C42.3337 87.251 46.8962 89.3798 50.5528 91.576C54.0798 93.6943 58.1848 97.1483 61.9465 95.8211C66.5956 94.1807 66.6714 86.9452 70.8638 84.4097C73.3826 82.8863 76.9561 85.9467 79.7779 85.0368C82.6854 84.0992 84.0447 80.8032 86.6859 79.3076C91.9402 76.3325 100.287 77.2283 103.035 71.868C105.262 67.5233 100.039 62.3902 97.6394 57.9425C95.4437 53.8725 93.7283 48.771 89.5229 46.822C85.0127 44.7317 79.8979 48.2834 75.0367 47.4672C71.5699 46.8852 68.8166 44.2972 65.6005 42.8058C60.7534 40.558 56.1416 35.0169 51.1164 36.3746Z" stroke="#2714FF" stroke-opacity="0.94" stroke-width="0.371332"/>
<path d="M50.7773 35.6979C46.0229 36.9825 46.7358 44.5264 43.5766 48.2215C40.432 51.8995 32.4804 52.3089 32.3696 57.228C32.2426 62.8725 41.3996 65.1731 43.0719 70.6444C44.4032 74.9998 39.0031 79.2977 40.4378 83.6244C41.7966 87.7222 46.4622 89.8992 50.2013 92.1449C53.8079 94.311 58.0056 97.843 61.8521 96.4859C66.6062 94.8086 66.6836 87.4097 70.9706 84.817C73.5462 83.2593 77.2004 86.3888 80.0858 85.4584C83.059 84.4997 84.4489 81.1293 87.1497 79.6C92.5226 76.5577 101.057 77.4738 103.867 71.9926C106.145 67.5498 100.804 62.3009 98.3503 57.7528C96.105 53.591 94.3508 48.3743 90.0505 46.3813C85.4385 44.2439 80.2083 47.8756 75.2374 47.041C71.6924 46.4459 68.8769 43.7994 65.5883 42.2743C60.6317 39.9758 55.9158 34.3096 50.7773 35.6979Z" stroke="#2714FF" stroke-opacity="0.94" stroke-width="0.371332"/>
<path d="M50.4381 35.0222C45.5788 36.335 46.3075 44.0454 43.0786 47.8221C39.8646 51.5811 31.7375 51.9996 31.6244 57.0272C31.4946 62.7963 40.8537 65.1478 42.5629 70.7398C43.9236 75.1913 38.4044 79.5839 39.8708 84.0062C41.2596 88.1944 46.0281 90.4194 49.8498 92.7148C53.536 94.9287 57.8263 98.5387 61.7578 97.1516C66.6167 95.4373 66.6958 87.8752 71.0774 85.2253C73.7098 83.6333 77.4447 86.8318 80.3938 85.8809C83.4326 84.9011 84.8531 81.4563 87.6135 79.8933C93.1049 76.7839 101.828 77.7203 104.7 72.1181C107.028 67.5773 101.569 62.2125 99.0611 57.5641C96.7663 53.3104 94.9733 47.9786 90.5781 45.9416C85.8643 43.757 80.5187 47.4688 75.4381 46.6158C71.8148 46.0074 68.9372 43.3025 65.576 41.7438C60.51 39.3945 55.69 33.6032 50.4381 35.0222Z" stroke="#2714FF" stroke-opacity="0.94" stroke-width="0.371332"/>
<path d="M50.0986 34.3452C45.1344 35.6864 45.8789 43.5633 42.5803 47.4214C39.297 51.2617 30.9944 51.6891 30.8788 56.8253C30.7463 62.7189 40.3075 65.1212 42.0537 70.834C43.4437 75.3816 37.8054 79.8691 39.3035 84.3868C40.7223 88.6655 45.5938 90.9385 49.4981 93.2834C53.2639 95.5452 57.6468 99.2332 61.6632 97.8162C66.627 96.0649 66.7078 88.3395 71.184 85.6325C73.8732 84.0061 77.6887 87.2737 80.7015 86.3023C83.8059 85.3013 85.2571 81.7821 88.0771 80.1854C93.6871 77.0089 102.598 77.9656 105.533 72.2424C107.911 67.6037 102.334 62.123 99.7717 57.3742C97.4273 53.0286 95.5956 47.5817 91.1055 45.5007C86.2899 43.2689 80.8289 47.0608 75.6385 46.1893C71.937 45.5678 68.9973 42.8045 65.5635 41.2121C60.3881 38.812 55.464 32.8957 50.0986 34.3452Z" stroke="#2714FF" stroke-opacity="0.94" stroke-width="0.371332"/>
<path d="M49.7599 33.6693C44.6908 35.0388 45.4511 43.0821 42.0828 47.0218C38.7301 50.9431 30.252 51.3795 30.134 56.6243C29.9987 62.6424 39.762 65.0956 41.5452 70.9291C42.9646 75.5728 37.2072 80.1551 38.7369 84.7683C40.1858 89.1374 45.1603 91.4586 49.147 93.8531C52.9925 96.1627 57.4681 99.9286 61.5693 98.4817C66.638 96.6934 66.7205 88.8048 71.2913 86.0405C74.0373 84.3798 77.9335 87.7165 81.01 86.7245C84.18 85.7024 85.6618 82.1089 88.5414 80.4784C94.2699 77.2349 103.37 78.2118 106.366 72.3677C108.794 67.631 103.099 62.0344 100.483 57.1852C98.0891 52.7478 96.2186 47.1858 91.6336 45.0607C86.7162 42.7817 81.1398 46.6537 75.8397 45.7638C72.06 45.1292 69.0581 42.3074 65.5517 40.6813C60.2669 38.2305 55.2387 32.1891 49.7599 33.6693Z" stroke="#2714FF" stroke-opacity="0.94" stroke-width="0.371332"/>
<path d="M49.4205 32.9926C44.2464 34.3904 45.0225 42.6002 41.5845 46.6214C38.1625 50.6239 29.5089 51.0693 29.3885 56.4226C29.2504 62.5653 39.2158 65.0693 41.0359 71.0235C42.4848 75.7634 36.6082 80.4405 38.1696 85.1491C39.6485 89.6087 44.726 91.9779 48.7953 94.422C52.7203 96.7794 57.2886 100.623 61.4747 99.1465C66.6483 97.3212 66.7324 89.2693 71.3978 86.4479C74.2007 84.7528 78.1776 88.1586 81.3177 87.1461C84.5533 86.1029 86.0658 82.435 89.005 80.7708C94.852 77.4601 104.14 78.4573 107.198 72.4923C109.677 67.6575 103.864 61.9451 101.194 56.9955C98.7501 52.4662 96.8409 46.7891 92.1609 44.6201C87.1418 42.2938 81.4499 46.246 76.0402 45.3376C72.1822 44.6898 69.1182 41.8096 65.5391 40.1499C60.145 37.6483 55.0126 31.4818 49.4205 32.9926Z" stroke="#2714FF" stroke-opacity="0.94" stroke-width="0.371332"/>
<path d="M49.0808 32.3156C43.8018 33.7417 44.5937 42.118 41.086 46.2207C37.5946 50.3044 28.7655 50.7588 28.6427 56.2206C28.5019 62.4879 38.6694 65.0427 40.5264 71.1177C42.0047 75.9537 36.0089 80.7256 37.6021 85.5297C39.111 90.0797 44.2914 92.497 48.4433 94.9907C52.4479 97.3959 57.1089 101.318 61.3799 99.811C66.6584 97.9488 66.7442 89.7336 71.5041 86.855C74.3639 85.1255 78.4214 88.6004 81.6252 87.5674C84.9264 86.5031 86.4695 82.7608 89.4683 81.0629C95.4339 77.6851 104.91 78.7026 108.03 72.6167C110.559 67.6838 104.629 61.8556 101.904 56.8056C99.4109 52.1844 97.4629 46.3922 92.688 44.1791C87.5671 41.8057 81.7599 45.838 76.2404 44.9111C72.3042 44.2502 69.178 41.3116 65.5264 39.6181C60.0228 37.0658 54.7864 30.7743 49.0808 32.3156Z" stroke="#2714FF" stroke-opacity="0.94" stroke-width="0.371332"/>
<path d="M48.7421 31.6399C43.3582 33.0943 44.1658 41.6371 40.5885 45.8213C37.0277 49.9861 28.0231 50.4494 27.8979 56.0198C27.7543 62.4117 38.1239 65.0173 40.0179 71.2131C41.5256 76.1451 35.4107 81.0119 37.0356 85.9115C38.5745 90.552 43.8579 93.0173 48.0922 95.5605C52.1765 98.0136 56.9301 102.013 61.286 100.477C66.6694 98.5776 66.7568 90.1991 71.6114 87.2633C74.528 85.4995 78.6662 89.0435 81.9336 87.99C85.3004 86.9044 86.8742 83.0879 89.9326 81.3562C96.0168 77.9113 105.682 78.9491 108.864 72.7422C111.443 67.7114 105.394 61.7672 102.615 56.6169C100.073 51.9039 98.0859 45.9965 93.2161 43.7394C87.9934 41.3188 82.0707 45.4312 76.4415 44.4859C72.4271 43.8117 69.2388 40.8148 65.5146 39.0876C59.9016 36.4845 54.561 30.0679 48.7421 31.6399Z" stroke="#2714FF" stroke-opacity="0.94" stroke-width="0.371332"/>
<path d="M48.4024 30.9632C42.9136 32.4459 43.737 41.1552 40.0899 45.4209C36.4598 49.6669 27.2797 50.1392 27.1522 55.8181C27.0058 62.3345 37.5775 64.991 39.5084 71.3075C41.0455 76.3357 34.8115 81.2972 36.468 86.2923C38.037 91.0232 43.4234 93.5366 47.7402 96.1295C51.9041 98.6304 56.7504 102.708 61.1911 101.142C66.6795 99.2054 66.7686 90.6637 71.7177 87.6707C74.6911 85.8725 78.91 89.4856 82.2411 88.4115C85.6735 87.3049 87.278 83.4139 90.396 81.6485C96.5987 78.1366 106.452 79.1946 109.696 72.8668C112.325 67.7379 106.159 61.6779 103.326 56.4272C100.733 51.6223 98.708 45.5998 93.7432 43.2987C88.4187 40.8309 82.3807 45.0234 76.6418 44.0596C72.5491 43.3724 69.2986 40.317 65.5018 38.5561C59.7794 35.9023 54.3348 29.3606 48.4024 30.9632Z" stroke="#2714FF" stroke-opacity="0.94" stroke-width="0.371332"/>
<path d="M48.0635 30.2872C42.4698 31.7983 43.309 40.674 39.5922 45.0213C35.8926 49.3483 26.5371 49.8296 26.4071 55.6171C26.258 62.2581 37.0318 64.9654 38.9997 71.4026C40.5662 76.5269 34.213 81.5833 35.9012 86.6739C37.5002 91.4952 42.9895 94.0567 47.389 96.6991C51.6325 99.2479 56.5714 103.404 61.097 101.807C66.6903 99.8339 66.781 91.1289 71.8247 88.0787C74.855 86.2462 79.1545 89.9284 82.5493 88.8338C86.0473 87.706 87.6824 83.7407 90.86 81.9416C97.1813 78.3626 107.223 79.4408 110.529 72.9921C113.208 67.7652 106.924 61.5894 104.037 56.2382C101.395 51.3415 99.3307 45.2039 94.2711 42.8588C88.8447 40.3438 82.6913 44.6163 76.8427 43.6342C72.6718 42.9337 69.3591 39.8199 65.4898 38.0254C59.658 35.3208 54.1092 28.654 48.0635 30.2872Z" stroke="#2714FF" stroke-opacity="0.94" stroke-width="0.371332"/>
<path d="M47.7238 29.6105C42.0252 31.1499 42.8801 40.1921 39.0937 44.6209C35.3248 49.0291 25.7937 49.5194 25.6614 55.4154C25.5094 62.1809 36.4854 64.939 38.4902 71.4971C40.0861 76.7175 33.6138 81.8686 35.3337 87.0547C36.9626 91.9665 42.555 94.576 47.037 97.268C51.3601 99.8646 56.3916 104.098 61.0022 102.472C66.7003 100.462 66.7927 91.5935 71.931 88.4861C75.0181 86.6192 79.3983 90.3704 82.8568 89.2554C86.4204 88.1065 88.0862 84.0668 91.3234 82.2339C97.7632 78.5878 107.993 79.6864 111.361 73.1167C114.091 67.7918 107.688 61.5001 104.747 56.0485C102.056 51.06 99.9528 44.8072 94.7982 42.4181C89.2701 39.8559 83.0012 44.2086 77.0429 43.2079C72.7938 42.4943 69.4189 39.3221 65.477 37.4939C59.5358 34.7386 53.8829 27.9468 47.7238 29.6105Z" stroke="#2714FF" stroke-opacity="0.94" stroke-width="0.371332"/>
<path d="M47.3853 28.9345C41.5818 30.5022 42.4525 39.7109 38.5964 44.2212C34.7581 48.7106 25.0516 49.2098 24.9168 55.2144C24.7621 62.1045 35.9402 64.9134 37.9819 71.5922C39.6073 76.9087 33.0157 82.1546 34.7674 87.4362C36.4264 92.4385 42.1217 95.0961 46.6862 97.8377C51.0889 100.482 56.2131 104.794 60.9085 103.137C66.7116 101.09 66.8057 92.0587 72.0386 88.8942C75.1825 86.9929 79.6433 90.8132 83.1655 89.6777C86.7947 88.5076 88.4911 84.3936 91.7879 82.527C98.3463 78.8138 108.765 79.9326 112.194 73.242C114.974 67.8191 108.454 61.4115 105.459 55.8596C102.718 50.7792 100.576 44.4113 95.3265 41.9782C89.6966 39.3687 83.3124 43.8015 77.2443 42.7824C72.9169 42.0557 69.48 38.825 65.4654 36.9632C59.4149 34.1571 53.6579 27.2402 47.3853 28.9345Z" stroke="#2714FF" stroke-opacity="0.94" stroke-width="0.371332"/>
<path d="M47.0459 28.2579C41.1374 29.8539 42.024 39.229 38.0981 43.8208C34.1905 48.3913 24.3085 48.8996 24.1713 55.0127C24.0138 62.0273 35.394 64.8871 37.4727 71.6866C39.1274 77.0993 32.4168 82.44 34.2001 87.8171C35.8891 92.9097 41.6874 95.6154 46.3344 98.4066C50.8167 101.099 56.0336 105.488 60.8139 103.802C66.7219 101.718 66.8176 92.5233 72.1451 89.3015C75.3458 87.3659 79.8874 91.2553 83.4732 90.0993C87.168 88.9081 88.8951 84.7196 92.2515 82.8193C98.9284 79.039 109.535 80.1781 113.027 73.3666C115.857 67.8456 109.219 61.3222 106.169 55.6699C103.379 50.4976 101.198 44.0146 95.8539 41.5375C90.1222 38.8809 83.6225 43.3938 77.4448 42.3562C73.0392 41.6163 69.54 38.3272 65.4529 36.4317C59.2929 33.5748 53.4318 26.5329 47.0459 28.2579Z" stroke="#2714FF" stroke-opacity="0.94" stroke-width="0.371332"/>
<path d="M46.7064 27.5814C40.6931 29.2057 41.5954 38.7473 37.5998 43.4207C33.6228 48.0723 23.5654 48.5895 23.4257 54.8112C23.2655 61.9504 34.8478 64.861 36.9634 71.7813C38.6476 77.29 31.8178 82.7256 33.6328 88.1982C35.3518 93.3812 41.2531 96.135 45.9827 98.9757C50.5446 101.716 55.8542 106.183 60.7193 104.467C66.7322 102.346 66.8296 92.9881 72.2517 89.7091C75.5092 87.7392 80.1314 91.6977 83.7809 90.5211C87.5414 89.3088 89.2991 85.046 92.7151 83.1119C99.5105 79.2645 110.306 80.4239 113.859 73.4914C116.74 67.8724 109.984 61.2331 106.88 55.4804C104.04 50.2163 101.821 43.6182 96.3813 41.0971C90.5477 38.3932 83.9327 42.9862 77.6453 41.9302C73.1614 41.1772 69.6001 37.8297 65.4404 35.9005C59.171 32.9928 53.2058 25.8258 46.7064 27.5814Z" stroke="#2714FF" stroke-opacity="0.94" stroke-width="0.371332"/>
<path d="M46.3672 26.9052C40.249 28.5578 41.1671 38.2659 37.1018 43.0208C33.0554 47.7535 22.8225 48.2797 22.6805 54.61C22.5175 61.8737 34.3018 64.8352 36.4544 71.8762C38.168 77.4811 31.219 83.0114 33.0658 88.5795C34.8148 93.853 40.8191 96.6548 45.6311 99.5451C50.2727 102.333 55.6749 106.879 60.625 105.132C66.7427 102.974 66.8418 93.4531 72.3585 90.117C75.6728 88.1127 80.3757 92.1402 84.0889 90.9431C87.9149 89.7097 89.7033 85.3725 93.1789 83.4048C100.093 79.4902 111.076 80.6699 114.692 73.6165C117.623 67.8995 110.749 61.1443 107.591 55.2912C104.701 49.9353 102.443 43.222 96.9089 40.6569C90.9735 37.9058 84.2431 42.5789 77.8459 41.5045C73.2838 40.7383 69.6604 37.3324 65.4281 35.3695C59.0493 32.4111 52.98 25.119 46.3672 26.9052Z" stroke="#2714FF" stroke-opacity="0.94" stroke-width="0.371332"/>
<path d="M46.0285 26.2287C39.8054 27.9097 40.7393 37.7842 36.6043 42.6206C32.4885 47.4345 22.0801 47.9697 21.9357 54.4085C21.7699 61.7968 33.7564 64.8091 35.9459 71.9708C37.6889 77.6718 30.6208 83.297 32.4992 88.9605C34.2782 94.3245 40.3855 97.1744 45.2801 100.114C50.0013 102.95 55.4962 107.574 60.5311 105.798C66.7538 103.602 66.8545 93.9179 72.4658 90.5246C75.837 88.4859 80.6205 92.5825 84.3973 91.365C88.289 90.1103 90.108 85.6988 93.6432 83.6973C100.676 79.7157 111.847 80.9157 115.525 73.7413C118.506 67.9263 111.514 61.0552 108.302 55.1018C105.363 49.654 103.066 42.8255 97.437 40.2164C91.3998 37.4182 84.554 42.1714 78.0471 41.0785C73.4068 40.2991 69.7212 36.8348 65.4163 34.8382C58.9281 31.8291 52.7547 24.4119 46.0285 26.2287Z" stroke="#2714FF" stroke-opacity="0.94" stroke-width="0.371332"/>
<path d="M45.6891 25.552C39.361 27.2613 40.3107 37.3023 36.106 42.2202C31.9209 47.1153 21.337 47.6595 21.1901 54.2068C21.0216 61.7196 33.2102 64.7827 35.4367 72.0652C37.209 77.8624 30.0218 83.5823 31.9319 89.3414C33.741 94.7958 39.9512 97.6937 44.9284 100.683C49.7291 103.567 55.3167 108.268 60.4365 106.462C66.7641 104.23 66.8664 94.3824 72.5723 90.9319C76.0003 88.8589 80.8645 93.0246 84.705 91.7865C88.6623 90.5108 90.512 86.0249 94.1067 83.9897C101.258 79.941 112.618 81.1612 116.358 73.8659C119.389 67.9529 112.279 60.9659 109.013 54.9121C106.024 49.3724 103.688 42.4289 97.9643 39.7758C91.8254 36.9303 84.8642 41.7637 78.2476 40.6523C73.529 39.8598 69.7813 36.337 65.4038 34.3068C58.8062 31.2469 52.5286 23.7047 45.6891 25.552Z" stroke="#2714FF" stroke-opacity="0.94" stroke-width="0.371332"/>
<path d="M45.3502 24.8761C38.9171 26.6136 39.8826 36.8211 35.6083 41.8206C31.3538 46.7968 20.5943 47.3499 20.4451 54.0058C20.2738 61.6432 32.6645 64.7571 34.9279 72.1604C36.7297 78.0536 29.4233 83.8684 31.3651 89.7229C33.2042 95.2677 39.5174 98.2138 44.5771 101.253C49.4575 104.184 55.1377 108.964 60.3424 107.128C66.7749 104.859 66.8789 94.8477 72.6793 91.34C76.1642 89.2326 81.1091 93.4674 85.0133 92.2088C89.0362 90.9119 90.9165 86.3517 94.5708 84.2827C101.84 80.1669 113.389 81.4074 117.191 73.9912C120.272 67.9801 113.044 60.8773 109.724 54.7232C106.685 49.0916 104.311 42.0329 98.4922 39.3358C92.2515 36.4432 85.1748 41.3566 78.4485 40.2268C73.6517 39.4211 69.8418 35.8399 65.3917 33.776C58.6847 30.6654 52.3031 22.9981 45.3502 24.8761Z" stroke="#2714FF" stroke-opacity="0.94" stroke-width="0.371332"/>
<path d="M45.0105 24.1994C38.4725 25.9652 39.4538 36.3392 35.1097 41.4202C30.7859 46.4775 19.851 47.0396 19.6993 53.804C19.5253 61.566 32.118 64.7308 34.4184 72.2548C36.2496 78.2442 28.8241 84.1537 30.7976 90.1037C32.6667 95.739 39.0829 98.7331 44.2251 101.822C49.1851 104.801 54.9579 109.658 60.2475 107.793C66.7849 105.487 66.8906 95.3122 72.7857 91.7474C76.3274 89.6056 81.3529 93.9095 85.3207 92.6304C89.4092 91.3124 91.3202 86.6778 95.0341 84.5751C102.422 80.3922 114.159 81.6529 118.023 74.1158C121.155 68.0067 113.809 60.788 110.434 54.5335C107.346 48.8101 104.933 41.6363 99.0193 38.8951C92.6768 35.9553 85.4847 40.9488 78.6487 39.8006C73.7737 38.9817 69.9016 35.3421 65.379 33.2445C58.5626 30.0831 52.0768 22.2908 45.0105 24.1994Z" stroke="#2714FF" stroke-opacity="0.94" stroke-width="0.371332"/>
<path d="M44.672 23.5234C38.0292 25.3176 39.0262 35.858 34.6125 41.0205C30.2192 46.159 19.1088 46.7301 18.9548 53.603C18.778 61.4896 31.5728 64.7052 33.9102 72.3499C35.7708 78.4354 28.2261 84.4398 30.2313 90.4853C32.1304 96.211 38.6495 99.2532 43.8743 102.391C48.9139 105.418 54.7794 110.354 60.1539 108.458C66.7962 106.115 66.9035 95.7774 72.8932 92.1554C76.4917 89.9793 81.5979 94.3523 85.6294 93.0527C89.7835 91.7135 91.7252 87.0045 95.4987 84.8681C103.005 80.6181 114.931 81.8992 118.856 74.2411C122.038 68.034 114.575 60.6994 111.146 54.3445C108.008 48.5293 105.556 41.2403 99.5476 38.4552C93.1033 35.4681 85.7959 40.5418 78.8502 39.3751C73.8969 38.543 69.9627 34.845 65.3674 32.7138C58.4416 29.5016 51.8517 21.5842 44.672 23.5234Z" stroke="#2714FF" stroke-opacity="0.94" stroke-width="0.371332"/>
<path d="M44.3326 22.8467C37.5848 24.6692 38.5976 35.3761 34.1142 40.6201C29.6516 45.8397 18.3657 46.4198 18.2092 53.4013C18.0297 61.4124 31.0266 64.6788 33.4009 72.4443C35.2909 78.6259 27.6271 84.7251 29.664 90.8661C31.5931 96.6822 38.2152 99.7725 43.5225 102.96C48.6418 106.035 54.5999 111.049 60.0593 109.123C66.8065 106.743 66.9155 96.242 72.9997 92.5628C76.6551 90.3523 81.8419 94.7944 85.9372 93.4742C90.1569 92.114 92.1291 87.3306 95.9623 85.1605C103.588 80.8434 115.701 82.1447 119.689 74.3656C122.921 68.0605 115.34 60.6101 111.856 54.1548C108.669 48.2477 106.179 40.8436 100.075 38.0145C93.5289 34.9803 86.106 40.134 79.0506 38.9488C74.0191 38.1037 70.0227 34.3472 65.3549 32.1823C58.3197 28.9194 51.6257 20.8769 44.3326 22.8467Z" stroke="#2714FF" stroke-opacity="0.94" stroke-width="0.371332"/>
<path d="M43.9934 22.1707C37.1407 24.0215 38.1693 34.895 33.6162 40.2204C29.0842 45.5212 17.6228 46.1103 17.464 53.2003C17.2816 61.336 30.4807 64.6532 32.8919 72.5395C34.8113 78.8172 27.0284 85.0112 29.0969 91.2476C31.0561 97.1542 37.7812 100.293 43.171 103.53C48.3698 106.653 54.4207 111.744 59.9649 109.788C66.817 107.371 66.9277 96.7073 73.1065 92.9709C76.8187 90.7261 82.0862 95.2372 86.2451 93.8965C90.5304 92.5151 92.5334 87.6574 96.4261 85.4535C104.17 81.0694 116.472 82.3909 120.522 74.491C123.804 68.0878 116.105 60.5216 112.567 53.9659C109.33 47.9669 106.801 40.4477 100.603 37.5745C93.9547 34.4931 86.4165 39.727 79.2513 38.5234C74.1415 37.665 70.083 33.8502 65.3426 31.6516C58.198 28.3379 51.3999 20.1703 43.9934 22.1707Z" stroke="#2714FF" stroke-opacity="0.94" stroke-width="0.371332"/>
</svg>
