<svg width="1089" height="1028" viewBox="0 0 1089 1028" fill="none" xmlns="http://www.w3.org/2000/svg">
<path fill-rule="evenodd" clip-rule="evenodd" d="M523.391 377.93C555.386 391.258 523.383 461.614 555.074 475.652C588.274 490.358 634.174 406.681 655.188 436.309C676.758 466.722 582.795 489.667 590.84 526.081C598.808 562.145 698.522 543.8 686.665 578.778C674.269 615.345 609.787 571.139 572.368 580.57C561.093 583.412 564.316 602.355 557.059 611.446C547.494 623.427 536.149 633.424 523.391 641.919C502.477 655.845 481.284 686.792 457.973 677.422C435.584 668.422 455.899 626.165 439.695 608.277C421.805 588.526 360.18 602.894 367.161 577.169C376.608 542.358 439.425 555.785 461.647 527.384C472.438 513.593 441.512 495.726 444.402 478.451C447.055 462.584 465.884 455.283 475.821 442.637C492.571 421.321 498.374 367.508 523.391 377.93Z" stroke="#2714FF" stroke-opacity="0.94" stroke-width="1.01463"/>
<path fill-rule="evenodd" clip-rule="evenodd" d="M531.788 5.79063C640.202 50.9636 531.761 289.424 639.144 337.001C751.643 386.845 907.176 103.237 978.381 203.658C1051.47 306.734 733.077 384.502 760.338 507.921C787.337 630.154 1125.22 567.978 1085.04 686.527C1043.03 810.464 824.538 660.637 697.745 692.604C659.541 702.235 670.461 766.44 645.871 797.249C613.46 837.857 575.019 871.742 531.788 900.535C460.919 947.734 389.107 1052.62 310.118 1020.86C234.255 990.361 303.092 847.138 248.185 786.509C187.563 719.568 -21.2515 768.266 2.40408 681.074C34.4137 563.091 247.27 608.598 322.57 512.337C359.133 465.595 254.342 405.038 264.132 346.488C273.124 292.712 336.924 267.965 370.596 225.105C427.354 152.858 447.017 -29.531 531.788 5.79063Z" stroke="#2714FF" stroke-opacity="0.94" stroke-width="1.01463"/>
<path d="M556.722 472.933C523.547 458.238 557.049 384.586 523.556 370.633C497.367 359.723 491.292 416.057 473.757 438.372C463.355 451.61 443.644 459.254 440.867 475.863C437.842 493.948 470.216 512.652 458.92 527.089C435.657 556.821 369.898 542.765 360.009 579.206C352.701 606.137 417.211 591.096 435.94 611.772C452.903 630.498 431.637 674.735 455.073 684.156C479.476 693.965 501.662 661.569 523.556 646.991C536.911 638.098 548.787 627.632 558.8 615.089C566.397 605.573 563.023 585.742 574.826 582.767C613.997 572.894 681.499 619.171 694.476 580.891C706.889 544.275 602.504 563.479 594.163 525.725C585.741 487.605 684.105 463.585 661.525 431.748C639.527 400.731 591.477 488.328 556.722 472.933Z" stroke="#2714FF" stroke-opacity="0.94" stroke-width="1.01463"/>
<path d="M558.37 470.215C523.712 454.862 558.712 377.914 523.72 363.337C496.36 351.939 490.013 410.794 471.694 434.107C460.826 447.938 440.234 455.923 437.332 473.277C434.172 492.17 467.994 511.711 456.193 526.794C431.89 557.857 363.188 543.172 352.857 581.244C345.222 609.38 412.619 593.666 432.185 615.267C449.907 634.832 427.689 681.048 452.174 690.891C477.669 701.139 500.847 667.293 523.72 652.062C537.674 642.771 550.081 631.837 560.542 618.733C568.478 608.791 564.954 588.073 577.285 584.965C618.208 574.649 688.73 622.997 702.287 583.004C715.255 544.749 606.201 564.813 597.487 525.369C588.688 485.543 691.452 460.448 667.862 427.187C644.88 394.782 594.681 486.299 558.37 470.215Z" stroke="#2714FF" stroke-opacity="0.94" stroke-width="1.01463"/>
<path d="M560.019 467.495C523.876 451.484 560.375 371.24 523.885 356.038C495.352 344.152 488.734 405.528 469.631 429.84C458.297 444.263 436.824 452.591 433.797 470.687C430.502 490.39 465.773 510.768 453.466 526.498C428.122 558.891 356.478 543.577 345.705 583.28C337.743 612.621 408.025 596.233 428.43 618.76C446.91 639.163 423.741 687.359 449.275 697.623C475.861 708.31 500.032 673.014 523.885 657.131C538.436 647.442 551.374 636.039 562.283 622.374C570.559 612.006 566.884 590.401 579.743 587.16C622.419 576.402 695.96 626.821 710.098 585.115C723.622 545.222 609.898 566.144 600.81 525.011C591.635 483.48 698.799 457.31 674.199 422.623C650.233 388.83 597.884 484.268 560.019 467.495Z" stroke="#2714FF" stroke-opacity="0.94" stroke-width="1.01463"/>
<path d="M561.667 464.778C524.039 448.11 562.038 364.569 524.049 348.743C494.345 336.368 487.455 400.266 467.567 425.576C455.768 440.592 433.413 449.262 430.262 468.101C426.832 488.614 463.551 509.829 450.739 526.204C424.354 559.928 349.768 543.985 338.552 585.319C330.263 615.865 403.432 598.804 424.674 622.256C443.913 643.497 419.793 693.673 446.376 704.359C474.054 715.485 499.216 678.739 524.049 662.204C539.197 652.117 552.667 640.245 564.024 626.019C572.64 615.225 568.814 592.732 582.201 589.358C626.629 578.159 703.191 630.649 717.909 587.229C731.988 545.697 613.594 567.479 604.133 524.657C594.581 481.419 706.146 454.174 680.536 418.063C655.586 382.882 601.087 482.24 561.667 464.778Z" stroke="#2714FF" stroke-opacity="0.94" stroke-width="1.01463"/>
<path d="M563.315 462.059C524.204 444.734 563.7 357.897 524.213 341.447C493.338 328.584 486.176 395.002 465.504 421.312C453.24 436.92 430.002 445.931 426.727 465.514C423.161 486.836 461.329 508.888 448.011 525.91C420.586 560.964 343.058 544.392 331.4 587.357C322.784 619.108 398.839 601.374 420.919 625.752C440.917 647.83 415.845 699.986 443.476 711.093C472.246 722.659 498.401 684.463 524.213 667.275C539.959 656.79 553.96 644.45 565.765 629.663C574.721 618.443 570.744 595.063 584.659 591.555C630.84 579.914 710.421 634.475 725.72 589.342C740.354 546.172 617.29 568.814 607.457 524.301C597.527 479.358 713.493 451.038 686.873 413.501C660.938 376.932 604.29 480.211 563.315 462.059Z" stroke="#2714FF" stroke-opacity="0.94" stroke-width="1.01463"/>
<path d="M564.964 459.339C524.369 441.356 565.365 351.223 524.379 334.148C492.332 320.797 484.898 389.737 463.441 417.045C450.712 433.245 426.593 442.599 423.193 462.925C419.493 485.056 459.108 507.945 445.285 525.613C416.819 561.998 336.35 544.797 324.249 589.392C315.306 622.349 394.247 603.942 417.165 629.245C437.922 652.161 411.899 706.297 440.578 717.826C470.44 729.83 497.588 690.184 524.379 672.344C540.722 661.461 555.255 648.653 567.508 633.304C576.804 621.659 572.676 597.391 587.118 593.75C635.052 581.667 717.653 638.299 733.533 591.453C748.722 546.644 620.988 570.145 610.781 523.944C600.475 477.294 720.842 447.899 693.211 408.938C666.292 370.981 607.494 478.179 564.964 459.339Z" stroke="#2714FF" stroke-opacity="0.94" stroke-width="1.01463"/>
<path d="M566.612 456.621C524.533 437.98 567.027 344.551 524.543 326.852C491.324 313.013 483.619 384.473 461.378 412.78C448.183 429.573 423.182 439.268 419.658 460.338C415.822 483.278 456.886 507.005 442.558 525.318C413.051 563.034 329.64 545.204 317.096 591.43C307.826 625.592 389.653 606.512 413.409 632.74C434.925 656.495 407.951 712.61 437.679 724.56C468.632 737.004 496.772 695.908 524.543 677.416C541.484 666.135 556.548 652.858 569.248 636.948C578.885 624.877 574.605 599.721 589.576 595.947C639.262 583.423 724.883 642.126 741.343 593.567C757.088 547.119 624.684 571.479 614.104 523.588C603.421 475.232 728.189 444.763 699.548 404.377C671.645 365.031 610.697 476.15 566.612 456.621Z" stroke="#2714FF" stroke-opacity="0.94" stroke-width="1.01463"/>
<path d="M568.261 453.903C524.697 434.604 568.69 337.879 524.708 319.555C490.317 305.228 482.34 379.21 459.314 408.515C445.654 425.9 419.771 435.938 416.124 457.751C412.152 481.501 454.664 506.064 439.831 525.024C409.283 564.07 322.93 545.611 309.944 593.468C300.347 628.836 385.061 609.082 409.654 636.235C431.929 660.828 404.003 718.923 434.78 731.295C466.824 744.177 495.957 701.632 524.708 682.487C542.246 670.808 557.841 657.063 570.99 640.592C580.966 628.095 576.536 602.052 592.035 598.145C643.473 585.178 732.114 645.952 749.155 595.68C765.454 547.593 628.381 572.813 617.428 523.233C606.368 473.171 735.536 441.626 705.885 399.815C676.998 359.082 613.9 474.121 568.261 453.903Z" stroke="#2714FF" stroke-opacity="0.94" stroke-width="1.01463"/>
<path d="M569.909 451.185C524.861 431.228 570.353 331.207 524.872 312.259C489.31 297.443 481.061 373.946 457.251 404.25C443.125 422.228 416.361 432.608 412.589 455.164C408.482 479.723 452.442 505.123 437.104 524.729C405.515 565.106 316.22 546.018 302.792 595.506C292.868 632.078 380.467 611.652 405.899 639.73C428.932 665.161 400.055 725.236 431.88 738.03C465.017 751.351 495.142 707.356 524.872 687.558C543.008 675.481 559.134 661.268 572.731 644.235C583.047 631.312 578.466 604.382 594.493 600.342C647.683 586.933 739.344 649.778 756.966 597.793C773.821 548.068 632.077 574.147 620.751 522.877C609.315 471.109 742.883 438.489 712.222 395.254C682.35 353.132 617.103 472.092 569.909 451.185Z" stroke="#2714FF" stroke-opacity="0.94" stroke-width="1.01463"/>
<path d="M571.557 448.464C525.025 427.85 572.016 324.533 525.037 304.96C488.303 289.657 479.783 368.68 455.188 399.983C440.597 418.553 412.95 429.275 409.054 452.575C404.812 477.943 450.221 504.181 434.377 524.433C401.747 566.14 309.51 546.423 295.64 597.542C285.389 635.319 375.874 614.22 402.144 643.223C425.936 669.492 396.107 731.547 428.981 744.762C463.209 758.522 494.327 713.077 525.037 692.627C543.77 680.152 560.428 665.471 574.472 647.877C585.128 634.528 580.396 606.71 596.951 602.537C651.894 588.687 746.575 653.602 764.777 599.904C782.187 548.54 635.774 575.479 624.074 522.519C612.261 469.045 750.23 435.351 718.559 390.69C687.703 347.181 620.307 470.06 571.557 448.464Z" stroke="#2714FF" stroke-opacity="0.94" stroke-width="1.01463"/>
<path d="M573.207 445.746C525.19 424.475 573.68 317.861 525.203 297.664C487.297 281.872 478.505 363.417 453.125 395.718C438.069 414.881 409.541 425.945 405.52 449.988C401.143 476.165 448 503.24 431.651 524.138C397.98 567.176 302.802 546.83 288.488 599.579C277.911 638.562 371.282 616.79 398.39 646.719C422.941 673.826 392.161 737.86 426.083 751.497C461.403 765.696 493.514 718.801 525.203 697.699C544.534 684.826 561.722 669.676 576.215 651.521C587.21 637.746 582.328 609.04 599.411 604.734C656.106 590.442 753.807 657.429 772.589 602.017C790.555 549.015 639.472 576.813 627.399 522.163C615.209 466.984 757.579 432.214 724.897 386.129C693.057 341.232 623.511 468.031 573.207 445.746Z" stroke="#2714FF" stroke-opacity="0.94" stroke-width="1.01463"/>
<path d="M574.855 443.028C525.354 421.099 575.343 311.188 525.367 290.367C486.29 274.087 477.226 358.153 451.062 391.453C435.54 411.208 406.13 422.614 401.985 447.401C397.472 474.387 445.778 502.299 428.923 523.843C394.212 568.212 296.091 547.236 281.336 601.617C270.431 641.805 366.689 619.359 394.634 650.214C419.944 678.159 388.213 744.173 423.183 758.231C459.595 772.869 492.698 724.525 525.367 702.77C545.295 689.499 563.015 673.881 577.956 655.164C589.291 640.963 584.258 611.371 601.869 606.931C660.316 592.197 761.037 661.255 780.4 604.13C798.921 549.489 643.168 578.147 630.722 521.808C618.155 464.922 764.925 429.077 731.234 381.568C698.41 335.282 626.714 466.002 574.855 443.028Z" stroke="#2714FF" stroke-opacity="0.94" stroke-width="1.01463"/>
<path d="M576.503 440.309C525.518 417.722 577.006 304.516 525.531 283.07C485.282 266.302 475.947 352.889 448.998 387.187C433.011 407.535 402.719 419.283 398.45 444.813C393.802 472.609 443.556 501.358 426.196 523.548C390.444 569.247 289.382 547.642 274.184 603.654C262.952 645.047 362.096 621.928 390.879 653.708C416.948 682.491 384.265 750.485 420.284 764.965C457.788 780.042 491.883 730.248 525.531 707.84C546.057 694.172 564.309 678.085 579.697 658.807C591.372 644.18 586.188 613.7 604.327 609.127C664.527 593.952 768.268 665.08 788.211 606.243C807.287 549.963 646.864 579.48 634.045 521.451C621.102 462.86 772.272 425.94 737.571 377.005C703.763 329.332 629.917 463.972 576.503 440.309Z" stroke="#2714FF" stroke-opacity="0.94" stroke-width="1.01463"/>
<path d="M578.151 437.591C525.682 414.346 578.669 297.844 525.696 275.774C484.275 258.517 474.668 347.625 446.935 382.922C430.483 403.862 399.309 415.953 394.915 442.226C390.132 470.831 441.334 500.417 423.469 523.253C386.676 570.283 282.672 548.05 267.031 605.692C255.473 648.291 357.503 624.498 387.124 657.203C413.952 686.824 380.317 756.798 417.385 771.699C455.98 787.215 491.068 735.971 525.696 712.912C546.819 698.845 565.602 682.29 581.438 662.451C593.453 647.398 588.118 616.03 606.785 611.325C668.738 595.707 775.498 668.907 796.022 608.356C815.654 550.437 650.561 580.814 637.369 521.096C624.048 460.798 779.62 422.803 743.908 372.444C709.116 323.382 633.12 461.942 578.151 437.591Z" stroke="#2714FF" stroke-opacity="0.94" stroke-width="1.01463"/>
<path d="M579.8 434.872C525.846 410.97 580.331 291.172 525.86 268.477C483.268 250.732 473.389 342.362 444.872 378.657C427.954 400.19 395.898 412.622 391.381 439.638C386.462 469.053 439.112 499.476 420.742 522.959C382.909 571.319 275.962 548.456 259.879 607.73C247.994 651.533 352.909 627.068 383.368 660.698C410.955 691.158 376.369 763.11 414.486 778.434C454.172 794.389 490.253 741.695 525.86 717.983C547.581 703.518 566.895 686.495 583.179 666.094C595.535 650.616 590.048 618.361 609.243 613.522C672.948 597.462 782.729 672.733 803.833 610.469C824.02 550.912 654.257 582.148 640.692 520.74C626.995 458.736 786.967 419.667 750.244 367.883C714.468 317.433 636.323 459.913 579.8 434.872Z" stroke="#2714FF" stroke-opacity="0.94" stroke-width="1.01463"/>
<path d="M581.448 432.154C526.011 407.595 581.994 284.5 526.025 261.181C482.261 242.948 472.11 337.098 442.808 374.393C425.425 396.517 392.488 409.292 387.846 437.052C382.792 467.276 436.891 498.536 418.014 522.664C379.141 572.355 269.252 548.863 252.727 609.768C240.514 654.777 348.316 629.638 379.613 664.194C407.959 695.491 372.421 769.424 411.586 785.169C452.365 801.563 489.438 747.419 526.025 723.054C548.343 708.192 568.188 690.7 584.921 669.738C597.616 653.834 591.978 620.691 611.701 615.719C677.159 599.218 789.959 676.559 811.644 612.582C832.387 551.386 657.954 583.482 644.015 520.384C629.941 456.675 794.314 416.53 756.581 363.321C719.821 311.483 639.526 457.884 581.448 432.154Z" stroke="#2714FF" stroke-opacity="0.94" stroke-width="1.01463"/>
<path d="M583.097 429.434C526.175 404.217 583.658 277.826 526.19 253.882C481.254 235.161 470.832 331.832 440.745 370.126C422.897 392.843 389.078 405.959 384.312 434.462C379.122 465.496 434.669 497.593 415.288 522.367C375.373 573.388 262.543 549.268 245.575 611.803C233.036 658.017 343.724 632.206 375.858 667.687C404.963 699.822 368.474 775.734 408.688 791.901C450.558 808.734 488.624 753.141 526.19 728.124C549.106 712.863 569.482 694.903 586.663 673.379C599.697 657.049 593.909 623.019 614.16 617.914C681.37 600.971 797.19 680.384 819.456 614.693C840.754 551.859 661.651 584.814 647.339 520.026C632.889 454.611 801.662 413.392 762.919 358.758C725.175 305.532 642.73 455.853 583.097 429.434Z" stroke="#2714FF" stroke-opacity="0.94" stroke-width="1.01463"/>
<path d="M584.745 426.715C526.34 400.841 585.321 271.153 526.354 246.586C480.248 227.376 469.553 326.569 438.682 365.861C420.368 389.17 385.667 402.629 380.777 431.875C375.452 463.718 432.448 496.652 412.561 522.073C371.606 574.424 255.833 549.675 238.423 613.841C225.557 661.26 339.131 634.775 372.103 671.182C401.967 704.155 364.527 782.047 405.789 798.635C448.751 815.907 487.809 758.864 526.354 733.195C549.868 717.536 570.776 699.108 588.404 677.023C601.779 660.267 595.839 625.349 616.619 620.111C685.581 602.726 804.421 684.21 827.267 616.806C849.12 552.333 665.347 586.147 650.663 519.671C635.835 452.549 809.009 410.255 769.256 354.196C730.528 299.582 645.934 453.823 584.745 426.715Z" stroke="#2714FF" stroke-opacity="0.94" stroke-width="1.01463"/>
<path d="M586.393 423.998C526.504 397.465 586.984 264.482 526.519 239.29C479.24 219.592 468.274 321.306 436.619 361.596C417.84 385.498 382.257 399.299 377.242 429.288C371.782 461.94 430.226 495.712 409.834 521.778C367.838 575.461 249.123 550.082 231.271 615.879C218.078 664.504 334.538 637.346 368.348 674.677C398.971 708.489 360.579 788.36 402.889 805.37C446.943 823.081 486.994 764.588 526.519 738.266C550.63 722.21 572.069 703.313 590.145 680.667C603.86 663.485 597.77 627.68 619.077 622.308C689.792 604.481 811.652 688.036 835.078 618.92C857.487 552.808 669.044 587.482 653.986 519.315C638.782 450.488 816.356 407.119 775.593 349.635C735.88 293.633 649.137 451.794 586.393 423.998Z" stroke="#2714FF" stroke-opacity="0.94" stroke-width="1.01463"/>
<path d="M588.042 421.279C526.668 394.089 588.647 257.81 526.683 231.993C478.233 211.807 466.995 316.042 434.555 357.331C415.311 381.826 378.846 395.968 373.707 426.701C368.112 460.163 428.004 494.771 407.107 521.484C364.07 576.496 242.413 550.489 224.119 617.917C210.598 667.747 329.945 639.915 364.593 678.172C395.974 712.822 356.631 794.673 399.99 812.105C445.136 830.255 486.179 770.312 526.683 743.338C551.392 726.883 573.362 707.518 591.887 684.31C605.941 666.703 599.7 630.01 621.535 624.505C694.002 606.237 818.882 691.863 842.889 621.033C865.853 553.282 672.74 588.815 657.309 518.96C641.728 448.426 823.703 403.982 781.93 345.074C741.233 287.683 652.34 449.765 588.042 421.279Z" stroke="#2714FF" stroke-opacity="0.94" stroke-width="1.01463"/>
<path d="M589.691 418.56C526.833 390.712 590.311 251.136 526.849 224.696C477.227 204.021 465.717 310.777 432.493 353.065C412.783 378.152 375.437 392.637 370.173 424.113C364.443 458.384 425.784 493.829 404.381 521.188C360.303 577.531 235.705 550.895 216.968 619.953C203.12 670.989 325.353 642.484 360.839 681.666C392.979 717.154 352.685 800.985 397.092 818.838C443.329 837.427 485.365 776.034 526.849 748.408C552.155 731.555 574.657 711.722 593.629 687.953C608.023 669.919 601.631 632.339 623.995 626.702C698.214 607.991 826.114 695.688 850.702 623.145C874.221 553.756 676.438 590.148 660.634 518.603C644.676 446.364 831.052 400.844 788.268 340.511C746.587 281.733 655.544 447.735 589.691 418.56Z" stroke="#2714FF" stroke-opacity="0.94" stroke-width="1.01463"/>
<path d="M591.339 415.842C526.997 387.336 591.974 244.465 527.013 217.399C476.22 196.237 464.438 305.514 430.43 348.8C410.254 374.48 372.026 389.306 366.638 421.526C360.773 456.606 423.562 492.888 401.653 520.893C356.535 578.567 228.995 551.302 209.815 621.991C195.641 674.232 320.759 645.054 357.083 685.162C389.982 721.487 348.737 807.298 394.193 825.573C441.522 844.601 484.55 781.758 527.013 753.479C552.917 736.229 575.95 715.927 595.37 691.597C610.104 673.137 603.561 634.67 626.453 628.899C702.425 609.746 833.344 699.514 858.513 625.258C882.587 554.23 680.134 591.482 663.957 518.247C647.622 444.302 838.398 397.708 794.605 335.95C751.94 275.784 658.747 445.705 591.339 415.842Z" stroke="#2714FF" stroke-opacity="0.94" stroke-width="1.01463"/>
<path d="M592.987 413.124C527.161 383.961 593.636 237.793 527.178 210.103C475.213 188.452 463.159 300.25 428.366 344.535C407.725 370.807 368.615 385.976 363.103 418.939C357.102 454.828 421.34 491.948 398.926 520.599C352.767 579.603 222.285 551.709 202.663 624.029C188.162 677.475 316.166 647.624 353.328 688.657C386.986 725.821 344.789 813.611 391.293 832.308C439.714 851.774 483.735 787.482 527.178 758.551C553.679 740.902 577.243 720.132 597.111 695.24C612.185 676.355 605.491 637 628.911 631.096C706.635 611.502 840.575 703.341 866.324 627.371C890.953 554.705 683.831 592.816 667.28 517.892C650.569 442.241 845.745 394.571 800.942 331.389C757.292 269.834 661.95 443.676 592.987 413.124Z" stroke="#2714FF" stroke-opacity="0.94" stroke-width="1.01463"/>
<path d="M594.636 410.403C527.325 380.583 595.299 231.119 527.342 202.805C474.205 180.665 461.88 294.985 426.303 340.268C405.196 367.133 365.205 382.643 359.569 416.35C353.432 453.049 419.118 491.005 396.199 520.302C348.999 580.637 215.575 552.114 195.51 626.065C180.682 680.716 311.573 650.192 349.573 692.15C383.989 730.152 340.841 819.922 388.394 839.04C437.906 858.946 482.92 793.204 527.342 763.62C554.441 745.573 578.536 724.334 598.852 698.882C614.266 679.571 607.421 639.328 631.369 633.291C710.846 613.255 847.805 707.165 874.135 629.482C899.32 555.177 687.527 594.148 670.603 517.534C653.515 440.177 853.092 391.433 807.279 326.825C762.645 263.883 665.153 441.645 594.636 410.403Z" stroke="#2714FF" stroke-opacity="0.94" stroke-width="1.01463"/>
<path d="M596.284 407.685C527.489 377.207 596.962 224.446 527.507 195.508C473.198 172.881 460.601 289.721 424.239 336.003C402.668 363.46 361.794 379.313 356.034 413.763C349.762 451.271 416.896 490.064 393.472 520.007C345.231 581.673 208.865 552.521 188.358 628.102C173.203 683.958 306.98 652.762 345.818 695.645C380.993 734.485 336.893 826.235 385.495 845.774C436.099 866.119 482.105 798.927 527.507 768.691C555.203 750.246 579.83 728.539 600.594 702.525C616.347 682.788 609.352 641.658 633.827 635.488C715.056 615.01 855.036 710.991 881.946 631.595C907.686 555.652 691.224 595.482 673.927 517.178C656.462 438.115 860.44 388.296 813.616 322.264C767.998 257.933 668.357 439.615 596.284 407.685Z" stroke="#2714FF" stroke-opacity="0.94" stroke-width="1.01463"/>
<path d="M597.932 404.967C527.653 373.831 598.625 217.774 527.671 188.212C472.191 165.096 459.322 284.457 422.176 331.738C400.139 359.788 358.384 375.983 352.499 411.176C346.092 449.493 414.674 489.123 390.744 519.713C341.463 582.709 202.155 552.928 181.206 630.14C165.724 687.202 302.387 655.332 342.062 699.14C377.997 738.818 332.945 832.548 382.595 852.509C434.291 873.293 481.29 804.651 527.671 773.762C555.965 754.92 581.123 732.744 602.335 706.169C618.428 686.006 611.282 643.989 636.285 637.685C719.267 616.765 862.266 714.817 889.757 633.709C916.052 556.126 694.92 596.816 677.25 516.823C659.408 436.053 867.787 385.159 819.953 317.703C773.351 251.984 671.56 437.586 597.932 404.967Z" stroke="#2714FF" stroke-opacity="0.94" stroke-width="1.01463"/>
<path d="M599.581 402.249C527.818 370.455 600.289 211.103 527.837 180.916C471.185 157.312 458.044 279.194 420.113 327.474C397.611 356.116 354.974 372.653 348.965 408.589C342.423 447.716 412.453 488.183 388.018 519.419C337.696 583.746 195.446 553.335 174.055 632.178C158.246 690.445 297.794 657.902 338.308 702.636C375.001 743.152 328.998 838.861 379.697 859.244C432.485 880.467 480.476 810.375 527.837 778.834C556.728 759.593 582.417 736.949 604.077 709.813C620.511 689.224 613.213 646.319 638.744 639.883C723.479 618.521 869.498 718.644 897.569 635.822C924.42 556.601 698.618 598.15 680.574 516.467C662.356 433.992 875.135 382.023 826.291 313.142C778.705 246.035 674.764 435.557 599.581 402.249Z" stroke="#2714FF" stroke-opacity="0.94" stroke-width="1.01463"/>
<path d="M601.23 399.529C527.983 367.077 601.952 204.429 528.001 173.617C470.178 149.525 456.766 273.929 418.05 323.207C395.082 352.441 351.564 369.32 345.43 406C338.753 445.936 410.232 487.24 385.291 519.122C333.929 584.779 188.737 553.74 166.903 634.214C150.767 693.686 293.201 660.47 334.553 706.129C372.005 747.483 325.051 845.172 376.798 865.977C430.677 887.638 479.661 816.097 528.001 783.903C557.49 764.265 583.711 741.152 605.818 713.455C622.592 692.44 615.143 648.648 641.203 642.078C727.689 620.274 876.728 722.468 905.38 637.933C932.786 557.073 702.314 599.482 683.898 516.11C665.303 431.929 882.482 378.885 832.628 308.578C784.057 240.083 677.967 433.526 601.23 399.529Z" stroke="#2714FF" stroke-opacity="0.94" stroke-width="1.01463"/>
<path d="M602.878 396.81C528.147 363.701 603.615 197.757 528.166 166.321C469.171 141.74 455.487 268.665 415.987 318.942C392.554 348.768 348.153 365.989 341.895 403.413C335.082 444.158 408.01 486.3 382.564 518.827C330.161 585.815 182.027 554.147 159.75 636.252C143.288 696.929 288.608 663.039 330.798 709.624C369.009 751.816 321.103 851.485 373.899 872.711C428.87 894.812 478.846 821.82 528.166 788.974C558.252 768.938 585.004 745.357 607.56 717.098C624.673 695.658 617.073 650.978 643.661 644.275C731.9 622.029 883.959 726.294 913.191 640.046C941.153 557.548 706.011 600.816 687.221 515.754C668.249 429.867 889.829 375.748 838.965 304.017C789.41 234.133 681.17 431.497 602.878 396.81Z" stroke="#2714FF" stroke-opacity="0.94" stroke-width="1.01463"/>
<path d="M604.526 394.093C528.311 360.327 605.278 191.086 528.33 159.025C468.163 133.957 454.208 263.403 413.923 314.678C390.025 345.097 344.742 362.66 338.36 400.827C331.412 442.381 405.788 485.36 379.837 518.534C326.393 586.853 175.317 554.555 152.598 638.291C135.808 700.173 284.015 665.611 327.042 713.12C366.012 756.151 317.155 857.799 370.999 879.447C427.062 901.987 478.031 827.545 528.33 794.047C559.014 773.613 586.297 749.563 609.301 720.743C626.754 698.877 619.004 653.309 646.119 646.473C736.111 623.786 891.189 730.122 921.002 642.161C949.519 558.024 709.707 602.151 690.544 515.399C671.196 427.806 897.176 372.613 845.301 299.457C794.763 228.185 684.373 429.469 604.526 394.093Z" stroke="#2714FF" stroke-opacity="0.94" stroke-width="1.01463"/>
<path d="M606.175 391.373C528.475 356.949 606.941 184.412 528.495 151.727C467.156 126.17 452.929 258.137 411.86 310.411C387.496 341.422 341.332 359.328 334.826 398.237C327.742 440.601 403.566 484.417 377.11 518.237C322.625 587.886 168.607 554.96 145.446 640.326C128.329 703.414 279.422 668.178 323.287 716.613C363.016 760.481 313.207 864.11 368.1 886.179C425.255 909.158 477.216 833.267 528.495 799.116C559.776 778.283 587.591 753.766 611.042 724.384C628.835 702.092 620.934 655.637 648.577 648.668C740.321 625.539 898.42 733.946 928.813 644.272C957.885 558.496 713.404 603.483 693.868 515.041C674.142 425.742 904.523 369.474 851.638 294.893C800.116 222.233 687.576 427.437 606.175 391.373Z" stroke="#2714FF" stroke-opacity="0.94" stroke-width="1.01463"/>
<path d="M607.824 388.655C528.64 353.573 608.605 177.74 528.66 144.43C466.15 118.385 451.651 252.873 409.798 306.146C384.968 337.75 337.922 355.997 331.292 395.65C324.073 438.824 401.345 483.476 374.383 517.942C318.858 588.922 161.898 555.367 138.294 642.364C120.851 706.657 274.83 670.748 319.533 720.109C360.02 764.815 309.261 870.423 365.202 892.914C423.448 916.331 476.402 838.991 528.66 804.187C560.539 782.957 588.885 757.971 612.785 728.028C630.917 705.31 622.865 657.968 651.037 650.865C744.533 627.294 905.652 737.772 936.626 646.385C966.253 558.97 717.101 604.817 697.192 514.686C677.09 423.681 911.872 366.337 857.977 290.332C805.47 216.284 690.781 425.408 607.824 388.655Z" stroke="#2714FF" stroke-opacity="0.94" stroke-width="1.01463"/>
<path d="M609.472 385.937C528.804 350.197 610.267 171.068 528.825 137.134C465.143 110.601 450.372 247.61 407.734 301.881C382.439 334.078 334.512 352.667 327.757 393.063C320.403 437.046 399.123 482.536 371.656 517.648C315.09 589.958 155.188 555.774 131.142 644.402C113.372 709.9 270.237 673.318 315.777 723.604C357.024 769.148 305.313 876.736 362.302 899.648C421.64 923.505 475.587 844.714 528.825 809.259C561.301 787.63 590.178 762.176 614.526 731.672C632.998 708.528 624.795 660.298 653.495 653.063C748.744 629.05 912.882 741.599 944.437 648.498C974.619 559.445 720.798 606.151 700.515 514.33C680.036 421.619 919.219 363.201 864.313 285.77C810.823 210.335 693.984 423.379 609.472 385.937Z" stroke="#2714FF" stroke-opacity="0.94" stroke-width="1.01463"/>
<path d="M611.121 383.218C528.968 346.821 611.93 164.396 528.989 129.838C464.136 102.816 449.093 242.346 405.671 297.616C379.911 330.405 331.101 349.336 324.222 390.476C316.733 435.268 396.902 481.595 368.929 517.353C311.322 590.994 148.478 556.18 123.99 646.44C105.892 713.143 265.644 675.888 312.022 727.099C354.028 773.481 301.365 883.049 359.403 906.383C419.833 930.678 474.772 850.438 528.989 814.33C562.063 792.303 591.471 766.381 616.267 735.315C635.08 711.745 626.725 662.628 655.953 655.26C752.954 630.805 920.113 745.425 952.248 650.611C982.986 559.919 724.494 607.485 703.839 513.975C682.983 419.558 926.566 360.064 870.65 281.209C816.175 204.385 697.187 421.35 611.121 383.218Z" stroke="#2714FF" stroke-opacity="0.94" stroke-width="1.01463"/>
<path d="M612.769 380.498C529.132 343.443 613.593 157.721 529.153 122.539C463.128 95.0292 447.814 237.08 403.607 293.349C377.382 326.73 327.69 346.004 320.687 387.887C313.062 433.488 394.68 480.652 366.202 517.056C307.554 592.028 141.768 556.585 116.837 648.475C98.4131 716.384 261.05 678.456 308.267 730.592C351.031 777.812 297.417 889.359 356.504 913.115C418.025 937.85 473.956 856.16 529.153 819.399C562.824 796.975 592.765 770.584 618.008 738.957C637.16 714.961 628.655 664.956 658.411 657.455C757.165 632.558 927.343 749.249 960.059 652.722C991.352 560.392 728.19 608.816 707.162 513.617C685.929 417.494 933.913 356.925 876.987 276.645C821.528 198.434 700.39 419.318 612.769 380.498Z" stroke="#2714FF" stroke-opacity="0.94" stroke-width="1.01463"/>
<path d="M614.417 377.78C529.296 340.067 615.256 151.05 529.318 115.243C462.121 87.2447 446.535 231.817 401.544 289.084C374.853 323.058 324.28 342.674 317.152 385.3C309.392 431.711 392.458 479.712 363.475 516.762C303.786 593.064 135.059 556.992 109.685 650.513C90.9338 719.627 256.457 681.026 304.512 734.087C348.035 782.146 293.469 895.673 353.604 919.85C416.218 945.024 473.141 861.884 529.318 824.471C563.586 801.648 594.058 774.789 619.749 742.601C639.242 718.179 630.586 667.287 660.869 659.652C761.375 634.313 934.574 753.075 967.87 654.836C999.718 560.866 731.887 610.15 710.485 513.261C688.876 415.432 941.26 353.789 883.324 272.084C826.881 192.484 703.593 417.289 614.417 377.78Z" stroke="#2714FF" stroke-opacity="0.94" stroke-width="1.01463"/>
<path d="M616.066 375.061C529.462 336.691 616.92 144.377 529.484 107.946C461.115 79.4599 445.257 226.553 399.482 284.819C372.325 319.385 320.87 339.343 313.619 382.713C305.723 429.933 390.237 478.771 360.749 516.467C300.019 594.1 128.35 557.399 102.534 652.551C83.4558 722.87 251.865 683.595 300.757 737.582C345.04 786.479 289.523 901.985 350.706 926.584C414.411 952.197 472.328 867.607 529.484 829.542C564.35 806.321 595.352 778.994 621.492 746.244C641.324 721.397 632.517 669.617 663.329 661.849C765.587 636.068 941.805 756.902 975.682 656.948C1008.09 561.341 735.585 611.484 713.81 512.905C691.824 413.371 948.608 350.652 889.662 267.523C832.235 186.535 706.797 415.26 616.066 375.061Z" stroke="#2714FF" stroke-opacity="0.94" stroke-width="1.01463"/>
<path d="M617.714 372.345C529.625 333.317 618.583 137.707 529.648 100.651C460.108 71.6768 443.978 221.291 397.418 280.556C369.796 315.715 317.459 336.014 310.083 380.127C302.053 428.156 388.015 477.832 358.021 516.174C296.251 595.138 121.64 557.808 95.3816 654.59C75.9763 726.114 247.272 686.167 297.002 741.079C342.043 790.814 285.575 908.3 347.807 933.32C412.604 959.372 471.512 873.332 529.648 834.615C565.111 810.996 596.645 783.2 623.233 749.889C643.405 724.616 634.447 671.949 665.787 664.048C769.798 637.825 949.036 760.729 983.493 659.063C1016.45 561.817 739.281 612.82 717.133 512.551C694.77 411.311 955.955 347.517 895.999 262.963C837.587 180.587 710 413.232 617.714 372.345Z" stroke="#2714FF" stroke-opacity="0.94" stroke-width="1.01463"/>
<path d="M619.363 369.624C529.79 329.939 620.246 131.033 529.812 93.3528C459.101 63.89 442.699 216.026 395.355 276.289C367.268 312.04 314.049 332.682 306.549 377.538C298.383 426.377 385.793 476.889 355.294 515.878C292.483 596.171 114.93 558.212 88.2294 656.626C68.4972 729.355 242.679 688.734 293.247 744.572C339.047 795.145 281.627 914.611 344.908 940.053C410.796 966.543 470.697 879.054 529.812 839.684C565.874 815.667 597.939 787.403 624.974 753.531C645.486 727.831 636.377 674.277 668.245 666.243C774.008 639.578 956.266 764.554 991.304 661.174C1024.82 562.289 742.977 614.152 720.456 512.194C697.716 409.247 963.302 344.378 902.336 258.399C842.94 174.635 713.204 411.201 619.363 369.624Z" stroke="#2714FF" stroke-opacity="0.94" stroke-width="1.01463"/>
<path d="M621.011 366.906C529.954 326.563 621.908 124.361 529.977 86.0562C458.094 56.1052 441.42 210.762 393.291 272.024C364.739 308.367 310.638 329.351 303.014 374.951C294.712 424.599 383.571 475.948 352.567 515.583C288.715 597.207 108.22 558.619 81.077 658.664C61.0179 732.598 238.086 691.304 289.491 748.067C336.05 799.478 277.679 920.924 342.008 946.787C408.988 973.717 469.882 884.778 529.977 844.755C566.635 820.341 599.232 791.608 626.715 757.174C647.567 731.049 638.307 676.607 670.703 668.44C778.219 641.334 963.497 768.38 999.115 663.287C1033.18 562.764 746.674 615.485 723.779 511.838C700.663 407.185 970.649 341.242 908.673 253.838C848.293 168.686 716.407 409.171 621.011 366.906Z" stroke="#2714FF" stroke-opacity="0.94" stroke-width="1.01463"/>
<path d="M622.659 364.188C530.118 323.187 623.571 117.689 530.141 78.7599C457.086 48.3207 440.141 205.498 391.228 267.759C362.21 304.695 307.228 326.021 299.479 372.364C291.042 422.821 381.35 475.007 349.84 515.288C284.948 598.243 101.51 559.026 73.9249 660.702C53.5387 735.841 233.493 693.874 285.736 751.562C333.054 803.811 273.731 927.237 339.109 953.522C407.181 980.891 469.067 890.501 530.141 849.827C567.397 825.014 600.525 795.813 628.456 760.818C649.648 734.267 640.237 678.938 673.161 670.637C782.43 643.089 970.727 772.206 1006.93 665.401C1041.55 563.238 750.37 616.819 727.103 511.482C703.609 405.124 977.997 338.105 915.01 249.276C853.646 162.736 719.61 407.142 622.659 364.188Z" stroke="#2714FF" stroke-opacity="0.94" stroke-width="1.01463"/>
<path d="M624.307 361.467C530.282 319.809 625.234 111.014 530.306 71.4611C456.079 40.5337 438.862 200.233 389.164 263.492C359.681 301.02 303.817 322.688 295.944 369.775C287.372 421.041 379.128 474.064 347.112 514.991C281.179 599.277 94.8003 559.431 66.7725 662.737C46.0594 739.082 228.899 696.442 281.981 755.055C330.057 808.142 269.783 933.547 336.21 960.254C405.373 988.062 468.252 896.223 530.306 854.896C568.159 829.685 601.818 800.015 630.198 764.459C651.729 737.482 642.168 681.266 675.62 672.832C786.64 644.842 977.958 776.03 1014.74 667.511C1049.92 563.71 754.067 618.151 730.426 511.124C706.556 403.06 985.344 334.966 921.347 244.713C858.998 156.784 722.813 405.111 624.307 361.467Z" stroke="#2714FF" stroke-opacity="0.94" stroke-width="1.01463"/>
<path d="M625.956 358.749C530.446 316.433 626.897 104.343 530.47 64.1648C455.072 32.7491 437.583 194.969 387.101 259.227C357.152 297.348 300.406 319.358 292.409 367.188C283.702 419.263 376.906 473.124 344.385 514.697C277.412 600.313 88.0905 559.838 59.6202 664.775C38.5802 742.325 224.306 699.012 278.226 758.551C327.061 812.475 265.836 939.86 333.31 966.989C403.566 995.235 467.437 901.947 530.47 859.967C568.921 834.359 603.112 804.221 631.939 768.103C653.81 740.7 644.098 683.596 678.078 675.029C790.851 646.597 985.188 779.857 1022.55 669.625C1058.28 564.185 757.763 619.485 733.749 510.769C709.502 400.998 992.691 331.83 927.684 240.151C864.351 150.835 726.016 403.081 625.956 358.749Z" stroke="#2714FF" stroke-opacity="0.94" stroke-width="1.01463"/>
<path d="M627.604 356.031C530.61 313.058 628.56 97.6706 530.634 56.8685C454.065 24.9646 436.304 189.706 385.037 254.962C354.624 293.675 296.996 316.028 288.874 364.6C280.032 417.486 374.684 472.183 341.658 514.402C273.644 601.349 81.3806 560.245 52.4679 666.813C31.1009 745.568 219.713 701.582 274.47 762.046C324.064 816.809 261.888 946.173 330.411 973.723C401.758 1002.41 466.622 907.67 530.634 865.038C569.683 839.032 604.405 808.425 633.68 771.747C655.891 743.918 646.028 685.926 680.536 677.226C795.061 648.353 992.419 783.683 1030.36 671.738C1066.65 564.659 761.46 620.819 737.072 510.413C712.449 398.937 1000.04 328.693 934.02 235.59C869.704 144.886 729.219 401.052 627.604 356.031Z" stroke="#2714FF" stroke-opacity="0.94" stroke-width="1.01463"/>
<path d="M629.252 353.313C530.774 309.682 630.223 90.9985 530.799 49.5719C453.058 17.1798 435.026 184.442 382.974 250.697C352.095 290.003 293.585 312.697 285.339 362.013C276.362 415.708 372.462 471.242 338.931 514.108C269.876 602.385 74.6708 560.652 45.3157 668.851C23.6218 748.811 215.12 704.151 270.715 765.541C321.068 821.142 257.94 952.486 327.512 980.458C399.951 1009.58 465.807 913.394 530.799 870.109C570.445 843.705 605.698 812.63 635.421 775.39C657.972 747.136 647.958 688.257 682.994 679.423C799.272 650.108 999.649 787.509 1038.17 673.851C1075.02 565.134 765.156 622.153 740.396 510.057C715.396 396.875 1007.38 325.557 940.358 231.029C875.057 138.936 732.422 399.023 629.252 353.313Z" stroke="#2714FF" stroke-opacity="0.94" stroke-width="1.01463"/>
<path d="M630.902 350.595C530.94 306.306 631.888 84.3268 530.966 42.2759C452.053 9.39545 433.749 179.179 380.913 246.433C349.568 286.331 290.177 309.367 281.807 359.427C272.693 413.93 370.242 470.302 336.206 513.813C266.11 603.421 67.963 561.059 38.1655 670.889C16.1446 752.054 210.529 706.721 266.962 769.036C318.074 825.475 253.994 958.799 324.615 987.193C398.145 1016.76 464.994 919.118 530.966 875.181C571.209 848.379 606.994 816.836 637.165 779.034C660.056 750.354 649.89 690.587 685.454 681.621C803.485 651.864 1006.88 791.336 1045.98 675.964C1083.39 565.609 768.855 623.487 743.721 509.702C718.344 394.814 1014.73 322.42 946.697 226.468C880.412 132.987 735.628 396.994 630.902 350.595Z" stroke="#2714FF" stroke-opacity="0.94" stroke-width="1.01463"/>
<path d="M632.551 347.875C531.104 302.929 633.551 77.6535 531.13 34.9781C451.045 1.60943 432.47 173.914 378.849 242.166C347.039 282.657 286.766 306.035 278.272 356.838C269.023 412.151 368.021 469.36 333.479 513.517C262.342 604.456 61.2532 561.465 31.0132 672.925C8.66541 755.296 205.936 709.29 263.207 772.53C315.077 829.807 250.047 965.111 321.715 993.926C396.338 1023.93 464.179 924.84 531.13 880.251C571.971 853.051 608.287 821.039 638.906 782.676C662.137 753.57 651.821 692.916 687.913 683.817C807.695 653.617 1014.11 795.161 1053.79 678.076C1091.75 566.082 772.551 624.82 747.045 509.345C721.291 392.751 1022.08 319.282 953.034 221.905C885.765 127.036 738.831 394.963 632.551 347.875Z" stroke="#2714FF" stroke-opacity="0.94" stroke-width="1.01463"/>
<path d="M634.199 345.157C531.268 299.553 635.213 70.9816 531.294 27.6818C450.038 -6.17513 431.19 168.65 376.786 237.902C344.51 278.985 283.355 302.705 274.737 354.251C265.353 410.374 365.799 468.419 330.751 513.223C258.574 605.492 54.5431 561.872 23.8607 674.963C1.18593 758.539 201.342 711.86 259.451 776.025C312.081 834.141 246.098 971.424 318.816 1000.66C394.53 1031.1 463.364 930.564 531.294 885.322C572.733 857.724 609.58 825.244 640.647 786.32C664.218 756.788 653.75 695.246 690.371 686.014C811.906 655.373 1021.34 798.987 1061.61 680.19C1100.12 566.556 776.247 626.154 750.368 508.99C724.237 390.689 1029.43 316.146 959.37 217.344C891.117 121.087 742.034 392.934 634.199 345.157Z" stroke="#2714FF" stroke-opacity="0.94" stroke-width="1.01463"/>
<path d="M635.847 342.439C531.432 296.178 636.877 64.3099 531.459 20.3857C449.031 -13.9594 429.912 163.387 374.723 233.637C341.982 275.312 279.945 299.375 271.202 351.664C261.683 408.596 363.577 467.479 328.024 512.929C254.806 606.528 47.8334 562.279 16.7087 677.001C-6.29306 761.782 196.749 714.43 255.696 779.521C309.085 838.474 242.151 977.737 315.917 1007.4C392.723 1038.28 462.549 936.288 531.459 890.394C573.495 862.398 610.874 829.449 642.388 789.964C666.299 760.006 655.681 697.577 692.829 688.211C816.117 657.128 1028.57 802.814 1069.42 682.303C1108.48 567.031 779.944 627.488 753.691 508.634C727.184 388.628 1036.78 313.01 965.707 212.783C896.47 115.138 745.237 390.905 635.847 342.439Z" stroke="#2714FF" stroke-opacity="0.94" stroke-width="1.01463"/>
<path d="M637.495 339.719C531.596 292.799 638.539 57.6356 531.623 13.0869C448.024 -21.7464 428.633 158.121 372.659 229.37C339.453 271.638 276.534 296.042 267.667 349.075C258.013 406.816 361.355 466.536 325.297 512.632C251.038 607.562 41.1234 562.684 9.55624 679.037C-13.7724 765.023 192.156 716.998 251.941 783.014C306.088 842.805 238.203 984.048 313.017 1014.13C390.915 1045.45 461.734 942.01 531.623 895.463C574.257 867.069 612.167 833.652 644.129 793.606C668.38 763.222 657.611 699.905 695.287 690.406C820.327 658.881 1035.8 806.638 1077.23 684.414C1116.85 567.503 783.64 628.82 757.014 508.276C730.13 386.564 1044.12 309.871 972.044 208.219C901.823 109.186 748.44 388.874 637.495 339.719Z" stroke="#2714FF" stroke-opacity="0.94" stroke-width="1.01463"/>
</svg>
