<svg width="208" height="193" viewBox="0 0 208 193" fill="none" xmlns="http://www.w3.org/2000/svg">
<path fill-rule="evenodd" clip-rule="evenodd" d="M101.812 80.9812C104.426 81.7589 108.068 78.0171 109.84 80.0911C112.094 82.7288 106.885 88.5465 109.835 90.3716C114.871 93.4882 123.804 86.2041 127.368 90.937C130.159 94.6436 118.364 95.7946 117.323 100.317C116.286 104.827 126.682 111.715 122.27 113.102C116.091 115.043 111.594 102.438 105.331 104.086C100.495 105.359 106.095 115.902 101.812 118.484C98.756 120.327 98.7575 111.318 95.4177 110.063C91.5665 108.615 86.9561 113.458 83.3195 111.533C80.2343 109.9 79.2812 105.253 79.809 101.8C80.3536 98.2367 84.3435 96.3251 86.1231 93.1907C87.352 91.0262 87.9927 88.6624 88.6338 86.257C89.6768 82.3433 87.3426 76.0189 91.1005 74.5145C95.0212 72.9448 97.7644 79.7767 101.812 80.9812Z" stroke="#2714FF" stroke-opacity="0.94" stroke-width="0.495109"/>
<path fill-rule="evenodd" clip-rule="evenodd" d="M95.5033 29.9496C106.703 33.2837 122.312 17.2426 129.905 26.1336C139.561 37.4413 117.243 62.3819 129.881 70.2061C151.464 83.5668 189.742 52.3402 205.012 72.6297C216.972 88.5199 166.429 93.454 161.972 112.843C157.527 132.177 202.073 161.705 183.168 167.648C156.691 175.972 137.421 121.935 110.581 129C89.8607 134.454 113.855 179.655 95.5033 190.724C82.4078 198.622 82.4143 160.003 68.1024 154.621C51.5995 148.415 31.8433 169.176 16.2603 160.924C3.03963 153.923 -1.04446 134.002 1.21696 119.2C3.55098 103.923 20.648 95.7285 28.2737 82.2913C33.5399 73.012 36.2853 62.8786 39.0324 52.5666C43.502 35.7888 33.4997 8.67635 49.6027 2.22699C66.4037 -4.50193 78.1584 24.7859 95.5033 29.9496Z" stroke="#2714FF" stroke-opacity="0.94" stroke-width="0.495109"/>
<path d="M110.234 79.0331C108.348 76.8255 104.47 80.8085 101.688 79.9806C97.38 78.6985 94.4602 71.4263 90.2869 73.0971C86.2869 74.6985 88.7715 81.4305 87.6613 85.5964C86.9789 88.1569 86.2969 90.673 84.9888 92.977C83.0946 96.3135 78.8478 98.3482 78.268 102.142C77.7063 105.817 78.7208 110.763 82.0047 112.501C85.8755 114.551 90.7829 109.395 94.8821 110.936C98.4372 112.273 98.4356 121.862 101.688 119.901C106.247 117.153 100.287 105.929 105.434 104.575C112.101 102.821 116.887 116.238 123.464 114.171C128.16 112.695 117.095 105.364 118.199 100.563C119.306 95.7487 131.861 94.5236 128.89 90.5781C125.097 85.5402 115.589 93.2938 110.228 89.9763C107.088 88.0336 112.632 81.8408 110.234 79.0331Z" stroke="#2714FF" stroke-opacity="0.94" stroke-width="0.495109"/>
<path d="M110.627 77.9752C108.627 75.6339 104.515 79.858 101.565 78.9801C96.9959 77.6203 93.8994 69.9078 89.4735 71.6797C85.2315 73.3781 87.8664 80.5177 86.689 84.9359C85.9653 87.6514 85.2421 90.3198 83.8549 92.7634C81.846 96.3018 77.3422 98.4598 76.7273 102.483C76.1316 106.381 77.2075 111.626 80.6902 113.47C84.7952 115.643 89.9995 110.176 94.3469 111.81C98.117 113.227 98.1153 123.397 101.565 121.317C106.399 118.403 100.079 106.5 105.537 105.063C112.607 103.203 117.684 117.433 124.659 115.241C129.639 113.676 117.904 105.9 119.075 100.809C120.249 95.7029 133.563 94.4036 130.413 90.2192C126.39 84.8762 116.307 93.0993 110.621 89.5809C107.292 87.5206 113.171 80.9529 110.627 77.9752Z" stroke="#2714FF" stroke-opacity="0.94" stroke-width="0.495109"/>
<path d="M111.02 76.9175C108.906 74.4425 104.559 78.9078 101.441 77.9797C96.6111 76.5423 93.3378 68.3895 88.6594 70.2626C84.1754 72.0579 86.9606 79.6051 85.716 84.2755C84.9511 87.1461 84.1865 89.9669 82.7201 92.5499C80.5967 96.2904 75.8358 98.5716 75.1859 102.824C74.5562 106.945 75.6934 112.49 79.3749 114.439C83.7141 116.736 89.2155 110.957 93.8109 112.684C97.7962 114.182 97.7944 124.933 101.441 122.734C106.551 119.653 99.8697 107.07 105.639 105.552C113.113 103.586 118.479 118.628 125.852 116.311C131.116 114.656 118.712 106.436 119.95 101.055C121.191 95.6573 135.265 94.2838 131.935 89.8605C127.683 84.2125 117.024 92.905 111.014 89.1858C107.494 87.0078 113.709 80.0652 111.02 76.9175Z" stroke="#2714FF" stroke-opacity="0.94" stroke-width="0.495109"/>
<path d="M111.414 75.859C109.186 73.2504 104.604 77.9569 101.318 76.9787C96.227 75.4636 92.777 66.8705 87.8461 68.8448C83.1199 70.737 86.0555 78.6919 84.7438 83.6145C83.9375 86.6401 83.1317 89.6132 81.5862 92.3358C79.348 96.2783 74.3302 98.6826 73.6452 103.165C72.9815 107.508 74.1801 113.353 78.0603 115.407C82.6338 117.828 88.4321 111.736 93.2756 113.557C97.476 115.136 97.4741 126.468 101.318 124.15C106.704 120.903 99.6615 107.641 105.743 106.04C113.62 103.967 119.276 119.822 127.047 117.38C132.595 115.636 119.521 106.972 120.826 101.3C122.134 95.6109 136.968 94.1633 133.458 89.5011C128.976 83.5481 117.742 92.71 111.407 88.79C107.698 86.4943 114.248 79.1767 111.414 75.859Z" stroke="#2714FF" stroke-opacity="0.94" stroke-width="0.495109"/>
<path d="M111.808 74.8011C109.465 72.0588 104.649 77.0064 101.194 75.9781C95.8426 74.3854 92.216 65.352 87.0324 67.4274C82.0643 69.4166 85.1502 77.7791 83.7713 82.9539C82.9237 86.1346 82.0767 89.2601 80.4519 92.1221C78.0992 96.2666 72.8243 98.7941 72.1042 103.506C71.4065 108.072 72.6666 114.216 76.7455 116.375C81.5532 118.921 87.6485 112.517 92.7401 114.431C97.1556 116.091 97.1536 128.003 101.194 125.567C106.856 122.153 99.453 108.211 105.846 106.529C114.127 104.35 120.072 121.017 128.241 118.449C134.073 116.616 120.33 107.509 121.701 101.545C123.076 95.5651 138.67 94.0432 134.98 89.1421C130.269 82.8841 118.459 92.5155 111.8 88.3946C107.901 85.9814 114.787 78.2888 111.808 74.8011Z" stroke="#2714FF" stroke-opacity="0.94" stroke-width="0.495109"/>
<path d="M112.201 73.7434C109.744 70.8674 104.694 76.0562 101.07 74.9777C95.458 73.3074 91.6547 63.8337 86.2186 66.0103C81.0084 68.0965 84.2447 76.8665 82.7985 82.2936C81.9097 85.6293 81.0214 88.9071 79.3175 91.9087C76.8501 96.2552 71.3182 98.9059 70.5631 103.848C69.8314 108.636 71.1528 115.079 75.4304 117.344C80.4724 120.013 86.8647 113.298 92.2043 115.305C96.835 117.046 96.8329 129.538 101.07 126.983C107.008 123.403 99.2443 108.782 105.948 107.018C114.633 104.732 120.868 122.212 129.435 119.519C135.551 117.596 121.138 108.045 122.576 101.791C124.019 95.5195 140.372 93.9234 136.503 88.7835C131.562 82.2204 119.176 92.3213 112.193 87.9995C108.104 85.4686 115.325 77.4011 112.201 73.7434Z" stroke="#2714FF" stroke-opacity="0.94" stroke-width="0.495109"/>
<path d="M112.595 72.6849C110.024 69.6753 104.739 75.1053 100.947 73.9767C95.0739 72.2287 91.0939 62.3147 85.4052 64.5925C79.9529 66.7756 83.3396 75.9532 81.8263 81.6326C80.8961 85.1233 79.9665 88.5535 78.1835 91.6945C75.6015 96.2431 69.8126 99.017 69.0224 104.188C68.2567 109.199 69.6395 115.942 74.1159 118.312C79.3921 121.105 86.0813 114.078 91.669 116.178C96.5149 118 96.5127 131.073 100.947 128.399C107.16 124.653 99.0361 109.352 106.052 107.506C115.14 105.114 121.664 123.406 130.629 120.588C137.03 118.576 121.947 108.581 123.452 102.037C124.962 95.4731 142.075 93.8029 138.025 88.4241C132.855 81.556 119.894 92.1263 112.587 87.6036C108.307 84.9551 115.864 76.5126 112.595 72.6849Z" stroke="#2714FF" stroke-opacity="0.94" stroke-width="0.495109"/>
<path d="M112.988 71.6272C110.303 68.4839 104.783 74.1551 100.823 72.9764C94.6891 71.1508 90.5323 60.7964 84.5911 63.1753C78.8968 65.4554 82.4338 75.0407 80.8533 80.9723C79.8818 84.618 78.911 88.2005 77.0488 91.4811C74.3521 96.2317 68.3063 99.1288 67.4809 104.53C66.6812 109.763 68.1255 116.805 72.8006 119.281C78.3111 122.198 85.2973 114.858 91.133 117.052C96.194 118.955 96.1917 132.609 100.823 129.816C107.312 125.903 98.8272 109.923 106.154 107.994C115.646 105.497 122.46 124.601 131.823 121.658C138.508 119.557 122.756 109.117 124.327 102.282C125.904 95.4275 143.776 93.6831 139.547 88.0654C134.147 80.8923 120.611 91.932 112.979 87.2085C108.51 84.4424 116.402 75.6249 112.988 71.6272Z" stroke="#2714FF" stroke-opacity="0.94" stroke-width="0.495109"/>
<path d="M113.381 70.5691C110.582 67.2921 104.828 73.2044 100.699 71.9755C94.3049 70.0723 89.9715 59.2777 83.7778 61.7577C77.8414 64.1348 81.5288 74.1277 79.881 80.3115C78.8683 84.1122 77.8562 87.8471 75.9148 91.2672C73.1035 96.2198 66.8007 99.2401 65.9402 104.871C65.1065 110.326 66.6122 117.668 71.486 120.249C77.2307 123.291 84.5139 115.638 90.5978 117.926C95.8739 119.909 95.8715 134.144 100.699 131.232C107.465 127.153 98.619 110.493 106.258 108.483C116.152 105.879 123.256 125.795 133.017 122.727C139.987 120.537 123.565 109.654 125.203 102.528C126.846 95.3814 145.479 93.5629 141.07 87.7062C135.44 80.2281 121.329 91.7373 113.373 86.8129C108.713 83.9292 116.941 74.7368 113.381 70.5691Z" stroke="#2714FF" stroke-opacity="0.94" stroke-width="0.495109"/>
<path d="M113.775 69.5114C110.862 66.1007 104.873 72.2542 100.576 70.9752C93.9206 68.9944 89.4105 57.7594 82.9642 60.3406C76.7857 62.8146 80.6234 73.2151 78.9085 79.6512C77.8545 83.6069 76.8011 87.4942 74.7806 91.0538C71.8547 96.2083 65.2948 99.3519 64.3993 105.212C63.5316 110.89 65.0986 118.532 70.1712 121.218C76.1502 124.383 83.7303 116.419 90.0623 118.8C95.5535 120.864 95.551 135.679 100.576 132.649C107.617 128.403 98.4106 111.064 106.361 108.972C116.659 106.261 124.052 126.99 134.211 123.797C141.465 121.517 124.373 110.19 126.079 102.774C127.789 95.3358 147.181 93.4431 142.593 87.3475C136.733 79.5643 122.047 91.543 113.766 86.4178C108.917 83.4164 117.48 73.849 113.775 69.5114Z" stroke="#2714FF" stroke-opacity="0.94" stroke-width="0.495109"/>
<path d="M114.168 68.4529C111.14 64.9086 104.917 71.3032 100.451 69.9741C93.5355 67.9157 88.8487 56.2404 82.1498 58.9228C75.7293 61.4938 79.7174 72.3018 77.9353 78.9901C76.84 83.1009 75.7453 87.1405 73.6456 90.8396C70.6051 96.1962 63.7882 99.4629 62.8576 105.553C61.9559 111.454 63.5843 119.395 68.8556 122.186C75.0689 125.475 82.946 117.199 89.526 119.673C95.2324 121.818 95.2298 137.214 100.451 134.065C107.768 129.653 98.2014 111.634 106.463 109.46C117.165 106.643 124.848 128.185 135.405 124.866C142.942 122.497 125.181 110.726 126.953 103.019C128.731 95.2895 148.883 93.3226 144.114 86.9881C138.026 78.8999 122.764 91.3481 114.158 86.0219C109.119 82.9029 118.018 72.9606 114.168 68.4529Z" stroke="#2714FF" stroke-opacity="0.94" stroke-width="0.495109"/>
<path d="M114.562 67.3952C111.42 63.7172 104.962 70.353 100.328 68.9738C93.1516 66.8377 88.2881 54.7221 81.3367 57.5057C74.6741 60.1736 78.8126 71.3893 76.9633 78.3298C75.8267 82.5957 74.6907 86.7876 72.5119 90.6262C69.3567 96.1848 62.2829 99.5747 61.3172 105.894C60.3815 112.018 62.0713 120.258 67.5413 123.154C73.9888 126.568 82.1629 117.98 88.991 120.547C94.9125 122.773 94.9098 138.749 100.328 135.482C107.921 130.903 97.9934 112.205 106.566 109.948C117.671 107.026 125.644 129.38 136.599 125.936C144.421 123.477 125.99 111.262 127.829 103.265C129.674 95.2439 150.586 93.2028 145.637 86.6294C139.319 78.2362 123.482 91.1538 114.552 85.6268C109.323 82.3902 118.557 72.0729 114.562 67.3952Z" stroke="#2714FF" stroke-opacity="0.94" stroke-width="0.495109"/>
<path d="M114.955 66.3375C111.699 62.5259 105.006 69.4028 100.204 67.9735C92.767 65.7597 87.7268 53.2038 80.5229 56.0886C73.6182 58.8534 77.907 70.4767 75.9905 77.6695C74.8126 82.0904 73.6354 86.4346 71.3774 90.4127C68.1076 96.1734 60.7768 99.6865 59.776 106.236C58.8063 112.582 60.5575 121.122 66.2263 124.123C72.908 127.661 81.3791 118.76 88.4552 121.421C94.5919 123.728 94.5891 140.285 100.204 136.899C108.073 132.153 97.7847 112.775 106.669 110.437C118.178 107.408 126.44 130.575 137.793 127.006C145.899 124.458 126.799 111.799 128.705 103.511C130.616 95.1983 152.288 93.083 147.16 86.2708C140.612 77.5725 124.199 90.9596 114.945 85.2317C109.526 81.8775 119.095 71.1852 114.955 66.3375Z" stroke="#2714FF" stroke-opacity="0.94" stroke-width="0.495109"/>
<path d="M115.348 65.2791C111.978 61.3338 105.051 68.4519 100.08 66.9724C92.3824 64.6811 87.1655 51.6848 79.709 54.6707C72.5623 57.5326 77.0015 69.5635 75.0178 77.0085C73.7986 81.5844 72.5801 86.081 70.2429 90.1986C66.8585 96.1612 59.2707 99.7975 58.2348 106.577C57.2311 113.145 59.0437 121.984 64.9112 125.091C71.8272 128.753 80.5952 119.54 87.9195 122.294C94.2713 124.682 94.2684 141.82 100.08 138.315C108.225 133.403 97.576 113.346 106.772 110.925C118.684 107.79 127.236 131.769 138.987 128.075C147.377 125.438 127.607 112.335 129.58 103.756C131.558 95.1519 153.99 92.9625 148.682 85.9114C141.905 76.908 124.916 90.7646 115.338 84.8359C109.729 81.364 119.634 70.2968 115.348 65.2791Z" stroke="#2714FF" stroke-opacity="0.94" stroke-width="0.495109"/>
<path d="M115.742 64.2211C112.258 60.1422 105.096 67.5014 99.9572 65.9718C91.9986 63.6028 86.605 50.1663 78.8959 53.2534C71.5071 56.2122 76.0966 68.6507 74.0458 76.3479C72.7853 81.0789 71.5255 85.7278 69.1092 89.9849C65.6102 96.1496 57.7653 99.9091 56.6943 106.918C55.6567 113.709 57.5306 122.848 63.5969 126.06C70.7471 129.846 79.8121 120.321 87.3844 123.168C93.9514 125.637 93.9484 143.355 99.9572 139.731C108.378 134.653 97.3681 113.916 106.875 111.414C119.191 108.173 128.033 132.964 140.182 129.145C148.856 126.418 128.417 112.871 130.456 104.001C132.501 95.1061 155.693 92.8424 150.205 85.5524C143.198 76.2441 125.634 90.5701 115.731 84.4405C109.932 80.851 120.173 69.4088 115.742 64.2211Z" stroke="#2714FF" stroke-opacity="0.94" stroke-width="0.495109"/>
<path d="M116.135 63.1634C112.537 58.9508 105.14 66.5512 99.8328 64.9715C91.6135 62.5249 86.0432 48.648 78.0816 51.8362C70.4507 54.892 75.1906 67.7381 73.0726 75.6876C71.7708 80.5736 70.4697 85.3749 67.9743 89.7715C64.3606 96.1382 56.2587 100.021 55.1526 107.259C54.081 114.273 56.0164 123.711 62.2813 127.028C69.6658 130.938 79.0278 121.101 86.8482 124.042C93.6303 126.592 93.6272 144.89 99.8328 141.148C108.529 135.904 97.1589 114.487 106.978 111.903C119.697 108.555 128.828 134.159 141.375 130.214C150.334 127.398 129.225 113.408 131.331 104.247C133.443 95.0605 157.394 92.7227 151.727 85.1937C144.49 75.5804 126.351 90.3758 116.124 84.0454C110.135 80.3382 120.711 68.5211 116.135 63.1634Z" stroke="#2714FF" stroke-opacity="0.94" stroke-width="0.495109"/>
<path d="M116.528 62.1055C112.816 57.7592 105.184 65.6008 99.709 63.9709C91.2289 61.4467 85.4819 47.1295 77.2677 50.4189C69.3948 53.5716 74.285 66.8253 72.0998 75.0271C70.7567 80.0681 69.4144 85.0217 66.8398 89.5578C63.1115 96.1265 54.7526 100.132 53.6115 107.601C52.5058 114.836 54.5026 124.574 60.9663 127.997C68.585 132.031 78.244 121.882 86.3124 124.916C93.3096 127.547 93.3065 146.426 99.709 142.564C108.681 137.154 96.9502 115.057 107.08 112.391C120.203 108.937 129.624 135.353 142.569 131.284C151.812 128.379 130.033 113.944 132.206 104.493C134.385 95.0146 159.096 92.6026 153.249 84.8348C145.783 74.9164 127.069 90.1813 116.517 83.65C110.338 79.8253 121.249 67.6332 116.528 62.1055Z" stroke="#2714FF" stroke-opacity="0.94" stroke-width="0.495109"/>
<path d="M116.922 61.0468C113.096 56.5668 105.23 64.6496 99.5858 62.9696C90.845 60.3677 84.9213 45.6102 76.4546 49.0008C68.3396 52.2505 73.3802 65.9118 71.1278 74.3658C69.7434 79.5618 68.3599 84.6678 65.7061 89.3434C61.8631 96.1141 53.2472 100.243 52.071 107.941C50.9314 115.399 52.9895 125.437 59.652 128.965C67.5049 133.123 77.4609 122.661 85.7774 125.789C92.9897 128.501 92.9865 147.96 99.5858 143.98C108.834 138.403 96.7423 115.627 107.184 112.879C120.71 109.319 130.421 136.547 143.764 132.353C153.291 129.358 130.842 114.48 133.082 104.738C135.328 94.968 160.799 92.4819 154.772 84.4752C147.077 74.2517 127.787 89.9861 116.91 83.2539C110.541 79.3115 121.789 66.7445 116.922 61.0468Z" stroke="#2714FF" stroke-opacity="0.94" stroke-width="0.495109"/>
<path d="M117.315 59.9893C113.375 55.3757 105.274 63.6996 99.462 61.9695C90.4604 59.29 84.36 44.0922 75.6407 47.5839C67.2837 50.9306 72.4747 64.9995 70.1551 73.7057C68.7294 79.0568 67.3046 84.3151 64.5716 89.1302C60.614 96.1029 51.7411 100.355 50.5298 108.283C49.3562 115.964 51.4757 126.301 58.3369 129.934C66.4241 134.216 76.677 123.442 85.2416 126.663C92.6691 129.456 92.6658 149.496 99.462 145.397C108.986 139.654 96.5336 116.198 107.287 113.368C121.216 109.702 131.217 137.742 144.958 133.423C154.769 130.339 131.651 115.016 133.957 104.984C136.271 94.9227 162.501 92.3623 156.294 84.1167C148.369 73.5882 128.504 89.7921 117.303 82.8591C110.744 78.799 122.327 65.857 117.315 59.9893Z" stroke="#2714FF" stroke-opacity="0.94" stroke-width="0.495109"/>
<path d="M117.709 58.9309C113.654 54.1836 105.319 62.7487 99.3381 60.9685C90.0758 58.2113 83.7987 42.5732 74.8269 46.1661C66.2278 49.6097 71.5691 64.0862 69.1823 73.0447C67.7154 78.5508 66.2492 83.9614 63.4371 88.9161C59.3649 96.0908 50.235 100.466 48.9886 108.623C47.781 116.527 49.9619 127.163 57.0219 130.902C65.3433 135.308 75.8932 124.222 84.7059 127.536C92.3485 130.41 92.345 151.031 99.3381 146.813C109.138 140.903 96.3249 116.768 107.39 113.856C121.722 110.084 132.012 138.937 146.152 134.492C156.247 131.318 132.459 115.552 134.833 105.229C137.213 94.8763 164.203 92.2418 157.817 83.7573C149.662 72.9238 129.221 89.5971 117.696 82.4632C110.947 78.2855 122.865 64.9686 117.709 58.9309Z" stroke="#2714FF" stroke-opacity="0.94" stroke-width="0.495109"/>
<path d="M118.102 57.873C113.934 52.992 105.363 61.7982 99.2145 59.9679C89.6915 57.1331 83.2377 41.0547 74.0133 44.7487C65.1721 48.2893 70.6638 63.1734 68.2098 72.3841C66.7016 78.0452 65.1942 83.6083 62.3029 88.7024C58.116 96.0791 48.7292 100.578 47.4477 108.965C46.2061 117.091 48.4484 128.027 55.707 131.87C64.2627 136.4 75.1096 125.003 84.1703 128.41C92.0281 131.364 92.0246 152.566 99.2145 148.23C109.29 142.153 96.1164 117.339 107.493 114.345C122.229 110.466 132.809 140.131 147.346 135.562C157.725 132.299 133.268 116.088 135.708 105.475C138.156 94.8305 165.905 92.1218 159.339 83.3984C150.955 72.2598 129.939 89.4026 118.089 82.0678C111.15 77.7726 123.404 64.0807 118.102 57.873Z" stroke="#2714FF" stroke-opacity="0.94" stroke-width="0.495109"/>
<path d="M118.495 56.8153C114.213 51.8006 105.408 60.848 99.0906 58.9676C89.3069 56.0551 82.6764 39.5364 73.1994 43.3316C64.1162 46.9691 69.7582 62.2609 67.2371 71.7238C65.6875 77.54 64.1389 83.2553 61.1684 88.489C56.867 96.0677 47.2231 100.69 45.9065 109.306C44.6309 117.655 46.9346 128.89 54.392 132.839C63.1819 137.493 74.3258 125.783 83.6346 129.284C91.7075 132.319 91.7038 154.101 99.0906 149.646C109.442 143.404 95.9078 117.91 107.595 114.833C122.735 110.849 133.605 141.326 148.54 136.631C159.203 133.279 134.076 116.625 136.584 105.721C139.098 94.7849 167.607 92.002 160.861 83.0397C152.248 71.5961 130.656 89.2084 118.482 81.6727C111.353 77.2598 123.942 63.193 118.495 56.8153Z" stroke="#2714FF" stroke-opacity="0.94" stroke-width="0.495109"/>
<path d="M118.889 55.7568C114.492 50.6085 105.452 59.8971 98.967 57.9665C88.9225 54.9765 82.1154 38.0174 72.3858 41.9138C63.0606 45.6482 68.8529 61.3476 66.2646 71.0628C64.6737 77.0339 63.0838 82.9017 60.0342 88.2748C55.6181 96.0556 45.7172 100.801 44.3656 109.647C43.056 118.218 45.4211 129.753 53.0772 133.807C62.1014 138.585 73.5422 126.563 83.0991 130.157C91.3871 133.273 91.3834 155.636 98.967 151.062C109.594 144.653 95.6993 118.48 107.698 115.322C123.242 111.23 134.401 142.521 149.734 137.7C160.682 134.259 134.885 117.161 137.459 105.966C140.04 94.7385 169.31 91.8815 162.384 82.6803C153.541 70.9317 131.374 89.0134 118.875 81.2769C111.556 76.7463 124.481 62.3045 118.889 55.7568Z" stroke="#2714FF" stroke-opacity="0.94" stroke-width="0.495109"/>
<path d="M119.282 54.6991C114.771 49.4171 105.497 58.9469 98.8431 56.9662C88.5379 53.8985 81.5541 36.4991 71.572 40.4966C62.0046 44.3281 67.9474 60.4351 65.2918 70.4025C63.6597 76.5287 62.0285 82.5487 58.8997 88.0614C54.369 96.0442 44.2111 100.912 42.8244 109.988C41.4808 118.782 43.9073 130.616 51.7621 134.776C61.0206 139.678 72.7584 127.344 82.5633 131.031C91.0665 134.228 91.0626 157.172 98.8431 152.479C109.746 145.904 95.4906 119.051 107.801 115.81C123.748 111.613 135.197 143.716 150.928 138.77C162.16 135.239 135.694 117.697 138.334 106.212C140.983 94.6929 171.012 91.7617 163.906 82.3216C154.833 70.268 132.091 88.8191 119.268 80.8818C111.759 76.2336 125.02 61.4168 119.282 54.6991Z" stroke="#2714FF" stroke-opacity="0.94" stroke-width="0.495109"/>
<path d="M119.676 53.6414C115.051 48.2258 105.542 57.9967 98.72 55.9658C88.1541 52.8205 80.9935 34.9808 70.7589 39.0795C60.9495 43.0079 67.0425 59.5225 64.3198 69.7422C62.6464 76.0234 60.9739 82.1958 57.766 87.848C53.1206 96.0328 42.7057 101.024 41.2839 110.33C39.9063 119.346 42.3942 131.48 50.4478 135.744C59.9405 140.771 71.9753 128.125 82.0283 131.905C90.7466 135.183 90.7426 158.707 98.72 153.896C109.899 147.154 95.2827 119.621 107.905 116.299C124.255 111.996 135.993 144.911 152.122 139.84C163.639 136.22 136.503 118.234 139.21 106.458C141.926 94.6473 172.715 91.6419 165.429 81.963C156.127 69.6043 132.809 88.6249 119.662 80.4866C111.963 75.7209 125.559 60.5291 119.676 53.6414Z" stroke="#2714FF" stroke-opacity="0.94" stroke-width="0.495109"/>
<path d="M120.069 52.5832C115.33 47.0339 105.587 57.046 98.5961 54.965C87.7695 51.7421 80.4322 33.4621 69.945 37.6619C59.8935 41.6873 66.137 58.6095 63.3471 69.0814C61.6324 75.5176 59.9186 81.8424 56.6315 87.634C51.8715 96.0209 41.1996 101.136 39.7427 110.671C38.3312 119.909 40.8804 132.343 49.1328 136.713C58.8597 141.863 71.1914 128.905 81.4925 132.778C90.426 136.138 90.4219 160.242 98.5961 155.312C110.051 148.404 95.074 120.192 108.007 116.787C124.761 112.378 136.789 146.105 153.316 140.91C165.117 137.2 137.311 118.77 140.086 106.703C142.868 94.6012 174.417 91.5216 166.952 81.6038C157.42 68.9401 133.526 88.4301 120.055 80.091C112.166 75.2076 126.097 59.6409 120.069 52.5832Z" stroke="#2714FF" stroke-opacity="0.94" stroke-width="0.495109"/>
<path d="M120.463 51.5255C115.609 45.8425 105.631 56.0958 98.4722 53.9647C87.3849 50.6641 79.8709 31.9438 69.1312 36.2448C58.8376 40.3671 65.2314 57.6969 62.3743 68.4211C60.6183 75.0124 58.8633 81.4895 55.4971 87.4206C50.6224 96.0094 39.6935 101.247 38.2015 111.012C36.756 120.473 39.3666 133.206 47.8177 137.681C57.7789 142.956 70.4076 129.686 80.9568 133.652C90.1054 137.093 90.1012 161.778 98.4722 156.729C110.203 149.654 94.8653 120.762 108.11 117.276C125.267 112.76 137.585 147.3 154.51 141.979C166.595 138.18 138.12 119.307 140.961 106.949C143.81 94.5556 176.119 91.4018 168.474 81.2451C158.712 68.2764 134.244 88.2359 120.448 79.6959C112.369 74.6949 126.635 58.7532 120.463 51.5255Z" stroke="#2714FF" stroke-opacity="0.94" stroke-width="0.495109"/>
<path d="M120.856 50.4671C115.889 44.6504 105.676 55.1448 98.3486 52.9636C87.0005 49.5854 79.3098 30.4248 68.3176 34.827C57.782 39.0462 64.3261 56.7837 61.4018 67.76C59.6045 74.5063 57.8083 81.1358 54.3628 87.2065C49.3736 95.9973 38.1877 101.358 36.6606 111.353C35.181 121.037 37.8531 134.069 46.5029 138.649C56.6983 144.048 69.624 130.466 80.4212 134.526C89.785 138.047 89.7807 163.312 98.3486 158.145C110.355 150.904 94.6568 121.332 108.213 117.764C125.774 113.142 138.381 148.494 155.704 143.048C168.073 139.16 138.929 119.842 141.837 107.194C144.753 94.5093 177.821 91.2813 169.996 80.8857C160.005 67.6119 134.961 88.0409 120.841 79.3001C112.572 74.1814 127.174 57.8648 120.856 50.4671Z" stroke="#2714FF" stroke-opacity="0.94" stroke-width="0.495109"/>
<path d="M121.25 49.4094C116.168 43.4591 105.721 54.1946 98.225 51.9633C86.6162 48.5075 78.7488 28.9065 67.504 33.4098C56.7263 37.7261 63.4208 55.8711 60.4294 67.0997C58.5907 74.0011 56.7532 80.7829 53.2286 86.993C48.1247 95.9859 36.6818 101.47 35.1197 111.694C33.6061 121.601 36.3396 134.932 45.1881 139.618C55.6177 145.141 68.8404 131.246 79.8857 135.4C89.4646 139.002 89.4603 164.848 98.225 159.562C110.508 152.154 94.4484 121.903 108.316 118.253C126.28 113.525 139.177 149.689 156.899 144.118C169.552 140.141 139.737 120.379 142.712 107.44C145.695 94.4637 179.523 91.1615 171.519 80.527C161.298 66.9482 135.679 87.8467 121.234 78.905C112.775 73.6687 127.713 56.9771 121.25 49.4094Z" stroke="#2714FF" stroke-opacity="0.94" stroke-width="0.495109"/>
<path d="M121.643 48.3515C116.447 42.2675 105.765 53.2442 98.1011 50.9627C86.2316 47.4292 78.1875 27.388 66.6901 31.9925C55.6704 36.4057 62.5153 54.9583 59.4566 66.4391C57.5767 73.4955 55.6979 80.4297 52.0941 86.7793C46.8756 95.9742 35.1757 101.582 33.5785 112.036C32.0309 122.164 34.8258 135.796 43.873 140.587C54.5369 146.233 68.0566 132.027 79.35 136.273C89.144 139.956 89.1395 166.383 98.1011 160.978C110.66 153.404 94.2397 122.474 108.419 118.742C126.786 113.907 139.973 150.884 158.093 145.188C171.03 141.121 140.546 120.915 143.587 107.686C146.638 94.4178 181.225 91.0415 173.041 80.1681C162.591 66.2842 136.396 87.6522 121.627 78.5096C112.978 73.1557 128.251 56.0891 121.643 48.3515Z" stroke="#2714FF" stroke-opacity="0.94" stroke-width="0.495109"/>
<path d="M122.036 47.2933C116.726 41.0756 105.81 52.2935 97.9773 49.9619C85.847 46.3508 77.6262 25.8692 65.8763 30.5749C54.6145 35.0851 61.6097 54.0453 58.4839 65.7784C56.5627 72.9898 54.6426 80.0763 50.9597 86.5654C45.6265 95.9623 33.6696 101.693 32.0373 112.377C30.4557 122.728 33.312 136.659 42.558 141.555C53.4561 147.326 67.2728 132.807 78.8142 137.147C88.8234 140.911 88.8188 167.918 97.9773 162.394C110.812 154.654 94.031 123.044 108.522 119.23C127.293 114.289 140.769 152.078 159.286 146.257C172.508 142.101 141.354 121.451 144.463 107.931C147.58 94.3717 182.927 90.9212 174.563 79.8089C163.884 65.62 137.114 87.4574 122.02 78.114C113.181 72.6424 128.79 55.201 122.036 47.2933Z" stroke="#2714FF" stroke-opacity="0.94" stroke-width="0.495109"/>
<path d="M122.43 46.2353C117.006 39.884 105.855 51.343 97.8541 48.9613C85.4631 45.2726 77.0657 24.3507 65.0632 29.1575C53.5593 33.7647 60.7049 53.1325 57.5119 65.1178C55.5494 72.4843 53.588 79.7231 49.8259 86.3518C44.3782 95.9507 32.1642 101.805 30.4968 112.718C28.8813 123.292 31.7989 137.522 41.2436 142.523C52.376 148.418 66.4897 133.587 78.2792 138.021C88.5035 141.865 88.4988 169.453 97.8541 163.811C110.964 155.904 93.8231 123.615 108.625 119.718C127.8 114.672 141.566 153.273 160.481 147.327C173.987 143.081 142.164 121.988 145.339 108.177C148.523 94.3259 184.63 90.8012 176.086 79.45C165.177 64.9561 137.832 87.2629 122.413 77.7186C113.385 72.1295 129.329 54.313 122.43 46.2353Z" stroke="#2714FF" stroke-opacity="0.94" stroke-width="0.495109"/>
<path d="M122.823 45.1774C117.284 38.6924 105.898 50.3926 97.7295 47.9607C85.0778 44.1944 76.5036 22.8322 64.2486 27.7402C52.5027 32.4443 59.7986 52.2197 56.5384 64.4572C54.5346 71.9787 52.532 79.3699 48.6907 86.1381C43.1283 95.939 30.6574 101.916 28.9549 113.059C27.3054 123.855 30.2844 138.385 39.9279 143.492C51.2945 149.511 65.7051 134.368 77.7427 138.894C88.1821 142.82 88.1774 170.989 97.7295 165.227C111.116 157.154 93.6136 124.185 108.727 120.207C128.305 115.054 142.361 154.468 161.674 148.396C175.464 144.061 142.971 122.524 146.213 108.422C149.465 94.28 186.332 90.6811 177.608 79.0911C166.469 64.2921 138.548 87.0684 122.806 77.3233C113.587 71.6164 129.866 53.4251 122.823 45.1774Z" stroke="#2714FF" stroke-opacity="0.94" stroke-width="0.495109"/>
<path d="M123.217 44.1202C117.564 37.5015 105.944 49.4429 97.6064 46.9609C84.6939 43.1169 75.9431 21.3144 63.4354 26.3235C51.4475 31.1246 58.8938 51.3077 55.5664 63.7974C53.5213 71.4739 51.4774 79.0175 47.557 85.9252C41.88 95.9281 29.152 102.028 27.4145 113.401C25.7309 124.42 28.7713 139.249 38.6135 144.461C50.2144 150.604 64.922 135.149 77.2077 139.769C87.8622 143.775 87.8574 172.525 97.6064 166.645C111.268 158.405 93.4057 124.756 108.831 120.696C128.812 115.437 143.158 155.663 162.869 149.467C176.943 145.042 143.78 123.061 147.089 108.669C150.408 94.2349 188.034 90.5619 179.131 78.7329C167.763 63.6289 139.266 86.8747 123.199 76.9286C113.79 71.1042 130.406 52.5379 123.217 44.1202Z" stroke="#2714FF" stroke-opacity="0.94" stroke-width="0.495109"/>
<path d="M123.61 43.0612C117.843 36.3089 105.988 48.4914 97.4825 45.9593C84.3093 42.0377 75.3818 19.7949 62.6216 24.9052C50.3916 29.8032 57.9882 50.3939 54.5936 63.1359C52.5072 70.9674 50.4221 78.6633 46.4225 85.7105C40.6309 95.9155 27.6459 102.139 25.8733 113.741C24.1557 124.983 27.2576 140.111 37.2985 145.428C49.1336 151.696 64.1382 135.928 76.6719 140.641C87.5416 144.729 87.5367 174.059 97.4825 168.06C111.42 159.654 93.197 125.326 108.934 121.184C129.318 115.818 143.953 156.857 164.063 150.535C178.421 146.021 144.589 123.596 147.965 108.914C151.35 94.1881 189.736 90.4408 180.653 78.373C169.055 62.964 139.984 86.6792 123.592 76.5323C113.993 70.5902 130.944 51.6489 123.61 43.0612Z" stroke="#2714FF" stroke-opacity="0.94" stroke-width="0.495109"/>
<path d="M124.004 42.004C118.123 35.118 106.033 47.5417 97.3589 44.9595C83.9249 40.9602 74.8207 18.2771 61.808 23.4886C49.3359 28.4835 57.0829 49.4818 53.6211 62.4761C51.4934 70.4627 49.367 78.3109 45.2883 85.4976C39.382 95.9045 26.1401 102.251 24.3323 114.083C22.5808 125.547 25.744 140.975 35.9837 146.398C48.053 152.789 63.3546 136.709 76.1364 141.516C87.2212 145.684 87.2162 175.595 97.3589 169.478C111.572 160.905 92.9885 125.897 109.037 121.673C129.825 116.201 144.75 158.053 165.257 151.606C179.899 147.002 145.398 124.133 148.84 109.16C152.293 94.1429 191.439 90.3215 182.176 78.0148C170.348 62.3007 140.701 86.4854 123.985 76.1377C114.196 70.078 131.483 50.7617 124.004 42.004Z" stroke="#2714FF" stroke-opacity="0.94" stroke-width="0.495109"/>
<path d="M124.397 40.9456C118.402 33.9259 106.077 46.5908 97.235 43.9584C83.5404 39.8816 74.2594 16.7581 60.9941 22.0707C48.28 27.1627 56.1773 48.5686 52.6484 61.815C50.4794 69.9566 48.3117 77.9572 44.1538 85.2834C38.1329 95.8924 24.634 102.362 22.7911 114.424C21.0056 126.11 24.2302 141.838 34.6686 147.366C46.9722 153.881 62.5707 137.489 75.6006 142.389C86.9006 146.639 86.8955 177.13 97.235 170.894C111.724 162.155 92.7799 126.467 109.139 122.161C130.331 116.583 145.546 159.247 166.451 152.675C181.377 147.982 146.206 124.669 149.715 109.405C153.235 94.0966 193.141 90.201 183.698 77.6554C171.641 61.6363 141.419 86.2905 124.378 75.7418C114.399 69.5645 132.021 49.8733 124.397 40.9456Z" stroke="#2714FF" stroke-opacity="0.94" stroke-width="0.495109"/>
<path d="M124.79 39.8872C118.681 32.7338 106.122 45.6398 97.1114 42.9574C83.156 38.8029 73.6984 15.2391 60.1805 20.6529C47.2243 25.8418 55.272 47.6553 51.6759 61.154C49.4656 69.4506 47.2566 77.6036 43.0196 85.0693C36.884 95.8803 23.1281 102.473 21.2502 114.765C19.4307 126.674 22.7167 142.701 33.3538 148.334C45.8917 154.973 61.7871 138.269 75.0651 143.262C86.5802 147.593 86.575 178.664 97.1114 172.31C111.877 163.404 92.5714 127.037 109.242 122.649C130.838 116.965 146.342 160.441 167.645 153.744C182.856 148.962 147.015 125.205 150.591 109.65C154.177 94.0503 194.843 90.0805 185.221 77.296C172.934 60.9719 142.136 86.0955 124.771 75.346C114.602 69.051 132.56 48.9849 124.79 39.8872Z" stroke="#2714FF" stroke-opacity="0.94" stroke-width="0.495109"/>
<path d="M125.184 38.8295C118.96 31.5424 106.167 44.6896 96.9875 41.957C82.7714 37.7249 73.1371 13.7208 59.3667 19.2358C46.1684 24.5216 54.3665 46.7427 50.7032 60.4937C48.4516 68.9454 46.2013 77.2506 41.8852 84.8558C35.635 95.8688 21.622 102.585 19.709 115.106C17.8555 127.238 21.2029 143.564 32.0387 149.302C44.8109 156.066 61.0033 139.05 74.5294 144.136C86.2596 148.548 86.2543 180.2 96.9875 173.726C112.029 164.655 92.3627 127.608 109.345 123.138C131.344 117.348 147.138 161.636 168.839 154.814C184.334 149.942 147.823 125.741 151.466 109.896C155.12 94.0046 196.545 89.9607 186.743 76.9373C174.227 60.3081 142.853 85.9012 125.164 74.9509C114.805 68.5383 133.098 48.0971 125.184 38.8295Z" stroke="#2714FF" stroke-opacity="0.94" stroke-width="0.495109"/>
<path d="M125.577 37.7713C119.24 30.3506 106.212 43.7389 96.8642 40.9562C82.3873 36.6464 72.5763 12.202 58.5533 17.8182C45.113 23.201 53.4614 45.8297 49.7309 59.8329C47.438 68.4396 45.1465 76.8972 40.7512 84.6419C34.3863 95.8569 20.1164 102.696 18.1683 115.447C16.2808 127.801 19.6896 144.427 30.7242 150.271C43.7305 157.158 60.22 139.83 73.9941 145.01C85.9395 149.502 85.934 181.735 96.8642 175.143C112.181 165.904 92.1545 128.179 109.448 123.626C131.851 117.73 147.934 162.831 170.033 155.883C185.812 150.922 148.632 126.277 152.342 110.142C156.062 93.9586 198.248 89.8405 188.266 76.5781C175.52 59.6439 143.571 85.7065 125.558 74.5553C115.009 68.0251 133.637 47.209 125.577 37.7713Z" stroke="#2714FF" stroke-opacity="0.94" stroke-width="0.495109"/>
<path d="M125.971 36.714C119.519 29.1597 106.256 42.7892 96.7405 39.9564C82.0029 35.569 72.0152 10.6843 57.7397 16.4015C44.0573 21.8813 52.5561 44.9176 48.7584 59.1731C46.4242 67.9348 44.0915 76.5448 39.617 84.429C33.1375 95.846 18.6105 102.809 16.6274 115.789C14.7059 128.366 18.176 145.291 29.4094 151.24C42.65 158.252 59.4364 140.611 73.4586 145.884C85.6191 150.457 85.6136 183.271 96.7405 176.56C112.333 167.155 91.9461 128.75 109.552 124.116C132.357 118.113 148.73 164.026 171.228 156.953C187.291 151.903 149.441 126.815 153.218 110.388C157.005 93.9134 199.95 89.7212 189.788 76.2199C176.813 58.9807 144.289 85.5127 125.951 74.1606C115.212 67.5128 134.176 46.3217 125.971 36.714Z" stroke="#2714FF" stroke-opacity="0.94" stroke-width="0.495109"/>
<path d="M126.364 35.6551C119.799 27.9671 106.301 41.8378 96.6169 38.9548C81.6186 34.4898 71.4541 9.16476 56.9261 14.9832C43.0016 20.5599 51.6508 44.0039 47.7859 58.5116C45.4104 67.4283 43.0364 76.1906 38.4827 84.2143C31.8886 95.8334 17.1047 102.919 15.0864 116.129C13.1309 128.928 16.6625 146.154 28.0946 152.207C41.5694 159.343 58.6528 141.391 72.923 146.757C85.2987 151.411 85.2931 184.805 96.6169 177.975C112.486 168.404 91.7376 129.319 109.655 124.603C132.864 118.494 149.526 165.22 172.422 158.022C188.769 152.883 150.25 127.35 154.093 110.633C157.948 93.8666 201.652 89.6002 191.311 75.86C178.106 58.3158 145.006 85.3173 126.344 73.7643C115.415 66.9988 134.714 45.4328 126.364 35.6551Z" stroke="#2714FF" stroke-opacity="0.94" stroke-width="0.495109"/>
<path d="M126.758 34.5979C120.078 26.7762 106.345 40.8881 96.493 37.955C81.234 33.4123 70.8929 7.64697 56.1123 13.5666C41.9457 19.2403 50.7452 43.0918 46.8132 57.8517C44.3964 66.9235 41.9811 75.8382 37.3483 84.0014C30.6395 95.8225 15.5986 103.032 13.5452 116.471C11.5558 129.493 15.1487 147.017 26.7795 153.177C40.4886 160.436 57.8689 142.172 72.3873 147.632C84.9781 152.366 84.9724 186.341 96.493 179.393C112.638 169.655 91.5289 129.891 109.757 125.093C133.37 118.877 150.322 166.415 173.616 159.092C190.247 153.864 151.058 127.887 154.968 110.879C158.89 93.8215 203.354 89.4809 192.833 75.5019C179.399 57.6526 145.724 85.1235 126.737 73.3697C115.618 66.4866 135.253 44.5456 126.758 34.5979Z" stroke="#2714FF" stroke-opacity="0.94" stroke-width="0.495109"/>
<path d="M127.151 33.539C120.357 25.5836 106.39 39.9366 96.3692 36.9534C80.8494 32.3331 70.3316 6.12747 55.2984 12.1483C40.8898 17.9189 49.8397 42.178 45.8404 57.1902C43.3824 66.417 40.9258 75.484 36.2138 83.7867C29.3904 95.8098 14.0925 103.142 12.004 116.811C9.98058 130.056 13.6349 147.88 25.4644 154.144C39.4078 161.528 57.0851 142.951 71.8515 148.504C84.6575 153.32 84.6516 187.875 96.3692 180.808C112.79 170.904 91.3203 130.46 109.86 125.58C133.876 119.259 151.118 167.609 174.81 160.161C191.725 154.843 151.867 128.422 155.844 111.124C159.832 93.7747 205.056 89.3598 194.355 75.1419C180.691 56.9876 146.441 84.928 127.13 72.9733C115.821 65.9726 135.791 43.6567 127.151 33.539Z" stroke="#2714FF" stroke-opacity="0.94" stroke-width="0.495109"/>
<path d="M127.544 32.4813C120.636 24.3923 106.435 38.9864 96.2455 35.9531C80.465 31.2552 69.7705 4.6092 54.4848 10.7311C39.8342 16.5987 48.9344 41.2655 44.8679 56.5299C42.3686 65.9117 39.8707 75.1311 35.0796 83.5733C28.1416 95.7984 12.5866 103.254 10.4631 117.153C8.40565 130.62 12.1214 148.743 24.1496 155.113C38.3272 162.621 56.3015 143.732 71.316 149.378C84.3371 154.275 84.3312 189.411 96.2455 182.225C112.942 172.155 91.1118 131.031 109.963 126.069C134.383 119.641 151.914 168.804 176.004 161.231C193.204 155.823 152.675 128.959 156.719 111.369C160.775 93.729 206.759 89.24 195.878 74.7833C181.984 56.3239 147.159 84.7337 127.523 72.5782C116.024 65.4599 136.33 42.769 127.544 32.4813Z" stroke="#2714FF" stroke-opacity="0.94" stroke-width="0.495109"/>
<path d="M127.938 31.4233C120.916 23.2007 106.48 38.036 96.1222 34.9525C80.0809 30.177 69.2097 3.09067 53.6714 9.31378C38.7787 15.2783 48.0293 40.3527 43.8957 55.8693C41.355 65.4062 38.8159 74.7779 33.9456 83.3596C26.893 95.7868 11.081 103.365 8.9224 117.494C6.83095 131.183 10.6081 149.606 22.8351 156.081C37.2469 163.713 55.5182 144.512 70.7807 150.252C84.0169 155.23 84.0109 190.946 96.1222 183.641C113.094 173.405 90.9036 131.602 110.066 126.557C134.889 120.023 152.711 169.999 177.198 162.3C194.682 156.803 153.484 129.495 157.595 111.615C161.717 93.6832 208.461 89.12 197.401 74.4243C183.278 55.66 147.876 84.5393 127.916 72.1828C116.228 64.9469 136.869 41.881 127.938 31.4233Z" stroke="#2714FF" stroke-opacity="0.94" stroke-width="0.495109"/>
<path d="M128.331 30.3651C121.195 22.0088 106.524 37.0853 95.9983 33.9517C79.6963 29.0985 68.6484 1.57191 52.8576 7.89618C37.7228 13.9577 47.1237 39.4397 42.9229 55.2085C40.341 64.9004 37.7606 74.4245 32.8111 83.1457C25.6439 95.7748 9.5749 103.477 7.38122 117.835C5.25577 131.747 9.09429 150.469 21.52 157.05C36.1661 164.806 54.7343 145.293 70.245 151.126C83.6963 156.184 83.6902 192.481 95.9983 185.058C113.246 174.655 90.6949 132.172 110.169 127.046C135.396 120.406 153.506 171.193 178.392 163.37C196.16 157.783 154.293 130.031 158.47 111.861C162.66 93.6371 210.163 88.9997 198.923 74.0652C184.57 54.9958 148.594 84.3445 128.309 71.7872C116.43 64.4336 137.407 40.9928 128.331 30.3651Z" stroke="#2714FF" stroke-opacity="0.94" stroke-width="0.495109"/>
<path d="M128.724 29.3077C121.474 20.8177 106.568 36.1353 95.8742 32.9516C79.3115 28.0208 68.0869 0.0538774 52.0435 6.47931C36.6667 12.6378 46.2179 38.5274 41.9499 54.5485C39.3267 64.3954 36.705 74.0718 31.6764 82.9325C24.3945 95.7637 8.06855 103.589 5.83979 118.177C3.68035 132.311 7.58026 151.333 20.2047 158.019C35.085 165.899 53.9503 146.074 69.709 152C83.3755 157.139 83.3692 194.017 95.8742 186.475C113.398 175.905 90.486 132.743 110.272 127.535C135.902 120.788 154.302 172.388 179.586 164.44C197.638 158.764 155.101 130.568 159.345 112.107C163.602 93.5917 211.865 88.8802 200.445 73.7067C185.863 54.3323 149.311 84.1505 128.702 71.3924C116.633 63.9211 137.945 40.1054 128.724 29.3077Z" stroke="#2714FF" stroke-opacity="0.94" stroke-width="0.495109"/>
<path d="M129.118 28.2497C121.754 19.6261 106.614 35.1849 95.751 31.951C78.9276 26.9426 67.5263 -1.46464 51.2304 5.06195C35.6115 11.3174 45.3131 37.6146 40.9779 53.8879C38.3134 63.8899 35.6505 73.7186 30.5427 82.7189C23.1462 95.752 6.56318 103.7 4.29933 118.518C2.1059 132.875 6.0672 152.196 18.8904 158.987C34.005 166.991 53.1672 146.854 69.174 152.873C83.0556 158.094 83.0493 195.552 95.751 187.891C113.551 177.155 90.278 133.313 110.375 128.023C136.409 121.171 155.099 173.583 180.78 165.509C199.117 159.744 155.91 131.104 160.221 112.352C164.545 93.5459 213.568 88.7602 201.968 73.3478C187.156 53.6683 150.029 83.956 129.096 70.997C116.837 63.4081 138.484 39.2174 129.118 28.2497Z" stroke="#2714FF" stroke-opacity="0.94" stroke-width="0.495109"/>
<path d="M129.512 27.1913C122.033 18.434 106.658 34.2339 95.6272 30.95C78.543 25.8639 66.965 -2.98365 50.4165 3.6441C34.5556 9.9965 44.4076 36.7013 40.0052 53.2269C37.2994 63.3839 34.5952 73.3649 29.4082 82.5047C21.8971 95.7399 5.05708 103.811 2.75814 118.859C0.530719 133.438 4.55342 153.059 17.5753 159.955C32.9241 168.083 52.3833 147.634 68.6382 153.747C82.7349 159.048 82.7285 197.087 95.6272 189.307C113.703 178.405 90.0693 133.884 110.478 128.511C136.915 121.553 155.895 174.777 181.974 166.578C200.595 160.724 156.719 131.64 161.097 112.598C165.487 93.4995 215.27 88.6396 203.49 72.9884C188.449 53.0039 150.746 83.761 129.488 70.6012C117.04 62.8947 139.023 38.329 129.512 27.1913Z" stroke="#2714FF" stroke-opacity="0.94" stroke-width="0.495109"/>
</svg>
