<svg width="325" height="449" viewBox="0 0 325 449" fill="none" xmlns="http://www.w3.org/2000/svg">
<path fill-rule="evenodd" clip-rule="evenodd" d="M199.31 237.391C195.385 236.239 188.45 239.003 187.392 235.04C186.17 230.463 193.997 227.983 195.601 223.492C196.449 221.114 193.465 218.63 194.12 216.193C194.769 213.777 197.405 212.517 199.055 210.631C200.782 208.657 201.737 205.774 204.139 204.741C206.537 203.71 209.628 206.542 211.834 205.138C217.853 201.307 220.499 187.292 226.914 190.244C233.257 193.162 221.317 204.819 224.581 211.003C226.973 215.536 235.203 211.259 239.482 214.06C244.323 217.228 252.799 222.501 249.999 227.642C246.458 234.141 232.743 227.126 228.913 233.461C224.983 239.962 237.689 249.308 233.194 255.434C229.615 260.311 221.191 254.007 215.961 251.113C211.783 248.802 210.115 243.664 206.432 240.628C204.399 238.952 201.842 238.134 199.31 237.391Z" stroke="#1F10FF" stroke-width="0.495109"/>
<path fill-rule="evenodd" clip-rule="evenodd" d="M96.5858 294.516C75.002 288.175 36.8757 303.353 31.0509 281.565C24.3235 256.399 67.3516 242.786 76.1572 218.098C80.8188 205.029 64.4065 191.367 68 177.974C71.5626 164.695 86.0547 157.773 95.1235 147.408C104.611 136.565 109.855 120.715 123.06 115.044C136.246 109.382 153.246 124.956 165.371 117.242C198.456 96.1942 212.974 19.1578 248.253 35.399C283.137 51.4579 217.514 115.511 235.47 149.513C248.631 174.433 293.875 150.941 317.41 166.349C344.031 183.778 390.648 212.778 375.261 241.033C355.806 276.755 280.387 238.161 259.34 272.976C237.743 308.703 307.628 360.109 282.928 393.773C263.261 420.577 216.928 385.902 188.164 369.984C165.187 357.268 156.008 329.02 135.748 312.323C124.566 303.109 110.509 298.606 96.5858 294.516Z" stroke="#1F10FF" stroke-width="0.495109"/>
<path d="M184.327 235.953C185.478 240.265 193.025 237.258 197.297 238.512C200.052 239.32 202.834 240.211 205.046 242.034C209.055 245.338 210.87 250.929 215.416 253.444C221.108 256.593 230.276 263.454 234.17 258.147C239.061 251.481 225.233 241.31 229.51 234.236C233.678 227.343 248.602 234.977 252.455 227.905C255.503 222.31 246.278 216.573 241.011 213.125C236.354 210.076 227.398 214.73 224.795 209.798C221.243 203.068 234.236 190.384 227.333 187.208C220.352 183.995 217.473 199.246 210.923 203.415C208.523 204.943 205.16 201.861 202.549 202.983C199.936 204.106 198.897 207.244 197.018 209.391C195.222 211.444 192.354 212.815 191.648 215.444C190.935 218.095 194.183 220.799 193.259 223.386C191.515 228.274 182.998 230.972 184.327 235.953Z" stroke="#1F10FF" stroke-width="0.495109"/>
<path d="M181.26 236.865C182.504 241.527 190.663 238.276 195.281 239.632C198.259 240.506 201.266 241.469 203.658 243.44C207.992 247.011 209.954 253.056 214.869 255.775C221.022 259.18 230.933 266.597 235.143 260.859C240.43 253.654 225.481 242.658 230.105 235.011C234.61 227.559 250.744 235.813 254.909 228.167C258.204 222.12 248.231 215.917 242.537 212.189C237.502 208.894 227.82 213.924 225.006 208.592C221.167 201.317 235.212 187.606 227.749 184.172C220.202 180.699 217.091 197.185 210.01 201.692C207.415 203.343 203.779 200.011 200.958 201.224C198.132 202.439 197.009 205.831 194.978 208.152C193.037 210.371 189.936 211.853 189.173 214.695C188.403 217.561 191.913 220.483 190.915 223.28C189.029 228.564 179.822 231.48 181.26 236.865Z" stroke="#1F10FF" stroke-width="0.495109"/>
<path d="M178.196 237.776C179.535 242.788 188.305 239.294 193.269 240.751C196.471 241.691 199.703 242.726 202.275 244.845C206.933 248.684 209.043 255.181 214.326 258.105C220.941 261.765 231.595 269.738 236.121 263.571C241.804 255.825 225.734 244.005 230.704 235.785C235.547 227.774 252.891 236.647 257.368 228.429C260.909 221.928 250.189 215.26 244.067 211.253C238.655 207.71 228.247 213.117 225.222 207.386C221.095 199.565 236.192 184.826 228.17 181.134C220.057 177.401 216.713 195.123 209.101 199.967C206.312 201.742 202.403 198.161 199.37 199.464C196.333 200.77 195.125 204.416 192.942 206.911C190.856 209.296 187.522 210.889 186.702 213.944C185.874 217.025 189.648 220.167 188.575 223.174C186.548 228.853 176.651 231.988 178.196 237.776Z" stroke="#1F10FF" stroke-width="0.495109"/>
<path d="M175.13 238.689C176.562 244.051 185.944 240.313 191.254 241.872C194.679 242.878 198.137 243.985 200.888 246.251C205.872 250.359 208.128 257.309 213.781 260.437C220.857 264.352 232.254 272.881 237.095 266.284C243.175 257.999 225.984 245.353 231.3 236.561C236.48 227.992 255.034 237.484 259.823 228.692C263.611 221.738 252.143 214.605 245.595 210.318C239.805 206.528 228.672 212.312 225.435 206.181C221.019 197.815 237.17 182.049 228.588 178.099C219.909 174.105 216.332 193.063 208.19 198.245C205.206 200.144 201.025 196.312 197.78 197.707C194.53 199.103 193.239 203.003 190.904 205.673C188.672 208.224 185.106 209.928 184.228 213.196C183.343 216.492 187.38 219.853 186.233 223.069C184.064 229.145 173.477 232.497 175.13 238.689Z" stroke="#1F10FF" stroke-width="0.495109"/>
<path d="M172.064 239.601C173.589 245.312 183.582 241.33 189.239 242.991C192.888 244.062 196.571 245.242 199.501 247.656C204.81 252.031 207.214 259.435 213.235 262.767C220.773 266.937 232.913 276.023 238.069 268.996C244.545 260.17 226.233 246.7 231.896 237.334C237.414 228.207 257.177 238.319 262.279 228.954C266.313 221.547 254.097 213.948 247.122 209.382C240.955 205.345 229.095 211.505 225.648 204.974C220.944 196.063 238.147 179.269 229.006 175.062C219.76 170.807 215.95 191.001 207.278 196.52C204.1 198.543 199.645 194.462 196.189 195.947C192.728 197.434 191.353 201.589 188.865 204.432C186.488 207.149 182.689 208.965 181.755 212.446C180.812 215.956 185.112 219.536 183.89 222.962C181.58 229.434 170.302 233.005 172.064 239.601Z" stroke="#1F10FF" stroke-width="0.495109"/>
<path d="M168.998 240.514C170.617 246.574 181.222 242.35 187.224 244.112C191.096 245.249 195.006 246.501 198.115 249.063C203.749 253.706 206.3 261.563 212.689 265.098C220.689 269.524 233.573 279.167 239.044 271.709C245.916 262.344 226.483 248.049 232.492 238.11C238.348 228.425 259.321 239.155 264.734 229.218C269.016 221.357 256.052 213.294 248.649 208.447C242.105 204.163 229.52 210.7 225.861 203.77C220.869 194.313 239.125 176.492 229.424 172.027C219.612 167.512 215.57 188.941 206.366 194.798C202.994 196.944 198.267 192.613 194.599 194.189C190.926 195.767 189.466 200.176 186.827 203.193C184.304 206.077 180.273 208.003 179.281 211.697C178.281 215.423 182.845 219.222 181.547 222.858C179.097 229.725 167.129 233.515 168.998 240.514Z" stroke="#1F10FF" stroke-width="0.495109"/>
<path d="M165.933 241.427C167.645 247.837 178.862 243.369 185.211 245.233C189.306 246.435 193.441 247.759 196.73 250.469C202.689 255.38 205.387 263.69 212.145 267.43C220.606 272.111 234.233 282.309 240.02 274.422C247.288 264.517 226.734 249.397 233.089 238.885C239.283 228.641 261.466 239.991 267.191 229.48C271.72 221.167 258.008 212.638 250.178 207.512C243.256 202.981 229.945 209.895 226.075 202.564C220.795 192.562 240.103 173.714 229.843 168.991C219.466 164.215 215.19 186.88 205.456 193.075C201.889 195.345 196.889 190.764 193.01 192.431C189.125 194.1 187.582 198.763 184.79 201.954C182.122 205.004 177.858 207.041 176.809 210.948C175.751 214.889 180.578 218.907 179.206 222.752C176.614 230.016 163.956 234.024 165.933 241.427Z" stroke="#1F10FF" stroke-width="0.495109"/>
<path d="M162.868 242.337C164.673 249.096 176.502 244.385 183.197 246.35C187.516 247.619 191.876 249.015 195.344 251.873C201.628 257.051 204.473 265.815 211.6 269.758C220.522 274.695 234.893 285.449 240.995 277.133C248.66 266.687 226.984 250.743 233.686 239.658C240.217 228.855 263.61 240.824 269.647 229.741C274.423 220.974 259.963 211.98 251.706 206.574C244.406 201.796 230.37 209.087 226.289 201.356C220.721 190.809 241.082 170.933 230.261 165.953C219.318 160.916 214.81 184.817 204.545 191.349C200.784 193.743 195.511 188.912 191.42 190.67C187.324 192.43 185.696 197.347 182.752 200.712C179.938 203.928 175.442 206.077 174.336 210.196C173.221 214.352 178.311 218.589 176.864 222.644C174.131 230.304 160.783 234.53 162.868 242.337Z" stroke="#1F10FF" stroke-width="0.495109"/>
<path d="M159.803 243.25C161.702 250.359 174.141 245.404 181.183 247.472C185.725 248.805 190.311 250.274 193.958 253.28C200.567 258.726 203.56 267.942 211.056 272.09C220.439 277.282 235.553 288.593 241.971 279.846C250.031 268.861 227.235 252.092 234.283 240.434C241.151 229.073 265.755 241.661 272.104 230.004C277.126 220.784 261.919 211.325 253.235 205.64C245.557 200.614 230.795 208.282 226.503 200.152C220.646 189.059 242.06 168.155 230.68 162.918C219.171 157.621 214.43 182.757 203.635 189.627C199.678 192.144 194.133 187.064 189.831 188.912C185.523 190.763 183.811 195.935 180.715 199.473C177.755 202.856 173.027 205.115 171.864 209.448C170.691 213.818 176.044 218.275 174.523 222.539C171.648 230.595 157.609 235.039 159.803 243.25Z" stroke="#1F10FF" stroke-width="0.495109"/>
<path d="M156.738 244.162C158.73 251.621 171.781 246.423 179.169 248.592C183.935 249.991 188.746 251.532 192.573 254.686C199.507 260.4 202.647 270.07 210.511 274.421C220.356 279.868 236.213 291.736 242.947 282.559C251.403 271.034 227.485 253.44 234.88 241.209C242.086 229.29 267.899 242.497 274.56 230.267C279.829 220.594 263.874 210.669 254.763 204.705C246.708 199.432 231.22 207.476 226.717 198.946C220.572 187.308 243.038 165.377 231.099 159.882C219.024 154.324 214.05 180.696 202.724 187.903C198.573 190.545 192.755 185.214 188.242 187.154C183.721 189.095 181.925 194.521 178.677 198.234C175.572 201.783 170.611 204.153 169.391 208.699C168.16 213.284 173.777 217.96 172.181 222.434C169.165 230.886 154.436 235.548 156.738 244.162Z" stroke="#1F10FF" stroke-width="0.495109"/>
<path d="M153.672 245.076C155.757 252.884 169.42 247.442 177.154 249.713C182.143 251.178 187.18 252.791 191.186 256.092C198.445 262.075 201.733 272.197 209.965 276.753C220.272 282.456 236.872 294.879 243.921 285.273C252.774 273.207 227.735 254.789 235.476 241.985C243.02 229.507 270.043 243.334 277.016 230.531C282.531 220.405 265.828 210.015 256.29 203.77C247.858 198.25 231.644 206.671 226.93 197.742C220.497 185.558 244.016 162.6 231.517 156.847C218.876 151.029 213.669 178.636 201.812 186.181C197.467 188.946 191.377 183.366 186.651 185.396C181.919 187.429 180.039 193.109 176.639 196.996C173.388 200.71 168.195 203.192 166.918 207.951C165.629 212.75 171.509 217.645 169.838 222.329C166.682 231.177 151.262 236.058 153.672 245.076Z" stroke="#1F10FF" stroke-width="0.495109"/>
<path d="M150.606 245.987C152.785 254.145 167.06 248.459 175.14 250.832C180.352 252.363 185.614 254.048 189.8 257.497C197.384 263.747 200.819 274.323 209.42 279.083C220.188 285.041 237.532 298.021 244.896 287.984C254.145 275.379 227.985 256.136 236.072 242.759C243.954 229.722 272.187 244.168 279.472 230.793C285.234 220.213 267.783 209.358 257.818 202.834C249.008 197.066 232.069 205.864 227.143 196.535C220.422 183.806 244.994 159.82 231.935 153.81C218.728 147.731 213.289 176.574 200.901 184.457C196.361 187.345 189.998 181.515 185.061 183.636C180.117 185.76 178.153 191.694 174.601 195.755C171.205 199.636 165.779 202.229 164.445 207.2C163.098 212.215 169.242 217.329 167.496 222.223C164.198 231.466 148.089 236.566 150.606 245.987Z" stroke="#1F10FF" stroke-width="0.495109"/>
<path d="M147.541 246.899C149.814 255.406 164.7 249.477 173.126 251.952C178.562 253.548 184.05 255.306 188.415 258.903C196.324 265.421 199.906 276.45 208.876 281.413C220.105 287.627 238.192 301.163 245.872 290.696C255.517 277.551 228.236 257.483 236.67 243.533C244.888 229.938 274.331 245.003 281.929 231.055C287.938 220.022 269.739 208.701 259.347 201.898C250.159 195.883 232.494 205.058 227.357 195.329C220.348 182.054 245.972 157.041 232.354 150.773C218.581 144.434 212.909 174.513 199.991 182.733C195.256 185.745 188.621 179.665 183.472 181.877C178.316 184.092 176.268 190.28 172.563 194.515C169.022 198.562 163.364 201.266 161.972 206.451C160.568 211.68 166.975 217.013 165.155 222.116C161.715 231.756 144.916 237.074 147.541 246.899Z" stroke="#1F10FF" stroke-width="0.495109"/>
<path d="M144.476 247.812C146.842 256.668 162.34 250.496 171.113 253.072C176.772 254.734 182.485 256.564 187.029 260.309C195.263 267.095 198.993 278.577 208.331 283.744C220.022 290.213 238.853 304.306 246.848 293.409C256.889 279.724 228.487 258.832 237.267 244.308C245.823 230.155 276.476 245.839 284.385 231.318C290.641 219.832 271.695 208.046 260.875 200.963C251.31 194.701 232.919 204.252 227.571 194.124C220.274 180.303 246.951 154.263 232.773 147.737C218.434 141.137 212.529 172.452 199.08 181.01C194.152 184.146 187.243 177.816 181.883 180.119C176.515 182.424 174.383 188.867 170.526 193.276C166.839 197.489 160.949 200.304 159.5 205.701C158.039 211.146 164.709 216.698 162.813 222.011C159.233 232.047 141.743 237.583 144.476 247.812Z" stroke="#1F10FF" stroke-width="0.495109"/>
<path d="M141.409 248.724C143.869 257.93 159.978 251.514 169.097 254.193C174.979 255.92 180.918 257.822 185.642 261.715C194.201 268.768 198.078 280.704 207.785 286.075C219.937 292.8 239.511 307.448 247.821 296.122C258.259 281.897 228.735 260.18 237.862 245.083C246.756 230.372 278.618 246.675 286.84 231.58C293.343 219.641 273.648 207.39 262.402 200.027C252.459 193.518 233.342 203.447 227.783 192.918C220.198 178.552 247.927 151.485 233.19 144.701C218.285 137.841 212.147 170.391 198.168 179.286C193.044 182.546 185.863 175.967 180.291 178.36C174.712 180.756 172.496 187.454 168.487 192.036C164.655 196.416 158.531 199.341 157.025 204.952C155.506 210.611 162.44 216.383 160.47 221.905C156.748 232.337 138.568 238.091 141.409 248.724Z" stroke="#1F10FF" stroke-width="0.495109"/>
<path d="M138.344 249.636C140.897 259.192 157.618 252.533 167.083 255.313C173.189 257.106 179.353 259.08 184.256 263.121C193.141 270.442 197.165 282.831 207.24 288.406C219.854 295.386 240.171 310.591 248.797 298.835C259.631 284.07 228.986 261.528 238.459 245.858C247.69 230.588 280.763 247.511 289.297 231.843C296.046 219.451 275.604 206.734 263.93 199.092C253.61 192.336 233.767 202.641 227.997 191.713C220.124 176.802 248.906 148.706 233.609 141.665C218.138 134.544 211.767 168.331 197.257 177.563C191.939 180.947 184.485 174.117 178.702 176.601C172.911 179.089 170.611 186.04 166.449 190.797C162.472 195.343 156.116 198.379 154.553 204.203C152.976 210.077 160.173 216.068 158.128 221.8C154.265 232.628 135.395 238.6 138.344 249.636Z" stroke="#1F10FF" stroke-width="0.495109"/>
<path d="M135.278 250.55C137.925 260.455 155.257 253.552 165.068 256.434C171.398 258.293 177.787 260.339 182.87 264.528C192.079 272.117 196.25 284.959 206.695 290.738C219.77 297.973 240.83 313.735 249.772 301.548C261.001 286.243 229.236 262.877 239.055 246.634C248.624 230.806 282.907 248.347 291.752 232.107C298.748 219.261 277.558 206.08 265.458 198.158C254.76 191.154 234.192 201.836 228.21 190.508C220.049 175.051 249.883 145.929 234.027 138.63C217.99 131.249 211.387 166.271 196.346 175.841C190.833 179.348 183.107 172.269 177.112 174.844C171.109 177.422 168.724 184.628 164.411 189.558C160.288 194.271 153.7 197.418 152.079 203.455C150.445 209.544 157.905 215.754 155.786 221.695C151.782 232.919 132.221 239.11 135.278 250.55Z" stroke="#1F10FF" stroke-width="0.495109"/>
<path d="M132.214 251.461C134.954 261.715 152.898 254.569 163.056 257.553C169.609 259.477 176.224 261.596 181.486 265.932C191.02 273.789 195.338 287.084 206.151 293.068C219.688 300.558 241.492 316.876 250.749 304.259C262.375 288.414 229.488 264.223 239.653 247.408C249.56 231.021 285.052 249.182 294.21 232.368C301.453 219.069 279.515 205.422 266.988 197.221C255.912 189.97 234.618 201.029 228.426 189.301C219.976 173.299 250.863 143.149 234.447 135.593C217.844 127.95 211.008 164.208 195.436 174.116C189.73 177.747 181.73 170.418 175.524 173.084C169.309 175.753 166.841 183.213 162.375 188.317C158.106 193.196 151.286 196.454 149.608 202.704C147.916 209.008 155.64 215.437 153.445 221.588C149.3 233.208 129.049 239.617 132.214 251.461Z" stroke="#1F10FF" stroke-width="0.495109"/>
<path d="M129.148 252.372C131.982 262.976 150.538 255.587 161.041 258.672C167.817 260.663 174.658 262.853 180.099 267.337C189.959 275.462 194.424 289.21 205.606 295.398C219.604 303.144 242.151 320.018 251.723 306.971C263.746 290.586 229.738 265.57 240.25 248.182C250.494 231.236 287.196 250.017 296.666 232.63C304.156 218.878 281.47 204.766 268.515 196.285C257.062 188.787 235.042 200.222 228.639 188.095C219.901 171.547 251.841 140.37 234.865 132.556C217.696 124.653 210.627 162.147 194.525 172.392C188.624 176.147 180.351 168.568 173.934 171.324C167.507 174.085 164.954 181.799 160.337 187.077C155.923 192.122 148.869 195.491 147.135 201.954C145.386 208.473 153.372 215.121 151.103 221.482C146.816 233.497 125.875 240.125 129.148 252.372Z" stroke="#1F10FF" stroke-width="0.495109"/>
<path d="M126.082 253.286C129.009 264.239 148.177 256.607 159.027 259.793C166.026 261.849 173.092 264.112 178.713 268.744C188.897 277.137 193.51 291.338 205.06 297.73C219.52 305.731 242.81 323.161 252.698 309.685C265.116 292.76 229.987 266.919 240.846 248.958C251.427 231.454 289.34 250.853 299.121 232.894C306.858 218.688 283.424 204.111 270.043 195.35C258.212 187.605 235.466 199.417 228.852 186.89C219.826 169.797 252.818 137.593 235.283 129.521C217.548 121.357 210.246 160.087 193.613 170.67C187.518 174.548 178.973 166.719 172.343 169.566C165.705 172.418 163.068 180.386 158.298 185.838C153.739 191.049 146.453 194.53 144.661 201.206C142.854 207.939 151.104 214.807 148.76 221.377C144.333 233.789 122.701 240.634 126.082 253.286Z" stroke="#1F10FF" stroke-width="0.495109"/>
<path d="M123.016 254.197C126.036 265.5 145.815 257.624 157.012 260.913C164.234 263.034 171.526 265.369 177.326 270.149C187.835 278.81 192.596 293.464 204.514 300.06C219.435 308.316 243.469 326.303 253.672 312.397C266.487 294.932 230.236 268.266 241.441 249.732C252.361 231.669 291.483 251.688 301.576 233.155C309.56 218.497 285.378 203.454 271.57 194.414C259.361 186.422 235.89 198.611 229.064 185.683C219.751 168.045 253.796 134.813 235.7 126.484C217.4 118.06 209.865 158.025 192.701 168.945C186.411 172.947 177.593 164.869 170.753 167.807C163.903 170.749 161.182 178.972 156.259 184.598C151.554 189.975 144.036 193.567 142.188 200.455C140.323 207.404 148.836 214.49 146.417 221.27C141.848 234.078 119.527 241.142 123.016 254.197Z" stroke="#1F10FF" stroke-width="0.495109"/>
<path d="M119.95 255.11C123.064 266.763 143.455 258.643 154.997 262.034C162.443 264.221 169.96 266.628 175.94 271.556C186.774 280.485 191.682 295.592 203.969 302.391C219.352 310.904 244.128 329.446 254.647 315.11C267.858 297.105 230.487 269.615 242.038 250.507C253.295 231.887 293.627 252.525 304.032 233.419C312.263 218.307 287.333 202.799 273.098 193.479C260.512 185.24 236.315 197.806 229.278 184.479C219.676 166.295 254.773 132.036 236.119 123.449C217.252 114.764 209.485 155.965 191.79 167.223C185.306 171.349 176.215 163.02 169.163 166.049C162.101 169.082 159.296 177.559 154.221 183.359C149.371 188.903 141.62 192.605 139.715 199.707C137.792 206.87 146.569 214.176 144.075 221.166C139.365 234.369 116.353 241.652 119.95 255.11Z" stroke="#1F10FF" stroke-width="0.495109"/>
<path d="M116.884 256.024C120.092 268.026 141.094 259.663 152.983 263.155C160.652 265.408 168.395 267.887 174.554 272.963C185.713 282.159 190.768 297.72 203.424 304.723C219.268 313.491 244.788 332.59 255.622 317.824C269.229 299.279 230.736 270.964 242.634 251.283C254.229 232.104 295.771 253.361 306.488 233.683C314.965 218.118 289.288 202.145 274.625 192.545C261.662 184.058 236.739 197.001 229.491 183.274C219.601 164.545 255.751 129.258 236.537 120.414C217.104 111.469 209.104 153.905 190.879 165.501C184.2 169.75 174.836 161.172 167.573 164.292C160.299 167.416 157.41 176.147 152.183 182.121C147.187 187.831 139.204 191.644 137.241 198.959C135.261 206.337 144.301 213.862 141.733 221.061C136.881 234.661 113.18 242.162 116.884 256.024Z" stroke="#1F10FF" stroke-width="0.495109"/>
<path d="M113.82 256.934C117.121 269.285 138.734 260.679 150.969 264.273C158.862 266.591 166.83 269.143 173.168 274.367C184.653 283.831 189.855 299.844 202.88 307.052C219.185 316.075 245.448 335.73 256.598 320.534C270.601 301.449 230.987 272.31 243.232 252.056C255.164 232.318 297.915 254.195 308.945 233.943C317.669 217.925 291.244 201.487 276.154 191.607C262.813 182.873 237.165 196.193 229.705 182.066C219.527 162.792 256.73 126.478 236.956 117.375C216.957 108.17 208.724 151.842 189.969 163.775C183.095 168.148 173.459 159.32 165.984 162.531C158.498 165.746 155.525 174.731 150.146 180.879C145.005 186.755 136.789 190.68 134.769 198.207C132.732 205.8 142.035 213.544 139.392 220.953C134.399 234.949 110.007 242.668 113.82 256.934Z" stroke="#1F10FF" stroke-width="0.495109"/>
<path d="M110.754 257.846C114.149 270.547 136.374 261.697 148.955 265.393C157.072 267.777 165.265 270.401 171.783 275.772C183.592 285.505 188.942 301.971 202.335 309.383C219.102 318.661 246.108 338.873 257.574 323.247C271.973 303.622 231.238 273.658 243.829 252.831C256.098 232.535 300.06 255.03 311.402 234.206C320.372 217.734 293.199 200.831 277.682 190.672C263.964 181.691 237.59 195.387 229.919 180.861C219.453 161.041 257.708 123.699 237.375 114.339C216.81 104.873 208.344 149.781 189.058 162.052C181.99 166.549 172.081 157.47 164.394 160.772C156.697 164.078 153.639 173.318 148.108 179.639C142.822 185.682 134.374 189.717 132.297 197.458C130.201 205.265 139.768 213.229 137.05 220.847C131.916 235.239 106.834 243.177 110.754 257.846Z" stroke="#1F10FF" stroke-width="0.495109"/>
<path d="M107.689 258.759C111.177 271.81 134.014 262.717 146.941 266.514C155.281 268.964 163.7 271.66 170.397 277.179C182.531 287.179 188.028 304.099 201.79 311.715C219.018 321.248 246.768 342.016 258.549 325.96C273.344 305.796 231.488 275.007 244.425 253.607C257.032 232.752 302.204 255.867 313.858 234.469C323.075 217.545 295.155 200.176 279.21 189.738C265.114 180.509 238.014 194.582 230.133 179.656C219.379 159.291 258.686 120.922 237.793 111.304C216.663 101.577 207.964 147.721 188.147 160.329C180.884 164.95 170.703 155.622 162.805 159.014C154.895 162.411 151.754 171.905 146.071 178.401C140.639 184.609 131.958 188.756 129.824 196.71C127.671 204.732 137.501 212.915 134.708 220.743C129.433 235.53 103.661 243.686 107.689 258.759Z" stroke="#1F10FF" stroke-width="0.495109"/>
<path d="M104.623 259.671C108.205 273.072 131.653 263.735 144.927 267.634C153.49 270.149 162.134 272.918 169.011 278.585C181.47 288.853 187.114 306.226 201.245 314.045C218.935 323.834 247.428 345.159 259.524 328.673C274.715 307.968 231.738 276.354 245.022 254.381C257.967 232.968 304.348 256.702 316.314 234.732C325.778 217.354 297.109 199.52 280.738 188.802C266.265 179.326 238.439 193.776 230.346 178.45C219.304 157.539 259.664 118.143 238.211 108.268C216.515 98.2803 207.584 145.659 187.236 158.606C179.779 163.35 169.325 153.772 161.215 157.255C153.094 160.743 149.868 170.491 144.033 177.161C138.455 183.536 129.542 187.793 127.351 195.96C125.14 204.197 135.233 212.599 132.366 220.637C126.95 235.821 100.487 244.195 104.623 259.671Z" stroke="#1F10FF" stroke-width="0.495109"/>
<path d="M101.558 260.582C105.233 274.332 129.293 264.752 142.913 268.753C151.699 271.334 160.569 274.174 167.625 279.989C180.41 290.525 186.201 308.351 200.7 316.375C218.851 326.419 248.088 348.299 260.499 331.384C276.087 310.139 231.989 277.701 245.619 255.155C258.901 233.183 306.492 257.536 318.77 234.993C328.481 217.162 299.065 198.862 282.266 187.865C267.415 178.142 238.864 192.968 230.56 177.243C219.229 155.787 260.643 115.363 238.63 105.23C216.368 94.9819 207.204 143.597 186.325 156.88C178.673 161.749 167.947 151.921 159.625 155.495C151.292 159.074 147.983 169.076 141.995 175.92C136.272 182.461 127.126 186.829 124.878 195.209C122.61 203.661 132.966 212.282 130.024 220.53C124.467 236.109 97.3136 244.702 101.558 260.582Z" stroke="#1F10FF" stroke-width="0.495109"/>
<path d="M98.4929 261.495C102.261 275.594 126.933 265.771 140.899 269.874C149.909 272.52 159.004 275.433 166.239 281.396C179.349 292.199 185.288 310.479 200.155 318.706C218.768 329.006 248.748 351.443 261.475 334.097C277.459 312.312 232.239 279.049 246.216 255.93C259.835 233.4 308.637 258.373 321.227 235.256C331.185 216.972 301.02 198.207 283.795 186.93C268.566 176.96 239.289 192.163 230.774 176.038C219.155 154.036 261.621 112.585 239.049 102.195C216.22 91.686 206.824 141.537 185.414 155.158C177.568 160.15 166.569 150.072 158.036 153.737C149.491 157.407 146.097 167.663 139.957 174.681C134.089 181.388 124.711 185.868 122.405 194.46C120.08 203.127 130.699 211.967 127.682 220.425C121.984 236.4 94.1405 245.211 98.4929 261.495Z" stroke="#1F10FF" stroke-width="0.495109"/>
<path d="M95.4274 262.407C99.2893 276.856 124.572 266.789 138.885 270.993C148.118 273.706 157.439 276.691 164.854 282.801C178.288 293.873 184.374 312.605 199.61 321.037C218.684 331.592 249.408 354.585 262.45 336.81C278.83 314.485 232.49 280.397 246.812 256.705C260.77 233.617 310.781 259.208 323.683 235.519C333.888 216.781 302.975 197.551 285.323 185.994C269.717 175.777 239.714 191.357 230.987 174.832C219.081 152.285 262.599 109.806 239.467 99.1582C216.073 88.3891 206.443 139.475 184.503 153.434C176.463 158.55 165.19 148.222 156.446 151.978C147.69 155.739 144.212 166.25 137.92 173.441C131.906 180.315 122.295 184.905 119.932 193.711C117.549 202.593 128.432 211.652 125.34 220.319C119.5 236.69 90.9671 245.719 95.4274 262.407Z" stroke="#1F10FF" stroke-width="0.495109"/>
<path d="M92.3608 263.32C96.3162 278.118 122.211 267.808 136.87 272.114C146.326 274.892 155.872 277.949 163.467 284.208C177.226 295.547 183.459 314.733 199.064 323.368C218.6 334.179 250.066 357.728 263.424 339.523C280.2 316.658 232.739 281.746 247.408 257.48C261.703 233.834 312.924 260.044 326.138 235.782C336.589 216.591 304.929 196.896 286.85 185.06C270.866 174.595 240.137 190.552 231.2 173.627C219.005 150.534 263.576 107.029 239.885 96.1226C215.924 85.0929 206.062 137.415 183.591 151.711C175.356 156.951 163.811 146.373 154.855 150.22C145.887 154.071 142.325 164.837 135.881 172.202C129.721 179.242 119.878 183.943 117.458 192.962C115.017 202.059 126.164 211.337 122.997 220.214C117.016 236.981 87.7925 246.228 92.3608 263.32Z" stroke="#1F10FF" stroke-width="0.495109"/>
<path d="M89.2947 264.233C93.3435 279.381 119.85 268.827 134.855 273.235C144.534 276.079 154.306 279.208 162.08 285.615C176.165 297.222 182.545 316.86 198.519 325.7C218.516 336.766 250.725 360.872 264.399 342.236C281.571 318.832 232.988 283.094 248.004 258.256C262.636 234.051 315.067 260.881 328.593 236.045C339.292 216.402 306.884 196.241 288.377 184.125C272.016 173.413 240.561 189.747 231.413 172.422C218.93 148.784 264.553 104.251 240.302 93.0875C215.776 81.7972 205.681 135.355 182.679 149.989C174.25 155.352 162.432 144.525 153.265 148.462C144.085 152.405 140.438 163.424 133.842 170.963C127.537 178.169 117.462 182.982 114.985 192.214C112.486 201.525 123.896 211.023 120.655 220.109C114.532 237.272 84.6184 246.738 89.2947 264.233Z" stroke="#1F10FF" stroke-width="0.495109"/>
<path d="M86.2298 265.145C90.3721 280.642 117.49 269.845 132.841 274.355C142.744 277.264 152.742 280.466 160.695 287.02C175.104 298.895 181.632 318.987 197.974 328.03C218.433 339.352 251.386 364.014 265.374 344.948C282.943 321.004 233.239 284.442 248.601 259.03C263.571 234.267 317.212 261.716 331.05 236.308C341.995 216.211 308.839 195.585 289.906 183.189C273.167 172.23 240.986 188.941 231.627 171.216C218.856 147.033 265.532 101.472 240.721 90.0509C215.629 78.5001 205.301 133.294 181.769 148.265C173.145 153.752 161.055 142.675 151.676 146.703C142.284 150.736 138.553 162.01 131.805 169.723C125.355 177.096 115.047 182.019 112.513 191.464C109.956 200.99 121.629 210.707 118.313 220.003C112.05 237.562 81.4456 247.246 86.2298 265.145Z" stroke="#1F10FF" stroke-width="0.495109"/>
<path d="M83.1646 266.055C87.4004 281.902 115.13 270.861 130.827 275.473C140.954 278.447 151.177 281.722 159.309 288.423C174.044 300.566 180.719 321.111 197.43 330.359C218.349 341.936 252.046 367.154 266.35 347.659C284.315 323.174 233.49 285.787 249.198 259.803C264.506 234.481 319.356 262.549 333.507 236.568C344.699 216.018 310.795 194.927 291.434 182.251C274.318 171.045 241.411 188.132 231.841 170.008C218.782 145.279 266.51 98.6913 241.14 87.0125C215.482 75.201 204.921 131.23 180.858 146.539C172.04 152.15 159.677 140.823 150.086 144.942C140.482 149.066 136.668 160.594 129.767 168.481C123.171 176.02 112.631 181.055 110.04 190.712C107.426 200.453 119.362 210.389 115.972 219.895C109.567 237.85 78.2724 247.752 83.1646 266.055Z" stroke="#1F10FF" stroke-width="0.495109"/>
<path d="M80.099 266.969C84.4282 283.165 112.769 271.881 128.813 276.595C139.163 279.635 149.611 282.981 157.923 289.831C172.983 302.242 179.805 323.24 196.884 332.691C218.266 344.524 252.705 370.298 267.325 350.373C285.686 325.348 233.74 287.137 249.794 260.579C265.44 234.699 321.5 263.387 335.963 236.832C347.401 215.829 312.75 194.272 292.962 181.318C275.468 169.864 241.836 187.328 232.054 168.804C218.707 143.53 267.488 95.9146 241.558 83.9781C215.334 71.9061 204.541 129.171 179.947 144.818C170.934 150.552 158.298 138.975 148.496 143.185C138.681 147.4 134.782 159.182 127.729 167.243C120.988 174.948 110.215 180.094 107.567 189.965C104.895 199.921 117.095 210.076 113.63 219.791C107.083 238.142 75.0989 248.263 80.099 266.969Z" stroke="#1F10FF" stroke-width="0.495109"/>
<path d="M77.0341 267.881C81.4568 284.427 110.409 272.899 126.799 277.714C137.372 280.82 148.046 284.239 156.538 291.236C171.922 303.915 178.892 325.366 196.34 335.022C218.183 347.109 253.366 373.44 268.301 353.085C287.058 327.52 233.991 288.485 250.392 261.354C266.374 234.915 323.645 264.222 338.419 237.094C350.105 215.638 314.705 193.616 294.491 180.382C276.619 168.681 242.261 186.522 232.268 167.598C218.633 141.778 268.467 93.1356 241.977 80.9415C215.187 68.6089 204.161 127.11 179.037 143.094C169.829 148.952 156.921 137.125 146.907 141.426C136.88 145.732 132.897 157.768 125.692 166.003C118.805 173.874 107.8 179.131 105.095 189.215C102.365 199.386 114.828 209.76 111.288 219.684C104.601 238.432 71.926 248.771 77.0341 267.881Z" stroke="#1F10FF" stroke-width="0.495109"/>
<path d="M73.967 268.794C78.4831 285.689 108.047 273.919 124.784 278.835C135.58 282.007 146.48 285.498 155.15 292.643C170.86 305.589 177.977 327.494 195.793 337.353C218.097 349.696 254.024 376.583 269.274 355.798C288.428 329.694 234.239 289.833 250.987 262.13C267.307 235.132 325.788 265.058 340.874 237.358C352.806 215.448 316.659 192.961 296.017 179.447C277.768 167.499 242.684 185.717 232.48 166.393C218.557 140.028 269.443 90.3579 242.394 77.9061C215.038 65.3129 203.779 125.049 178.124 141.371C168.722 147.353 155.541 135.276 145.316 139.668C135.077 144.065 131.01 156.356 123.653 164.764C116.62 172.802 105.383 178.17 102.62 188.466C99.8332 198.852 112.559 209.445 108.944 219.579C102.116 238.723 68.7509 249.28 73.967 268.794Z" stroke="#1F10FF" stroke-width="0.495109"/>
<path d="M70.9021 269.706C75.5117 286.951 105.687 274.936 122.77 279.955C133.79 283.192 144.915 286.755 153.765 294.048C169.8 307.263 177.064 329.62 195.249 339.684C218.014 352.282 254.684 379.726 270.25 358.51C289.8 331.866 234.49 291.181 251.584 262.904C268.242 235.348 327.932 265.893 343.33 237.62C355.51 215.257 318.614 192.305 297.546 178.511C278.919 166.316 243.11 184.91 232.694 165.187C218.483 138.276 270.422 87.579 242.813 74.8695C214.891 62.0158 203.399 122.988 177.214 139.647C167.617 145.753 154.163 133.427 143.727 137.909C133.276 142.397 129.125 154.942 121.615 163.524C114.438 171.728 102.968 177.207 100.148 187.716C97.3033 198.317 110.293 209.129 106.603 219.473C99.6332 239.013 65.5781 249.788 70.9021 269.706Z" stroke="#1F10FF" stroke-width="0.495109"/>
<path d="M67.8384 270.617C72.5415 288.211 103.329 275.954 120.758 281.074C132.001 284.377 143.351 288.012 152.38 295.453C168.74 308.935 176.152 331.746 194.706 342.014C217.933 354.867 255.346 382.867 271.227 361.222C291.173 334.037 234.742 292.527 252.182 263.678C269.178 235.563 330.078 266.728 345.788 237.881C358.214 215.065 320.571 191.648 299.075 177.574C280.071 165.132 243.536 184.103 232.909 163.981C218.41 136.524 271.402 84.7994 243.234 71.8323C214.746 58.718 203.021 120.926 176.304 137.923C166.513 144.152 152.787 131.576 142.139 136.149C131.476 140.728 127.241 153.527 119.579 162.284C112.256 170.653 100.554 176.243 97.6765 186.966C94.7746 197.781 108.027 208.813 104.263 219.367C97.1518 239.302 62.4064 250.296 67.8384 270.617Z" stroke="#1F10FF" stroke-width="0.495109"/>
<path d="M64.7723 271.53C69.5688 289.474 100.968 276.973 118.743 282.195C130.209 285.563 141.785 289.271 150.994 296.86C167.679 310.61 175.238 333.874 194.16 344.345C217.849 357.454 256.005 386.01 272.202 363.935C292.544 336.211 234.992 293.876 252.778 264.453C270.111 235.781 332.222 267.564 348.244 238.145C360.917 214.876 322.526 190.993 300.603 176.64C281.221 163.951 243.96 183.298 233.122 162.776C218.335 134.774 272.379 82.0219 243.651 68.7971C214.597 55.4223 202.64 118.866 175.393 136.2C165.407 142.553 151.408 129.727 140.548 134.391C129.674 139.061 125.355 152.114 117.541 161.045C110.072 169.581 98.1372 175.282 95.203 186.218C92.2434 197.248 105.759 208.499 101.92 219.262C94.668 239.593 59.2323 250.805 64.7723 271.53Z" stroke="#1F10FF" stroke-width="0.495109"/>
<path d="M61.7061 272.442C66.5962 290.735 98.6066 277.991 116.728 283.314C128.418 286.748 140.219 290.528 149.607 298.265C166.617 312.283 174.323 336 193.614 346.675C217.764 360.04 256.664 389.152 273.176 366.647C293.914 338.383 235.241 295.223 253.374 265.227C271.045 235.996 334.365 268.399 350.699 238.407C363.619 214.684 324.48 190.336 302.13 175.704C282.371 162.767 244.384 182.492 233.335 161.569C218.26 133.022 273.357 79.2425 244.069 65.7601C214.449 52.1246 202.259 116.804 174.481 134.476C164.301 140.952 150.029 127.877 138.958 132.631C127.871 137.392 123.468 150.7 115.502 159.804C107.888 168.507 95.7207 174.319 92.7294 185.467C89.7122 196.712 103.491 208.182 99.5775 219.155C92.1841 239.883 56.0582 251.313 61.7061 272.442Z" stroke="#1F10FF" stroke-width="0.495109"/>
<path d="M58.6403 273.355C63.6238 291.998 96.2458 279.01 114.713 284.436C126.627 287.935 138.654 291.788 148.221 299.672C165.556 313.958 173.409 338.128 193.069 349.007C217.68 362.627 257.323 392.296 274.151 369.361C295.285 340.557 235.491 296.572 253.971 266.003C271.979 236.214 336.509 269.236 353.155 238.671C366.322 214.495 326.435 189.681 303.658 174.769C283.521 161.586 244.809 181.687 233.548 160.365C218.185 131.272 274.334 76.4653 244.487 62.7252C214.301 48.8292 201.878 114.744 173.57 132.754C163.195 139.354 148.65 126.029 137.368 130.874C126.069 135.726 121.582 149.288 113.464 158.566C105.705 167.435 93.3046 173.358 90.2561 184.719C87.1813 196.179 101.224 207.868 97.2352 219.051C89.7005 240.174 52.8845 251.823 58.6403 273.355Z" stroke="#1F10FF" stroke-width="0.495109"/>
<path d="M55.5751 274.268C60.6521 293.261 93.8857 280.029 112.7 285.556C124.836 289.122 137.089 293.046 146.835 301.078C164.495 315.632 172.496 340.255 192.524 351.339C217.597 365.214 257.983 395.439 275.126 372.074C296.657 342.73 235.742 297.921 254.568 266.779C272.913 236.431 338.653 270.072 355.612 238.934C369.025 214.305 328.39 189.026 305.186 173.835C284.671 160.404 245.234 180.882 233.762 159.16C218.11 129.522 275.313 73.6875 244.906 59.6898C214.154 45.5332 201.498 112.684 172.659 131.031C162.09 137.755 147.272 124.18 135.778 129.116C124.268 134.059 119.697 147.875 111.427 157.327C103.521 166.362 90.8891 172.396 87.7835 183.971C84.651 195.645 98.9569 207.554 94.8935 218.946C87.2176 240.465 49.7113 252.332 55.5751 274.268Z" stroke="#1F10FF" stroke-width="0.495109"/>
<path d="M52.5097 275.178C57.6801 294.52 91.5253 281.045 110.685 286.674C123.045 290.305 135.523 294.302 145.45 302.482C163.435 317.303 171.583 342.38 191.979 353.667C217.514 367.798 258.643 398.579 276.102 374.785C298.028 344.9 235.992 299.267 255.164 267.552C273.848 236.645 340.797 270.906 358.068 239.194C371.728 214.112 330.345 188.368 306.714 172.897C285.822 159.219 245.658 180.074 233.976 157.952C218.036 127.768 276.291 70.9067 245.325 56.6513C214.007 42.2342 201.118 110.62 171.748 129.305C160.985 136.153 145.894 122.328 134.189 127.355C122.467 132.389 117.811 146.459 109.389 156.085C101.338 165.286 88.4734 171.431 85.3107 183.219C82.1206 195.108 96.6898 207.236 92.5516 218.838C84.7345 240.753 46.5379 252.839 52.5097 275.178Z" stroke="#1F10FF" stroke-width="0.495109"/>
<path d="M49.4443 276.091C54.7082 295.782 89.165 282.064 108.671 287.795C121.255 291.491 133.958 295.56 144.064 303.888C162.374 318.977 170.669 344.507 191.434 355.999C217.43 370.385 259.303 401.722 277.077 377.497C299.4 347.073 236.242 300.615 255.761 268.327C274.782 236.862 342.942 271.742 360.524 239.457C374.431 213.922 332.301 187.713 308.242 171.962C286.973 158.037 246.083 179.268 234.19 156.747C217.961 126.018 277.269 68.1285 245.743 53.6155C213.859 38.9377 200.738 108.56 170.837 127.582C159.879 134.554 144.516 120.479 132.599 125.596C120.665 130.721 115.926 145.046 107.351 154.846C99.155 164.213 86.0577 170.469 82.8379 182.47C79.5901 194.574 94.4226 206.921 90.2096 218.732C82.2513 241.044 43.3646 253.347 49.4443 276.091Z" stroke="#1F10FF" stroke-width="0.495109"/>
<path d="M46.3791 277.004C51.7365 297.045 86.8049 283.083 106.657 288.916C119.464 292.678 132.393 296.819 142.678 305.295C161.313 320.652 169.756 346.635 190.89 358.33C217.347 372.972 259.963 404.865 278.053 380.211C300.772 349.247 236.493 301.964 256.358 269.103C275.716 237.079 345.086 272.578 362.981 239.721C377.134 213.732 334.256 187.058 309.771 171.027C288.123 156.855 246.508 178.463 234.403 155.542C217.887 124.268 278.247 65.351 246.162 50.5803C213.712 35.642 200.358 106.5 169.926 125.86C158.774 132.955 143.138 118.63 131.01 123.839C118.864 129.054 114.04 143.633 105.313 153.607C96.972 163.141 83.6423 169.508 80.3653 181.721C77.0599 194.041 92.1557 206.607 87.868 218.628C79.7684 241.335 40.1915 253.857 46.3791 277.004Z" stroke="#1F10FF" stroke-width="0.495109"/>
<path d="M43.3127 277.916C48.7636 298.306 84.4436 284.101 104.642 290.035C117.673 293.863 130.827 298.077 141.291 306.7C160.251 322.325 168.841 348.761 190.344 360.661C217.263 375.557 260.622 408.007 279.027 382.923C302.142 351.419 236.742 303.311 256.954 269.877C276.65 237.295 347.229 273.413 365.436 239.983C379.836 213.541 336.21 186.401 311.298 170.091C289.273 155.672 246.932 177.656 234.616 154.336C217.812 122.516 279.225 62.5719 246.579 47.5436C213.564 32.3447 199.977 104.438 169.014 124.136C157.668 131.355 141.759 116.78 129.419 122.079C117.062 127.386 112.154 142.219 103.275 152.367C94.7878 162.067 81.2256 168.545 77.8915 180.971C74.5285 193.505 89.8876 206.291 85.5251 218.521C77.2843 241.625 37.0171 254.365 43.3127 277.916Z" stroke="#1F10FF" stroke-width="0.495109"/>
<path d="M40.2469 278.829C45.7912 299.569 82.0828 285.12 102.628 291.156C115.881 295.05 129.261 299.336 139.905 308.107C159.19 324 167.927 350.889 189.798 362.992C217.179 378.145 261.281 411.151 280.002 385.636C303.513 353.592 236.992 304.66 257.55 270.653C277.584 237.512 349.373 274.25 367.892 240.246C382.539 213.351 338.165 185.746 312.825 169.157C290.423 154.49 247.356 176.852 234.829 153.131C217.737 120.766 280.202 59.7944 246.997 44.5085C213.416 29.049 199.596 102.378 168.103 122.413C156.562 129.756 140.381 114.931 127.829 120.322C115.26 125.719 110.268 140.806 101.237 151.128C92.6042 160.995 78.8094 167.583 75.4182 180.223C71.9976 192.972 87.62 205.976 83.1827 218.416C74.8007 241.916 33.8433 254.875 40.2469 278.829Z" stroke="#1F10FF" stroke-width="0.495109"/>
<path d="M37.1829 279.74C42.8207 300.83 79.7239 286.138 100.615 292.275C114.092 296.235 127.697 300.592 138.521 309.512C158.131 325.672 167.015 353.015 189.255 365.322C217.097 380.73 261.943 414.292 280.978 388.348C304.886 355.764 237.244 306.007 258.148 271.426C278.519 237.728 351.519 275.084 370.349 240.508C385.243 213.159 340.122 185.089 314.355 168.22C291.575 153.306 247.783 176.045 235.044 151.924C217.664 119.013 281.182 57.0148 247.417 41.4712C213.27 25.7511 199.217 100.316 167.194 120.689C155.458 128.155 139.004 113.081 126.241 118.562C113.46 124.05 108.384 139.392 99.2002 149.888C90.4224 159.92 76.3952 166.62 72.9468 179.473C69.4686 192.436 85.3543 205.66 80.8423 218.31C72.3191 242.205 30.6714 255.382 37.1829 279.74Z" stroke="#1F10FF" stroke-width="0.495109"/>
<path d="M34.1171 280.651C39.8483 302.091 77.3631 287.155 98.6006 293.394C112.301 297.419 126.132 301.85 137.134 310.917C157.07 327.345 166.101 355.141 188.71 367.652C217.013 383.315 262.602 417.434 281.953 391.06C306.257 357.935 237.494 307.354 258.744 272.2C279.453 237.943 353.662 275.919 372.805 240.769C387.946 212.968 342.076 184.433 315.883 167.284C292.725 152.122 248.207 175.238 235.258 150.718C217.589 117.261 282.159 54.2354 247.835 38.4341C213.122 22.4535 198.837 98.2541 166.282 118.965C154.352 126.554 137.625 111.23 124.65 116.802C111.658 122.382 106.498 137.977 97.162 148.647C88.2387 158.846 73.979 165.657 70.4735 178.722C66.9377 191.901 83.0866 205.343 78.4999 218.203C69.8354 242.495 27.4976 255.89 34.1171 280.651Z" stroke="#1F10FF" stroke-width="0.495109"/>
</svg>
