<svg width="1116" height="826" viewBox="0 0 1116 826" fill="none" xmlns="http://www.w3.org/2000/svg">
<path fill-rule="evenodd" clip-rule="evenodd" d="M560.213 531.65C568.689 520.366 589.747 520.477 594.118 507.059C601.916 483.122 567.432 434.212 592.557 432.37C623.83 430.078 622.893 495.624 653.441 502.711C673.974 507.475 674.32 453.174 695.182 456.181C713.362 458.801 687.67 501.149 703.782 509.967C728.673 523.59 780.842 479.472 787.921 506.935C795.411 535.998 737.149 538.496 716.827 560.582C710.785 567.149 714.832 578.03 714.308 586.938C713.511 600.504 719.477 615.34 712.91 627.238C706.662 638.558 693.495 646.722 680.618 647.978C667.529 649.255 656.68 629.789 644.202 633.94C616.902 643.022 603.305 682.326 574.546 683.264C553.689 683.944 538.649 657.587 532.767 637.575C526.775 617.189 537.497 595.912 542.826 575.346C546.801 560.004 550.694 544.324 560.213 531.65Z" stroke="#1F10FF"/>
<path fill-rule="evenodd" clip-rule="evenodd" d="M204.346 367.776C244.068 314.847 342.714 315.336 363.21 252.409C399.776 140.142 238.304 -89.1757 356.003 -97.8472C502.51 -108.641 498.025 198.739 641.122 231.933C737.304 254.245 739 -0.405141 836.729 13.667C921.891 25.9296 801.473 224.56 876.939 265.889C993.524 329.737 1237.98 122.769 1271.1 251.55C1306.15 387.83 1033.21 399.628 937.978 503.227C909.661 534.033 928.604 585.057 926.138 626.831C922.384 690.452 950.312 760.015 919.532 815.82C890.245 868.918 828.554 907.218 768.229 913.127C706.906 919.134 656.114 827.866 597.653 847.35C469.752 889.977 406 1074.31 271.271 1078.75C173.564 1081.97 103.144 958.393 75.6181 864.556C47.5772 768.964 97.8385 669.165 122.831 572.716C141.476 500.761 159.733 427.224 204.346 367.776Z" stroke="#1F10FF"/>
<path d="M589.589 502.071C584.902 516.459 562.323 516.341 553.235 528.442C543.027 542.033 538.853 558.847 534.59 575.3C528.875 597.353 517.378 620.17 523.802 642.031C530.108 663.49 546.235 691.753 568.598 691.023C599.436 690.016 614.016 647.869 643.288 638.13C656.668 633.678 668.3 654.551 682.335 653.182C696.143 651.834 710.261 643.08 716.96 630.94C724.002 618.181 717.605 602.273 718.461 587.725C719.022 578.173 714.683 566.504 721.163 559.462C742.953 535.778 805.425 533.098 797.394 501.933C789.805 472.483 733.865 519.794 707.176 505.186C689.901 495.731 717.45 450.318 697.957 447.509C675.587 444.285 675.215 502.515 653.199 497.407C620.443 489.807 621.45 419.52 587.917 421.979C560.978 423.954 597.952 476.402 589.589 502.071Z" stroke="#1F10FF"/>
<path d="M585.061 497.079C580.058 512.438 555.958 512.313 546.257 525.23C535.361 539.738 530.905 557.687 526.354 575.25C520.254 598.79 507.981 623.148 514.838 646.483C521.569 669.39 538.781 699.559 562.651 698.779C595.567 697.704 611.131 652.713 642.375 642.316C656.657 637.563 669.072 659.844 684.053 658.382C698.791 656.943 713.86 647.598 721.012 634.639C728.528 621.02 721.701 604.038 722.614 588.509C723.214 578.312 718.583 565.856 725.499 558.339C748.758 533.057 815.439 530.194 806.868 496.926C798.768 465.49 739.058 515.994 710.571 500.402C692.132 490.309 721.539 441.832 700.732 438.834C676.855 435.393 676.457 497.551 652.957 492.099C617.995 483.987 619.071 408.958 583.279 411.584C554.524 413.693 593.988 469.678 585.061 497.079Z" stroke="#1F10FF"/>
<path d="M580.533 492.091C575.213 508.421 549.592 508.288 539.278 522.022C527.694 537.447 522.956 556.53 518.118 575.203C511.633 600.232 498.584 626.129 505.873 650.938C513.029 675.293 531.326 707.369 556.704 706.539C591.697 705.395 608.244 657.56 641.462 646.505C656.645 641.452 669.843 665.141 685.77 663.586C701.438 662.056 717.459 652.12 725.062 638.342C733.053 623.862 725.795 605.807 726.767 589.296C727.404 578.455 722.481 565.212 729.834 557.219C754.562 530.339 825.453 527.294 816.341 491.924C807.731 458.501 744.251 512.198 713.966 495.621C694.362 484.891 725.627 433.35 703.506 430.162C678.122 426.504 677.697 492.591 652.714 486.795C615.545 478.171 616.692 398.4 578.639 401.192C548.07 403.436 590.023 462.958 580.533 492.091Z" stroke="#1F10FF"/>
<path d="M576.008 487.09C570.373 504.391 543.23 504.25 532.303 518.801C520.031 535.143 515.012 555.361 509.886 575.144C503.015 601.66 489.191 629.097 496.913 655.381C504.492 681.183 523.876 715.165 550.76 714.286C587.831 713.073 605.362 662.394 640.552 650.682C656.637 645.328 670.618 670.425 687.491 668.777C704.089 667.156 721.062 656.629 729.117 642.032C737.583 626.69 729.894 607.563 730.923 590.07C731.599 578.585 726.384 564.555 734.174 556.087C760.37 527.608 835.47 524.381 825.818 486.909C816.697 451.499 749.447 508.389 717.364 490.828C696.597 479.46 729.719 424.854 706.285 421.477C679.394 417.602 678.942 487.618 652.476 481.477C613.1 472.342 614.316 387.829 574.004 390.788C541.619 393.165 586.063 456.225 576.008 487.09Z" stroke="#1F10FF"/>
<path d="M571.473 482.1C565.521 500.371 536.857 500.224 525.318 515.591C512.358 532.85 507.057 554.202 501.643 575.095C494.387 603.1 479.788 632.076 487.942 659.835C495.945 687.084 516.415 722.973 544.806 722.043C583.955 720.762 602.469 667.239 639.632 654.869C656.618 649.215 671.382 675.72 689.201 673.979C706.73 672.267 724.654 661.149 733.16 645.733C742.101 629.53 733.982 609.329 735.069 590.856C735.783 578.726 730.276 563.908 738.502 554.965C766.167 524.888 845.477 521.478 835.285 481.904C825.653 444.507 754.632 504.591 720.752 486.045C698.821 474.039 733.8 416.369 709.053 412.804C680.654 408.712 680.176 482.655 652.227 476.171C610.644 466.524 611.929 377.269 569.358 380.395C535.158 382.906 582.092 449.503 571.473 482.1Z" stroke="#1F10FF"/>
<path d="M566.946 477.109C560.678 496.351 530.492 496.195 518.34 512.379C504.692 530.556 499.109 553.042 493.408 575.045C485.766 604.538 470.392 635.053 478.978 664.287C487.406 692.984 508.962 730.779 538.86 729.8C580.086 728.45 599.584 672.083 638.719 659.055C656.607 653.101 672.155 681.013 690.919 679.18C709.378 677.376 728.253 665.668 737.212 649.432C746.627 632.369 738.077 611.095 739.223 591.639C739.975 578.865 734.175 563.261 742.839 553.842C771.973 522.167 855.491 518.575 844.759 476.898C834.616 437.515 759.826 500.792 724.147 481.26C701.052 468.618 737.888 407.883 711.828 404.128C681.922 399.82 681.418 477.692 651.985 470.863C608.196 460.704 609.551 366.707 564.72 370C528.705 372.645 578.128 442.78 566.946 477.109Z" stroke="#1F10FF"/>
<path d="M562.424 472.109C555.84 492.321 524.133 492.159 511.368 509.159C497.032 528.253 491.168 551.874 485.179 574.987C477.151 605.967 461.002 638.022 470.02 668.731C478.873 698.875 501.514 738.577 532.919 737.548C576.224 736.129 596.705 676.919 637.812 663.233C656.602 656.978 672.933 686.298 692.643 684.372C712.032 682.477 731.859 670.178 741.269 653.123C751.16 635.198 742.179 612.851 743.382 592.415C744.172 578.996 738.081 562.605 747.181 552.711C777.784 519.437 865.512 515.663 854.239 471.884C843.586 430.514 765.025 496.984 727.548 476.468C703.289 463.187 741.983 399.389 714.61 395.445C683.197 390.919 682.666 472.719 651.75 465.547C605.753 454.876 607.178 356.137 560.088 359.596C522.257 362.375 574.171 436.048 562.424 472.109Z" stroke="#1F10FF"/>
<path d="M557.896 467.121C550.995 488.304 517.767 488.134 504.389 505.951C489.365 525.962 483.219 550.717 476.943 574.94C468.53 607.409 451.605 641.004 461.056 673.187C470.333 704.779 494.06 746.386 526.972 745.308C572.354 743.82 593.819 681.766 636.899 667.423C656.59 660.867 673.704 691.595 694.36 689.576C714.679 687.59 735.458 674.7 745.32 656.826C755.685 638.04 746.274 614.62 747.535 593.202C748.363 579.139 741.98 561.961 751.516 551.591C783.588 516.719 875.525 512.763 863.712 466.881C852.548 423.525 770.217 493.188 730.942 471.687C705.52 457.769 746.071 390.906 717.384 386.773C684.464 382.031 683.907 467.759 651.507 460.243C603.304 449.06 604.798 345.58 555.449 349.205C515.803 352.118 570.206 429.328 557.896 467.121Z" stroke="#1F10FF"/>
<path d="M553.368 462.129C546.151 484.283 511.401 484.106 497.411 502.739C481.699 523.667 475.272 549.557 468.707 574.89C459.909 608.846 442.209 643.981 452.092 677.638C461.793 710.678 486.606 754.192 521.025 753.064C568.485 751.507 590.933 686.61 635.986 671.608C656.578 664.752 674.476 696.888 696.077 694.776C717.327 692.699 739.057 679.218 749.371 660.525C760.211 640.878 750.369 616.385 751.688 593.986C752.554 579.278 745.879 561.312 755.852 550.468C789.393 513.998 885.54 509.858 873.186 461.875C861.512 416.532 775.41 489.388 734.337 466.902C707.751 452.347 750.16 382.42 720.159 378.098C685.732 373.138 685.148 462.795 651.265 454.935C600.855 443.24 602.419 335.018 550.81 338.81C509.349 341.857 566.243 422.604 553.368 462.129Z" stroke="#1F10FF"/>
<path d="M548.843 457.127C541.31 480.253 505.039 480.068 490.436 499.518C474.036 521.363 467.327 548.387 460.475 574.83C451.291 610.274 432.815 646.949 443.131 682.081C453.257 716.568 479.156 761.989 515.081 760.81C564.619 759.185 588.05 691.444 635.076 675.785C656.57 668.628 675.251 702.172 697.798 699.967C719.978 697.799 742.66 683.726 753.425 664.214C764.74 643.707 754.467 618.141 755.844 594.76C756.749 579.408 749.781 560.655 760.191 549.335C795.2 511.267 895.557 506.945 882.662 456.859C870.478 409.53 780.606 485.579 737.735 462.108C709.985 446.916 754.251 373.924 722.938 369.413C687.003 364.236 686.393 457.822 651.027 449.617C598.41 437.411 600.043 324.446 546.174 328.406C502.898 331.586 562.282 415.871 548.843 457.127Z" stroke="#1F10FF"/>
<path d="M544.315 452.14C536.466 476.236 498.673 476.043 483.458 496.31C466.369 519.072 459.379 547.231 452.239 574.784C442.669 611.716 423.419 649.93 434.166 686.537C444.717 722.472 471.702 769.798 509.134 768.57C560.75 766.877 585.165 696.291 634.163 679.975C656.558 672.517 676.022 707.469 699.515 705.172C722.626 702.912 746.259 688.249 757.476 667.917C769.265 646.549 758.562 619.91 759.997 595.547C760.94 579.551 753.68 560.011 764.527 548.216C801.005 508.549 905.571 504.045 892.136 451.857C879.441 402.541 785.798 481.783 741.13 457.328C712.216 441.498 758.34 365.442 725.713 360.742C688.271 355.348 687.634 452.862 650.785 444.313C595.961 431.595 597.664 313.889 541.536 318.014C496.444 321.329 558.318 409.151 544.315 452.14Z" stroke="#1F10FF"/>
<path d="M539.787 447.148C531.622 472.215 492.308 472.015 476.48 493.098C458.703 516.778 451.431 546.071 444.004 574.734C434.049 613.154 414.023 652.908 425.203 690.989C436.177 728.372 464.248 777.605 503.187 776.327C556.881 774.564 582.279 701.135 633.25 684.161C656.547 676.402 676.794 712.762 701.233 710.372C725.274 708.021 749.858 692.767 761.527 671.617C773.791 649.388 762.658 621.675 764.151 596.331C765.131 579.69 757.58 559.363 768.863 547.093C806.81 505.828 915.585 501.142 901.61 446.851C888.404 395.548 790.992 477.984 744.525 452.544C714.448 436.076 762.428 356.956 728.488 352.066C689.539 346.456 688.876 447.898 650.543 439.005C593.512 425.775 595.285 303.327 536.897 307.62C489.991 311.068 554.354 402.427 539.787 447.148Z" stroke="#1F10FF"/>
<path d="M535.255 442.145C526.774 468.183 485.939 467.975 469.498 489.875C451.033 514.471 443.479 544.899 435.765 574.672C425.424 614.58 404.623 655.873 416.235 695.43C427.634 734.26 456.791 785.399 497.237 784.071C553.008 782.24 579.39 705.968 632.333 688.335C656.532 680.276 677.562 718.044 702.947 715.561C727.918 713.119 753.454 697.274 765.575 675.304C778.313 652.214 766.749 623.429 768.3 597.103C769.319 579.818 761.475 558.704 773.196 545.958C812.611 503.095 925.595 498.226 911.08 441.833C897.364 388.544 796.181 474.173 747.916 447.748C716.675 430.643 766.513 348.458 731.259 343.38C690.803 337.552 690.114 442.923 650.297 433.686C591.06 419.944 592.902 292.754 532.255 297.213C483.533 300.796 550.387 395.692 535.255 442.145Z" stroke="#1F10FF"/>
<path d="M530.727 437.157C521.929 464.165 479.573 463.951 462.52 486.667C443.367 512.18 435.531 543.743 427.529 574.626C416.802 616.022 395.226 658.854 407.27 699.885C419.094 740.163 449.337 793.209 491.289 791.831C549.139 789.931 576.504 710.815 631.419 692.525C656.52 684.165 678.334 723.341 704.664 720.765C730.566 718.232 757.053 701.796 769.625 679.007C782.839 655.056 770.844 625.197 772.453 597.891C773.51 579.961 765.374 558.06 777.531 544.839C818.415 500.377 935.609 495.326 920.553 436.831C906.326 381.555 801.373 470.377 751.311 442.967C718.905 425.224 770.601 339.975 734.034 334.708C692.071 328.663 691.354 437.963 650.055 428.382C588.611 414.127 590.522 282.196 527.616 286.822C477.079 290.538 546.422 388.972 530.727 437.157Z" stroke="#1F10FF"/>
<path d="M526.2 432.166C517.086 460.145 473.208 459.923 455.542 483.455C435.701 509.886 427.584 542.583 419.294 574.576C408.182 617.46 385.83 661.832 398.307 704.338C410.555 746.063 441.883 801.015 485.343 799.588C545.27 797.619 573.619 715.659 630.507 696.711C656.509 688.051 679.106 728.634 706.382 725.966C733.214 723.342 760.653 706.315 773.677 682.707C787.365 657.895 774.94 626.963 776.607 598.675C777.701 580.1 769.274 557.412 781.868 543.716C824.221 497.656 945.624 492.423 930.028 431.825C915.29 374.563 806.566 466.578 754.706 438.183C721.137 419.803 774.69 331.49 736.809 326.033C693.339 319.772 692.596 432.999 649.814 423.074C586.163 408.308 588.144 271.635 522.978 276.427C470.626 280.278 542.459 382.249 526.2 432.166Z" stroke="#1F10FF"/>
<path d="M521.671 427.178C512.241 456.128 466.842 455.898 448.563 480.247C428.034 507.595 419.635 541.427 411.057 574.53C399.56 618.901 376.433 664.813 389.342 708.793C402.015 751.966 434.429 808.825 479.395 807.347C541.4 805.31 570.732 720.506 629.593 700.901C656.497 691.94 679.877 733.931 708.099 731.17C735.861 728.454 764.251 710.837 777.727 686.409C791.89 660.737 779.034 628.732 780.759 599.462C781.892 580.243 773.172 556.768 786.203 542.597C830.025 494.938 955.637 489.523 939.501 426.823C924.252 367.574 811.759 462.782 758.101 433.402C723.368 414.385 778.778 323.007 739.584 317.362C694.606 310.883 693.837 428.039 649.571 417.77C583.713 402.492 585.764 261.077 518.338 266.036C464.171 270.02 538.494 375.529 521.671 427.178Z" stroke="#1F10FF"/>
<path d="M517.146 422.176C507.4 452.097 460.479 451.86 441.588 477.026C420.371 505.291 411.69 540.257 402.825 574.47C390.942 620.33 367.039 667.781 380.381 713.236C393.478 757.856 426.978 816.621 473.451 815.094C537.534 812.988 567.85 725.341 628.683 705.077C656.489 695.815 680.652 739.215 709.819 736.361C738.512 733.554 767.854 715.345 781.781 690.099C796.419 663.565 783.132 630.487 784.915 600.236C786.086 580.373 777.074 556.111 790.542 541.464C835.832 492.207 965.654 486.609 948.977 421.807C933.218 360.571 816.954 458.973 761.498 428.608C725.601 408.953 782.869 314.511 742.362 308.677C695.877 301.981 695.081 423.066 649.332 412.452C581.267 396.663 583.387 250.505 513.702 255.632C457.72 259.75 534.533 368.796 517.146 422.176Z" stroke="#1F10FF"/>
<path d="M512.619 417.185C502.556 448.076 454.114 447.832 434.611 473.814C412.705 502.997 403.743 539.097 394.59 574.42C382.321 621.768 357.644 670.759 371.418 717.688C384.939 763.756 419.525 824.427 467.505 822.85C533.666 820.676 564.965 730.184 627.77 709.263C656.478 699.701 681.424 744.508 711.537 741.562C741.16 738.664 771.454 719.864 785.833 693.798C800.946 666.404 787.228 632.253 789.069 601.02C790.278 580.512 780.974 555.463 794.878 540.341C841.637 489.486 975.669 483.706 958.452 416.801C942.182 353.579 822.148 455.173 764.894 423.824C727.833 403.532 786.958 306.025 745.137 300.002C697.146 293.089 696.323 418.102 649.091 407.145C578.819 390.843 581.009 239.944 509.064 245.237C451.267 249.489 530.57 362.072 512.619 417.185Z" stroke="#1F10FF"/>
<path d="M508.094 412.184C497.715 444.046 447.752 443.794 427.636 470.593C405.042 500.693 395.798 537.927 386.357 574.361C373.703 623.196 348.25 673.727 362.457 722.131C376.402 769.646 412.074 832.224 461.561 830.597C529.8 828.354 562.082 735.019 626.861 713.44C656.47 703.577 682.199 749.792 713.258 746.753C743.812 743.763 775.056 724.373 789.887 697.488C805.475 669.233 791.327 634.008 793.226 601.794C794.473 580.642 784.876 554.806 799.217 539.208C847.445 486.755 985.686 480.793 967.929 411.786C951.148 346.577 827.344 451.364 768.292 419.03C730.067 398.101 791.05 297.53 747.916 291.317C698.417 284.188 697.568 413.129 648.852 401.828C576.374 385.014 578.633 229.373 504.429 234.833C444.816 239.218 526.609 355.339 508.094 412.184Z" stroke="#1F10FF"/>
<path d="M503.562 407.208C492.867 440.042 441.382 439.782 420.653 467.398C397.371 498.415 387.846 536.784 378.118 574.327C365.078 624.65 338.85 676.721 353.488 726.599C367.858 775.562 404.616 840.046 455.61 838.37C525.926 836.058 559.192 739.879 625.943 717.642C656.454 707.479 682.967 755.102 714.971 751.97C746.455 748.889 778.651 728.907 793.934 701.204C809.996 672.087 795.418 635.79 797.375 602.594C798.66 580.798 788.771 554.174 803.549 538.102C853.246 484.05 995.696 477.905 977.398 406.796C960.107 339.601 832.532 447.581 771.683 414.262C732.294 392.695 795.134 289.06 750.687 282.658C699.68 275.312 698.805 408.181 648.606 396.536C573.921 379.21 576.25 218.828 499.786 224.454C438.358 228.974 522.641 348.632 503.562 407.208Z" stroke="#1F10FF"/>
<path d="M499.04 402.208C488.029 436.012 435.023 435.745 413.681 464.178C389.711 496.111 379.904 535.615 369.888 574.268C356.463 626.079 329.459 679.69 344.53 731.043C359.325 781.453 397.168 847.843 449.669 846.117C522.063 843.737 556.313 744.714 625.036 721.82C656.448 711.355 683.744 760.386 716.695 757.162C749.109 753.99 782.256 733.417 797.991 704.894C814.528 674.917 799.519 637.546 801.534 603.369C802.857 580.928 792.676 553.518 807.891 536.97C859.057 481.32 1005.72 474.993 986.878 401.781C969.076 332.599 837.731 443.773 775.083 409.469C734.531 387.264 799.228 280.565 753.468 273.974C700.954 266.411 700.053 403.209 648.37 391.219C571.478 373.382 573.876 208.257 495.153 214.05C431.91 218.704 518.683 341.9 499.04 402.208Z" stroke="#1F10FF"/>
<path d="M494.506 397.215C483.179 431.99 428.652 431.716 406.697 460.965C382.039 493.816 371.95 534.454 361.647 574.217C347.836 627.516 320.057 682.666 335.561 735.494C350.779 787.352 389.709 855.648 443.717 853.872C518.188 851.423 553.421 749.557 624.117 726.005C656.431 715.24 684.51 765.678 718.406 762.361C751.751 759.098 785.85 737.934 802.036 708.592C819.048 677.754 803.608 639.311 805.681 604.152C807.042 581.067 796.57 552.869 812.221 535.846C864.856 478.597 1015.72 472.088 996.346 396.774C978.033 325.605 842.918 439.972 778.472 404.684C736.757 381.842 803.311 272.078 756.237 265.298C702.216 257.518 701.288 398.244 648.122 385.91C569.023 367.561 571.491 197.695 490.509 203.654C425.451 208.442 514.714 335.175 494.506 397.215Z" stroke="#1F10FF"/>
<path d="M489.978 392.213C478.335 427.958 422.286 427.677 399.719 457.742C374.373 491.51 364.002 533.282 353.411 574.156C339.214 628.943 310.661 685.632 326.596 739.935C342.239 793.241 382.255 863.443 437.769 861.617C514.319 859.1 550.535 754.389 623.204 730.18C656.419 719.114 685.282 770.961 720.124 767.551C754.399 764.196 789.449 742.442 806.087 712.281C823.574 680.581 807.703 641.065 809.834 604.925C811.233 581.195 800.469 552.21 816.557 534.712C870.66 475.865 1025.74 469.173 1005.82 391.757C986.997 318.602 848.111 436.162 781.867 399.889C738.988 376.409 807.399 263.58 759.012 256.612C703.484 248.614 702.53 393.269 647.88 380.591C566.574 361.73 569.112 187.122 485.87 193.248C418.997 198.17 510.75 328.441 489.978 392.213Z" stroke="#1F10FF"/>
<path d="M485.449 387.225C473.49 423.941 415.92 423.652 392.74 454.534C366.706 489.219 356.054 532.126 345.175 574.11C330.593 630.384 301.264 688.613 317.632 744.39C333.699 799.144 374.801 871.253 431.822 869.377C510.449 866.791 547.649 759.237 622.29 734.369C656.407 723.003 686.053 776.257 721.841 772.755C757.046 769.309 793.048 746.964 810.138 715.983C828.099 683.423 811.798 642.833 813.987 605.712C815.424 581.338 804.367 551.566 820.892 533.592C876.464 473.147 1035.75 466.273 1015.29 386.755C995.959 311.613 853.303 432.366 785.261 395.108C741.218 370.991 811.487 255.098 761.786 247.94C704.751 239.726 703.77 388.309 647.638 375.287C564.125 355.914 566.732 176.564 481.231 182.857C412.542 187.913 506.785 321.721 485.449 387.225Z" stroke="#1F10FF"/>
<path d="M480.925 382.234C468.649 419.921 409.558 419.625 385.766 451.324C359.043 486.926 348.109 530.967 336.943 574.061C321.975 631.824 291.871 691.592 308.671 748.844C325.163 805.045 367.35 879.06 425.879 877.135C506.584 874.48 544.767 764.082 621.381 738.557C656.399 726.89 686.828 781.552 723.562 777.957C759.697 774.42 796.651 751.483 814.192 719.684C832.628 686.263 815.897 644.6 818.143 606.497C819.619 581.478 808.27 550.919 825.232 532.47C882.272 470.427 1045.77 463.371 1024.77 381.75C1004.93 304.621 858.499 428.568 788.66 390.325C743.453 365.57 815.579 246.613 764.565 239.266C706.023 230.835 705.015 383.346 647.399 369.981C561.68 350.096 564.357 166.004 476.596 172.463C406.092 177.653 502.825 314.998 480.925 382.234Z" stroke="#1F10FF"/>
<path d="M476.396 377.246C463.805 415.904 403.192 415.6 378.787 448.115C351.376 484.634 340.161 529.81 328.707 574.014C313.354 633.265 282.474 694.573 299.707 753.299C316.623 810.948 359.896 886.869 419.931 884.894C502.714 882.17 541.881 768.929 620.467 742.746C656.388 730.778 687.6 786.848 725.279 783.16C762.345 779.532 800.25 756.005 818.243 723.386C837.154 689.104 819.991 646.368 822.296 607.284C823.81 581.621 812.169 550.275 829.567 531.35C888.077 467.709 1055.78 460.47 1034.24 376.747C1013.89 297.632 863.691 424.771 792.054 385.544C745.683 360.151 819.667 238.13 767.34 230.594C707.29 221.946 706.256 378.386 647.157 364.676C559.231 344.279 561.977 155.445 471.957 162.072C399.638 167.395 498.861 308.278 476.396 377.246Z" stroke="#1F10FF"/>
<path d="M471.871 372.244C458.964 411.873 396.83 411.562 371.812 444.894C343.713 482.33 332.216 528.64 320.474 573.954C304.736 634.693 273.081 697.541 290.746 757.742C308.086 816.838 352.445 894.666 413.987 892.641C498.848 889.848 538.998 773.763 619.557 746.922C656.379 734.654 688.374 792.132 726.999 788.351C764.996 784.632 803.852 760.514 822.297 727.076C841.682 691.933 824.09 648.124 826.452 608.058C828.004 581.75 816.071 549.617 833.906 530.218C893.884 464.978 1065.8 457.556 1043.72 371.731C1022.85 290.629 868.887 420.962 795.452 380.75C747.917 354.72 823.759 229.634 770.118 221.909C708.561 213.044 707.501 373.412 646.918 359.358C556.785 338.45 559.601 144.874 467.321 151.667C393.187 157.124 494.9 301.545 471.871 372.244Z" stroke="#1F10FF"/>
<path d="M467.344 367.253C454.12 407.853 390.464 407.534 364.834 441.682C336.047 480.036 324.268 527.481 312.239 573.905C296.115 636.131 263.684 700.519 281.782 762.194C299.547 822.738 344.992 902.472 408.04 900.397C494.979 897.536 536.113 778.607 618.644 751.108C656.368 738.539 689.146 797.426 728.717 793.552C767.644 789.741 807.451 765.032 826.348 730.775C846.208 694.771 828.185 649.889 830.606 608.842C832.195 581.89 819.97 548.97 838.242 529.095C899.689 462.257 1075.81 454.653 1053.19 366.726C1031.82 283.637 874.08 417.163 798.847 375.966C750.148 349.298 827.847 221.148 772.893 213.234C709.829 204.152 708.742 368.449 646.676 354.051C554.336 332.63 557.222 134.313 462.682 141.273C386.733 146.864 490.936 294.821 467.344 367.253Z" stroke="#1F10FF"/>
<path d="M462.815 362.265C449.275 403.835 384.098 403.509 357.855 438.474C328.38 477.745 316.32 526.324 304.003 573.858C287.493 637.572 254.288 703.499 272.817 766.649C291.007 828.64 337.538 910.281 402.093 908.157C491.11 905.227 533.227 783.454 617.731 755.298C656.356 742.428 689.918 802.722 730.434 798.756C770.291 794.854 811.05 769.554 830.399 734.478C850.734 697.613 832.28 651.658 834.758 609.629C836.386 582.033 823.869 548.325 842.578 527.975C905.494 459.538 1085.83 451.753 1062.67 361.723C1040.78 276.648 879.273 413.367 802.242 371.184C752.379 343.88 831.935 212.665 775.668 204.562C711.097 195.263 709.983 363.488 646.434 348.746C551.887 326.814 554.842 123.754 458.043 130.881C380.279 136.606 486.972 288.101 462.815 362.265Z" stroke="#1F10FF"/>
<path d="M458.284 357.262C444.428 399.803 377.73 399.47 350.874 435.251C320.711 475.439 308.369 525.153 295.764 573.796C278.869 638.999 244.888 706.466 263.85 771.09C282.464 834.529 330.081 918.076 396.143 915.902C487.238 912.903 530.338 788.287 616.815 759.473C656.341 746.302 690.686 808.004 732.148 803.945C772.936 799.952 814.646 774.061 834.446 738.166C855.256 700.44 836.372 653.412 838.908 610.402C840.574 582.161 827.765 547.666 846.91 526.841C911.295 456.806 1095.84 448.838 1072.14 356.706C1049.74 269.644 884.462 409.556 805.633 366.389C754.607 338.447 836.02 204.168 778.439 195.876C712.361 186.36 711.221 358.513 646.189 343.427C549.435 320.983 552.46 113.182 453.401 120.475C373.822 126.334 483.004 281.366 458.284 357.262Z" stroke="#1F10FF"/>
<path d="M453.756 352.271C439.584 395.782 371.365 395.442 343.896 432.04C313.045 473.145 300.421 523.993 287.529 573.747C270.248 640.437 235.492 709.443 254.886 775.543C273.925 840.429 322.627 925.882 390.196 923.658C483.369 920.591 527.452 793.131 615.902 763.659C656.33 750.188 691.458 813.298 733.866 809.146C775.584 805.061 818.246 778.58 838.498 741.865C859.783 703.279 840.467 655.177 843.062 611.186C844.766 582.3 831.665 547.019 851.247 525.718C917.1 454.085 1105.85 445.934 1081.61 351.7C1058.7 262.652 889.655 405.757 809.028 361.605C756.838 333.025 840.109 195.682 781.215 187.201C713.629 177.468 712.463 353.55 645.947 338.12C546.987 315.163 550.081 102.62 448.763 110.08C367.368 116.073 479.041 274.643 453.756 352.271Z" stroke="#1F10FF"/>
<path d="M449.231 347.284C434.742 391.766 365.001 391.418 336.92 428.833C305.381 470.855 292.476 522.837 279.296 573.701C261.629 641.879 226.098 712.425 245.924 779.999C265.387 846.333 315.176 933.693 384.252 931.419C479.502 928.283 524.569 797.979 614.991 767.849C656.321 754.078 692.232 818.596 735.586 814.351C778.234 810.175 821.848 783.103 842.551 745.569C864.311 706.121 844.565 656.947 847.217 611.974C848.959 582.444 835.566 546.375 855.585 524.6C922.907 451.368 1115.87 443.035 1091.09 346.698C1067.67 255.663 894.85 401.962 812.426 356.825C759.072 327.608 844.2 187.201 783.992 178.53C714.9 168.58 713.707 348.591 645.708 332.816C544.54 309.348 547.704 92.0632 444.127 99.6899C360.917 105.817 475.079 267.924 449.231 347.284Z" stroke="#1F10FF"/>
<path d="M444.706 342.282C429.901 387.735 358.639 387.38 329.945 425.611C297.718 468.55 284.531 521.667 271.063 573.641C253.011 643.307 216.705 715.393 236.963 784.441C256.851 852.223 307.725 941.489 378.308 939.165C475.636 935.961 521.686 802.813 614.081 772.025C656.313 757.953 693.007 823.879 737.306 819.541C780.885 815.274 825.45 787.611 846.605 749.258C868.84 708.95 848.663 658.702 851.374 612.748C853.153 582.573 839.468 545.717 859.924 523.466C928.715 448.637 1125.89 440.121 1100.56 341.682C1076.64 248.661 900.046 398.152 815.824 352.031C761.306 322.176 848.291 178.704 786.77 169.845C716.17 159.678 714.951 343.617 645.469 327.499C542.095 303.518 545.328 81.4915 439.491 89.2849C354.466 95.5458 471.118 261.191 444.706 342.282Z" stroke="#1F10FF"/>
<path d="M440.179 337.291C425.058 383.715 352.274 383.352 322.968 422.4C290.052 466.256 276.584 520.508 262.828 573.592C244.391 644.746 207.309 718.371 228 788.894C248.312 858.123 300.272 949.296 372.362 946.922C471.768 943.649 518.802 807.657 613.169 776.212C656.302 761.839 693.78 829.173 739.025 824.742C783.533 820.384 829.05 792.13 850.657 752.958C873.366 711.789 852.759 660.468 855.528 613.532C857.346 582.713 843.368 545.07 864.261 522.344C934.52 445.916 1135.9 437.218 1110.04 336.677C1085.6 241.669 905.24 394.353 819.219 347.247C763.538 316.755 852.381 170.219 789.546 161.17C717.439 150.786 716.194 338.654 645.228 322.191C539.647 297.699 542.95 70.9305 434.853 78.8905C348.013 85.2854 467.155 254.467 440.179 337.291Z" stroke="#1F10FF"/>
<path d="M435.65 332.303C420.213 379.698 345.908 379.327 315.989 419.191C282.386 463.965 268.635 519.351 254.592 573.545C235.769 646.187 197.912 721.352 219.036 793.35C239.772 864.026 292.818 957.105 366.414 954.681C467.898 951.34 515.916 812.504 612.255 780.401C656.29 765.728 694.551 834.469 740.742 829.946C786.181 825.497 832.649 796.652 854.708 756.661C877.892 714.63 856.854 662.237 859.68 614.319C861.536 582.856 847.267 544.426 868.596 521.224C940.325 443.198 1145.92 434.318 1119.51 331.674C1094.56 234.679 910.432 390.557 822.614 342.466C765.768 311.337 856.469 161.736 792.321 152.498C718.707 141.898 717.435 333.693 644.985 316.887C537.197 291.883 540.57 60.3723 430.214 68.4991C341.558 75.0279 463.191 247.747 435.65 332.303Z" stroke="#1F10FF"/>
<path d="M431.125 327.302C415.372 375.667 339.546 375.289 309.014 415.97C274.722 461.661 260.69 518.181 246.36 573.486C227.151 647.615 188.519 724.32 210.075 797.792C231.235 869.917 285.367 964.902 360.47 962.428C464.032 959.018 513.033 817.338 611.345 784.578C656.281 769.604 695.325 839.753 742.462 835.137C788.832 830.597 836.251 801.161 858.762 760.35C882.42 717.459 860.952 663.992 863.836 615.093C865.73 582.986 851.169 543.769 872.935 520.092C946.132 440.467 1155.93 431.405 1128.99 326.659C1103.53 227.677 915.628 386.748 826.011 337.672C768.002 305.905 860.56 153.24 795.099 143.814C719.977 132.996 718.679 328.72 644.746 311.57C534.752 286.054 538.194 49.8013 425.578 58.0948C335.107 64.7574 459.23 241.014 431.125 327.302Z" stroke="#1F10FF"/>
<path d="M426.597 322.31C410.528 371.646 333.18 371.261 302.036 412.758C267.056 459.366 252.743 517.021 238.124 573.435C218.53 649.053 179.122 727.297 201.111 802.244C222.695 875.816 277.913 972.707 354.524 970.184C460.163 966.705 510.147 822.182 610.432 788.764C656.27 773.489 696.097 845.046 744.18 840.338C791.48 835.706 839.851 805.679 862.813 764.05C886.946 720.297 865.047 665.757 867.99 615.877C869.922 583.125 855.069 543.121 877.271 518.969C951.937 437.746 1165.95 428.501 1138.46 321.653C1112.49 220.685 920.821 382.949 829.406 332.888C770.233 300.483 864.649 144.754 797.874 135.139C721.245 124.104 719.92 323.756 644.504 306.262C532.303 280.234 535.815 39.2395 420.94 47.6997C328.654 54.4963 455.266 234.291 426.597 322.31Z" stroke="#1F10FF"/>
<path d="M422.069 317.322C405.684 367.629 326.815 367.236 295.058 409.551C259.39 457.076 244.794 515.865 229.889 573.389C209.909 650.495 169.726 730.278 192.146 806.7C214.155 881.72 270.459 980.517 348.576 977.944C456.294 974.397 507.261 827.03 609.519 792.954C656.258 777.378 696.869 850.343 745.897 845.542C794.127 840.819 843.45 810.201 866.864 767.753C891.472 723.139 869.142 667.526 872.143 616.665C874.113 583.268 858.968 542.477 881.607 517.849C957.742 435.028 1175.96 425.601 1147.94 316.65C1121.45 213.696 926.013 379.153 832.801 328.107C772.464 295.065 868.737 136.272 800.649 126.467C722.513 115.215 721.162 318.796 644.262 300.957C529.854 274.418 533.435 28.6817 416.301 37.3086C322.2 44.2391 451.302 227.571 422.069 317.322Z" stroke="#1F10FF"/>
<path d="M417.534 312.332C400.832 363.61 320.442 363.209 288.072 406.34C251.716 454.782 236.839 514.706 221.646 573.34C201.28 651.934 160.322 733.257 183.175 811.154C205.609 887.621 262.998 988.325 342.622 985.702C452.417 982.086 504.369 831.875 608.598 797.141C656.24 781.265 697.634 855.638 747.607 850.744C796.768 845.93 847.042 814.721 870.908 771.453C895.99 725.979 873.23 669.293 876.289 617.45C878.297 583.409 862.86 541.83 885.935 516.728C963.539 432.308 1185.97 422.699 1157.4 311.646C1130.41 206.704 931.199 375.355 836.189 323.324C774.688 289.645 872.818 127.787 803.417 117.793C723.774 106.324 722.396 313.834 644.013 295.651C527.398 268.599 531.049 18.1215 411.655 26.915C315.739 33.9794 447.331 220.849 417.534 312.332Z" stroke="#1F10FF"/>
<path d="M413.013 307.331C395.995 359.58 314.083 359.173 281.101 403.12C244.056 452.479 228.898 513.537 213.417 573.282C192.666 653.363 150.932 736.226 174.218 815.597C197.075 893.512 255.551 996.122 336.682 993.45C448.555 989.764 501.489 836.71 607.692 801.319C656.235 785.142 698.412 860.923 749.331 855.936C799.422 851.03 850.648 819.23 874.965 775.144C900.523 728.809 877.332 671.05 880.448 618.225C882.495 583.539 866.765 541.174 890.278 515.596C969.35 429.578 1195.99 419.786 1166.88 306.631C1139.38 199.703 936.398 371.547 839.59 318.532C776.926 284.215 876.913 119.292 806.198 109.109C725.048 97.4238 723.644 308.861 643.778 290.335C524.956 262.771 528.676 7.55129 407.023 16.5116C309.291 23.7099 443.374 214.116 413.013 307.331Z" stroke="#1F10FF"/>
<path d="M408.484 302.34C391.15 355.56 307.717 355.144 274.122 399.908C236.39 450.185 220.95 512.377 205.181 573.232C184.044 654.801 141.536 739.204 165.253 820.05C188.536 899.411 248.097 1003.93 330.735 1001.21C444.685 997.452 498.603 841.554 606.778 805.505C656.223 789.027 699.183 866.216 751.049 861.137C802.07 856.14 854.247 823.749 879.016 778.843C905.048 731.647 881.427 672.815 884.601 619.009C886.686 583.679 870.664 540.526 894.613 514.473C975.155 426.857 1206 416.883 1176.36 301.625C1148.34 192.711 941.591 367.747 842.985 313.747C779.157 278.793 881.001 110.806 808.973 100.434C726.316 88.5317 724.885 303.898 643.536 285.027C522.507 256.951 526.297 -3.01017 402.384 6.11678C302.837 13.4491 439.41 207.393 408.484 302.34Z" stroke="#1F10FF"/>
<path d="M403.956 297.352C386.306 351.543 301.352 351.12 267.144 396.701C228.724 447.894 213.002 511.221 196.945 573.186C175.423 656.243 132.139 742.185 156.289 824.506C179.996 905.315 240.643 1011.74 324.788 1008.97C440.816 1005.14 495.718 846.402 605.865 809.695C656.211 792.917 699.955 871.513 752.766 866.341C804.718 861.253 857.846 828.271 883.067 782.546C909.574 734.489 885.522 674.584 888.754 619.796C890.877 583.822 874.563 539.882 898.949 513.354C980.959 424.139 1216.02 413.983 1185.83 296.623C1157.3 185.722 946.784 363.952 846.379 308.967C781.388 273.375 885.09 102.324 811.748 91.7631C727.584 79.6436 726.126 298.938 643.294 279.723C520.058 251.136 523.918 -13.5677 397.745 -4.27397C296.383 3.19223 435.446 200.673 403.956 297.352Z" stroke="#1F10FF"/>
<path d="M399.429 292.36C381.462 347.522 294.986 347.092 260.166 393.489C221.057 445.599 205.054 510.061 188.71 573.135C166.802 657.68 122.743 745.162 147.325 828.957C171.456 911.215 233.189 1019.54 318.841 1016.72C436.947 1012.83 492.832 851.245 604.952 813.88C656.2 796.802 700.727 876.806 754.484 871.541C807.366 866.362 861.445 832.789 887.118 786.245C914.1 737.327 889.617 676.349 892.908 620.58C895.068 583.961 878.463 539.234 903.285 512.23C986.764 421.417 1226.03 411.079 1195.3 291.617C1166.27 178.729 951.976 360.152 849.774 304.182C783.619 267.953 889.178 93.8375 814.523 83.0875C728.852 70.751 727.368 293.974 643.052 274.415C517.609 245.316 521.539 -24.1298 393.107 -14.6694C289.929 -7.06921 431.482 193.949 399.429 292.36Z" stroke="#1F10FF"/>
<path d="M394.904 287.359C376.621 343.491 288.624 343.054 253.191 390.267C213.394 443.295 197.109 508.891 180.478 573.076C158.184 659.109 113.35 748.13 138.364 833.4C162.92 917.105 225.739 1027.34 312.897 1024.47C433.081 1020.51 489.95 856.079 604.043 818.057C656.192 800.678 701.502 882.09 756.204 876.732C810.017 871.462 865.048 837.298 891.172 789.935C918.629 740.156 893.716 678.105 897.064 621.354C899.263 584.091 882.365 538.577 907.625 511.098C992.572 418.686 1236.05 408.165 1204.78 286.601C1175.23 171.727 957.173 356.343 853.173 299.388C785.853 262.522 893.27 85.3419 817.301 74.4027C730.123 61.8493 728.612 289 642.813 269.097C515.164 239.486 519.163 -34.7009 388.471 -25.0738C283.479 -17.3398 427.521 187.216 394.904 287.359Z" stroke="#1F10FF"/>
<path d="M390.375 282.371C371.776 339.474 282.258 339.029 246.212 387.059C205.728 441.004 189.161 507.735 172.241 573.03C149.563 660.55 103.953 751.112 129.4 837.856C154.38 923.008 218.284 1035.15 306.95 1032.23C429.212 1028.2 487.064 860.927 603.129 822.247C656.18 804.567 702.273 887.387 757.921 881.937C812.664 876.575 868.647 841.82 895.223 793.638C923.154 742.998 897.81 679.874 901.217 622.141C903.453 584.234 886.264 537.933 911.96 509.978C998.376 415.969 1246.06 405.265 1214.25 281.599C1184.2 164.738 962.365 352.547 856.567 294.608C788.084 257.103 897.358 76.8594 820.076 65.7311C731.39 52.9607 729.853 284.04 642.571 263.793C512.715 233.67 516.783 -45.2589 383.832 -35.465C277.024 -27.597 423.557 180.496 390.375 282.371Z" stroke="#1F10FF"/>
<path d="M385.854 277.371C366.939 335.445 275.899 334.993 239.241 383.839C198.068 438.701 181.219 506.566 164.012 572.971C140.948 661.98 94.563 754.081 120.442 842.3C145.846 928.899 210.837 1042.95 301.009 1039.98C425.349 1035.88 484.184 865.762 602.222 826.424C656.175 808.444 703.051 892.672 759.645 887.129C815.318 881.676 872.253 846.33 899.28 797.329C927.687 745.828 901.912 681.63 905.376 622.917C907.651 584.365 890.169 537.277 916.302 508.847C1004.19 413.239 1256.08 402.354 1223.73 276.584C1193.17 157.737 967.564 348.739 859.968 289.815C790.321 251.673 901.453 68.365 822.857 57.0477C732.664 44.0603 731.101 279.068 642.335 258.477C510.272 227.842 514.41 -55.8286 379.2 -45.8682C270.577 -37.8663 419.599 173.765 385.854 277.371Z" stroke="#1F10FF"/>
<path d="M381.316 272.377C362.085 331.421 269.524 330.961 232.253 380.625C190.392 436.404 173.262 505.403 155.767 572.918C132.317 663.415 85.1569 757.055 111.468 846.749C137.297 934.796 203.374 1050.75 295.053 1047.73C421.47 1043.56 481.289 870.603 601.3 830.607C656.154 812.326 703.813 897.962 761.353 892.326C817.956 886.782 875.842 850.846 903.322 801.025C932.203 748.663 905.997 683.393 909.52 623.698C911.833 584.501 894.059 536.626 920.629 507.721C1009.98 410.515 1266.09 399.447 1233.2 271.575C1202.12 150.741 972.747 344.937 863.353 285.028C792.542 246.249 905.531 59.8757 825.623 48.3694C733.923 35.1651 732.333 274.101 642.084 253.166C507.814 222.019 512.021 -66.3932 374.551 -56.266C264.113 -48.1303 415.626 167.038 381.316 272.377Z" stroke="#1F10FF"/>
<path d="M376.788 267.388C357.24 327.403 263.158 326.936 225.274 377.416C182.725 434.113 165.313 504.246 147.531 572.871C123.696 664.856 75.7602 760.036 102.504 851.204C128.757 940.699 195.92 1058.56 289.105 1055.49C417.601 1051.25 478.403 875.45 600.386 834.797C656.142 816.215 704.585 903.259 763.07 897.53C820.604 891.895 879.441 855.367 907.372 804.727C936.728 751.505 910.092 685.161 913.673 624.485C916.023 584.644 897.957 535.981 924.964 506.601C1015.79 407.797 1276.1 396.546 1242.67 266.572C1211.08 143.752 977.939 341.14 866.748 280.247C794.773 240.83 909.619 51.3928 828.397 39.6974C735.19 26.2761 733.574 269.141 641.841 247.862C505.365 216.203 509.642 -76.9516 369.912 -66.6577C257.659 -58.388 411.661 160.318 376.788 267.388Z" stroke="#1F10FF"/>
<path d="M372.263 262.401C352.399 323.387 256.795 322.912 218.299 374.209C175.062 431.822 157.368 503.091 139.298 572.826C115.077 666.298 66.3666 763.018 93.5428 855.66C120.22 946.603 188.469 1066.37 283.161 1063.25C413.734 1058.95 475.52 880.298 599.476 838.987C656.133 820.104 705.359 908.556 764.79 902.735C823.254 897.008 883.043 859.89 911.426 808.431C941.257 754.347 914.19 686.931 917.829 625.273C920.218 584.787 901.859 535.338 929.303 505.482C1021.59 405.08 1286.12 393.647 1252.15 261.571C1220.05 136.764 983.135 337.345 870.145 275.467C797.007 235.413 913.71 42.9112 831.175 31.0268C736.461 17.3884 734.818 264.181 641.602 242.558C502.919 210.388 507.265 -87.5089 365.276 -77.0483C251.208 -68.6446 407.7 153.598 372.263 262.401Z" stroke="#1F10FF"/>
<path d="M367.739 257.397C347.559 319.354 250.434 318.872 211.325 370.985C167.4 429.515 149.425 501.918 131.067 572.763C106.46 667.723 56.9745 765.983 84.583 860.1C111.685 952.49 181.019 1074.16 277.219 1070.99C409.87 1066.62 472.639 885.129 598.567 843.16C656.126 823.977 706.135 913.837 766.512 907.923C825.907 902.105 886.647 864.396 915.482 812.118C945.787 757.173 918.29 688.683 921.986 626.044C924.413 584.914 905.763 534.677 933.643 504.347C1027.4 402.346 1296.13 390.731 1261.63 256.552C1229.02 129.758 988.332 333.533 873.545 270.67C799.242 229.978 917.803 34.4123 833.955 22.3387C737.733 8.48358 736.064 259.205 641.365 237.238C500.474 204.555 504.89 -98.0832 360.642 -87.4558C244.759 -78.9183 403.741 146.862 367.739 257.397Z" stroke="#1F10FF"/>
</svg>
