<svg width="1440" height="826" viewBox="0 0 1440 826" fill="none" xmlns="http://www.w3.org/2000/svg">
<path fill-rule="evenodd" clip-rule="evenodd" d="M673.786 48.0826C688.901 44.2025 704.013 66.5706 718.363 60.4463C741.135 50.7279 744.656 11.6933 769.05 7.4274C787.97 4.11879 802.539 27.656 812.781 43.9348C822.41 59.2382 813.453 82.0703 824.845 96.1097C844.121 119.865 909.056 120.664 898.236 149.247C885.616 182.585 825.572 154.448 795.519 173.582C781.538 182.483 800.088 215.305 784.722 221.518C767.551 228.46 750.01 209.016 735.074 198.021C725.414 190.91 725.876 170.756 713.964 169.429C697.143 167.554 685.296 188.18 668.552 190.608C631.242 196.018 588.477 212.817 556.861 192.209C534.18 177.425 532.121 133.86 548.622 112.433C569.305 85.5747 613.392 95.1532 643.536 79.6556C656.662 72.9071 659.489 51.753 673.786 48.0826Z" stroke="#2714FF" stroke-opacity="0.94"/>
<path fill-rule="evenodd" clip-rule="evenodd" d="M560.992 -142.188C618.93 -157.062 676.86 -71.3179 731.871 -94.7944C819.164 -132.048 832.661 -281.681 926.17 -298.033C998.696 -310.716 1054.55 -220.491 1093.81 -158.088C1130.72 -99.4252 1096.38 -11.902 1140.05 41.9154C1213.94 132.976 1462.86 136.042 1421.38 245.607C1373.01 373.406 1142.84 265.546 1027.63 338.894C974.041 373.015 1045.15 498.831 986.247 522.646C920.424 549.26 853.182 474.723 795.929 432.576C758.899 405.316 760.67 328.06 715.006 322.972C650.527 315.786 605.112 394.852 540.929 404.159C397.906 424.898 233.975 489.294 112.779 410.295C25.8352 353.622 17.9437 186.625 81.1942 104.49C160.48 1.53128 329.483 38.249 445.033 -21.1586C495.349 -47.0277 506.185 -128.118 560.992 -142.188Z" stroke="#2714FF" stroke-opacity="0.94"/>
<path d="M718.628 57.4009C703.48 63.8655 687.529 40.2547 671.574 44.3504C656.483 48.2247 653.499 70.5541 639.644 77.6774C607.826 94.036 561.289 83.9254 539.456 112.276C522.039 134.893 524.212 180.878 548.154 196.484C581.526 218.237 626.667 200.504 666.05 194.794C683.724 192.231 696.229 170.459 713.984 172.438C726.558 173.839 726.071 195.113 736.267 202.619C752.033 214.224 770.548 234.749 788.674 227.421C804.893 220.863 785.313 186.218 800.07 176.822C831.793 156.625 895.173 186.326 908.494 151.135C919.914 120.965 851.372 120.12 831.026 95.0456C819.001 80.2263 828.455 56.1258 818.292 39.9722L817.931 39.3983C807.139 22.2419 791.88 -2.01719 772.131 1.43655C746.382 5.9394 742.665 47.1427 718.628 57.4009Z" stroke="#2714FF" stroke-opacity="0.94"/>
<path d="M718.891 54.356C702.946 61.1608 686.155 36.3074 669.361 40.6186C653.475 44.6969 650.334 68.2014 635.75 75.6997C602.257 92.9193 553.271 82.2765 530.289 112.12C511.956 135.927 514.243 184.332 539.445 200.759C574.574 223.657 622.09 204.991 663.546 198.98C682.15 196.283 695.314 173.365 714.003 175.448C727.239 176.923 726.726 199.316 737.459 207.217C754.054 219.433 773.544 241.038 792.624 233.324C809.697 226.421 789.086 189.953 804.62 180.063C838.012 158.803 904.728 190.066 918.75 153.023C930.772 121.265 858.622 120.377 837.205 93.982C824.547 78.3828 834.499 53.0138 823.8 36.01L823.42 35.406C812.061 17.3466 795.999 -8.18935 775.21 -4.55382C748.106 0.186009 744.194 43.5579 718.891 54.356Z" stroke="#2714FF" stroke-opacity="0.94"/>
<path d="M719.158 51.3128C702.415 58.4578 684.785 32.3618 667.151 36.8886C650.471 41.1707 647.173 65.8505 631.859 73.7237C596.692 91.8043 545.256 80.6293 521.126 111.965C501.876 136.962 504.277 187.788 530.739 205.036C567.624 229.079 617.516 209.48 661.045 203.168C680.579 200.336 694.401 176.272 714.025 178.459C727.923 180.008 727.384 203.52 738.654 211.817C756.078 224.644 776.543 247.329 796.576 239.23C814.504 231.981 792.862 193.69 809.172 183.305C844.235 160.982 914.286 193.809 929.009 154.913C941.632 121.567 865.875 120.634 843.387 92.9201C830.096 76.5409 840.545 49.9034 829.312 32.0495L828.913 31.4154C816.986 12.453 800.121 -14.3598 778.292 -10.5425C749.833 -5.56569 745.725 39.9748 719.158 51.3128Z" stroke="#2714FF" stroke-opacity="0.94"/>
<path d="M719.421 48.2678C701.881 55.7531 683.411 28.4144 664.938 33.1567C647.463 37.6428 644.008 63.4978 627.965 71.7459C591.123 90.6875 537.239 78.9804 511.959 111.808C491.792 137.996 494.308 191.241 522.03 209.311C560.672 234.499 612.939 213.967 658.541 207.354C679.005 204.387 693.485 179.178 714.044 181.469C728.603 183.091 728.039 207.723 739.845 216.415C758.1 229.853 779.539 253.618 800.527 245.133C819.307 237.54 796.635 197.424 813.722 186.545C850.454 163.159 923.841 197.549 939.266 156.802C952.49 121.868 873.125 120.89 849.566 91.8564C835.642 74.6972 846.589 46.7913 834.821 28.0872L834.403 27.4226C821.908 7.55729 804.24 -20.5321 781.372 -16.533C751.557 -11.3192 747.254 36.3899 719.421 48.2678Z" stroke="#2714FF" stroke-opacity="0.94"/>
<path d="M719.687 45.2259C701.35 53.0514 682.04 24.47 662.728 29.4279C644.458 34.1179 640.846 61.1481 624.074 69.7711C585.558 89.5737 529.224 77.3344 502.795 111.654C481.711 139.032 484.342 194.698 513.323 213.589C553.722 239.922 608.365 218.457 656.04 211.544C677.434 208.441 692.573 182.086 714.065 184.481C729.287 186.177 728.697 211.929 741.04 221.016C760.124 235.065 782.538 259.911 804.479 251.039C824.114 243.101 800.41 201.162 818.275 189.789C856.676 165.339 933.399 201.293 949.525 158.693C963.35 122.171 880.378 121.149 855.747 90.7958C841.191 72.8566 852.635 43.6822 840.333 24.1279L839.896 23.4334C826.832 2.66507 808.361 -26.7013 784.454 -22.5205C753.284 -17.0697 748.785 32.808 719.687 45.2259Z" stroke="#2714FF" stroke-opacity="0.94"/>
<path d="M719.951 42.1801C700.817 50.3459 680.667 20.5218 660.515 25.6953C641.451 30.5892 637.682 58.7947 620.181 67.7926C579.99 88.4561 521.206 75.6847 493.629 111.496C471.628 140.065 474.373 198.151 504.615 217.863C546.77 245.341 603.789 222.943 653.536 215.729C675.861 212.492 691.658 184.991 714.085 187.49C729.968 189.26 729.352 216.132 742.232 225.613C762.146 240.273 785.535 266.199 808.43 256.942C828.918 248.658 804.184 204.896 822.825 193.028C862.896 167.516 942.955 205.032 959.781 160.581C974.207 122.471 887.628 121.405 861.927 89.7313C846.737 71.0122 858.679 40.5694 845.842 20.1649L845.386 19.4401C831.755 -2.23119 812.48 -32.8743 787.533 -28.5117C755.008 -22.8239 750.314 29.2224 719.951 42.1801Z" stroke="#2714FF" stroke-opacity="0.94"/>
<path d="M720.216 39.1378C700.285 47.6438 679.296 16.5771 658.304 21.9661C638.446 27.0639 634.52 56.4446 616.289 65.8175C574.423 87.342 513.191 74.0384 484.464 111.342C461.547 141.101 464.406 201.608 495.908 222.141C539.819 250.764 599.214 227.432 651.034 219.918C674.289 216.546 690.744 187.899 714.106 190.502C730.651 192.346 730.009 220.337 743.426 230.214C764.169 245.485 788.533 272.491 812.381 262.848C833.723 254.219 807.959 208.634 827.377 196.271C869.117 169.696 952.512 208.776 970.04 162.472C985.067 122.774 894.88 121.663 868.108 88.6703C852.285 69.1713 864.725 37.46 851.353 16.2053L850.878 15.4504C836.679 -7.12386 816.601 -39.0439 790.615 -34.4995C756.734 -28.5747 751.844 25.6402 720.216 39.1378Z" stroke="#2714FF" stroke-opacity="0.94"/>
<path d="M720.483 36.0939C699.754 44.9401 677.925 12.6307 656.094 18.2353C635.442 23.537 631.359 54.093 612.399 63.8407C568.858 86.2262 505.176 72.3906 475.3 111.186C451.467 142.136 454.44 205.063 487.202 226.418C532.87 256.185 594.641 231.92 648.534 224.105C672.719 220.599 689.832 190.805 714.128 193.513C731.335 195.43 730.667 224.541 744.621 234.813C766.194 250.695 791.532 278.781 816.335 268.753C838.53 259.779 811.735 212.37 831.93 199.513C875.34 171.874 962.07 212.517 980.299 164.361C995.927 123.076 902.133 121.921 874.29 87.6077C857.835 67.3287 870.772 34.349 856.865 12.2441L856.371 11.4588C841.603 -12.0184 820.723 -45.2151 793.697 -40.4889C758.462 -34.3271 753.376 22.0563 720.483 36.0939Z" stroke="#2714FF" stroke-opacity="0.94"/>
<path d="M720.746 33.0494C699.22 42.2358 676.552 8.68377 653.881 14.5039C632.434 20.0096 628.194 51.7407 608.505 61.8634C563.29 85.1099 497.158 70.7421 466.133 111.03C441.383 143.17 444.471 208.517 478.493 230.693C525.917 261.606 590.064 236.407 646.03 228.292C671.145 224.65 688.916 193.711 714.147 196.523C732.015 198.514 731.322 228.745 745.812 239.412C768.216 255.904 794.528 285.071 820.285 274.657C843.334 265.337 815.508 216.105 836.479 202.753C881.559 174.052 971.625 216.258 990.555 166.25C1006.78 123.377 909.383 122.177 880.469 86.5445C863.381 65.4855 876.816 31.2373 862.373 8.28223L861.86 7.46686C846.525 -16.9133 824.842 -51.3869 796.776 -46.4789C760.186 -40.0801 754.904 18.4719 720.746 33.0494Z" stroke="#2714FF" stroke-opacity="0.94"/>
<path d="M721.012 30.0061C698.689 39.5328 675.181 4.73806 651.67 10.7738C629.429 16.4833 625.032 49.3897 604.614 59.8873C557.724 83.9947 489.143 69.0948 456.969 110.875C431.302 144.205 434.505 211.972 469.786 234.97C518.967 267.028 585.49 240.896 643.528 232.48C669.574 228.703 688.003 196.619 714.168 199.534C732.698 201.599 731.98 232.95 747.006 244.011C770.24 261.114 797.526 291.361 824.237 280.562C848.14 270.897 819.284 219.842 841.032 205.996C887.781 176.231 981.183 220 1000.81 168.14C1017.64 123.679 916.635 122.435 886.65 85.4825C868.929 63.6436 882.862 28.1269 867.885 4.32165L867.353 3.47609C851.45 -21.807 828.963 -57.5574 799.858 -52.4677C761.912 -45.8319 756.435 14.8887 721.012 30.0061Z" stroke="#2714FF" stroke-opacity="0.94"/>
<path d="M721.277 26.9611C698.156 36.828 673.809 0.79063 649.458 7.0419C626.423 12.9554 621.869 47.037 600.722 57.9095C552.157 82.8779 481.127 67.4458 447.804 110.718C421.221 145.239 424.537 215.426 461.079 239.245C512.016 272.448 580.915 245.382 641.026 236.666C668.002 232.755 687.089 199.524 714.189 202.544C733.381 204.683 732.637 237.153 748.2 248.609C772.263 266.323 800.524 297.65 828.189 286.465C852.945 276.456 823.059 223.577 845.583 209.236C894.002 178.409 990.74 223.741 1011.07 170.028C1028.5 123.979 923.887 122.691 892.831 84.4188C874.477 61.7999 888.907 25.0148 873.395 0.35935L872.844 -0.516371C856.373 -26.7025 833.083 -63.7297 802.939 -58.4582C763.638 -51.5854 757.965 11.3038 721.277 26.9611Z" stroke="#2714FF" stroke-opacity="0.94"/>
<path d="M721.541 23.9187C697.624 34.1258 672.437 -3.15422 647.246 3.31259C623.417 9.42996 618.706 44.6868 596.829 55.9342C546.59 81.7636 473.111 65.7994 438.638 110.564C411.138 146.275 414.569 218.883 452.371 243.523C505.065 277.87 576.339 249.872 638.523 240.855C666.429 236.809 686.174 202.432 714.209 205.556C734.063 207.769 733.293 241.358 749.392 253.21C774.285 271.535 803.521 303.942 832.14 292.371C857.75 282.017 826.833 227.314 850.134 212.479C900.223 180.589 1000.3 227.484 1021.33 171.919C1039.36 124.282 931.138 122.949 899.011 83.3577C880.024 59.9588 894.952 21.9052 878.905 -3.60038L878.335 -4.50647C861.296 -31.5955 837.203 -69.8994 806.019 -64.4461C765.363 -57.3364 759.495 7.72146 721.541 23.9187Z" stroke="#2714FF" stroke-opacity="0.94"/>
<path d="M721.806 20.8733C697.091 31.4207 671.065 -7.10201 645.034 -0.419623C620.411 5.90165 615.543 42.3337 592.937 53.956C541.023 80.6464 465.094 64.1501 429.473 110.407C401.056 147.308 404.602 222.336 443.663 247.798C498.114 283.29 571.764 254.358 636.02 245.041C664.857 240.86 685.26 205.337 714.229 208.565C734.745 210.852 733.949 245.561 750.586 257.808C776.308 276.743 806.518 310.231 836.091 298.274C862.555 287.574 830.607 231.049 854.685 215.719C906.444 182.766 1009.85 231.224 1031.59 173.807C1050.22 124.582 938.389 123.205 905.192 82.2937C885.572 58.1148 900.997 18.7928 884.415 -7.56302L883.826 -8.49913C866.219 -36.4912 841.323 -76.072 809.1 -70.4369C767.089 -63.0902 761.025 4.13624 721.806 20.8733Z" stroke="#2714FF" stroke-opacity="0.94"/>
<path d="M722.071 17.831C696.559 28.7186 669.693 -11.0468 642.823 -4.14886C617.405 2.37634 612.38 39.9836 589.045 51.9809C535.456 79.5323 457.078 62.5037 420.308 110.253C390.974 148.344 394.634 225.792 434.956 252.075C491.163 288.713 567.189 258.847 633.518 249.23C663.284 244.913 684.347 208.245 714.25 211.577C735.427 213.937 734.606 249.766 751.779 262.408C778.331 281.955 809.516 316.523 840.043 304.18C867.36 293.135 834.382 234.786 859.236 218.962C912.665 184.945 1019.41 234.967 1041.85 175.698C1061.08 124.885 945.641 123.464 911.372 81.2325C891.12 56.2738 907.043 15.6833 889.926 -11.5227L889.318 -12.4892C871.143 -41.3842 845.444 -82.2417 812.181 -76.4248C768.814 -68.8411 762.555 0.553937 722.071 17.831Z" stroke="#2714FF" stroke-opacity="0.94"/>
<path d="M722.336 14.7853C696.026 26.0131 668.321 -14.9949 640.611 -7.88144C614.399 -1.15233 609.216 37.6302 585.152 50.0023C529.889 78.4147 449.062 60.854 411.142 110.095C380.892 149.377 384.666 229.245 426.248 256.35C484.212 294.132 562.613 263.334 631.016 253.415C661.712 248.964 683.432 211.15 714.27 214.586C736.109 217.02 735.262 253.969 752.972 267.006C780.354 287.163 812.513 322.811 843.994 310.083C872.165 298.693 838.156 238.52 863.787 222.201C918.885 187.122 1028.97 238.707 1052.1 177.586C1071.94 125.185 952.892 123.719 917.553 80.1682C896.667 54.4294 913.087 12.5705 895.436 -15.4857L894.809 -16.4827C876.066 -46.2806 849.563 -88.4146 815.261 -82.416C770.54 -74.5953 764.084 -3.03166 722.336 14.7853Z" stroke="#2714FF" stroke-opacity="0.94"/>
<path d="M722.601 11.7429C695.494 23.311 666.949 -18.9397 638.4 -11.6106C611.393 -4.67762 606.054 35.2801 581.26 48.0272C524.322 77.3005 441.046 59.2077 401.977 109.941C370.811 150.413 374.699 232.702 417.541 260.628C477.261 299.555 558.038 267.823 628.513 257.604C660.14 253.018 682.518 214.058 714.29 217.599C736.792 220.106 735.919 258.174 754.166 271.606C782.377 292.375 815.511 329.103 847.945 315.989C876.971 304.254 841.931 242.258 868.339 225.444C925.106 189.302 1038.52 242.45 1062.36 179.477C1082.8 125.488 960.143 123.978 923.733 79.1071C902.215 52.5884 919.133 9.46108 900.946 -19.4453L900.3 -20.472C880.99 -51.1729 853.684 -94.5842 818.342 -88.4038C772.265 -80.3461 765.615 -6.6139 722.601 11.7429Z" stroke="#2714FF" stroke-opacity="0.94"/>
<path d="M722.865 8.69766C694.962 20.606 665.577 -22.8874 636.188 -15.3428C608.387 -8.20585 602.891 32.9272 577.368 46.0491C518.756 76.1835 433.03 57.5585 392.812 109.784C360.729 151.446 364.732 236.155 408.834 264.903C470.31 304.975 553.463 272.31 626.011 261.79C658.568 257.069 681.604 216.963 714.311 220.608C737.474 223.189 736.576 262.377 755.359 276.204C784.4 297.583 818.508 335.392 851.897 321.892C881.776 309.812 845.705 245.992 872.89 228.684C931.327 191.479 1048.08 246.191 1072.62 181.365C1093.66 125.789 967.395 124.234 929.914 78.0432C907.762 50.7445 925.178 6.34864 906.456 -23.4079L905.792 -24.4647C885.913 -56.0686 857.804 -100.757 821.423 -94.3946C773.991 -86.0999 767.145 -10.1991 722.865 8.69766Z" stroke="#2714FF" stroke-opacity="0.94"/>
<path d="M723.13 5.65497C694.429 17.9036 664.205 -26.8325 633.976 -19.0723C605.381 -11.7315 599.728 30.5767 573.476 44.0736C513.189 75.0689 425.014 55.9119 383.647 109.629C350.647 152.482 354.764 239.612 400.126 269.18C463.359 310.397 548.888 276.799 623.509 265.978C656.996 261.123 680.69 219.871 714.331 223.62C738.156 226.275 737.232 266.582 756.552 280.805C786.423 302.794 821.506 341.683 855.849 327.798C886.581 315.372 849.48 249.729 877.442 231.927C937.548 193.659 1057.64 249.933 1082.88 183.256C1104.52 126.091 974.646 124.492 936.094 76.9818C913.31 48.9031 931.223 3.23884 911.967 -27.3679L911.283 -28.4552C890.836 -60.962 861.925 -106.927 824.504 -100.383C775.717 -91.851 768.675 -13.7817 723.13 5.65497Z" stroke="#2714FF" stroke-opacity="0.94"/>
<path d="M723.394 2.61001C693.895 15.1988 662.832 -30.7799 631.763 -22.8042C602.374 -15.2594 596.563 28.224 569.582 42.0958C507.621 73.9521 416.996 54.2629 374.48 109.472C340.563 153.516 344.795 243.065 391.417 273.455C456.406 315.817 544.311 281.285 621.005 270.165C655.422 265.174 679.775 222.776 714.35 226.629C738.837 229.358 737.887 270.785 757.744 285.403C788.445 308.003 824.502 347.972 859.798 333.701C891.385 320.931 853.253 253.464 881.991 235.167C943.768 195.836 1067.19 253.674 1093.13 185.144C1115.37 126.392 981.896 124.748 942.273 75.9181C918.856 47.0595 937.267 0.126786 917.476 -31.3302L916.773 -32.4477C895.758 -65.8575 866.043 -113.099 827.583 -106.373C777.441 -97.6045 770.203 -17.3665 723.394 2.61001Z" stroke="#2714FF" stroke-opacity="0.94"/>
<path d="M723.66 -0.43303C693.364 12.496 661.461 -34.7254 629.553 -26.5341C599.369 -18.7854 593.401 25.8733 565.691 40.12C502.055 72.8372 408.981 52.6159 365.316 109.318C330.483 154.551 334.829 246.521 382.711 277.732C449.456 321.239 539.737 285.774 618.503 274.353C653.851 269.227 678.862 225.684 714.372 229.641C739.52 232.443 738.545 274.99 758.938 290.003C790.469 313.214 827.5 354.263 863.751 339.607C896.191 326.491 857.029 257.201 886.544 238.41C949.99 198.015 1076.75 257.416 1103.39 187.034C1126.23 126.694 989.149 125.006 948.455 74.8564C924.405 45.2178 943.313 -2.98334 922.987 -35.2905L922.265 -36.4382C900.682 -70.751 870.165 -119.269 830.665 -112.362C779.167 -103.356 771.734 -20.9495 723.66 -0.43303Z" stroke="#2714FF" stroke-opacity="0.94"/>
<path d="M723.924 -3.47767C692.832 9.79164 660.089 -38.6724 627.341 -30.2656C596.363 -22.313 590.238 23.5209 561.799 38.1425C496.488 71.7208 400.965 50.9673 356.151 109.161C320.401 155.585 324.861 249.975 374.003 282.008C442.505 326.659 535.162 290.261 616.001 278.539C652.278 273.279 677.948 228.59 714.392 232.651C740.202 235.527 739.201 279.194 760.131 294.601C792.492 318.423 830.498 360.553 867.702 345.511C900.996 332.05 860.803 260.936 891.095 241.651C956.21 200.193 1086.31 261.157 1113.65 188.923C1137.09 126.995 996.4 125.262 954.635 73.7931C929.952 43.3745 949.358 -6.09509 928.497 -39.2524L927.756 -40.4305C905.606 -75.6462 874.285 -125.441 833.746 -118.352C780.893 -109.109 773.264 -24.534 723.924 -3.47767Z" stroke="#2714FF" stroke-opacity="0.94"/>
<path d="M724.19 -6.52084C692.3 7.08871 658.718 -42.6181 625.13 -33.9956C593.358 -25.8391 587.076 21.17 557.908 36.1665C490.922 70.6057 392.95 49.3201 346.987 109.006C310.32 156.621 314.895 253.431 365.297 286.285C435.555 332.081 530.588 294.75 613.5 282.727C650.707 277.332 677.035 231.497 714.414 235.662C740.886 238.612 739.859 283.398 761.326 299.201C794.516 323.634 833.497 366.844 871.655 351.416C905.802 337.61 864.579 264.673 895.647 244.893C962.432 202.372 1095.86 264.9 1123.91 190.813C1147.95 127.297 1003.65 125.52 960.817 72.7312C935.501 41.5327 955.405 -9.20536 934.009 -43.2129L933.249 -44.4209C910.53 -80.5397 878.406 -131.612 836.828 -124.341C782.62 -114.861 774.795 -28.1171 724.19 -6.52084Z" stroke="#2714FF" stroke-opacity="0.94"/>
<path d="M724.454 -9.56576C691.766 4.38403 657.344 -46.5654 622.917 -37.7274C590.35 -29.367 583.912 18.8174 554.014 34.1888C485.353 69.489 384.932 47.6712 337.82 108.849C300.236 157.654 304.925 256.885 356.588 290.56C428.602 337.501 526.011 299.237 610.995 286.914C649.133 281.384 676.119 234.402 714.432 238.672C741.566 241.696 740.514 287.601 762.517 303.799C796.537 328.843 836.492 373.133 875.605 357.319C910.605 343.168 868.352 268.408 900.197 248.133C968.652 204.55 1105.42 268.64 1134.16 192.702C1158.81 127.598 1010.9 125.776 966.996 71.6675C941.047 39.6891 961.448 -12.3174 939.517 -47.1751L938.738 -48.4135C915.452 -85.4352 882.525 -137.784 839.907 -130.331C784.344 -120.614 776.323 -31.7019 724.454 -9.56576Z" stroke="#2714FF" stroke-opacity="0.94"/>
<path d="M724.72 -12.6088C691.236 1.68119 655.974 -50.5109 620.707 -41.4574C587.346 -32.893 580.751 16.4666 550.123 32.2129C479.788 68.3741 376.917 46.0242 328.656 108.695C290.156 158.69 294.96 260.341 347.882 294.837C421.653 342.923 521.437 303.725 608.495 291.102C647.563 285.437 675.207 237.31 714.455 241.683C742.25 244.781 741.172 291.806 763.712 308.399C798.562 334.054 839.492 379.424 879.558 363.225C915.412 348.728 872.128 272.145 904.75 251.375C974.874 206.729 1114.98 272.383 1144.42 194.592C1169.67 127.9 1018.16 126.034 973.178 70.6057C946.597 37.8473 967.495 -15.4276 945.03 -51.1355L944.232 -52.4037C920.377 -90.3285 886.647 -143.954 842.99 -136.32C786.071 -126.366 777.855 -35.2849 724.72 -12.6088Z" stroke="#2714FF" stroke-opacity="0.94"/>
<path d="M724.984 -15.6536C690.702 -1.02331 654.601 -54.4581 618.494 -45.189C584.339 -36.4207 577.586 14.1141 546.23 30.2354C474.22 67.2575 368.9 44.3755 319.49 108.538C280.073 159.724 284.991 263.795 339.173 299.112C414.701 348.344 516.861 308.212 605.991 295.288C645.989 289.489 674.291 240.216 714.474 244.693C742.931 247.865 741.828 296.01 764.904 312.997C800.583 339.263 842.488 385.714 883.508 369.128C920.216 354.287 875.901 275.88 909.3 254.616C981.094 208.907 1124.53 276.124 1154.68 196.481C1180.53 128.201 1025.41 126.291 979.357 69.5423C952.143 36.004 973.539 -18.5395 950.538 -55.0975L949.721 -56.3963C925.299 -95.2239 890.766 -150.126 846.069 -142.31C787.795 -132.119 779.384 -38.8696 724.984 -15.6536Z" stroke="#2714FF" stroke-opacity="0.94"/>
<path d="M725.25 -18.6967C690.17 -3.72616 653.23 -58.4036 616.283 -48.9189C581.334 -39.9468 574.424 11.7633 542.338 28.2595C468.654 66.1426 360.885 42.7284 310.325 108.383C269.992 160.759 275.024 267.25 330.467 303.39C407.751 353.766 512.286 312.701 603.489 299.477C644.418 293.542 673.378 243.123 714.495 247.705C743.614 250.95 742.485 300.215 766.098 317.597C802.607 344.474 845.486 392.005 887.46 375.034C925.022 359.847 879.677 279.616 913.852 257.858C987.316 211.086 1134.09 279.866 1164.94 198.371C1191.39 128.503 1032.66 126.548 985.539 68.4805C957.691 34.1622 979.585 -21.6497 956.05 -59.0579L955.214 -60.3871C930.223 -100.118 894.887 -156.296 849.151 -148.298C789.522 -137.871 780.915 -42.4526 725.25 -18.6967Z" stroke="#2714FF" stroke-opacity="0.94"/>
<path d="M725.515 -21.7397C689.638 -6.42893 651.858 -62.349 614.072 -52.6488C578.328 -43.4727 571.261 9.41253 538.446 26.2837C463.088 65.0278 352.869 41.0814 301.161 108.228C259.91 161.795 265.057 270.706 321.759 307.667C400.8 359.188 507.712 317.19 600.987 303.665C642.846 297.595 672.465 246.03 714.516 250.716C744.297 254.035 743.142 304.419 767.292 322.197C804.631 349.684 848.484 398.296 891.412 380.939C929.828 365.407 883.452 283.353 918.404 261.1C993.537 213.265 1143.65 283.608 1175.2 200.261C1202.25 128.806 1039.91 126.806 991.72 67.4188C963.239 32.3205 985.631 -24.7598 961.56 -63.0182L960.705 -64.3773C935.147 -105.011 899.007 -162.467 852.232 -154.287C791.248 -143.622 782.445 -46.0355 725.515 -21.7397Z" stroke="#2714FF" stroke-opacity="0.94"/>
<path d="M725.779 -24.7848C689.105 -9.13383 650.485 -66.2966 611.86 -56.3808C575.321 -47.0009 568.097 7.05963 534.553 24.3057C457.52 63.9108 344.852 39.4323 291.994 108.071C249.827 162.828 255.088 274.16 313.051 311.942C393.848 364.608 503.135 321.676 598.484 307.851C641.273 301.646 671.55 248.936 714.535 253.726C744.978 257.118 743.798 308.622 768.484 326.795C806.653 354.893 851.481 404.585 895.363 386.842C934.632 370.965 887.225 287.088 922.954 264.341C999.757 215.442 1153.2 287.349 1185.45 202.149C1213.1 129.106 1047.16 127.062 997.899 66.355C968.786 30.4767 991.675 -27.8721 967.07 -66.9807L966.196 -68.3698C940.07 -109.906 903.127 -168.639 855.312 -160.278C792.972 -149.376 783.974 -49.6206 725.779 -24.7848Z" stroke="#2714FF" stroke-opacity="0.94"/>
<path d="M726.044 -27.828C688.574 -11.8368 649.114 -70.2422 609.649 -60.1109C572.316 -50.527 564.935 4.70875 530.662 22.3297C451.954 62.7958 336.836 37.7852 282.83 107.916C239.746 163.863 245.122 277.615 304.344 316.219C386.898 370.03 498.561 326.165 595.983 312.039C639.702 305.7 670.637 251.843 714.557 256.737C745.661 260.203 744.455 312.827 769.678 331.395C808.677 360.104 854.479 410.875 899.315 392.748C939.438 376.525 891.001 290.825 927.506 267.583C1005.98 217.621 1162.76 291.091 1195.71 204.04C1223.96 129.408 1054.41 127.32 1004.08 65.2931C974.335 28.6349 997.721 -30.9824 972.581 -70.9412L971.688 -72.3608C944.994 -114.8 907.248 -174.81 858.393 -166.266C794.699 -155.128 785.505 -53.2036 726.044 -27.828Z" stroke="#2714FF" stroke-opacity="0.94"/>
<path d="M726.308 -30.8725C688.04 -14.541 647.741 -74.1891 607.436 -63.8422C569.309 -54.0544 561.772 2.35652 526.769 20.3524C446.386 61.6795 328.819 36.1367 273.664 107.76C229.664 164.897 235.153 281.07 295.636 320.494C379.946 375.45 493.985 330.652 593.479 316.226C638.129 309.751 669.722 254.749 714.576 259.747C746.343 263.287 745.111 317.031 770.871 335.994C810.699 365.313 857.476 417.165 903.266 398.651C944.242 382.084 894.775 294.56 932.057 270.824C1012.2 219.799 1172.32 294.832 1205.97 205.928C1234.82 129.709 1061.66 127.577 1010.26 64.2299C979.881 26.7917 1003.77 -34.094 978.09 -74.903L977.178 -76.3527C949.916 -119.695 911.367 -180.981 861.473 -172.256C796.423 -160.881 787.034 -56.788 726.308 -30.8725Z" stroke="#2714FF" stroke-opacity="0.94"/>
<path d="M726.573 -33.9175C687.508 -17.2458 646.37 -78.1366 605.225 -67.5741C566.304 -57.5824 558.609 0.00377487 522.877 18.3745C440.82 60.5626 320.803 34.4877 264.499 107.603C219.582 165.931 225.186 284.523 286.929 324.769C372.995 380.87 489.41 335.139 590.977 320.412C636.557 313.803 668.808 257.654 714.597 262.757C747.025 266.371 745.768 321.233 772.064 340.592C812.722 370.522 860.474 423.454 907.217 404.555C949.048 387.642 898.549 298.295 936.608 274.064C1018.42 221.977 1181.87 298.573 1216.23 207.817C1245.68 130.01 1068.91 127.833 1016.44 63.1662C985.429 24.948 1009.81 -37.2061 983.601 -78.8653L982.67 -80.3452C954.84 -124.591 915.488 -187.154 864.554 -178.247C798.149 -166.634 788.564 -60.3729 726.573 -33.9175Z" stroke="#2714FF" stroke-opacity="0.94"/>
<path d="M726.838 -36.9606C686.976 -19.9487 644.998 -82.0821 603.013 -71.3041C563.298 -61.1085 555.446 -2.3471 518.985 16.3986C435.253 59.4476 312.787 32.8405 255.334 107.448C209.5 166.966 215.218 287.979 278.221 329.046C366.044 386.292 484.835 339.628 588.475 324.6C634.984 317.856 667.894 260.561 714.617 265.768C747.707 269.456 746.424 325.438 773.257 345.192C814.745 375.733 863.471 429.745 911.169 410.46C953.853 393.202 902.324 302.032 941.159 277.306C1024.64 224.156 1191.43 302.315 1226.49 209.707C1256.54 130.312 1076.17 128.091 1022.62 62.1044C990.977 23.1062 1015.86 -40.3164 989.111 -82.8257L988.161 -84.3356C959.763 -129.484 919.608 -193.324 867.635 -184.235C799.875 -172.386 790.094 -63.956 726.838 -36.9606Z" stroke="#2714FF" stroke-opacity="0.94"/>
<path d="M727.104 -40.0028C686.444 -22.6506 643.626 -86.0267 600.802 -75.0331C560.292 -64.6336 552.283 -4.69694 515.093 14.4237C429.686 58.3337 304.772 31.1945 246.169 107.294C199.419 168.003 205.251 291.436 269.514 333.324C359.094 391.715 480.26 344.117 585.973 328.789C633.413 321.91 666.98 263.47 714.638 268.781C748.39 272.542 747.081 329.644 774.451 349.792C816.768 380.945 866.469 436.037 915.121 416.367C958.658 398.764 906.099 305.769 945.711 280.549C1030.86 226.336 1200.99 306.058 1236.74 211.598C1267.4 130.615 1083.42 128.349 1028.8 61.0435C996.525 21.2654 1021.9 -43.4256 994.622 -86.7852L993.653 -88.3255C964.687 -134.377 923.729 -199.493 870.716 -190.223C801.601 -178.136 791.625 -67.538 727.104 -40.0028Z" stroke="#2714FF" stroke-opacity="0.94"/>
<path d="M727.368 -43.0484C685.911 -25.3559 642.254 -89.9747 598.59 -78.7656C557.286 -68.1621 549.12 -7.05026 511.2 12.4453C424.119 57.2162 296.755 29.5449 237.003 107.137C189.336 169.036 195.283 294.889 260.806 337.599C352.142 397.134 475.684 348.604 583.47 332.975C631.84 325.961 666.066 266.375 714.658 271.79C749.072 275.625 747.737 333.847 775.644 354.39C818.791 386.153 869.466 442.326 919.072 422.269C963.463 404.321 909.873 309.504 950.262 283.789C1037.08 228.513 1210.54 309.798 1247 213.486C1278.26 130.915 1090.67 128.605 1034.98 59.9793C1002.07 19.4212 1027.95 -46.5383 1000.13 -90.748L999.144 -92.3186C969.61 -139.273 927.849 -205.666 873.797 -196.214C803.326 -183.89 793.154 -71.1235 727.368 -43.0484Z" stroke="#2714FF" stroke-opacity="0.94"/>
<path d="M727.633 -46.0908C685.379 -28.0582 640.882 -93.9196 596.379 -82.4949C554.28 -71.6876 545.957 -9.40047 507.308 10.47C418.553 56.102 288.739 27.8985 227.838 106.982C179.255 170.072 185.316 298.345 252.099 341.877C345.192 402.557 471.109 353.093 580.968 337.163C630.268 330.015 665.152 269.283 714.679 274.802C749.754 278.711 748.394 338.052 776.837 358.99C820.814 391.364 872.464 448.617 923.024 428.175C968.269 409.882 913.648 313.241 954.813 287.032C1043.3 230.693 1220.1 313.541 1257.26 215.377C1289.12 131.218 1097.92 128.863 1041.16 58.918C1007.62 17.5801 1033.99 -49.6479 1005.64 -94.7079L1004.64 -96.3086C974.533 -144.166 931.969 -211.836 876.878 -202.202C805.052 -189.641 794.684 -74.7059 727.633 -46.0908Z" stroke="#2714FF" stroke-opacity="0.94"/>
<path d="M727.898 -49.1366C684.846 -30.7637 639.51 -97.8678 594.167 -86.2275C551.274 -75.2162 542.794 -11.7539 503.416 8.49144C412.985 54.9844 280.723 26.2488 218.673 106.825C169.172 171.104 175.348 301.798 243.391 346.151C338.24 407.976 466.534 357.579 578.465 341.349C628.695 334.065 664.238 272.187 714.699 277.811C750.436 281.793 749.05 342.254 778.03 363.588C822.837 396.572 875.461 454.906 926.975 434.078C973.073 415.44 917.422 316.975 959.364 290.272C1049.52 232.869 1229.66 317.281 1267.52 217.264C1299.97 131.518 1105.17 129.119 1047.34 57.8536C1013.17 15.7356 1040.04 -52.7607 1011.15 -98.6709L1010.13 -100.302C979.456 -149.062 936.089 -218.009 879.958 -208.193C806.777 -195.396 796.214 -78.2915 727.898 -49.1366Z" stroke="#2714FF" stroke-opacity="0.94"/>
<path d="M728.163 -52.179C684.314 -33.4659 638.138 -101.813 591.956 -89.9568C548.268 -78.7416 539.631 -14.1041 499.524 6.51616C407.419 53.8701 272.707 24.6023 209.508 106.671C159.091 172.141 165.381 305.255 234.684 350.429C331.29 413.399 461.959 362.068 575.963 345.538C627.124 338.119 663.324 275.095 714.72 280.823C751.119 284.879 749.708 346.46 779.224 368.188C824.86 401.784 878.459 461.197 930.927 439.984C977.879 421.001 921.197 320.712 963.916 293.515C1055.75 235.049 1239.21 321.024 1277.77 219.155C1310.83 131.821 1112.42 129.377 1053.52 56.7925C1018.72 13.8946 1046.08 -55.8703 1016.66 -102.631L1015.62 -104.291C984.381 -153.955 940.21 -224.179 883.04 -214.181C808.503 -201.147 797.745 -81.8739 728.163 -52.179Z" stroke="#2714FF" stroke-opacity="0.94"/>
<path d="M728.428 -55.2243C683.781 -36.1709 636.766 -105.76 589.743 -93.6889C545.262 -82.2698 536.468 -16.4571 495.632 4.53811C401.852 52.753 264.69 22.9531 200.342 106.514C149.009 173.174 155.413 308.708 225.976 354.704C324.338 418.819 457.384 366.555 573.46 349.723C625.551 342.17 662.41 278.001 714.74 283.832C751.801 287.962 750.364 350.663 780.417 372.786C826.883 406.993 881.456 467.486 934.878 445.887C982.684 426.558 924.972 324.447 968.467 296.755C1061.97 237.226 1248.77 324.764 1288.03 221.043C1321.69 132.121 1119.67 129.633 1059.7 55.7286C1024.26 12.0507 1052.13 -58.9826 1022.17 -106.593L1021.11 -108.284C989.303 -158.851 944.33 -230.351 886.12 -220.172C810.228 -206.9 799.274 -85.459 728.428 -55.2243Z" stroke="#2714FF" stroke-opacity="0.94"/>
<path d="M728.693 -58.267C683.25 -38.8734 635.395 -109.705 587.532 -97.4185C542.257 -85.7955 533.305 -18.8075 491.74 2.5626C396.285 51.6385 256.675 21.3064 191.177 106.359C138.927 174.21 145.446 312.164 217.269 358.981C317.388 424.241 452.809 371.044 570.958 353.912C623.979 346.224 661.496 280.908 714.761 286.844C752.484 291.048 751.021 354.868 781.61 377.387C828.906 412.204 884.454 473.778 938.83 451.793C987.489 432.119 928.747 328.184 973.019 299.997C1068.19 239.406 1258.33 328.507 1298.29 222.934C1332.55 132.424 1126.93 129.891 1065.89 54.6671C1029.81 10.2093 1058.17 -62.0925 1027.68 -110.553L1026.6 -112.275C994.227 -163.744 948.451 -236.521 889.201 -226.16C811.955 -212.652 800.805 -89.0417 728.693 -58.267Z" stroke="#2714FF" stroke-opacity="0.94"/>
<path d="M728.956 -61.3117C682.716 -41.5778 634.021 -113.653 585.319 -101.15C539.249 -89.3232 530.141 -21.16 487.846 0.585057C390.717 50.5219 248.657 19.6577 182.011 106.202C128.844 175.243 135.477 315.618 208.561 363.256C310.435 429.661 448.232 375.531 568.454 358.098C622.406 350.275 660.581 283.814 714.78 289.854C753.164 294.131 751.676 359.071 782.802 381.985C830.928 417.413 887.45 480.067 942.78 457.696C992.293 437.677 932.52 331.919 977.569 303.238C1074.41 241.583 1267.88 332.248 1308.55 224.823C1343.41 132.725 1134.18 130.148 1072.06 53.6037C1035.36 8.36591 1064.22 -65.2043 1033.19 -114.515L1032.09 -116.267C999.149 -168.639 952.569 -242.693 892.281 -232.15C813.679 -218.405 802.333 -92.6263 728.956 -61.3117Z" stroke="#2714FF" stroke-opacity="0.94"/>
<path d="M729.223 -64.3549C682.185 -44.2808 632.651 -117.598 583.109 -104.88C536.245 -92.8493 526.98 -23.5109 483.955 -1.39096C385.152 49.4069 240.642 18.0106 172.847 106.047C118.763 176.279 125.511 319.074 199.855 367.533C303.486 435.083 443.659 380.019 565.954 362.286C620.835 354.329 659.668 286.721 714.802 292.865C753.848 297.216 752.334 363.276 783.997 386.585C832.952 422.623 890.449 486.358 946.733 463.602C997.1 443.238 936.296 335.656 982.121 306.48C1080.63 243.762 1277.44 335.99 1318.81 226.713C1354.27 133.027 1141.43 130.406 1078.25 52.5418C1040.91 6.52405 1070.26 -68.3146 1038.7 -118.476L1037.58 -120.257C1004.07 -173.532 956.691 -248.864 895.363 -238.139C815.406 -224.156 803.865 -96.2094 729.223 -64.3549Z" stroke="#2714FF" stroke-opacity="0.94"/>
<path d="M729.486 -67.3995C681.651 -46.9851 631.277 -121.545 580.896 -108.612C533.237 -96.3769 523.815 -25.8632 480.062 -3.36837C379.583 48.2904 232.625 16.362 163.68 105.891C108.68 177.313 115.542 322.528 191.146 371.809C296.533 440.504 439.082 384.507 563.449 366.473C619.261 358.38 658.753 289.627 714.821 295.875C754.529 300.3 752.989 367.479 785.189 391.183C834.974 427.833 893.445 492.648 950.683 469.506C1001.9 448.796 940.069 339.391 986.671 309.721C1086.85 245.94 1287 339.731 1329.06 228.602C1365.13 133.328 1148.68 130.662 1084.43 51.4786C1046.45 4.68086 1076.31 -71.4263 1044.21 -122.438L1043.07 -124.25C1009 -178.428 960.81 -255.036 898.442 -244.129C817.13 -229.91 805.393 -99.7939 729.486 -67.3995Z" stroke="#2714FF" stroke-opacity="0.94"/>
<path d="M729.752 -70.4425C681.12 -49.6879 629.907 -125.491 578.686 -112.342C530.233 -99.9029 520.654 -28.214 476.171 -5.34423C374.018 47.1756 224.61 14.7149 154.517 105.736C98.5998 178.348 105.576 325.984 182.44 376.086C289.584 445.926 434.508 388.995 560.949 370.661C617.691 362.434 657.84 292.535 714.843 298.887C755.213 303.386 753.647 371.684 786.384 395.783C836.999 433.044 896.444 498.939 954.636 475.411C1006.71 454.356 943.845 343.128 991.224 312.963C1093.07 248.12 1296.55 343.474 1339.32 230.492C1375.99 133.63 1155.93 130.92 1090.61 50.4168C1052 2.83913 1082.35 -74.5365 1049.73 -126.398L1048.57 -128.24C1013.92 -183.321 964.932 -261.206 901.525 -250.118C818.857 -235.661 806.925 -103.377 729.752 -70.4425Z" stroke="#2714FF" stroke-opacity="0.94"/>
<path d="M730.016 -73.4873C680.586 -52.3925 628.533 -129.438 576.473 -116.073C527.226 -103.431 517.489 -30.5666 472.277 -7.32192C368.45 46.0589 216.593 13.0661 145.35 105.579C88.5165 179.382 95.6073 329.438 173.731 380.361C282.631 451.346 429.932 393.482 558.445 374.848C616.117 366.485 656.925 295.44 714.862 301.897C755.894 306.469 754.303 375.887 787.575 400.381C839.02 438.253 899.441 505.228 958.586 481.315C1011.51 459.915 947.618 346.863 995.774 316.204C1099.29 250.297 1306.11 347.214 1349.58 232.381C1386.85 133.931 1163.18 131.176 1096.79 49.3534C1057.55 0.995658 1088.4 -77.6484 1055.23 -130.36L1054.06 -132.232C1018.84 -188.216 969.05 -267.378 904.604 -256.108C820.581 -241.414 808.453 -106.962 730.016 -73.4873Z" stroke="#2714FF" stroke-opacity="0.94"/>
<path d="M730.281 -76.5299C680.054 -55.0949 627.162 -133.383 574.262 -119.803C524.22 -106.956 514.327 -32.9168 468.386 -9.29724C362.884 44.9445 208.577 11.4197 136.185 105.425C78.435 180.418 85.6402 332.894 165.024 384.639C275.681 456.768 425.357 397.971 555.943 379.036C614.545 370.539 656.011 298.348 714.883 304.909C756.576 309.555 754.959 380.093 788.769 404.982C841.044 443.464 902.439 511.519 962.538 487.22C1016.32 465.476 951.393 350.6 1000.33 319.446C1105.51 252.477 1315.67 350.957 1359.84 234.271C1397.7 134.234 1170.43 131.435 1102.97 48.292C1063.1 -0.84563 1094.44 -80.7581 1060.75 -134.32L1059.55 -136.223C1023.77 -193.11 973.171 -273.548 907.685 -262.096C822.307 -247.165 809.984 -110.544 730.281 -76.5299Z" stroke="#2714FF" stroke-opacity="0.94"/>
<path d="M730.546 -79.5761C679.522 -57.8009 625.79 -137.332 572.05 -123.536C521.214 -110.485 511.163 -35.2708 464.493 -11.2763C357.316 43.8265 200.56 9.76946 127.02 105.267C68.3527 181.45 75.6722 336.347 156.316 388.913C268.729 462.187 420.781 402.457 553.44 383.221C612.973 374.589 655.097 301.252 714.903 307.917C757.258 312.637 755.616 384.295 789.962 409.579C843.066 448.672 905.436 517.807 966.489 493.122C1021.12 471.033 955.167 354.334 1004.88 322.685C1111.73 254.653 1325.22 354.697 1370.09 236.158C1408.56 134.533 1177.69 131.689 1109.15 47.2271C1068.64 -2.69053 1100.49 -83.8715 1066.25 -138.283L1065.04 -140.216C1028.69 -198.006 977.291 -279.721 910.766 -268.088C824.033 -252.92 811.513 -114.13 730.546 -79.5761Z" stroke="#2714FF" stroke-opacity="0.94"/>
<path d="M730.811 -82.6184C678.989 -60.5029 624.418 -141.276 569.838 -127.265C518.208 -114.011 508.001 -37.6208 460.601 -13.2514C351.75 42.7123 192.545 8.12317 117.855 105.113C58.2711 182.487 65.705 339.803 147.609 393.191C261.779 467.61 416.206 406.946 550.938 387.41C611.401 378.643 654.183 304.16 714.924 310.929C757.941 315.723 756.273 388.5 791.155 414.179C845.089 453.883 908.433 524.099 970.441 499.029C1025.93 476.594 958.942 358.071 1009.43 325.929C1117.95 256.833 1334.78 358.44 1380.35 238.049C1419.42 134.836 1184.94 131.948 1115.33 46.1662C1074.19 -4.53135 1106.53 -86.9808 1071.77 -142.243L1070.53 -144.206C1033.61 -202.899 981.412 -285.891 913.847 -274.075C825.758 -258.671 813.043 -117.712 730.811 -82.6184Z" stroke="#2714FF" stroke-opacity="0.94"/>
<path d="M731.076 -85.664C678.458 -63.2082 623.046 -145.224 567.627 -130.997C515.203 -117.539 504.838 -39.9741 456.709 -15.2298C346.183 41.5949 184.529 6.47357 108.69 104.956C48.1896 183.519 55.7379 343.256 138.902 397.465C254.828 473.03 411.632 411.433 548.436 391.596C609.829 382.694 653.27 307.065 714.945 313.938C758.623 318.806 756.93 392.703 792.349 418.777C847.113 459.092 911.431 530.388 974.393 504.932C1030.74 482.151 962.717 361.806 1013.98 329.168C1124.18 259.01 1344.34 362.18 1390.61 239.937C1430.28 135.136 1192.19 132.204 1121.51 45.1019C1079.74 -6.37562 1112.58 -90.0935 1077.28 -146.206L1076.02 -148.2C1038.54 -207.796 985.532 -292.064 916.928 -280.067C827.484 -264.425 814.574 -121.298 731.076 -85.664Z" stroke="#2714FF" stroke-opacity="0.94"/>
<path d="M731.34 -88.7065C677.924 -65.9105 621.674 -149.169 565.415 -134.727C512.196 -121.065 501.674 -42.3243 452.816 -17.2051C340.616 40.4806 176.512 4.82714 99.5239 104.801C38.1068 184.556 45.7695 346.713 130.193 401.743C247.876 478.452 407.055 415.922 545.933 395.785C608.256 386.748 652.355 309.973 714.964 316.95C759.305 321.891 757.585 396.908 793.542 423.378C849.135 464.303 914.428 536.679 978.343 510.837C1035.54 487.712 966.491 365.543 1018.53 332.411C1130.4 261.189 1353.89 365.923 1400.87 241.828C1441.14 135.439 1199.44 132.462 1127.69 44.0406C1085.29 -8.21689 1118.62 -93.2032 1082.79 -150.166L1081.51 -152.189C1043.46 -212.688 989.652 -298.234 920.008 -286.055C829.209 -270.176 816.103 -124.88 731.34 -88.7065Z" stroke="#2714FF" stroke-opacity="0.94"/>
<path d="M731.605 -91.7518C677.392 -68.6156 620.302 -153.117 563.203 -138.459C509.19 -124.593 498.511 -44.6774 448.924 -19.1833C335.049 39.3634 168.496 3.17783 90.3589 104.644C28.0252 185.589 35.8023 350.166 121.486 406.018C240.925 483.872 402.481 420.408 543.431 399.97C606.684 390.799 651.441 312.878 714.985 319.96C759.987 324.974 758.242 401.111 794.735 427.975C851.158 469.511 917.426 542.968 982.295 516.741C1040.35 493.27 970.266 369.278 1023.08 335.651C1136.62 263.367 1363.45 369.663 1411.13 243.716C1452 135.739 1206.69 132.718 1133.87 42.9766C1090.83 -10.0608 1124.67 -96.3155 1088.3 -154.128L1087 -156.182C1048.38 -217.583 993.772 -304.406 923.089 -292.045C830.935 -275.93 817.633 -128.465 731.605 -91.7518Z" stroke="#2714FF" stroke-opacity="0.94"/>
</svg>
