<svg width="1440" height="826" viewBox="0 0 1440 826" fill="none" xmlns="http://www.w3.org/2000/svg">
<path fill-rule="evenodd" clip-rule="evenodd" d="M505.848 437.068C467.749 436.259 442.136 396.383 406.704 382.178C393.139 376.74 377.992 378.734 363.464 379.987C344.153 381.652 326.273 388.75 306.997 390.774C269.839 394.675 229.946 414.044 196.319 397.534C167.774 383.518 141.104 344.387 151.494 314.423C164.838 275.938 242.079 284.114 249.54 244.041C257.945 198.899 149.499 148.456 187.233 122.461C231.167 92.1946 279.107 188.743 332.518 186.877C359.729 185.926 347.129 128.707 371.177 116.033C391.168 105.498 417.076 120.325 436.486 132.085C455.148 143.392 473.508 160.021 478.732 181.2C484.208 203.399 448.124 231.978 464.952 247.484C500.246 280.005 568.339 256.46 599.773 292.732C620.666 316.841 602.282 359.346 584.96 385.964C567.641 412.58 537.646 437.743 505.848 437.068Z" stroke="#1F10FF"/>
<path fill-rule="evenodd" clip-rule="evenodd" d="M937.165 841.862C794.865 838.865 699.223 689.952 566.89 636.923C516.226 616.621 459.648 624.08 405.384 628.767C333.253 634.997 266.466 661.521 194.469 669.091C55.6766 683.684 -93.3425 756.052 -218.931 694.41C-325.542 642.083 -425.13 495.952 -386.304 384.034C-336.439 240.293 -47.9387 270.776 -20.0459 121.107C11.3756 -47.4963 -393.646 -235.821 -252.688 -332.933C-88.5718 -446 90.4252 -85.4401 289.924 -92.4455C391.561 -96.0144 344.533 -309.709 434.365 -357.059C509.042 -396.42 605.802 -341.059 678.289 -297.15C747.988 -254.931 816.553 -192.838 836.053 -113.741C856.492 -30.8361 721.697 75.9249 784.539 133.825C916.345 255.263 1170.7 167.281 1288.08 302.731C1366.1 392.761 1297.41 551.519 1232.69 650.947C1167.98 750.363 1055.93 844.363 937.165 841.862Z" stroke="#1F10FF"/>
<path d="M409.85 387.176C447.182 402.142 474.168 444.156 514.309 445.008C547.813 445.719 579.416 419.206 597.666 391.163C615.917 363.117 635.287 318.333 613.274 292.931C580.155 254.714 508.409 279.523 471.223 245.258C453.493 228.921 491.512 198.809 485.743 175.42C480.239 153.105 460.894 135.585 441.231 123.672C420.781 111.281 393.484 95.6589 372.421 106.76C347.082 120.113 360.358 180.4 331.688 181.403C275.412 183.37 224.902 81.6447 178.612 113.534C138.854 140.924 253.114 194.07 244.258 241.634C236.397 283.855 155.013 275.242 140.953 315.79C130.006 347.362 158.106 388.591 188.181 403.358C223.611 420.753 265.645 400.344 304.795 396.234C325.105 394.102 343.943 386.622 364.29 384.868C379.597 383.548 395.557 381.447 409.85 387.176Z" stroke="#1F10FF"/>
<path d="M412.986 392.167C452.218 407.894 480.578 452.046 522.762 452.941C557.971 453.688 591.184 425.825 610.362 396.355C629.543 366.881 649.899 319.817 626.766 293.123C591.961 252.961 516.564 279.034 477.485 243.025C458.853 225.857 498.808 194.212 492.745 169.633C486.961 146.182 466.632 127.771 445.968 115.251C424.478 102.231 395.791 85.8134 373.655 97.4794C347.027 111.513 360.978 174.868 330.848 175.922C271.708 177.99 218.629 71.0878 169.982 104.601C128.2 133.385 248.275 189.235 238.968 239.219C230.706 283.59 145.18 274.539 130.404 317.151C118.899 350.33 148.429 393.657 180.035 409.175C217.268 427.455 261.441 406.007 302.585 401.687C323.928 399.446 343.725 391.586 365.108 389.742C381.194 388.355 397.966 386.146 412.986 392.167Z" stroke="#1F10FF"/>
<path d="M416.13 397.167C457.262 413.656 486.995 459.946 531.222 460.883C568.136 461.666 602.958 432.454 623.066 401.555C643.175 370.654 664.519 321.311 640.265 293.324C603.775 251.218 524.726 278.553 483.754 240.802C464.22 222.802 506.11 189.625 499.754 163.855C493.69 139.269 472.377 119.966 450.712 106.84C428.181 93.1889 398.105 75.977 374.897 88.2082C346.979 102.922 361.605 169.345 330.016 170.45C268.011 172.619 212.362 60.5401 161.359 95.6769C117.553 125.856 243.444 184.409 233.685 236.814C225.022 283.333 135.354 273.845 119.862 318.521C107.8 353.307 138.759 398.732 171.896 415.001C210.932 434.166 257.245 411.679 300.381 407.149C322.758 404.8 343.514 396.558 365.933 394.625C382.798 393.171 400.383 390.855 416.13 397.167Z" stroke="#1F10FF"/>
<path d="M419.269 402.157C462.301 419.406 493.406 467.834 539.677 468.815C578.297 469.634 614.727 439.071 635.764 406.746C656.803 374.416 679.133 322.794 653.759 293.514C615.584 249.463 532.882 278.063 490.018 238.568C469.582 219.737 513.408 185.026 506.758 158.066C500.414 132.344 478.117 112.15 455.451 98.4179C431.879 84.1365 400.414 66.1297 376.134 78.9262C346.926 94.3196 362.227 163.811 329.178 164.967C264.309 167.237 206.09 49.9816 152.731 86.7419C106.901 118.315 238.607 179.572 228.397 234.398C219.334 283.066 125.523 273.141 109.315 319.881C96.6946 356.273 129.083 403.796 163.751 420.817C204.591 440.867 253.043 417.34 298.172 412.601C321.583 410.142 343.298 401.52 366.753 399.497C384.397 397.976 402.794 395.553 419.269 402.157Z" stroke="#1F10FF"/>
<path d="M422.409 407.152C467.341 425.163 499.819 475.729 548.133 476.753C588.458 477.607 626.498 445.695 648.464 411.942C670.432 378.185 693.748 324.283 667.254 293.711C627.393 247.715 541.04 277.578 496.284 236.339C474.945 216.678 520.706 180.434 513.763 152.283C507.139 125.426 483.858 104.34 460.192 90.0019C435.579 75.0902 402.724 56.2887 377.372 69.6504C346.874 85.7237 362.85 158.283 328.342 159.491C260.608 161.861 199.82 39.4292 144.104 77.8131C96.2496 110.781 233.771 174.741 223.11 231.988C213.646 282.805 115.693 272.442 98.7683 321.246C85.5908 359.245 119.409 408.867 155.608 426.638C198.251 447.573 248.843 423.008 295.965 418.059C320.409 415.491 343.084 406.488 367.573 404.376C385.997 402.787 405.206 400.257 422.409 407.152Z" stroke="#1F10FF"/>
<path d="M425.549 412.148C472.381 430.92 506.233 483.624 556.59 484.69C598.62 485.581 638.268 452.319 661.164 417.138C684.061 381.954 708.364 325.772 680.75 293.908C639.204 245.967 549.198 277.094 502.55 234.112C480.309 213.618 528.005 175.841 520.769 146.501C513.865 118.508 489.599 96.5304 464.932 81.5863C439.279 66.0442 405.035 46.4479 378.61 60.3748C346.822 77.1281 363.473 152.756 327.506 154.015C256.908 156.486 193.55 28.877 135.477 68.8845C85.5991 103.247 228.936 169.911 217.823 229.578C207.959 282.544 105.863 271.744 88.2228 322.612C74.4877 362.218 109.736 413.937 147.465 432.46C191.911 454.28 244.643 428.675 293.758 423.517C319.236 420.84 342.869 411.457 368.395 409.255C387.598 407.598 407.619 404.961 425.549 412.148Z" stroke="#1F10FF"/>
<path d="M428.691 417.142C477.423 436.675 512.648 491.517 565.049 492.626C608.784 493.552 650.041 458.941 673.866 422.333C697.693 385.721 722.982 327.26 694.247 294.103C651.016 244.218 557.358 276.607 508.817 231.882C485.674 210.557 535.307 171.247 527.777 140.716C520.593 111.588 495.342 88.7189 469.675 73.1686C442.98 56.9961 407.348 36.605 379.85 51.0972C346.773 68.5304 364.099 147.226 326.673 148.537C253.21 151.108 187.282 18.3229 126.853 59.954C74.9506 95.7104 224.102 165.078 212.538 227.166C202.273 282.281 96.0356 271.044 77.679 323.975C63.3864 365.188 100.064 419.006 139.324 438.28C185.574 460.985 240.445 434.341 291.553 428.972C318.064 426.188 342.657 416.423 369.218 414.131C389.2 412.408 410.034 409.663 428.691 417.142Z" stroke="#1F10FF"/>
<path d="M431.828 422.133C482.46 442.427 519.058 499.407 573.501 500.559C618.942 501.521 661.808 465.56 686.562 427.524C711.318 389.485 737.594 328.744 707.739 294.295C662.823 242.465 565.512 276.118 515.079 229.649C491.034 207.493 542.602 166.651 534.779 134.929C527.315 104.665 501.08 80.9047 474.412 64.7483C446.676 47.9455 409.654 26.7596 381.085 41.8169C346.717 59.9301 364.719 141.694 325.833 143.056C249.506 145.728 181.008 7.76616 118.222 51.0208C64.2962 88.1717 219.263 160.243 207.248 224.752C196.582 282.016 86.2021 270.341 67.1295 325.336C52.2792 368.156 90.3871 424.072 131.178 444.097C179.23 467.687 236.241 440.004 289.342 434.426C316.887 431.532 342.439 421.386 370.036 419.006C390.797 417.214 412.443 414.363 431.828 422.133Z" stroke="#1F10FF"/>
<path d="M434.971 427.133C487.503 448.189 525.475 507.306 581.961 508.502C629.107 509.499 673.583 472.188 699.265 432.725C724.951 393.258 752.213 330.238 721.238 294.496C674.636 240.721 573.674 275.638 521.349 227.426C496.401 204.439 549.904 162.063 541.788 129.151C534.044 97.751 506.825 73.0995 479.156 56.337C450.38 38.9038 411.968 16.9232 382.327 32.5457C346.669 51.3388 365.346 136.171 325.001 137.584C245.809 140.357 174.741 -2.78166 109.599 42.0965C53.649 80.6418 214.431 155.417 201.965 222.346C190.898 281.759 76.376 269.647 56.5872 326.706C41.1795 371.133 80.7171 429.147 123.039 449.923C172.894 474.398 232.045 445.676 287.138 439.888C315.717 436.886 342.228 426.359 370.86 423.889C392.401 422.03 414.859 419.072 434.971 427.133Z" stroke="#1F10FF"/>
<path d="M438.117 432.131C492.549 453.948 531.894 515.204 590.424 516.442C639.275 517.476 685.359 478.815 711.971 437.924C738.586 397.029 766.835 331.73 734.739 294.695C686.452 238.976 581.838 275.156 527.62 225.2C501.77 201.382 557.209 157.473 548.799 123.371C540.775 90.8356 512.572 65.2926 483.902 47.924C454.085 29.8605 414.285 7.08502 383.571 23.2728C346.624 42.7458 365.975 130.646 324.17 132.11C242.114 134.984 168.477 -13.331 100.978 33.1707C43.0042 73.1105 209.602 150.589 196.684 219.939C185.217 281.501 66.5521 268.952 46.0472 328.075C30.0819 374.108 71.0493 434.22 114.901 455.748C166.56 481.107 227.851 451.346 284.937 445.349C314.55 442.237 342.019 431.33 371.687 428.77C394.007 426.844 417.278 423.778 438.117 432.131Z" stroke="#1F10FF"/>
<path d="M441.254 437.123C497.586 459.701 538.303 523.095 598.876 524.376C649.433 525.445 697.126 485.434 724.667 443.116C752.211 400.794 781.446 333.215 748.231 294.888C698.259 237.224 589.992 274.667 533.882 222.968C507.13 198.319 564.504 152.877 555.801 117.584C547.497 83.9131 518.309 57.4786 488.639 39.5039C457.781 20.81 416.591 -2.76021 384.805 13.9928C346.568 34.1457 366.594 125.114 323.331 126.63C238.41 129.605 162.203 -23.8876 92.3479 24.2376C32.3498 65.5719 204.762 145.754 191.393 217.525C179.526 281.236 56.7187 268.249 35.4977 329.436C18.9748 377.077 61.3719 439.286 106.755 461.565C160.216 487.81 223.647 457.009 282.726 450.802C313.373 447.582 341.801 436.294 372.505 433.644C395.603 431.651 419.687 428.478 441.254 437.123Z" stroke="#1F10FF"/>
<path d="M444.397 442.122C502.629 465.461 544.72 530.993 607.336 532.317C659.598 533.422 708.9 492.062 737.37 448.316C765.844 404.566 796.065 334.708 761.73 295.088C710.072 235.48 598.154 274.187 540.151 220.744C512.496 195.263 571.806 148.288 562.81 111.806C554.226 76.9987 524.054 49.6728 493.383 31.092C461.484 11.7677 418.905 -12.5973 386.047 4.72088C346.52 25.5537 367.221 119.59 322.498 121.157C234.713 124.233 155.936 -34.436 83.7245 15.3128C21.7025 58.0415 199.93 140.927 186.11 215.119C173.842 280.979 46.8923 267.555 24.9552 330.805C7.87474 380.053 51.7017 444.361 98.6151 467.39C153.88 494.52 219.45 462.68 280.522 456.264C312.203 452.935 341.59 441.266 373.329 438.527C397.207 436.466 422.103 433.186 444.397 442.122Z" stroke="#1F10FF"/>
<path d="M447.536 447.111C507.668 471.212 551.132 538.882 615.791 540.249C669.758 541.389 720.669 498.679 750.069 453.507C779.472 408.329 810.68 336.191 775.224 295.278C721.881 233.725 606.31 273.696 546.415 218.51C517.858 192.198 579.104 143.69 569.814 106.017C560.951 70.0742 529.793 41.8568 498.122 22.6699C465.183 2.71521 421.214 -22.4446 387.284 -4.56122C346.467 16.9515 367.843 114.056 321.661 115.675C231.011 118.851 149.665 -44.9946 75.0965 6.37774C11.0505 50.5009 195.094 136.09 180.822 212.703C168.153 280.712 37.0613 266.85 14.4081 332.164C-3.23003 383.019 42.0268 449.425 90.4709 473.206C147.539 501.22 215.249 468.341 278.314 461.715C311.028 458.278 341.374 446.228 374.149 443.399C398.806 441.271 424.514 437.884 447.536 447.111Z" stroke="#1F10FF"/>
<path d="M450.679 452.112C512.712 476.974 557.548 546.781 624.251 548.191C679.923 549.368 732.443 505.308 762.772 458.708C793.104 412.102 825.299 337.685 788.723 295.48C733.695 231.982 614.472 273.216 552.684 216.286C523.225 189.143 586.406 139.102 576.823 100.239C567.68 63.1607 535.538 34.0519 502.866 14.2589C468.886 -6.32619 423.528 -32.2807 388.525 -13.8321C346.419 8.36057 368.47 108.534 320.828 110.203C227.314 113.48 143.398 -55.5421 66.4732 -2.54615C0.403145 42.9715 190.261 131.264 175.538 210.298C162.469 280.456 27.2349 266.156 3.86559 333.535C-14.33 385.996 32.3565 454.5 82.3313 479.032C141.203 507.932 211.052 474.014 276.11 467.178C309.858 463.632 341.163 451.201 374.974 448.283C400.41 446.087 426.93 442.593 450.679 452.112Z" stroke="#1F10FF"/>
<path d="M453.816 457.103C517.748 482.726 563.958 554.672 632.704 556.124C690.082 557.337 744.211 511.927 775.469 463.899C806.73 415.866 839.911 339.17 802.215 295.672C745.501 230.23 622.626 272.727 558.947 214.054C528.585 186.079 593.702 134.506 583.825 94.4519C574.402 56.2379 541.276 26.2376 507.603 5.83847C472.582 -15.3769 425.835 -42.1262 389.76 -23.1124C346.364 -0.239813 369.09 103.001 319.989 104.722C223.61 108.1 137.124 -66.0989 57.843 -11.4794C-10.251 35.4326 185.422 126.429 170.248 207.883C156.778 280.19 17.4017 265.453 -6.68377 334.896C-25.437 388.964 22.6794 459.566 74.1849 484.849C134.859 514.634 206.849 479.677 273.899 472.631C308.681 468.976 340.945 456.164 375.792 453.157C402.007 450.894 429.339 447.293 453.816 457.103Z" stroke="#1F10FF"/>
<path d="M456.962 462.101C522.794 488.485 570.377 562.569 641.166 564.065C700.249 565.313 755.987 518.553 788.174 469.098C820.365 419.638 854.533 340.661 815.716 295.871C757.317 228.484 630.79 272.245 565.218 211.828C533.954 183.022 601.007 129.916 590.836 88.6719C581.133 49.3223 547.023 18.4305 512.349 -2.57473C476.288 -24.4205 428.152 -51.9646 391.004 -32.3856C346.318 -8.83302 369.719 97.4763 319.159 99.2485C219.916 102.727 130.86 -76.6486 49.2221 -20.4056C-20.8959 27.901 180.593 121.601 164.967 205.476C151.096 279.932 7.57779 264.758 -17.2237 336.264C-36.5345 391.939 13.0116 464.639 66.0478 490.674C128.525 521.343 202.654 485.347 271.698 478.091C307.513 474.328 340.736 461.135 376.619 458.038C403.613 455.708 431.758 451.999 456.962 462.101Z" stroke="#1F10FF"/>
<path d="M460.099 467.092C527.831 494.238 576.787 570.46 649.619 571.998C710.407 573.282 767.754 525.173 800.871 474.29C833.991 423.402 869.144 342.146 829.208 296.063C769.124 226.732 638.945 271.756 571.48 209.596C539.314 179.959 608.302 125.319 597.838 82.885C587.855 42.3997 552.76 10.6165 517.086 -10.9949C479.984 -33.471 430.458 -61.8099 392.239 -41.6656C346.262 -17.4331 370.339 91.9443 318.319 93.7679C216.212 97.3472 124.586 -87.2052 40.5917 -29.3386C-31.5503 20.3624 175.754 116.766 159.677 203.062C145.405 279.666 -2.2556 264.055 -27.7733 337.625C-47.6416 394.907 3.33427 469.705 57.9012 496.491C122.182 528.045 198.451 491.01 269.487 483.545C306.336 479.672 340.518 466.099 377.436 462.912C405.209 460.515 434.167 456.699 460.099 467.092Z" stroke="#1F10FF"/>
<path d="M463.239 472.087C532.871 499.994 583.2 578.354 658.075 579.935C720.569 581.255 779.525 531.796 813.57 479.486C847.62 427.17 883.76 343.635 842.703 296.26C780.934 224.983 647.102 271.271 577.746 207.368C544.677 176.899 615.601 120.727 604.844 77.1021C594.581 35.4812 558.501 2.80649 521.826 -19.411C483.683 -42.5175 432.769 -71.6511 393.477 -50.9417C346.211 -26.0293 370.962 86.4163 317.483 88.2912C212.511 91.9714 118.316 -97.7577 31.965 -38.2676C-42.201 12.8278 170.918 111.935 154.39 200.652C139.718 279.405 -12.0855 263.356 -38.3192 338.99C-58.7452 397.879 -6.33951 474.775 49.7581 502.312C115.842 534.752 194.25 496.677 267.279 489.002C305.162 485.021 340.304 471.067 378.257 467.79C406.81 465.326 436.58 461.403 463.239 472.087Z" stroke="#1F10FF"/>
<path d="M466.381 477.081C537.913 505.75 589.616 586.247 666.534 587.872C730.733 589.227 791.298 538.419 826.272 484.681C861.251 430.938 898.378 345.123 856.201 296.455C792.746 223.234 655.263 270.785 584.013 205.138C550.043 173.839 622.902 116.133 611.851 71.3181C601.308 28.5616 564.245 -5.00454 526.569 -27.8282C487.385 -51.565 435.081 -81.4934 394.717 -60.2188C346.161 -34.6264 371.588 80.8873 316.649 82.8135C208.813 86.5944 112.048 -108.311 23.3404 -47.1977C-52.8496 5.29222 166.085 107.103 149.105 198.24C134.033 279.143 -21.913 262.657 -48.8629 340.354C-69.8464 400.85 -16.0109 479.844 41.6174 508.133C109.504 541.457 190.053 502.343 265.074 494.459C303.991 490.369 340.091 476.033 379.081 472.668C408.412 470.136 438.995 466.106 466.381 477.081Z" stroke="#1F10FF"/>
<path d="M469.521 482.077C542.953 511.506 596.029 594.142 674.99 595.809C740.895 597.2 803.068 545.042 838.972 489.877C874.88 434.706 912.993 346.612 869.697 296.651C804.556 221.486 663.421 270.3 590.279 202.91C555.406 170.779 630.2 111.54 618.857 65.5352C608.034 21.643 569.986 -12.8146 531.309 -36.2443C491.085 -60.6115 437.392 -91.3347 395.955 -69.4949C346.109 -43.2226 372.211 75.3593 315.813 77.3368C205.112 81.2185 105.778 -118.864 14.7137 -56.1268C-63.5002 -2.24241 161.249 102.272 143.819 195.83C128.345 278.882 -31.7427 261.958 -59.4087 341.719C-80.9498 403.822 -25.6846 484.914 33.4744 513.954C103.165 548.163 185.853 508.01 262.867 499.916C302.818 495.717 339.877 481.001 379.902 477.546C410.012 474.947 441.407 470.809 469.521 482.077Z" stroke="#1F10FF"/>
<path d="M472.665 487.077C547.997 517.268 602.446 602.041 683.45 603.751C751.06 605.179 814.843 551.67 851.676 495.078C888.513 438.479 927.613 348.105 883.196 296.852C816.37 219.742 671.582 269.82 596.548 200.686C560.773 167.724 637.503 106.953 625.866 59.7571C614.763 14.7292 575.731 -20.6198 536.053 -44.6557C494.788 -69.6532 439.706 -101.171 397.197 -78.7662C346.061 -51.814 372.838 69.8361 314.981 71.8649C201.416 75.8474 99.5112 -129.412 6.0906 -65.0511C-74.1474 -9.77227 156.418 97.4453 138.535 193.425C122.661 278.625 -41.5689 261.264 -69.951 343.089C-92.0497 406.799 -35.3546 489.989 25.335 519.78C96.8286 554.874 181.656 513.682 260.663 505.378C301.648 501.071 339.666 485.974 380.727 482.429C411.616 479.762 443.823 475.518 472.665 487.077Z" stroke="#1F10FF"/>
<path d="M475.803 492.066C553.035 523.018 608.857 609.93 691.905 611.683C761.22 613.146 826.611 558.288 864.374 500.268C902.14 442.242 942.227 349.589 896.689 297.043C828.178 217.988 679.739 269.33 602.812 198.452C566.135 164.659 644.8 102.354 632.87 53.9685C621.487 7.80497 581.47 -28.4355 540.792 -53.0774C498.486 -78.7054 442.015 -111.018 398.434 -88.0479C346.008 -60.4158 373.459 64.3024 314.143 66.3827C197.713 70.4659 93.2393 -139.97 -2.53786 -73.9857C-84.7999 -17.3125 151.58 92.6086 133.247 191.009C116.972 278.358 -51.4004 260.56 -80.4986 344.449C-103.155 409.766 -45.0301 495.054 17.1903 525.596C90.4869 561.575 177.454 519.343 258.454 510.83C300.472 506.414 339.45 490.936 381.546 487.302C413.215 484.568 446.234 480.216 475.803 492.066Z" stroke="#1F10FF"/>
<path d="M478.947 497.066C558.079 528.779 615.274 617.829 700.365 619.624C771.385 621.123 838.386 564.916 877.077 505.468C915.773 446.014 956.846 351.082 910.188 297.243C839.992 216.244 687.9 268.849 609.081 196.228C571.501 161.603 652.102 97.7658 639.878 48.1897C628.216 0.890513 587.215 -36.2414 545.536 -61.4895C502.189 -87.7478 444.328 -120.855 399.675 -97.3198C345.96 -69.0078 374.086 58.7786 313.311 60.9101C194.016 65.0941 86.9725 -150.519 -11.1613 -82.9107C-95.4472 -24.8429 146.748 87.7817 127.963 188.603C111.288 278.101 -61.2268 259.865 -91.0411 345.818C-114.255 412.742 -54.7003 500.128 9.05069 531.421C84.1506 568.285 173.258 525.014 256.25 516.292C299.302 511.767 339.238 495.908 382.37 492.184C414.819 489.383 448.65 484.924 478.947 497.066Z" stroke="#1F10FF"/>
<path d="M482.086 502.055C563.118 534.53 621.686 625.718 708.82 627.556C781.546 629.091 850.155 571.534 889.776 510.659C929.401 449.777 971.46 352.565 923.683 297.434C851.801 214.49 696.057 268.358 615.346 193.994C576.864 158.538 659.4 93.1678 646.883 42.4013C634.94 -6.03346 592.955 -44.0569 550.275 -69.911C505.888 -96.7997 446.638 -130.702 400.912 -106.601C345.907 -77.6094 374.709 53.2451 312.474 55.428C190.315 59.7127 80.7013 -161.077 -19.7888 -91.8451C-106.099 -32.3831 141.912 82.9451 122.676 186.187C105.6 277.834 -71.0574 259.161 -101.588 347.178C-125.359 415.709 -64.3749 505.193 0.906825 537.237C77.8099 574.986 169.057 530.676 254.042 521.744C298.128 517.11 339.023 500.87 383.191 497.057C416.418 494.188 451.062 489.623 482.086 502.055Z" stroke="#1F10FF"/>
<path d="M485.229 507.055C568.161 540.291 628.102 633.617 717.28 635.498C791.711 637.069 861.929 578.162 902.479 515.86C943.033 453.55 986.079 354.059 937.181 297.635C863.614 212.746 704.218 267.878 621.615 191.77C582.23 155.483 666.702 88.5799 653.892 36.6231C641.669 -12.9474 598.699 -51.8622 555.019 -78.3225C509.591 -105.842 448.951 -140.539 402.154 -115.873C345.858 -86.2008 375.335 47.7218 311.641 49.956C186.618 54.3415 74.4343 -171.625 -28.4124 -100.769C-116.746 -39.9128 137.079 78.1188 117.392 183.781C99.9156 277.578 -80.884 258.467 -112.131 348.548C-136.46 418.685 -74.0454 510.268 -7.23299 543.063C71.4732 581.697 164.86 536.348 251.838 527.206C296.958 522.463 338.812 505.843 384.015 501.94C418.021 499.004 453.478 494.331 485.229 507.055Z" stroke="#1F10FF"/>
<path d="M488.366 512.046C573.198 546.043 634.512 641.507 725.733 643.431C801.869 645.038 873.696 584.781 915.175 521.051C956.659 457.314 1000.69 355.543 950.673 297.827C875.421 210.994 712.373 267.389 627.877 189.538C587.59 152.419 673.998 83.9828 660.894 30.8357C648.391 -19.8704 604.437 -59.6767 559.756 -86.7431C513.287 -114.892 451.258 -150.384 403.388 -125.153C345.803 -94.8014 375.955 42.1894 310.802 44.4749C182.914 48.9612 68.1607 -182.182 -37.0426 -109.703C-127.401 -47.452 132.24 73.2834 112.102 181.367C94.2247 277.312 -90.7172 257.764 -122.68 349.908C-147.566 421.653 -83.7226 515.333 -15.3794 548.88C65.13 588.399 160.656 542.01 249.627 532.659C295.781 527.807 338.594 510.806 384.833 506.814C419.618 503.81 455.887 499.03 488.366 512.046Z" stroke="#1F10FF"/>
<path d="M491.509 517.046C578.242 551.805 640.929 649.406 734.193 651.374C812.034 653.016 885.47 591.409 927.879 526.252C970.292 461.088 1015.31 357.037 964.172 298.028C887.234 209.25 720.534 266.909 634.146 187.314C592.957 149.364 681.3 79.395 667.903 25.0576C655.121 -26.7841 610.182 -67.4819 564.5 -95.1544C516.99 -123.934 453.572 -160.221 404.63 -134.425C345.755 -103.393 376.582 36.6662 309.969 39.0031C179.217 43.5901 61.894 -192.729 -45.6658 -118.627C-138.048 -54.9817 127.409 68.4572 106.819 178.961C88.5409 277.056 -100.544 257.07 -133.222 351.278C-158.666 424.63 -93.3927 520.408 -23.5189 554.706C58.7937 595.11 156.46 547.682 247.424 538.121C294.611 533.161 338.383 515.779 385.657 511.697C421.222 508.626 458.303 503.739 491.509 517.046Z" stroke="#1F10FF"/>
<path d="M494.648 522.036C583.28 557.555 647.341 657.295 742.648 659.305C822.195 660.983 897.24 598.027 940.577 531.442C983.92 464.85 1029.92 358.52 977.666 298.219C899.043 207.496 728.691 266.418 640.41 185.08C598.319 146.299 688.598 74.7967 674.907 19.269C661.845 -33.7084 615.921 -75.2976 569.239 -103.576C520.688 -132.986 455.881 -170.068 405.867 -143.706C345.702 -111.995 377.204 31.1325 309.132 33.5207C175.515 38.2085 55.6224 -203.288 -54.294 -127.562C-148.7 -62.522 122.572 63.6204 101.53 176.545C82.8519 276.789 -110.375 256.365 -143.77 352.638C-169.771 427.597 -103.068 525.473 -31.6632 560.522C52.4525 601.811 152.258 553.344 245.215 543.573C293.436 538.504 338.167 520.741 386.477 516.569C422.821 513.431 460.715 508.437 494.648 522.036Z" stroke="#1F10FF"/>
<path d="M497.792 527.036C588.324 563.317 653.758 665.194 751.108 667.247C832.36 668.961 909.014 604.655 953.281 536.643C997.552 468.623 1044.54 360.013 991.165 298.42C910.857 205.752 736.852 265.938 646.679 182.856C603.686 143.244 695.9 70.2088 681.916 13.4907C668.574 -40.6223 621.666 -83.1029 573.983 -111.988C524.392 -142.028 458.196 -179.904 407.109 -152.978C345.654 -120.586 377.831 25.6092 308.299 28.0488C171.818 32.8373 49.3558 -213.836 -62.917 -136.486C-159.347 -70.0519 117.74 58.7941 96.2471 174.14C77.1682 276.532 -120.201 255.672 -154.312 354.008C-180.871 430.573 -112.738 530.548 -39.8026 566.348C46.1164 608.522 148.062 559.016 243.011 549.035C292.266 543.857 337.956 525.713 387.302 521.452C424.425 518.247 463.131 513.146 497.792 527.036Z" stroke="#1F10FF"/>
<path d="M500.928 532.027C593.36 569.069 660.167 673.085 759.561 675.181C842.518 676.93 920.781 611.274 965.977 541.835C1011.18 472.388 1059.16 361.498 1004.66 298.612C922.663 204 745.007 265.449 652.941 180.624C609.046 140.181 703.195 65.6123 688.918 7.70391C675.296 -47.5448 627.404 -90.9169 578.72 -120.408C528.088 -151.079 460.502 -189.75 408.343 -162.258C345.599 -129.186 378.45 20.0772 307.46 22.5681C168.114 27.4575 43.0819 -224.392 -71.5475 -145.419C-170.001 -77.5905 112.901 53.9591 90.9566 171.726C71.4771 276.267 -130.034 254.969 -164.861 355.369C-191.978 433.542 -122.415 535.614 -47.9493 572.165C39.7728 615.224 143.858 564.679 240.801 554.488C291.089 549.202 337.738 530.677 388.119 526.327C426.021 523.054 465.54 517.845 500.928 532.027Z" stroke="#1F10FF"/>
<path d="M504.073 537.025C598.406 574.828 666.586 680.982 768.022 683.121C852.685 684.906 932.557 617.9 978.682 547.033C1024.81 476.159 1073.78 362.99 1018.16 298.811C934.479 202.254 753.17 264.967 659.212 178.398C614.414 137.124 710.5 61.0223 695.929 1.92362C682.027 -54.4607 633.15 -98.7243 583.465 -128.821C531.793 -160.122 462.818 -199.588 409.587 -171.531C345.552 -137.78 379.079 14.5519 306.629 17.0941C164.419 22.0842 36.8172 -234.942 -80.1687 -154.346C-180.647 -85.1223 108.07 49.1308 85.6752 169.318C65.795 276.008 -139.859 254.273 -175.402 356.737C-203.076 436.516 -132.083 540.687 -56.0869 577.989C33.4384 621.933 139.663 570.348 238.599 559.948C289.921 554.553 337.528 535.647 388.946 531.208C427.627 527.867 467.958 522.552 504.073 537.025Z" stroke="#1F10FF"/>
<path d="M507.214 542.021C603.446 580.585 672.999 688.877 776.479 691.059C862.847 692.88 944.328 624.524 991.382 552.23C1038.44 479.927 1088.39 364.479 1031.65 299.008C946.289 200.506 761.329 264.482 665.478 176.17C619.778 134.064 717.799 56.4301 702.934 -3.85893C688.753 -61.3789 638.892 -106.534 588.206 -137.237C535.493 -169.169 465.129 -209.429 410.825 -180.807C345.501 -146.375 379.703 9.02422 305.794 11.6178C160.719 16.7086 30.5474 -245.494 -88.7951 -163.274C-191.297 -92.6566 103.235 44.3 80.3888 166.908C60.108 275.747 -149.688 253.574 -185.947 358.102C-214.179 439.489 -141.757 545.757 -64.2294 583.811C27.0991 628.639 135.464 576.016 236.392 565.406C288.748 559.902 337.314 540.616 389.768 536.086C429.228 532.679 470.371 527.256 507.214 542.021Z" stroke="#1F10FF"/>
<path d="M510.353 547.01C608.485 586.336 679.411 696.765 784.934 698.99C873.007 700.847 956.097 631.142 1004.08 557.42C1052.07 483.69 1103.01 365.962 1045.15 299.198C958.098 198.752 769.485 263.992 671.742 173.936C625.14 130.999 725.096 51.8316 709.938 -9.64771C695.477 -68.3033 644.631 -114.35 592.945 -145.659C539.191 -178.221 467.438 -219.276 412.062 -190.089C345.448 -154.977 380.325 3.49039 304.956 6.13529C157.017 11.327 24.2758 -256.053 -97.4231 -172.209C-201.949 -100.197 98.3985 39.4632 75.1006 164.492C54.4191 275.48 -159.519 252.87 -196.495 359.462C-225.284 442.455 -151.432 550.821 -72.3738 589.627C20.7579 635.34 131.262 581.677 234.183 570.858C287.573 565.245 337.098 545.578 390.587 540.959C430.827 537.484 472.782 531.954 510.353 547.01Z" stroke="#1F10FF"/>
<path d="M513.496 552.01C613.529 592.097 685.828 704.665 793.394 706.932C883.173 708.825 967.871 637.77 1016.78 562.621C1065.7 487.463 1117.63 367.456 1058.65 299.399C969.912 197.008 777.647 263.512 678.012 171.713C630.507 127.944 732.399 47.2439 716.948 -15.4258C702.206 -75.2171 650.376 -122.155 597.689 -154.07C542.895 -187.263 469.752 -229.113 413.304 -199.36C345.4 -163.569 380.952 -2.03274 304.124 0.66354C153.32 5.9559 18.0091 -266.6 -106.046 -181.133C-212.596 -107.727 93.5666 34.637 69.8174 162.087C48.7353 275.224 -169.345 252.176 -207.037 360.832C-236.384 445.432 -161.102 555.896 -80.5132 595.453C14.4217 642.051 127.065 587.349 231.979 576.32C286.403 570.599 336.887 550.55 391.412 545.842C432.431 542.3 475.199 536.663 513.496 552.01Z" stroke="#1F10FF"/>
<path d="M516.633 557.001C618.565 597.85 692.238 712.555 801.847 714.866C893.331 716.794 979.639 644.389 1029.48 567.813C1079.33 491.227 1132.24 368.94 1072.14 299.592C981.718 195.256 785.801 263.022 684.274 169.48C635.867 124.88 739.694 42.6471 723.95 -21.2129C708.928 -82.1398 656.114 -129.969 602.426 -162.491C546.591 -196.313 472.059 -238.958 414.539 -208.64C345.345 -172.169 381.572 -7.56487 303.284 -4.81731C149.616 0.575827 11.7355 -277.157 -114.676 -190.067C-223.25 -115.266 88.7277 29.8019 64.5271 159.673C43.0444 274.958 -179.179 251.473 -217.586 362.192C-247.491 448.4 -170.779 560.962 -88.6596 601.27C8.07837 648.753 122.862 593.012 229.769 581.773C285.226 575.943 336.669 555.514 392.23 550.716C434.027 547.106 477.608 541.362 516.633 557.001Z" stroke="#1F10FF"/>
<path d="M519.778 561.999C623.611 603.609 698.656 720.452 810.309 722.806C903.498 724.77 991.414 651.016 1042.19 573.011C1092.96 494.998 1146.86 370.432 1085.64 299.791C993.534 193.51 793.964 262.54 690.545 167.254C641.236 121.823 746.998 38.0571 730.96 -26.9932C715.659 -89.0558 661.86 -137.777 607.172 -170.904C550.296 -205.357 474.375 -248.797 415.782 -217.914C345.298 -180.763 382.2 -13.0904 302.453 -10.2915C145.921 -4.79759 5.47044 -287.707 -123.298 -198.993C-233.896 -122.798 83.8973 24.9733 59.2455 157.265C37.3621 274.699 -189.003 250.777 -228.127 363.56C-258.589 451.375 -180.447 566.035 -96.7974 607.094C1.74376 655.462 118.667 598.682 227.567 587.233C284.057 581.295 336.46 560.484 393.056 555.597C435.633 551.92 480.026 546.069 519.778 561.999Z" stroke="#1F10FF"/>
<path d="M522.915 566.99C628.647 609.361 705.066 728.342 818.762 730.739C913.656 732.739 1003.18 657.635 1054.88 578.203C1106.59 498.762 1161.47 371.917 1099.13 299.983C1005.34 191.758 802.119 262.051 696.807 165.022C646.595 118.76 754.294 33.4602 737.962 -32.7804C722.381 -95.9786 667.598 -145.591 611.909 -179.324C553.992 -214.408 476.682 -258.642 417.017 -227.194C345.243 -189.363 382.82 -18.6225 301.614 -15.7723C142.217 -10.1776 -0.803268 -298.264 -131.928 -207.926C-244.55 -130.336 79.0583 20.1381 53.9552 154.85C31.6713 274.434 -198.836 250.074 -238.676 364.921C-269.696 454.342 -190.125 571.101 -104.944 612.911C-4.59949 662.164 114.464 604.345 225.356 592.687C282.88 586.639 336.242 565.448 393.874 560.471C437.23 556.727 482.435 550.768 522.915 566.99Z" stroke="#1F10FF"/>
<path d="M526.059 571.99C633.691 615.122 711.483 736.242 827.222 738.681C923.821 740.717 1014.96 664.263 1067.59 583.404C1120.22 502.536 1176.09 373.41 1112.63 300.184C1017.15 190.014 810.281 261.571 703.076 162.798C651.962 115.705 761.596 28.8726 744.971 -38.5583C729.11 -102.892 673.343 -153.396 616.653 -187.736C557.695 -223.449 478.996 -268.479 418.258 -236.465C345.195 -197.954 383.447 -24.1456 300.782 -21.244C138.52 -15.5485 -7.06975 -308.812 -140.551 -216.85C-255.197 -137.866 74.2265 15.312 48.672 152.445C25.9875 274.178 -208.663 249.381 -249.218 366.291C-280.796 457.32 -199.795 576.176 -113.083 618.737C-10.9357 668.875 110.267 610.017 223.152 598.149C281.711 591.993 336.031 570.42 394.698 565.354C438.834 561.543 484.851 555.477 526.059 571.99Z" stroke="#1F10FF"/>
<path d="M529.195 576.981C638.728 620.875 717.892 744.132 835.674 746.614C933.98 748.686 1026.72 670.883 1080.28 588.596C1133.85 506.3 1190.7 374.895 1126.12 300.376C1028.96 188.262 818.435 261.082 709.338 160.566C657.322 112.641 768.891 24.276 751.973 -44.3453C735.832 -109.815 679.08 -161.21 621.39 -196.156C561.391 -232.5 481.302 -278.324 419.493 -245.745C345.139 -206.554 384.067 -29.6776 299.942 -26.7247C134.816 -20.9285 -13.3437 -319.368 -149.182 -225.784C-265.852 -145.405 69.3873 10.4769 43.3815 150.031C20.2963 273.912 -218.496 248.678 -259.768 367.652C-291.903 460.288 -209.472 581.242 -121.23 624.555C-17.2791 675.578 106.063 615.68 220.941 603.602C280.533 597.337 335.813 575.384 395.516 570.228C440.43 566.349 487.26 560.177 529.195 576.981Z" stroke="#1F10FF"/>
<path d="M532.341 581.98C643.774 626.634 724.311 752.029 844.137 754.555C944.147 756.662 1038.5 677.509 1092.99 593.795C1147.48 510.071 1205.32 376.387 1139.62 300.575C1040.78 186.516 826.599 260.6 715.609 158.34C662.691 109.585 776.196 19.6863 758.985 -50.1253C742.563 -116.73 684.827 -169.017 626.136 -204.569C565.097 -241.544 483.619 -288.162 420.737 -255.018C345.094 -215.148 384.696 -35.2026 299.112 -32.1984C131.122 -26.3014 -19.608 -329.918 -157.803 -234.71C-276.496 -152.936 64.5576 5.64878 38.1005 147.624C14.6148 273.654 -228.32 247.982 -270.308 369.021C-303.001 463.263 -219.14 586.315 -129.367 630.379C-23.613 682.287 101.869 621.35 218.74 609.063C279.366 602.689 335.604 580.355 396.343 575.109C442.036 571.163 489.679 564.883 532.341 581.98Z" stroke="#1F10FF"/>
<path d="M535.477 586.971C648.81 632.387 730.721 759.92 852.589 762.488C954.305 764.632 1050.27 684.128 1105.68 598.987C1161.11 513.836 1219.94 377.872 1153.12 300.768C1052.58 184.764 834.753 260.111 721.871 156.108C668.051 106.521 783.491 15.0897 765.986 -55.9122C749.285 -123.653 690.564 -176.831 630.873 -212.989C568.793 -250.594 485.925 -298.008 421.971 -264.298C345.038 -223.748 385.316 -40.7347 298.272 -37.6791C127.418 -31.6813 -25.8819 -340.475 -166.433 -243.643C-287.151 -160.475 59.7183 0.813809 32.81 145.21C8.92352 273.389 -238.153 247.279 -280.858 370.382C-314.108 466.231 -228.817 591.382 -137.514 636.196C-29.9567 688.989 97.6653 627.013 216.529 614.516C278.189 608.034 335.386 585.319 397.16 579.984C443.633 575.97 492.088 569.583 535.477 586.971Z" stroke="#1F10FF"/>
<path d="M538.623 591.969C653.856 638.146 737.14 767.817 861.052 770.428C964.473 772.608 1062.04 690.755 1118.39 604.186C1174.74 517.607 1234.56 379.364 1166.62 300.967C1064.4 183.019 842.917 259.629 728.143 153.883C673.42 103.464 790.796 10.5 772.998 -61.6922C756.017 -130.569 696.312 -184.638 635.619 -221.402C572.498 -259.638 488.242 -307.846 423.215 -273.572C344.992 -232.341 385.945 -46.2598 297.442 -43.1528C123.723 -37.0544 -32.1464 -351.024 -175.054 -252.569C-297.796 -168.007 54.8887 -4.01431 27.5291 142.802C3.24197 273.13 -247.977 246.584 -291.398 371.75C-325.205 469.206 -238.485 596.454 -145.651 642.021C-36.2905 695.698 93.4711 632.683 214.328 619.977C277.021 613.385 335.177 590.29 397.987 584.865C445.239 580.784 494.506 574.29 538.623 591.969Z" stroke="#1F10FF"/>
<path d="M541.763 596.964C658.896 643.903 743.553 775.712 869.508 778.366C974.634 780.581 1073.81 697.378 1131.09 609.382C1188.37 521.376 1249.17 380.853 1180.11 301.163C1076.21 181.27 851.075 259.145 734.408 151.654C678.783 100.405 798.095 5.90762 780.003 -67.4749C762.742 -137.487 702.053 -192.448 640.36 -229.818C576.198 -268.684 490.552 -317.687 424.454 -282.847C344.941 -240.937 386.568 -51.7876 296.606 -48.6293C120.022 -42.43 -38.4165 -361.577 -183.681 -261.498C-308.447 -175.541 50.0532 -8.84525 22.2423 140.392C-2.44544 272.869 -257.807 245.885 -301.943 373.115C-336.309 472.178 -248.159 601.525 -153.794 647.842C-42.6303 702.405 89.271 638.35 212.12 625.434C275.847 618.734 334.963 595.257 398.809 589.743C446.839 585.595 496.919 578.994 541.763 596.964Z" stroke="#1F10FF"/>
<path d="M544.903 601.96C663.936 649.66 749.966 783.607 877.964 786.304C984.796 788.554 1085.58 704.002 1143.79 614.578C1202 525.144 1263.79 382.342 1193.61 301.36C1088.02 179.522 859.233 258.66 740.674 149.426C684.147 97.3454 805.394 1.31524 787.008 -73.2576C769.468 -144.405 707.794 -200.258 645.1 -238.234C579.897 -277.73 492.862 -327.528 425.692 -292.123C344.889 -249.533 387.191 -57.3153 295.77 -54.1056C116.322 -47.8056 -44.6869 -372.129 -192.308 -270.427C-319.097 -183.075 45.2176 -13.676 16.9552 137.982C-8.13307 272.608 -267.637 245.187 -312.49 374.48C-347.412 475.15 -257.832 606.595 -161.937 653.664C-48.9704 709.111 85.0707 644.017 209.913 630.892C274.674 624.083 334.748 600.226 399.63 594.622C448.44 590.406 499.331 583.698 544.903 601.96Z" stroke="#1F10FF"/>
<path d="M548.046 606.954C668.978 655.415 756.382 791.5 886.423 794.24C994.96 796.526 1097.36 710.624 1156.49 619.773C1215.63 528.911 1278.41 383.829 1207.1 301.555C1099.83 177.773 867.393 258.174 746.942 147.197C689.512 94.2845 812.695 -3.27864 794.016 -79.0418C776.196 -151.325 713.537 -208.069 649.843 -246.652C583.599 -286.778 495.175 -337.371 426.932 -301.401C344.839 -258.13 387.817 -62.8446 294.936 -59.5837C112.624 -53.1829 -50.9549 -382.683 -200.932 -279.357C-329.746 -190.611 40.3844 -18.5082 11.6707 135.571C-13.8183 272.346 -277.464 244.487 -323.033 375.844C-358.514 478.121 -267.504 611.664 -170.078 659.484C-55.3079 715.816 80.8729 649.683 207.708 636.348C273.502 629.431 334.536 605.192 400.453 599.499C450.042 595.216 501.746 588.401 548.046 606.954Z" stroke="#1F10FF"/>
<path d="M551.182 611.945C674.015 661.167 762.792 799.39 894.876 802.173C1005.12 804.495 1109.12 717.243 1169.19 624.965C1229.26 532.675 1293.02 385.314 1220.6 301.747C1111.64 176.02 875.548 257.685 753.204 144.964C694.872 91.2206 819.99 -7.87542 801.018 -84.8289C782.918 -158.248 719.275 -215.883 654.58 -255.072C587.296 -295.829 497.482 -347.216 428.167 -310.681C344.784 -266.731 388.437 -68.3768 294.097 -65.0645C108.92 -58.5631 -57.2283 -393.24 -209.562 -288.29C-340.4 -198.15 35.5455 -23.3436 6.38053 133.156C-19.509 272.08 -287.298 243.784 -333.582 377.205C-369.62 481.089 -277.181 616.73 -178.224 665.301C-61.651 722.518 76.6694 655.346 205.497 641.801C272.326 634.775 334.318 610.156 401.271 604.373C451.639 600.023 504.156 593.1 551.182 611.945Z" stroke="#1F10FF"/>
<path d="M554.325 616.945C679.058 666.928 769.208 807.289 903.335 810.115C1015.28 812.473 1120.9 723.871 1181.89 630.165C1242.89 536.448 1307.64 386.807 1234.1 301.948C1123.45 174.276 883.709 257.204 759.472 142.74C700.239 88.1655 827.292 -12.4636 808.027 -90.6074C789.646 -165.162 725.019 -223.689 659.323 -263.484C590.998 -304.871 499.795 -357.053 429.408 -319.952C344.736 -275.322 389.063 -73.9004 293.264 -70.5367C105.222 -63.9344 -63.4956 -403.788 -218.186 -297.215C-351.048 -205.68 30.713 -28.1701 1.09669 130.75C-25.1935 271.823 -297.124 243.09 -344.125 378.575C-380.721 484.066 -286.852 621.805 -186.364 671.127C-67.988 729.229 72.4722 661.018 203.293 647.263C271.155 640.128 334.106 615.128 402.095 609.256C453.242 604.838 506.571 597.808 554.325 616.945Z" stroke="#1F10FF"/>
<path d="M557.464 621.934C684.097 672.679 775.62 815.178 911.791 818.047C1025.44 820.441 1132.67 730.489 1194.59 635.355C1256.52 540.211 1322.25 388.291 1247.59 302.139C1135.26 172.522 891.866 256.714 765.737 140.506C705.601 85.1004 834.59 -17.0616 815.031 -96.3957C796.371 -172.086 730.759 -231.504 664.062 -271.905C594.697 -313.923 502.105 -366.9 430.645 -329.234C344.683 -283.924 389.685 -79.4337 292.427 -76.0188C101.521 -69.3157 -69.7668 -414.346 -226.814 -306.149C-361.699 -213.22 25.8765 -33.0065 -4.19106 128.335C-30.882 271.557 -306.955 242.385 -354.672 379.935C-391.825 487.033 -296.526 626.869 -194.508 676.943C-74.3288 735.93 68.2712 666.679 201.085 652.715C269.98 645.471 333.891 620.09 402.915 614.129C454.842 609.644 508.983 602.507 557.464 621.934Z" stroke="#1F10FF"/>
<path d="M560.608 626.934C689.141 678.44 782.037 823.077 920.25 825.988C1035.61 828.418 1144.44 737.117 1207.29 640.556C1270.15 543.984 1336.87 389.784 1261.09 302.339C1147.07 170.778 900.027 256.233 772.006 138.282C710.968 82.0451 841.892 -21.6499 822.04 -102.174C803.1 -179 736.504 -239.31 668.806 -280.317C598.4 -322.965 504.419 -376.737 431.887 -338.506C344.634 -292.516 390.312 -84.9575 291.594 -81.4913C97.8237 -74.6874 -76.0338 -424.894 -235.437 -315.074C-372.347 -220.751 21.0443 -37.8333 -9.47465 125.929C-36.5661 271.3 -316.782 241.691 -365.215 381.304C-402.925 490.009 -306.197 631.944 -202.648 682.768C-80.6652 742.64 64.0745 672.351 198.881 658.177C268.81 650.824 333.68 625.062 403.739 619.011C456.445 614.459 511.399 607.215 560.608 626.934Z" stroke="#1F10FF"/>
<path d="M563.744 631.925C694.177 684.192 788.446 830.967 928.703 833.921C1045.77 836.387 1156.21 743.736 1219.99 645.748C1283.78 547.748 1351.48 391.269 1274.58 302.531C1158.88 169.026 908.181 255.744 778.268 136.05C716.327 78.9813 849.187 -26.2468 829.042 -107.962C809.822 -185.923 742.241 -247.124 673.543 -288.737C602.096 -332.016 506.725 -386.582 433.121 -347.786C344.579 -301.116 390.932 -90.4897 290.755 -86.972C94.1197 -80.0674 -82.3076 -435.451 -244.068 -324.007C-383.001 -228.289 16.2052 -42.6685 -14.765 123.514C-42.2571 271.034 -326.615 240.988 -375.764 382.665C-414.032 492.977 -315.874 637.01 -210.794 688.585C-87.0085 749.342 59.8708 678.014 196.67 663.63C267.633 656.169 333.462 630.026 404.557 623.885C458.042 619.266 513.808 611.914 563.744 631.925Z" stroke="#1F10FF"/>
</svg>
