<svg width="1129" height="826" viewBox="0 0 1129 826" fill="none" xmlns="http://www.w3.org/2000/svg">
<path fill-rule="evenodd" clip-rule="evenodd" d="M360.992 269.178C367.083 285.226 408.98 275.105 406.557 292.14C403.717 312.104 354.526 300.512 353.671 320.646C352.417 350.191 407.946 364.465 402.253 393.513C398.224 414.071 360.973 391.95 340.089 389.947C327.01 388.692 312.536 391.063 301.596 383.859C290.589 376.61 293.938 351.35 280.722 350.848C257.173 349.955 240.731 383.299 217.325 380.663C201.397 378.87 199.103 354.976 191.719 340.827C183.427 324.941 164.213 308.537 170.978 291.862C178.77 272.653 213.454 278.482 224.209 260.737C234.553 243.669 209.174 213.118 225.602 201.733C242.334 190.137 263.096 224.547 282.936 220.035C302.937 215.486 307.3 182.089 327.501 178.559C344.983 175.505 367.089 187.711 373.206 204.263C380.903 225.088 353.114 248.421 360.992 269.178Z" stroke="#1F10FF"/>
<path fill-rule="evenodd" clip-rule="evenodd" d="M603.592 114.879C634.149 195.413 844.47 144.579 832.291 230.074C818.018 330.265 571.106 272.139 566.796 373.182C560.47 521.46 839.192 593.038 810.587 738.826C790.344 842 603.379 731.02 498.553 720.988C432.902 714.705 360.243 726.617 305.338 690.471C250.093 654.102 266.925 527.329 200.586 524.826C82.3805 520.367 -0.181093 687.717 -117.673 674.513C-197.621 665.528 -209.114 545.617 -246.168 474.618C-287.772 394.9 -384.205 312.596 -350.233 228.904C-311.099 132.494 -137.004 161.712 -83.0025 72.6462C-31.064 -13.0165 -158.424 -166.314 -75.9551 -223.467C8.04711 -281.681 112.234 -109.012 211.827 -131.675C312.227 -154.521 334.163 -322.134 435.567 -339.866C523.321 -355.211 634.276 -293.973 664.966 -210.913C703.58 -106.409 564.07 10.7171 603.592 114.879Z" stroke="#1F10FF"/>
<path d="M414.91 290.927C417.524 272.549 372.324 283.469 365.754 266.156C357.256 243.764 387.235 218.592 378.932 196.126C372.333 178.27 348.484 165.102 329.625 168.398C307.832 172.206 303.124 208.235 281.547 213.142C260.143 218.01 237.745 180.889 219.694 193.4C201.971 205.682 229.349 238.64 218.19 257.052C206.587 276.196 169.17 269.909 160.763 290.631C153.465 308.621 174.193 326.316 183.137 343.454C191.104 358.717 193.578 384.494 210.761 386.428C236.013 389.271 253.75 353.301 279.155 354.263C293.413 354.804 289.8 382.054 301.675 389.875C313.476 397.646 329.091 395.089 343.201 396.442C365.731 398.602 405.917 422.465 410.264 400.288C416.406 368.95 356.501 353.553 357.855 321.68C358.778 299.959 411.846 312.463 414.91 290.927Z" stroke="#1F10FF"/>
<path d="M423.254 289.699C426.059 269.98 377.557 281.697 370.507 263.12C361.389 239.092 393.558 212.081 384.649 187.975C377.569 168.815 351.978 154.686 331.741 158.222C308.355 162.308 303.302 200.969 280.149 206.235C257.182 211.459 233.148 171.627 213.777 185.052C194.76 198.232 224.138 233.596 212.163 253.354C199.712 273.896 159.561 267.15 150.539 289.386C142.708 308.69 164.95 327.678 174.548 346.067C183.096 362.445 185.751 390.104 204.189 392.18C231.285 395.23 250.32 356.631 277.581 357.664C292.88 358.244 289.002 387.485 301.745 395.876C314.408 404.215 331.164 401.47 346.305 402.922C370.48 405.24 413.602 430.845 418.267 407.048C424.859 373.421 360.577 356.901 362.03 322.699C363.021 299.393 419.966 312.809 423.254 289.699Z" stroke="#1F10FF"/>
<path d="M431.6 288.49C434.596 267.428 382.792 279.944 375.262 260.103C365.523 234.44 399.883 205.589 390.368 179.842C382.806 159.378 355.473 144.287 333.857 148.065C308.88 152.43 303.483 193.722 278.753 199.347C254.222 204.927 228.552 162.384 207.862 176.723C187.55 190.8 218.927 228.571 206.137 249.674C192.838 271.614 149.954 264.41 140.318 288.16C131.953 308.777 155.709 329.058 165.96 348.698C175.09 366.191 177.925 395.733 197.618 397.95C226.56 401.207 246.89 359.981 276.007 361.084C292.348 361.703 288.206 392.934 301.816 401.896C315.341 410.803 333.238 407.871 349.41 409.421C375.231 411.896 421.289 439.244 426.272 413.827C433.312 377.911 364.655 360.267 366.207 323.737C367.266 298.844 428.087 313.173 431.6 288.49Z" stroke="#1F10FF"/>
<path d="M439.952 287.278C443.14 264.873 388.033 278.187 380.024 257.081C369.664 229.783 406.215 199.093 396.094 171.705C388.049 149.937 358.974 133.885 335.981 137.904C309.412 142.547 303.67 186.471 277.363 192.455C251.268 198.391 223.963 153.137 201.954 168.39C180.347 183.364 213.724 223.543 200.118 245.99C185.971 269.329 140.353 261.666 130.103 286.93C121.204 308.861 146.475 330.433 157.379 351.326C167.09 369.933 170.106 401.358 191.055 403.715C221.841 407.18 243.468 363.326 274.441 364.499C291.823 365.157 287.417 398.379 301.894 407.912C316.282 417.387 335.32 414.267 352.522 415.916C379.989 418.549 428.982 447.639 434.283 420.602C441.773 382.397 368.739 363.63 370.391 324.772C371.517 298.292 436.216 313.533 439.952 287.278Z" stroke="#1F10FF"/>
<path d="M448.305 286.065C451.684 262.318 393.275 276.431 384.785 254.06C373.806 225.126 412.547 192.598 401.819 163.569C393.293 140.497 362.476 123.483 338.105 127.743C309.943 132.665 303.857 179.22 275.974 185.563C248.315 191.855 219.374 143.89 196.046 160.057C173.144 175.929 208.521 218.514 194.099 242.306C179.105 267.043 130.753 258.921 119.888 285.699C110.456 308.945 137.24 331.809 148.798 353.953C159.091 373.676 162.287 406.983 184.491 409.481C217.122 413.153 240.045 366.672 272.874 367.915C291.298 368.612 286.628 403.824 301.972 413.928C317.222 423.97 337.401 420.664 355.634 422.411C384.747 425.202 436.676 456.034 442.294 427.377C450.234 386.883 372.823 366.992 374.575 325.806C375.769 297.74 444.344 313.894 448.305 286.065Z" stroke="#1F10FF"/>
<path d="M456.642 284.841C460.213 259.752 398.501 274.663 389.532 251.028C377.932 220.459 418.864 186.091 407.53 155.422C398.522 131.045 365.963 113.071 340.214 117.571C310.46 122.771 304.028 171.959 274.569 178.66C245.347 185.308 214.77 134.632 190.123 151.713C165.926 168.482 203.302 213.474 188.065 238.611C172.222 264.747 121.137 256.167 109.658 284.458C99.6922 309.018 127.991 333.175 140.201 356.57C151.076 377.407 154.453 412.597 177.912 415.237C212.388 419.115 236.608 370.007 271.293 371.319C290.759 372.056 285.824 409.259 302.035 419.934C318.147 430.543 339.467 427.05 358.731 428.896C389.49 431.844 444.354 464.418 450.291 434.141C458.679 391.359 376.892 370.344 378.744 326.829C380.005 297.177 452.458 314.243 456.642 284.841Z" stroke="#1F10FF"/>
<path d="M464.991 283.622C468.753 257.19 403.739 272.899 394.29 248C382.069 215.795 425.192 179.589 413.252 147.278C403.762 121.598 369.46 102.662 342.334 107.403C310.987 112.882 304.211 164.701 273.176 171.761C242.39 178.765 210.177 125.378 184.211 143.373C158.719 161.04 198.095 208.438 182.042 234.92C165.352 262.455 111.533 253.416 99.4387 283.221C88.9398 309.095 118.753 334.544 131.616 359.191C143.073 381.142 146.63 418.215 171.344 420.996C207.665 425.082 233.182 373.346 269.723 374.728C290.23 375.504 285.031 414.697 302.11 425.943C319.084 437.12 341.544 433.44 361.839 435.384C394.244 438.489 452.044 472.806 458.298 440.909C467.136 395.838 380.973 373.699 382.923 327.857C384.253 296.618 460.582 314.597 464.991 283.622Z" stroke="#1F10FF"/>
<path d="M473.343 282.408C477.297 254.634 408.98 271.142 399.051 244.978C386.21 211.138 431.523 173.092 418.977 139.141C409.006 112.157 372.962 92.2591 344.457 97.2415C311.519 102.999 304.399 157.45 271.787 164.869C239.436 172.228 205.588 116.13 178.303 135.039C151.517 153.604 192.892 203.409 176.023 231.236C158.485 260.169 101.933 250.671 89.2237 281.99C78.1914 309.178 109.518 335.919 123.035 361.818C135.074 384.884 138.811 423.84 164.781 426.761C202.946 431.054 229.759 376.691 268.156 378.143C289.705 378.958 284.241 420.142 302.188 431.959C320.024 443.703 343.625 439.836 364.951 441.879C399.002 445.141 459.737 481.201 466.31 447.684C475.597 400.323 385.057 377.061 387.107 328.891C388.504 296.065 468.71 314.956 473.343 282.408Z" stroke="#1F10FF"/>
<path d="M481.681 281.186C485.825 252.07 414.206 269.376 403.798 241.947C390.336 206.472 437.84 166.587 424.688 130.995C414.234 102.707 376.449 81.8478 346.566 87.0711C312.035 93.1069 304.57 150.19 270.382 157.967C236.468 165.682 200.984 106.874 172.38 126.697C144.298 146.159 187.673 198.371 169.989 227.543C151.603 257.874 92.317 247.918 78.9936 280.751C67.4278 309.252 100.269 337.286 114.439 364.436C127.059 388.617 130.976 429.455 158.202 432.518C198.212 437.018 226.321 380.027 266.574 381.549C289.165 382.404 283.437 425.578 302.251 437.966C320.949 450.277 345.691 446.223 368.048 448.365C403.745 451.785 467.416 489.586 474.306 454.449C484.042 404.8 389.126 380.414 391.276 329.916C392.74 295.504 476.824 315.307 481.681 281.186Z" stroke="#1F10FF"/>
<path d="M490.033 279.973C494.369 249.514 419.448 267.618 408.56 238.926C394.477 201.815 444.172 160.091 430.413 122.858C419.478 93.2658 379.95 71.4453 348.69 76.9096C312.567 83.2239 304.757 142.938 268.993 151.075C233.515 159.146 196.395 97.626 166.472 118.363C137.095 138.722 182.47 193.341 163.97 223.859C144.736 255.588 82.7166 245.173 68.7786 279.52C56.6794 309.336 91.0344 338.661 105.858 367.063C119.06 392.359 123.157 435.08 151.638 438.283C193.493 442.991 222.899 383.372 265.008 384.964C288.64 385.858 282.648 431.022 302.329 443.981C321.889 456.861 347.772 452.619 371.16 454.859C408.503 458.437 475.109 497.981 482.317 461.224C492.503 409.285 393.211 383.776 395.46 330.949C396.992 294.951 484.952 315.667 490.033 279.973Z" stroke="#1F10FF"/>
<path d="M498.378 278.746C502.905 246.945 424.681 265.847 413.313 235.89C398.61 197.144 450.496 153.581 436.131 114.707C424.714 83.811 383.444 61.0291 350.805 66.7344C313.09 73.3272 304.936 135.673 267.595 144.168C230.553 152.595 191.797 88.3646 160.556 110.016C129.884 131.273 177.258 188.298 157.943 220.161C137.861 253.289 73.1079 242.415 58.5554 278.275C45.9226 309.405 81.7919 340.023 97.2683 369.676C111.052 396.087 115.33 440.69 145.066 444.035C188.766 448.95 219.468 386.703 263.433 388.366C288.107 389.298 281.85 436.453 302.399 449.983C322.821 463.43 349.845 459.001 374.263 461.34C413.252 465.075 482.794 506.362 490.321 467.985C500.955 413.757 397.287 387.124 399.635 331.969C401.235 294.385 493.072 316.013 498.378 278.746Z" stroke="#1F10FF"/>
<path d="M506.73 277.533C511.449 244.39 429.923 264.09 418.075 232.869C402.752 192.487 456.828 147.085 441.857 106.571C429.958 74.3704 386.946 50.627 352.929 56.5733C313.622 63.4446 305.123 128.422 266.206 137.276C227.6 146.059 187.209 79.1175 154.648 101.683C122.681 123.837 172.055 183.269 151.925 216.477C130.994 251.003 63.5077 239.671 48.3407 277.045C35.1745 309.489 72.5577 341.399 88.6873 372.304C103.053 399.829 107.511 446.315 138.503 449.801C184.047 454.923 216.046 390.049 261.867 391.781C287.583 392.753 281.061 441.899 302.478 456C323.762 470.014 351.927 465.398 377.376 467.836C418.01 471.728 490.488 514.756 498.332 474.76C509.416 418.243 401.371 390.487 403.819 333.004C405.487 293.833 501.201 316.373 506.73 277.533Z" stroke="#1F10FF"/>
<path d="M515.076 276.324C519.986 241.838 435.157 262.337 422.83 229.851C406.886 187.834 463.153 140.593 447.575 98.4378C435.195 64.9332 390.44 40.2284 355.046 46.4157C314.147 53.5655 305.303 121.175 264.809 130.387C224.64 139.526 182.613 69.8737 148.733 93.3534C115.472 116.405 166.845 178.244 145.899 212.796C124.12 248.721 53.9004 236.93 38.1189 275.818C24.4192 309.576 63.3166 342.778 80.0993 374.935C95.0466 403.575 99.6855 451.944 131.932 455.57C179.321 460.9 212.617 393.398 260.294 395.2C287.051 396.211 280.265 447.347 302.549 462.019C324.695 476.601 354.001 471.798 380.481 474.334C422.761 478.384 498.175 523.155 506.337 481.538C517.87 422.733 405.449 393.852 407.996 334.041C409.732 293.284 509.322 316.737 515.076 276.324Z" stroke="#1F10FF"/>
<path d="M523.428 275.093C528.529 239.265 440.397 260.562 427.591 226.812C411.026 183.16 469.483 134.079 453.3 90.2837C440.437 55.475 393.941 29.8088 357.169 36.2371C314.677 43.6653 305.489 113.906 263.419 123.478C221.686 132.972 178.022 60.6089 142.824 85.0027C108.267 108.951 161.641 173.197 139.879 209.095C117.252 246.418 44.2987 234.169 27.9026 274.57C13.6695 309.642 54.0809 344.136 71.5169 377.545C87.0459 407.299 91.8652 457.551 125.367 461.319C174.601 466.855 209.193 396.726 258.726 398.598C286.525 399.649 279.475 452.775 302.626 468.018C325.634 483.167 356.081 478.177 383.592 480.812C427.518 485.019 505.867 531.532 514.347 488.296C526.33 427.201 409.532 397.197 412.179 335.058C413.982 292.714 517.45 317.08 523.428 275.093Z" stroke="#1F10FF"/>
<path d="M531.773 273.884C537.066 236.714 445.632 258.809 432.345 223.794C415.161 178.507 475.808 127.587 459.019 82.1505C445.674 46.0377 397.436 19.4102 359.286 26.0795C315.202 33.7862 305.669 106.659 262.022 116.589C218.726 126.44 173.427 51.3652 136.909 76.673C101.058 101.519 156.431 168.172 133.853 205.414C110.379 244.136 34.6915 231.428 17.6809 273.343C2.91423 309.729 44.8398 345.516 62.929 380.176C79.0397 411.045 84.0394 463.179 118.797 467.088C169.875 472.832 205.764 400.075 257.153 402.017C285.993 403.107 278.679 458.223 302.697 474.037C326.568 489.754 358.155 484.577 386.697 487.31C432.269 491.675 513.553 539.931 522.352 495.074C534.783 431.691 413.609 400.563 416.355 336.096C418.227 292.165 525.571 317.443 531.773 273.884Z" stroke="#1F10FF"/>
<path d="M540.119 272.675C545.602 234.162 450.866 257.056 437.1 220.777C419.295 173.854 482.133 121.095 464.737 74.0179C450.911 36.601 400.93 9.01204 361.402 15.9223C315.726 23.9075 305.849 99.4118 260.626 109.701C215.765 119.907 168.83 42.1219 130.994 68.3438C93.8476 94.0872 151.22 163.147 127.827 201.734C103.505 241.854 25.084 228.688 7.45882 272.117C-7.84128 309.817 35.5984 346.895 54.3407 382.807C71.0332 414.791 76.2133 468.808 112.226 472.858C165.149 478.809 202.334 403.424 255.579 405.436C285.461 406.565 277.883 463.672 302.769 480.057C327.501 496.341 360.229 490.977 389.802 493.809C437.02 498.331 521.24 548.329 530.356 501.853C543.237 436.18 417.687 403.929 420.532 337.134C422.471 291.617 533.692 317.808 540.119 272.675Z" stroke="#1F10FF"/>
<path d="M548.471 271.462C554.146 231.607 456.108 255.299 441.862 217.755C423.436 169.197 488.465 114.599 470.463 65.8813C456.155 27.1604 404.432 -1.39 363.526 5.76129C316.258 14.025 306.036 92.161 259.236 102.809C212.812 113.371 164.241 32.8747 125.086 60.0107C86.6446 86.6515 146.017 158.118 121.808 198.05C96.6376 239.569 15.4835 225.944 -2.75624 270.887C-18.5899 309.901 26.3639 348.271 45.7594 385.435C63.0337 418.533 68.3941 474.433 105.662 478.624C160.43 484.782 198.912 406.77 254.013 408.852C284.937 410.02 277.094 469.118 302.847 486.074C328.441 502.925 362.31 497.374 392.913 500.304C441.778 504.984 528.933 556.724 538.367 508.628C551.698 440.666 421.771 407.292 424.716 338.168C426.723 291.065 541.821 318.168 548.471 271.462Z" stroke="#1F10FF"/>
<path d="M556.816 270.235C562.682 229.037 461.341 253.528 446.615 214.719C427.569 164.526 494.789 108.089 476.18 57.7301C461.39 17.7051 407.926 -11.8067 365.642 -4.4144C316.781 4.12776 306.215 84.8954 257.839 95.902C209.851 106.82 159.644 23.6129 119.17 51.663C79.4336 79.2011 140.805 153.074 115.781 194.352C89.7627 237.269 5.87501 223.185 -12.9792 269.642C-29.3463 309.97 17.1216 349.633 37.1703 388.048C55.0263 422.261 60.5671 480.043 99.0902 484.375C155.703 490.741 195.481 410.101 252.438 412.252C284.404 413.46 276.296 474.548 302.917 492.075C329.373 509.494 364.383 503.756 396.018 506.785C446.528 511.622 536.619 565.105 546.371 515.388C560.15 445.138 425.847 410.639 428.892 339.188C430.966 290.498 549.941 318.513 556.816 270.235Z" stroke="#1F10FF"/>
<path d="M565.168 269.021C571.226 226.482 466.583 251.77 451.377 211.698C431.71 159.869 501.121 101.593 481.906 49.5933C466.634 8.26421 411.427 -22.209 367.766 -14.5757C317.313 -5.75506 306.402 77.6443 256.449 89.0097C206.897 100.284 155.055 14.3655 113.262 43.3296C72.2307 71.7652 135.602 148.045 109.762 190.668C82.8959 234.983 -3.72539 220.441 -23.1941 268.411C-40.0947 310.053 7.88721 351.008 28.5892 390.675C47.0269 426.003 52.7481 485.668 92.5265 490.141C150.985 496.713 192.059 413.446 250.872 415.668C283.879 416.915 275.507 479.993 302.995 498.091C330.314 516.078 366.465 510.152 399.13 513.28C451.286 518.274 544.312 573.499 554.382 522.163C568.611 449.624 429.932 414.001 433.075 340.222C435.218 289.946 558.069 318.874 565.168 269.021Z" stroke="#1F10FF"/>
<path d="M573.506 267.799C579.755 223.917 471.809 250.004 456.124 208.667C435.837 155.202 507.437 95.0874 487.616 41.447C471.863 -1.18621 414.914 -32.6208 369.874 -24.7465C317.829 -15.6474 306.574 70.3836 255.045 82.1078C203.929 93.7378 150.451 5.10851 107.339 34.9867C65.0126 64.3197 130.384 143.007 103.728 186.974C76.0139 232.688 -13.3409 217.687 -33.4243 267.171C-50.8582 310.127 -1.36218 352.374 19.9929 393.293C39.0124 429.735 44.914 491.283 85.9477 495.897C146.25 502.677 188.621 416.782 249.291 419.073C283.339 420.359 274.703 485.428 303.058 504.097C331.239 522.651 368.531 516.539 402.226 519.765C456.029 524.917 551.991 581.884 562.378 528.928C577.056 454.1 434.001 417.354 437.244 341.246C439.454 289.384 566.183 319.224 573.506 267.799Z" stroke="#1F10FF"/>
<path d="M581.865 266.581C588.305 221.357 477.057 248.242 460.892 205.641C439.985 150.541 513.776 88.587 493.349 33.3058C477.114 -10.6315 418.422 -43.0275 372.005 -34.9122C318.368 -25.5346 306.768 63.1281 253.662 75.211C200.983 87.197 145.869 -4.14327 101.437 26.649C57.8164 56.8794 125.187 137.973 97.7161 183.286C69.1538 230.398 -22.9346 214.938 -43.6324 265.936C-61.5999 310.206 -10.5898 353.746 11.4185 395.915C31.0197 433.473 37.1016 496.903 79.3907 501.658C141.538 508.645 185.206 420.123 247.731 422.484C282.821 423.81 273.92 490.869 303.143 510.109C332.186 529.23 370.619 522.931 405.345 526.256C460.793 531.565 559.691 590.275 570.397 535.698C585.524 458.581 438.092 420.712 441.435 342.276C443.712 288.827 574.318 319.58 581.865 266.581Z" stroke="#1F10FF"/>
<path d="M590.211 265.373C596.842 218.806 482.292 246.49 465.647 202.624C444.119 145.888 520.101 82.0953 499.068 25.1734C482.351 -20.068 421.917 -53.4254 374.122 -45.0691C318.892 -35.413 306.948 55.8814 252.266 68.3231C198.023 80.6649 141.273 -13.3863 95.5224 18.3201C50.6066 49.4478 119.977 132.948 91.6904 179.606C62.2801 228.117 -32.5418 212.198 -53.8543 264.71C-72.3552 310.294 -19.831 355.126 2.83049 398.547C23.0135 437.219 29.2758 502.532 72.8201 507.428C136.812 514.623 181.776 423.472 246.158 425.904C282.289 427.268 273.124 496.318 303.215 516.129C333.119 535.818 372.693 529.332 408.45 532.755C465.544 538.222 567.378 598.674 578.401 542.478C593.978 463.071 442.169 424.078 445.612 343.314C447.957 288.279 582.439 319.944 590.211 265.373Z" stroke="#1F10FF"/>
<path d="M598.555 264.146C605.378 216.237 487.525 244.719 470.401 199.588C448.252 141.218 526.425 75.5857 504.785 17.0229C487.586 -29.5225 425.411 -63.8413 376.238 -55.244C319.416 -45.3095 307.127 48.6166 250.868 61.4171C195.061 74.1148 136.676 -22.6474 89.6061 9.97305C43.3954 41.9982 114.765 127.906 85.6632 175.908C55.4049 225.817 -42.1506 209.44 -64.0775 263.466C-83.1119 310.364 -29.0736 356.488 -5.75887 401.161C15.0059 440.948 21.4486 508.143 66.2482 513.18C132.085 520.582 178.346 426.804 244.583 429.306C281.756 430.709 272.327 501.75 303.285 522.132C334.052 542.388 374.766 535.714 411.554 539.236C470.294 544.861 575.063 607.055 586.404 549.239C602.43 467.543 446.246 427.427 449.787 344.335C452.2 287.713 590.56 320.29 598.555 264.146Z" stroke="#1F10FF"/>
<path d="M606.908 262.933C613.922 213.682 492.767 242.962 475.162 196.567C452.393 136.561 532.756 69.0896 510.511 8.88612C492.83 -38.9634 428.912 -74.2436 378.361 -65.4053C319.947 -55.1923 307.314 41.3654 249.479 54.5247C192.108 67.5784 132.087 -31.8948 83.6981 1.63972C36.1924 34.5622 109.562 122.876 79.6443 172.224C48.538 223.532 -51.751 206.696 -74.2925 262.235C-93.8604 310.447 -38.308 357.863 -14.3401 403.788C7.00641 444.69 13.6294 513.768 59.6844 518.946C127.366 526.555 174.923 430.149 243.016 432.721C281.231 434.164 271.538 507.194 303.363 528.147C334.992 548.971 376.847 542.11 414.666 545.731C475.052 551.513 582.756 615.449 594.416 556.013C610.891 472.029 450.33 430.789 453.971 345.369C456.452 287.16 598.688 320.65 606.908 262.933Z" stroke="#1F10FF"/>
<path d="M615.257 261.713C622.462 211.119 498.004 241.197 479.92 193.538C456.531 131.897 539.085 62.5865 516.233 0.742255C498.07 -48.4113 432.41 -84.653 380.481 -75.5737C320.475 -65.0822 307.497 34.1072 248.086 47.6253C189.151 61.0348 127.494 -41.1493 77.7864 -6.70071C28.9857 27.1192 104.355 117.84 73.6217 168.533C41.6675 221.239 -61.3551 203.945 -84.5111 260.997C-104.612 310.524 -47.546 359.232 -22.9249 406.408C-0.996659 448.424 5.80675 519.386 53.117 524.704C122.644 532.521 171.497 433.488 241.446 436.129C280.703 437.611 270.745 512.632 303.437 534.156C335.928 555.548 378.924 548.5 417.774 552.219C479.806 558.158 590.446 623.837 602.423 562.781C619.348 476.508 454.411 434.144 458.151 346.396C460.7 286.601 606.813 321.003 615.257 261.713Z" stroke="#1F10FF"/>
<path d="M623.587 260.494C630.983 208.558 503.223 239.435 484.66 190.511C460.65 127.234 545.394 56.0849 521.936 -7.40016C503.291 -57.8578 435.889 -95.0609 382.583 -85.7406C320.984 -74.9706 307.662 26.8504 246.674 40.7273C186.175 54.4928 122.883 -50.4024 71.8559 -15.0397C21.7604 19.6776 99.1294 112.805 67.5804 164.843C34.7782 218.948 -70.978 201.195 -94.7485 259.761C-115.383 310.602 -56.8028 360.602 -31.5285 409.03C-9.01851 452.161 -2.03473 525.005 46.5309 530.464C117.902 538.488 168.052 436.827 239.857 439.539C280.156 441.06 269.933 518.072 303.493 540.167C336.846 562.125 380.983 554.89 420.864 558.709C484.542 564.805 598.117 632.226 610.412 569.55C627.786 480.988 458.472 437.5 462.312 347.424C464.929 286.043 614.919 321.358 623.587 260.494Z" stroke="#1F10FF"/>
<path d="M631.939 259.281C639.527 206.003 508.465 237.678 489.421 187.489C464.791 122.577 551.726 49.5889 527.661 -15.537C508.535 -67.2987 439.391 -105.463 384.707 -95.9019C321.516 -84.8534 307.849 19.5993 245.284 33.8349C183.222 47.9563 118.294 -59.6498 65.9479 -23.373C14.5574 12.2417 93.9261 107.776 61.5615 161.159C27.9114 216.662 -80.5784 198.45 -104.963 258.531C-126.132 310.685 -66.037 361.978 -40.1096 411.657C-17.0178 455.903 -9.85366 530.629 39.9672 536.23C113.184 544.461 164.63 440.173 238.291 442.954C279.631 444.515 269.144 523.517 303.571 546.183C337.787 568.709 383.064 561.287 423.976 565.203C489.3 571.457 605.811 640.621 618.424 576.325C636.247 485.474 462.557 440.863 466.496 348.458C469.18 285.49 623.047 321.718 631.939 259.281Z" stroke="#1F10FF"/>
<path d="M640.292 258.068C648.072 203.447 513.707 235.92 494.183 184.468C468.932 117.92 558.058 43.0928 533.388 -23.6738C513.779 -76.7396 442.893 -115.865 386.831 -106.063C322.048 -94.7362 308.036 12.3482 243.895 26.9426C180.269 41.4198 113.705 -68.8972 60.0403 -31.7063C7.35485 4.80576 88.7231 102.747 55.543 157.475C21.0448 214.376 -90.1784 195.706 -115.178 257.3C-136.88 310.769 -75.2711 363.353 -48.6904 414.284C-25.0169 459.645 -17.6724 536.254 33.4038 541.996C108.465 550.434 161.208 443.518 236.725 446.369C279.107 447.969 268.355 528.961 303.65 552.198C338.727 575.292 385.146 567.683 427.088 571.698C494.058 578.109 613.504 649.015 626.436 583.1C644.708 489.959 466.642 444.225 470.68 349.492C473.432 284.938 631.176 322.078 640.292 258.068Z" stroke="#1F10FF"/>
<path d="M648.637 256.841C656.607 200.878 518.94 234.15 498.937 181.433C473.065 113.25 564.382 36.5831 539.105 -31.8243C519.015 -86.1942 446.387 -126.281 388.946 -116.238C322.571 -104.633 308.215 5.08337 242.498 20.0365C177.308 34.8697 109.108 -78.1583 54.124 -40.0534C0.143602 -2.64387 83.5115 97.7043 49.5158 153.777C14.1696 212.077 -99.7871 192.948 -125.401 256.056C-147.637 310.839 -84.5137 364.715 -57.2799 416.898C-33.0246 463.373 -25.4997 541.865 26.8319 547.748C103.738 556.393 157.777 446.85 235.15 449.77C278.573 451.41 267.558 534.393 303.72 558.201C339.659 581.862 387.219 574.066 430.192 578.179C498.807 584.748 621.19 657.396 634.439 589.861C653.16 494.431 470.718 447.573 474.856 350.513C477.675 284.372 639.296 322.424 648.637 256.841Z" stroke="#1F10FF"/>
<path d="M656.989 255.628C665.151 198.323 524.181 232.392 503.699 178.411C477.207 108.593 570.714 30.0871 544.831 -39.961C524.259 -95.635 449.888 -136.684 391.07 -126.399C323.103 -114.515 308.402 -2.16777 241.108 13.1442C174.354 28.3333 104.519 -87.4057 48.216 -48.3867C-7.05932 -10.0798 78.3082 92.6751 43.497 150.093C7.30282 209.791 -109.387 190.204 -135.616 254.825C-158.385 310.922 -93.748 366.091 -65.861 419.525C-41.0239 467.115 -33.3187 547.49 20.2682 553.514C99.0189 562.366 154.355 450.195 233.584 453.186C278.049 454.864 266.769 539.838 303.798 564.217C340.6 588.445 389.3 580.462 433.304 584.674C503.565 591.401 628.883 665.791 642.45 596.636C661.621 498.917 474.802 450.935 479.039 351.547C481.927 283.819 647.424 322.784 656.989 255.628Z" stroke="#1F10FF"/>
<path d="M665.342 254.415C673.695 195.767 529.423 230.635 508.46 175.39C481.348 103.936 577.045 23.5911 550.556 -48.0978C529.503 -105.076 453.39 -147.086 393.194 -136.561C323.634 -124.398 308.589 -9.41889 239.719 6.25185C171.401 21.7968 99.9299 -96.6531 42.308 -56.7201C-14.2623 -17.5158 73.1049 87.646 37.4781 146.409C0.435881 207.505 -118.988 187.459 -145.831 253.595C-169.133 311.006 -102.982 367.467 -74.4421 422.152C-49.0234 470.857 -41.1377 553.114 13.7044 559.279C94.2999 568.339 150.932 453.54 232.017 456.601C277.524 458.319 265.979 545.283 303.876 570.233C341.54 595.029 391.381 586.858 436.416 591.169C508.323 598.053 636.577 674.186 650.462 603.41C670.081 503.403 478.886 454.297 483.223 352.581C486.179 283.267 655.553 323.144 665.342 254.415Z" stroke="#1F10FF"/>
<path d="M673.687 253.206C682.232 193.216 534.657 228.882 513.215 172.372C485.482 99.2824 583.37 17.0987 556.275 -56.231C534.74 -114.513 456.885 -157.485 395.311 -146.718C324.159 -134.277 308.769 -16.6664 238.322 -0.636871C168.441 15.264 95.334 -105.897 36.3931 -65.0498C-21.4721 -24.9481 67.8948 82.6205 31.4523 142.728C-6.43779 205.223 -128.595 184.719 -156.053 252.368C-179.889 311.093 -112.224 368.846 -83.0301 424.783C-57.0296 474.603 -48.9636 558.743 7.13387 565.048C89.5742 574.315 147.503 456.889 230.444 460.02C276.992 461.777 265.183 550.731 303.948 576.252C342.473 601.616 393.455 593.258 439.521 597.668C513.074 604.709 644.263 682.584 658.466 610.189C678.535 507.892 482.964 457.663 487.4 353.618C490.423 282.718 663.674 323.508 673.687 253.206Z" stroke="#1F10FF"/>
<path d="M682.032 251.979C690.768 190.646 539.891 227.111 517.969 169.336C489.615 94.6118 589.694 10.589 561.992 -64.3814C539.975 -123.968 460.378 -167.901 397.426 -156.893C324.682 -144.174 308.948 -23.9312 236.925 -7.54286C165.48 8.71392 90.7367 -115.158 30.4768 -73.3967C-28.6834 -32.3977 62.6831 77.5777 25.4251 139.03C-13.313 202.924 -138.204 181.961 -166.276 251.124C-190.645 311.162 -121.466 370.208 -91.6196 427.397C-65.0374 478.331 -56.791 564.354 0.561806 570.801C84.847 580.275 144.072 460.221 228.869 463.421C276.459 465.218 264.386 556.162 304.018 582.254C343.405 608.186 395.528 599.641 442.625 604.149C517.824 611.348 651.948 690.965 666.469 616.95C686.988 512.365 487.04 461.012 491.576 354.639C494.666 282.152 671.794 323.854 682.032 251.979Z" stroke="#1F10FF"/>
<path d="M690.384 250.766C699.311 188.091 545.132 225.354 522.73 166.315C493.756 89.9548 596.026 4.09296 567.718 -72.5183C545.219 -133.409 463.88 -178.303 399.55 -167.055C325.214 -154.057 309.135 -31.1824 235.535 -14.4353C162.526 2.17738 86.1478 -124.405 24.5688 -81.7301C-35.8863 -39.8337 57.4799 72.5485 19.4063 135.346C-20.1798 200.638 -147.804 179.216 -176.491 249.893C-201.394 311.246 -130.7 371.584 -100.201 430.024C-73.0366 482.073 -64.6099 569.978 -6.00183 576.566C80.1281 586.247 140.65 463.566 227.303 466.837C275.934 468.672 263.597 561.607 304.096 588.27C344.346 614.769 397.609 606.037 445.737 610.644C522.582 618 659.642 699.36 674.481 623.725C695.448 516.85 491.124 464.374 495.759 355.673C498.918 281.6 679.923 324.214 690.384 250.766Z" stroke="#1F10FF"/>
<path d="M698.729 249.539C707.847 185.522 550.365 223.583 527.484 163.279C497.89 85.284 602.35 -2.41699 573.435 -80.669C550.455 -142.863 467.373 -188.719 401.666 -177.23C325.737 -163.953 309.314 -38.4474 234.138 -21.3415C159.565 -4.37296 81.5506 -133.667 18.6527 -90.0774C-43.0974 -47.2835 52.2685 67.5054 13.3793 131.648C-27.0548 198.339 -157.413 176.458 -186.714 248.648C-212.15 311.315 -139.943 372.945 -108.79 432.637C-81.0442 485.801 -72.437 575.589 -12.5737 582.318C75.401 592.206 137.219 466.897 225.729 470.238C275.401 472.113 262.799 567.038 304.166 594.272C345.278 621.338 399.682 612.42 448.841 617.125C527.332 624.638 667.327 707.741 682.484 630.485C703.901 521.322 495.2 467.722 499.935 356.693C503.161 281.033 688.043 324.56 698.729 249.539Z" stroke="#1F10FF"/>
<path d="M707.074 248.33C716.384 182.97 555.6 221.83 532.239 160.262C502.024 80.6309 608.674 -8.90912 579.154 -88.8019C555.691 -152.3 470.868 -199.117 403.783 -187.387C326.262 -173.832 309.494 -45.6946 232.741 -28.23C156.605 -10.9055 76.9546 -142.91 12.7376 -98.4068C-50.3074 -54.7155 47.0581 62.4802 7.3533 127.968C-33.9287 196.057 -167.02 173.718 -196.936 247.422C-222.906 311.403 -149.184 374.325 -117.378 435.269C-89.0507 489.547 -80.2632 581.218 -19.1445 588.087C70.675 598.183 133.79 470.247 224.155 473.657C274.87 475.571 262.003 572.487 304.237 600.292C346.211 627.926 401.756 618.82 451.945 623.624C532.083 631.295 675.014 716.139 690.488 637.264C712.354 525.812 499.278 471.088 504.112 357.731C507.406 280.485 696.164 324.924 707.074 248.33Z" stroke="#1F10FF"/>
<path d="M715.42 247.121C724.921 180.419 560.834 220.077 536.994 157.245C506.158 75.9784 614.999 -15.4007 584.873 -96.9343C560.928 -161.737 474.363 -209.515 405.9 -197.544C326.787 -183.711 309.674 -52.9414 231.345 -35.1179C153.645 -17.4376 72.3587 -152.153 6.82271 -106.736C-57.5172 -62.1471 41.8479 57.4555 1.32758 124.288C-40.8024 193.776 -176.628 170.978 -207.158 246.196C-233.661 311.491 -158.426 375.705 -125.966 437.9C-97.0569 493.293 -88.089 586.847 -25.715 593.858C65.9493 604.161 130.36 473.596 222.582 477.077C274.338 479.03 261.207 577.936 304.309 606.312C347.144 634.513 403.831 625.221 455.051 630.123C536.834 637.951 682.7 724.538 698.493 644.043C720.808 530.302 503.355 474.454 508.289 358.769C511.651 279.937 704.286 325.289 715.42 247.121Z" stroke="#1F10FF"/>
<path d="M723.765 245.894C733.457 177.85 566.068 218.306 541.747 154.209C510.291 71.3075 621.323 -21.9107 590.59 -105.085C566.164 -171.192 477.857 -219.931 408.015 -207.719C327.31 -193.607 309.853 -60.2064 229.947 -42.0242C150.683 -23.9879 67.7616 -161.415 0.90659 -115.083C-64.7283 -69.5969 36.6365 52.4124 -4.69947 120.59C-47.6775 191.476 -186.236 168.22 -217.381 244.951C-244.418 311.56 -167.668 377.067 -134.555 440.514C-105.064 497.021 -95.9162 592.458 -32.2869 599.609C61.2222 610.12 126.93 476.928 221.007 480.478C273.805 482.471 260.41 583.367 304.379 612.314C348.077 641.083 405.904 631.603 458.155 636.604C541.584 644.59 690.386 732.919 706.496 650.804C729.261 534.774 507.431 477.803 512.464 359.789C515.894 279.37 712.406 325.635 723.765 245.894Z" stroke="#1F10FF"/>
<path d="M732.117 244.681C742.001 175.294 571.309 216.549 546.509 151.188C514.433 66.6505 627.655 -28.4067 596.316 -113.222C571.408 -180.633 481.358 -230.334 410.139 -217.881C327.842 -203.49 310.04 -67.4575 228.558 -48.9165C147.73 -30.5244 63.1726 -170.662 -5.0014 -123.416C-71.9312 -77.0329 31.4332 47.3833 -10.7184 116.906C-54.5444 189.19 -195.837 165.475 -227.596 243.721C-255.166 311.644 -176.902 378.442 -143.137 443.141C-113.064 500.763 -103.735 598.082 -38.8506 605.375C56.5033 616.092 123.507 480.273 219.441 483.893C273.28 485.925 259.621 588.812 304.457 618.33C349.017 647.666 407.985 637.999 461.267 643.099C546.341 651.242 698.079 741.314 714.508 657.579C737.722 539.259 511.516 481.165 516.648 360.823C520.145 278.818 720.535 325.995 732.117 244.681Z" stroke="#1F10FF"/>
<path d="M740.47 243.468C750.544 172.739 576.551 214.792 551.271 148.166C518.574 61.9936 633.987 -34.9027 602.042 -121.359C576.652 -190.073 484.86 -240.736 412.263 -228.042C328.373 -213.373 310.227 -74.7087 227.169 -55.8089C144.777 -37.0608 58.5836 -179.91 -10.9094 -131.75C-79.1341 -84.4689 26.2299 42.3541 -16.7372 113.222C-61.4111 186.905 -205.437 162.731 -237.811 242.49C-265.915 311.727 -186.137 379.818 -151.718 445.768C-121.063 504.505 -111.554 603.707 -45.4142 611.141C51.7845 622.065 120.085 483.618 217.874 487.309C272.756 489.38 258.832 594.257 304.535 624.346C349.957 654.25 410.066 644.396 464.379 649.594C551.099 657.894 705.773 749.708 722.519 664.354C746.182 543.745 515.6 484.527 520.832 361.857C524.397 278.266 728.663 326.355 740.47 243.468Z" stroke="#1F10FF"/>
<path d="M748.818 242.248C759.084 170.177 581.788 213.028 556.028 145.138C522.711 57.3298 640.315 -41.4056 607.763 -129.502C581.891 -199.521 488.357 -251.145 414.382 -238.21C328.901 -223.263 310.41 -81.9666 225.775 -62.7081C141.82 -43.6041 53.9904 -189.164 -16.8216 -140.09C-86.3413 -91.9116 21.0223 37.3182 -22.7603 109.531C-68.2823 184.612 -215.042 159.98 -248.03 241.253C-276.667 311.804 -195.375 381.187 -160.303 448.389C-129.067 508.24 -119.377 609.325 -51.9822 616.9C47.0613 628.031 116.658 486.957 216.304 490.717C272.227 492.827 258.038 599.695 304.609 630.355C350.893 660.826 412.143 650.785 467.486 656.082C555.853 664.54 713.462 758.096 730.526 671.121C754.639 548.224 519.68 487.882 525.011 362.885C528.644 277.706 736.787 326.708 748.818 242.248Z" stroke="#1F10FF"/>
<path d="M757.167 241.028C767.624 167.615 587.025 211.264 560.786 142.109C526.848 52.6661 646.642 -47.9084 613.485 -137.646C587.131 -208.969 491.855 -261.554 416.502 -248.378C329.428 -233.152 310.593 -89.2246 224.381 -69.6073C138.862 -50.1474 49.3973 -198.418 -22.7338 -148.43C-93.5484 -99.3544 15.8149 32.2822 -28.7834 105.84C-75.1533 182.32 -224.646 157.229 -258.249 240.015C-287.42 311.881 -204.614 382.556 -168.888 451.009C-137.07 511.975 -127.201 614.943 -58.55 622.658C42.3383 633.998 113.232 490.295 214.733 494.125C271.698 496.275 257.245 605.134 304.683 636.365C351.83 667.403 414.22 657.175 470.594 662.57C560.607 671.186 721.151 766.484 738.534 677.889C763.095 552.703 523.76 491.237 529.191 363.912C532.892 277.147 744.912 327.061 757.167 241.028Z" stroke="#1F10FF"/>
<path d="M765.508 239.812C776.157 165.056 592.256 209.503 565.536 139.084C530.978 48.0059 652.963 -54.4077 619.199 -145.786C592.364 -218.413 495.346 -271.96 418.615 -258.543C329.949 -243.038 310.769 -96.479 222.981 -76.5028C135.898 -56.687 44.7972 -207.669 -28.6528 -156.767C-100.762 -106.794 10.6006 27.2499 -34.8133 102.153C-82.0312 180.031 -234.258 154.481 -268.475 238.781C-298.179 311.961 -213.859 383.928 -177.481 453.633C-145.081 515.714 -135.031 620.564 -65.1248 628.421C37.6083 639.967 109.798 493.637 213.156 497.537C271.162 499.726 256.445 610.575 304.751 642.377C352.759 673.983 416.29 663.567 473.695 669.062C565.354 677.835 728.834 774.875 746.534 684.661C771.545 557.185 527.834 494.596 533.364 364.943C537.132 276.591 753.029 327.418 765.508 239.812Z" stroke="#1F10FF"/>
<path d="M773.853 238.585C784.693 162.487 597.489 207.732 570.29 136.049C535.112 43.335 659.287 -60.9176 624.917 -153.937C597.6 -227.868 498.84 -282.376 420.731 -268.718C330.472 -252.935 310.948 -103.744 221.584 -83.4091C132.937 -63.2374 40.2004 -216.93 -34.5686 -165.114C-107.973 -114.243 5.38951 22.2068 -40.8399 98.4545C-88.9058 177.731 -243.866 151.723 -278.698 237.537C-308.935 312.03 -223.101 385.29 -186.07 456.246C-153.088 519.442 -142.858 626.175 -71.6963 634.173C32.8816 645.926 106.368 496.969 211.582 500.939C270.629 503.167 255.648 616.006 304.821 648.379C353.691 680.553 418.364 669.95 476.799 675.543C570.104 684.473 736.519 783.256 754.538 691.422C779.998 561.657 531.91 497.945 537.54 365.963C541.376 276.025 761.15 327.764 773.853 238.585Z" stroke="#1F10FF"/>
<path d="M782.205 237.372C793.237 159.931 602.731 205.976 575.052 133.028C539.253 38.6784 665.619 -67.4134 630.643 -162.073C602.844 -237.308 502.341 -292.778 422.855 -278.879C331.004 -262.818 311.135 -110.995 220.194 -90.3012C129.984 -69.7736 35.6115 -226.177 -40.4766 -173.447C-115.176 -121.679 0.18623 17.1779 -46.8588 94.7705C-95.7726 175.446 -253.466 148.979 -288.913 236.307C-319.684 312.114 -232.336 386.666 -194.651 458.874C-161.087 523.184 -150.676 631.8 -78.2599 639.939C28.1628 651.899 102.945 500.314 210.015 504.354C270.104 506.621 254.858 621.452 304.899 654.395C354.632 687.136 420.445 676.347 479.911 682.038C574.862 691.126 744.213 791.651 762.549 698.197C788.458 566.143 535.995 501.307 541.724 366.997C545.628 275.473 769.278 328.124 782.205 237.372Z" stroke="#1F10FF"/>
<path d="M790.551 236.163C801.773 157.38 607.965 204.223 579.807 130.011C543.387 34.0258 671.944 -73.905 636.361 -170.206C608.08 -246.745 505.836 -303.176 424.971 -289.036C331.528 -272.696 311.315 -118.242 218.798 -97.1892C127.023 -76.3057 31.0153 -235.42 -46.3918 -181.776C-122.386 -129.111 -5.02425 12.1531 -52.8848 91.0908C-102.647 173.164 -263.074 146.239 -299.135 235.08C-330.439 312.202 -241.577 388.046 -203.239 461.506C-169.094 526.931 -158.503 637.429 -84.8309 645.709C23.4367 657.877 99.5159 503.664 208.442 507.774C269.572 510.08 254.062 626.901 304.97 660.416C355.565 693.724 422.519 682.747 483.016 688.537C579.613 697.782 751.899 800.05 770.553 704.976C796.912 570.634 540.072 504.673 545.9 368.035C549.872 274.925 777.399 328.489 790.551 236.163Z" stroke="#1F10FF"/>
<path d="M798.895 234.936C810.309 154.811 613.199 202.452 584.56 126.975C547.52 29.3549 678.268 -80.415 642.079 -178.356C613.316 -256.2 509.329 -313.592 427.087 -299.211C332.052 -282.593 311.494 -125.507 217.4 -104.095C124.062 -82.8561 26.4183 -244.682 -52.3078 -190.123C-129.597 -136.561 -10.2355 7.11 -58.9117 87.3927C-109.521 170.865 -272.682 143.481 -309.358 233.836C-341.196 312.272 -250.819 389.408 -211.828 464.119C-177.101 530.659 -166.33 643.039 -91.4024 651.46C18.7098 663.836 96.0855 506.995 206.867 511.175C269.04 513.521 253.265 632.332 305.041 666.418C356.497 700.293 424.592 689.13 486.12 695.018C584.363 704.421 759.585 808.431 778.557 711.737C805.365 575.105 544.148 508.022 550.076 369.055C554.115 274.358 785.52 328.835 798.895 234.936Z" stroke="#1F10FF"/>
<path d="M807.241 233.727C818.846 152.259 618.433 200.698 589.315 123.957C551.655 24.7016 684.593 -86.9074 647.798 -186.489C618.553 -265.637 512.824 -323.991 429.204 -309.369C332.577 -292.472 311.674 -132.754 216.004 -110.984C121.102 -89.3888 21.8224 -253.925 -58.2227 -198.453C-136.807 -143.993 -15.4458 2.0846 -64.9375 83.7123C-116.395 168.583 -282.29 140.74 -319.58 232.609C-351.951 312.359 -260.061 390.787 -220.416 466.75C-185.108 534.405 -174.156 648.668 -97.9732 657.23C13.9839 669.812 92.6561 510.345 205.294 514.594C268.508 516.979 252.469 637.78 305.112 672.437C357.43 706.881 426.666 695.53 489.225 701.517C589.114 711.077 767.271 816.829 786.561 718.515C813.818 579.595 548.226 511.387 554.253 370.093C558.36 273.81 793.641 329.198 807.241 233.727Z" stroke="#1F10FF"/>
<path d="M815.594 232.514C827.39 149.704 623.675 198.941 594.077 120.936C555.796 20.0449 690.924 -93.4031 653.523 -194.626C623.797 -275.077 516.326 -334.393 431.328 -319.53C333.108 -302.354 311.861 -140.005 214.615 -117.876C118.149 -95.9251 17.2335 -263.172 -64.1307 -206.786C-144.01 -151.429 -20.6491 -2.94431 -70.9564 80.0284C-123.262 166.297 -291.89 137.996 -329.795 231.379C-362.7 312.443 -269.295 392.163 -228.997 469.377C-193.107 538.147 -181.975 654.293 -104.537 662.996C9.26504 675.785 89.2338 513.69 203.728 518.01C267.983 520.434 251.68 643.226 305.19 678.454C358.371 713.464 428.748 701.926 492.337 708.012C593.872 717.73 774.965 825.224 794.573 725.29C822.279 584.081 552.31 514.75 558.437 371.127C562.612 273.258 801.77 329.559 815.594 232.514Z" stroke="#1F10FF"/>
<path d="M823.946 231.301C835.934 147.149 628.916 197.184 598.838 117.914C559.937 15.388 697.256 -99.8991 659.249 -202.763C629.041 -284.518 519.827 -344.795 433.451 -329.691C333.64 -312.237 312.048 -147.256 213.225 -124.769C115.195 -102.461 12.6441 -272.42 -70.039 -215.119C-151.213 -158.864 -25.8526 -7.97344 -76.9756 76.3443C-130.129 164.012 -301.491 135.252 -340.01 230.148C-373.448 312.526 -278.53 393.539 -237.579 472.005C-201.107 541.889 -189.794 659.917 -111.101 668.761C4.54584 681.758 85.811 517.035 202.161 521.425C267.458 523.888 250.89 648.671 305.268 684.469C359.311 720.048 430.828 708.323 495.449 714.507C598.629 724.382 782.658 833.619 802.584 732.065C830.74 588.567 556.394 518.112 562.62 372.162C566.863 272.705 809.898 329.919 823.946 231.301Z" stroke="#1F10FF"/>
</svg>
