<svg width="1440" height="826" viewBox="0 0 1440 826" fill="none" xmlns="http://www.w3.org/2000/svg">
<path fill-rule="evenodd" clip-rule="evenodd" d="M978.512 453.364C914.378 484.46 874.806 349.635 810.247 379.399C742.611 410.581 778.011 582.598 710.017 577.149C640.225 571.556 751.622 403.283 694.518 370.125C637.963 337.285 512.305 508.416 486.601 447.419C459.728 383.651 610.478 342.477 654.474 275.101C667.731 254.8 639.458 236.118 638.991 214.052C638.376 184.968 642.868 155.695 651.326 126.179C665.192 77.7947 658.376 7.90102 704.681 -15.1771C749.153 -37.3417 771.293 45.2635 817.578 43.3198C868.682 41.1736 942.583 -68.3437 964.078 -26.0705C993.163 31.1315 883.038 107.975 885.167 176.246C886.201 209.397 954.368 185.518 971.479 211.228C987.195 234.842 968.223 271.911 969.108 302.372C970.599 353.719 1028.66 429.05 978.512 453.364Z" stroke="#2714FF" stroke-opacity="0.94"/>
<path fill-rule="evenodd" clip-rule="evenodd" d="M1427.24 927.084C1209.91 1032.44 1075.75 575.513 856.976 676.353C627.779 781.999 747.817 1364.96 517.389 1346.47C280.867 1327.49 658.313 757.271 464.78 644.878C273.106 533.564 -152.666 1113.46 -239.801 906.734C-330.895 690.617 179.964 551.146 329.036 322.835C373.954 254.042 278.129 190.719 276.54 115.939C274.444 17.3765 289.655 -81.8277 318.307 -181.849C365.276 -345.813 342.149 -582.679 499.061 -660.869C649.763 -735.965 724.829 -456.015 881.684 -462.583C1054.87 -469.835 1305.27 -840.948 1378.13 -697.679C1476.72 -503.815 1103.55 -243.444 1110.79 -12.0797C1114.31 100.265 1345.31 19.3694 1403.31 106.505C1456.58 186.536 1392.3 312.153 1395.31 415.384C1400.38 589.393 1597.17 844.705 1427.24 927.084Z" stroke="#2714FF" stroke-opacity="0.94"/>
<path d="M811.163 385.221C878.746 354.063 920.173 495.204 987.31 462.652C1039.81 437.199 979.027 358.339 977.465 304.588C976.539 272.7 996.399 233.894 979.947 209.174C962.034 182.259 890.674 207.256 889.591 172.553C887.362 101.084 1002.65 20.6416 972.197 -39.2401C949.695 -83.4936 872.333 31.1531 818.835 33.3993C770.382 35.4337 747.204 -51.041 700.649 -27.8385C652.176 -3.67979 659.311 69.4879 644.797 120.139C635.943 151.036 631.241 181.681 631.884 212.128C632.373 235.227 661.971 254.785 648.093 276.037C602.036 346.568 444.226 389.669 472.358 456.425C499.266 520.278 630.809 341.133 690.014 375.512C749.793 410.223 633.178 586.378 706.24 592.233C777.419 597.937 740.36 417.863 811.163 385.221Z" stroke="#2714FF" stroke-opacity="0.94"/>
<path d="M812.079 391.043C882.686 358.491 925.967 505.948 996.108 471.94C1050.95 445.349 987.453 362.96 985.821 306.803C984.853 273.488 1005.6 232.946 988.413 207.12C969.699 179.001 895.146 205.116 894.014 168.86C891.685 94.1928 1012.13 10.1517 980.315 -52.4095C956.806 -98.6433 875.983 21.1327 820.092 23.479C769.471 25.6041 745.255 -64.7402 696.617 -40.4998C645.975 -15.2604 653.43 61.1812 638.266 114.098C629.016 146.379 624.104 178.395 624.777 210.203C625.287 234.337 656.21 254.769 641.712 276.972C593.594 350.659 428.722 395.687 458.114 465.43C486.227 532.141 623.654 344.981 685.508 380.898C747.962 417.164 626.132 601.199 702.462 607.317C776.826 613.277 738.108 425.145 812.079 391.043Z" stroke="#2714FF" stroke-opacity="0.94"/>
<path d="M812.997 396.867C886.628 362.922 931.764 516.695 1004.91 481.231C1062.1 453.501 995.883 367.583 994.18 309.021C993.171 274.279 1014.81 232.001 996.882 205.068C977.367 175.745 899.621 202.978 898.441 165.169C896.011 87.3042 1021.61 -0.335397 988.436 -65.5763C963.92 -113.79 879.636 11.1149 821.351 13.5614C768.562 15.7771 743.308 -78.4366 692.587 -53.1583C639.776 -26.8384 647.551 52.8771 631.739 108.06C622.093 141.723 616.97 175.111 617.672 208.281C618.205 233.448 650.452 254.756 635.333 277.91C585.155 354.752 413.222 401.708 443.873 474.438C473.191 544.007 616.503 348.832 681.006 386.288C746.135 424.107 619.088 616.023 698.687 622.404C776.237 628.62 735.858 432.43 812.997 396.867Z" stroke="#2714FF" stroke-opacity="0.94"/>
<path d="M813.912 402.687C890.567 367.349 937.558 527.437 1013.71 490.517C1073.25 461.648 1004.31 372.201 1002.54 311.234C1001.48 275.066 1024.01 231.051 1005.35 203.012C985.031 172.485 904.092 200.836 902.863 161.474C900.333 80.411 1031.09 -10.8272 996.553 -78.7477C971.03 -128.942 883.285 1.09253 822.607 3.63908C767.65 5.94553 741.358 -92.1378 688.554 -65.8217C633.575 -38.421 641.67 44.5685 625.208 102.018C615.166 137.063 609.833 171.822 610.564 206.355C611.118 232.556 644.69 254.739 628.95 278.843C576.712 358.841 397.719 407.724 429.628 483.442C460.151 555.868 609.347 352.678 676.5 391.672C744.304 431.045 612.04 630.843 694.909 637.486C775.643 643.958 733.605 439.71 813.912 402.687Z" stroke="#2714FF" stroke-opacity="0.94"/>
<path d="M814.828 408.509C894.506 371.777 943.352 538.181 1022.5 499.805C1084.4 469.797 1012.74 376.822 1010.89 313.449C1009.8 275.854 1033.21 230.103 1013.82 200.958C992.696 169.226 908.564 198.695 907.287 157.78C904.656 73.5196 1040.57 -21.3171 1004.67 -91.9173C978.141 -144.092 886.935 -8.92806 823.863 -6.2814C766.738 -3.88427 739.409 -105.837 684.522 -78.4831C627.374 -50.0018 635.788 36.2616 618.677 95.9775C608.239 132.405 602.697 168.535 603.457 204.43C604.033 231.665 638.929 254.723 622.569 279.778C568.27 362.932 382.216 413.742 415.385 492.447C447.112 567.73 602.193 356.526 671.995 397.059C742.474 437.985 604.993 645.664 691.132 652.57C775.051 659.297 731.353 446.992 814.828 408.509Z" stroke="#2714FF" stroke-opacity="0.94"/>
<path d="M815.745 414.336C898.447 376.21 949.147 548.929 1031.3 509.097C1095.54 477.951 1021.16 381.446 1019.25 315.669C1018.12 276.647 1042.42 229.159 1022.28 198.908C1000.36 165.972 913.038 196.559 911.711 154.091C908.98 66.6327 1050.05 -31.8026 1012.79 -105.082C985.253 -159.237 890.587 -18.9442 825.121 -16.1974C765.827 -13.7096 737.46 -119.532 680.491 -91.14C621.173 -61.5781 629.908 27.9593 612.148 89.9415C601.314 127.752 595.561 165.253 596.35 202.51C596.949 230.778 633.17 254.712 616.188 280.718C559.829 367.027 366.714 419.765 401.142 501.457C434.073 579.598 595.039 360.378 667.491 402.45C740.645 444.93 597.947 660.49 687.355 667.658C774.459 674.641 729.102 454.278 815.745 414.336Z" stroke="#2714FF" stroke-opacity="0.94"/>
<path d="M816.661 420.157C902.387 380.637 954.942 559.673 1040.1 518.384C1106.69 486.1 1029.59 386.066 1027.61 317.883C1026.43 277.434 1051.62 228.211 1030.75 196.854C1008.03 162.713 917.51 194.418 916.136 150.397C913.304 59.7409 1059.53 -42.293 1020.91 -118.252C992.364 -174.388 894.238 -28.9652 826.378 -26.1183C764.917 -23.5398 735.512 -133.232 676.459 -103.802C614.973 -73.1593 624.028 19.652 605.619 83.9004C594.389 123.093 588.425 161.965 589.244 200.585C589.864 229.887 627.41 254.696 609.807 281.653C551.388 371.117 351.212 425.783 386.899 510.462C421.035 591.46 587.885 364.225 662.986 407.836C738.816 451.869 590.902 675.311 683.578 682.741C773.867 689.98 726.851 461.559 816.661 420.157Z" stroke="#2714FF" stroke-opacity="0.94"/>
<path d="M817.577 425.979C906.327 385.066 960.736 570.417 1048.9 527.672C1117.84 494.249 1038.02 390.686 1035.96 320.099C1034.75 278.223 1060.82 227.263 1039.22 194.8C1015.69 159.454 921.982 192.277 920.559 146.704C917.627 52.8497 1069.02 -52.7828 1029.03 -131.422C999.475 -189.537 897.887 -38.9856 827.634 -36.0386C764.005 -33.3695 733.562 -146.931 672.427 -116.463C608.772 -84.74 618.146 11.3452 599.088 77.8599C587.462 118.435 581.289 158.678 582.136 198.661C582.778 228.996 621.648 254.68 603.425 282.588C542.946 375.208 335.709 431.801 372.655 519.467C407.996 603.323 580.731 368.073 658.481 413.222C736.985 458.81 583.855 690.133 679.801 697.825C773.275 705.32 724.598 468.842 817.577 425.979Z" stroke="#2714FF" stroke-opacity="0.94"/>
<path d="M818.493 431.801C910.267 389.494 966.531 581.161 1057.7 536.96C1128.98 502.399 1046.44 395.307 1044.32 322.314C1043.06 279.011 1070.03 226.315 1047.68 192.746C1023.36 156.196 926.455 190.137 924.983 143.011C921.951 45.9584 1078.5 -63.2727 1037.15 -144.591C1006.59 -204.687 901.538 -49.0061 828.891 -45.959C763.094 -43.1992 731.613 -160.63 668.395 -129.125C602.571 -96.3208 612.265 3.03851 592.558 71.8195C580.536 113.777 574.153 155.392 575.029 196.736C575.694 228.105 615.888 254.665 597.044 283.523C534.504 379.299 320.206 437.819 358.412 528.473C394.957 615.186 573.576 371.921 653.976 418.609C735.156 465.75 576.808 704.954 676.023 712.91C772.682 720.66 722.347 476.124 818.493 431.801Z" stroke="#2714FF" stroke-opacity="0.94"/>
<path d="M819.411 437.625C914.209 393.925 972.328 591.907 1066.5 546.251C1140.13 510.551 1054.87 399.93 1052.68 324.532C1051.38 279.802 1079.23 225.37 1056.15 190.694C1031.03 152.94 930.93 187.999 929.409 139.32C926.277 39.0697 1087.98 -73.7599 1045.27 -157.758C1013.7 -219.835 905.191 -59.024 830.15 -55.8767C762.185 -53.0262 729.667 -174.326 664.365 -141.783C596.373 -107.899 606.387 -5.26561 586.031 65.7817C573.613 109.122 567.019 152.107 567.924 194.814C568.611 227.217 610.13 254.652 590.665 284.461C526.065 383.392 304.706 443.84 344.171 537.481C381.921 627.051 566.425 375.772 649.474 423.998C733.328 472.693 569.764 719.778 672.249 727.996C772.093 736.002 720.097 483.408 819.411 437.625Z" stroke="#2714FF" stroke-opacity="0.94"/>
<path d="M820.326 443.449C918.147 398.354 978.121 602.653 1075.3 555.54C1151.28 518.702 1063.3 404.552 1061.03 326.748C1059.69 280.592 1088.43 224.423 1064.62 188.641C1038.69 149.683 935.401 185.86 933.831 135.628C930.599 32.1798 1097.46 -84.2484 1053.38 -170.926C1020.81 -234.983 908.84 -69.043 831.405 -65.7956C761.272 -62.8545 727.716 -188.024 660.332 -154.443C590.17 -119.478 600.504 -13.5709 579.499 59.7426C566.685 104.465 559.881 148.822 560.815 192.891C561.524 226.327 604.368 254.638 584.282 285.398C517.622 387.485 289.201 449.86 329.926 546.488C368.88 638.915 559.268 379.621 644.967 429.386C731.497 479.634 562.716 734.601 668.47 743.081C771.499 751.344 717.844 490.692 820.326 443.449Z" stroke="#2714FF" stroke-opacity="0.94"/>
<path d="M821.242 449.27C922.087 402.783 983.916 613.396 1084.09 564.828C1162.43 526.851 1071.73 409.172 1069.39 328.963C1068.01 281.38 1097.64 223.475 1073.09 186.587C1046.35 146.424 939.873 183.719 938.255 131.934C934.922 25.2884 1106.94 -94.7383 1061.5 -184.096C1027.92 -250.133 912.491 -79.0636 832.662 -75.7161C760.361 -72.6843 725.767 -201.724 656.3 -167.105C583.97 -131.059 594.624 -21.8779 572.969 53.7019C559.759 99.8069 552.745 145.535 553.708 190.967C554.439 225.436 598.607 254.622 577.901 286.333C509.18 391.575 273.699 455.878 315.683 555.493C355.841 650.778 552.115 383.469 640.462 434.773C729.667 486.574 555.67 749.422 664.693 758.165C770.907 766.683 715.592 497.973 821.242 449.27Z" stroke="#2714FF" stroke-opacity="0.94"/>
<path d="M822.159 455.093C926.028 407.212 989.711 624.141 1092.89 574.117C1173.58 535.001 1080.15 413.793 1077.75 331.18C1076.32 282.169 1106.84 222.529 1081.55 184.534C1054.02 143.167 944.347 181.579 942.68 128.242C939.247 18.3981 1116.42 -105.227 1069.62 -197.265C1035.03 -265.282 916.142 -89.0831 833.92 -85.6355C759.451 -82.513 723.819 -215.422 652.269 -179.765C577.77 -142.639 588.744 -30.1836 566.44 47.6625C552.835 95.15 545.61 142.249 546.602 189.043C547.355 224.546 592.848 254.607 571.521 287.269C500.74 395.667 258.197 461.897 301.441 564.5C342.804 662.642 544.961 387.318 635.959 440.16C727.838 493.516 548.625 764.245 660.917 773.25C770.315 782.024 713.341 505.256 822.159 455.093Z" stroke="#2714FF" stroke-opacity="0.94"/>
<path d="M823.075 460.915C929.968 411.64 995.505 634.885 1101.69 583.404C1184.72 543.151 1088.58 418.413 1086.11 333.395C1084.64 282.958 1116.05 221.581 1090.02 182.48C1061.69 139.908 948.819 179.439 947.103 124.548C943.57 11.5067 1125.9 -115.717 1077.74 -210.434C1042.14 -280.432 919.792 -99.1037 835.176 -95.556C758.539 -92.3428 721.87 -229.121 648.237 -192.426C571.569 -154.219 582.863 -38.4904 559.91 41.6219C545.908 90.4919 538.474 138.962 539.495 187.119C540.27 223.655 587.087 254.592 565.139 288.204C492.298 399.758 242.695 467.916 287.197 573.505C329.764 674.505 537.807 391.165 631.453 445.547C726.008 500.456 541.578 779.066 657.139 788.334C769.723 797.364 711.089 512.538 823.075 460.915Z" stroke="#2714FF" stroke-opacity="0.94"/>
<path d="M823.991 466.737C933.907 416.068 1001.3 645.629 1110.49 592.692C1195.87 551.3 1097.01 423.034 1094.46 335.61C1092.95 283.746 1125.25 220.633 1098.49 180.426C1069.35 136.649 953.292 177.298 951.527 120.855C947.893 4.61534 1135.39 -126.207 1085.86 -223.604C1049.26 -295.581 923.443 -109.124 836.433 -105.476C757.628 -102.173 719.921 -242.821 644.205 -205.088C565.369 -165.8 576.981 -46.7973 553.38 35.5813C538.982 85.8337 531.338 135.675 532.388 185.194C533.185 222.764 581.326 254.576 558.758 289.139C483.856 403.849 227.192 473.934 272.953 582.51C316.726 686.367 530.653 395.013 626.949 450.933C724.178 507.396 534.532 793.887 653.362 803.418C769.131 812.703 708.838 519.82 823.991 466.737Z" stroke="#2714FF" stroke-opacity="0.94"/>
<path d="M824.908 472.559C937.848 420.496 1007.1 656.373 1119.29 601.98C1207.02 559.449 1105.43 427.654 1102.82 337.825C1101.27 284.534 1134.45 219.684 1106.96 178.371C1077.02 133.39 957.764 175.157 955.951 117.161C952.217 -2.27645 1144.87 -136.697 1093.98 -236.774C1056.37 -310.732 927.094 -119.145 837.69 -115.397C756.717 -112.003 717.972 -256.52 640.173 -217.75C559.168 -177.382 571.101 -55.1046 546.85 29.5403C532.057 81.1752 524.202 132.388 525.281 183.269C526.1 221.873 575.566 254.56 552.377 290.074C475.415 407.939 211.69 479.951 258.711 591.515C303.687 698.229 523.499 398.861 622.444 456.319C722.349 514.336 527.486 808.708 649.585 818.501C768.539 828.042 706.586 527.102 824.908 472.559Z" stroke="#2714FF" stroke-opacity="0.94"/>
<path d="M825.824 478.385C941.788 424.928 1012.89 667.121 1128.09 611.272C1218.16 567.602 1113.86 432.278 1111.18 340.044C1109.58 285.326 1143.66 218.741 1115.42 176.321C1084.68 130.136 962.238 173.021 960.376 113.472C956.542 -9.16358 1154.35 -147.183 1102.1 -249.939C1063.48 -325.877 930.745 -129.162 838.948 -125.314C755.807 -121.828 716.024 -270.215 636.142 -230.407C552.968 -188.958 565.221 -63.4071 540.321 23.5041C525.132 76.5214 517.067 129.105 518.175 181.349C519.016 220.986 569.807 254.548 545.996 291.013C466.974 412.034 196.188 485.974 244.468 600.525C290.649 710.097 516.345 402.713 617.94 461.71C720.52 521.28 520.44 823.534 645.809 833.59C767.948 843.386 704.335 534.388 825.824 478.385Z" stroke="#2714FF" stroke-opacity="0.94"/>
<path d="M826.74 484.207C945.728 429.357 1018.68 677.865 1136.89 620.56C1229.31 575.752 1122.29 436.899 1119.53 342.259C1117.9 286.115 1152.86 217.793 1123.89 174.267C1092.35 126.878 966.71 170.88 964.8 109.779C960.865 -16.0545 1163.83 -157.673 1110.21 -263.108C1070.59 -341.027 934.395 -139.182 840.205 -135.234C754.895 -131.658 714.075 -283.914 632.11 -243.068C546.767 -200.538 559.34 -71.7135 533.791 17.4639C518.206 71.8638 509.93 125.819 511.068 179.424C511.931 220.096 564.046 254.533 539.615 291.949C458.532 416.125 180.685 491.992 230.224 609.531C277.61 721.96 509.191 406.561 613.435 467.097C718.69 528.221 513.393 838.356 642.031 848.674C767.355 858.726 702.083 541.67 826.74 484.207Z" stroke="#2714FF" stroke-opacity="0.94"/>
<path d="M827.656 490.028C949.667 433.785 1024.48 688.608 1145.68 629.847C1240.46 583.901 1130.72 441.518 1127.89 344.474C1126.21 286.903 1162.06 216.844 1132.36 172.213C1100.01 123.619 971.182 168.739 969.223 106.085C965.188 -22.9465 1173.31 -168.163 1118.33 -276.278C1077.7 -356.177 938.045 -149.203 841.461 -145.155C753.983 -141.488 712.125 -297.614 628.078 -255.73C540.566 -212.12 553.458 -80.021 527.26 11.4227C511.279 67.205 502.794 122.531 503.96 177.499C504.845 219.204 558.285 254.517 533.233 292.884C450.09 420.215 165.182 498.01 215.981 618.536C264.571 733.822 502.036 410.408 608.93 472.483C716.86 535.16 506.346 853.176 638.253 863.757C766.762 874.065 699.831 548.951 827.656 490.028Z" stroke="#2714FF" stroke-opacity="0.94"/>
<path d="M828.572 495.85C953.608 438.213 1030.27 699.353 1154.48 639.135C1251.61 592.051 1139.14 446.139 1136.25 346.689C1134.53 287.691 1171.27 215.897 1140.82 170.159C1107.68 120.36 975.655 166.599 973.647 102.392C969.512 -29.8375 1182.79 -178.653 1126.45 -289.448C1084.81 -371.327 941.696 -159.223 842.718 -155.075C753.073 -151.317 710.177 -311.313 624.046 -268.391C534.366 -223.7 547.578 -88.3274 520.731 5.38255C504.354 62.5473 495.658 119.245 496.854 175.575C497.76 218.313 552.525 254.502 526.852 293.819C441.649 424.307 149.68 504.028 201.738 627.541C251.532 745.685 494.882 414.256 604.425 477.87C715.03 542.101 499.3 867.998 634.477 878.841C766.17 889.406 697.579 556.234 828.572 495.85Z" stroke="#2714FF" stroke-opacity="0.94"/>
<path d="M829.488 501.675C957.547 442.644 1036.07 710.1 1163.28 648.426C1262.75 600.203 1147.57 450.762 1144.6 348.908C1142.84 288.483 1180.47 214.952 1149.29 168.108C1115.34 117.105 980.127 164.461 978.07 98.7012C973.835 -36.7259 1192.27 -189.14 1134.57 -302.614C1091.92 -386.474 945.346 -169.241 843.974 -164.992C752.161 -161.144 708.227 -325.009 620.013 -281.049C528.164 -235.278 541.696 -96.6313 514.2 -0.654997C497.427 57.8922 488.521 115.961 489.746 173.653C490.675 217.426 546.763 254.489 520.47 294.757C433.206 428.4 134.176 510.05 187.493 636.55C238.493 757.551 487.727 418.107 599.92 483.26C713.2 549.044 492.253 882.823 630.699 893.929C765.577 904.748 695.327 563.519 829.488 501.675Z" stroke="#2714FF" stroke-opacity="0.94"/>
<path d="M830.404 507.497C961.487 447.072 1041.86 720.843 1172.08 657.714C1273.9 608.352 1156 455.382 1152.96 351.122C1151.16 289.271 1189.67 214.004 1157.76 166.053C1123.01 113.846 984.599 162.32 982.494 95.0075C978.158 -43.6176 1201.76 -199.63 1142.69 -315.784C1099.03 -401.624 948.997 -179.262 845.231 -174.913C751.249 -170.974 706.278 -338.709 615.981 -293.711C521.964 -246.859 535.815 -104.938 507.67 -6.69592C490.501 53.2338 481.385 112.674 482.639 171.729C483.59 216.534 541.003 254.473 514.089 295.692C424.765 432.491 118.674 516.067 173.25 645.555C225.454 769.413 480.573 421.955 595.415 488.646C711.37 555.984 485.207 897.644 626.921 909.012C764.985 920.088 693.075 570.8 830.404 507.497Z" stroke="#2714FF" stroke-opacity="0.94"/>
<path d="M831.32 513.318C965.427 451.5 1047.66 731.587 1180.88 667.001C1285.05 616.501 1164.42 460.002 1161.32 353.337C1159.47 290.059 1198.88 213.055 1166.22 163.999C1130.67 110.587 989.072 160.179 986.918 91.3139C982.482 -50.5091 1211.24 -210.12 1150.81 -328.954C1106.15 -416.774 952.647 -189.282 846.488 -184.834C750.338 -180.804 704.329 -352.408 611.949 -306.373C515.763 -258.44 529.934 -113.245 501.14 -12.7366C483.575 48.5755 474.249 109.387 475.531 169.804C476.505 215.643 535.242 254.457 507.707 296.627C416.323 436.581 103.171 522.085 159.007 654.56C212.415 781.275 473.419 425.802 590.91 494.032C709.54 562.924 478.16 912.465 623.144 924.096C764.393 935.427 690.823 578.082 831.32 513.318Z" stroke="#2714FF" stroke-opacity="0.94"/>
<path d="M832.238 519.142C969.369 455.931 1053.45 742.333 1189.68 676.292C1296.2 624.653 1172.85 464.625 1169.67 355.555C1167.79 290.849 1208.08 212.11 1174.69 161.947C1138.34 107.331 993.547 158.041 991.344 87.6227C986.808 -57.3981 1220.72 -220.608 1158.93 -342.121C1113.26 -431.922 956.3 -199.3 847.747 -194.752C749.429 -190.632 702.383 -366.105 607.92 -319.032C509.565 -270.018 524.056 -121.55 494.613 -18.7749C476.652 43.9198 467.115 106.102 468.427 167.882C469.422 214.754 529.484 254.444 501.328 297.565C407.884 440.674 87.6711 528.106 144.766 663.568C199.379 793.141 466.267 429.652 586.407 499.421C707.713 569.866 471.116 927.288 619.369 939.182C763.803 950.769 688.574 585.366 832.238 519.142Z" stroke="#2714FF" stroke-opacity="0.94"/>
<path d="M833.155 524.965C973.309 460.359 1059.25 753.077 1198.48 685.58C1307.34 632.802 1181.28 469.246 1178.03 357.77C1176.1 291.638 1217.28 211.162 1183.16 159.893C1146.01 104.073 998.019 155.901 995.768 83.9297C991.131 -64.289 1230.2 -231.097 1167.05 -355.29C1120.37 -447.071 959.951 -209.321 849.004 -204.672C748.518 -200.461 700.434 -379.804 603.888 -331.693C503.364 -281.599 518.175 -129.856 488.083 -24.815C469.726 39.2621 459.979 102.816 461.32 165.957C462.337 213.864 523.724 254.429 494.947 298.5C399.443 444.766 72.1688 534.124 130.523 672.573C186.34 805.004 459.113 433.501 581.903 504.808C705.883 576.807 464.07 942.11 615.593 954.266C763.211 966.109 686.322 592.648 833.155 524.965Z" stroke="#2714FF" stroke-opacity="0.94"/>
<path d="M834.071 530.786C977.249 464.787 1065.04 763.821 1207.28 694.868C1318.49 640.952 1189.71 473.866 1186.39 359.985C1184.42 292.426 1226.49 210.214 1191.63 157.839C1153.67 100.814 1002.49 153.76 1000.19 80.2361C995.455 -71.1806 1239.68 -241.587 1175.16 -368.46C1127.48 -462.221 963.602 -219.341 850.261 -214.592C747.607 -210.291 698.485 -393.503 599.857 -344.354C497.164 -293.18 512.295 -138.163 481.553 -30.8556C462.8 34.6039 452.844 99.5285 454.213 164.033C455.252 212.973 517.964 254.413 488.566 299.435C391.001 448.856 56.6663 540.143 116.28 681.579C173.302 816.866 451.959 437.348 577.398 510.194C704.054 583.747 457.024 956.931 611.815 969.35C762.619 981.449 684.071 599.93 834.071 530.786Z" stroke="#2714FF" stroke-opacity="0.94"/>
<path d="M834.985 536.609C981.187 469.217 1070.84 774.566 1216.07 704.156C1329.64 649.102 1198.13 478.487 1194.74 362.201C1192.73 293.215 1235.69 209.267 1200.09 155.786C1161.34 97.5563 1006.96 151.621 1004.61 76.5436C999.776 -78.071 1249.16 -252.076 1183.28 -381.629C1134.59 -477.37 967.25 -229.361 851.515 -224.512C746.693 -220.12 696.534 -407.202 595.822 -357.015C490.961 -304.76 506.411 -146.469 475.021 -36.8952C455.872 29.9468 445.705 96.2426 447.104 162.109C448.165 212.083 512.201 254.398 482.182 300.371C382.557 452.948 41.1612 546.162 102.034 690.585C160.26 828.73 444.802 441.197 572.891 515.582C702.222 590.688 449.975 971.754 608.036 984.435C762.024 996.789 681.817 607.213 834.985 536.609Z" stroke="#2714FF" stroke-opacity="0.94"/>
<path d="M835.903 542.434C985.129 473.647 1076.63 785.313 1224.87 713.447C1340.78 657.254 1206.56 483.11 1203.1 364.419C1201.05 294.006 1244.9 208.322 1208.56 153.734C1169 94.3005 1011.44 149.483 1009.04 72.853C1004.1 -84.9595 1258.65 -262.563 1191.4 -394.795C1141.71 -492.517 970.902 -239.379 852.774 -234.429C745.784 -229.947 694.587 -420.898 591.792 -369.673C484.762 -316.338 500.533 -154.773 468.493 -42.9331C448.948 25.2914 438.571 92.9584 439.999 160.187C441.082 211.195 506.442 254.385 475.803 301.309C374.118 457.041 25.661 552.183 87.7929 699.593C147.224 840.595 437.65 445.048 568.388 520.971C700.394 597.631 442.931 986.578 604.261 999.521C761.435 1012.13 679.567 614.498 835.903 542.434Z" stroke="#2714FF" stroke-opacity="0.94"/>
<path d="M836.819 548.256C989.069 478.076 1082.43 796.057 1233.67 722.735C1351.93 665.404 1214.99 487.731 1211.46 366.635C1209.37 294.795 1254.1 207.374 1217.03 151.68C1176.67 91.0422 1015.91 147.342 1013.46 69.1598C1008.43 -91.8506 1268.13 -273.053 1199.52 -407.965C1148.82 -507.667 974.553 -249.399 854.031 -244.35C744.873 -239.776 692.638 -434.597 587.761 -382.335C478.561 -327.918 494.652 -163.08 461.963 -48.9732C442.022 20.6337 431.435 89.6719 432.892 158.263C433.997 210.304 500.682 254.37 469.422 302.245C365.676 461.133 10.1582 558.201 73.5494 708.599C134.185 852.459 430.496 448.896 563.883 526.358C698.564 604.571 435.885 1001.4 600.484 1014.61C760.842 1027.47 677.315 621.78 836.819 548.256Z" stroke="#2714FF" stroke-opacity="0.94"/>
<path d="M837.734 554.076C993.007 482.502 1088.22 806.799 1242.47 732.021C1363.08 673.551 1223.41 492.349 1219.81 368.848C1217.68 295.581 1263.3 206.424 1225.5 149.624C1184.33 87.7817 1020.38 145.2 1017.89 65.4644C1012.75 -98.744 1277.61 -283.545 1207.64 -421.136C1155.93 -522.819 978.202 -259.421 855.286 -254.272C743.961 -249.608 690.688 -448.298 583.727 -394.998C472.359 -339.501 488.77 -171.389 455.432 -55.0157C435.095 15.9737 424.298 86.3831 425.783 156.337C426.911 209.411 494.92 254.352 463.039 303.178C357.233 465.221 -5.34565 564.218 59.3048 717.603C121.145 864.32 423.34 452.742 559.377 531.743C696.733 611.51 428.837 1016.22 596.705 1029.69C760.249 1042.81 675.062 629.06 837.734 554.076Z" stroke="#2714FF" stroke-opacity="0.94"/>
<path d="M838.653 559.901C996.95 486.934 1094.02 817.546 1251.27 741.312C1374.23 681.703 1231.84 496.972 1228.17 371.066C1226 296.373 1272.51 205.48 1233.96 147.573C1192 84.5261 1024.86 143.062 1022.31 61.7741C1017.07 -105.632 1287.09 -294.032 1215.76 -434.303C1163.04 -537.965 981.856 -269.439 856.546 -264.189C743.052 -259.435 688.741 -461.994 579.698 -407.656C466.161 -351.078 482.892 -179.692 448.904 -61.0531C428.172 11.3188 417.164 83.0993 418.679 154.415C419.828 208.523 489.162 254.34 456.661 304.116C348.794 469.315 -20.8454 570.239 45.0643 726.611C108.109 876.185 416.189 456.593 554.875 537.132C694.906 618.453 421.793 1031.04 592.931 1044.77C759.659 1058.15 672.813 636.345 838.653 559.901Z" stroke="#2714FF" stroke-opacity="0.94"/>
<path d="M839.567 565.724C1000.89 491.363 1099.81 828.291 1260.07 750.601C1385.37 689.854 1240.27 501.594 1236.53 373.283C1234.31 297.162 1281.71 204.533 1242.43 145.521C1199.66 81.269 1029.33 140.923 1026.73 58.0821C1021.4 -112.522 1296.57 -304.52 1223.87 -447.471C1170.15 -553.114 985.504 -279.458 857.801 -274.108C742.139 -269.263 686.79 -475.692 575.664 -420.316C459.959 -362.658 477.009 -187.998 442.372 -67.0923C421.244 6.66215 410.026 79.8138 411.57 152.492C412.741 207.634 483.4 254.325 450.277 305.053C340.351 473.407 -36.35 576.258 30.8189 735.618C95.0678 888.049 409.033 460.442 550.368 542.52C693.075 625.394 414.745 1045.87 589.151 1059.86C759.065 1073.49 670.559 643.628 839.567 565.724Z" stroke="#2714FF" stroke-opacity="0.94"/>
<path d="M840.483 571.546C1004.83 495.791 1105.6 839.035 1268.86 759.889C1396.52 698.003 1248.7 506.214 1244.89 375.498C1242.62 297.95 1290.91 203.585 1250.9 143.466C1207.33 78.0102 1033.8 138.782 1031.16 54.3884C1025.72 -119.414 1306.05 -315.011 1231.99 -460.641C1177.26 -568.264 989.155 -289.479 859.058 -284.029C741.228 -279.093 684.841 -489.392 571.632 -432.978C453.758 -374.239 471.128 -196.305 435.842 -73.1329C414.318 2.00392 402.89 76.5269 404.463 150.567C405.656 206.743 477.639 254.31 443.896 305.988C331.909 477.498 -51.8528 582.276 16.5754 744.623C82.0288 899.912 401.878 464.29 545.863 547.907C691.245 632.334 407.698 1060.69 585.374 1074.94C758.473 1088.83 668.308 650.91 840.483 571.546Z" stroke="#2714FF" stroke-opacity="0.94"/>
<path d="M841.399 577.368C1008.77 500.22 1111.4 849.779 1277.66 769.177C1407.67 706.153 1257.12 510.835 1253.24 377.713C1250.94 298.739 1300.11 202.637 1259.36 141.412C1215 74.7519 1038.27 136.642 1035.58 50.6953C1030.04 -126.305 1315.53 -325.5 1240.11 -473.81C1184.37 -583.413 992.805 -299.499 860.314 -293.949C740.317 -288.922 682.892 -503.091 567.6 -445.639C447.557 -385.819 465.247 -204.611 429.313 -79.1731C407.392 -2.65387 395.754 73.2402 397.356 148.643C398.571 205.852 471.879 254.294 437.515 306.924C323.467 481.589 -67.3551 588.295 2.33225 753.629C68.9902 911.775 394.724 468.138 541.359 553.293C689.415 639.275 400.652 1075.51 581.597 1090.03C757.881 1104.17 666.056 658.192 841.399 577.368Z" stroke="#2714FF" stroke-opacity="0.94"/>
<path d="M842.318 583.192C1012.71 504.65 1117.2 860.525 1286.46 778.467C1418.82 714.304 1265.55 515.457 1261.6 379.93C1259.26 299.53 1309.32 201.692 1267.83 139.36C1222.66 71.4956 1042.75 134.504 1040.01 47.004C1034.37 -133.194 1325.02 -335.988 1248.23 -486.977C1191.49 -598.561 996.458 -309.517 861.574 -303.867C739.408 -298.75 680.946 -516.788 563.571 -458.298C441.359 -397.398 459.369 -212.916 422.785 -85.2116C400.469 -7.30982 388.621 69.9555 390.252 146.721C391.489 204.963 466.121 254.281 431.136 307.861C315.029 485.682 -82.8551 594.315 -11.9084 762.636C55.9541 923.64 387.573 471.988 536.856 558.682C687.588 646.217 393.608 1090.33 577.823 1105.11C757.291 1119.51 663.807 665.476 842.318 583.192Z" stroke="#2714FF" stroke-opacity="0.94"/>
<path d="M843.233 589.014C1016.65 509.078 1122.99 871.269 1295.26 787.755C1429.96 722.454 1273.98 520.077 1269.96 382.145C1267.57 300.318 1318.52 200.744 1276.3 137.306C1230.33 68.2369 1047.22 132.363 1044.43 43.3106C1038.69 -140.085 1334.5 -346.478 1256.35 -500.147C1198.6 -613.711 1000.11 -319.538 862.83 -313.788C738.496 -308.58 678.997 -530.487 559.539 -470.959C435.158 -408.979 453.487 -221.223 416.255 -91.2521C393.542 -11.968 381.484 66.6685 383.144 144.796C384.403 204.072 460.36 254.265 424.755 308.796C306.586 489.773 -98.3582 600.333 -26.1523 771.642C42.9148 935.503 380.418 475.835 532.351 564.068C685.758 653.157 386.561 1105.15 574.045 1120.2C756.698 1134.85 661.554 672.758 843.233 589.014Z" stroke="#2714FF" stroke-opacity="0.94"/>
<path d="M844.148 594.838C1020.59 513.508 1128.78 882.015 1304.06 797.045C1441.11 730.605 1282.4 524.7 1278.31 384.362C1275.89 301.108 1327.73 199.797 1284.77 135.254C1237.99 64.9802 1051.69 130.224 1048.85 39.619C1043.01 -146.975 1343.98 -356.966 1264.47 -513.315C1205.71 -628.859 1003.76 -329.557 864.086 -323.706C737.584 -318.408 677.046 -544.185 555.505 -483.619C428.956 -420.557 447.605 -229.527 409.723 -97.2907C386.615 -16.624 374.346 63.3835 376.035 142.873C377.317 203.183 454.598 254.251 418.372 309.733C298.143 493.866 -113.862 606.353 -40.397 780.649C29.8746 947.367 373.262 479.685 527.845 569.457C683.927 660.099 379.514 1119.98 570.266 1135.28C756.105 1150.2 659.301 680.042 844.148 594.838Z" stroke="#2714FF" stroke-opacity="0.94"/>
<path d="M845.062 600.657C1024.53 517.934 1134.58 892.756 1312.86 806.33C1452.25 738.752 1290.83 529.317 1286.67 386.575C1284.2 301.894 1336.93 198.847 1293.23 133.197C1245.66 61.7193 1056.16 128.081 1053.28 35.9232C1047.34 -153.868 1353.46 -367.458 1272.58 -526.487C1212.82 -644.011 1007.41 -339.579 865.341 -333.629C736.671 -328.24 675.095 -557.886 551.472 -496.283C422.754 -432.141 441.722 -237.837 403.192 -103.334C379.687 -21.2845 367.209 60.0943 368.927 140.946C370.23 202.29 448.836 254.233 411.989 310.666C289.7 497.954 -129.367 612.369 -54.642 789.652C16.834 959.228 366.106 483.531 523.338 574.841C682.095 667.037 372.465 1134.8 566.487 1150.37C755.511 1165.53 657.048 687.322 845.062 600.657Z" stroke="#2714FF" stroke-opacity="0.94"/>
<path d="M845.981 606.482C1028.47 522.365 1140.37 903.503 1321.66 815.621C1463.4 746.904 1299.26 533.941 1295.03 388.793C1292.52 302.685 1346.13 197.902 1301.7 131.146C1253.32 58.4635 1060.64 125.943 1057.7 32.2325C1051.66 -160.757 1362.94 -377.945 1280.7 -539.653C1219.93 -659.158 1011.06 -349.597 866.6 -343.547C735.762 -338.067 673.149 -571.583 547.442 -508.941C416.555 -443.719 435.844 -246.141 396.664 -109.371C372.764 -25.9398 360.075 56.8102 361.822 139.025C363.147 201.402 443.078 254.221 405.61 311.604C281.261 502.048 -144.867 618.39 -68.8831 798.66C3.79742 971.093 358.954 487.381 518.836 580.23C680.267 673.98 365.421 1149.62 562.712 1165.45C754.921 1180.88 654.798 694.606 845.981 606.482Z" stroke="#2714FF" stroke-opacity="0.94"/>
<path d="M846.897 612.304C1032.41 526.793 1146.17 914.247 1330.45 824.909C1474.55 755.053 1307.69 538.561 1303.38 391.008C1300.83 303.473 1355.34 196.954 1310.17 129.092C1260.99 55.2049 1065.11 123.803 1062.13 28.5391C1055.99 -167.648 1372.42 -388.435 1288.82 -552.823C1227.04 -674.308 1014.71 -359.618 867.857 -353.467C734.851 -347.896 671.2 -585.282 543.41 -521.603C410.355 -455.299 429.963 -254.447 390.134 -115.412C365.838 -30.5979 352.939 53.5232 354.715 137.1C356.063 200.511 437.317 254.205 399.229 312.539C272.819 506.138 -160.369 624.408 -83.1262 807.666C-9.24107 982.956 351.801 491.229 514.331 585.617C678.438 680.92 358.375 1164.44 558.936 1180.54C754.329 1196.22 652.547 701.888 846.897 612.304Z" stroke="#2714FF" stroke-opacity="0.94"/>
<path d="M847.813 618.126C1036.35 531.222 1151.96 924.991 1339.25 834.196C1485.7 763.203 1316.11 543.181 1311.74 393.224C1309.15 304.262 1364.54 196.006 1318.63 127.038C1268.65 51.9463 1069.58 121.662 1066.55 24.8457C1060.31 -174.54 1381.9 -398.925 1296.94 -565.992C1234.15 -689.458 1018.36 -369.638 869.113 -363.388C733.939 -357.726 669.251 -598.981 539.378 -534.264C404.154 -466.88 424.082 -262.754 383.604 -121.453C358.912 -35.2559 345.802 50.2365 347.608 135.176C348.977 199.62 431.556 254.189 392.847 313.474C264.377 510.229 -175.872 630.427 -97.3699 816.671C-22.2804 994.819 344.646 495.077 509.826 591.003C676.608 687.86 351.328 1179.26 555.158 1195.62C753.736 1211.56 650.295 709.17 847.813 618.126Z" stroke="#2714FF" stroke-opacity="0.94"/>
<path d="M848.732 623.95C1040.29 535.652 1157.76 935.737 1348.05 843.487C1496.85 771.355 1324.54 547.804 1320.1 395.441C1317.46 305.053 1373.75 195.061 1327.1 124.986C1276.32 48.6904 1074.06 119.524 1070.98 21.1549C1064.64 -181.428 1391.39 -409.412 1305.06 -579.159C1241.27 -704.605 1022.01 -379.656 870.373 -373.305C733.031 -367.553 667.305 -612.678 535.349 -546.923C397.956 -478.458 418.204 -271.059 377.077 -127.49C351.989 -39.9114 338.67 46.9522 340.504 133.254C341.895 198.731 425.799 254.176 386.469 314.412C255.939 514.323 -191.372 636.447 -111.61 825.679C-35.3159 1006.68 337.495 498.927 505.324 596.393C674.781 694.803 344.285 1194.09 551.384 1210.71C753.147 1226.9 648.046 716.455 848.732 623.95Z" stroke="#2714FF" stroke-opacity="0.94"/>
<path d="M849.648 629.772C1044.23 540.081 1163.55 946.481 1356.85 852.775C1508 779.504 1332.97 552.424 1328.46 397.656C1325.78 305.841 1382.95 194.113 1335.57 122.932C1283.99 45.4318 1078.53 117.384 1075.4 17.4616C1068.96 -188.32 1400.87 -419.902 1313.18 -592.329C1248.38 -719.755 1025.66 -389.677 871.63 -383.226C732.12 -377.383 665.356 -626.377 531.317 -559.584C391.755 -490.039 412.323 -279.365 370.547 -133.531C345.063 -44.5693 331.533 43.6653 333.396 131.329C334.81 197.841 420.038 254.161 380.087 315.347C247.497 518.413 -206.874 642.466 -125.854 834.685C-48.355 1018.55 330.34 502.775 500.819 601.779C672.951 701.743 337.239 1208.91 547.607 1225.79C752.555 1242.24 645.794 723.737 849.648 629.772Z" stroke="#2714FF" stroke-opacity="0.94"/>
<path d="M850.564 635.593C1048.17 544.508 1169.35 957.225 1365.65 862.062C1519.14 787.653 1341.4 557.044 1336.81 399.871C1334.09 306.629 1392.15 193.164 1344.04 120.877C1291.65 42.1727 1083 115.242 1079.82 13.7675C1073.28 -195.212 1410.35 -430.393 1321.3 -605.499C1255.49 -734.905 1029.31 -399.698 872.886 -393.147C731.208 -387.213 663.406 -640.077 527.285 -572.246C385.554 -501.62 406.442 -287.673 364.017 -139.572C338.137 -49.228 324.397 40.3779 326.289 129.404C327.725 196.949 414.278 254.145 373.706 316.282C239.055 522.504 -222.377 648.483 -140.097 843.689C-61.394 1030.41 323.186 506.623 496.314 607.165C671.121 708.683 330.192 1223.73 543.829 1240.87C751.962 1257.58 643.542 731.018 850.564 635.593Z" stroke="#2714FF" stroke-opacity="0.94"/>
<path d="M851.48 641.416C1052.11 548.937 1175.14 967.969 1374.45 871.351C1530.29 795.803 1349.82 561.665 1345.17 402.087C1342.41 307.418 1401.36 192.217 1352.51 118.824C1299.32 38.9147 1087.47 113.102 1084.25 10.0747C1077.61 -202.102 1419.83 -440.882 1329.42 -618.668C1262.6 -750.055 1032.96 -409.718 874.143 -403.066C730.297 -397.042 661.457 -653.775 523.253 -584.907C379.353 -513.2 400.561 -295.979 357.487 -145.612C331.211 -53.8854 317.261 37.0916 319.182 127.48C320.64 196.059 408.517 254.13 367.324 317.218C230.613 526.595 -237.88 654.502 -154.341 852.695C-74.4331 1042.27 316.032 510.471 491.809 612.552C669.291 715.624 323.145 1238.55 540.052 1255.96C751.37 1272.92 641.29 738.301 851.48 641.416Z" stroke="#2714FF" stroke-opacity="0.94"/>
<path d="M852.392 647.24C1056.05 553.368 1180.93 978.716 1383.24 880.641C1541.43 803.955 1358.25 566.288 1353.52 404.305C1350.72 308.208 1410.56 191.272 1360.97 116.772C1306.98 35.6587 1091.94 110.964 1088.67 6.38379C1081.93 -208.991 1429.31 -451.369 1337.53 -631.835C1269.71 -765.202 1036.61 -419.736 875.396 -412.984C729.382 -406.869 659.505 -667.472 519.217 -597.566C373.149 -524.779 394.677 -304.283 350.953 -151.65C324.281 -58.5409 310.121 33.8074 312.071 125.558C313.551 195.17 402.753 254.117 360.939 318.155C222.168 530.688 -253.386 660.523 -168.587 861.703C-87.4754 1054.14 308.874 514.321 487.301 617.942C667.458 722.567 316.096 1253.38 536.271 1271.04C750.774 1288.26 639.035 745.585 852.392 647.24Z" stroke="#2714FF" stroke-opacity="0.94"/>
<path d="M853.31 653.064C1059.99 557.798 1186.73 989.461 1392.04 889.931C1552.58 812.106 1366.67 570.91 1361.88 406.521C1359.04 308.998 1419.76 190.325 1369.44 114.72C1314.65 32.4018 1096.42 108.825 1093.09 2.692C1086.25 -215.881 1438.79 -461.858 1345.65 -645.003C1276.82 -780.35 1040.26 -429.754 876.655 -422.903C728.472 -416.698 657.557 -681.17 515.187 -610.226C366.95 -536.358 388.797 -312.588 344.425 -157.689C317.357 -63.1973 302.987 30.5221 304.966 123.635C306.468 194.281 396.994 254.102 354.56 319.092C213.728 534.781 -268.887 666.543 -182.829 870.71C-100.512 1066 301.721 518.171 482.797 623.33C665.63 729.508 309.051 1268.2 532.495 1286.13C750.184 1303.6 636.785 752.869 853.31 653.064Z" stroke="#2714FF" stroke-opacity="0.94"/>
<path d="M854.226 658.885C1063.93 562.226 1192.53 1000.2 1400.84 899.218C1563.73 820.255 1375.1 575.53 1370.24 408.736C1367.35 309.786 1428.96 189.377 1377.9 112.665C1322.31 29.1428 1100.89 106.684 1097.52 -1.00181C1090.57 -222.773 1448.27 -472.348 1353.77 -658.173C1283.93 -795.5 1043.91 -439.775 877.911 -432.824C727.561 -426.528 655.608 -694.869 511.155 -622.887C360.749 -547.939 382.916 -320.895 337.895 -163.73C310.431 -67.8559 295.85 27.2347 297.859 121.71C299.383 193.39 391.234 254.086 348.178 320.027C205.287 538.871 -284.39 672.56 -197.073 879.715C-113.551 1077.86 294.567 522.018 478.293 628.716C663.8 736.448 302.004 1283.02 528.718 1301.21C749.591 1318.94 634.533 760.15 854.226 658.885Z" stroke="#2714FF" stroke-opacity="0.94"/>
<path d="M855.141 664.707C1067.87 566.654 1198.32 1010.95 1409.64 908.506C1574.88 828.404 1383.53 580.15 1378.59 410.951C1375.67 310.574 1438.17 188.429 1386.37 110.611C1329.98 25.8841 1105.36 104.544 1101.94 -4.6953C1094.9 -229.664 1457.75 -482.838 1361.89 -671.342C1291.04 -810.65 1047.56 -449.796 879.167 -442.744C726.649 -436.358 653.659 -708.569 507.123 -635.549C354.548 -559.52 377.035 -329.202 331.364 -169.77C303.504 -72.5139 288.714 23.9479 290.751 119.786C292.297 192.499 385.472 254.071 341.796 320.962C196.844 542.962 -299.893 678.579 -211.317 888.721C-126.591 1089.73 287.412 525.866 473.787 634.102C661.969 743.388 294.957 1297.84 524.94 1316.3C748.998 1334.28 632.28 767.432 855.141 664.707Z" stroke="#2714FF" stroke-opacity="0.94"/>
<path d="M856.06 670.531C1071.81 571.084 1204.12 1021.7 1418.44 917.796C1586.03 836.556 1391.96 584.773 1386.95 413.169C1383.98 311.365 1447.37 187.484 1394.84 108.559C1337.64 22.6279 1109.84 102.405 1106.37 -8.38637C1099.22 -236.553 1467.24 -493.325 1370.01 -684.51C1298.16 -825.798 1051.22 -459.814 880.427 -452.662C725.741 -446.185 651.712 -722.266 503.093 -648.208C348.35 -571.098 371.156 -337.507 324.837 -175.808C296.581 -77.1697 281.58 20.6634 283.647 117.863C285.214 191.61 379.714 254.057 335.418 321.9C188.405 547.055 -315.393 684.599 -225.557 897.728C-139.627 1101.59 280.26 529.716 469.285 639.491C660.143 750.331 287.913 1312.66 521.166 1331.38C748.409 1349.62 630.031 774.717 856.06 670.531Z" stroke="#2714FF" stroke-opacity="0.94"/>
</svg>
