<svg width="568" height="446" viewBox="0 0 568 446" fill="none" xmlns="http://www.w3.org/2000/svg">
<path fill-rule="evenodd" clip-rule="evenodd" d="M287.036 159.3C299.827 158.355 292.764 187.304 304.082 193.352C314.695 199.024 327.613 183.814 339.167 187.159C350.559 190.457 368.843 199.739 365.027 210.998C359.603 227.003 329.924 221.844 322.303 236.922C317.105 247.206 337.834 256.722 336.151 268.128C334.753 277.612 324.438 287.892 314.927 286.93C302.634 285.686 297.813 269.22 287.036 263.159C282.309 260.5 276.4 261.679 271.008 262.227C259.709 263.375 249.012 270.45 237.89 268.153C224.535 265.395 204.567 261.691 202.775 248.136C200.881 233.812 228.047 230.166 230.997 216.023C234.033 201.465 205.016 180.531 218.268 173.853C235.531 165.154 252.255 199.787 271.159 195.786C284.27 193.011 273.672 160.288 287.036 159.3Z" stroke="#6260FF" stroke-width="1.28384"/>
<path fill-rule="evenodd" clip-rule="evenodd" d="M294.272 1.44547C338.71 -1.83819 314.17 98.6972 353.494 119.704C390.363 139.4 435.244 86.5784 475.382 98.1955C514.96 109.65 578.481 141.885 565.226 180.985C546.383 236.57 443.272 218.65 416.795 271.014C398.736 306.731 470.752 339.779 464.907 379.391C460.047 412.326 424.214 448.028 391.17 444.685C348.461 440.366 331.712 383.183 294.272 362.133C277.85 352.9 257.32 356.994 238.587 358.897C199.335 362.884 162.172 387.454 123.53 379.477C77.1345 369.899 7.76253 357.034 1.53586 309.96C-5.0442 260.214 89.3351 247.553 99.5831 198.435C110.131 147.877 9.31967 75.1757 55.3596 51.9859C115.337 21.7763 173.436 142.049 239.111 128.156C284.662 118.52 247.844 4.87622 294.272 1.44547Z" stroke="#6260FF" stroke-width="1.28384"/>
<path d="M305.052 191.908C293.184 185.566 300.59 155.214 287.178 156.205C273.166 157.241 284.278 191.551 270.531 194.46C250.71 198.655 233.175 162.343 215.074 171.464C201.179 178.465 231.604 200.414 228.421 215.678C225.328 230.507 196.844 234.33 198.83 249.348C200.709 263.56 221.646 267.444 235.648 270.336C247.31 272.744 258.526 265.326 270.372 264.123C276.026 263.548 282.222 262.312 287.178 265.1C298.478 271.455 303.533 288.719 316.423 290.023C326.395 291.032 337.21 280.253 338.676 270.31C340.44 258.351 318.706 248.373 324.156 237.59C332.147 221.781 363.266 227.191 368.953 210.41C372.954 198.605 353.783 188.873 341.838 185.415C329.724 181.907 316.179 197.855 305.052 191.908Z" stroke="#6260FF" stroke-width="1.28384"/>
<path d="M306.019 190.464C293.602 183.829 301.351 152.073 287.319 153.11C272.658 154.193 284.284 190.09 269.901 193.134C249.163 197.522 230.817 159.532 211.878 169.074C197.34 176.399 229.173 199.363 225.843 215.333C222.607 230.848 192.805 234.847 194.882 250.56C196.849 265.429 218.754 269.493 233.404 272.519C245.606 275.038 257.341 267.277 269.735 266.018C275.651 265.417 282.133 264.124 287.319 267.04C299.141 273.689 304.43 291.752 317.916 293.116C328.35 294.172 339.665 282.895 341.2 272.492C343.045 259.979 320.305 249.541 326.008 238.259C334.368 221.718 366.927 227.378 372.877 209.821C377.063 197.471 357.005 187.289 344.507 183.67C331.833 180.001 317.661 196.685 306.019 190.464Z" stroke="#6260FF" stroke-width="1.28384"/>
<path d="M306.989 189.02C294.023 182.091 302.114 148.932 287.462 150.015C272.153 151.146 284.293 188.63 269.274 191.808C247.618 196.39 228.461 156.72 208.685 166.685C193.504 174.333 226.745 198.313 223.267 214.988C219.888 231.189 188.768 235.365 190.938 251.773C192.991 267.299 215.865 271.542 231.163 274.702C243.904 277.333 256.158 269.229 269.101 267.914C275.278 267.286 282.047 265.935 287.462 268.981C299.807 275.924 305.33 294.785 319.412 296.209C330.308 297.312 342.123 285.536 343.725 274.673C345.653 261.608 321.907 250.708 327.862 238.927C336.592 221.656 370.591 227.566 376.804 209.233C381.174 196.336 360.23 185.704 347.179 181.926C333.945 178.094 319.146 195.516 306.989 189.02Z" stroke="#6260FF" stroke-width="1.28384"/>
<path d="M307.957 187.576C294.441 180.354 302.875 145.79 287.602 146.919C271.645 148.099 284.3 187.169 268.644 190.482C246.071 195.258 226.103 153.909 205.489 164.295C189.666 172.267 224.314 197.262 220.689 214.643C217.167 231.53 184.729 235.882 186.99 252.985C189.131 269.168 212.973 273.591 228.919 276.884C242.2 279.627 254.973 271.18 268.464 269.809C274.902 269.155 281.958 267.747 287.602 270.921C300.47 278.158 306.227 297.817 320.906 299.303C332.263 300.451 344.578 288.177 346.249 276.855C348.257 263.236 323.506 251.875 329.713 239.595C338.813 221.593 374.252 227.754 380.728 208.644C385.284 195.202 363.452 184.12 349.849 180.181C336.054 176.188 320.628 194.347 307.957 187.576Z" stroke="#6260FF" stroke-width="1.28384"/>
<path d="M308.926 186.132C294.862 178.617 303.638 142.65 287.745 143.824C271.139 145.052 284.308 185.708 268.016 189.156C244.527 194.126 223.747 151.098 202.296 161.905C185.829 170.202 221.885 196.211 218.113 214.298C214.447 231.871 180.692 236.4 183.045 254.197C185.272 271.038 210.084 275.641 226.678 279.067C240.498 281.921 253.79 273.131 267.828 271.705C274.528 271.024 281.871 269.559 287.745 272.862C301.135 280.393 307.126 300.85 322.401 302.396C334.22 303.591 347.036 290.819 348.774 279.036C350.864 264.865 325.107 253.042 331.566 240.264C341.036 221.53 377.914 227.941 384.654 208.056C389.395 194.067 366.676 182.535 352.52 178.437C338.164 174.281 322.113 193.178 308.926 186.132Z" stroke="#6260FF" stroke-width="1.28384"/>
<path d="M309.896 184.688C295.282 176.879 304.402 139.508 287.888 140.729C270.634 142.004 284.317 184.248 267.389 187.829C242.982 192.994 221.391 148.286 199.103 159.516C181.993 168.136 219.457 195.16 215.537 213.953C211.729 232.211 176.655 236.918 179.1 255.409C181.414 272.907 207.195 277.69 224.436 281.25C238.796 284.215 252.607 275.082 267.194 273.6C274.155 272.893 281.785 271.371 287.888 274.803C301.801 282.627 308.026 303.883 323.897 305.489C336.177 306.731 349.494 293.46 351.3 281.218C353.472 266.493 326.709 254.209 333.42 240.932C343.26 221.468 381.578 228.129 388.581 207.467C393.506 192.933 369.9 180.951 355.192 176.693C340.276 172.374 323.597 192.009 309.896 184.688Z" stroke="#6260FF" stroke-width="1.28384"/>
<path d="M310.863 183.244C295.701 175.142 305.163 136.368 288.028 137.634C270.126 138.957 284.323 182.787 266.759 186.504C241.435 191.862 219.033 145.475 195.907 157.127C178.154 166.07 217.026 194.11 212.959 213.609C209.007 232.553 172.616 237.436 175.153 256.622C177.554 274.777 204.303 279.739 222.193 283.433C237.092 286.51 251.422 277.034 266.557 275.496C273.78 274.762 281.696 273.183 288.028 276.744C302.465 284.862 308.923 306.917 325.391 308.583C338.132 309.872 351.949 296.102 353.823 283.4C356.076 268.122 328.308 255.377 335.272 241.601C345.481 221.405 385.239 228.317 392.505 206.879C397.616 191.799 373.123 179.367 357.862 174.949C342.385 170.468 325.08 190.84 310.863 183.244Z" stroke="#6260FF" stroke-width="1.28384"/>
<path d="M311.833 181.8C296.121 173.405 305.926 133.227 288.171 134.539C269.62 135.91 284.331 181.327 266.131 185.178C239.89 190.73 216.677 142.664 192.713 154.737C174.318 164.005 214.597 193.059 210.383 213.264C206.288 232.894 168.579 237.954 171.208 257.834C173.696 276.647 201.413 281.788 219.951 285.616C235.39 288.804 250.239 278.985 265.922 277.391C273.406 276.631 281.609 274.994 288.171 278.685C303.13 287.097 309.822 309.95 326.886 311.676C340.089 313.012 354.406 298.744 356.348 285.582C358.683 269.751 329.909 256.544 337.125 242.27C347.704 221.343 388.902 228.504 396.431 206.29C401.727 190.665 376.347 177.782 360.533 173.204C344.496 168.562 326.564 189.671 311.833 181.8Z" stroke="#6260FF" stroke-width="1.28384"/>
<path d="M312.803 180.356C296.542 171.667 306.689 130.086 288.314 131.444C269.115 132.863 284.34 179.866 265.504 183.852C238.346 189.598 214.321 139.853 189.52 152.347C170.482 161.939 212.169 192.008 207.807 212.919C203.569 233.234 164.542 238.471 167.263 259.046C169.838 278.516 198.524 283.837 217.71 287.799C233.688 291.098 249.056 280.936 265.287 279.287C273.033 278.5 281.523 276.806 288.314 280.625C303.796 289.331 310.722 312.982 328.382 314.769C342.046 316.151 356.864 301.385 358.874 287.763C361.29 271.379 331.511 257.711 338.979 242.938C349.927 221.28 392.565 228.692 400.357 205.702C405.838 189.53 379.571 176.198 363.205 171.46C346.607 166.655 328.049 188.502 312.803 180.356Z" stroke="#6260FF" stroke-width="1.28384"/>
<path d="M313.77 178.912C296.96 169.93 307.451 126.944 288.454 128.348C268.607 129.815 284.346 178.405 264.874 182.525C236.799 188.466 211.963 137.041 186.324 149.958C166.643 159.873 209.738 190.958 205.229 212.574C200.848 233.575 160.503 238.989 163.316 260.258C165.978 280.385 195.633 285.886 215.466 289.981C231.984 293.392 247.871 282.887 264.65 281.182C272.658 280.368 281.434 278.618 288.454 282.566C304.459 291.566 311.619 316.015 329.876 317.862C344.001 319.291 359.32 304.026 361.397 289.945C363.895 273.008 333.11 258.878 340.83 243.607C352.148 221.217 396.226 228.879 404.281 205.113C409.948 188.396 382.794 174.613 365.875 169.715C348.716 164.748 329.531 187.333 313.77 178.912Z" stroke="#6260FF" stroke-width="1.28384"/>
<path d="M314.74 177.468C297.381 168.192 308.213 123.803 288.597 125.253C268.101 126.768 284.355 176.945 264.246 181.199C235.254 187.334 209.607 134.23 183.131 147.568C162.807 157.807 207.309 189.907 202.653 212.229C198.129 233.916 156.466 239.507 159.37 261.47C162.119 282.255 192.743 287.935 213.224 292.164C230.282 295.686 246.687 284.838 264.015 283.078C272.284 282.237 281.347 280.43 288.597 284.506C305.124 293.8 312.518 319.048 331.372 320.955C345.958 322.431 361.777 306.668 363.922 292.126C366.502 274.636 334.711 260.045 342.684 244.275C354.371 221.155 399.889 229.067 408.207 204.525C414.059 187.261 386.018 173.029 368.546 167.971C350.827 162.842 331.015 186.164 314.74 177.468Z" stroke="#6260FF" stroke-width="1.28384"/>
<path d="M315.71 176.023C297.801 166.455 308.977 120.662 288.74 122.158C267.596 123.721 284.363 175.484 263.619 179.873C233.71 186.201 207.251 131.418 179.937 145.179C158.971 155.741 204.881 188.856 200.077 211.884C195.41 234.257 152.429 240.024 155.426 262.683C158.261 284.124 189.854 289.984 210.983 294.347C228.58 297.981 245.505 286.789 263.38 284.973C271.911 284.106 281.261 282.241 288.74 286.447C305.79 296.035 313.418 322.081 332.868 324.049C347.916 325.571 364.235 309.309 366.448 294.308C369.109 276.265 336.313 261.212 344.537 244.943C356.595 221.092 403.552 229.254 412.134 203.936C418.17 186.127 389.242 171.444 371.218 166.227C352.939 160.935 332.5 184.995 315.71 176.023Z" stroke="#6260FF" stroke-width="1.28384"/>
<path d="M316.677 174.579C298.22 164.718 309.738 117.521 288.88 119.063C267.088 120.673 284.37 174.023 262.989 178.547C232.163 185.069 204.893 128.607 176.742 142.789C155.132 153.675 202.45 187.805 197.499 211.539C192.689 234.598 148.39 240.542 151.478 263.895C154.401 285.994 186.962 292.033 208.739 296.53C226.876 300.275 244.32 288.74 262.743 286.869C271.536 285.975 281.172 284.053 288.88 288.388C306.453 298.27 314.315 325.114 334.361 327.142C349.871 328.711 366.69 311.951 368.971 296.49C371.714 277.893 337.912 262.379 346.389 245.612C358.816 221.03 407.213 229.442 416.058 203.348C422.28 184.992 392.465 169.86 373.888 164.482C355.048 159.028 333.982 183.826 316.677 174.579Z" stroke="#6260FF" stroke-width="1.28384"/>
<path d="M317.646 173.135C298.64 162.98 310.501 114.38 289.023 115.968C266.582 117.626 284.378 172.563 262.361 177.221C230.618 183.937 202.537 125.796 173.548 140.399C151.295 151.61 200.021 186.755 194.923 211.195C189.969 234.939 144.353 241.06 147.533 265.107C150.543 287.863 184.072 294.082 206.497 298.713C225.174 302.569 243.136 290.691 262.108 288.764C271.162 287.844 281.085 285.865 289.023 290.328C307.118 300.504 315.214 328.147 335.857 330.235C351.828 331.851 369.147 314.592 371.496 298.671C374.321 279.522 339.513 263.547 348.242 246.28C361.039 220.967 410.876 229.629 419.984 202.759C426.391 183.858 395.689 168.275 376.559 162.738C357.159 157.122 335.467 182.656 317.646 173.135Z" stroke="#6260FF" stroke-width="1.28384"/>
<path d="M318.614 171.691C299.058 161.243 311.262 111.239 289.163 112.872C266.074 114.579 284.384 171.102 261.732 175.895C229.071 182.805 200.179 122.984 170.352 138.01C147.457 149.544 197.59 185.704 192.345 210.85C187.248 235.28 140.314 241.577 143.586 266.319C146.682 289.733 181.181 296.132 204.254 300.895C223.47 304.863 241.951 292.643 261.471 290.659C270.787 289.713 280.996 287.676 289.163 292.269C307.782 302.739 316.111 331.18 337.35 333.328C353.783 334.991 371.603 317.233 374.019 300.853C376.926 281.151 341.113 264.714 350.094 246.949C363.26 220.904 414.537 229.817 423.908 202.171C430.5 182.723 398.911 166.691 379.229 160.993C359.268 155.215 336.949 181.487 318.614 171.691Z" stroke="#6260FF" stroke-width="1.28384"/>
<path d="M319.584 170.247C299.479 159.505 312.025 108.098 289.306 109.777C265.569 111.531 284.393 169.642 261.104 174.569C227.527 181.673 197.823 120.173 167.159 135.62C143.621 147.478 195.162 184.653 189.769 210.505C184.53 235.621 136.277 242.095 139.641 267.532C142.825 291.602 178.292 298.181 202.012 303.078C221.768 307.157 240.768 294.594 260.836 292.555C270.414 291.582 280.91 289.488 289.306 294.21C308.448 304.973 317.011 334.213 338.846 336.422C355.74 338.131 374.061 319.875 376.545 303.034C379.533 282.779 342.714 265.881 351.947 247.617C365.484 220.842 418.201 230.005 427.835 201.582C434.611 181.589 402.135 165.106 381.901 159.249C361.379 153.309 338.434 180.318 319.584 170.247Z" stroke="#6260FF" stroke-width="1.28384"/>
<path d="M320.553 168.803C299.9 157.768 312.788 104.957 289.449 106.682C265.063 108.484 284.401 168.181 260.477 173.243C225.982 180.541 195.467 117.362 163.965 133.231C139.784 145.412 192.733 183.602 187.193 210.16C181.81 235.961 132.24 242.612 135.696 268.744C138.966 293.471 175.402 300.23 199.77 305.261C220.066 309.451 239.585 296.545 260.201 294.45C270.04 293.451 280.823 291.3 289.449 296.15C309.113 307.208 317.91 337.246 340.342 339.515C357.697 341.27 376.518 322.516 379.07 305.216C382.14 284.407 344.315 267.048 353.801 248.286C367.707 220.779 421.863 230.192 431.761 200.994C438.723 180.454 405.36 163.522 384.572 157.504C363.49 151.402 339.918 179.149 320.553 168.803Z" stroke="#6260FF" stroke-width="1.28384"/>
<path d="M321.521 167.359C300.318 156.031 313.549 101.816 289.589 103.587C264.555 105.437 284.407 166.721 259.847 171.917C224.435 179.409 193.109 114.551 160.77 130.842C135.945 143.347 190.302 182.552 184.615 209.815C179.089 236.303 128.201 243.131 131.749 269.956C135.106 295.341 172.511 302.279 197.527 307.444C218.362 311.746 238.4 298.496 259.564 296.346C269.665 295.32 280.734 293.112 289.589 298.091C309.776 309.443 318.807 340.279 341.835 342.608C359.652 344.411 378.973 325.158 381.593 307.398C384.745 286.037 345.915 268.215 355.652 248.955C369.928 220.717 425.524 230.38 435.685 200.406C442.832 179.321 408.582 161.938 387.242 155.76C365.599 149.496 341.4 177.98 321.521 167.359Z" stroke="#6260FF" stroke-width="1.28384"/>
<path d="M322.491 165.915C300.739 154.294 314.313 98.6753 289.732 100.492C264.05 102.39 284.416 165.26 259.22 170.591C222.891 178.277 190.753 111.739 157.577 128.452C132.109 141.281 187.874 181.501 182.039 209.471C176.37 236.644 124.164 243.648 127.804 271.169C131.248 297.211 169.621 304.328 195.285 309.627C216.66 314.04 237.217 300.447 258.929 298.242C269.292 297.189 280.648 294.924 289.732 300.032C310.442 311.677 319.707 343.312 343.332 345.702C361.61 347.551 381.431 327.8 384.119 309.579C387.352 287.665 347.516 269.383 357.506 249.623C372.152 220.654 429.188 230.568 439.611 199.817C446.943 178.186 411.806 160.353 389.914 154.016C367.711 147.589 342.885 176.811 322.491 165.915Z" stroke="#6260FF" stroke-width="1.28384"/>
<path d="M323.458 164.47C301.157 152.556 315.074 95.5337 289.873 97.3962C263.542 99.342 284.423 163.799 258.59 169.264C221.344 177.144 188.395 108.927 154.381 126.062C128.271 139.215 185.443 180.45 179.461 209.125C173.649 236.984 120.125 244.166 123.857 272.38C127.388 299.08 166.73 306.377 193.042 311.809C214.956 316.334 236.032 302.398 258.292 300.137C268.916 299.057 280.559 296.735 289.873 301.972C311.105 313.911 320.604 346.344 344.825 348.794C363.565 350.69 383.887 330.441 386.642 311.761C389.957 289.293 349.116 270.549 359.358 250.291C374.373 220.591 432.849 230.755 443.535 199.228C451.053 177.051 415.029 158.768 392.583 152.271C369.82 145.682 344.367 175.642 323.458 164.47Z" stroke="#6260FF" stroke-width="1.28384"/>
<path d="M324.427 163.027C301.577 150.819 315.837 92.3932 290.015 94.3014C263.036 96.2952 284.431 162.339 257.962 167.939C219.799 176.013 186.039 106.117 151.187 123.673C124.434 137.149 183.014 179.4 176.885 208.781C170.93 237.325 116.088 244.684 119.911 273.593C123.529 300.95 163.84 308.426 190.8 313.993C213.254 318.628 234.849 304.35 257.657 302.033C268.543 300.927 280.472 298.547 290.015 303.913C311.77 316.146 321.503 349.378 346.321 351.888C365.522 353.83 386.344 333.082 389.168 313.943C392.564 290.922 350.717 271.717 361.211 250.96C376.596 220.529 436.512 230.943 447.461 198.64C455.164 175.917 418.253 157.184 395.255 150.527C371.931 143.776 345.852 174.473 324.427 163.027Z" stroke="#6260FF" stroke-width="1.28384"/>
<path d="M325.397 161.583C301.998 149.081 316.6 89.2521 290.158 91.2062C262.531 93.2479 284.44 160.878 257.335 166.613C218.255 174.881 183.683 103.305 147.994 121.283C120.598 135.084 180.586 178.349 174.309 208.436C168.211 237.666 112.051 245.201 115.966 274.805C119.672 302.819 160.951 310.475 188.559 316.175C211.552 320.923 233.666 306.301 257.022 303.928C268.17 302.796 280.386 300.359 290.158 305.854C312.436 318.381 322.403 352.411 347.817 354.981C367.479 356.97 388.802 335.724 391.693 316.124C395.171 292.551 352.318 272.884 363.065 251.628C378.82 220.466 440.175 231.13 451.388 198.051C459.275 174.783 421.477 155.6 397.927 148.783C374.042 141.869 347.336 173.304 325.397 161.583Z" stroke="#6260FF" stroke-width="1.28384"/>
<path d="M326.365 160.138C302.417 147.344 317.361 86.1109 290.298 88.1109C262.023 90.2005 284.446 159.417 256.705 165.286C216.708 173.748 181.325 100.494 144.798 118.893C116.76 133.018 178.155 177.298 171.731 208.091C165.49 238.007 108.012 245.719 112.019 276.017C115.811 304.688 158.059 312.524 186.315 318.358C209.848 323.217 232.481 308.252 256.385 305.823C267.794 304.664 280.297 302.171 290.298 307.794C313.1 320.615 323.3 355.443 349.31 358.074C369.434 360.11 391.257 338.365 394.217 318.306C397.776 294.179 353.918 274.051 364.916 252.297C381.041 220.403 443.836 231.318 455.312 197.463C463.385 173.648 424.7 154.015 400.596 147.038C376.151 139.963 348.819 172.135 326.365 160.138Z" stroke="#6260FF" stroke-width="1.28384"/>
<path d="M327.334 158.694C302.837 145.607 318.124 82.97 290.441 85.0158C261.517 87.1533 284.454 157.957 256.077 163.96C215.163 172.616 178.969 97.6825 141.605 116.504C112.923 130.952 175.726 176.247 169.155 207.746C162.77 238.348 103.975 246.237 108.074 277.23C111.953 306.558 155.17 314.574 184.073 320.541C208.146 325.511 231.298 310.203 255.75 307.719C267.42 306.533 280.21 303.982 290.441 309.735C313.765 322.85 324.199 358.477 350.806 361.168C371.391 363.25 393.714 341.007 396.742 320.487C400.383 295.808 355.519 275.218 366.769 252.965C383.264 220.341 447.499 231.505 459.238 196.874C467.496 172.514 427.924 152.431 403.267 145.294C378.262 138.056 350.303 170.966 327.334 158.694Z" stroke="#6260FF" stroke-width="1.28384"/>
<path d="M328.304 157.25C303.258 143.869 318.888 79.8288 290.584 81.9205C261.012 84.1058 284.463 156.496 255.45 162.634C213.618 171.484 176.613 94.8711 138.411 114.114C109.087 128.886 173.298 175.196 166.579 207.401C160.052 238.689 99.938 246.754 104.129 278.442C108.095 308.427 152.281 316.622 181.832 322.724C206.444 327.805 230.115 312.154 255.116 309.614C267.047 308.402 280.124 305.794 290.584 311.676C314.431 325.084 325.099 361.509 352.302 364.261C373.348 366.39 396.172 343.648 399.267 322.669C402.99 297.436 357.121 276.385 368.623 253.634C385.487 220.278 451.163 231.693 463.165 196.286C471.607 171.38 431.148 150.846 405.939 143.549C380.374 136.149 351.788 169.796 328.304 157.25Z" stroke="#6260FF" stroke-width="1.28384"/>
<path d="M329.272 155.806C303.676 142.132 319.649 76.6877 290.724 78.8252C260.504 81.0585 284.469 155.035 254.82 161.308C212.072 170.352 174.255 92.0597 135.216 111.725C105.248 126.82 170.867 174.146 164.001 207.056C157.33 239.03 95.8989 247.272 100.182 279.654C104.235 310.297 149.389 318.672 179.588 324.906C204.74 330.099 228.93 314.105 254.479 311.51C266.672 310.271 280.035 307.606 290.724 313.616C315.094 327.319 325.996 364.542 353.795 367.354C375.303 369.53 398.628 346.289 401.791 324.851C405.595 299.065 358.72 277.552 370.475 254.302C387.709 220.215 454.823 231.88 467.089 195.697C475.717 170.245 434.371 149.262 408.609 141.805C382.483 134.243 353.27 168.627 329.272 155.806Z" stroke="#6260FF" stroke-width="1.28384"/>
<path d="M330.241 154.363C304.096 140.395 320.412 73.5472 290.867 75.7305C259.998 78.0117 284.478 153.575 254.192 159.982C210.527 169.22 171.899 89.2488 132.022 109.336C101.412 124.755 168.438 173.095 161.425 206.712C154.611 239.371 91.8616 247.79 96.2365 280.867C100.376 312.167 146.499 320.721 177.346 327.09C203.038 332.394 227.746 316.057 253.843 313.406C266.298 312.14 279.948 309.418 290.867 315.557C315.759 329.554 326.895 367.576 355.291 370.448C377.26 372.67 401.085 348.931 404.316 327.033C408.202 300.694 360.321 278.72 372.328 254.971C389.932 220.153 458.486 232.068 471.015 195.109C479.828 169.111 437.595 147.678 411.28 140.061C384.594 132.337 354.754 167.459 330.241 154.363Z" stroke="#6260FF" stroke-width="1.28384"/>
<path d="M331.211 152.918C304.517 138.657 321.175 70.4056 291.01 72.6348C259.493 74.9639 284.486 152.114 253.565 158.656C208.982 168.088 169.543 86.437 128.829 106.946C97.5756 122.689 166.01 172.044 158.849 206.366C151.892 239.712 87.825 248.307 92.2917 282.078C96.5186 314.036 143.61 322.77 175.105 329.272C201.336 334.688 226.564 318.008 253.209 315.301C265.925 314.009 279.862 311.229 291.01 317.498C316.425 331.788 327.795 370.608 356.787 373.541C379.218 375.81 403.543 351.572 406.841 329.214C410.809 302.322 361.923 279.887 374.182 255.639C392.155 220.09 462.15 232.255 474.941 194.52C483.939 167.976 440.819 146.093 413.952 138.316C386.705 130.43 356.239 166.289 331.211 152.918Z" stroke="#6260FF" stroke-width="1.28384"/>
<path d="M332.178 151.474C304.936 136.919 321.937 67.2645 291.15 69.5396C258.985 71.9166 284.493 150.654 252.935 157.33C207.435 166.956 167.185 83.6256 125.633 104.556C93.7371 120.623 163.579 170.993 156.271 206.022C149.171 240.052 83.7859 248.825 88.3445 283.291C92.6583 315.905 140.719 324.819 172.862 331.455C199.632 336.982 225.379 319.959 252.572 317.196C265.55 315.878 279.773 313.041 291.15 319.438C317.088 334.022 328.692 373.641 358.281 376.634C381.173 378.949 405.998 354.214 409.365 331.395C413.414 303.95 363.522 281.054 376.033 256.308C394.376 220.028 465.811 232.443 478.866 193.932C488.049 166.842 444.041 144.508 416.622 136.572C388.814 128.523 357.721 165.12 332.178 151.474Z" stroke="#6260FF" stroke-width="1.28384"/>
<path d="M333.148 150.03C305.356 135.183 322.699 64.124 291.293 66.4449C258.479 68.8697 284.501 149.193 252.307 156.004C205.891 165.824 164.829 80.8147 122.44 102.167C89.9004 118.557 161.15 169.943 153.695 205.677C146.452 240.394 79.7487 249.343 84.3992 284.503C88.7999 317.775 137.829 326.868 170.62 333.638C197.93 339.276 224.195 321.91 251.936 319.092C265.176 317.747 279.686 314.853 291.293 321.379C317.753 336.257 329.591 376.674 359.776 379.728C383.13 382.09 408.455 356.856 411.89 333.577C416.021 305.579 365.123 282.221 377.887 256.976C396.599 219.965 469.474 232.631 482.791 193.344C492.16 165.708 447.266 142.924 419.293 134.828C390.925 126.617 359.206 163.951 333.148 150.03Z" stroke="#6260FF" stroke-width="1.28384"/>
<path d="M334.116 148.585C305.775 133.445 323.461 60.9823 291.434 63.349C257.972 65.8218 284.508 147.732 251.678 154.677C204.344 164.691 162.471 78.0028 119.244 99.7768C86.0624 116.491 158.72 168.892 151.117 205.332C143.731 240.734 75.7101 249.86 80.4525 285.715C84.9402 319.644 134.938 328.917 168.376 335.82C196.226 341.57 223.011 323.861 251.3 320.987C264.801 319.615 279.598 316.664 291.434 323.319C318.417 338.491 330.489 379.707 361.27 382.82C385.085 385.229 410.911 359.496 414.414 335.758C418.626 307.207 366.723 283.388 379.739 257.644C398.821 219.902 473.135 232.818 486.716 192.755C496.269 164.573 450.488 141.339 421.963 133.083C393.035 124.71 360.688 162.782 334.116 148.585Z" stroke="#6260FF" stroke-width="1.28384"/>
<path d="M335.085 147.142C306.195 131.708 324.224 57.8417 291.576 60.2543C257.466 62.775 284.516 146.272 251.05 153.352C202.799 163.56 160.115 75.1919 116.051 97.3877C82.2259 114.426 156.291 167.841 148.541 204.987C141.012 241.076 71.6729 250.378 76.5072 286.928C81.0819 321.514 132.048 330.966 166.135 338.004C194.524 343.865 221.827 325.812 250.665 322.883C264.428 321.485 279.511 318.476 291.576 325.26C319.083 340.726 331.388 382.74 362.766 385.914C387.042 388.369 413.369 362.138 416.939 337.941C421.233 308.836 368.324 284.556 381.592 258.313C401.044 219.84 476.798 233.006 490.642 192.167C500.381 163.439 453.712 139.755 424.635 131.339C395.146 122.804 362.173 161.613 335.085 147.142Z" stroke="#6260FF" stroke-width="1.28384"/>
<path d="M336.055 145.698C306.615 129.97 324.987 54.7007 291.719 57.1591C256.96 59.7277 284.524 144.811 250.422 152.026C201.254 162.427 157.759 72.3805 112.857 94.9981C78.3892 112.36 153.862 166.791 145.965 204.642C138.293 241.416 67.6357 250.896 72.5618 288.14C77.2234 323.383 129.159 333.015 163.893 340.186C192.822 346.159 220.644 327.764 250.03 324.778C264.054 323.354 279.424 320.288 291.719 327.201C319.748 342.961 332.287 385.773 364.261 389.007C388.999 391.509 415.826 364.78 419.464 340.122C423.84 310.465 369.925 285.723 383.445 258.982C403.267 219.777 480.461 233.193 494.568 191.578C504.492 162.305 456.936 138.171 427.306 129.595C397.257 120.897 363.657 160.444 336.055 145.698Z" stroke="#6260FF" stroke-width="1.28384"/>
<path d="M337.023 144.254C307.034 128.233 325.749 51.5596 291.86 54.0639C256.453 56.6803 284.531 143.351 249.793 150.7C199.708 161.295 155.401 69.5692 109.662 92.6085C74.5512 110.294 151.432 165.74 143.387 204.298C135.572 241.757 63.5971 251.414 68.6151 289.352C73.3637 325.253 126.268 335.064 161.65 342.369C191.118 348.453 219.46 329.715 249.393 326.674C263.679 325.223 279.336 322.1 291.86 329.142C320.412 345.195 333.185 388.806 365.755 392.1C390.955 394.649 418.282 367.421 421.988 342.304C426.445 312.093 371.525 286.89 385.297 259.65C405.489 219.715 484.123 233.381 498.493 190.99C508.601 161.17 460.159 136.586 429.976 127.85C399.366 118.99 365.14 159.275 337.023 144.254Z" stroke="#6260FF" stroke-width="1.28384"/>
<path d="M337.992 142.809C307.455 126.495 326.511 48.4184 292.002 50.9686C255.947 53.6329 284.539 141.89 249.165 149.373C198.163 160.163 153.045 66.7577 106.468 90.2188C70.7145 108.228 149.003 164.689 140.811 203.953C132.853 242.098 59.5599 251.931 64.6698 290.564C69.5053 327.122 123.378 337.113 159.408 344.552C189.416 350.747 218.276 331.666 248.758 328.569C263.306 327.091 279.249 323.912 292.002 331.082C321.077 347.43 334.084 391.839 367.251 395.193C392.912 397.789 420.739 370.063 424.513 344.485C429.052 313.722 373.126 288.057 387.151 260.319C407.712 219.652 487.785 233.568 502.419 190.401C512.712 160.036 463.383 135.002 432.648 126.106C401.477 117.084 366.624 158.105 337.992 142.809Z" stroke="#6260FF" stroke-width="1.28384"/>
<path d="M338.961 141.365C307.875 124.758 327.274 45.2775 292.144 47.8735C255.441 50.5857 284.547 140.429 248.537 148.047C196.618 159.031 150.688 63.9465 103.274 87.8294C66.8778 106.163 146.574 163.638 138.235 203.608C130.133 242.439 55.5226 252.449 60.7244 291.776C65.6468 328.992 120.488 339.163 157.166 346.735C187.714 353.041 217.093 333.617 248.123 330.465C262.932 328.96 279.162 325.723 292.144 333.023C321.742 349.665 334.983 394.872 368.746 398.287C394.868 400.929 423.196 372.704 427.038 346.667C431.659 315.35 374.727 289.224 389.004 260.987C409.935 219.589 491.448 233.756 506.345 189.813C516.823 158.901 466.607 133.417 435.319 124.361C403.588 115.177 368.108 156.936 338.961 141.365Z" stroke="#6260FF" stroke-width="1.28384"/>
<path d="M339.93 139.921C308.294 123.021 328.036 42.1364 292.286 44.7782C254.934 47.5384 284.554 138.969 247.908 146.721C195.072 157.899 148.331 61.1351 100.079 85.4398C63.0399 104.097 144.143 162.588 135.657 203.263C127.413 242.78 51.4841 252.967 56.7778 292.989C61.7872 330.861 117.597 341.212 154.923 348.918C186.01 355.336 215.908 335.568 247.486 332.36C262.557 330.829 279.074 327.535 292.286 334.964C322.406 351.899 335.881 397.905 370.241 401.38C396.824 404.069 425.653 375.345 429.562 348.849C434.264 316.979 376.327 290.391 390.856 261.656C412.157 219.527 495.11 233.944 510.27 189.224C520.933 157.767 469.83 131.833 437.989 122.617C405.698 113.271 369.591 155.767 339.93 139.921Z" stroke="#6260FF" stroke-width="1.28384"/>
<path d="M340.899 138.477C308.714 121.283 328.799 38.9952 292.428 41.6829C254.428 44.491 284.563 137.508 247.28 145.395C193.527 156.767 145.975 58.3236 96.8855 83.0501C59.2033 102.031 141.714 161.537 133.081 202.918C124.693 243.121 47.4469 253.484 52.8325 294.201C57.9288 332.73 114.708 343.261 152.681 351.1C184.308 357.63 214.725 337.519 246.851 334.256C262.184 332.698 278.987 329.347 292.428 336.904C323.071 354.134 336.78 400.937 371.736 404.473C398.781 407.209 428.11 377.987 432.087 351.03C436.871 318.607 377.928 291.558 392.709 262.324C414.38 219.464 498.773 234.131 514.195 188.635C525.044 156.632 473.054 130.248 440.661 120.872C407.809 111.364 371.075 154.598 340.899 138.477Z" stroke="#6260FF" stroke-width="1.28384"/>
<path d="M341.866 137.033C309.132 119.546 329.56 35.8542 292.569 38.5877C253.92 41.4436 284.569 136.047 246.651 144.069C191.98 155.635 143.617 55.5123 93.6899 80.6605C55.3648 99.965 139.284 160.486 130.503 202.573C121.972 243.462 43.4078 254.002 48.8853 295.413C54.0685 334.6 111.816 345.31 150.437 353.283C182.604 359.924 213.54 339.47 246.214 336.151C261.808 334.567 278.898 331.158 292.569 338.845C323.735 356.368 337.677 403.97 373.23 407.566C400.736 410.348 430.565 380.628 434.61 353.212C439.476 320.236 379.527 292.725 394.561 262.992C416.601 219.401 502.434 234.319 518.12 188.047C529.154 155.498 476.276 128.664 443.33 119.128C409.918 109.457 372.558 153.429 341.866 137.033Z" stroke="#6260FF" stroke-width="1.28384"/>
<path d="M342.836 135.589C309.553 117.808 330.324 32.7131 292.712 35.4925C253.415 38.3963 284.578 134.587 246.024 142.743C190.436 154.502 141.261 52.7009 90.4968 78.2709C51.5287 97.8992 136.855 159.435 127.927 202.228C119.253 243.802 39.3712 254.52 44.9405 296.625C50.2107 336.469 108.927 347.359 148.196 355.466C180.902 362.218 212.357 341.421 245.579 338.046C261.435 336.436 278.812 332.97 292.712 340.785C324.4 358.603 338.577 407.003 374.726 410.66C402.694 413.488 433.023 383.27 437.136 355.393C442.083 321.864 381.129 293.893 396.415 263.661C418.825 219.339 506.097 234.506 522.046 187.458C533.265 154.363 479.501 127.079 446.002 117.384C412.029 107.551 374.043 152.26 342.836 135.589Z" stroke="#6260FF" stroke-width="1.28384"/>
<path d="M343.806 134.145C309.974 116.071 331.086 29.5725 292.854 32.3977C252.909 35.3495 284.586 133.127 245.396 141.417C188.891 153.371 138.905 49.89 87.303 75.8818C47.692 95.8339 134.426 158.385 125.351 201.884C116.534 244.144 35.3339 255.038 40.9951 297.838C46.3523 338.339 106.037 349.408 145.954 357.649C179.2 364.513 211.174 343.373 244.944 339.943C261.061 338.305 278.725 334.782 292.854 342.727C325.066 360.838 339.476 410.037 376.221 413.753C404.65 416.629 435.48 385.912 439.661 357.575C444.69 323.494 382.73 295.06 398.268 264.33C421.047 219.277 509.76 234.694 525.972 186.87C537.376 153.23 482.725 125.495 448.674 115.64C414.14 105.645 375.527 151.091 343.806 134.145Z" stroke="#6260FF" stroke-width="1.28384"/>
<path d="M344.773 132.7C310.392 114.333 331.848 26.4309 292.995 29.3019C252.401 32.3016 284.592 131.665 244.766 140.091C187.344 152.238 136.547 47.0781 84.1074 73.4916C43.8535 93.7675 131.996 157.334 122.773 201.538C113.813 244.484 31.2948 255.555 37.0479 299.049C42.4921 340.208 103.146 351.457 143.711 359.831C177.496 366.806 209.989 345.324 244.307 341.837C260.686 340.174 278.636 336.593 292.995 344.667C325.729 363.072 340.373 413.069 377.715 416.846C406.606 419.768 437.936 388.552 442.184 359.756C447.295 325.121 384.329 296.227 400.119 264.998C423.269 219.213 513.421 234.881 529.896 186.281C541.486 152.095 485.947 123.91 451.343 113.895C416.249 103.737 377.009 149.921 344.773 132.7Z" stroke="#6260FF" stroke-width="1.28384"/>
<path d="M345.743 131.256C310.813 112.596 332.611 23.2898 293.138 26.2067C251.896 29.2543 284.601 130.205 244.139 138.764C185.8 151.106 134.191 44.2667 80.9142 71.1021C40.0175 91.7017 129.567 156.283 120.197 201.193C111.094 244.825 27.2582 256.072 33.1032 300.262C38.6343 342.077 100.257 353.506 141.47 362.014C175.794 369.1 208.806 347.275 243.673 343.733C260.313 342.042 278.55 338.405 293.138 346.607C326.395 365.306 341.273 416.102 379.211 419.939C408.563 422.908 440.394 391.194 444.71 361.938C449.902 326.75 385.931 297.394 401.973 265.666C425.492 219.151 517.084 235.069 533.823 185.693C545.597 150.96 489.172 122.326 454.015 112.15C418.361 101.831 378.494 148.752 345.743 131.256Z" stroke="#6260FF" stroke-width="1.28384"/>
<path d="M346.713 129.813C311.233 110.859 333.374 20.1492 293.28 23.112C251.39 26.2074 284.609 128.745 243.511 137.439C184.255 149.974 131.835 41.4558 77.7204 68.713C36.1808 89.6363 127.138 155.233 117.621 200.849C108.375 245.166 23.2209 256.591 29.1578 301.474C34.7758 343.947 97.3669 355.555 139.228 364.197C174.092 371.395 207.623 349.226 243.037 345.629C259.939 343.912 278.463 340.217 293.28 348.548C327.06 367.541 342.172 419.135 380.706 423.033C410.52 426.048 442.851 393.836 447.235 364.12C452.509 328.379 387.532 298.561 403.827 266.335C427.715 219.089 520.747 235.257 537.749 185.105C549.708 149.826 492.396 120.742 456.687 110.406C420.472 99.9246 379.978 147.584 346.713 129.813Z" stroke="#6260FF" stroke-width="1.28384"/>
<path d="M347.68 128.369C311.651 109.122 334.135 17.0083 293.42 20.0169C250.882 23.1602 284.616 127.284 242.881 136.113C182.708 148.842 129.477 38.6446 74.5247 66.3235C32.3422 87.5706 124.708 154.182 115.043 200.504C105.654 245.507 19.1817 257.108 25.2105 302.687C30.9155 345.817 94.4752 357.605 136.984 366.38C172.388 373.689 206.437 351.177 242.4 347.524C259.564 345.781 278.374 342.029 293.42 350.489C327.723 369.776 343.069 422.168 382.2 426.126C412.475 429.188 445.306 396.477 449.758 366.302C455.114 330.008 389.131 299.729 405.678 267.004C429.936 219.026 524.408 235.444 541.673 184.516C553.817 148.692 495.618 119.157 459.356 108.662C422.581 98.0181 381.46 146.415 347.68 128.369Z" stroke="#6260FF" stroke-width="1.28384"/>
<path d="M348.65 126.924C312.072 107.384 334.899 13.8666 293.563 16.9211C250.377 20.1123 284.625 125.823 242.254 134.786C181.164 147.71 127.121 35.8326 71.3317 63.9333C28.5062 85.5042 122.279 153.131 112.467 200.159C102.935 245.848 15.1452 257.625 21.2659 303.898C27.0578 347.686 91.5862 359.653 134.743 368.562C170.686 375.983 205.255 353.128 241.766 349.419C259.191 347.649 278.288 343.84 293.563 352.429C328.389 372.01 343.969 425.201 383.696 429.219C414.432 432.328 447.764 399.118 452.284 368.483C457.721 331.636 390.733 300.895 407.532 267.671C432.16 218.963 528.072 235.631 545.6 183.927C557.929 147.557 498.843 117.572 462.028 106.917C424.692 96.1109 382.945 145.245 348.65 126.924Z" stroke="#6260FF" stroke-width="1.28384"/>
<path d="M349.617 125.48C312.491 105.647 335.66 10.7261 293.704 13.8263C249.869 17.0655 284.631 124.363 241.624 133.461C179.617 146.578 124.763 33.0218 68.1359 61.5442C24.6676 83.4389 119.848 152.08 109.889 199.814C100.214 246.189 11.106 258.144 17.3185 305.111C23.1974 349.556 88.6946 361.703 132.499 370.746C168.982 378.278 204.07 355.08 241.129 351.315C258.815 349.519 278.199 345.653 293.704 354.37C329.052 374.245 344.866 428.234 385.19 432.313C416.387 435.468 450.219 401.76 454.808 370.665C460.326 333.265 392.332 302.063 409.383 268.34C434.381 218.901 531.733 235.819 549.524 183.339C562.038 146.423 502.065 115.988 464.698 105.173C426.801 94.2048 384.428 144.076 349.617 125.48Z" stroke="#6260FF" stroke-width="1.28384"/>
<path d="M350.587 124.036C312.911 103.909 336.422 7.58499 293.846 10.7311C249.363 14.0182 284.639 122.902 240.996 132.134C178.072 145.446 122.407 30.2104 64.9422 59.1547C20.8309 81.3731 117.419 151.03 107.313 199.469C97.4943 246.53 7.06877 258.661 13.3732 306.323C19.339 351.425 85.8048 363.752 130.257 372.929C167.28 380.572 202.886 357.031 240.493 353.211C258.442 351.387 278.112 347.464 293.846 356.311C329.718 376.479 345.765 431.267 386.685 435.406C418.344 438.608 452.677 404.401 457.333 372.846C462.933 334.893 393.934 303.23 411.237 269.009C436.604 218.838 535.395 236.007 553.45 182.751C566.149 145.289 505.289 114.404 467.369 103.429C428.912 92.2982 385.912 142.907 350.587 124.036Z" stroke="#6260FF" stroke-width="1.28384"/>
<path d="M351.557 122.592C313.332 102.172 337.186 4.44393 293.989 7.6359C248.858 10.9709 284.648 121.441 240.369 130.808C176.527 144.314 120.051 27.399 61.749 56.7651C16.9948 79.3073 114.991 149.979 104.737 199.125C94.7756 246.871 3.03213 259.179 9.42842 307.535C15.4812 353.295 82.9158 365.801 128.016 375.111C165.578 382.866 201.704 358.982 239.859 355.106C258.069 353.256 278.025 349.276 293.989 358.252C330.383 378.714 346.664 434.3 388.181 438.499C420.302 441.748 455.135 407.043 459.858 375.028C465.54 336.522 395.535 304.397 413.09 269.677C438.828 218.775 539.059 236.195 557.376 182.162C570.261 144.154 508.514 112.819 470.041 101.684C431.024 90.3916 387.397 141.738 351.557 122.592Z" stroke="#6260FF" stroke-width="1.28384"/>
<path d="M352.524 121.148C313.75 100.435 337.947 1.30275 294.13 4.54056C248.35 7.92342 284.654 119.981 239.739 129.482C174.981 143.181 117.693 24.5876 58.5534 54.3754C13.1563 77.2414 112.56 148.928 102.159 198.779C92.0544 247.212 -1.00695 259.697 5.48122 308.747C11.6209 355.164 80.0242 367.85 125.772 377.294C163.874 385.16 200.519 360.933 239.222 357.001C257.693 355.125 277.937 351.088 294.13 360.192C331.047 380.948 347.562 437.333 389.675 441.592C422.257 444.888 457.59 409.684 462.382 377.209C468.145 338.15 397.135 305.564 414.942 270.346C441.049 218.713 542.72 236.382 561.3 181.573C574.37 143.02 511.736 111.235 472.711 99.9398C433.133 88.4849 388.879 140.569 352.524 121.148Z" stroke="#6260FF" stroke-width="1.28384"/>
</svg>
