<svg width="540" height="468" viewBox="0 0 540 468" fill="none" xmlns="http://www.w3.org/2000/svg">
<path fill-rule="evenodd" clip-rule="evenodd" d="M269.276 177.918C277.021 180.729 277.443 192.107 283.088 198.116C286.413 201.655 290.597 204.688 295.348 205.675C307.783 208.259 324.382 199.065 332.927 208.473C339.389 215.586 327.749 227.223 321.714 234.703C316.589 241.055 307.368 242.251 301.286 247.692C297.265 251.289 294.778 256.16 292.343 260.978C288.083 269.406 289.114 281.233 281.509 286.821C274.855 291.711 263.748 291.721 257.017 286.936C249.385 281.51 251.834 268.679 245.852 261.469C241.687 256.448 234.166 256.109 228.611 252.695C220.176 247.51 202.726 245.774 204.427 236.009C206.466 224.299 227.72 227.562 234.667 217.923C238.914 212.031 229.768 202.96 232.951 196.43C235.91 190.357 244.134 189.227 250.148 186.162C256.403 182.974 262.678 175.523 269.276 177.918Z" stroke="#6260FF" stroke-width="1.28384"/>
<path fill-rule="evenodd" clip-rule="evenodd" d="M268.366 3.13811C300.286 14.7131 302.026 61.5625 325.288 86.3079C338.988 100.881 356.231 113.368 375.809 117.433C427.054 128.073 495.46 90.2129 530.676 128.952C557.303 158.243 509.335 206.161 484.466 236.96C463.346 263.116 425.346 268.039 400.283 290.441C383.71 305.255 373.461 325.31 363.425 345.15C345.871 379.852 350.12 428.552 318.782 451.562C291.357 471.699 245.586 471.741 217.85 452.037C186.397 429.693 196.488 376.861 171.839 347.172C154.675 326.499 123.68 325.101 100.788 311.043C66.0239 289.695 -5.8857 282.545 1.12246 242.339C9.52777 194.117 97.116 207.557 125.745 167.865C143.244 143.602 105.553 106.254 118.67 79.3651C130.868 54.3599 164.758 49.703 189.541 37.083C215.316 23.958 241.176 -6.72181 268.366 3.13811Z" stroke="#6260FF" stroke-width="1.28384"/>
<path d="M283.916 195.925C277.926 189.548 277.478 177.474 269.258 174.492C262.256 171.951 255.597 179.857 248.96 183.239C242.578 186.491 233.851 187.692 230.71 194.135C227.332 201.065 237.038 210.69 232.532 216.942C225.16 227.171 202.605 223.707 200.441 236.134C198.636 246.495 217.153 248.338 226.105 253.84C232 257.462 239.982 257.823 244.401 263.15C250.749 270.801 248.15 284.416 256.25 290.174C263.392 295.252 275.178 295.241 282.24 290.052C290.31 284.122 289.216 271.572 293.737 262.629C296.321 257.516 298.96 252.348 303.228 248.53C309.682 242.757 319.467 241.489 324.906 234.748C331.309 226.811 343.662 214.463 336.805 206.914C327.737 196.931 310.122 206.688 296.926 203.946C291.884 202.898 287.444 199.68 283.916 195.925Z" stroke="#6260FF" stroke-width="1.28384"/>
<path d="M284.744 193.733C278.408 186.988 277.934 174.22 269.24 171.065C261.835 168.378 254.792 176.739 247.772 180.317C241.022 183.756 231.792 185.025 228.469 191.841C224.897 199.169 235.163 209.348 230.396 215.961C222.599 226.779 198.744 223.116 196.455 236.259C194.546 247.217 214.131 249.166 223.599 254.984C229.834 258.816 238.276 259.197 242.95 264.831C249.664 272.923 246.916 287.322 255.482 293.412C263.036 298.782 275.502 298.771 282.972 293.283C291.507 287.011 290.35 273.738 295.131 264.28C297.864 258.873 300.655 253.407 305.169 249.369C311.995 243.264 322.345 241.922 328.097 234.793C334.87 226.399 347.935 213.339 340.683 205.356C331.091 194.797 312.461 205.116 298.504 202.216C293.171 201.108 288.475 197.705 284.744 193.733Z" stroke="#6260FF" stroke-width="1.28384"/>
<path d="M285.571 191.541C278.89 184.43 278.391 170.965 269.223 167.639C261.414 164.805 253.987 173.622 246.584 177.394C239.466 181.021 229.732 182.36 226.229 189.546C222.462 197.274 233.287 208.007 228.261 214.98C220.038 226.388 194.882 222.525 192.468 236.384C190.456 247.939 211.109 249.994 221.093 256.129C227.668 260.169 236.57 260.571 241.499 266.512C248.579 275.045 245.681 290.228 254.714 296.65C262.68 302.313 275.826 302.301 283.703 296.513C292.703 289.9 291.483 275.904 296.525 265.931C299.407 260.229 302.351 254.465 307.11 250.208C314.309 243.77 325.223 242.355 331.288 234.838C338.431 225.986 352.208 212.215 344.56 203.797C334.446 192.663 314.799 203.544 300.081 200.486C294.459 199.318 289.506 195.729 285.571 191.541Z" stroke="#6260FF" stroke-width="1.28384"/>
<path d="M286.398 189.346C279.371 181.867 278.846 167.707 269.204 164.209C260.991 161.229 253.18 170.501 245.394 174.468C237.908 178.282 227.672 179.69 223.987 187.248C220.025 195.374 231.41 206.663 226.124 213.996C217.477 225.992 191.02 221.93 188.481 236.505C186.364 248.657 208.085 250.818 218.586 257.27C225.501 261.519 234.863 261.942 240.047 268.19C247.493 277.163 244.445 293.131 253.945 299.884C262.323 305.84 276.149 305.827 284.432 299.741C293.899 292.786 292.615 278.067 297.917 267.579C300.949 261.582 304.045 255.521 309.051 251.043C316.621 244.273 328.099 242.785 334.479 234.879C341.99 225.57 356.48 211.088 348.437 202.235C337.8 190.526 317.137 201.969 301.658 198.753C295.744 197.525 290.536 193.751 286.398 189.346Z" stroke="#6260FF" stroke-width="1.28384"/>
<path d="M287.225 187.154C279.854 179.308 279.302 164.452 269.186 160.782C260.57 157.656 252.375 167.384 244.206 171.546C236.352 175.547 225.612 177.024 221.747 184.953C217.59 193.479 229.534 205.321 223.989 213.015C214.916 225.601 187.159 221.339 184.495 236.629C182.274 249.378 205.063 251.646 216.08 258.415C223.334 262.872 233.157 263.316 238.596 269.871C246.408 279.285 243.21 296.037 253.177 303.122C261.967 309.37 276.472 309.356 285.164 302.971C295.095 295.675 293.748 280.233 299.311 269.229C302.492 262.939 305.74 256.579 310.992 251.882C318.935 244.779 330.977 243.218 337.67 234.924C345.551 225.158 360.753 209.964 352.315 200.676C341.154 188.392 319.476 200.397 303.236 197.023C297.032 195.734 291.567 191.775 287.225 187.154Z" stroke="#6260FF" stroke-width="1.28384"/>
<path d="M288.054 184.963C280.337 176.749 279.76 161.198 269.17 157.356C260.149 154.083 251.571 164.267 243.019 168.623C234.797 172.812 223.554 174.358 219.507 182.658C215.156 191.583 227.66 203.98 221.854 212.034C212.357 225.209 183.299 220.748 180.51 236.754C178.185 250.1 202.042 252.473 213.575 259.559C221.169 264.226 231.452 264.69 237.146 271.552C245.324 281.406 241.976 298.943 252.411 306.36C261.613 312.9 276.798 312.886 285.896 306.202C296.293 298.565 294.883 282.399 300.707 270.881C304.036 264.295 307.436 257.638 312.935 252.721C321.249 245.285 333.856 243.651 340.863 234.969C349.113 224.746 365.027 208.84 356.193 199.118C344.51 186.259 321.816 198.826 304.815 195.294C298.32 193.945 292.599 189.8 288.054 184.963Z" stroke="#6260FF" stroke-width="1.28384"/>
<path d="M288.881 182.771C280.818 174.189 280.215 157.943 269.151 153.929C259.727 150.51 250.764 161.149 241.83 165.701C233.24 170.077 221.493 171.692 217.265 180.363C212.719 189.688 225.783 202.639 219.718 211.053C209.795 224.817 179.436 220.157 176.523 236.879C174.094 250.821 199.018 253.301 211.067 260.704C219.002 265.579 229.745 266.064 235.694 273.233C244.238 283.528 240.74 301.849 251.642 309.598C261.256 316.431 277.12 316.416 286.626 309.433C297.488 301.454 296.015 284.566 302.099 272.531C305.578 265.652 309.13 258.697 314.875 253.56C323.562 245.791 336.733 244.084 344.053 235.014C352.673 224.333 369.299 207.716 360.07 197.559C347.864 184.125 324.154 197.254 306.392 193.564C299.606 192.154 293.629 187.824 288.881 182.771Z" stroke="#6260FF" stroke-width="1.28384"/>
<path d="M289.709 180.579C281.3 171.63 280.671 154.688 269.134 150.502C259.305 146.937 249.959 158.031 240.642 162.778C231.684 167.341 219.434 169.025 215.025 178.068C210.284 187.792 223.907 201.298 217.582 210.072C207.234 224.425 175.575 219.565 172.537 237.003C170.003 251.543 195.996 254.128 208.561 261.848C216.836 266.932 228.039 267.438 234.243 274.913C243.153 285.65 239.505 304.755 250.874 312.835C260.9 319.961 277.444 319.945 287.357 312.664C298.684 304.343 297.149 286.731 303.493 274.182C307.121 267.008 310.826 259.755 316.816 254.398C325.875 246.297 339.611 244.517 347.244 235.058C356.234 223.92 373.572 206.592 363.948 196C351.218 181.991 326.493 195.682 307.97 191.834C300.893 190.364 294.66 185.849 289.709 180.579Z" stroke="#6260FF" stroke-width="1.28384"/>
<path d="M290.534 178.387C281.78 169.071 281.125 151.434 269.114 147.076C258.882 143.364 249.151 154.914 239.451 159.855C230.125 164.606 217.372 166.359 212.782 175.773C207.846 185.896 222.029 199.957 215.444 209.091C204.671 224.034 171.711 218.974 168.548 237.128C165.911 252.264 192.971 254.956 206.053 262.993C214.667 268.286 226.331 268.812 232.79 276.595C242.065 287.772 238.268 307.661 250.104 316.073C260.541 323.491 277.765 323.475 288.085 315.895C299.878 307.232 298.279 288.898 304.885 275.833C308.661 268.364 312.518 260.814 318.755 255.237C328.186 246.804 342.486 244.95 350.433 235.103C359.792 223.508 377.843 205.469 367.823 194.441C354.571 179.857 328.829 194.11 309.545 190.105C302.178 188.574 295.689 183.873 290.534 178.387Z" stroke="#6260FF" stroke-width="1.28384"/>
<path d="M291.361 176.192C282.262 166.509 281.582 148.176 269.096 143.646C258.46 139.788 248.345 151.793 238.263 156.929C228.569 161.868 215.313 163.69 210.541 173.475C205.411 183.997 220.154 198.612 213.309 208.107C202.11 223.639 167.85 218.38 164.562 237.249C161.821 252.983 189.949 255.781 203.547 264.135C212.501 269.636 224.625 270.183 231.339 278.272C240.98 289.89 237.033 310.564 249.336 319.308C260.185 327.018 278.089 327.002 288.816 319.122C301.075 310.118 299.413 291.061 306.279 277.481C310.204 269.718 314.214 261.869 320.696 256.073C330.5 247.307 345.364 245.38 353.625 235.145C363.353 223.092 382.116 204.341 371.7 192.879C357.925 177.72 331.168 192.535 311.123 188.372C303.465 186.781 296.72 181.895 291.361 176.192Z" stroke="#6260FF" stroke-width="1.28384"/>
<path d="M292.189 174C282.745 163.949 282.038 144.921 269.078 140.219C258.039 136.215 247.54 148.676 237.075 154.007C227.013 159.132 213.253 161.024 208.301 171.18C202.975 182.101 218.278 197.271 211.173 207.125C199.55 223.247 163.988 217.788 160.576 237.374C157.73 253.704 186.926 256.608 201.04 265.279C210.335 270.989 222.919 271.557 229.888 279.953C239.895 292.012 235.798 313.47 248.568 322.545C259.83 330.548 278.413 330.531 289.547 322.353C302.271 313.007 300.546 293.227 307.673 279.132C311.748 271.074 315.909 262.928 322.638 256.911C332.813 247.812 348.242 245.813 356.816 235.189C366.913 222.68 386.389 203.217 375.578 191.32C361.28 175.586 333.507 190.963 312.701 186.642C304.752 184.991 297.751 179.919 292.189 174Z" stroke="#6260FF" stroke-width="1.28384"/>
<path d="M293.017 171.808C283.227 161.39 282.495 141.666 269.061 136.793C257.618 132.642 246.735 145.558 235.887 151.084C225.457 156.397 211.194 158.358 206.06 168.885C200.54 180.206 216.402 195.93 209.038 206.144C196.989 222.855 160.127 217.197 156.59 237.498C153.64 254.425 183.904 257.436 198.534 266.423C208.169 272.342 221.213 272.931 228.437 281.634C238.81 294.133 234.564 316.376 247.801 325.783C259.474 334.079 278.737 334.061 290.279 325.583C303.468 315.896 301.679 295.393 309.067 280.783C313.291 272.43 317.604 263.986 324.579 257.75C335.127 248.319 351.119 246.246 360.008 235.234C370.474 222.267 390.662 202.093 379.456 189.762C364.635 173.452 335.846 189.391 314.279 184.912C306.04 183.2 298.782 177.943 293.017 171.808Z" stroke="#6260FF" stroke-width="1.28384"/>
<path d="M293.844 169.616C283.709 158.831 282.951 138.412 269.043 133.367C257.196 129.069 245.929 142.441 234.699 148.162C223.9 153.662 209.134 155.692 203.82 166.59C198.105 178.31 214.527 194.589 206.902 205.163C194.428 222.463 156.266 216.606 152.604 237.623C149.55 255.147 180.882 258.264 196.028 267.568C206.003 273.695 219.507 274.305 226.986 283.315C237.725 296.255 233.329 319.282 247.033 329.021C259.118 337.609 279.061 337.591 291.01 328.814C304.664 318.785 302.813 297.559 310.461 282.434C314.834 273.787 319.299 265.045 326.52 258.589C337.44 248.825 353.997 246.679 363.199 235.279C374.035 221.855 394.935 200.97 383.333 188.203C367.99 171.318 338.185 187.82 315.857 183.182C307.327 181.411 299.813 175.968 293.844 169.616Z" stroke="#6260FF" stroke-width="1.28384"/>
<path d="M294.672 167.425C284.191 156.272 283.408 135.157 269.026 129.94C256.775 125.496 245.124 139.324 233.511 145.239C222.344 150.927 207.075 153.026 201.579 164.296C195.669 176.415 212.651 193.248 204.767 204.183C191.868 222.072 152.404 216.015 148.617 237.748C145.46 255.869 177.859 259.092 193.522 268.713C203.837 275.049 217.801 275.679 225.535 284.996C236.641 298.377 232.094 322.188 246.265 332.259C258.762 341.14 279.384 341.121 291.741 332.045C305.861 321.674 303.946 299.725 311.855 284.085C316.377 275.143 320.995 266.104 328.462 259.428C339.754 249.331 356.875 247.112 366.391 235.324C377.596 221.442 399.208 199.846 387.211 186.645C371.344 169.185 340.524 186.248 317.435 181.453C308.614 179.621 300.845 173.993 294.672 167.425Z" stroke="#6260FF" stroke-width="1.28384"/>
<path d="M295.5 165.233C284.674 153.712 283.864 131.902 269.008 126.513C256.353 121.923 244.318 136.206 232.322 142.316C220.788 148.191 205.015 150.359 199.339 162C193.234 174.518 210.776 191.906 202.631 203.201C189.307 221.68 148.543 215.423 144.631 237.872C141.37 256.59 174.837 259.919 191.016 269.857C201.67 276.402 216.095 277.053 224.084 286.677C235.556 300.498 230.859 325.094 245.497 335.496C258.406 344.67 279.708 344.65 292.472 335.275C307.057 324.563 305.079 301.891 313.249 285.735C317.92 276.499 322.69 267.162 330.403 260.266C342.067 249.837 359.753 247.545 369.582 235.368C381.156 221.03 403.481 198.722 391.089 185.086C374.699 167.051 342.863 184.676 319.013 179.723C309.901 177.83 301.876 172.017 295.5 165.233Z" stroke="#6260FF" stroke-width="1.28384"/>
<path d="M296.328 163.041C285.156 151.153 284.32 128.647 268.991 123.087C255.932 118.35 243.513 133.088 231.134 139.394C219.232 145.456 202.956 147.693 197.098 159.706C190.799 172.623 208.9 190.565 200.496 202.22C186.747 221.288 144.682 214.832 140.645 237.997C137.279 257.311 171.815 260.747 188.51 271.002C199.504 277.755 214.39 278.427 222.633 288.358C234.471 302.62 229.624 328 244.73 338.734C258.05 348.2 280.032 348.18 293.203 338.506C308.253 327.452 306.213 304.057 314.643 287.386C319.463 277.856 324.385 268.221 332.344 261.105C344.381 250.343 362.631 247.978 372.774 235.413C384.717 220.617 407.754 197.598 394.966 183.527C378.054 164.917 345.201 183.104 320.591 177.993C311.188 176.04 302.907 170.042 296.328 163.041Z" stroke="#6260FF" stroke-width="1.28384"/>
<path d="M297.155 160.846C285.638 148.591 284.777 125.39 268.973 119.657C255.511 114.774 242.708 129.968 229.946 136.468C217.676 142.718 200.897 145.024 194.857 157.408C188.363 170.724 207.024 189.221 198.36 201.236C184.186 220.893 140.821 214.237 136.659 238.118C133.189 258.03 168.792 261.571 186.004 272.144C197.338 279.106 212.684 279.798 221.182 290.036C233.386 304.739 228.39 330.903 243.962 341.969C257.694 351.727 280.356 351.706 293.934 341.734C309.45 330.339 307.346 306.22 316.037 289.034C321.006 279.209 326.08 269.277 334.286 261.941C346.694 250.847 365.508 248.408 375.965 235.455C388.278 220.202 412.027 196.471 398.844 181.965C381.408 162.78 347.54 181.53 322.169 176.26C312.476 174.247 303.938 168.063 297.155 160.846Z" stroke="#6260FF" stroke-width="1.28384"/>
<path d="M297.982 158.654C286.119 146.032 285.232 122.134 268.954 116.23C255.088 111.201 241.901 126.85 228.757 133.545C216.118 139.982 198.836 142.358 192.616 155.112C185.927 168.828 205.147 187.879 196.223 200.255C181.624 220.501 136.958 213.646 132.672 238.243C129.098 258.751 165.769 262.399 183.496 273.288C195.171 280.458 210.976 281.172 219.729 291.716C232.299 306.86 227.154 333.809 243.193 345.206C257.337 355.257 280.678 355.235 294.664 344.964C310.645 333.227 308.478 308.386 317.43 290.685C322.548 280.565 327.774 270.335 336.226 262.779C349.007 251.352 368.385 248.841 379.155 235.499C391.837 219.789 416.299 195.347 402.721 180.406C384.762 160.646 349.878 179.957 323.745 174.53C313.761 172.457 304.968 166.087 297.982 158.654Z" stroke="#6260FF" stroke-width="1.28384"/>
<path d="M298.809 156.462C286.601 143.473 285.688 118.88 268.936 112.804C254.667 107.628 241.096 123.733 227.569 130.623C214.562 137.247 196.776 139.692 190.375 152.818C183.491 166.933 203.272 186.538 194.088 199.274C179.063 220.109 133.097 213.055 128.686 238.367C125.008 259.473 162.746 263.226 180.99 274.432C193.004 281.812 209.271 282.546 218.278 293.398C231.214 308.982 225.919 336.715 242.425 348.444C256.981 358.788 281.002 358.765 295.395 348.195C311.842 336.116 309.612 310.552 318.824 292.336C324.091 281.922 329.47 271.394 338.167 263.618C351.32 251.859 371.263 249.274 382.347 235.544C395.398 219.376 420.572 194.223 406.598 178.848C388.117 158.512 352.217 178.386 325.323 172.801C315.049 170.667 305.999 164.112 298.809 156.462Z" stroke="#6260FF" stroke-width="1.28384"/>
<path d="M299.638 154.27C287.085 140.914 286.146 115.625 268.92 109.377C254.247 104.055 240.292 120.615 226.382 127.7C213.007 134.512 194.718 137.026 188.136 150.523C181.057 165.037 201.397 185.197 191.954 198.293C176.504 219.718 129.237 212.463 124.701 238.492C120.919 260.194 159.725 264.054 178.486 275.577C190.84 283.165 207.566 283.92 216.829 295.079C230.131 311.104 224.685 339.621 241.659 351.682C256.627 362.318 281.327 362.295 296.127 351.426C313.039 339.006 310.746 312.719 320.219 293.987C325.635 283.278 331.166 272.453 340.11 264.457C353.635 252.365 374.142 249.707 385.539 235.589C398.96 218.964 424.847 193.099 410.477 177.289C391.473 156.378 354.557 176.814 326.902 171.071C316.337 168.877 307.031 162.137 299.638 154.27Z" stroke="#6260FF" stroke-width="1.28384"/>
<path d="M300.465 152.079C287.566 138.355 286.601 112.371 268.901 105.951C253.824 100.483 239.485 117.498 225.192 124.778C211.45 131.777 192.658 134.36 185.894 148.228C178.621 163.141 199.521 183.856 189.817 197.312C173.942 219.326 125.374 211.872 120.713 238.617C116.827 260.916 156.702 264.882 175.978 276.722C188.672 284.519 205.859 285.294 215.376 296.76C229.044 313.226 223.449 342.528 240.89 354.92C256.27 365.849 281.65 365.825 296.857 354.657C314.234 341.895 311.878 314.885 321.612 295.638C327.177 284.635 332.86 273.512 342.05 265.296C355.947 252.871 377.019 250.141 388.73 235.634C402.52 218.552 429.118 191.976 414.354 175.73C394.826 154.245 356.895 175.243 328.479 169.341C317.623 167.087 308.061 160.161 300.465 152.079Z" stroke="#6260FF" stroke-width="1.28384"/>
<path d="M301.292 149.887C288.048 135.795 287.058 109.116 268.884 102.524C253.403 96.9091 238.68 114.38 224.004 121.855C209.894 129.041 190.598 131.693 183.653 145.933C176.185 161.245 197.645 182.514 187.681 196.331C171.382 218.934 121.513 211.28 116.727 238.741C112.737 261.637 153.679 265.709 173.472 277.866C186.506 285.871 204.153 286.668 213.925 298.44C227.96 315.347 222.214 345.433 240.122 358.157C255.914 369.378 281.974 369.354 297.588 357.887C315.431 344.784 313.012 317.051 323.006 297.289C328.72 285.991 334.555 274.57 343.991 266.134C358.261 253.377 379.896 250.573 391.921 235.678C406.08 218.139 433.392 190.851 418.231 174.171C398.181 152.11 359.234 173.67 330.057 167.611C318.91 165.296 309.092 158.185 301.292 149.887Z" stroke="#6260FF" stroke-width="1.28384"/>
<path d="M302.12 147.692C288.53 133.233 287.514 105.858 268.866 99.0945C252.981 93.3332 237.874 111.26 222.816 118.929C208.338 126.303 188.539 129.024 181.413 143.635C173.75 159.347 195.769 181.17 185.546 195.347C168.821 218.539 117.652 210.686 112.741 238.863C108.647 262.356 150.657 266.534 170.966 279.008C184.34 287.222 202.447 288.039 212.474 300.118C226.875 317.466 220.979 348.336 239.354 361.392C255.558 372.906 282.298 372.881 298.319 361.115C316.627 347.67 314.145 319.214 324.4 298.937C330.263 287.344 336.251 275.625 345.933 266.97C360.574 253.88 382.774 251.003 395.113 235.72C409.641 217.723 437.665 189.725 422.109 172.609C401.536 149.974 361.573 172.095 331.635 165.878C320.197 163.503 310.124 156.207 302.12 147.692Z" stroke="#6260FF" stroke-width="1.28384"/>
<path d="M302.948 145.5C289.013 130.674 287.97 102.603 268.849 95.668C252.56 89.7604 237.069 108.142 221.628 116.006C206.781 123.568 186.479 126.358 179.172 141.34C171.315 157.451 193.894 179.829 183.41 194.366C166.26 218.148 113.79 210.095 108.755 238.987C104.557 263.077 147.635 267.362 168.46 280.152C182.174 288.575 200.741 289.413 211.023 301.799C225.79 319.588 219.745 351.242 238.586 364.63C255.202 376.436 282.621 376.411 299.05 364.346C317.824 350.559 315.278 321.38 325.794 300.588C331.806 288.701 337.946 276.684 347.874 267.809C362.888 254.386 385.652 251.437 398.304 235.765C413.202 217.311 441.938 188.601 425.987 171.051C404.89 147.84 363.911 170.524 333.213 164.149C321.485 161.713 311.155 154.232 302.948 145.5Z" stroke="#6260FF" stroke-width="1.28384"/>
<path d="M303.773 143.308C289.492 128.114 288.424 99.3483 268.828 92.2412C252.136 86.1872 236.261 105.025 220.437 113.084C205.223 120.832 184.417 123.692 176.929 139.045C168.877 155.555 192.016 178.487 181.272 193.384C163.697 217.756 109.926 209.504 104.766 239.112C100.464 263.798 144.61 268.189 165.951 281.297C180.005 289.928 199.033 290.787 209.57 303.48C224.702 321.709 218.507 354.148 237.816 367.868C254.844 379.966 282.943 379.94 299.779 367.576C319.018 353.448 316.409 323.546 327.186 302.238C333.346 290.057 339.639 277.743 349.813 268.647C365.199 254.892 388.527 251.869 401.493 235.809C416.76 216.898 446.208 187.477 429.862 169.492C408.242 145.706 366.248 168.952 334.788 162.419C322.769 159.923 312.183 152.256 303.773 143.308Z" stroke="#6260FF" stroke-width="1.28384"/>
<path d="M304.601 141.116C289.975 125.555 288.881 96.0937 268.811 88.8148C251.715 82.6143 235.456 101.907 219.249 110.161C203.667 118.097 182.358 121.026 174.689 136.75C166.441 153.659 190.14 177.146 179.137 192.403C161.137 217.364 106.065 208.912 100.78 239.236C96.3739 264.52 141.587 269.017 163.445 282.441C177.839 291.282 197.327 292.161 208.119 305.161C223.617 323.831 217.272 357.054 237.048 371.106C254.488 383.497 283.266 383.47 300.51 370.807C320.214 356.337 317.543 325.712 328.58 303.889C334.89 291.413 341.334 278.801 351.754 269.486C367.512 255.398 391.405 252.303 404.684 235.854C420.321 216.486 450.481 186.353 433.739 167.933C411.597 143.572 368.587 167.38 336.366 160.689C324.057 158.133 313.214 150.281 304.601 141.116Z" stroke="#6260FF" stroke-width="1.28384"/>
<path d="M305.428 138.924C290.457 122.996 289.337 92.8391 268.793 85.3883C251.293 79.0415 234.65 98.79 218.061 107.239C202.11 115.362 180.299 118.36 172.448 134.455C164.006 151.764 188.264 175.805 177.001 191.423C158.576 216.972 102.204 208.321 96.7942 239.361C92.2837 265.242 138.565 269.844 160.939 283.586C175.673 292.635 195.621 293.535 206.668 306.842C222.532 325.953 216.038 359.96 236.281 374.343C254.132 387.027 283.59 386.999 301.241 374.038C321.411 359.226 318.676 327.878 329.974 305.54C336.433 292.77 343.029 279.86 353.695 270.325C369.826 255.905 394.283 252.736 407.876 235.899C423.882 216.073 454.754 185.229 437.617 166.375C414.952 141.438 370.926 165.808 337.944 158.959C325.344 156.343 314.246 148.305 305.428 138.924Z" stroke="#6260FF" stroke-width="1.28384"/>
<path d="M306.256 136.733C290.939 120.437 289.794 89.5845 268.776 81.9619C250.872 75.4687 233.845 95.6726 216.873 104.316C200.554 112.627 178.239 115.694 170.208 132.161C161.571 149.868 186.389 174.464 174.866 190.442C156.015 216.581 98.3426 207.73 92.8081 239.486C88.1935 265.963 135.543 270.672 158.433 284.731C173.507 293.988 193.915 294.909 205.217 308.523C221.447 328.074 214.803 362.867 235.513 377.581C253.776 390.557 283.914 390.529 301.972 377.269C322.607 362.115 319.809 330.044 331.368 307.191C337.976 294.126 344.724 280.919 355.637 271.164C372.139 256.411 397.161 253.169 411.067 235.944C427.442 215.661 459.027 184.105 441.495 164.816C418.307 139.304 373.265 164.237 339.522 157.23C326.631 154.553 315.277 146.33 306.256 136.733Z" stroke="#6260FF" stroke-width="1.28384"/>
<path d="M307.084 134.538C291.421 117.874 290.25 86.3263 268.758 78.5319C250.451 71.8923 233.04 92.5517 215.685 101.39C198.998 109.888 176.18 113.024 167.967 129.862C159.135 147.969 184.513 173.119 172.73 189.457C153.455 216.185 94.4813 207.135 88.822 239.607C84.1033 266.681 132.52 271.496 155.927 285.872C171.34 295.338 192.209 296.28 203.766 310.201C220.362 330.193 213.568 365.769 234.745 380.816C253.42 394.084 284.238 394.055 302.703 380.496C323.804 365.001 320.943 332.207 332.762 308.839C339.519 295.479 346.42 281.974 357.578 271.999C374.453 256.914 400.039 253.599 414.259 235.985C431.003 215.245 463.301 182.978 445.372 163.254C421.661 137.167 375.603 162.661 341.1 155.497C327.918 152.759 316.308 144.351 307.084 134.538Z" stroke="#6260FF" stroke-width="1.28384"/>
<path d="M307.911 132.346C291.904 115.315 290.706 83.0717 268.74 75.1054C250.029 68.3195 232.234 89.4344 214.497 98.4675C197.442 107.153 174.12 110.358 165.726 127.567C156.7 146.073 182.637 171.778 170.595 188.476C150.894 215.794 90.62 206.544 84.8358 239.732C80.0131 267.403 129.498 272.324 153.421 287.016C169.174 296.692 190.503 297.654 202.315 311.882C219.277 332.314 212.333 368.675 233.977 384.053C253.064 397.615 284.562 397.585 303.434 383.727C325 367.89 322.076 334.373 334.156 310.49C341.062 296.836 348.115 283.033 359.52 272.838C376.767 257.42 402.917 254.032 417.45 236.03C434.564 214.833 467.574 181.854 449.25 161.695C425.016 135.033 377.942 161.09 342.678 153.767C329.205 150.969 317.339 142.376 307.911 132.346Z" stroke="#6260FF" stroke-width="1.28384"/>
<path d="M308.739 130.154C292.386 112.756 291.163 79.8172 268.723 71.6791C249.608 64.7467 231.429 86.3171 213.309 95.5451C195.886 104.418 172.061 107.692 163.486 125.273C154.265 144.178 180.762 170.437 168.459 187.495C148.333 215.402 86.7587 205.953 80.8497 239.856C75.923 268.124 126.476 273.152 150.915 288.161C167.008 298.045 188.797 299.028 200.864 313.563C218.192 334.436 211.098 371.581 233.21 387.291C252.708 401.145 284.886 401.115 304.165 386.958C326.196 370.78 323.209 336.54 335.55 312.141C342.605 298.192 349.81 284.092 361.461 273.677C379.08 257.926 405.794 254.465 420.642 236.075C438.125 214.42 471.847 180.731 453.128 160.137C428.371 132.9 380.281 159.518 344.256 152.037C330.493 149.18 318.37 140.4 308.739 130.154Z" stroke="#6260FF" stroke-width="1.28384"/>
<path d="M309.566 127.962C292.867 110.196 291.618 76.562 268.704 68.252C249.185 61.1733 230.622 83.1991 212.119 92.622C194.328 101.682 170 105.026 161.244 122.977C151.828 142.282 178.885 169.095 166.323 186.514C145.772 215.01 82.8961 205.361 76.8624 239.981C71.8315 268.845 123.452 273.979 148.407 289.305C164.841 299.398 187.09 300.402 199.411 315.243C217.106 336.558 209.862 374.487 232.441 390.529C252.351 404.675 285.208 404.644 304.895 390.188C327.392 373.668 324.341 338.705 336.943 313.791C344.147 299.548 351.504 285.15 363.401 274.515C381.392 258.432 408.671 254.898 423.832 236.119C441.684 214.007 476.118 179.606 457.004 158.577C431.724 130.765 382.619 157.946 345.833 150.307C331.778 147.389 319.4 138.424 309.566 127.962Z" stroke="#6260FF" stroke-width="1.28384"/>
<path d="M310.395 125.77C293.35 107.638 292.076 73.3075 268.688 64.8257C248.765 57.6006 229.818 80.0819 210.932 89.6996C192.774 98.9472 167.942 102.36 159.005 120.683C149.394 140.386 177.01 167.754 164.188 185.533C143.212 214.618 79.0361 204.77 72.8775 240.105C67.7426 269.567 120.431 274.807 145.902 290.45C162.676 300.751 185.386 301.776 197.962 316.924C216.022 338.679 208.629 377.393 231.674 393.767C251.997 408.205 285.533 408.174 305.627 393.419C328.589 376.558 325.476 340.872 338.338 315.443C345.691 300.905 353.201 286.209 365.344 275.354C383.707 258.938 411.55 255.331 427.025 236.164C445.246 213.595 480.393 178.483 460.883 157.019C435.08 128.632 384.959 156.374 347.412 148.578C333.067 145.599 320.432 136.449 310.395 125.77Z" stroke="#6260FF" stroke-width="1.28384"/>
<path d="M311.221 123.579C293.831 105.078 292.531 70.0529 268.669 61.3992C248.343 54.0277 229.011 76.9645 209.743 86.7771C191.216 96.212 165.881 99.6936 156.763 118.388C146.958 138.491 175.134 166.413 162.052 184.552C140.65 214.227 75.1735 204.179 68.8901 240.23C63.6512 270.289 117.407 275.635 143.395 291.595C160.508 302.105 183.678 303.15 196.509 318.606C214.936 340.801 207.393 380.299 230.905 397.005C251.64 411.736 285.856 411.704 306.357 396.65C329.785 379.447 326.608 343.038 339.731 317.094C347.233 302.261 354.895 287.267 367.284 276.193C386.019 259.445 414.427 255.764 430.215 236.209C448.806 213.183 484.665 177.359 464.76 155.46C438.434 126.498 387.297 154.803 348.988 146.848C334.353 143.809 321.462 134.474 311.221 123.579Z" stroke="#6260FF" stroke-width="1.28384"/>
<path d="M312.049 121.384C294.314 102.516 292.987 66.7952 268.651 57.9697C247.921 50.4519 228.206 73.8441 208.555 83.8515C189.66 93.4738 163.822 97.0245 154.522 116.09C144.522 136.592 173.258 165.069 159.916 183.568C138.09 213.832 71.3123 203.585 64.904 240.352C59.561 271.007 114.385 276.46 140.889 292.736C158.342 303.455 181.973 304.521 195.058 320.284C213.851 342.92 206.158 383.203 230.137 400.239C251.284 415.263 286.18 415.231 307.088 399.878C330.981 382.333 327.741 345.201 341.125 318.742C348.776 303.615 356.59 288.323 369.225 277.028C388.333 259.948 417.304 256.194 433.406 236.251C452.366 212.767 488.938 176.232 468.637 153.899C441.788 124.361 389.636 153.228 350.566 145.115C335.64 142.016 322.493 132.495 312.049 121.384Z" stroke="#6260FF" stroke-width="1.28384"/>
<path d="M312.876 119.192C294.796 99.9567 293.444 63.5401 268.634 54.5428C247.5 46.8785 227.401 70.7263 207.367 80.9285C188.104 90.7382 161.763 94.358 152.282 113.795C142.087 134.696 171.382 163.727 157.781 182.587C135.529 213.44 67.451 202.993 60.9179 240.476C55.4708 271.728 111.363 277.287 138.383 293.881C156.176 304.808 180.267 305.895 193.607 321.964C212.766 345.041 204.923 386.108 229.37 403.477C250.928 418.793 286.503 418.76 307.819 403.108C332.178 385.222 328.875 347.367 342.519 320.392C350.319 304.971 358.285 289.381 371.166 277.867C390.647 260.453 420.182 256.627 436.598 236.295C455.927 212.354 493.211 175.108 472.515 152.34C445.143 122.227 391.975 151.656 352.144 143.385C336.927 140.226 323.524 130.519 312.876 119.192Z" stroke="#6260FF" stroke-width="1.28384"/>
<path d="M313.704 117C295.278 97.3976 293.9 60.2855 268.616 51.1163C247.078 43.3057 226.595 67.6089 206.179 78.006C186.548 88.003 159.703 91.692 150.041 111.5C139.652 132.8 169.507 162.386 155.645 181.606C132.968 213.048 63.5897 202.402 56.9318 240.601C51.3806 272.45 108.34 278.115 135.877 295.025C154.01 306.161 178.561 307.269 192.156 323.645C211.681 347.163 203.688 389.014 228.602 406.715C250.572 422.323 286.827 422.29 308.55 406.339C333.374 388.111 330.008 349.533 343.913 322.043C351.862 306.327 359.98 290.44 373.108 278.706C392.96 260.96 423.06 257.06 439.789 236.34C459.488 211.942 497.484 173.984 476.393 150.781C448.498 120.093 394.314 150.084 353.722 141.656C338.215 138.436 324.556 128.544 313.704 117Z" stroke="#6260FF" stroke-width="1.28384"/>
<path d="M314.532 114.808C295.76 94.8385 294.357 57.0309 268.599 47.6898C246.657 39.7329 225.79 64.4915 204.991 75.0835C184.991 85.2679 157.644 89.026 147.801 109.205C137.216 130.905 167.631 161.045 153.51 180.625C130.408 212.656 59.7284 201.811 52.9457 240.725C47.2904 273.172 105.318 278.942 133.371 296.17C151.844 307.515 176.855 308.643 190.705 325.326C210.596 349.285 202.453 391.921 227.834 409.953C250.216 425.854 287.151 425.819 309.281 409.57C334.57 391 331.142 351.699 345.307 323.694C353.405 307.684 361.676 291.499 375.049 279.544C395.274 261.466 425.938 257.493 442.981 236.385C463.049 211.53 501.757 172.86 480.27 149.222C451.853 117.959 396.652 148.512 355.3 139.926C339.502 136.646 325.587 126.569 314.532 114.808Z" stroke="#6260FF" stroke-width="1.28384"/>
<path d="M315.359 112.616C296.243 92.2794 294.813 53.7763 268.581 44.2634C246.236 36.16 224.985 61.3742 203.802 72.161C183.435 82.5327 155.584 86.36 145.56 106.91C134.781 129.009 165.755 159.704 151.374 179.644C127.847 212.265 55.8671 201.219 48.9596 240.85C43.2003 273.893 102.296 279.77 130.865 297.315C149.678 308.868 175.149 310.017 189.254 327.007C209.511 351.407 201.219 394.827 227.067 413.19C249.86 429.384 287.475 429.349 310.012 412.8C335.767 393.889 332.275 353.865 346.701 325.345C354.948 309.04 363.371 292.558 376.99 280.383C397.587 261.972 428.816 257.926 446.172 236.43C466.609 211.117 506.03 171.736 484.148 147.664C455.207 115.826 398.991 146.941 356.878 138.196C340.789 134.856 326.618 124.593 315.359 112.616Z" stroke="#6260FF" stroke-width="1.28384"/>
<path d="M316.187 110.424C296.725 89.7199 295.269 50.5212 268.563 40.8364C245.814 32.5867 224.179 58.2563 202.614 69.238C181.879 79.7971 153.525 83.6934 143.32 104.615C132.346 127.113 163.88 158.362 149.239 178.662C125.287 211.873 52.0058 200.628 44.9735 240.974C39.1101 274.614 99.2734 280.597 128.358 298.459C147.512 310.221 173.443 311.391 187.803 328.688C208.426 353.528 199.984 397.732 226.299 416.428C249.504 432.914 287.799 432.879 310.744 416.031C336.963 396.778 333.408 356.031 348.095 326.996C356.491 310.396 365.066 293.616 378.932 281.222C399.901 262.478 431.694 258.359 449.364 236.474C470.17 210.704 510.303 170.612 488.026 146.105C458.562 113.691 401.33 145.369 358.456 136.466C342.076 133.065 327.649 122.617 316.187 110.424Z" stroke="#6260FF" stroke-width="1.28384"/>
<path d="M317.015 108.233C297.207 87.1609 295.726 47.2667 268.546 37.4101C245.393 29.014 223.374 55.1391 201.426 66.3156C180.323 77.062 151.465 81.0275 141.079 102.32C129.91 125.218 162.004 157.021 147.103 177.682C122.726 211.481 48.1445 200.037 40.9873 241.099C35.0199 275.336 96.2511 281.425 125.852 299.604C145.345 311.574 171.737 312.765 186.352 330.369C207.341 355.65 198.749 400.639 225.531 419.666C249.148 436.445 288.123 436.408 311.475 419.262C338.16 399.667 334.542 358.197 349.489 328.647C358.034 311.753 366.761 294.675 380.873 282.061C402.214 262.984 434.571 258.792 452.555 236.519C473.731 210.292 514.576 169.489 491.903 144.546C461.917 111.558 403.669 143.797 360.034 134.737C343.363 131.275 328.68 120.642 317.015 108.233Z" stroke="#6260FF" stroke-width="1.28384"/>
<path d="M317.841 106.038C297.688 84.5987 296.181 44.009 268.527 33.9806C244.97 25.4381 222.567 52.0187 200.237 63.39C178.766 74.3238 149.405 78.3585 138.837 100.023C127.474 123.319 160.127 155.677 144.966 176.698C120.164 211.086 44.2819 199.442 37 241.221C30.9285 276.055 93.2275 282.25 123.345 300.745C143.178 312.925 170.03 314.136 184.9 332.047C206.255 357.769 197.513 403.542 224.762 422.901C248.791 439.972 288.445 439.935 312.204 422.489C339.355 402.554 335.674 360.361 350.882 330.295C359.576 313.106 368.455 295.73 382.813 282.896C404.526 263.488 437.448 259.222 455.745 236.561C477.29 209.877 518.848 168.362 495.78 142.984C465.27 109.421 406.007 142.222 361.611 133.004C344.649 129.482 329.71 118.664 317.841 106.038Z" stroke="#6260FF" stroke-width="1.28384"/>
<path d="M318.668 103.846C298.169 82.0392 296.636 40.7539 268.508 30.5537C244.548 21.8648 221.761 48.9008 199.047 60.467C177.208 71.5882 147.344 75.692 136.595 97.7273C125.037 121.423 158.25 154.335 142.83 175.716C117.602 210.694 40.4194 198.851 33.0126 241.345C26.837 276.776 90.2039 283.077 120.838 301.89C141.011 314.278 168.323 315.51 183.448 333.728C205.169 359.89 196.277 406.447 223.993 426.138C248.434 443.502 288.768 443.464 312.934 425.72C340.55 405.442 336.806 362.526 352.274 331.945C361.118 314.462 370.149 296.789 384.753 283.735C406.839 263.993 440.325 259.655 458.935 236.605C480.85 209.464 523.12 167.237 499.656 141.425C468.624 107.287 408.344 140.65 363.187 131.274C345.935 127.692 330.74 116.688 318.668 103.846Z" stroke="#6260FF" stroke-width="1.28384"/>
<path d="M319.495 101.654C298.651 79.4801 297.093 37.4993 268.491 27.1272C244.126 18.2919 220.955 45.7834 197.859 57.5445C175.652 68.853 145.285 73.0259 134.355 95.4325C122.602 119.527 156.375 152.994 140.694 174.735C115.042 210.303 36.5581 198.26 29.0265 241.47C22.7468 277.497 87.1816 283.905 118.332 303.034C138.844 315.631 166.617 316.884 181.997 335.409C204.084 362.012 195.042 409.353 223.225 429.376C248.078 447.032 289.092 446.994 313.665 428.95C341.747 408.331 337.939 364.693 353.668 333.596C362.661 315.819 371.845 297.847 386.695 284.573C409.152 264.5 443.202 260.088 462.127 236.65C484.411 209.051 527.393 166.114 503.534 139.867C471.978 105.153 410.683 139.078 364.765 129.544C347.222 125.902 331.771 114.713 319.495 101.654Z" stroke="#6260FF" stroke-width="1.28384"/>
<path d="M320.323 99.4621C299.134 76.921 297.549 34.2447 268.473 23.7007C243.705 14.7191 220.15 42.6661 196.671 54.622C174.096 66.1179 143.225 70.3599 132.114 93.1377C120.166 117.632 154.499 151.653 138.559 173.754C112.481 209.911 32.6968 197.668 25.0404 241.594C18.6567 278.219 84.1592 284.733 115.825 304.179C136.678 316.985 164.911 318.258 180.546 337.09C202.999 364.134 193.807 412.26 222.458 432.614C247.722 450.563 289.415 450.524 314.396 432.181C342.943 411.221 339.072 366.859 355.062 335.247C364.204 317.175 373.54 298.906 388.636 285.412C411.466 265.006 446.08 260.521 465.318 236.695C487.971 208.639 531.666 164.99 507.411 138.308C475.333 103.019 413.022 137.507 366.343 127.815C348.51 124.112 332.802 112.737 320.323 99.4621Z" stroke="#6260FF" stroke-width="1.28384"/>
<path d="M321.15 97.2705C299.615 74.362 298.004 30.9902 268.454 20.2744C243.282 11.1464 219.343 39.5488 195.482 51.6996C172.538 63.3828 141.165 67.694 129.873 90.8431C117.73 115.736 152.622 150.312 136.422 172.774C109.919 209.519 28.8342 197.077 21.053 241.719C14.5652 278.941 81.1356 285.561 113.318 305.324C134.511 318.338 163.204 319.633 179.094 338.771C201.913 366.256 192.571 415.166 221.689 435.852C247.365 454.093 289.738 454.054 315.126 435.412C344.138 414.11 340.205 369.025 356.455 336.899C365.745 318.532 375.234 299.965 390.576 286.251C413.778 265.512 448.957 260.955 468.509 236.74C491.531 208.227 535.938 163.866 511.288 136.75C478.687 100.886 415.36 135.935 367.92 126.085C349.796 122.322 333.832 110.762 321.15 97.2705Z" stroke="#6260FF" stroke-width="1.28384"/>
<path d="M321.978 95.0783C300.098 71.8024 298.462 27.7351 268.438 16.8475C242.862 7.57307 218.539 36.431 194.295 48.7766C170.984 60.6472 139.106 65.0275 127.633 88.5478C115.296 113.84 150.748 148.971 134.288 171.792C107.36 209.127 24.9742 196.486 17.0682 241.843C10.4763 279.662 78.1145 286.388 110.813 306.468C132.346 319.691 161.499 321.006 177.644 340.451C200.829 368.377 191.338 418.072 220.922 439.089C247.011 457.623 290.063 457.583 315.859 438.643C345.336 416.999 341.339 371.191 357.85 338.549C367.29 319.888 376.93 301.023 392.519 287.09C416.093 266.018 451.836 261.387 471.701 236.784C495.093 207.814 540.212 162.742 515.167 135.19C482.043 98.7515 417.7 134.363 369.499 124.355C351.084 120.531 334.864 108.786 321.978 95.0783Z" stroke="#6260FF" stroke-width="1.28384"/>
<path d="M322.805 92.8834C300.579 69.2402 298.917 24.4773 268.419 13.4178C242.44 3.99706 217.733 33.3104 193.106 45.8509C169.426 57.9089 137.046 62.3583 125.391 86.2498C112.859 111.941 148.871 147.626 132.151 170.808C104.798 208.732 21.1117 195.891 13.0808 241.965C6.38485 280.38 75.091 287.212 108.306 307.609C130.179 321.041 159.792 322.377 176.192 342.129C199.743 370.496 190.102 420.975 220.153 442.324C246.654 461.15 290.386 461.11 316.588 441.87C346.531 419.885 342.471 373.354 359.243 340.197C368.832 321.241 378.624 302.079 394.459 287.925C418.405 266.521 454.712 261.817 474.891 236.826C498.652 207.398 544.484 161.615 519.043 133.629C485.396 96.6145 420.038 132.788 371.076 122.622C352.37 118.738 335.894 106.808 322.805 92.8834Z" stroke="#6260FF" stroke-width="1.28384"/>
<path d="M323.633 90.6918C301.061 66.6812 299.373 21.2228 268.401 9.99151C242.018 0.424351 216.927 30.1932 191.917 42.9285C167.87 55.1738 134.986 59.6924 123.151 83.9551C110.424 110.046 146.995 146.285 130.015 169.827C102.237 208.341 17.2504 195.3 9.09468 242.09C2.29467 281.102 72.0686 288.04 105.8 308.754C128.012 322.395 158.086 323.751 174.741 343.81C198.658 372.618 188.867 423.881 219.385 445.562C246.298 464.681 290.709 464.64 317.319 445.101C347.728 422.774 343.605 375.52 360.637 341.848C370.375 322.598 380.32 303.138 396.4 288.764C420.719 267.027 457.59 262.251 478.083 236.871C502.213 206.986 548.757 160.491 522.921 132.07C488.751 94.4809 422.377 131.217 372.654 120.893C353.657 116.948 336.925 104.832 323.633 90.6918Z" stroke="#6260FF" stroke-width="1.28384"/>
<path d="M324.46 88.4995C301.544 64.1215 299.83 17.9676 268.384 6.56444C241.597 -3.1491 216.122 27.0752 190.729 40.0054C166.314 52.4381 132.927 57.0258 120.91 81.6597C107.988 108.15 145.12 144.943 127.88 168.846C99.6766 207.949 13.3891 194.708 5.10857 242.214C-1.79551 281.823 69.0463 288.868 103.294 309.898C125.846 323.747 156.381 325.125 173.29 345.491C197.573 374.739 187.632 426.786 218.618 448.799C245.942 468.211 291.033 468.169 318.051 448.331C348.924 425.663 344.738 377.686 362.031 343.499C371.918 323.954 382.015 304.196 398.342 289.602C423.032 267.533 460.468 262.683 481.274 236.915C505.774 206.573 553.03 159.367 526.799 130.511C492.106 92.3465 424.716 129.644 374.232 119.162C354.944 115.158 337.956 102.856 324.46 88.4995Z" stroke="#6260FF" stroke-width="1.28384"/>
</svg>
