<svg width="465" height="416" viewBox="0 0 465 416" fill="none" xmlns="http://www.w3.org/2000/svg">
<path fill-rule="evenodd" clip-rule="evenodd" d="M231.664 182.291C237.703 183.314 242.153 168.592 246.959 172.414C252.59 176.893 240.14 189.939 246.182 193.838C255.049 199.559 269.469 185.046 277.381 192.044C282.98 196.996 269.446 204.466 265.058 210.532C262.311 214.33 260.427 219.213 256.234 221.279C252.015 223.358 244.846 217.766 242.305 221.743C237.778 228.829 245.071 239.91 240.033 246.638C236.605 251.216 228.837 247.608 223.149 247.326C216.763 247.009 208.245 249.96 204.334 244.867C199.829 239.001 207.886 229.378 204.367 222.864C200.982 216.599 186.997 218.893 186.459 211.781C185.911 204.538 200.251 204.361 202.445 197.44C204.656 190.463 195.166 183.09 197.727 176.235C199.944 170.304 207.692 165.704 213.891 166.81C221.69 168.202 223.853 180.967 231.664 182.291Z" stroke="#6260FF" stroke-width="1.28384"/>
<path fill-rule="evenodd" clip-rule="evenodd" d="M227.982 79.7646C258.286 84.9023 280.619 10.9934 304.732 30.1796C332.99 52.6638 270.516 118.159 300.835 137.731C345.328 166.453 417.687 93.5964 457.39 128.725C485.489 153.586 417.572 191.088 395.556 221.538C381.768 240.609 372.314 265.122 351.275 275.493C330.106 285.928 294.129 257.856 281.38 277.822C258.663 313.396 295.259 369.025 269.98 402.801C252.778 425.784 213.798 407.668 185.256 406.252C153.209 404.662 110.465 419.479 90.842 393.911C68.2366 364.458 108.666 316.153 91.0052 283.45C74.0196 251.997 3.84188 263.513 1.14382 227.812C-1.60439 191.447 70.3508 190.561 81.3596 155.817C92.4574 120.792 44.8327 83.7742 57.686 49.3634C68.8091 19.5847 107.692 -3.50587 138.796 2.04694C177.932 9.0334 188.788 73.1197 227.982 79.7646Z" stroke="#6260FF" stroke-width="1.28384"/>
<path d="M248.092 169.625C242.908 165.502 238.107 181.385 231.593 180.28C223.166 178.853 220.833 165.081 212.419 163.579C205.732 162.386 197.373 167.348 194.982 173.747C192.219 181.142 202.457 189.097 200.071 196.624C197.705 204.09 182.235 204.281 182.826 212.095C183.406 219.768 198.493 217.293 202.145 224.052C205.942 231.08 197.25 241.46 202.11 247.79C206.328 253.284 215.518 250.1 222.407 250.442C228.543 250.746 236.923 254.639 240.621 249.7C246.056 242.442 238.188 230.487 243.072 222.842C245.813 218.552 253.547 224.585 258.098 222.342C262.621 220.113 264.654 214.846 267.618 210.747C272.351 204.204 286.952 196.144 280.911 190.802C272.376 183.253 256.82 198.91 247.255 192.737C240.736 188.531 254.167 174.457 248.092 169.625Z" stroke="#6260FF" stroke-width="1.28384"/>
<path d="M249.225 166.836C243.662 162.411 238.51 179.455 231.52 178.27C222.479 176.738 219.974 161.959 210.946 160.348C203.771 159.068 194.801 164.392 192.236 171.259C189.271 179.195 200.257 187.731 197.697 195.807C195.157 203.819 178.558 204.024 179.192 212.41C179.815 220.642 196.003 217.987 199.922 225.24C203.996 232.781 194.669 243.92 199.884 250.712C204.411 256.608 214.271 253.191 221.664 253.558C228.248 253.884 237.24 258.062 241.208 252.762C247.04 244.973 238.597 232.145 243.838 223.942C246.779 219.338 255.078 225.811 259.961 223.405C264.815 221.013 266.996 215.361 270.176 210.963C275.255 203.941 290.922 195.293 284.44 189.56C275.282 181.46 258.59 198.26 248.326 191.637C241.332 187.124 255.743 172.02 249.225 166.836Z" stroke="#6260FF" stroke-width="1.28384"/>
<path d="M250.358 164.047C244.417 159.321 238.915 177.525 231.449 176.259C221.792 174.623 219.117 158.838 209.475 157.117C201.811 155.75 192.231 161.437 189.49 168.772C186.324 177.247 198.058 186.364 195.323 194.991C192.611 203.549 174.882 203.767 175.559 212.724C176.224 221.517 193.515 218.68 197.7 226.427C202.051 234.482 192.09 246.38 197.66 253.634C202.494 259.931 213.026 256.282 220.922 256.674C227.954 257.022 237.558 261.484 241.796 255.824C248.024 247.505 239.008 233.803 244.605 225.041C247.746 220.124 256.61 227.038 261.826 224.468C267.009 221.913 269.339 215.876 272.736 211.178C278.16 203.678 294.894 194.442 287.971 188.318C278.189 179.666 260.361 197.611 249.398 190.537C241.928 185.716 257.321 169.584 250.358 164.047Z" stroke="#6260FF" stroke-width="1.28384"/>
<path d="M251.49 161.257C245.171 156.23 239.318 175.594 231.375 174.248C221.103 172.507 218.258 155.717 208.001 153.886C199.849 152.431 189.659 158.481 186.744 166.283C183.375 175.299 195.857 184.998 192.948 194.174C190.063 203.277 171.205 203.509 171.925 213.037C172.632 222.391 191.024 219.374 195.476 227.615C200.105 236.183 189.509 248.839 195.433 256.556C200.576 263.255 211.779 259.372 220.178 259.789C227.658 260.16 237.874 264.906 242.382 258.885C249.008 250.035 239.416 235.461 245.37 226.14C248.711 220.909 258.14 228.264 263.688 225.53C269.202 222.813 271.68 216.39 275.294 211.393C281.064 203.415 298.864 193.59 291.499 187.076C281.094 177.872 262.13 196.961 250.469 189.436C242.523 184.308 258.896 167.148 251.49 161.257Z" stroke="#6260FF" stroke-width="1.28384"/>
<path d="M252.625 158.468C245.926 153.14 239.723 173.665 231.305 172.238C220.417 170.392 217.402 152.595 206.53 150.655C197.89 149.113 187.089 155.525 183.999 163.795C180.429 173.351 193.658 183.631 190.575 193.358C187.517 203.006 167.529 203.253 168.293 213.351C169.042 223.266 188.536 220.068 193.255 228.802C198.161 237.884 186.93 251.299 193.209 259.478C198.661 266.578 210.534 262.463 219.436 262.905C227.365 263.298 238.193 268.329 242.971 261.947C249.993 252.567 239.827 237.119 246.138 227.239C249.679 221.695 259.673 229.491 265.554 226.593C271.398 223.713 274.024 216.905 277.854 211.609C283.97 203.153 302.836 192.738 295.031 185.834C284.002 176.079 263.902 196.312 251.542 188.335C243.12 182.9 260.474 164.712 252.625 158.468Z" stroke="#6260FF" stroke-width="1.28384"/>
<path d="M253.756 155.682C246.679 150.052 240.125 171.738 231.231 170.23C219.729 168.281 216.542 149.477 205.057 147.427C195.928 145.798 184.517 152.573 181.252 161.31C177.48 171.407 191.457 182.268 188.2 192.545C184.969 202.739 163.851 202.999 164.658 213.669C165.45 224.144 186.046 220.765 191.031 229.993C196.214 239.589 184.349 253.761 190.983 262.403C196.742 269.905 209.287 265.558 218.692 266.024C227.069 266.44 238.509 271.755 243.557 265.012C250.976 255.101 240.236 238.78 246.903 228.342C250.644 222.484 261.203 230.72 267.416 227.659C273.59 224.616 276.365 217.423 280.412 211.828C286.873 202.893 306.805 191.89 298.559 184.596C286.907 174.289 265.671 195.665 252.613 187.238C243.714 181.496 262.05 162.279 253.756 155.682Z" stroke="#6260FF" stroke-width="1.28384"/>
<path d="M254.888 152.892C247.432 146.962 240.528 169.808 231.158 168.22C219.04 166.166 215.683 146.356 203.583 144.196C193.966 142.48 181.944 149.617 178.505 158.822C174.531 169.459 189.256 180.901 185.825 191.728C182.421 202.468 160.174 202.742 161.023 213.982C161.857 225.018 183.555 221.458 188.807 231.181C194.267 241.289 181.767 256.221 188.756 265.325C194.824 273.228 208.039 268.648 217.948 269.14C226.773 269.578 238.825 275.177 244.143 268.073C251.959 257.633 240.644 240.437 247.668 229.441C251.61 223.269 262.733 231.947 269.278 228.721C275.783 225.515 278.706 217.938 282.969 212.043C289.776 202.631 310.775 191.038 302.088 183.354C289.812 172.495 267.44 195.016 253.683 186.138C244.309 180.088 263.625 159.842 254.888 152.892Z" stroke="#6260FF" stroke-width="1.28384"/>
<path d="M256.022 150.103C248.188 143.871 240.933 167.878 231.087 166.209C218.354 164.051 214.827 143.235 202.112 140.965C192.007 139.162 179.375 146.662 175.761 156.334C171.585 167.511 187.058 179.535 183.452 190.912C179.875 202.197 156.498 202.485 157.391 214.296C158.268 225.893 181.067 222.152 186.586 232.369C192.323 242.991 179.189 258.681 186.533 268.247C192.908 276.552 206.795 271.739 217.206 272.256C226.479 272.716 239.143 278.6 244.732 271.135C252.945 260.164 241.055 242.095 248.435 230.54C252.577 224.055 264.266 233.173 271.143 229.784C277.979 226.415 281.05 218.453 285.53 212.259C292.682 202.368 314.747 190.187 305.619 182.112C292.72 170.702 269.211 194.366 254.756 185.037C244.906 178.68 265.203 157.406 256.022 150.103Z" stroke="#6260FF" stroke-width="1.28384"/>
<path d="M257.154 147.314C248.942 140.781 241.335 165.948 231.014 164.198C217.665 161.936 213.968 140.114 200.639 137.735C190.045 135.844 176.802 143.706 173.014 153.846C168.636 165.564 184.857 178.169 181.077 190.095C177.327 201.926 152.821 202.228 153.757 214.611C154.676 226.767 178.577 222.846 184.362 233.556C190.377 244.692 176.607 261.14 184.306 271.17C190.99 279.876 205.548 274.83 216.463 275.372C226.183 275.854 239.46 282.023 245.318 274.197C253.928 262.695 241.464 243.753 249.201 231.64C253.543 224.841 265.796 234.4 273.006 230.847C280.172 227.315 283.391 218.968 288.088 212.474C295.586 202.105 318.717 189.336 309.147 180.87C295.625 168.908 270.981 193.717 255.827 183.937C245.501 177.272 266.779 154.97 257.154 147.314Z" stroke="#6260FF" stroke-width="1.28384"/>
<path d="M258.288 144.525C249.697 137.691 241.74 164.018 230.943 162.188C216.979 159.821 213.111 136.992 199.167 134.504C188.085 132.526 174.232 140.751 170.269 151.359C165.689 163.616 182.657 176.802 178.703 189.279C174.781 201.655 149.145 201.971 150.124 214.925C151.085 227.642 176.088 223.54 182.14 234.744C188.432 246.393 174.028 263.6 182.082 274.092C189.073 283.199 204.302 277.921 215.72 278.488C225.889 278.992 239.777 285.445 245.906 277.258C254.913 265.227 241.874 245.411 249.968 232.739C254.51 225.627 267.328 235.627 274.87 231.909C282.366 228.215 285.734 219.483 290.647 212.69C298.491 201.843 322.689 188.484 312.678 179.628C298.532 167.115 272.752 193.068 256.899 182.837C246.097 175.865 268.356 152.534 258.288 144.525Z" stroke="#6260FF" stroke-width="1.28384"/>
<path d="M259.419 141.736C250.45 134.6 242.142 162.088 230.87 160.177C216.29 157.706 212.252 133.871 197.694 131.273C186.123 129.208 171.659 137.795 167.522 148.871C162.741 161.669 180.456 175.436 176.328 188.462C172.233 201.384 145.467 201.714 146.489 215.239C147.493 228.517 173.598 224.234 179.916 235.932C186.486 248.094 171.447 266.06 179.855 277.014C187.155 286.523 203.055 281.012 214.976 281.604C225.593 282.131 240.093 288.868 246.492 280.32C255.896 267.758 242.282 247.069 250.733 233.838C255.475 226.413 268.858 236.853 276.733 232.972C284.559 229.115 288.076 219.998 293.205 212.905C301.394 201.58 326.658 187.633 316.206 178.387C301.437 165.322 274.521 192.418 257.97 181.736C246.692 174.457 269.931 150.098 259.419 141.736Z" stroke="#6260FF" stroke-width="1.28384"/>
<path d="M260.554 138.947C251.205 131.51 242.547 160.158 230.799 158.167C215.604 155.591 211.395 130.75 196.223 128.042C184.164 125.889 169.09 134.84 164.778 146.383C159.794 159.721 178.258 174.07 173.955 187.646C169.687 201.113 141.791 201.457 142.857 215.553C143.903 229.391 171.11 224.927 177.695 237.119C184.542 249.796 168.868 268.519 177.632 279.936C185.239 289.847 201.811 284.103 214.235 284.72C225.3 285.269 240.412 292.291 247.081 283.382C256.881 270.29 242.693 248.727 251.5 234.938C256.443 227.199 270.391 238.08 278.598 234.035C286.754 230.015 290.419 220.513 295.765 213.121C304.3 201.318 330.631 186.781 319.737 177.145C304.345 163.528 276.292 191.769 259.043 180.636C247.289 173.049 271.509 147.662 260.554 138.947Z" stroke="#6260FF" stroke-width="1.28384"/>
<path d="M261.685 136.157C251.959 128.419 242.95 158.228 230.726 156.156C214.915 153.476 210.536 127.629 194.749 124.811C182.202 122.571 166.517 131.884 162.03 143.895C156.846 157.773 176.057 172.703 171.58 186.83C167.139 200.843 138.114 201.2 139.222 215.867C140.31 230.266 168.619 225.621 175.471 238.307C182.595 251.497 166.286 270.979 175.405 282.858C183.321 293.17 200.563 287.194 213.491 287.836C225.004 288.407 240.728 295.713 247.667 286.444C257.864 272.821 243.102 250.385 252.265 236.037C257.408 227.984 271.921 239.306 280.46 235.098C288.947 230.915 292.761 221.028 298.323 213.336C307.204 201.055 334.6 185.93 323.266 175.903C307.25 161.735 278.062 191.119 260.114 179.535C247.883 171.642 273.084 145.226 261.685 136.157Z" stroke="#6260FF" stroke-width="1.28384"/>
<path d="M262.817 133.368C252.712 125.329 243.352 156.298 230.653 154.146C214.227 151.361 209.677 124.507 193.276 121.58C180.24 119.253 163.945 128.929 159.284 141.407C153.897 155.826 173.856 171.337 169.205 186.013C164.591 200.572 134.436 200.943 135.588 216.181C136.718 231.141 166.129 226.315 173.247 239.495C180.649 253.198 163.705 273.439 173.179 285.78C181.403 296.494 199.316 290.285 212.747 290.952C224.708 291.545 241.044 299.136 248.253 289.505C258.848 275.352 243.51 252.043 253.031 237.136C258.374 228.77 273.451 240.533 282.323 236.16C291.14 231.815 295.102 221.543 300.881 213.552C310.107 200.793 338.57 185.078 326.795 174.661C310.155 159.941 279.831 190.47 261.184 178.435C248.478 170.234 274.66 142.79 262.817 133.368Z" stroke="#6260FF" stroke-width="1.28384"/>
<path d="M263.951 130.579C253.467 122.238 243.757 154.368 230.582 152.135C213.541 149.246 208.82 121.386 191.805 118.349C178.281 115.935 161.375 125.973 156.539 138.919C150.951 153.878 171.657 169.971 166.832 185.197C162.046 200.301 130.76 200.686 131.955 216.495C133.128 232.015 163.641 227.009 171.026 240.682C178.704 254.899 161.126 275.899 170.955 288.703C179.487 299.817 198.071 293.376 212.005 294.067C224.415 294.683 241.363 302.558 248.842 292.567C259.833 277.884 243.921 253.701 253.798 238.235C259.341 229.556 274.984 241.76 284.188 237.223C293.335 232.715 297.446 222.058 303.441 213.768C313.013 200.53 342.542 184.227 330.325 173.419C313.063 158.148 281.602 189.821 262.257 177.335C249.075 168.826 276.238 140.354 263.951 130.579Z" stroke="#6260FF" stroke-width="1.28384"/>
<path d="M265.083 127.793C254.221 119.151 244.16 152.442 230.509 150.127C212.852 147.134 207.962 118.268 190.331 115.121C176.319 112.62 158.803 123.021 153.792 136.434C148.002 151.934 169.456 168.607 164.457 184.383C159.498 200.033 127.083 200.432 128.321 216.812C129.536 232.893 161.15 227.706 168.802 241.873C176.758 256.603 158.545 278.361 168.729 291.628C177.569 303.144 196.824 296.47 211.261 297.186C224.119 297.824 241.679 305.984 249.428 295.632C260.816 280.418 244.33 255.362 254.563 239.338C260.307 230.345 276.514 242.989 286.05 238.289C295.528 233.618 299.787 222.576 305.999 213.986C315.917 200.27 346.512 183.379 333.854 172.181C315.968 156.358 283.372 189.174 263.328 176.237C249.669 167.422 277.813 137.92 265.083 127.793Z" stroke="#6260FF" stroke-width="1.28384"/>
<path d="M266.217 125.004C254.976 116.061 244.564 150.512 230.437 148.117C212.165 145.02 207.104 115.147 188.86 111.89C174.359 109.302 156.233 120.065 151.047 133.946C145.055 149.986 167.257 167.241 162.083 183.567C156.951 199.762 123.407 200.175 124.688 217.126C125.946 233.768 158.662 228.4 166.58 243.061C174.813 258.305 155.966 280.821 166.504 294.55C175.652 306.468 195.579 299.561 210.519 300.302C223.825 300.963 241.997 309.407 250.016 298.694C261.801 282.95 244.74 257.02 255.33 240.437C261.274 231.131 278.046 244.216 287.915 239.352C297.723 234.518 302.13 223.091 308.558 214.202C318.822 200.008 350.484 182.527 337.384 170.939C318.875 154.564 285.143 188.525 264.4 175.137C250.266 166.014 279.391 135.484 266.217 125.004Z" stroke="#6260FF" stroke-width="1.28384"/>
<path d="M267.349 122.215C255.729 112.97 244.968 148.582 230.365 146.106C211.477 142.905 206.246 112.026 187.387 108.659C172.398 105.984 153.661 117.11 148.301 131.458C142.107 148.038 165.057 165.875 159.709 182.751C154.404 199.491 119.729 199.918 121.054 217.44C122.354 234.642 156.172 229.094 164.357 244.249C172.867 260.006 153.385 283.281 164.278 297.472C173.735 309.791 194.332 302.652 209.775 303.418C223.529 304.101 242.314 312.829 250.603 301.755C262.785 285.481 245.149 258.678 256.096 241.537C262.24 231.917 279.577 245.443 289.778 240.415C299.916 235.417 304.472 223.606 311.116 214.417C321.726 199.745 354.454 181.676 340.914 169.697C321.781 152.771 286.912 187.876 265.472 174.037C250.861 164.606 280.967 133.048 267.349 122.215Z" stroke="#6260FF" stroke-width="1.28384"/>
<path d="M268.483 119.425C256.484 109.879 245.372 146.651 230.293 144.095C210.791 140.789 205.389 108.904 185.915 105.428C170.438 102.665 151.09 114.154 145.556 128.97C139.16 146.09 162.858 164.508 157.335 181.934C151.858 199.22 116.053 199.661 117.421 217.754C118.763 235.516 153.683 229.787 162.135 245.436C170.923 261.706 150.806 285.74 162.054 300.394C171.818 313.115 193.087 305.743 209.033 306.534C223.235 307.238 242.631 316.251 251.191 304.817C263.77 288.012 245.559 260.335 256.863 242.635C263.207 232.702 281.109 246.669 291.642 241.477C302.111 236.317 306.815 224.121 313.676 214.632C324.631 199.482 358.425 180.824 344.444 168.455C324.688 150.977 288.683 187.226 266.544 172.936C251.457 163.198 282.544 130.612 268.483 119.425Z" stroke="#6260FF" stroke-width="1.28384"/>
<path d="M269.615 116.636C257.238 106.789 245.774 144.721 230.22 142.085C210.102 138.674 204.53 105.783 184.442 102.197C168.476 99.3472 148.518 111.198 142.809 126.482C136.211 144.143 160.656 163.141 154.96 181.117C149.309 198.949 112.376 199.404 113.786 218.068C115.171 236.391 151.193 230.481 159.911 246.624C168.976 263.408 148.224 288.2 159.827 303.316C169.9 316.438 191.84 308.834 208.289 309.65C222.939 310.377 242.947 319.674 251.777 307.878C264.752 290.543 245.968 261.993 257.628 243.735C264.172 233.488 282.639 247.895 293.505 242.54C304.304 237.217 309.156 224.636 316.234 214.848C327.534 199.22 362.395 179.972 347.973 167.213C327.593 149.184 290.452 186.576 267.614 171.835C252.052 161.79 284.119 128.175 269.615 116.636Z" stroke="#6260FF" stroke-width="1.28384"/>
<path d="M270.749 113.847C257.993 103.698 246.18 142.791 230.149 140.074C209.416 136.559 203.673 102.661 182.971 98.9661C166.517 96.029 145.948 108.243 140.064 123.994C133.265 142.195 158.458 161.775 152.587 180.301C146.764 198.678 108.7 199.147 110.154 218.382C111.581 237.266 148.705 231.174 157.69 247.811C167.032 265.109 145.645 290.659 157.603 306.238C167.984 319.762 190.595 311.924 207.548 312.766C222.646 313.515 243.266 323.097 252.366 310.94C265.738 293.075 246.379 263.651 258.396 244.834C265.14 234.274 284.171 249.122 295.37 243.602C306.499 238.117 311.5 225.151 318.794 215.063C330.44 198.957 366.367 179.121 351.504 165.971C330.501 147.39 292.224 185.927 268.688 170.735C252.649 160.382 285.697 125.739 270.749 113.847Z" stroke="#6260FF" stroke-width="1.28384"/>
<path d="M271.881 111.057C258.747 100.608 246.582 140.862 230.076 138.063C208.727 134.444 202.814 99.5403 181.497 95.7352C164.555 92.7109 143.376 105.287 137.318 121.506C130.316 140.247 156.257 160.408 150.212 179.484C144.216 198.407 105.023 198.89 106.52 218.696C107.989 238.14 146.214 231.868 155.466 248.999C165.086 266.81 143.064 293.119 155.377 309.16C166.066 323.085 189.348 315.015 206.804 315.882C222.35 316.653 243.582 326.519 252.952 314.002C266.721 295.606 246.787 265.309 259.161 245.933C266.105 235.059 285.702 250.348 297.232 244.665C308.692 239.016 313.841 225.666 321.352 215.279C333.344 198.694 370.337 178.269 355.032 164.729C333.406 145.597 293.993 185.277 269.758 169.634C253.244 158.975 287.273 123.303 271.881 111.057Z" stroke="#6260FF" stroke-width="1.28384"/>
<path d="M273.013 108.268C259.5 97.5174 246.985 138.932 230.003 136.053C208.039 132.329 201.955 96.4191 180.024 92.5043C162.593 89.3928 140.804 102.331 134.57 119.018C127.368 138.3 154.056 159.042 147.837 178.668C141.668 198.137 101.345 198.633 102.885 219.01C104.397 239.015 143.724 232.562 153.242 250.187C163.139 268.511 140.483 295.579 153.151 312.082C164.147 326.409 188.101 318.106 206.06 318.998C222.054 319.791 243.898 329.942 253.538 317.064C267.704 298.138 247.196 266.967 259.926 247.033C267.071 235.845 287.232 251.575 299.095 245.728C310.885 239.916 316.183 226.181 323.909 215.495C336.247 198.432 374.307 177.418 358.561 163.487C336.311 143.803 295.762 184.628 270.829 168.534C253.838 157.567 288.848 120.867 273.013 108.268Z" stroke="#6260FF" stroke-width="1.28384"/>
<path d="M274.147 105.479C260.255 94.427 247.39 137.002 229.932 134.042C207.353 130.214 201.099 93.2979 178.553 89.2734C160.634 86.0748 138.234 99.376 131.826 116.53C124.421 136.352 151.858 157.676 145.464 177.852C139.122 197.866 97.6695 198.376 99.2527 219.324C100.807 239.89 141.236 233.256 151.021 251.374C161.195 270.213 137.904 298.038 150.927 315.005C162.232 329.733 186.856 321.197 205.318 322.113C221.761 322.929 244.217 333.365 254.127 320.125C268.69 300.669 247.607 268.625 260.694 248.132C268.038 236.631 288.765 252.802 300.96 246.791C313.08 240.816 318.526 226.696 326.47 215.71C339.153 198.169 378.279 176.567 362.092 162.246C339.219 142.01 297.534 183.979 271.902 167.434C254.435 156.159 290.426 118.431 274.147 105.479Z" stroke="#6260FF" stroke-width="1.28384"/>
<path d="M275.279 102.69C261.009 91.3365 247.792 135.072 229.859 132.032C206.664 128.099 200.239 90.1766 177.079 86.0424C158.672 82.7566 135.662 96.4204 129.079 114.042C121.473 134.404 149.656 156.309 143.089 177.035C136.574 197.595 93.9915 198.119 95.6179 219.638C97.2146 240.764 138.745 233.95 148.797 252.562C159.248 271.914 135.323 300.498 148.7 317.927C160.313 333.056 185.609 324.288 204.574 325.229C221.465 326.067 244.533 336.787 254.713 323.187C269.673 303.2 248.015 270.282 261.459 249.231C269.004 237.417 290.295 254.028 302.822 247.853C315.273 241.716 320.868 227.211 329.027 215.926C342.056 197.907 382.249 175.715 365.62 161.004C342.124 140.217 299.303 183.329 272.972 166.333C255.03 154.752 292.002 115.995 275.279 102.69Z" stroke="#6260FF" stroke-width="1.28384"/>
<path d="M276.412 99.9038C261.764 88.2492 248.197 133.145 229.787 130.024C205.977 125.988 199.382 87.0586 175.608 82.8147C156.712 79.4417 133.091 93.468 126.334 111.557C118.526 132.46 147.457 154.946 140.715 176.222C134.028 197.327 90.3155 197.865 91.9851 219.955C93.6241 241.642 136.256 234.647 146.575 253.753C157.304 273.618 132.743 302.961 146.476 320.852C158.397 336.383 184.363 327.382 203.832 328.348C221.171 329.209 244.851 340.213 255.301 326.252C270.658 305.735 248.425 271.943 262.226 250.334C269.971 238.206 291.827 255.258 304.687 248.919C317.467 242.619 323.211 227.729 331.587 216.144C344.962 197.647 386.22 174.867 369.151 159.765C345.031 138.426 301.074 182.683 274.045 165.236C255.626 153.347 293.579 113.562 276.412 99.9038Z" stroke="#6260FF" stroke-width="1.28384"/>
<path d="M277.544 97.1146C262.517 85.1587 248.599 131.215 229.714 128.014C205.289 123.873 198.523 83.9373 174.134 79.5837C154.75 76.1235 130.519 90.5124 123.587 109.069C115.577 130.512 145.256 153.58 138.34 175.405C131.48 197.056 86.6379 197.608 88.3505 220.269C90.0319 242.517 133.766 235.34 144.351 254.94C155.357 275.319 130.162 305.42 144.25 323.774C156.479 339.707 183.116 330.473 203.088 331.464C220.875 332.347 245.167 343.636 255.887 329.314C271.641 308.266 248.834 273.601 262.991 251.433C270.936 238.992 293.357 256.485 306.549 249.982C319.66 243.519 325.552 228.244 334.145 216.36C347.865 197.385 390.19 174.015 372.68 158.523C347.937 136.633 302.843 182.033 275.116 164.136C256.221 151.939 295.154 111.126 277.544 97.1146Z" stroke="#6260FF" stroke-width="1.28384"/>
<path d="M278.678 94.3254C263.272 82.0683 249.004 129.285 229.643 126.003C204.603 121.758 197.667 80.8161 172.663 76.3528C152.791 72.8054 127.949 87.5569 120.843 106.581C112.631 128.565 143.058 152.213 135.967 174.589C128.934 196.785 82.9624 197.351 84.7182 220.583C86.4419 243.391 131.278 236.034 142.13 256.128C153.413 277.02 127.583 307.88 142.026 326.696C154.563 343.03 181.871 333.564 202.346 334.58C220.581 335.485 245.485 347.058 256.475 332.375C272.626 310.798 249.245 275.259 263.759 252.532C271.904 239.777 294.889 257.711 308.414 251.045C321.856 244.419 327.896 228.759 336.705 216.575C350.771 197.122 394.162 173.164 376.21 157.281C350.844 134.839 304.615 181.384 276.189 163.035C256.818 150.532 296.732 108.69 278.678 94.3254Z" stroke="#6260FF" stroke-width="1.28384"/>
<path d="M279.81 91.5363C264.026 78.9779 249.407 127.355 229.57 123.992C203.914 119.643 196.808 77.6949 171.19 73.1219C150.829 69.4873 125.377 84.6014 118.096 104.093C109.682 126.617 140.857 150.847 133.592 173.773C126.386 196.514 79.2847 197.095 81.0836 220.897C82.8498 244.266 128.788 236.728 139.906 257.316C151.467 278.722 125.002 310.34 139.799 329.618C152.645 346.354 180.624 336.655 201.602 337.696C220.286 338.623 245.802 350.481 257.062 335.437C273.609 313.329 249.653 276.917 264.524 253.632C272.869 240.563 296.42 258.938 310.277 252.107C324.049 245.319 330.237 229.274 339.263 216.791C353.674 196.859 398.132 172.312 379.739 156.04C353.75 133.046 306.384 180.735 277.259 161.935C257.412 149.124 298.308 106.253 279.81 91.5363Z" stroke="#6260FF" stroke-width="1.28384"/>
<path d="M280.944 88.7471C264.781 75.8875 249.812 125.425 229.499 121.982C203.228 117.528 195.951 74.5738 169.719 69.891C148.869 66.1692 122.807 81.6459 115.351 101.605C106.736 124.669 138.658 149.481 131.219 172.956C123.84 196.244 75.6092 196.838 77.4513 221.212C79.2598 245.141 126.299 237.422 137.685 258.504C149.522 280.423 122.423 312.799 137.575 332.54C150.729 349.677 179.38 339.746 200.86 340.812C219.992 341.762 246.12 353.903 257.65 338.499C274.595 315.86 250.064 278.575 265.291 254.731C273.837 241.349 297.952 260.165 312.142 253.17C326.244 246.219 332.581 229.789 341.823 217.007C356.58 196.597 402.104 171.461 383.27 154.798C356.657 131.253 308.156 180.085 278.332 160.834C258.009 147.716 299.885 103.817 280.944 88.7471Z" stroke="#6260FF" stroke-width="1.28384"/>
<path d="M282.076 85.9579C265.535 72.7969 250.214 123.495 229.426 119.971C202.539 115.413 195.092 71.4525 168.245 66.66C146.908 62.851 120.235 78.6902 112.604 99.1172C103.787 122.722 136.457 148.114 128.844 172.14C121.292 195.973 71.9315 196.581 73.8168 221.525C75.6676 246.015 123.809 238.116 135.461 259.691C147.576 282.124 119.842 315.259 135.349 335.463C148.811 353.001 178.133 342.837 200.117 343.928C219.696 344.9 246.436 357.326 258.236 341.561C275.578 318.392 250.473 280.233 266.057 255.83C274.802 242.135 299.482 261.391 314.004 254.233C328.437 247.119 334.922 230.304 344.381 217.222C359.484 196.334 406.074 170.609 386.799 153.556C359.562 129.459 309.925 179.436 279.403 159.734C258.604 146.308 301.461 101.381 282.076 85.9579Z" stroke="#6260FF" stroke-width="1.28384"/>
<path d="M283.21 83.1682C266.29 69.706 250.619 121.565 229.355 117.96C201.853 113.298 194.235 68.3308 166.774 63.4287C144.948 59.5325 117.664 75.7342 109.859 96.6288C100.84 120.773 134.258 146.747 126.471 171.323C118.746 195.701 68.2555 196.323 70.1839 221.839C72.0771 246.889 121.32 238.809 133.239 260.878C145.631 283.825 117.262 317.718 133.125 338.384C146.894 356.324 176.887 345.928 199.374 347.043C219.402 348.037 246.754 360.748 258.824 344.622C276.563 320.923 250.883 281.89 266.823 256.929C275.769 242.92 301.014 262.617 315.869 255.295C330.631 248.018 337.265 230.818 346.94 217.437C362.389 196.071 410.045 169.757 390.329 152.314C362.47 127.665 311.696 178.786 280.475 158.633C259.2 144.9 303.038 98.9445 283.21 83.1682Z" stroke="#6260FF" stroke-width="1.28384"/>
<path d="M284.341 80.3791C267.043 66.6156 251.021 119.635 229.282 115.95C201.164 111.183 193.376 65.2096 165.3 60.1978C142.986 56.2144 115.092 72.7787 107.112 94.1409C97.8913 118.826 132.057 145.381 124.095 170.506C116.198 195.43 64.5776 196.066 66.5492 222.153C68.4847 247.764 118.83 239.503 131.015 262.066C143.685 285.526 114.681 320.178 130.898 341.306C144.976 359.648 175.64 349.019 198.63 350.159C219.106 351.176 247.07 364.171 259.41 347.684C277.546 323.454 251.291 283.548 267.588 258.028C276.735 243.706 302.544 263.844 317.731 256.358C332.824 248.918 339.606 231.333 349.498 217.653C365.292 195.809 414.015 168.906 393.858 151.072C365.375 125.872 313.465 178.137 281.546 157.533C259.795 143.493 304.614 96.5084 284.341 80.3791Z" stroke="#6260FF" stroke-width="1.28384"/>
<path d="M285.476 77.5899C267.798 63.5252 251.426 117.705 229.211 113.939C200.478 109.068 192.519 62.0884 163.829 56.9669C141.027 52.8963 112.522 69.8232 104.368 91.653C94.9451 116.878 129.858 144.014 121.723 169.69C113.652 195.16 60.9024 195.809 62.9171 222.467C64.895 248.639 116.342 240.197 128.794 263.254C141.741 287.227 112.102 322.638 128.674 344.229C143.06 362.971 174.395 352.11 197.889 353.275C218.813 354.314 247.389 367.593 259.999 350.745C278.531 325.985 251.702 285.206 268.356 259.128C277.703 244.492 304.077 265.07 319.596 257.421C335.019 249.818 341.95 231.848 352.058 217.868C368.198 195.546 417.987 168.055 397.389 149.83C368.282 124.079 315.237 177.487 282.619 156.432C260.392 142.085 306.192 94.0723 285.476 77.5899Z" stroke="#6260FF" stroke-width="1.28384"/>
<path d="M286.608 74.8007C268.552 60.4347 251.829 115.775 229.138 111.928C199.79 106.953 191.66 58.9671 162.356 53.7359C139.065 49.5781 109.95 66.8676 101.621 89.1649C91.9965 114.931 127.658 142.648 119.348 168.874C111.104 194.889 57.2247 195.552 59.2825 222.781C61.3028 249.513 113.851 240.89 126.57 264.441C139.794 288.928 109.521 325.097 126.448 347.151C141.142 366.295 173.148 355.2 197.145 356.391C218.517 357.452 247.705 371.016 260.585 353.807C279.515 328.517 252.111 286.864 269.121 260.227C278.668 245.278 305.607 266.297 321.459 258.483C337.212 250.718 344.291 232.363 354.616 218.084C371.102 195.283 421.957 167.203 400.917 148.588C371.188 122.285 317.006 176.838 283.69 155.332C260.987 140.677 307.767 91.6361 286.608 74.8007Z" stroke="#6260FF" stroke-width="1.28384"/>
<path d="M287.739 72.0146C269.305 57.3473 252.232 113.848 229.065 109.921C199.101 104.841 190.801 55.849 160.882 50.508C137.103 46.2631 107.377 63.9151 98.8739 86.6801C89.0477 112.986 125.456 141.285 116.972 168.06C108.556 194.621 53.5467 195.298 55.6477 223.098C57.7104 250.391 111.361 241.587 124.346 265.632C137.848 290.632 106.94 327.56 124.222 350.076C139.223 369.622 171.901 358.295 196.401 359.51C218.221 360.593 248.021 374.442 261.172 356.872C280.498 331.051 252.519 288.525 269.886 261.329C279.633 246.067 307.137 267.527 323.321 259.549C339.405 251.621 346.633 232.881 357.174 218.302C374.005 195.024 425.927 166.355 404.446 147.35C374.093 120.495 318.775 176.191 284.76 154.235C261.581 139.272 309.343 89.2031 287.739 72.0146Z" stroke="#6260FF" stroke-width="1.28384"/>
<path d="M288.874 69.2256C270.061 54.2571 252.637 111.919 228.994 107.91C198.415 102.726 189.945 52.7279 159.411 47.2773C135.144 42.9451 104.808 60.9598 96.1296 84.1923C86.1015 111.039 123.258 139.918 114.6 167.244C106.011 194.35 49.8715 195.042 52.0156 223.413C54.1206 251.266 108.873 242.281 122.125 266.82C135.904 292.334 104.361 330.02 121.998 352.998C137.308 372.945 170.656 361.386 195.659 362.626C217.927 363.731 248.34 377.864 261.76 359.934C281.483 333.583 252.93 290.183 270.654 262.429C280.601 246.853 308.67 268.753 325.186 260.612C341.601 252.521 348.976 233.397 359.734 218.518C376.911 194.761 429.899 165.503 407.977 146.108C377.001 118.702 320.547 175.542 285.833 153.134C262.178 137.865 310.921 86.7671 288.874 69.2256Z" stroke="#6260FF" stroke-width="1.28384"/>
<path d="M290.005 66.4363C270.814 51.1665 253.039 109.989 228.921 105.9C197.726 100.611 189.086 49.6066 157.938 44.0463C133.182 39.6269 102.235 58.0041 93.3825 81.7042C83.1527 109.091 121.057 138.552 112.224 166.427C103.462 194.079 46.1936 194.785 48.3809 223.727C50.5282 252.14 106.382 242.975 119.901 268.008C133.957 294.035 101.78 332.479 119.771 355.92C135.389 376.269 169.409 364.477 194.915 365.742C217.631 366.869 248.656 381.287 262.346 362.995C282.466 336.114 253.339 291.841 271.419 263.528C281.566 247.638 310.2 269.98 327.049 261.675C343.793 253.421 351.318 233.911 362.292 218.734C379.814 194.499 433.869 164.652 411.505 144.866C379.906 116.908 322.316 174.893 286.904 152.034C262.773 136.457 312.496 84.3309 290.005 66.4363Z" stroke="#6260FF" stroke-width="1.28384"/>
<path d="M291.138 63.6471C271.568 48.0761 253.443 108.059 228.849 103.889C197.039 98.4963 188.228 46.4854 156.466 40.8154C131.221 36.3089 99.6644 55.0486 90.6369 79.2163C80.2053 107.143 118.857 137.186 109.85 165.611C100.916 193.808 42.5171 194.528 44.7475 224.041C46.9373 253.015 103.893 243.669 117.679 269.195C132.012 295.736 99.1997 334.939 117.546 358.843C133.472 379.593 168.163 367.568 194.172 368.858C217.337 370.008 248.973 384.71 262.934 366.057C283.45 338.646 253.749 293.499 272.186 264.627C282.533 248.424 311.732 271.207 328.913 262.737C345.987 254.321 353.66 234.427 364.851 218.949C382.719 194.236 437.84 163.801 415.035 143.624C382.812 115.115 324.086 174.243 287.976 150.934C263.369 135.049 314.073 81.8948 291.138 63.6471Z" stroke="#6260FF" stroke-width="1.28384"/>
<path d="M292.271 60.858C272.322 44.9857 253.847 106.129 228.777 101.879C196.351 96.3814 187.37 43.3642 154.993 37.5845C129.26 32.9908 97.0932 52.0931 87.8911 76.7284C77.2576 105.196 116.657 135.819 107.476 164.795C98.3686 193.538 38.8404 194.271 41.114 224.355C43.3461 253.89 101.404 244.363 115.456 270.383C130.066 297.437 96.6195 337.399 115.321 361.765C131.555 382.916 166.917 370.659 193.429 371.974C217.042 373.146 249.29 388.132 263.521 369.119C284.435 341.177 254.158 295.157 272.952 265.727C283.499 249.21 313.263 272.433 330.776 263.8C348.181 255.221 356.002 234.942 367.41 219.165C385.624 193.974 441.81 162.949 418.565 142.382C385.719 113.321 325.856 173.594 289.047 149.833C263.964 133.642 315.649 79.4587 292.271 60.858Z" stroke="#6260FF" stroke-width="1.28384"/>
<path d="M293.404 58.0688C273.076 41.8953 254.25 104.199 228.704 99.868C195.663 94.2665 186.512 40.243 153.521 34.3536C127.299 29.6727 94.5215 49.1376 85.1448 74.2404C74.3095 103.248 114.457 134.453 105.102 163.978C95.8212 193.267 35.1632 194.014 37.4799 224.669C39.7544 254.764 98.9139 245.056 113.233 271.571C128.12 299.139 94.0389 339.858 113.095 364.687C129.638 386.24 165.67 373.749 192.686 375.09C216.747 376.284 249.607 391.555 264.108 372.181C285.418 343.708 254.567 296.815 273.718 266.826C284.465 249.996 314.794 273.66 332.639 264.863C350.375 256.12 358.344 235.457 369.968 219.38C388.528 193.711 445.781 162.098 422.094 141.141C388.624 111.528 327.626 172.945 290.119 148.733C264.56 132.234 317.225 77.0226 293.404 58.0688Z" stroke="#6260FF" stroke-width="1.28384"/>
<path d="M294.537 55.2796C273.831 38.8048 254.654 102.269 228.632 97.8573C194.976 92.1514 185.654 37.1217 152.048 31.1226C125.339 26.3545 91.9506 46.182 82.3992 71.7524C71.3621 101.3 112.257 133.086 102.728 163.162C93.2744 192.996 31.4867 193.757 33.8466 224.983C36.1634 255.639 96.4248 245.75 111.01 272.759C126.175 300.84 91.459 342.318 110.87 367.609C127.721 389.563 164.425 376.84 191.943 378.206C216.452 379.422 249.924 394.977 264.695 375.242C286.403 346.24 254.977 298.473 274.484 267.925C285.432 250.782 316.325 274.886 334.503 265.926C352.569 257.02 360.687 235.972 372.527 219.596C391.432 193.448 449.752 161.246 425.624 139.899C391.531 109.734 329.397 172.295 291.191 147.632C265.156 130.826 318.802 74.5863 294.537 55.2796Z" stroke="#6260FF" stroke-width="1.28384"/>
<path d="M295.67 52.4904C274.585 35.7144 255.057 100.339 228.56 95.8468C194.289 90.0365 184.796 34.0006 150.576 27.8917C123.378 23.0364 89.3794 43.2265 79.6534 69.2645C68.4145 99.3527 110.057 131.72 100.353 162.345C90.7274 192.725 27.81 193.5 30.213 225.297C32.5722 256.514 93.9354 246.444 108.788 273.946C124.23 302.541 88.8788 344.778 108.645 370.531C125.804 392.887 163.179 379.931 191.2 381.322C216.157 382.56 250.242 398.4 265.283 378.304C287.387 348.771 255.387 300.13 275.25 269.025C286.398 251.567 317.856 276.113 336.367 266.988C354.763 257.92 363.029 236.487 375.086 219.811C394.337 193.186 453.723 160.395 429.154 138.657C394.437 107.941 331.167 171.646 292.262 146.532C265.751 129.418 320.379 72.1502 295.67 52.4904Z" stroke="#6260FF" stroke-width="1.28384"/>
<path d="M296.803 49.7013C275.34 32.6239 255.461 98.4092 228.488 93.8362C193.601 87.9216 183.938 30.8794 149.104 24.6608C121.418 19.7184 86.8084 40.271 76.9078 66.7766C65.4671 97.4051 107.858 130.354 97.9796 161.529C88.1807 192.454 24.1336 193.243 26.5797 225.611C28.9813 257.388 91.4463 247.138 106.565 275.134C122.285 304.242 86.2988 347.238 106.42 373.453C123.887 396.211 161.933 383.022 190.458 384.438C215.863 385.699 250.559 401.823 265.87 381.366C288.371 351.302 255.797 301.788 276.017 270.124C287.365 252.353 319.388 277.34 338.231 268.051C356.957 258.82 365.372 237.002 377.645 220.027C397.242 192.923 457.694 159.543 432.684 137.415C397.344 106.148 332.938 170.996 293.334 145.432C266.347 128.011 321.955 69.7141 296.803 49.7013Z" stroke="#6260FF" stroke-width="1.28384"/>
<path d="M297.936 46.9115C276.094 29.5329 255.865 96.4787 228.416 91.825C192.914 85.8061 183.08 27.7576 147.632 21.4293C119.457 16.3997 84.2372 37.3148 74.162 64.288C62.5195 95.4569 105.658 128.987 95.6054 160.712C85.6337 192.183 20.4568 192.985 22.9462 225.924C25.3901 258.262 88.9569 247.831 104.342 276.321C120.339 305.943 83.7186 349.697 104.195 376.375C121.969 399.534 160.687 386.113 189.715 387.553C215.568 388.836 250.876 405.245 266.457 384.427C289.355 353.833 256.206 303.446 276.783 271.223C288.331 253.138 320.919 278.566 340.094 269.113C359.151 259.719 367.714 237.516 380.204 220.242C400.146 192.66 461.665 158.691 436.213 136.173C400.25 104.354 334.708 170.346 294.406 144.331C266.943 126.602 323.532 67.2774 297.936 46.9115Z" stroke="#6260FF" stroke-width="1.28384"/>
<path d="M299.069 44.126C276.849 26.4462 256.269 94.5525 228.344 89.8182C192.227 83.6949 182.223 24.6401 146.159 18.2021C117.496 13.0852 81.6663 34.363 71.4164 61.8038C59.5721 93.5129 103.458 127.624 93.2315 159.899C83.087 191.915 16.7804 192.732 19.3128 226.242C21.7991 259.141 86.4677 248.529 102.12 277.512C118.394 307.648 81.1387 352.16 101.97 379.301C120.052 402.861 159.441 389.207 188.972 390.673C215.273 391.978 251.194 408.671 267.045 387.492C290.34 356.368 256.616 305.107 277.55 272.326C289.298 253.928 322.451 279.796 341.958 270.18C361.345 260.623 370.057 238.035 382.763 220.461C403.051 192.401 465.636 157.844 439.743 134.935C403.157 102.564 336.478 169.701 295.478 143.234C267.539 125.198 325.109 64.845 299.069 44.126Z" stroke="#6260FF" stroke-width="1.28384"/>
<path d="M300.2 41.3363C277.602 23.3552 256.671 92.622 228.271 87.807C191.538 81.5794 181.364 21.5183 144.686 14.9706C115.534 9.76656 79.0939 31.4069 68.6693 59.3153C56.6233 91.5647 101.257 126.257 90.8562 159.082C80.5388 191.644 13.1024 192.475 15.6781 226.556C18.2067 260.015 83.9771 249.222 99.896 278.7C116.447 309.348 78.5573 354.619 99.7431 382.222C118.134 406.184 158.193 392.298 188.228 393.788C214.977 395.116 251.51 412.093 267.631 390.554C291.323 358.899 257.024 306.765 278.315 273.424C290.263 254.713 323.981 281.022 343.821 271.242C363.538 261.522 372.398 238.549 385.321 220.676C405.954 192.138 469.605 156.992 443.272 133.692C406.062 100.77 338.247 169.051 296.548 142.133C268.133 123.79 326.684 62.4083 300.2 41.3363Z" stroke="#6260FF" stroke-width="1.28384"/>
<path d="M301.334 38.5471C278.356 20.2648 257.075 90.6921 228.199 85.7964C190.851 79.4645 180.506 18.3971 143.214 11.7397C113.574 6.44848 76.5229 28.4514 65.9237 56.8273C53.6759 89.6171 99.0574 124.891 88.4823 158.266C77.992 191.373 9.42598 192.218 12.0447 226.87C14.6157 260.889 81.488 249.916 97.6736 279.887C114.502 311.049 75.9774 357.079 97.518 385.144C116.217 409.508 156.948 395.389 187.485 396.904C214.683 398.254 251.827 415.516 268.218 393.615C292.307 361.431 257.434 308.423 279.081 274.524C291.23 255.499 325.512 282.249 345.684 272.305C365.732 262.422 374.741 239.064 387.88 220.892C408.859 191.875 473.576 156.14 446.802 132.451C408.968 98.9767 340.018 168.401 297.62 141.033C268.729 122.383 328.261 59.9722 301.334 38.5471Z" stroke="#6260FF" stroke-width="1.28384"/>
<path d="M302.466 35.758C279.11 17.1743 257.478 88.7622 228.126 83.7859C190.163 77.3496 179.648 15.2759 141.741 8.50884C111.613 3.13041 73.9512 25.4959 63.1774 54.3394C50.7278 87.6695 96.857 123.524 86.1076 157.45C75.4445 191.102 5.74878 191.961 8.4107 227.184C11.024 261.764 78.9981 250.61 95.4504 281.075C112.556 312.751 73.3967 359.538 95.2923 388.067C114.299 412.831 155.701 398.48 186.742 400.02C214.388 401.392 252.144 418.938 268.805 396.677C293.291 363.962 257.843 310.08 279.847 275.623C292.196 256.285 327.043 283.475 347.548 273.368C367.926 263.322 377.083 239.579 390.438 221.107C411.763 191.613 477.547 155.289 450.331 131.209C411.874 97.1833 341.788 167.752 298.692 139.932C269.324 120.975 329.837 57.5361 302.466 35.758Z" stroke="#6260FF" stroke-width="1.28384"/>
<path d="M303.599 32.9687C279.864 14.0838 257.882 86.8322 228.054 81.7752C189.475 75.2346 178.79 12.1546 140.268 5.27783C109.652 -0.187792 71.3801 22.5402 60.4316 51.8514C47.7801 85.7218 94.6571 122.158 83.7335 156.633C72.8976 190.831 2.07207 191.704 4.77714 227.498C7.43283 262.639 76.5087 251.303 93.2277 282.263C110.611 314.452 70.8165 361.998 93.067 390.989C112.382 416.155 154.455 401.571 185.999 403.136C214.093 404.53 252.461 422.361 269.392 399.739C294.275 366.493 258.253 311.738 280.613 276.722C293.162 257.071 328.574 284.702 349.411 274.43C370.12 264.222 379.425 240.094 392.997 221.323C414.668 191.35 481.518 154.437 453.86 129.967C414.78 95.3898 343.558 167.102 299.763 138.832C269.92 119.567 331.414 55.0999 303.599 32.9687Z" stroke="#6260FF" stroke-width="1.28384"/>
</svg>
