<svg width="460" height="500" viewBox="0 0 460 500" fill="none" xmlns="http://www.w3.org/2000/svg">
<path fill-rule="evenodd" clip-rule="evenodd" d="M245.272 213.984C250.982 211.709 256.623 202.013 261.547 205.72C267.234 210.002 260.275 220.188 262.541 226.986C263.74 230.585 269.572 230.757 271.055 234.246C272.527 237.705 270.577 241.638 270.373 245.398C270.16 249.332 271.702 253.628 269.818 257.075C267.937 260.517 261.657 260.032 260.349 263.737C256.781 273.846 266.639 292.875 256.316 295.328C246.108 297.755 249.428 272.903 239.837 268.613C232.808 265.469 227.037 278.154 219.38 278.807C210.718 279.545 195.807 281.165 194.355 272.488C192.52 261.519 215.242 257.108 213.901 246.066C212.526 234.734 188.836 235.455 188.476 224.045C188.188 214.959 203.995 214.609 212.862 213.184C219.946 212.046 226.68 216.578 233.85 216.755C237.807 216.853 241.588 215.451 245.272 213.984Z" stroke="#6260FF" stroke-width="1.28384"/>
<path fill-rule="evenodd" clip-rule="evenodd" d="M313.832 51.2242C345.237 38.7222 376.265 -14.5626 403.346 5.81013C434.623 29.3401 396.347 85.316 408.811 122.676C415.409 142.453 447.481 143.402 455.643 162.573C463.734 181.58 453.008 203.197 451.887 223.86C450.715 245.478 459.201 269.085 448.838 288.028C438.489 306.946 403.95 304.279 396.758 324.638C377.132 380.193 431.351 484.762 374.573 498.247C318.432 511.58 336.689 375.007 283.941 351.432C245.282 334.154 213.54 403.867 171.425 407.453C123.788 411.509 41.7759 420.41 33.7917 372.731C23.6974 312.452 148.666 288.208 141.295 227.526C133.73 165.257 3.43577 169.218 1.45285 106.512C-0.126003 56.5839 86.8077 54.6591 135.581 46.8303C174.54 40.5765 211.575 65.4816 251.011 66.4537C272.776 66.9902 293.573 59.2892 313.832 51.2242Z" stroke="#6260FF" stroke-width="1.28384"/>
<path d="M264.327 201.8C258.969 197.766 252.83 208.317 246.616 210.792C242.608 212.389 238.493 213.914 234.186 213.808C226.383 213.615 219.056 208.684 211.347 209.922C201.697 211.472 184.496 211.853 184.808 221.74C185.201 234.156 210.981 233.372 212.478 245.702C213.936 257.717 189.21 262.518 191.207 274.454C192.787 283.894 209.014 282.132 218.439 281.329C226.772 280.619 233.053 266.815 240.702 270.236C251.139 274.904 247.526 301.947 258.634 299.307C269.868 296.637 259.141 275.931 263.024 264.931C264.447 260.899 271.281 261.427 273.328 257.682C275.379 253.931 273.7 249.256 273.932 244.976C274.154 240.884 276.276 236.604 274.675 232.84C273.06 229.044 266.714 228.856 265.409 224.94C262.943 217.543 270.516 206.459 264.327 201.8Z" stroke="#6260FF" stroke-width="1.28384"/>
<path d="M267.108 197.879C261.315 193.518 254.678 204.924 247.961 207.6C243.627 209.326 239.179 210.974 234.523 210.86C226.088 210.652 218.166 205.321 209.832 206.659C199.399 208.335 180.804 208.747 181.142 219.434C181.566 232.856 209.436 232.008 211.054 245.337C212.631 258.326 185.9 263.515 188.059 276.418C189.767 286.624 207.31 284.719 217.499 283.85C226.508 283.083 233.298 268.161 241.567 271.859C252.85 276.905 248.945 306.139 260.954 303.285C273.099 300.398 261.501 278.015 265.699 266.124C267.237 261.766 274.625 262.337 276.839 258.288C279.056 254.233 277.241 249.18 277.491 244.552C277.731 240.129 280.025 235.502 278.295 231.434C276.549 227.33 269.688 227.127 268.277 222.894C265.611 214.897 273.799 202.915 267.108 197.879Z" stroke="#6260FF" stroke-width="1.28384"/>
<path d="M269.887 193.962C263.66 189.274 256.526 201.535 249.304 204.411C244.646 206.267 239.863 208.039 234.859 207.915C225.791 207.692 217.275 201.961 208.316 203.4C197.101 205.201 177.111 205.644 177.474 217.132C177.93 231.56 207.89 230.649 209.63 244.976C211.325 258.939 182.589 264.517 184.91 278.386C186.746 289.357 205.604 287.309 216.558 286.376C226.242 285.551 233.541 269.51 242.431 273.486C254.56 278.91 250.362 310.334 263.271 307.266C276.327 304.164 263.86 280.103 268.373 267.321C270.027 262.636 277.969 263.25 280.348 258.897C282.731 254.538 280.78 249.107 281.049 244.133C281.307 239.378 283.774 234.405 281.913 230.031C280.036 225.62 272.661 225.402 271.144 220.851C268.278 212.255 277.08 199.376 269.887 193.962Z" stroke="#6260FF" stroke-width="1.28384"/>
<path d="M272.668 190.042C266.006 185.027 258.374 198.142 250.648 201.219C245.665 203.204 240.549 205.1 235.195 204.968C225.494 204.728 216.384 198.599 206.8 200.138C194.803 202.065 173.418 202.538 173.806 214.827C174.294 230.261 206.345 229.286 208.206 244.612C210.019 259.548 179.278 265.515 181.762 280.352C183.726 292.087 203.9 289.896 215.618 288.898C225.978 288.015 233.786 270.857 243.296 275.109C256.271 280.912 251.78 314.526 265.59 311.245C279.557 307.926 266.22 282.188 271.047 268.514C272.817 263.503 281.313 264.16 283.858 259.504C286.408 254.841 284.32 249.031 284.609 243.71C284.884 238.624 287.523 233.304 285.532 228.626C283.525 223.907 275.635 223.673 274.012 218.806C270.946 209.61 280.362 195.833 272.668 190.042Z" stroke="#6260FF" stroke-width="1.28384"/>
<path d="M275.449 186.121C268.353 180.78 260.222 194.749 251.993 198.027C246.685 200.141 241.235 202.16 235.532 202.02C225.199 201.765 215.494 195.235 205.286 196.875C192.506 198.927 169.726 199.432 170.14 212.522C170.659 228.961 204.801 227.923 206.783 244.248C208.714 260.157 175.969 266.513 178.614 282.316C180.706 294.816 202.196 292.483 214.678 291.419C225.714 290.479 234.031 272.202 244.161 276.732C257.983 282.913 253.199 318.718 267.909 315.222C282.787 311.687 268.58 284.272 273.722 269.708C275.607 264.37 284.657 265.069 287.369 260.11C290.084 255.143 287.861 248.954 288.168 243.287C288.462 237.87 291.272 232.202 289.152 227.219C287.014 222.193 278.61 221.944 276.881 216.759C273.615 206.965 283.644 192.29 275.449 186.121Z" stroke="#6260FF" stroke-width="1.28384"/>
<path d="M278.23 182.201C270.7 176.533 262.072 191.357 253.339 194.835C247.706 197.079 241.922 199.222 235.87 199.072C224.904 198.802 214.605 191.873 203.772 193.613C190.209 195.791 166.035 196.327 166.474 210.217C167.026 227.662 203.257 226.56 205.361 243.884C207.41 260.766 172.66 267.511 175.467 284.282C177.687 297.546 200.493 295.07 213.739 293.941C225.45 292.944 234.277 273.549 245.027 278.356C259.695 284.915 254.618 322.91 270.23 319.201C286.018 315.449 270.941 286.357 276.399 270.902C278.399 265.237 288.003 265.979 290.881 260.716C293.762 255.446 291.403 248.879 291.729 242.864C292.04 237.116 295.023 231.102 292.773 225.814C290.503 220.48 281.585 220.216 279.75 214.714C276.284 204.32 286.928 188.747 278.23 182.201Z" stroke="#6260FF" stroke-width="1.28384"/>
<path d="M281.011 178.28C273.046 172.285 263.92 187.964 254.683 191.643C248.725 194.016 242.608 196.282 236.206 196.124C224.608 195.838 213.715 188.51 202.256 190.35C187.911 192.654 162.343 193.22 162.807 207.911C163.39 226.363 201.712 225.197 203.937 243.52C206.105 261.375 169.35 268.509 172.318 286.246C174.667 300.275 198.788 297.657 212.799 296.463C225.186 295.408 234.522 274.895 245.892 279.979C261.406 286.916 256.036 327.102 272.548 323.179C289.248 319.211 273.301 288.442 279.073 272.095C281.189 266.104 291.347 266.889 294.391 261.322C297.439 255.748 294.943 248.802 295.288 242.441C295.617 236.361 298.772 230 296.392 224.407C293.992 218.766 284.559 218.487 282.618 212.668C278.953 201.675 290.21 185.204 281.011 178.28Z" stroke="#6260FF" stroke-width="1.28384"/>
<path d="M283.789 174.363C275.39 168.041 265.766 184.575 256.026 188.454C249.742 190.957 243.292 193.346 236.541 193.18C224.31 192.878 212.823 185.15 200.739 187.091C185.612 189.52 158.648 190.117 159.138 205.609C159.753 225.066 200.165 223.837 202.511 243.159C204.798 261.988 166.037 269.51 169.168 288.214C171.645 303.008 197.081 300.247 211.857 298.988C224.919 297.875 234.764 276.244 246.755 281.605C263.115 288.92 257.452 331.297 274.865 327.16C292.475 322.976 275.659 290.529 281.746 273.291C283.977 266.974 294.689 267.802 297.899 261.932C301.113 256.054 298.481 248.729 298.845 242.021C299.193 235.61 302.519 228.902 300.01 223.005C297.478 217.056 287.531 216.761 285.484 210.625C281.619 199.032 293.49 181.664 283.789 174.363Z" stroke="#6260FF" stroke-width="1.28384"/>
<path d="M286.571 170.443C277.737 163.795 267.616 181.183 257.371 185.263C250.763 187.894 243.979 190.408 236.879 190.232C224.015 189.915 211.934 181.788 199.225 183.829C183.315 186.384 154.957 187.012 155.472 203.305C156.119 223.767 198.622 222.475 201.089 242.795C203.494 262.597 162.729 270.509 166.021 290.18C168.626 305.738 195.378 302.834 210.918 301.51C224.656 300.34 235.01 277.591 247.621 283.229C264.828 290.922 258.872 335.49 277.185 331.139C295.706 326.738 278.02 292.615 284.422 274.485C286.768 267.841 298.035 268.712 301.411 262.538C304.791 256.357 302.023 248.653 302.405 241.599C302.771 234.856 306.27 227.801 303.63 221.599C300.968 215.343 290.506 215.033 288.354 208.579C284.288 196.388 296.774 178.121 286.571 170.443Z" stroke="#6260FF" stroke-width="1.28384"/>
<path d="M289.351 166.522C280.083 159.547 269.464 177.79 258.716 182.07C251.782 184.832 244.664 187.468 237.215 187.284C223.719 186.952 211.044 178.425 197.71 180.566C181.017 183.246 151.265 183.905 151.805 200.999C152.484 222.468 197.077 221.111 199.665 242.431C202.188 263.206 159.418 271.506 162.873 292.144C165.606 308.468 193.674 305.42 209.977 304.032C224.391 302.804 235.255 278.936 248.486 284.852C266.539 292.923 260.29 339.681 279.504 335.117C298.936 330.5 280.38 294.699 287.097 275.679C289.558 268.708 301.379 269.621 304.921 263.144C308.467 256.659 305.563 248.577 305.965 241.175C306.348 234.101 310.019 226.7 307.25 220.193C304.456 213.629 293.48 213.304 291.222 206.533C286.956 193.742 300.056 174.578 289.351 166.522Z" stroke="#6260FF" stroke-width="1.28384"/>
<path d="M292.132 162.602C282.429 155.3 271.312 174.398 260.06 178.879C252.802 181.769 245.35 184.529 237.552 184.337C223.423 183.988 210.154 175.062 196.195 177.304C178.72 180.11 147.573 180.799 148.138 198.694C148.849 221.168 195.532 219.749 198.242 242.067C200.883 263.815 156.108 272.505 159.725 294.109C162.586 311.198 191.97 308.008 209.038 306.554C224.127 305.269 235.5 280.283 249.351 286.475C268.25 294.925 261.709 343.874 281.823 339.095C302.166 334.262 282.74 296.784 289.772 276.872C292.349 269.575 304.724 270.531 308.431 263.751C312.144 256.961 309.104 248.501 309.524 240.753C309.926 233.347 313.769 225.599 310.87 218.787C307.945 211.916 296.454 211.576 294.09 204.487C289.625 191.097 303.339 171.035 292.132 162.602Z" stroke="#6260FF" stroke-width="1.28384"/>
<path d="M294.911 158.681C284.774 151.053 273.16 171.005 261.404 175.686C253.82 178.706 246.035 181.59 237.888 181.389C223.126 181.025 209.263 171.699 194.679 174.041C176.421 176.972 143.879 177.693 144.47 196.389C145.213 219.869 193.986 218.385 196.818 241.702C199.577 264.424 152.797 273.502 156.576 296.074C159.565 313.927 190.264 310.594 208.096 309.075C223.861 307.733 235.743 281.629 250.215 288.098C269.96 296.926 263.126 348.065 284.141 343.073C305.395 338.023 285.099 298.868 292.446 278.066C295.138 270.442 308.067 271.441 311.941 264.357C315.82 257.264 312.643 248.424 313.082 240.329C313.502 232.592 317.517 224.498 314.488 217.381C311.433 210.202 299.427 209.847 296.957 202.441C292.292 188.452 306.62 167.492 294.911 158.681Z" stroke="#6260FF" stroke-width="1.28384"/>
<path d="M297.692 154.764C287.12 146.809 275.008 167.616 262.748 172.498C254.84 175.647 246.721 178.654 238.224 178.445C222.83 178.065 208.372 168.34 193.163 170.782C174.124 173.839 140.187 174.59 140.803 194.087C141.577 218.573 192.441 217.026 195.394 241.341C198.271 265.037 149.487 274.504 153.427 298.042C156.544 316.66 188.56 313.184 207.156 311.601C223.597 310.2 235.988 282.978 251.079 289.725C271.671 298.931 264.544 352.261 286.46 347.054C308.624 341.789 287.459 300.956 295.12 279.262C297.928 271.312 311.411 272.354 315.451 264.967C319.496 257.569 316.184 248.351 316.641 239.91C317.079 231.841 321.266 223.4 318.107 215.978C314.921 208.492 302.401 208.121 299.825 200.398C294.96 185.81 309.902 163.952 297.692 154.764Z" stroke="#6260FF" stroke-width="1.28384"/>
<path d="M300.473 150.843C289.466 142.561 276.856 164.223 264.093 169.305C255.859 172.584 247.407 175.715 238.561 175.496C222.534 175.101 207.482 164.977 191.648 167.519C171.826 170.702 136.495 171.484 137.137 191.781C137.942 217.273 190.896 215.663 193.971 240.977C196.966 265.646 146.177 275.501 150.28 300.007C153.525 319.389 186.856 315.771 206.216 314.122C223.333 312.664 236.233 284.324 251.945 291.348C273.382 300.932 265.962 356.452 288.779 351.032C311.855 345.55 289.819 303.04 297.795 280.456C300.718 272.179 314.756 273.263 318.961 265.573C323.173 257.871 319.724 248.275 320.201 239.487C320.656 231.086 325.016 222.299 321.727 214.572C318.41 206.778 305.375 206.392 302.694 198.352C297.628 183.165 313.184 160.409 300.473 150.843Z" stroke="#6260FF" stroke-width="1.28384"/>
<path d="M303.252 146.923C291.811 138.314 278.703 160.831 265.436 166.113C256.878 169.521 248.091 172.776 238.897 172.549C222.237 172.138 206.591 161.614 190.132 164.257C169.527 167.565 132.801 168.378 133.468 189.476C134.306 215.974 189.35 214.3 192.546 240.613C195.66 266.255 142.866 276.5 147.13 301.972C150.503 322.119 185.15 318.358 205.275 316.644C223.067 315.129 236.477 285.67 252.809 292.971C275.092 302.933 267.38 360.645 291.097 355.01C315.083 349.312 292.178 305.125 300.469 281.649C303.508 273.046 318.099 274.173 322.471 266.179C326.848 258.174 323.264 248.199 323.759 239.064C324.232 230.332 328.764 221.198 325.345 213.166C321.897 205.065 308.348 204.664 305.561 196.306C300.296 180.52 316.466 156.866 303.252 146.923Z" stroke="#6260FF" stroke-width="1.28384"/>
<path d="M306.032 143.003C294.157 134.067 280.551 157.438 266.78 162.922C257.897 166.459 248.777 169.837 239.233 169.602C221.94 169.175 205.701 158.252 188.617 160.995C167.23 164.428 129.109 165.273 129.801 187.172C130.671 214.675 187.805 212.937 191.122 240.249C194.355 266.865 139.556 277.498 143.982 303.937C147.483 324.849 183.446 320.945 204.334 319.166C222.802 317.594 236.721 287.017 253.673 294.595C276.803 304.935 268.798 364.837 293.416 358.989C318.313 353.075 294.538 307.21 303.144 282.843C306.298 273.913 321.443 275.083 325.981 266.786C330.525 258.477 326.804 248.123 327.318 238.641C327.81 229.578 332.513 220.097 328.965 211.76C325.386 203.352 311.322 202.936 308.429 194.261C302.964 177.875 319.748 153.323 306.032 143.003Z" stroke="#6260FF" stroke-width="1.28384"/>
<path d="M308.813 139.082C296.504 129.82 282.4 154.046 268.125 159.73C258.917 163.396 249.463 166.898 239.57 166.654C221.645 166.212 204.811 154.889 187.102 157.732C164.932 161.291 125.417 162.166 126.135 184.866C127.036 213.375 186.261 211.574 189.699 239.885C193.05 267.474 136.246 278.496 140.834 305.902C144.463 327.579 181.742 323.532 203.395 321.688C222.538 320.058 236.966 288.363 254.539 296.218C278.515 306.936 270.216 369.029 295.735 362.967C321.543 356.836 296.898 309.294 305.819 284.036C309.088 274.78 324.787 275.993 329.491 267.392C334.202 258.779 330.345 248.047 330.878 238.218C331.387 228.824 336.262 218.996 332.584 210.354C328.875 201.638 314.296 201.207 311.297 192.215C305.632 175.229 323.03 149.78 308.813 139.082Z" stroke="#6260FF" stroke-width="1.28384"/>
<path d="M311.593 135.165C298.849 125.576 284.248 150.656 269.47 156.541C259.936 160.337 250.149 163.962 239.907 163.709C221.349 163.252 203.921 151.529 185.586 154.473C162.634 158.158 121.725 159.064 122.467 182.564C123.401 212.079 184.716 210.215 188.275 239.524C191.744 268.086 132.936 279.497 137.686 307.87C141.443 330.312 180.037 326.122 202.454 324.213C222.273 322.525 237.211 289.712 255.403 297.845C280.226 308.941 271.634 373.224 298.054 366.948C324.773 360.601 299.258 311.382 308.493 285.233C311.878 275.65 328.132 276.906 333.002 268.001C337.878 259.085 333.885 247.974 334.437 237.798C334.964 228.073 340.012 217.898 336.204 208.952C332.363 199.928 317.27 199.481 314.165 190.172C308.3 172.587 326.312 146.24 311.593 135.165Z" stroke="#6260FF" stroke-width="1.28384"/>
<path d="M314.374 131.244C301.196 121.329 286.097 147.264 270.814 153.349C260.956 157.274 250.835 161.022 240.243 160.761C221.053 160.288 203.031 148.166 184.072 151.21C160.337 155.021 118.033 155.957 118.801 180.259C119.766 210.779 183.171 208.851 186.852 239.16C190.439 268.695 129.626 280.495 134.538 309.835C138.423 333.041 178.333 328.709 201.515 326.735C222.009 324.989 237.456 291.058 256.269 299.468C281.937 310.942 273.053 377.416 300.373 370.926C328.003 364.363 301.618 313.467 311.169 286.427C314.669 276.517 331.476 277.815 336.512 268.607C341.555 259.387 337.426 247.897 337.996 237.375C338.542 227.318 343.761 216.796 339.824 207.545C335.852 198.214 320.245 197.752 317.034 188.126C310.969 169.942 329.595 142.697 314.374 131.244Z" stroke="#6260FF" stroke-width="1.28384"/>
<path d="M317.154 127.324C303.541 117.081 287.944 143.871 272.158 150.157C261.974 154.212 251.52 158.083 240.579 157.814C220.756 157.325 202.139 144.804 182.555 147.948C158.038 151.884 114.339 152.852 115.133 177.954C116.129 209.48 181.625 207.489 185.428 238.796C189.133 269.304 126.315 281.493 131.389 311.8C135.402 335.771 176.627 331.296 200.573 329.257C221.744 327.454 237.699 292.404 257.132 301.091C283.647 312.944 274.47 381.608 302.69 374.905C331.231 368.125 303.977 315.551 313.842 287.62C317.458 277.384 334.819 278.725 340.021 269.214C345.23 259.69 340.965 247.821 341.554 236.952C342.118 226.564 347.509 215.695 343.442 206.139C339.339 196.501 323.217 196.024 319.901 186.08C313.636 167.297 332.876 139.154 317.154 127.324Z" stroke="#6260FF" stroke-width="1.28384"/>
<path d="M319.934 123.403C305.887 112.834 289.792 140.478 273.502 146.965C262.993 151.149 252.205 155.144 240.915 154.866C220.46 154.361 201.249 141.44 181.04 144.685C155.741 148.747 110.647 149.745 111.466 175.648C112.494 208.18 180.08 206.125 184.004 238.431C187.827 269.913 123.004 282.491 128.24 313.764C132.382 338.5 174.923 333.883 199.633 331.778C221.479 329.918 237.944 293.75 257.997 302.714C285.358 314.945 275.888 385.8 305.009 378.882C334.461 371.887 306.337 317.636 316.517 288.813C320.248 278.251 338.164 279.634 343.531 269.82C348.907 259.992 344.505 247.745 345.114 236.529C345.695 225.809 351.259 214.594 347.061 204.733C342.828 194.787 326.191 194.295 322.769 184.034C316.304 164.652 336.158 135.611 319.934 123.403Z" stroke="#6260FF" stroke-width="1.28384"/>
<path d="M322.715 119.483C308.233 108.587 291.641 137.086 274.847 143.773C264.013 148.086 252.891 152.205 241.252 151.918C220.164 151.398 200.359 138.078 179.525 141.423C153.443 145.61 106.955 146.639 107.799 173.343C108.859 206.881 178.536 204.763 182.581 238.067C186.523 270.523 119.694 283.489 125.092 315.729C129.362 341.23 173.219 336.47 198.693 334.3C221.215 332.382 238.189 295.097 258.862 304.338C287.07 316.947 277.307 389.992 307.328 382.861C337.691 375.649 308.697 319.72 319.192 290.007C323.038 279.118 341.508 280.544 347.042 270.426C352.584 260.294 348.046 247.669 348.673 236.106C349.272 225.055 355.008 213.493 350.681 203.327C346.317 193.074 329.166 192.566 325.637 181.988C318.973 162.007 339.441 132.068 322.715 119.483Z" stroke="#6260FF" stroke-width="1.28384"/>
<path d="M325.497 115.563C310.58 104.34 293.49 133.694 276.192 140.581C265.034 145.024 253.578 149.266 241.59 148.971C219.869 148.435 199.47 134.715 178.011 138.16C151.147 142.473 103.264 143.534 104.133 171.038C105.225 205.582 176.992 203.4 181.158 237.703C185.219 271.132 116.386 284.488 121.946 317.695C126.343 343.96 171.516 339.057 197.754 336.822C220.951 334.847 238.435 296.443 259.729 305.961C288.782 318.948 278.726 394.184 309.649 386.839C340.922 379.411 311.058 321.805 321.868 291.201C325.83 279.985 344.854 281.454 350.554 271.033C356.262 260.597 351.588 247.593 352.234 235.684C352.851 224.301 358.759 212.392 354.302 201.922C349.806 191.361 332.141 190.838 328.507 179.943C321.642 159.362 342.724 128.525 325.497 115.563Z" stroke="#6260FF" stroke-width="1.28384"/>
<path d="M328.274 111.646C312.924 100.096 295.336 130.304 277.534 137.392C266.051 141.964 254.262 146.33 241.924 146.026C219.57 145.475 198.578 131.355 176.493 134.901C148.847 139.339 99.5687 140.43 100.464 168.736C101.588 204.286 175.445 202.04 179.732 237.342C183.911 271.744 113.073 285.488 118.795 319.663C123.321 346.693 169.809 341.647 196.811 339.347C220.684 337.314 238.677 297.792 260.591 307.587C290.491 320.953 280.142 398.379 311.965 390.82C344.149 383.175 313.415 323.893 324.54 292.397C328.617 280.855 348.195 282.367 354.061 271.642C359.936 260.902 355.126 247.52 355.79 235.264C356.426 223.549 362.505 211.294 357.919 200.519C353.292 189.65 335.112 189.112 331.372 177.9C324.308 156.719 346.004 124.985 328.274 111.646Z" stroke="#6260FF" stroke-width="1.28384"/>
<path d="M331.055 107.725C315.27 95.8487 297.184 126.912 278.879 134.2C267.07 138.902 254.948 143.391 242.261 143.078C219.275 142.512 197.688 127.993 174.978 131.639C146.549 136.203 95.8767 137.325 96.797 166.431C97.9528 202.986 173.9 200.677 178.309 236.978C182.606 272.354 109.763 286.487 115.647 321.628C120.301 349.422 168.105 344.234 195.872 341.869C220.42 339.779 238.922 299.138 261.456 309.211C292.202 322.954 281.56 402.571 314.284 394.799C347.379 386.938 315.776 325.978 327.215 293.591C331.408 281.722 351.54 283.277 357.572 272.249C363.613 261.205 358.666 247.444 359.35 234.841C360.003 222.795 366.255 210.193 361.539 199.113C356.781 187.937 338.087 187.383 334.241 175.854C326.976 154.074 349.287 121.442 331.055 107.725Z" stroke="#6260FF" stroke-width="1.28384"/>
<path d="M333.837 103.805C317.618 91.6012 299.034 123.519 280.225 131.008C268.091 135.839 255.635 140.452 242.599 140.13C218.98 139.548 196.799 124.63 173.465 128.376C144.253 133.065 92.1857 134.218 93.1314 164.125C94.319 201.687 172.356 199.314 176.887 236.614C181.302 272.962 106.454 287.484 112.5 323.592C117.282 352.152 166.402 346.82 194.933 344.391C220.157 342.243 239.168 300.484 262.322 310.834C293.915 324.955 282.98 406.763 316.604 398.776C350.61 390.699 318.137 328.062 329.892 294.784C334.199 282.589 354.886 284.186 361.084 272.855C367.29 261.507 362.208 247.367 362.91 234.418C363.582 222.04 370.006 209.092 365.159 197.707C360.271 186.223 341.062 185.654 337.11 173.808C329.646 151.429 352.57 117.899 333.837 103.805Z" stroke="#6260FF" stroke-width="1.28384"/>
<path d="M336.617 99.8844C319.963 87.3543 300.882 120.127 281.569 127.816C269.11 132.776 256.32 137.513 242.936 137.183C218.684 136.585 195.908 121.267 171.949 125.114C141.955 129.929 88.4933 131.113 89.4642 161.821C90.6837 200.388 170.811 197.951 175.463 236.25C179.996 273.572 103.144 288.483 109.352 325.557C114.262 354.882 164.697 349.408 193.992 346.913C219.892 344.707 239.413 301.831 263.187 312.457C295.626 326.957 284.398 410.956 318.923 402.755C353.84 394.461 320.497 330.147 332.566 295.978C336.989 283.456 358.23 285.096 364.594 273.461C370.967 261.81 365.748 247.291 366.469 233.995C367.159 221.286 373.755 207.991 368.779 196.301C363.76 184.51 344.036 183.926 339.978 171.762C332.314 148.784 355.852 114.356 336.617 99.8844Z" stroke="#6260FF" stroke-width="1.28384"/>
<path d="M339.398 95.9674C322.31 83.1105 302.731 116.738 282.914 124.627C270.13 129.717 257.007 134.577 243.273 134.239C218.388 133.625 195.019 117.908 170.434 121.855C139.658 126.795 84.8013 128.01 85.7976 159.519C87.0488 199.091 169.267 196.592 174.04 235.889C178.691 274.184 99.8343 289.484 106.204 327.526C111.242 357.615 162.993 351.998 193.053 349.438C219.628 347.175 239.658 303.18 264.052 314.084C297.337 328.962 285.817 415.151 321.242 406.736C357.07 398.226 322.857 332.235 335.241 297.175C339.78 284.326 361.574 286.009 368.105 274.071C374.644 262.116 369.289 247.218 370.029 233.575C370.736 220.535 377.504 206.893 372.399 194.898C367.248 182.8 347.01 182.201 342.847 169.719C334.982 146.142 359.135 110.817 339.398 95.9674Z" stroke="#6260FF" stroke-width="1.28384"/>
<path d="M342.178 92.0466C324.655 78.8629 304.578 113.345 284.257 121.435C271.149 126.654 257.691 131.638 243.608 131.291C218.091 130.661 194.127 114.545 168.918 118.592C137.359 123.658 81.1078 124.904 82.1294 157.213C83.4125 197.792 167.721 195.228 172.615 235.525C177.385 274.793 96.523 290.482 103.055 329.49C108.221 360.344 161.288 354.584 192.111 351.96C219.362 349.639 239.901 304.526 264.916 315.707C299.047 330.963 287.234 419.343 323.56 410.714C360.299 401.988 325.216 334.319 337.915 298.368C342.569 285.193 364.918 286.919 371.614 274.677C378.319 262.418 372.828 247.142 373.587 233.152C374.312 219.781 381.253 205.792 376.017 193.492C370.736 181.086 349.983 180.472 345.714 167.673C337.649 143.497 362.416 107.273 342.178 92.0466Z" stroke="#6260FF" stroke-width="1.28384"/>
<path d="M344.958 88.1265C327.001 74.616 306.426 109.953 285.602 118.243C272.168 123.592 258.377 128.699 243.945 128.343C217.795 127.698 193.237 111.182 167.403 115.33C135.061 120.521 77.4154 121.798 78.4623 154.908C79.7772 196.493 166.176 193.866 171.192 235.161C176.08 275.403 93.2127 291.48 99.9063 331.456C105.201 363.074 159.583 357.172 191.171 354.482C219.098 352.104 240.146 305.872 265.781 317.331C300.758 332.965 288.652 423.535 325.879 414.693C363.528 405.75 327.576 336.404 340.59 299.562C345.359 286.06 368.262 287.829 375.124 275.283C381.996 262.721 376.369 247.066 377.146 232.73C377.889 219.026 385.002 204.691 379.636 192.086C374.224 179.373 352.957 178.743 348.582 165.627C340.318 140.852 365.698 103.731 344.958 88.1265Z" stroke="#6260FF" stroke-width="1.28384"/>
<path d="M347.739 84.2058C329.347 70.3685 308.275 106.56 286.946 115.051C273.188 120.529 259.063 125.76 244.282 125.395C217.499 124.735 192.347 107.819 165.888 112.067C132.764 117.384 73.7234 118.692 74.7957 152.603C76.1423 195.193 164.631 192.503 169.768 234.796C174.775 276.012 89.9029 292.478 96.7584 333.42C102.181 365.803 157.879 359.758 190.231 357.003C218.834 354.568 240.391 307.218 266.646 318.954C302.47 334.966 290.071 427.727 328.198 418.671C366.759 409.512 329.936 338.488 343.265 300.755C348.15 286.927 371.606 288.738 378.635 275.889C385.672 263.023 379.909 246.989 380.706 232.306C381.467 218.272 388.751 203.589 383.256 190.68C377.713 177.659 355.931 177.014 351.451 163.581C342.986 138.206 368.981 100.187 347.739 84.2058Z" stroke="#6260FF" stroke-width="1.28384"/>
<path d="M350.518 80.2855C331.692 66.1215 310.122 103.167 288.29 111.859C274.206 117.466 259.748 122.821 244.617 122.448C217.202 121.772 191.456 104.457 164.371 108.804C130.465 114.247 70.0299 115.586 71.1275 150.298C72.506 193.894 163.085 191.14 168.344 234.432C173.468 276.621 86.5917 293.476 93.6091 335.385C99.1596 368.533 156.173 362.345 189.29 359.525C218.568 357.032 240.635 308.565 267.51 320.577C304.18 336.967 291.488 431.919 330.516 422.649C369.987 413.274 332.295 340.573 345.939 301.949C350.939 287.794 374.95 289.648 382.144 276.496C389.348 263.325 383.449 246.913 384.264 231.884C385.043 217.518 392.5 202.489 386.874 189.274C381.201 175.946 358.904 175.286 354.318 161.536C345.653 135.561 372.262 96.6446 350.518 80.2855Z" stroke="#6260FF" stroke-width="1.28384"/>
<path d="M353.299 76.3648C334.038 61.874 311.97 99.7746 289.634 108.667C275.225 114.404 260.433 119.881 244.954 119.5C216.906 118.808 190.566 101.094 162.856 105.542C128.167 111.11 66.3375 112.479 67.4604 147.992C68.8707 192.594 161.54 189.777 166.92 234.068C172.163 277.23 83.2814 294.474 90.4608 337.35C96.1393 371.263 154.469 364.932 188.35 362.047C218.303 359.496 240.879 309.91 268.375 322.2C305.891 338.968 292.906 436.111 332.835 426.627C373.217 417.035 334.655 342.657 348.613 303.142C353.729 288.661 378.294 290.558 385.654 277.102C393.024 263.628 386.989 246.837 387.823 231.46C388.62 216.763 396.249 201.387 390.494 187.868C384.689 174.232 361.878 173.557 357.186 159.489C348.321 132.916 375.544 93.1013 353.299 76.3648Z" stroke="#6260FF" stroke-width="1.28384"/>
<path d="M356.079 72.4477C336.384 57.6302 313.818 96.3854 290.979 105.478C276.245 111.344 261.119 116.945 245.29 116.555C216.61 115.848 189.676 97.7341 161.341 102.283C125.87 107.977 62.6455 109.377 63.7937 145.691C65.2359 191.298 159.996 188.417 165.497 233.707C170.858 277.842 79.9716 295.475 87.3129 339.318C93.1196 373.996 152.765 367.522 187.41 364.572C218.039 361.964 241.124 311.26 269.24 323.827C307.602 340.973 294.324 440.306 335.154 430.608C376.447 420.801 337.015 344.745 351.288 304.339C356.519 289.531 381.638 291.471 389.164 277.712C396.701 263.933 390.53 246.764 391.383 231.041C392.198 216.012 399.998 200.289 394.113 186.465C388.178 172.522 364.853 171.831 360.054 157.447C350.99 130.274 378.827 89.5616 356.079 72.4477Z" stroke="#6260FF" stroke-width="1.28384"/>
<path d="M358.86 68.5275C338.73 53.3831 315.667 92.9931 292.323 102.287C277.264 108.282 261.805 114.006 245.627 113.608C216.314 112.885 188.785 94.3715 159.826 99.0203C123.572 104.84 58.953 106.271 60.1266 143.386C61.6005 189.999 158.451 187.054 164.073 233.343C169.552 278.452 76.6613 296.474 84.1646 341.283C90.0993 376.726 151.06 370.109 186.469 367.094C217.775 364.429 241.369 312.606 270.105 325.45C309.313 342.975 295.742 444.498 337.473 434.587C379.677 424.563 339.375 346.83 353.963 305.533C359.309 290.398 384.982 292.381 392.675 278.318C400.378 264.236 394.07 246.688 394.942 230.618C395.775 215.258 403.747 199.188 397.733 185.059C391.666 170.808 367.826 170.103 362.922 155.401C353.658 127.629 382.109 86.0188 358.86 68.5275Z" stroke="#6260FF" stroke-width="1.28384"/>
<path d="M361.64 64.6067C341.076 49.1356 317.515 89.6003 293.668 99.0943C278.284 105.219 262.491 111.067 245.964 110.66C216.018 109.921 187.895 91.0084 158.311 95.7575C121.275 101.703 55.261 103.165 56.46 141.08C57.9657 188.699 156.906 185.691 162.65 232.979C168.247 279.061 73.3516 297.471 81.0168 343.248C87.0796 379.455 149.356 372.696 185.53 369.616C217.51 366.893 241.614 313.952 270.97 327.073C311.025 344.976 297.161 448.69 339.792 438.565C382.907 428.324 341.735 348.914 356.638 306.726C362.1 291.265 388.327 293.29 396.185 278.924C404.054 264.538 397.611 246.612 398.501 230.195C399.352 214.503 407.497 198.087 401.353 183.653C395.155 169.095 370.801 168.374 365.791 153.355C356.326 124.984 385.392 82.4754 361.64 64.6067Z" stroke="#6260FF" stroke-width="1.28384"/>
<path d="M364.42 60.6866C343.421 44.8887 319.362 86.208 295.011 95.9026C279.302 102.157 263.176 108.128 246.299 107.712C215.721 106.958 187.004 87.646 156.795 92.4954C118.976 98.5662 51.5676 100.059 52.7918 138.775C54.3294 187.4 155.36 184.328 161.225 232.615C166.941 279.67 70.0403 298.47 77.8674 345.213C84.0583 382.185 147.651 375.283 184.588 372.138C217.245 369.357 241.857 315.299 271.834 328.697C312.735 346.978 298.578 452.882 342.11 442.543C386.135 432.086 344.094 350.999 359.312 307.92C364.889 292.132 391.67 294.2 399.694 279.531C407.73 264.841 401.15 246.536 402.059 229.772C402.928 213.749 411.245 196.986 404.971 182.248C398.643 167.381 373.774 166.645 368.658 151.309C358.994 122.339 388.673 78.9327 364.42 60.6866Z" stroke="#6260FF" stroke-width="1.28384"/>
<path d="M367.2 56.7659C345.767 40.6412 321.21 82.8152 296.355 92.7103C280.322 99.0936 263.861 105.189 246.636 104.764C215.425 103.995 186.114 84.2829 155.279 89.2326C116.678 95.429 47.8751 96.9525 49.1247 136.47C50.6941 186.1 153.815 182.965 159.802 232.25C165.636 280.279 66.73 299.467 74.7191 347.178C81.0381 384.914 145.946 377.87 183.648 374.659C216.98 371.821 242.102 316.644 272.698 330.32C314.446 348.979 299.996 457.074 344.428 446.521C389.365 435.848 346.454 353.084 361.986 309.113C367.679 292.999 395.014 295.109 403.205 280.137C411.406 265.143 404.69 246.459 405.618 229.349C406.505 212.994 414.994 195.885 408.59 180.841C402.131 165.668 376.747 164.916 371.526 149.263C361.662 119.693 391.955 75.3894 367.2 56.7659Z" stroke="#6260FF" stroke-width="1.28384"/>
<path d="M369.981 52.8488C348.113 36.3974 323.059 79.426 297.7 89.5217C281.341 96.0343 264.548 102.253 246.973 101.82C215.129 101.035 185.224 80.9234 153.764 85.9735C114.381 92.2955 44.1831 93.8498 45.458 134.168C47.0592 184.804 152.27 181.606 158.378 231.89C164.331 280.892 63.4202 300.469 71.5713 349.146C78.0183 387.647 144.242 380.46 182.708 377.185C216.716 374.289 242.347 317.994 273.564 331.946C316.157 350.983 301.415 461.269 346.748 450.502C392.595 439.613 348.814 355.171 364.662 310.31C370.469 293.869 398.359 296.023 406.715 280.746C415.083 265.449 408.231 246.386 409.178 228.929C410.083 212.243 418.744 194.787 412.21 179.439C405.62 163.958 379.722 163.191 374.394 147.22C364.33 117.052 395.237 71.8498 369.981 52.8488Z" stroke="#6260FF" stroke-width="1.28384"/>
<path d="M372.763 48.9287C350.461 32.1505 324.909 76.0338 299.046 86.33C282.362 92.972 265.235 99.3143 247.311 98.8724C214.834 98.0718 184.335 77.561 152.251 82.7113C112.085 89.1589 40.4921 90.7441 41.7924 131.863C43.4254 183.505 150.727 180.243 156.956 231.526C163.027 281.501 60.1114 301.467 68.4244 351.111C74.9996 390.377 142.539 383.047 181.769 379.707C216.453 376.754 242.593 319.34 274.43 333.57C317.87 352.985 302.834 465.462 349.068 454.481C395.826 443.375 351.175 357.256 367.338 311.504C373.261 294.736 401.705 296.933 410.227 281.353C418.761 265.752 411.773 246.31 412.739 228.507C413.662 211.489 422.495 193.686 415.831 178.033C409.11 162.244 382.697 161.463 377.264 145.175C367 114.407 398.521 68.3071 372.763 48.9287Z" stroke="#6260FF" stroke-width="1.28384"/>
<path d="M375.541 45.008C352.804 27.903 326.754 72.641 300.388 83.1377C283.379 89.909 265.918 96.3749 247.645 95.9244C214.536 95.1082 183.442 74.1979 150.733 79.4485C109.784 86.0217 36.7972 87.6377 38.1228 129.557C39.7876 182.205 149.179 178.88 155.53 231.161C161.719 282.11 56.7987 302.465 65.2736 353.076C71.9769 393.107 140.832 385.634 180.827 382.228C216.186 379.218 242.835 320.686 275.292 335.193C319.578 354.986 304.25 469.653 351.384 458.459C399.053 447.137 353.532 359.341 370.01 312.697C376.049 295.603 405.046 297.842 413.735 281.959C422.435 266.054 415.311 246.234 416.295 228.083C417.236 210.734 426.241 192.585 419.448 176.627C412.596 160.531 385.669 159.734 380.129 143.128C369.665 111.761 401.801 64.7637 375.541 45.008Z" stroke="#6260FF" stroke-width="1.28384"/>
<path d="M378.322 41.0877C355.151 23.656 328.603 69.2486 301.733 79.9459C284.399 86.8466 266.604 93.4359 247.982 92.9769C214.24 92.1451 182.553 70.8353 149.218 76.1862C107.487 82.8849 33.1052 84.5319 34.4561 127.252C36.1527 180.906 147.635 177.517 154.107 230.797C160.414 282.719 53.4889 303.463 62.1258 355.041C68.9571 395.836 139.128 388.221 179.887 384.75C215.921 381.682 243.08 322.033 276.158 336.816C321.29 356.988 305.669 473.846 353.703 462.437C402.283 450.899 355.893 361.425 372.685 313.89C378.839 296.47 408.391 298.752 417.245 282.565C426.112 266.356 418.851 246.158 419.855 227.661C420.814 209.98 429.991 191.484 423.068 175.221C416.084 158.817 388.643 158.005 382.998 141.083C372.334 109.116 405.083 61.2209 378.322 41.0877Z" stroke="#6260FF" stroke-width="1.28384"/>
<path d="M381.103 37.1671C357.498 19.4086 330.452 65.8559 303.078 76.7537C285.419 83.7838 267.291 90.4966 248.32 90.029C213.945 89.1816 181.664 67.4723 147.704 72.9236C105.191 79.7479 29.4142 81.4257 30.7905 124.947C32.5189 179.607 146.091 176.154 152.685 230.433C159.11 283.328 50.1801 304.461 58.9789 357.006C65.9383 398.566 137.425 390.808 178.948 387.272C215.658 384.146 243.326 323.378 277.024 338.439C323.002 358.989 307.088 478.037 356.024 466.415C405.514 454.661 358.254 363.51 375.361 315.084C381.631 297.337 411.736 299.661 420.757 283.171C429.79 266.659 422.393 246.082 423.415 227.237C424.392 209.226 433.742 190.383 426.688 173.815C419.574 157.104 391.618 156.276 385.867 139.037C375.003 106.471 408.367 57.6777 381.103 37.1671Z" stroke="#6260FF" stroke-width="1.28384"/>
<path d="M383.884 33.2499C359.844 15.1646 332.301 62.4666 304.423 73.5649C286.439 80.7244 267.977 87.5607 248.656 87.0845C213.649 86.2215 180.773 64.1128 146.189 69.6643C102.893 76.6142 25.7218 78.3229 27.1233 122.645C28.8836 178.31 144.546 174.794 151.261 230.072C157.804 283.941 46.8698 305.462 55.8306 358.974C62.9181 401.299 135.72 393.398 178.008 389.797C215.393 386.614 243.571 324.728 277.889 340.066C324.713 360.994 308.506 482.233 358.342 470.396C408.744 458.426 360.614 365.598 378.036 316.281C384.421 298.207 415.081 300.574 424.267 283.781C433.466 266.964 425.933 246.009 426.974 226.818C427.969 208.475 437.491 189.285 430.308 172.412C423.063 155.393 394.592 154.551 388.735 136.994C377.671 103.829 411.649 54.1379 383.884 33.2499Z" stroke="#6260FF" stroke-width="1.28384"/>
<path d="M386.662 29.3298C362.188 10.9177 334.147 59.0744 305.765 70.3733C287.456 77.662 268.66 84.6219 248.991 84.1371C213.351 83.2585 179.881 60.7503 144.671 66.4022C100.593 73.4776 22.0273 75.2172 23.4542 120.34C25.2463 177.011 142.999 173.431 149.835 229.708C156.497 284.55 43.5576 306.461 52.6803 360.939C59.8959 404.029 134.014 395.985 177.065 392.319C215.127 389.078 243.813 326.074 278.751 341.689C326.422 362.996 309.922 486.425 360.659 474.375C411.972 462.188 362.972 367.683 380.709 317.474C387.209 299.074 418.423 301.484 427.775 284.388C437.141 267.267 429.472 245.933 430.531 226.395C431.544 207.72 441.238 188.184 433.925 171.006C426.549 153.68 397.564 152.822 391.601 134.948C380.338 101.184 414.929 50.5952 386.662 29.3298Z" stroke="#6260FF" stroke-width="1.28384"/>
<path d="M389.444 25.409C364.535 6.67019 335.996 55.6816 307.111 67.181C288.477 74.5991 269.348 81.6825 249.329 81.189C213.056 80.2949 178.992 57.3872 143.157 63.1394C98.2967 70.3404 18.3363 72.1108 19.7885 118.035C21.6124 175.712 141.456 172.068 148.413 229.344C155.193 285.159 40.2488 307.458 49.5334 362.904C56.8771 406.758 132.311 398.572 176.127 394.841C214.864 391.542 244.059 327.42 279.618 343.312C328.135 364.997 311.342 490.617 362.979 478.353C415.203 465.95 365.333 369.767 383.385 318.668C390 299.941 421.768 302.394 431.287 284.994C440.819 267.569 433.014 245.856 434.092 225.972C435.123 206.966 444.988 187.083 437.546 169.6C430.039 151.966 400.539 151.093 394.471 132.902C383.007 98.5386 418.213 47.0519 389.444 25.409Z" stroke="#6260FF" stroke-width="1.28384"/>
<path d="M392.224 21.4888C366.881 2.42317 337.844 52.2893 308.455 63.9891C289.496 71.5366 270.033 78.7436 249.665 78.2415C212.76 77.3318 178.102 54.0246 141.642 59.8771C95.9989 67.2037 14.6439 69.005 16.1214 115.73C17.9771 174.412 139.911 170.705 146.989 228.98C153.888 285.769 36.9385 308.457 46.3851 364.869C53.8569 409.488 130.606 401.159 175.186 397.363C214.599 394.007 244.304 328.766 280.482 344.936C329.846 366.998 312.76 494.809 365.298 482.331C418.433 469.711 367.693 371.852 386.059 319.861C392.79 300.808 425.113 303.304 434.797 285.6C444.495 267.872 436.554 245.78 437.651 225.549C438.7 206.212 448.738 185.982 441.165 168.194C433.527 150.253 403.513 149.365 397.339 130.856C385.675 95.8936 421.495 43.5091 392.224 21.4888Z" stroke="#6260FF" stroke-width="1.28384"/>
<path d="M395.005 17.5681C369.227 -1.82434 339.693 48.8964 309.8 60.7968C290.516 68.4737 270.719 75.8042 250.002 75.2935C212.464 74.3682 177.212 50.6615 140.127 56.6143C93.7016 64.0665 10.9519 65.8987 12.4548 113.424C14.3422 173.113 138.366 169.342 145.566 228.616C152.583 286.377 33.6287 309.454 43.2372 366.833C50.8371 412.217 128.902 403.745 174.246 399.884C214.335 396.471 244.549 330.112 281.348 346.559C331.557 368.999 314.179 499.001 367.617 486.309C421.663 473.473 370.053 373.936 388.734 321.054C395.581 301.675 428.457 304.213 438.308 286.206C448.172 268.174 440.094 245.704 441.211 225.126C442.277 205.457 452.487 184.88 444.785 166.788C437.016 148.539 406.488 147.636 400.207 128.81C388.344 93.2481 424.777 39.9658 395.005 17.5681Z" stroke="#6260FF" stroke-width="1.28384"/>
<path d="M397.784 13.6511C371.572 -6.06806 341.54 45.5074 311.143 57.6083C291.534 65.4146 271.404 72.8686 250.337 72.3493C212.167 71.4083 176.321 47.3022 138.611 53.3553C91.4028 60.9331 7.25845 62.7961 8.78664 111.122C10.7059 171.817 136.82 167.983 144.142 228.255C151.276 286.99 30.3175 310.456 40.0879 368.802C47.8159 414.951 127.197 406.336 173.305 402.41C214.069 398.939 244.793 331.462 282.211 348.186C333.267 371.004 315.596 503.196 369.935 490.291C424.891 477.238 372.412 376.024 391.408 322.251C398.37 302.545 431.8 305.126 441.817 286.816C451.847 268.48 443.634 245.631 444.769 224.706C445.854 204.706 456.235 183.783 448.403 165.385C440.504 146.829 409.46 145.911 403.074 126.768C391.011 90.6064 428.059 36.4262 397.784 13.6511Z" stroke="#6260FF" stroke-width="1.28384"/>
<path d="M400.565 9.73038C373.918 -10.3156 343.388 42.1146 312.487 54.416C292.554 62.3516 272.09 69.9291 250.674 69.4012C211.871 68.4447 175.43 43.9391 137.095 50.0925C89.105 57.7959 3.56598 59.6898 5.1195 108.817C7.07061 170.517 135.275 166.62 142.718 227.89C149.971 287.599 27.0072 311.454 36.9396 370.766C44.7956 417.68 125.492 408.922 172.365 404.931C213.804 401.403 245.037 332.808 283.076 349.809C334.978 373.005 317.014 507.388 372.254 494.268C428.121 481 374.772 378.108 394.083 323.445C401.16 303.412 435.144 306.036 445.327 287.422C455.524 268.782 447.174 245.554 448.328 224.283C449.431 203.951 459.985 182.681 452.023 163.979C443.992 145.116 412.434 144.182 405.942 124.721C393.679 87.961 431.341 32.8829 400.565 9.73038Z" stroke="#6260FF" stroke-width="1.28384"/>
</svg>
