<svg width="546" height="514" viewBox="0 0 546 514" fill="none" xmlns="http://www.w3.org/2000/svg">
<path fill-rule="evenodd" clip-rule="evenodd" d="M262.769 189.154C278.753 195.812 262.765 230.96 278.597 237.973C295.183 245.32 318.113 203.517 328.611 218.319C339.387 233.512 292.445 244.975 296.465 263.166C300.445 281.182 350.259 272.018 344.336 289.492C338.143 307.76 305.93 285.676 287.236 290.387C281.604 291.807 283.214 301.27 279.588 305.812C274.81 311.797 269.143 316.792 262.769 321.036C252.321 327.992 241.733 343.452 230.088 338.771C218.903 334.276 229.052 313.165 220.957 304.229C212.019 294.362 181.233 301.54 184.721 288.688C189.44 271.298 220.822 278.005 231.924 263.817C237.314 256.927 221.865 248.001 223.308 239.371C224.634 231.445 234.04 227.797 239.004 221.48C247.372 210.831 250.271 183.948 262.769 189.154Z" stroke="#6260FF" stroke-width="1.28384"/>
<path fill-rule="evenodd" clip-rule="evenodd" d="M266.964 3.24374C321.125 25.8109 266.951 144.939 320.596 168.707C376.797 193.607 454.497 51.9249 490.069 102.092C526.582 153.586 367.522 192.437 381.141 254.093C394.629 315.157 563.424 284.096 543.352 343.32C522.368 405.235 413.214 330.386 349.872 346.355C330.786 351.167 336.241 383.242 323.957 398.633C307.765 418.92 288.561 435.848 266.964 450.232C231.56 473.811 195.685 526.21 156.224 510.344C118.326 495.106 152.714 423.557 125.285 393.268C94.9994 359.826 -9.31821 384.154 2.49944 340.596C18.4905 281.655 124.827 304.389 162.445 256.3C180.711 232.949 128.361 202.696 133.251 173.446C137.743 146.581 169.616 134.219 186.437 112.807C214.792 76.7142 224.615 -14.4019 266.964 3.24374Z" stroke="#6260FF" stroke-width="1.28384"/>
<path d="M279.42 236.615C262.847 229.274 279.583 192.479 262.851 185.509C249.768 180.059 246.733 208.201 237.973 219.349C232.777 225.963 222.93 229.781 221.542 238.079C220.031 247.113 236.204 256.457 230.561 263.669C218.94 278.523 186.088 271.501 181.148 289.706C177.497 303.16 209.725 295.645 219.081 305.975C227.555 315.33 216.931 337.429 228.639 342.136C240.83 347.036 251.914 330.852 262.851 323.569C269.523 319.126 275.456 313.898 280.458 307.632C284.254 302.878 282.568 292.971 288.464 291.485C308.033 286.552 341.755 309.671 348.238 290.547C354.439 272.255 302.292 281.849 298.125 262.988C293.917 243.944 343.057 231.945 331.777 216.04C320.787 200.545 296.783 244.306 279.42 236.615Z" stroke="#6260FF" stroke-width="1.28384"/>
<path d="M280.244 235.256C262.929 227.587 280.414 189.145 262.934 181.863C249.265 176.169 246.094 205.571 236.943 217.218C231.514 224.127 221.226 228.117 219.776 236.786C218.198 246.225 235.095 255.987 229.199 263.522C217.058 279.04 182.736 271.704 177.575 290.723C173.761 304.779 207.43 296.929 217.205 307.72C226.058 317.494 214.959 340.583 227.191 345.5C239.928 350.619 251.507 333.711 262.934 326.102C269.904 321.46 276.102 315.998 281.328 309.452C285.293 304.485 283.533 294.135 289.693 292.582C310.137 287.429 345.368 311.582 352.14 291.602C358.619 272.492 304.139 282.515 299.785 262.81C295.39 242.914 346.728 230.377 334.943 213.761C323.461 197.572 298.383 243.292 280.244 235.256Z" stroke="#6260FF" stroke-width="1.28384"/>
<path d="M281.067 233.898C263.011 225.9 281.245 185.812 263.016 178.218C248.762 172.28 245.456 202.942 235.912 215.087C230.25 222.293 219.523 226.453 218.011 235.493C216.365 245.336 233.985 255.517 227.837 263.375C215.175 279.557 179.385 271.907 174.002 291.741C170.025 306.399 205.136 298.212 215.329 309.466C224.562 319.659 212.987 343.736 225.743 348.864C239.025 354.203 251.1 336.57 263.016 328.635C270.285 323.795 276.749 318.098 282.198 311.272C286.333 306.092 284.497 295.299 290.921 293.679C312.241 288.305 348.98 313.493 356.043 292.658C362.799 272.728 305.985 283.181 301.446 262.632C296.862 241.884 350.398 228.81 338.109 211.482C326.136 194.6 299.984 242.278 281.067 233.898Z" stroke="#6260FF" stroke-width="1.28384"/>
<path d="M281.89 232.54C263.092 224.213 282.075 182.479 263.097 174.573C248.258 168.391 244.816 200.312 234.88 212.957C228.986 220.458 217.818 224.789 216.244 234.201C214.53 244.448 232.874 255.047 226.473 263.227C213.292 280.074 176.031 272.11 170.428 292.759C166.287 308.019 202.84 299.496 213.452 311.212C223.064 321.823 211.014 346.89 224.294 352.228C238.121 357.786 250.691 339.429 263.097 331.168C270.665 326.129 277.394 320.199 283.067 313.092C287.372 307.7 285.46 296.463 292.148 294.777C314.343 289.182 352.591 315.405 359.944 293.713C366.977 272.965 307.831 283.847 303.105 262.454C298.333 240.854 354.068 227.243 341.273 209.203C328.809 191.627 301.583 241.264 281.89 232.54Z" stroke="#6260FF" stroke-width="1.28384"/>
<path d="M282.715 231.182C263.176 222.527 282.907 179.145 263.181 170.927C247.756 164.502 244.178 197.682 233.851 210.826C227.724 218.623 216.115 223.125 214.479 232.908C212.698 243.56 231.765 254.576 225.112 263.08C211.411 280.592 172.681 272.313 166.857 293.777C162.552 309.639 200.547 300.78 211.578 312.958C221.568 323.988 209.043 350.043 222.847 355.592C237.219 361.37 250.286 342.288 263.181 333.702C271.047 328.464 278.041 322.299 283.939 314.912C288.413 309.307 286.426 297.627 293.377 295.874C316.448 290.059 356.205 317.316 363.848 294.769C371.158 273.202 309.679 284.513 304.766 262.276C299.806 239.824 357.739 225.676 344.441 206.924C331.484 188.655 303.184 240.25 282.715 231.182Z" stroke="#6260FF" stroke-width="1.28384"/>
<path d="M283.537 229.824C263.257 220.84 283.737 175.812 263.262 167.282C247.252 160.612 243.538 195.052 232.819 208.695C226.46 216.788 214.411 221.461 212.712 231.615C210.864 242.671 230.654 254.106 223.749 262.932C209.528 281.109 169.328 272.516 163.282 294.795C158.815 311.259 198.252 302.063 209.701 314.704C220.07 326.152 207.07 353.197 221.397 358.956C236.315 364.953 249.878 345.147 263.262 336.235C271.426 330.798 278.686 324.4 284.807 316.732C289.452 310.914 287.389 298.79 294.605 296.972C318.551 290.936 359.816 319.227 367.749 295.824C375.337 273.439 311.525 285.179 306.426 262.098C301.277 238.794 361.409 224.109 347.605 204.645C334.158 185.683 304.784 239.236 283.537 229.824Z" stroke="#6260FF" stroke-width="1.28384"/>
<path d="M284.36 228.466C263.339 219.153 284.568 172.479 263.344 163.637C246.749 156.723 242.899 192.423 231.788 206.564C225.197 214.953 212.707 219.797 210.946 230.323C209.03 241.783 229.544 253.636 222.386 262.785C207.645 281.626 165.976 272.719 159.709 295.813C155.078 312.879 195.957 303.347 207.825 316.45C218.573 328.317 205.098 356.35 219.949 362.32C235.412 368.537 249.47 348.007 263.344 338.768C271.807 333.133 279.332 326.5 285.677 318.552C290.491 312.521 288.354 299.954 295.833 298.069C320.654 291.812 363.428 321.138 371.651 296.88C379.516 273.676 313.371 285.846 308.086 261.921C302.749 237.763 365.079 222.542 350.771 202.366C336.832 182.71 306.384 238.222 284.36 228.466Z" stroke="#6260FF" stroke-width="1.28384"/>
<path d="M285.184 227.108C263.421 217.467 285.399 169.145 263.426 159.992C246.246 152.834 242.261 189.793 230.758 204.433C223.933 213.118 211.003 218.133 209.181 229.03C207.197 240.895 228.435 253.166 221.024 262.638C205.763 282.144 162.624 272.922 156.137 296.83C151.342 314.499 193.663 304.631 205.949 318.196C217.077 330.481 203.126 359.504 218.501 365.685C234.509 372.12 249.063 350.866 263.426 341.302C272.188 335.467 279.979 328.601 286.547 320.372C291.531 314.129 289.318 301.118 297.061 299.167C322.758 292.689 367.04 323.05 375.553 297.935C383.696 273.913 315.218 286.512 309.746 261.743C304.221 236.733 368.75 220.974 353.937 200.087C339.506 179.738 307.984 237.208 285.184 227.108Z" stroke="#6260FF" stroke-width="1.28384"/>
<path d="M286.008 225.749C263.503 215.78 286.23 165.812 263.509 156.346C245.743 148.945 241.622 187.163 229.727 202.302C222.67 211.283 209.299 216.469 207.415 227.737C205.363 240.006 227.325 252.696 219.662 262.49C203.881 282.661 159.272 273.125 152.564 297.848C147.606 316.119 191.368 305.914 204.073 319.941C215.58 332.646 201.154 362.657 217.053 369.049C233.607 375.704 248.656 353.725 263.509 343.835C272.569 337.802 280.625 330.701 287.417 322.192C292.571 315.736 290.282 302.282 298.289 300.264C324.861 293.566 370.653 324.961 379.456 298.991C387.876 274.149 317.065 287.178 311.407 261.565C305.694 235.703 372.42 219.407 357.103 197.808C342.18 176.765 309.585 236.194 286.008 225.749Z" stroke="#6260FF" stroke-width="1.28384"/>
<path d="M286.831 224.391C263.585 214.093 287.06 162.479 263.591 152.701C245.24 145.056 240.983 184.534 228.696 200.171C221.407 209.449 207.596 214.805 205.649 226.445C203.53 239.118 226.215 252.226 218.3 262.343C201.999 283.178 155.92 273.328 148.991 298.866C143.87 317.739 189.074 307.198 202.197 321.687C214.083 334.81 199.182 365.811 215.604 372.413C232.704 379.287 248.249 356.584 263.591 346.368C272.95 340.136 281.271 332.802 288.288 324.012C293.611 317.343 291.247 303.446 299.517 301.361C326.965 294.442 374.265 326.872 383.358 300.046C392.056 274.386 318.912 287.844 313.067 261.387C307.166 234.673 376.091 217.84 360.269 195.529C344.854 173.793 311.185 235.18 286.831 224.391Z" stroke="#6260FF" stroke-width="1.28384"/>
<path d="M287.656 223.033C263.669 212.407 287.893 159.145 263.675 149.056C244.738 141.166 240.346 181.904 227.667 198.041C220.145 207.614 205.893 213.141 203.885 225.152C201.698 238.23 225.106 251.755 216.939 262.195C200.118 283.696 152.57 273.532 145.419 299.884C140.135 319.359 186.781 308.481 200.323 323.433C212.588 336.975 197.211 368.965 214.157 375.777C231.802 382.871 247.844 359.444 263.675 348.901C273.332 342.47 281.919 334.902 289.159 325.832C294.652 318.951 292.213 304.61 300.747 302.459C329.07 295.319 377.879 328.784 387.262 301.102C396.237 274.623 320.76 288.51 314.729 261.209C308.639 233.643 379.763 216.273 363.436 193.25C347.53 170.821 312.787 234.166 287.656 223.033Z" stroke="#6260FF" stroke-width="1.28384"/>
<path d="M288.48 221.675C263.751 210.72 288.724 155.812 263.757 145.41C244.235 137.277 239.707 179.274 226.636 195.91C218.882 205.779 204.19 211.477 202.119 223.86C199.865 237.341 223.997 251.285 215.577 262.048C198.236 284.213 149.218 273.735 141.846 300.902C136.399 320.978 184.486 309.765 198.447 325.179C211.091 339.14 195.239 372.118 212.709 379.141C230.899 386.454 247.437 362.303 263.757 351.435C273.713 344.805 282.565 337.003 290.029 327.652C295.692 320.558 293.177 305.774 301.975 303.556C331.174 296.196 381.491 330.695 391.164 302.157C400.417 274.86 322.607 289.177 316.389 261.031C310.111 232.613 383.433 214.706 366.602 190.971C350.204 167.848 314.387 233.152 288.48 221.675Z" stroke="#6260FF" stroke-width="1.28384"/>
<path d="M289.303 220.317C263.833 209.033 289.555 152.479 263.839 141.765C243.732 133.388 239.068 176.644 225.606 193.779C217.619 203.944 202.486 209.813 200.353 222.567C198.031 236.453 222.887 250.815 214.214 261.901C196.354 284.73 145.866 273.938 138.273 301.919C132.662 322.598 182.192 311.049 196.571 326.925C209.594 341.304 193.267 375.272 211.261 382.506C229.997 390.038 247.03 365.162 263.839 353.968C274.094 347.139 283.211 339.103 290.899 329.472C296.732 322.165 294.142 306.938 303.203 304.654C333.278 297.072 385.103 332.606 395.067 303.213C404.597 275.097 324.454 289.843 318.05 260.853C311.584 231.583 387.104 213.139 369.768 188.692C352.879 164.876 315.987 232.138 289.303 220.317Z" stroke="#6260FF" stroke-width="1.28384"/>
<path d="M290.127 218.959C263.915 207.346 290.385 149.145 263.922 138.12C243.229 129.499 238.429 174.015 224.575 191.648C216.356 202.109 200.782 208.149 198.588 221.274C196.198 235.565 221.777 250.345 212.852 261.753C194.472 285.248 142.514 274.141 134.7 302.937C128.926 324.218 179.897 312.332 194.695 328.671C208.097 343.469 191.295 378.425 209.813 385.87C229.094 393.621 246.623 368.021 263.922 356.501C274.474 349.474 283.857 341.203 291.769 331.292C297.771 323.772 295.106 308.102 304.431 305.751C335.381 297.949 388.715 334.518 398.969 304.268C408.776 275.334 326.3 290.509 319.71 260.675C313.056 230.552 390.775 211.572 372.934 186.413C355.553 161.904 317.588 231.124 290.127 218.959Z" stroke="#6260FF" stroke-width="1.28384"/>
<path d="M290.95 217.601C263.997 205.66 291.216 145.812 264.004 134.475C242.726 125.61 237.791 171.385 223.544 189.517C215.093 200.274 199.079 206.485 196.822 219.982C194.365 234.676 220.667 249.875 211.49 261.606C192.589 285.765 139.162 274.344 131.127 303.955C125.19 325.838 177.603 313.616 192.819 330.417C206.601 345.633 189.323 381.579 208.364 389.234C228.191 397.205 246.216 370.88 264.004 359.034C274.855 351.808 284.504 343.304 292.639 333.112C298.811 325.38 296.07 309.266 305.66 306.849C337.485 298.826 392.328 336.429 402.871 305.324C412.956 275.571 328.147 291.175 321.37 260.498C314.528 229.522 394.445 210.004 376.1 184.135C358.227 158.931 319.188 230.11 290.95 217.601Z" stroke="#6260FF" stroke-width="1.28384"/>
<path d="M291.774 216.242C264.079 203.973 292.047 142.478 264.086 130.829C242.223 121.72 237.152 168.755 222.514 187.386C213.83 198.439 197.375 204.821 195.056 218.689C192.531 233.788 219.557 249.405 210.128 261.458C190.707 286.282 135.81 274.547 127.555 304.973C121.454 327.458 175.308 314.9 190.943 332.162C205.104 347.798 187.351 384.732 206.916 392.598C227.288 400.788 245.809 373.739 264.086 361.568C275.236 354.143 285.15 345.404 293.509 334.932C299.851 326.987 297.035 310.43 306.888 307.946C339.588 299.702 395.94 338.34 406.773 306.379C417.136 275.807 329.994 291.841 323.031 260.32C316 228.492 398.116 208.437 379.266 181.856C360.901 155.959 320.788 229.096 291.774 216.242Z" stroke="#6260FF" stroke-width="1.28384"/>
<path d="M292.596 214.884C264.16 202.286 292.877 139.145 264.167 127.184C241.719 117.831 236.512 166.125 221.482 185.256C212.565 196.604 195.67 203.157 193.289 217.396C190.697 232.9 218.447 248.934 208.764 261.311C188.824 286.8 132.457 274.75 123.981 305.991C117.716 329.078 173.013 316.183 189.066 333.908C203.606 349.962 185.377 387.886 205.467 395.962C226.384 404.372 245.401 376.599 264.167 364.101C275.616 356.477 285.795 347.505 294.378 336.752C300.89 328.594 297.998 311.594 308.115 309.043C341.691 300.579 399.551 340.251 410.675 307.434C421.314 276.044 331.84 292.507 324.69 260.142C317.471 227.462 401.785 206.87 382.43 179.577C363.574 152.986 322.388 228.082 292.596 214.884Z" stroke="#6260FF" stroke-width="1.28384"/>
<path d="M293.421 213.526C264.244 200.6 293.709 135.812 264.251 123.539C241.217 113.942 235.875 163.496 220.453 183.125C211.303 194.769 193.968 201.493 191.525 216.104C188.865 232.011 217.338 248.464 207.403 261.164C186.943 287.317 129.106 274.953 120.409 307.008C113.981 330.698 170.72 317.467 187.192 335.654C202.111 352.127 183.407 391.039 204.02 399.326C225.482 407.955 244.995 379.458 264.251 366.634C275.998 358.811 286.443 349.605 295.249 338.572C301.931 330.201 298.964 312.758 309.344 310.141C343.796 301.456 403.165 342.163 414.578 308.49C425.495 276.281 333.688 293.174 326.352 259.964C318.944 226.432 405.457 205.303 385.598 177.298C366.25 150.014 323.989 227.068 293.421 213.526Z" stroke="#6260FF" stroke-width="1.28384"/>
<path d="M294.243 212.168C264.324 198.913 294.538 132.478 264.332 119.893C240.713 110.053 235.234 160.866 219.42 180.994C210.039 192.935 192.263 199.829 189.757 214.811C187.03 231.123 216.227 247.994 206.039 261.016C185.059 287.834 125.753 275.156 116.835 308.026C110.244 332.318 168.424 318.75 185.314 337.4C200.612 354.291 181.433 394.193 202.57 402.691C224.578 411.538 244.586 382.317 264.332 369.167C276.377 361.146 287.087 351.706 296.118 340.392C302.969 331.809 299.927 313.922 310.571 311.238C345.898 302.332 406.776 344.074 418.479 309.545C429.674 276.518 335.533 293.84 328.011 259.786C320.415 225.402 409.126 203.736 388.762 175.019C368.923 147.042 325.588 226.054 294.243 212.168Z" stroke="#6260FF" stroke-width="1.28384"/>
<path d="M295.067 210.81C264.407 197.226 295.369 129.145 264.414 116.248C240.21 106.164 234.596 158.236 218.39 178.863C208.776 191.1 190.559 198.165 187.992 213.518C185.197 230.235 215.117 247.524 204.677 260.869C183.177 288.352 122.401 275.359 113.262 309.044C106.507 333.938 166.129 320.034 183.439 339.146C199.116 356.456 179.461 397.347 201.122 406.055C223.675 415.122 244.179 385.176 264.414 371.701C276.758 363.48 287.734 353.806 296.988 342.212C304.009 333.416 300.891 315.086 311.799 312.336C348.002 303.209 410.388 345.985 422.382 310.601C433.854 276.755 337.38 294.506 329.671 259.608C321.887 224.372 412.797 202.169 391.928 172.74C371.597 144.069 327.189 225.04 295.067 210.81Z" stroke="#6260FF" stroke-width="1.28384"/>
<path d="M295.891 209.451C264.489 195.54 296.2 125.812 264.497 112.603C239.707 102.274 233.957 155.606 217.359 176.732C207.513 189.265 188.855 196.501 186.226 212.226C183.363 229.346 214.007 247.054 203.315 260.721C181.295 288.869 119.049 275.562 109.689 310.062C102.771 335.557 163.835 321.318 181.563 340.892C197.619 358.62 177.489 400.5 199.674 409.419C222.773 418.705 243.772 388.035 264.497 374.234C277.139 365.815 288.38 355.906 297.858 344.032C305.049 335.023 301.856 316.249 313.028 313.433C350.106 304.086 414.001 347.896 426.284 311.656C438.033 276.991 339.227 295.172 331.332 259.43C323.36 223.341 416.467 200.601 395.094 170.461C374.271 141.097 328.789 224.026 295.891 209.451Z" stroke="#6260FF" stroke-width="1.28384"/>
<path d="M296.714 208.093C264.571 193.853 297.031 122.478 264.579 108.957C239.204 98.3851 233.318 152.977 216.329 174.601C206.25 187.43 187.152 194.837 184.46 210.933C181.53 228.458 212.897 246.584 201.953 260.574C179.413 289.386 115.698 275.765 106.116 311.08C99.035 337.177 161.541 322.601 179.687 342.638C196.122 360.785 175.517 403.654 198.226 412.783C221.87 422.289 243.365 390.895 264.579 376.767C277.52 368.149 289.026 358.007 298.728 345.852C306.089 336.631 302.82 317.413 314.256 314.53C352.209 304.962 417.613 349.808 430.186 312.712C442.213 277.228 341.074 295.838 332.992 259.252C324.832 222.311 420.138 199.034 398.26 168.182C376.946 138.124 330.389 223.012 296.714 208.093Z" stroke="#6260FF" stroke-width="1.28384"/>
<path d="M297.538 206.735C264.653 192.166 297.862 119.145 264.661 105.312C238.701 94.4958 232.68 150.347 215.298 172.47C204.986 185.595 185.448 193.173 182.695 209.64C179.697 227.57 211.788 246.113 200.591 260.427C177.531 289.904 112.346 275.968 102.543 312.097C95.2989 338.797 159.246 323.885 177.811 344.383C194.626 362.949 173.545 406.807 196.777 416.147C220.967 425.872 242.959 393.754 264.661 379.3C277.9 370.484 289.673 360.107 299.598 347.672C307.129 338.238 303.785 318.577 315.484 315.628C354.313 305.839 421.225 351.719 434.089 313.767C446.393 277.465 342.921 296.504 334.652 259.074C326.304 221.281 423.808 197.467 401.426 165.903C379.62 135.152 331.99 221.998 297.538 206.735Z" stroke="#6260FF" stroke-width="1.28384"/>
<path d="M298.362 205.377C264.735 190.479 298.693 115.812 264.744 101.667C238.198 90.6066 232.041 147.717 214.267 170.34C203.723 183.76 183.745 191.509 180.929 208.348C177.863 226.681 210.678 245.643 199.228 260.279C175.649 290.421 108.994 276.171 98.9703 313.115C91.5627 340.417 156.952 325.168 175.935 346.129C193.129 365.114 171.573 409.961 195.329 419.511C220.064 429.456 242.552 396.613 264.744 381.834C278.281 372.818 290.319 362.208 300.468 349.492C308.168 339.845 304.749 319.741 316.712 316.725C356.417 306.716 424.838 353.63 437.991 314.823C450.573 277.702 344.767 297.171 336.313 258.896C327.776 220.251 427.479 195.9 404.592 163.624C382.294 132.18 333.59 220.984 298.362 205.377Z" stroke="#6260FF" stroke-width="1.28384"/>
<path d="M299.185 204.019C264.817 188.793 299.524 112.478 264.826 98.0215C237.695 86.7175 231.402 145.087 213.237 168.209C202.46 181.925 182.041 189.845 179.163 207.055C176.03 225.793 209.568 245.173 197.866 260.132C173.766 290.938 105.642 276.375 95.3972 314.133C87.8262 342.037 154.657 326.452 174.059 347.875C191.632 367.279 169.601 413.114 193.881 422.876C219.161 433.039 242.144 399.472 264.826 384.367C278.662 375.153 290.965 364.308 301.338 351.313C309.208 341.453 305.713 320.905 317.94 317.823C358.52 307.592 428.45 355.542 441.893 315.878C454.752 277.939 346.614 297.837 337.973 258.719C329.248 219.221 431.149 194.333 407.758 161.345C384.968 129.207 335.19 219.97 299.185 204.019Z" stroke="#6260FF" stroke-width="1.28384"/>
<path d="M300.007 202.661C264.898 187.106 300.354 109.145 264.907 94.3762C237.191 82.8283 230.762 142.458 212.205 166.078C201.196 180.091 180.336 188.181 177.396 205.762C174.195 224.905 208.457 244.703 196.502 259.985C171.883 291.456 102.289 276.578 91.8231 315.151C84.0888 343.657 152.361 327.736 172.182 349.621C190.134 369.443 167.628 416.268 192.431 426.24C218.257 436.623 241.736 402.331 264.907 386.9C279.042 377.487 291.61 366.409 302.207 353.133C310.247 343.06 306.676 322.069 319.167 318.92C360.623 308.469 432.061 357.453 445.795 316.934C458.931 278.176 348.46 298.503 339.632 258.541C330.719 218.191 434.819 192.766 410.922 159.066C387.641 126.235 336.79 218.957 300.007 202.661Z" stroke="#6260FF" stroke-width="1.28384"/>
<path d="M300.831 201.303C264.98 185.419 301.184 105.812 264.989 90.731C236.688 78.9391 230.123 139.828 211.174 163.947C199.933 178.256 178.632 186.517 175.63 204.47C172.362 224.016 207.347 244.233 195.14 259.837C170.001 291.973 98.9369 276.781 88.2502 316.169C80.3526 345.277 150.067 329.019 170.306 351.367C188.637 371.608 165.656 419.421 190.983 429.604C217.354 440.206 241.329 405.191 264.989 389.434C279.423 379.822 292.256 368.509 303.077 354.953C311.287 344.667 307.641 323.233 320.396 320.018C362.726 309.346 435.673 359.364 449.697 317.989C463.111 278.412 350.307 299.169 341.293 258.363C332.191 217.161 438.489 191.198 414.088 156.787C390.316 123.262 338.39 217.943 300.831 201.303Z" stroke="#6260FF" stroke-width="1.28384"/>
<path d="M301.655 199.944C265.062 183.733 302.015 102.478 265.072 87.0856C236.185 75.0499 229.485 137.198 210.143 161.816C198.669 176.421 176.929 184.853 173.865 203.177C170.529 223.128 206.237 243.763 193.778 259.69C168.119 292.49 95.5851 276.984 84.6774 317.186C76.6164 346.897 147.773 330.303 168.431 353.113C187.141 373.772 163.684 422.575 189.535 432.968C216.452 443.79 240.922 408.05 265.072 391.967C279.803 382.156 292.903 370.61 303.947 356.773C312.326 346.274 308.605 324.397 321.624 321.115C364.83 310.222 439.286 361.276 453.599 319.044C467.291 278.649 352.153 299.835 342.953 258.185C333.664 216.13 442.16 189.631 417.254 154.508C392.99 120.29 339.99 216.929 301.655 199.944Z" stroke="#6260FF" stroke-width="1.28384"/>
<path d="M302.478 198.586C265.145 182.046 302.846 99.1448 265.154 83.4403C235.682 71.1607 228.846 134.569 209.113 159.685C197.406 174.586 175.225 183.189 172.099 201.885C168.695 222.24 205.128 243.292 192.416 259.542C166.237 293.008 92.2332 277.187 81.1045 318.204C72.8802 348.517 145.478 331.587 166.555 354.859C185.644 375.937 161.712 425.728 188.087 436.332C215.549 447.373 240.515 410.909 265.154 394.5C280.184 384.49 293.549 372.71 304.817 358.593C313.366 347.882 309.57 325.561 322.852 322.212C366.934 311.099 442.898 363.187 457.502 320.1C471.47 278.886 354 300.502 344.614 258.007C335.136 215.1 445.831 188.064 420.42 152.229C395.664 117.318 341.591 215.915 302.478 198.586Z" stroke="#6260FF" stroke-width="1.28384"/>
<path d="M303.302 197.228C265.227 180.359 303.677 95.8114 265.237 79.795C235.179 67.2714 228.207 131.939 208.082 157.554C196.143 172.751 173.521 181.525 170.333 200.592C166.862 221.351 204.018 242.822 191.054 259.395C164.354 293.525 88.8814 277.39 77.5317 319.222C69.144 350.137 143.184 332.87 164.679 356.605C184.147 378.101 159.74 428.882 186.639 439.696C214.646 450.957 240.108 413.768 265.237 397.033C280.565 386.825 294.195 374.81 305.687 360.413C314.406 349.489 310.534 326.725 324.08 323.31C369.038 311.976 446.51 365.098 461.404 321.155C475.65 279.123 355.847 301.168 346.274 257.829C336.608 214.07 449.501 186.497 423.586 149.95C398.339 114.345 343.191 214.901 303.302 197.228Z" stroke="#6260FF" stroke-width="1.28384"/>
<path d="M304.125 195.87C265.309 178.673 304.508 92.4781 265.319 76.1497C234.676 63.3822 227.568 129.309 207.051 155.424C194.88 170.916 171.818 179.861 168.567 199.299C165.029 220.463 202.908 242.352 189.691 259.247C162.472 294.042 85.5293 277.593 73.9586 320.24C65.4076 351.756 140.889 334.154 162.803 358.35C182.65 380.266 157.767 432.035 185.19 443.061C213.743 454.54 239.701 416.627 265.319 399.567C280.946 389.159 294.841 376.911 306.557 362.233C315.446 351.096 311.499 327.889 325.309 324.407C371.141 312.852 450.123 367.009 465.306 322.211C479.83 279.36 357.694 301.834 347.934 257.651C338.08 213.04 453.172 184.93 426.752 147.671C401.013 111.373 344.791 213.887 304.125 195.87Z" stroke="#6260FF" stroke-width="1.28384"/>
<path d="M304.949 194.512C265.391 176.986 305.339 89.1452 265.401 72.5049C234.173 59.4936 226.929 126.68 206.021 153.293C193.617 169.082 170.114 178.198 166.802 198.007C163.195 219.575 201.798 241.882 188.329 259.101C160.59 294.56 82.1775 277.797 70.3857 321.258C61.6714 353.377 138.595 335.438 160.927 360.097C181.154 382.431 155.795 435.19 183.742 446.425C212.84 458.124 239.294 419.487 265.401 402.1C281.327 391.494 295.488 379.012 307.427 364.053C316.486 352.704 312.463 329.053 326.537 325.505C373.245 313.73 453.735 368.921 469.209 323.267C484.01 279.597 359.541 302.501 349.595 257.474C339.552 212.01 456.842 183.363 429.918 145.393C403.687 108.401 346.392 212.873 304.949 194.512Z" stroke="#6260FF" stroke-width="1.28384"/>
<path d="M305.773 193.154C265.473 175.299 306.17 85.8113 265.483 68.8591C233.67 55.6038 226.291 124.049 204.99 151.162C192.354 167.246 168.41 176.533 165.036 196.714C161.362 218.686 200.688 241.412 186.967 258.953C158.708 295.077 78.8256 277.999 66.8128 322.275C57.9352 354.996 136.3 336.721 159.051 361.842C179.657 384.595 153.823 438.342 182.294 449.789C211.937 461.707 238.887 422.346 265.483 404.633C281.708 393.828 296.134 381.112 308.297 365.873C317.526 354.311 313.428 330.217 327.765 326.602C375.349 314.606 457.347 370.832 473.111 324.322C488.189 279.833 361.388 303.166 351.255 257.295C341.024 210.98 460.513 181.795 433.084 143.113C406.361 105.428 347.992 211.859 305.773 193.154Z" stroke="#6260FF" stroke-width="1.28384"/>
<path d="M306.595 191.795C265.554 173.612 307 82.478 265.565 65.2138C233.166 51.7146 225.651 121.42 203.958 149.031C191.089 165.411 166.705 174.869 163.269 195.421C159.527 217.798 199.578 240.942 185.603 258.805C156.824 295.594 75.4726 278.202 63.2388 323.293C54.1978 356.616 134.005 338.005 157.174 363.588C178.159 386.759 151.85 441.496 180.844 453.153C211.033 465.291 238.479 425.205 265.565 407.166C282.087 396.162 296.779 383.212 309.166 367.693C318.564 355.918 314.391 331.381 328.992 327.699C377.451 315.482 460.959 372.743 477.012 325.377C492.368 280.07 363.233 303.832 352.914 257.117C342.495 209.95 464.182 180.228 436.249 140.834C409.034 102.456 349.591 210.845 306.595 191.795Z" stroke="#6260FF" stroke-width="1.28384"/>
<path d="M307.42 190.437C265.638 171.926 307.832 79.1446 265.648 61.5684C232.664 47.8253 225.013 118.79 202.929 146.9C189.827 163.577 165.003 173.205 161.504 194.129C157.695 216.91 198.469 240.471 184.242 258.658C154.944 296.111 72.1219 278.405 59.6671 324.311C50.4628 358.236 131.712 339.288 155.3 365.334C176.663 388.924 149.879 444.65 179.397 456.517C210.132 468.874 238.073 428.064 265.648 409.699C282.469 398.497 297.426 385.313 310.037 369.513C319.605 357.525 315.356 332.544 330.222 328.797C379.556 316.359 464.572 374.654 480.916 326.433C496.549 280.307 365.081 304.498 354.576 256.939C343.969 208.919 467.854 178.661 439.416 138.555C411.71 99.4832 351.193 209.831 307.42 190.437Z" stroke="#6260FF" stroke-width="1.28384"/>
<path d="M308.242 189.079C265.718 170.239 308.661 75.8112 265.729 57.9232C232.16 43.9362 224.373 116.16 201.897 144.769C188.563 161.742 163.298 171.541 159.737 192.836C155.861 216.021 197.358 240.001 182.879 258.51C153.06 296.629 68.7686 278.608 56.0928 325.329C46.7252 359.856 129.416 340.572 153.422 367.08C175.165 391.088 147.906 447.803 177.948 459.881C209.228 472.457 237.665 430.923 265.729 412.233C282.849 400.831 298.071 387.413 310.906 371.333C320.644 359.132 316.319 333.708 331.448 329.894C381.658 317.236 468.183 376.566 484.817 327.488C500.727 280.544 366.927 305.165 356.235 256.762C345.44 207.889 471.523 177.094 442.58 136.277C414.383 96.5108 352.792 208.817 308.242 189.079Z" stroke="#6260FF" stroke-width="1.28384"/>
<path d="M309.066 187.721C265.8 168.552 309.492 72.4779 265.811 54.2779C231.657 40.047 223.734 113.531 200.866 142.639C187.3 159.907 161.594 169.877 157.972 191.543C154.027 215.133 196.248 239.531 181.516 258.363C151.178 297.146 65.4168 278.812 52.5199 326.347C42.989 361.476 127.121 341.855 151.547 368.826C173.669 393.253 145.934 450.957 176.5 463.246C208.325 476.041 237.258 433.782 265.811 414.766C283.23 403.166 298.718 389.514 311.776 373.153C321.684 360.74 317.284 334.872 332.677 330.992C383.762 318.112 471.795 378.477 488.719 328.544C504.907 280.781 368.774 305.831 357.895 256.584C346.912 206.859 475.194 175.527 445.746 133.998C417.057 93.5384 354.392 207.803 309.066 187.721Z" stroke="#6260FF" stroke-width="1.28384"/>
<path d="M309.892 186.363C265.885 166.866 310.326 69.1445 265.896 50.6325C231.156 36.1577 223.098 110.901 199.838 140.508C186.039 158.072 159.893 168.213 156.208 190.251C152.196 214.245 195.141 239.061 180.157 258.216C149.298 297.663 62.0674 279.015 48.9495 327.364C39.2552 363.096 124.829 343.139 149.673 370.572C172.174 395.418 143.964 454.11 175.054 466.61C207.424 479.624 236.853 436.642 265.896 417.299C283.613 405.5 299.366 391.614 312.649 374.973C322.726 362.347 318.251 336.036 333.907 332.089C385.868 318.989 475.41 380.388 492.624 329.599C509.09 281.017 370.623 306.497 359.558 256.406C348.386 205.829 478.867 173.96 448.915 131.719C419.734 90.566 355.995 206.789 309.892 186.363Z" stroke="#6260FF" stroke-width="1.28384"/>
<path d="M310.713 185.005C265.965 165.179 311.154 65.8117 265.976 46.9878C230.651 32.269 222.457 108.272 198.805 138.377C184.774 156.238 158.187 166.55 154.44 188.958C150.361 213.357 194.028 238.591 178.792 258.069C147.414 298.181 58.7131 279.218 45.3742 328.383C35.5166 364.716 122.533 344.423 147.795 372.318C170.675 397.583 141.99 457.264 173.603 469.974C206.519 483.208 236.444 439.501 265.976 419.833C283.991 407.835 300.01 393.715 313.516 376.793C323.763 363.955 319.213 337.201 335.133 333.187C387.969 319.866 479.02 382.3 496.524 330.655C513.267 281.255 372.467 307.164 361.216 256.228C349.856 204.799 482.535 172.393 452.078 129.44C422.406 87.5941 357.593 205.775 310.713 185.005Z" stroke="#6260FF" stroke-width="1.28384"/>
<path d="M311.539 183.646C266.049 163.492 311.987 62.4779 266.061 43.342C230.15 28.3794 221.821 105.641 197.777 136.246C183.513 154.402 156.486 164.885 152.677 187.665C148.53 212.468 192.921 238.121 177.432 257.921C145.534 298.698 55.3637 279.421 41.8038 329.4C31.7828 366.336 120.241 345.706 145.922 374.063C169.181 399.747 140.02 460.417 172.157 473.338C205.619 486.791 236.04 442.36 266.061 422.366C284.375 410.169 300.659 395.815 314.389 378.613C324.806 365.562 320.18 338.364 336.364 334.284C390.076 320.742 482.635 384.211 500.429 331.71C517.449 281.491 374.316 307.829 362.879 256.05C351.331 203.769 486.208 170.825 455.246 127.161C425.082 84.6213 359.196 204.761 311.539 183.646Z" stroke="#6260FF" stroke-width="1.28384"/>
<path d="M312.361 182.288C266.13 161.806 312.817 59.1444 266.142 39.6967C229.646 24.4901 221.181 103.012 196.745 134.115C182.249 152.567 154.781 163.221 150.91 186.373C146.695 211.58 191.81 237.65 176.069 257.773C143.651 299.215 52.0106 279.624 38.2297 330.418C28.0454 367.955 117.945 346.99 144.045 375.809C167.683 401.911 138.047 463.571 170.708 476.702C204.715 490.375 235.631 445.219 266.142 424.899C284.754 412.503 301.304 397.915 315.258 380.433C325.844 367.169 321.143 339.528 337.591 335.381C392.178 321.619 486.246 386.122 504.33 332.765C521.628 281.728 376.162 308.496 364.538 255.872C352.802 202.738 489.878 169.258 458.411 124.882C427.756 81.6488 360.795 203.747 312.361 182.288Z" stroke="#6260FF" stroke-width="1.28384"/>
<path d="M313.185 180.93C266.213 160.119 313.648 55.8111 266.225 36.0514C229.143 20.6009 220.542 100.382 195.714 131.984C180.986 150.732 153.077 161.557 149.144 185.08C144.862 210.691 190.7 237.18 174.707 257.626C141.768 299.733 48.6588 279.827 34.6569 331.436C24.3092 369.575 115.651 348.273 142.169 377.555C166.186 404.076 136.075 466.724 169.26 480.067C203.812 493.958 235.224 448.078 266.224 427.432C285.135 414.838 301.95 400.016 316.128 382.253C326.884 368.776 322.107 340.692 338.819 336.479C394.282 322.496 489.858 388.034 508.232 333.821C525.808 281.965 378.009 309.162 366.199 255.694C354.274 201.708 493.548 167.691 461.577 122.603C430.43 78.6764 362.396 202.733 313.185 180.93Z" stroke="#6260FF" stroke-width="1.28384"/>
<path d="M314.008 179.572C266.295 158.433 314.479 52.4783 266.307 32.4066C228.64 16.7123 219.903 97.7526 194.684 129.854C179.722 148.898 151.374 159.894 147.378 183.788C143.028 209.803 189.59 236.711 173.344 257.479C139.886 300.251 45.3067 280.031 31.0838 332.454C20.5728 371.196 113.356 349.558 140.293 379.301C164.689 406.241 134.103 469.879 167.811 483.431C202.909 497.542 234.817 450.938 266.307 429.966C285.516 417.173 302.596 402.117 316.997 384.074C327.924 370.384 323.072 341.856 340.047 337.577C396.385 323.373 493.471 389.945 512.135 334.877C529.987 282.202 379.856 309.828 367.859 255.517C355.746 200.679 497.218 166.124 464.743 120.324C433.104 75.7046 363.996 201.719 314.008 179.572Z" stroke="#6260FF" stroke-width="1.28384"/>
<path d="M314.832 178.214C266.377 156.746 315.31 49.1445 266.389 28.7609C228.137 12.8226 219.264 95.1224 193.653 127.723C178.459 147.063 149.67 158.229 145.613 182.495C141.195 208.915 188.481 236.24 171.982 257.331C138.004 300.767 41.9549 280.233 27.5109 333.471C16.8366 372.815 111.062 350.841 138.417 381.047C163.193 408.405 132.131 473.032 166.363 486.795C202.006 501.125 234.41 453.797 266.389 432.499C285.897 419.507 303.243 404.217 317.868 385.893C328.964 371.991 324.036 343.02 341.275 338.674C398.489 324.249 497.083 391.856 516.037 335.932C534.167 282.438 381.702 310.494 369.519 255.339C357.218 199.648 500.889 164.557 467.909 118.045C435.778 72.7317 365.596 200.705 314.832 178.214Z" stroke="#6260FF" stroke-width="1.28384"/>
<path d="M315.656 176.856C266.459 155.059 316.141 45.811 266.471 25.1155C227.634 8.93332 218.626 92.4926 192.622 125.592C177.196 145.228 147.966 156.565 143.847 181.202C139.362 208.026 187.371 235.77 170.62 257.184C136.122 301.285 38.603 280.436 23.9381 334.489C13.1004 374.435 108.767 352.124 136.541 382.793C161.696 410.569 130.159 476.185 164.915 490.159C201.103 504.709 234.003 456.656 266.471 435.032C286.277 421.841 303.889 406.317 318.738 387.713C330.003 373.598 325.001 344.184 342.504 339.771C400.593 325.126 500.695 393.767 519.939 336.987C538.347 282.675 383.549 311.16 371.18 255.161C358.69 198.618 504.56 162.989 471.075 115.766C438.453 69.7593 367.196 199.691 315.656 176.856Z" stroke="#6260FF" stroke-width="1.28384"/>
<path d="M316.479 175.498C266.541 153.373 316.972 42.4782 266.554 21.4707C227.131 5.04465 217.987 89.8634 191.592 123.461C175.933 143.393 146.263 154.902 142.081 179.91C137.529 207.138 186.261 235.3 169.257 257.037C134.24 301.803 35.2512 280.64 20.3652 335.507C9.36422 376.055 106.473 353.408 134.665 384.539C160.199 412.734 128.187 479.339 163.467 493.524C200.201 508.293 233.596 459.516 266.554 437.566C286.658 424.176 304.535 408.418 319.608 389.534C331.043 375.206 325.965 345.348 343.732 340.869C402.696 326.003 504.308 395.679 523.842 338.043C542.527 282.913 385.396 311.827 372.84 254.983C360.163 197.588 508.23 161.423 474.241 113.488C441.127 66.7874 368.797 198.678 316.479 175.498Z" stroke="#6260FF" stroke-width="1.28384"/>
<path d="M317.302 174.139C266.622 151.685 317.801 39.1444 266.635 17.825C226.627 1.15499 217.347 87.2332 190.56 121.33C174.669 141.558 144.558 153.237 140.314 178.617C135.694 206.25 185.15 234.83 167.894 256.889C132.356 302.319 31.8981 280.842 16.7911 336.525C5.6268 377.675 104.177 354.692 132.788 386.284C158.701 414.898 126.214 482.492 162.017 496.887C199.297 511.876 233.188 462.374 266.635 440.099C287.038 426.51 305.18 410.518 320.477 391.353C332.082 376.813 326.928 346.512 344.959 341.966C404.799 326.879 507.919 397.59 527.743 339.098C546.705 283.149 387.242 312.493 374.5 254.805C361.634 196.558 511.9 159.855 477.406 111.208C443.8 63.8145 370.396 197.663 317.302 174.139Z" stroke="#6260FF" stroke-width="1.28384"/>
<path d="M318.125 172.781C266.704 149.999 318.632 35.8109 266.717 14.1796C226.124 -2.73429 216.708 84.6034 189.529 119.199C173.405 139.723 142.854 151.573 138.548 177.324C133.86 205.361 184.04 234.359 166.532 256.742C130.474 302.837 28.546 281.045 13.218 337.542C1.89037 379.295 101.883 355.975 130.912 388.03C157.204 417.063 124.242 485.646 160.569 500.252C198.394 515.459 232.781 465.233 266.717 442.632C287.419 428.845 305.826 412.619 321.346 393.173C333.122 378.42 327.893 347.675 346.187 343.063C406.902 327.756 511.531 399.501 531.645 340.153C550.885 283.386 389.088 313.159 376.16 254.627C363.106 195.527 515.57 158.288 480.571 108.929C446.474 60.8421 371.996 196.649 318.125 172.781Z" stroke="#6260FF" stroke-width="1.28384"/>
<path d="M318.949 171.423C266.786 148.312 319.463 32.4781 266.799 10.5349C225.621 -6.62297 216.069 81.9742 188.498 117.069C172.142 137.889 141.15 149.91 136.783 176.032C132.027 204.473 182.93 233.89 165.169 256.595C128.592 303.355 25.1942 281.249 9.64516 338.561C-1.84583 380.915 99.5882 357.259 129.036 389.777C155.708 419.228 122.27 488.8 159.121 503.616C197.491 519.043 232.374 468.093 266.799 445.166C287.799 431.18 306.473 414.72 322.216 394.994C334.162 380.028 328.857 348.84 347.415 344.161C409.006 328.633 515.143 401.413 535.547 341.209C555.065 283.623 390.935 313.825 377.82 254.45C364.578 194.498 519.241 156.721 483.737 106.651C449.148 57.8702 373.597 195.636 318.949 171.423Z" stroke="#6260FF" stroke-width="1.28384"/>
<path d="M319.772 170.065C266.868 146.626 320.294 29.1448 266.882 6.88961C225.118 -10.5121 215.431 79.3445 187.468 114.938C170.879 136.054 139.447 148.246 135.017 174.739C130.194 203.585 181.821 233.419 163.807 256.448C126.71 303.872 21.8423 281.452 6.0723 339.579C-5.58202 382.535 97.2938 358.543 127.16 391.523C154.211 421.393 120.298 491.953 157.673 506.98C196.588 522.627 231.967 470.952 266.882 447.699C288.18 433.514 307.119 416.82 323.087 396.814C335.201 381.635 329.822 350.004 348.643 345.259C411.11 329.51 518.756 403.324 539.45 342.265C559.244 283.86 392.782 314.492 379.481 254.272C366.05 193.468 522.911 155.154 486.903 104.372C451.823 54.8979 375.197 194.622 319.772 170.065Z" stroke="#6260FF" stroke-width="1.28384"/>
</svg>
