<svg width="387" height="391" viewBox="0 0 387 391" fill="none" xmlns="http://www.w3.org/2000/svg">
<path fill-rule="evenodd" clip-rule="evenodd" d="M192.257 155.746C199.217 155.719 206.731 148.161 212.568 151.981C218.876 156.11 217.139 166.166 219.28 173.433C220.7 178.255 220.461 183.593 223.129 187.844C226.87 193.804 235.697 196.004 237.69 202.765C239.548 209.069 235.531 215.616 233.116 221.725C230.478 228.402 229.778 238.735 222.832 240.361C214.262 242.366 207.278 232.599 198.957 229.718C194.775 228.27 189.821 229.857 186.002 227.608C182.297 225.425 182.275 218.772 178.178 217.481C171.36 215.331 163.265 221.93 157.002 218.465C151.936 215.661 151.842 208.075 150.82 202.341C149.761 196.397 147.76 189.545 150.934 184.422C154.285 179.012 163.992 180.789 167.471 175.462C171.841 168.77 165.777 157.101 172.016 152.138C177.454 147.813 185.33 155.773 192.257 155.746Z" stroke="#6260FF" stroke-width="1.28384"/>
<path fill-rule="evenodd" clip-rule="evenodd" d="M187.485 22.4306C217.6 22.3139 250.114 -10.4367 275.37 6.11807C302.667 24.0107 295.152 67.5846 304.413 99.0755C310.558 119.97 309.527 143.103 321.071 161.523C337.259 187.351 375.453 196.883 384.076 226.179C392.116 253.496 374.734 281.868 364.286 308.342C352.869 337.273 349.842 382.053 319.784 389.096C282.7 397.785 252.481 355.462 216.477 342.976C198.378 336.7 176.942 343.578 160.419 333.833C144.384 324.376 144.289 295.546 126.564 289.949C97.0603 280.634 62.0306 309.23 34.9334 294.213C13.0085 282.063 12.6047 249.191 8.18223 224.346C3.59726 198.587 -5.05728 168.893 8.67499 146.693C23.1742 123.253 65.1803 130.949 80.2323 107.867C99.1411 78.8705 72.9021 28.3053 99.9008 6.79845C123.43 -11.9444 157.51 22.5469 187.485 22.4306Z" stroke="#6260FF" stroke-width="1.28384"/>
<path d="M213.799 149.119C207.581 145.049 199.577 153.101 192.163 153.13C184.784 153.158 176.394 144.679 170.602 149.287C163.955 154.574 170.415 167.006 165.76 174.135C162.054 179.809 151.714 177.917 148.144 183.68C144.764 189.138 146.894 196.438 148.023 202.771C149.112 208.879 149.211 216.961 154.608 219.948C161.279 223.64 169.903 216.61 177.166 218.9C181.529 220.276 181.553 227.364 185.5 229.689C189.568 232.085 194.845 230.394 199.3 231.937C208.164 235.006 215.603 245.412 224.732 243.275C232.132 241.544 232.877 230.535 235.688 223.422C238.26 216.913 242.539 209.938 240.56 203.222C238.437 196.019 229.034 193.676 225.049 187.326C222.207 182.797 222.461 177.11 220.948 171.973C218.669 164.231 220.518 153.518 213.799 149.119Z" stroke="#6260FF" stroke-width="1.28384"/>
<path d="M215.031 146.261C208.433 141.941 199.939 150.487 192.071 150.518C184.24 150.548 175.336 141.548 169.189 146.439C162.136 152.051 168.991 165.245 164.051 172.811C160.118 178.834 149.144 176.826 145.356 182.942C141.769 188.735 144.03 196.483 145.227 203.204C146.383 209.687 146.488 218.265 152.216 221.435C159.296 225.354 168.447 217.892 176.155 220.323C180.786 221.783 180.811 229.306 185 231.774C189.317 234.316 194.917 232.522 199.645 234.159C209.052 237.417 216.946 248.461 226.635 246.194C234.487 244.356 235.278 232.671 238.261 225.122C240.991 218.214 245.532 210.811 243.431 203.683C241.179 196.038 231.2 193.551 226.971 186.812C223.955 182.005 224.224 175.969 222.619 170.517C220.2 162.3 222.163 150.93 215.031 146.261Z" stroke="#6260FF" stroke-width="1.28384"/>
<path d="M216.262 143.4C209.283 138.831 200.299 147.87 191.977 147.903C183.694 147.935 174.277 138.414 167.775 143.588C160.314 149.524 167.565 163.481 162.34 171.485C158.18 177.856 146.573 175.731 142.566 182.201C138.772 188.329 141.163 196.525 142.43 203.635C143.652 210.493 143.764 219.566 149.822 222.919C157.31 227.064 166.99 219.171 175.143 221.743C180.041 223.287 180.067 231.245 184.498 233.855C189.064 236.545 194.987 234.647 199.988 236.379C209.937 239.825 218.288 251.507 228.535 249.109C236.841 247.165 237.678 234.805 240.833 226.819C243.72 219.512 248.523 211.681 246.301 204.141C243.918 196.055 233.364 193.424 228.891 186.294C225.701 181.21 225.986 174.825 224.288 169.058C221.729 160.366 223.805 148.339 216.262 143.4Z" stroke="#6260FF" stroke-width="1.28384"/>
<path d="M217.493 140.541C210.133 135.722 200.658 145.256 191.882 145.29C183.147 145.324 173.216 135.283 166.36 140.739C158.492 147 166.138 161.72 160.628 170.161C156.242 176.88 144.001 174.639 139.776 181.463C135.774 187.925 138.296 196.569 139.632 204.068C140.921 211.3 141.039 220.869 147.428 224.406C155.324 228.777 165.532 220.453 174.129 223.165C179.295 224.794 179.322 233.187 183.995 235.94C188.81 238.776 195.057 236.774 200.331 238.601C210.823 242.236 219.629 254.556 230.435 252.027C239.194 249.976 240.076 236.941 243.403 228.519C246.448 220.812 251.513 212.553 249.17 204.601C246.657 196.073 235.528 193.298 230.81 185.78C227.446 180.418 227.747 173.684 225.956 167.601C223.257 158.434 225.447 145.75 217.493 140.541Z" stroke="#6260FF" stroke-width="1.28384"/>
<path d="M218.725 137.68C210.985 132.611 201.02 142.639 191.79 142.675C182.603 142.71 172.158 132.149 164.947 137.888C156.672 144.473 164.714 159.956 158.919 168.834C154.306 175.901 141.432 173.545 136.988 180.722C132.779 187.519 135.432 196.611 136.837 204.498C138.192 212.105 138.316 222.17 145.036 225.89C153.34 230.488 164.076 221.732 173.119 224.585C178.551 226.298 178.58 235.125 183.495 238.021C188.559 241.005 195.129 238.899 200.676 240.821C211.71 244.643 220.972 257.602 232.338 254.942C241.55 252.785 242.478 239.074 245.977 230.216C249.179 222.11 254.506 213.423 252.042 205.059C249.399 196.089 237.694 193.171 232.732 185.262C229.194 179.623 229.51 172.539 227.627 166.142C224.788 156.5 227.091 143.158 218.725 137.68Z" stroke="#6260FF" stroke-width="1.28384"/>
<path d="M219.957 134.821C211.835 129.503 201.38 140.024 191.696 140.062C182.058 140.099 171.099 129.018 163.533 135.04C154.851 141.949 163.288 158.194 157.208 167.51C152.368 174.925 138.86 172.453 134.198 179.983C129.782 187.115 132.565 196.655 134.04 204.93C135.462 212.913 135.592 223.473 142.642 227.377C151.355 232.201 162.619 223.014 172.106 226.007C177.806 227.805 177.837 237.067 182.993 240.105C188.306 243.236 195.199 241.026 201.019 243.043C212.596 247.054 222.314 260.651 234.238 257.859C243.904 255.597 244.877 241.21 248.548 231.916C251.908 223.411 257.498 214.296 254.912 205.52C252.139 196.108 239.858 193.045 234.652 184.748C230.94 178.83 231.272 171.398 229.296 164.685C226.318 154.568 228.734 140.569 219.957 134.821Z" stroke="#6260FF" stroke-width="1.28384"/>
<path d="M221.188 131.96C212.686 126.392 201.74 137.407 191.602 137.447C181.512 137.486 170.039 125.884 162.118 132.189C153.029 139.422 161.862 156.43 155.497 166.183C150.43 173.947 136.289 171.358 131.408 179.242C126.785 186.709 129.699 196.697 131.242 205.361C132.731 213.717 132.867 224.774 140.248 228.861C149.37 233.911 161.162 224.293 171.094 227.426C177.061 229.309 177.093 239.006 182.491 242.187C188.053 245.464 195.269 243.151 201.362 245.262C213.482 249.461 223.655 263.697 236.139 260.774C246.257 258.405 247.277 243.344 251.12 233.613C254.637 224.708 260.489 215.165 257.782 205.977C254.879 196.123 242.022 192.918 236.572 184.23C232.686 178.035 233.033 170.254 230.965 163.226C227.847 152.634 230.377 137.978 221.188 131.96Z" stroke="#6260FF" stroke-width="1.28384"/>
<path d="M222.42 129.102C213.538 123.284 202.102 134.793 191.51 134.834C180.968 134.875 168.981 122.754 160.706 129.341C151.21 136.899 160.438 154.669 153.788 164.859C148.494 172.971 133.72 170.267 128.62 178.504C123.79 186.306 126.834 196.742 128.447 205.794C130.002 214.525 130.144 226.078 137.856 230.348C147.386 235.625 159.707 225.576 170.083 228.849C176.318 230.816 176.351 240.948 181.991 244.271C187.802 247.696 195.341 245.279 201.707 247.485C214.37 251.872 224.998 266.746 238.041 263.693C248.613 261.217 249.678 245.48 253.693 235.313C257.368 226.009 263.482 216.038 260.654 206.438C257.621 196.143 244.188 192.793 238.494 183.716C234.434 177.243 234.796 169.113 232.635 161.77C229.378 150.703 232.021 135.39 222.42 129.102Z" stroke="#6260FF" stroke-width="1.28384"/>
<path d="M223.651 126.24C214.388 120.172 202.462 132.176 191.416 132.219C180.422 132.261 167.921 119.62 159.291 126.489C149.388 134.372 159.012 152.905 152.077 163.532C146.556 171.992 131.149 169.172 125.83 177.763C120.794 185.899 123.968 196.783 125.65 206.224C127.272 215.33 127.42 227.378 135.462 231.831C145.401 237.335 158.249 226.854 169.071 230.268C175.572 232.32 175.607 242.886 181.489 246.353C187.549 249.924 195.412 247.403 202.05 249.704C215.256 254.28 226.34 269.792 239.942 266.607C250.967 264.026 252.077 247.613 256.265 237.01C260.097 227.306 266.473 216.908 263.524 206.896C260.361 196.158 246.352 192.665 240.414 183.198C236.18 176.447 236.558 167.968 234.304 160.31C230.907 148.768 233.663 132.798 223.651 126.24Z" stroke="#6260FF" stroke-width="1.28384"/>
<path d="M224.882 123.382C215.238 117.064 202.822 129.562 191.322 129.606C179.876 129.651 166.861 116.489 157.877 123.641C147.567 131.848 157.586 151.144 150.366 162.209C144.618 171.017 128.577 168.08 123.04 177.025C117.797 185.496 121.101 196.828 122.852 206.657C124.541 216.138 124.695 228.682 133.068 233.318C143.415 239.049 156.792 228.137 168.058 231.691C174.827 233.827 174.863 244.829 180.987 248.437C187.296 252.156 195.482 249.531 202.393 251.926C216.142 256.691 227.681 272.841 241.842 269.525C253.32 266.838 254.476 249.75 258.836 238.71C262.826 228.607 269.464 217.781 266.393 207.357C263.1 196.177 248.516 192.54 242.334 182.684C237.926 175.655 238.319 166.827 235.973 158.854C232.436 146.837 235.306 130.209 224.882 123.382Z" stroke="#6260FF" stroke-width="1.28384"/>
<path d="M226.113 120.52C216.088 113.953 203.181 126.944 191.228 126.991C179.329 127.037 165.801 113.355 156.462 120.79C145.745 129.321 156.16 149.379 148.654 160.882C142.679 170.038 126.005 166.985 120.25 176.283C114.799 185.09 118.235 196.869 120.055 207.087C121.81 216.942 121.97 229.982 130.673 234.802C141.429 240.758 155.334 229.415 167.045 233.11C174.081 235.33 174.119 246.767 180.484 250.518C187.043 254.384 195.551 251.656 202.735 254.145C217.027 259.098 229.022 275.887 243.742 272.44C255.674 269.646 256.875 251.883 261.407 240.406C265.554 229.905 272.454 218.65 269.263 207.814C265.84 196.193 250.679 192.412 244.253 182.166C239.671 174.859 240.08 165.683 237.641 157.394C233.965 144.902 236.948 127.617 226.113 120.52Z" stroke="#6260FF" stroke-width="1.28384"/>
<path d="M227.346 117.662C216.94 110.845 203.543 124.33 191.135 124.378C178.785 124.426 164.743 110.224 155.049 117.942C143.925 126.797 154.736 147.618 146.945 159.558C140.743 169.063 123.436 165.894 117.462 175.545C111.804 184.687 115.37 196.914 117.259 207.52C119.081 217.75 119.248 231.286 128.281 236.289C139.446 242.472 153.879 230.698 166.035 234.533C173.338 236.838 173.377 248.709 179.984 252.603C186.792 256.616 195.623 253.784 203.08 256.368C217.915 261.509 230.366 278.936 245.645 275.358C258.029 272.458 259.277 254.02 263.981 242.107C268.285 231.206 275.447 219.523 272.134 208.275C268.582 196.212 252.845 192.287 246.175 181.652C241.419 174.067 241.844 164.542 239.312 155.938C235.496 142.971 238.592 125.029 227.346 117.662Z" stroke="#6260FF" stroke-width="1.28384"/>
<path d="M228.576 114.8C217.79 107.734 203.903 121.713 191.041 121.763C178.239 121.813 163.683 107.09 153.634 115.091C142.103 124.271 153.31 145.854 145.234 158.231C138.805 168.084 120.865 164.799 114.672 174.804C108.807 184.28 112.504 196.955 114.462 207.95C116.351 218.555 116.523 232.587 125.887 237.773C137.46 244.183 152.421 231.977 165.022 235.953C172.593 238.342 172.633 250.648 179.482 254.685C186.538 258.844 195.694 255.908 203.423 258.587C218.801 263.917 231.707 281.982 247.545 278.273C260.383 275.267 261.676 256.153 266.552 243.804C271.014 232.503 278.438 220.393 275.004 208.733C271.321 196.228 255.009 192.159 248.095 181.134C243.165 173.272 243.605 163.397 240.981 154.479C237.025 141.037 240.235 122.438 228.576 114.8Z" stroke="#6260FF" stroke-width="1.28384"/>
<path d="M229.807 111.941C218.64 104.625 204.263 119.099 190.947 119.15C177.693 119.202 162.624 103.959 152.22 112.242C140.282 121.747 151.884 144.093 143.523 156.907C136.867 167.108 118.294 163.707 111.882 174.066C105.81 183.877 109.637 196.999 111.665 208.383C113.62 219.363 113.799 233.89 123.493 239.259C135.475 245.896 150.964 233.259 164.01 237.375C171.847 239.849 171.889 252.59 178.979 256.769C186.285 261.075 195.764 258.036 203.767 260.809C219.687 266.327 233.048 285.031 249.446 281.191C262.737 278.079 264.075 258.289 269.124 245.503C273.743 233.804 281.429 221.265 277.874 209.193C274.061 196.246 257.173 192.034 250.015 180.619C244.91 172.479 245.366 162.256 242.649 153.022C238.555 139.105 241.877 119.849 229.807 111.941Z" stroke="#6260FF" stroke-width="1.28384"/>
<path d="M231.038 109.08C219.49 101.514 204.623 116.482 190.853 116.535C177.147 116.588 161.564 100.825 150.805 109.391C138.46 119.22 150.458 142.329 141.812 155.581C134.929 166.13 115.722 162.612 109.093 173.325C102.813 183.47 106.771 197.041 108.867 208.813C110.889 220.168 111.074 235.191 121.099 240.743C133.489 247.606 149.507 234.538 162.997 238.795C171.102 241.353 171.145 254.528 178.477 258.85C186.032 263.304 195.834 260.161 204.11 263.029C220.572 268.735 234.39 288.077 251.347 284.106C265.09 280.887 266.475 260.422 271.695 247.201C276.472 235.101 284.42 222.135 280.744 209.651C276.801 196.262 259.337 191.906 251.935 180.102C246.656 171.684 247.128 161.112 244.318 151.563C240.084 137.171 243.52 117.257 231.038 109.08Z" stroke="#6260FF" stroke-width="1.28384"/>
<path d="M232.271 106.222C220.342 98.4065 204.985 113.868 190.761 113.923C176.603 113.978 160.506 97.6947 149.393 106.543C136.641 116.696 149.034 140.568 140.103 154.257C132.993 165.154 113.153 161.521 106.305 172.587C99.8185 183.067 103.906 197.086 106.072 209.246C108.161 220.976 108.351 236.495 118.707 242.231C131.506 249.32 148.051 235.82 161.986 240.218C170.359 242.86 170.403 256.471 177.977 260.935C185.781 265.536 195.906 262.289 204.454 265.252C221.46 271.146 235.733 291.127 253.249 287.024C267.446 283.699 268.876 262.559 274.268 248.901C279.203 236.403 287.413 223.008 283.616 210.112C279.543 196.281 261.503 191.782 253.857 179.588C248.404 170.892 248.891 159.971 245.989 150.107C241.615 135.24 245.164 114.669 232.271 106.222Z" stroke="#6260FF" stroke-width="1.28384"/>
<path d="M233.502 103.36C221.192 95.2949 205.345 111.25 190.667 111.307C176.057 111.364 159.446 94.5604 147.978 103.692C134.819 114.169 147.607 138.804 138.391 152.93C131.055 164.175 110.581 160.426 103.514 171.845C96.8211 182.661 101.039 197.127 103.274 209.676C105.43 221.78 105.626 237.795 116.313 243.714C129.52 251.03 146.593 237.099 160.973 241.637C169.613 244.363 169.659 258.409 177.475 263.016C185.528 267.764 195.976 264.413 204.797 267.471C222.346 273.553 237.074 294.172 255.149 289.939C269.799 286.508 271.275 264.692 276.839 250.597C281.932 237.7 290.404 223.878 286.485 210.569C282.282 196.297 263.667 191.653 255.776 179.07C250.15 170.096 250.652 158.826 247.657 148.647C243.144 133.305 246.806 112.077 233.502 103.36Z" stroke="#6260FF" stroke-width="1.28384"/>
<path d="M234.733 100.499C222.042 92.1839 205.705 108.633 190.572 108.692C175.511 108.75 158.386 91.4267 146.563 100.84C132.997 111.643 146.181 137.04 136.68 151.603C129.117 163.197 108.01 159.331 100.724 171.104C93.8241 182.255 98.1729 197.169 100.477 210.106C102.699 222.585 102.902 239.095 113.919 245.198C127.534 252.74 145.136 238.378 159.961 243.057C168.867 245.868 168.915 260.348 176.972 265.098C185.275 269.992 196.046 266.538 205.14 269.69C223.231 275.961 238.416 297.219 257.05 292.854C272.153 289.317 273.674 266.826 279.411 252.295C284.66 238.998 293.395 224.747 289.355 211.027C285.022 196.313 265.831 191.525 257.696 178.553C251.895 169.301 252.414 157.682 249.326 147.188C244.673 131.371 248.448 109.486 234.733 100.499Z" stroke="#6260FF" stroke-width="1.28384"/>
<path d="M235.965 97.6401C222.894 89.0755 206.067 106.019 190.48 106.079C174.967 106.139 157.328 88.2955 145.151 97.992C131.177 109.118 144.757 135.278 134.971 150.279C127.181 162.221 105.441 158.239 97.9364 170.366C90.8292 181.851 95.3084 197.213 97.6813 210.539C99.9702 223.393 100.179 240.399 111.527 246.685C125.551 254.453 143.681 239.66 158.95 244.479C168.124 247.374 168.173 262.289 176.472 267.182C185.024 272.223 196.118 268.665 205.485 271.912C224.119 278.371 239.759 300.267 258.952 295.772C274.508 292.128 276.075 268.962 281.984 253.994C287.391 240.298 296.388 225.62 292.227 211.488C287.764 196.331 267.996 191.4 259.618 178.038C253.643 168.509 254.177 156.541 250.997 145.731C246.204 129.439 250.093 106.897 235.965 97.6401Z" stroke="#6260FF" stroke-width="1.28384"/>
<path d="M237.196 94.7787C223.744 85.9644 206.426 103.402 190.386 103.464C174.421 103.526 156.268 85.1617 143.736 95.1409C129.356 106.592 143.331 133.514 133.26 148.953C125.243 161.242 102.869 157.145 95.1465 169.625C87.8322 181.445 92.4419 197.255 94.884 210.969C97.2396 224.198 97.4546 241.699 109.133 248.169C123.565 256.164 142.223 240.939 157.938 245.899C167.379 248.878 167.429 264.228 175.97 269.264C184.771 274.452 196.188 270.79 205.828 274.132C225.005 280.779 241.1 303.313 260.853 298.687C276.862 294.937 278.475 271.095 284.556 255.691C290.12 241.596 299.379 226.49 295.096 211.946C290.503 196.347 270.16 191.272 261.538 177.52C255.389 167.713 255.938 155.396 252.666 144.272C247.733 127.505 251.735 104.305 237.196 94.7787Z" stroke="#6260FF" stroke-width="1.28384"/>
<path d="M238.427 91.9206C224.595 82.8566 206.786 100.788 190.292 100.852C173.875 100.915 155.209 82.0312 142.322 92.2931C127.534 104.068 141.905 131.753 131.549 147.629C123.305 160.267 100.298 156.053 92.3566 168.887C84.8353 181.042 89.5755 197.3 92.0867 211.403C94.5089 225.006 94.7301 243.003 106.738 249.656C121.58 257.878 140.766 242.221 156.925 247.321C166.633 250.386 166.685 266.171 175.468 271.348C184.518 276.684 196.258 272.918 206.171 276.354C225.891 283.19 242.442 306.363 262.753 301.605C279.216 297.749 280.874 273.232 287.127 257.392C292.849 242.897 302.37 227.363 297.966 212.407C293.243 196.366 272.324 191.148 263.458 177.006C257.135 166.921 257.7 154.256 254.334 142.816C249.262 125.574 253.378 101.717 238.427 91.9206Z" stroke="#6260FF" stroke-width="1.28384"/>
<path d="M239.66 89.0587C225.447 79.745 207.148 98.1703 190.2 98.236C173.331 98.3014 154.151 78.8968 140.909 89.4414C125.715 101.541 140.481 129.989 129.84 146.302C121.369 159.288 97.7286 154.958 89.5686 168.145C81.8404 180.635 86.711 197.341 89.2913 211.832C91.7802 225.81 92.0075 244.304 104.346 251.139C119.596 259.587 139.31 243.5 155.915 248.741C165.89 251.889 165.943 268.109 174.968 273.429C184.267 278.912 196.33 275.042 206.516 278.573C226.779 285.597 243.785 309.408 264.656 304.52C281.571 300.557 283.275 275.365 289.701 259.088C295.58 244.194 305.363 228.232 300.838 212.864C295.985 196.382 274.49 191.019 265.38 176.488C258.883 166.126 259.463 153.111 256.005 141.356C250.793 123.639 255.022 99.1249 239.66 89.0587Z" stroke="#6260FF" stroke-width="1.28384"/>
<path d="M240.891 86.2004C226.297 76.6371 207.508 95.5564 190.106 95.6238C172.785 95.691 153.091 75.7662 139.494 86.5935C123.893 99.0175 139.055 128.228 128.129 144.978C119.431 158.313 95.1573 153.867 86.7788 167.407C78.8434 180.232 83.8445 197.386 86.494 212.266C89.0496 226.618 89.2829 245.607 101.952 252.626C117.611 261.301 137.853 244.782 154.902 250.163C165.145 253.396 165.2 270.051 174.466 275.514C184.014 281.143 196.401 277.17 206.859 280.796C227.665 288.008 245.127 312.458 266.556 307.438C283.925 303.369 285.675 277.501 292.272 260.788C298.309 245.495 308.354 229.105 303.708 213.325C298.725 196.401 276.654 190.895 267.3 175.974C260.629 165.334 261.225 151.97 257.674 139.9C252.322 121.708 256.665 96.5366 240.891 86.2004Z" stroke="#6260FF" stroke-width="1.28384"/>
<path d="M242.121 83.3385C227.147 73.5255 207.868 92.9388 190.011 93.008C172.238 93.0769 152.031 72.6318 138.079 83.7418C122.071 96.4902 137.629 126.463 126.417 143.651C117.492 157.334 92.5855 152.772 83.9884 166.666C75.846 179.825 80.9776 197.427 83.6962 212.695C86.3184 227.423 86.5579 246.908 99.5579 254.11C115.625 263.011 136.395 246.061 153.889 251.583C164.399 254.9 164.455 271.989 173.963 277.595C183.76 283.371 196.47 279.295 207.202 283.015C228.55 290.415 246.468 315.503 268.456 310.353C286.278 306.178 288.073 279.634 294.843 262.485C301.038 246.792 311.345 229.974 306.577 213.782C301.464 196.416 278.818 190.766 269.219 175.456C262.374 164.538 262.986 150.825 259.342 138.44C253.851 119.773 258.307 93.9446 242.121 83.3385Z" stroke="#6260FF" stroke-width="1.28384"/>
<path d="M243.352 80.4803C227.997 70.4176 208.228 90.3248 189.917 90.3958C171.692 90.4664 150.971 69.5012 136.665 80.8939C120.249 93.9667 136.203 124.702 124.706 142.328C115.554 156.358 90.0142 151.68 81.1985 165.928C72.8491 179.422 78.1112 197.471 80.8989 213.128C83.5878 228.231 83.8333 248.211 97.1639 255.597C113.639 264.725 134.938 247.343 152.876 253.005C163.654 256.407 163.711 273.931 173.461 279.68C183.507 285.603 196.54 281.423 207.545 285.237C229.436 292.826 247.809 318.553 270.357 313.271C288.632 308.99 290.473 281.771 297.414 264.185C303.767 248.093 314.336 230.847 309.447 214.243C304.204 196.435 280.982 190.642 271.139 174.942C264.12 163.746 264.747 149.684 261.011 136.984C255.38 117.842 259.949 91.3562 243.352 80.4803Z" stroke="#6260FF" stroke-width="1.28384"/>
<path d="M244.585 77.619C228.849 67.3066 208.59 87.7078 189.825 87.7806C171.148 87.853 149.913 66.3675 135.252 78.0429C118.43 91.44 134.779 122.938 122.997 141.001C113.618 155.38 87.4449 150.585 78.4105 165.187C69.8541 179.016 75.2467 197.513 78.1035 213.559C80.8591 229.036 81.1107 249.512 94.7719 257.081C111.656 266.435 133.482 248.622 151.866 254.425C162.91 257.911 162.969 275.87 172.961 281.761C183.256 287.832 196.612 283.547 207.89 287.457C230.323 295.234 249.152 321.599 272.259 316.186C290.988 311.799 292.874 283.904 299.988 265.882C306.498 249.391 317.329 231.717 312.319 214.701C306.946 196.451 283.148 190.514 273.061 174.425C265.868 162.951 266.51 148.54 262.682 135.525C256.911 115.908 261.593 88.7648 244.585 77.619Z" stroke="#6260FF" stroke-width="1.28384"/>
<path d="M245.816 74.7603C229.699 64.1982 208.95 85.0934 189.731 85.1679C170.602 85.242 148.853 63.2363 133.838 75.1944C116.608 88.916 133.353 121.177 121.286 139.677C111.68 154.404 84.8736 149.494 75.6207 164.448C66.8572 178.612 72.3802 197.557 75.3062 213.991C78.1285 229.843 78.3861 250.816 92.3779 258.568C109.67 268.148 132.025 249.904 150.853 255.847C162.165 259.418 162.225 277.812 172.459 283.846C183.003 290.063 196.683 285.675 208.233 289.679C231.209 297.645 250.494 324.648 274.16 319.104C293.341 314.61 295.273 286.04 302.559 267.582C309.227 250.691 320.32 232.59 315.189 215.161C309.686 196.47 285.312 190.389 274.981 173.91C267.614 162.158 268.272 147.399 264.351 134.068C258.441 113.977 263.236 86.176 245.816 74.7603Z" stroke="#6260FF" stroke-width="1.28384"/>
<path d="M247.047 71.899C230.549 61.0873 209.31 82.4764 189.637 82.5526C170.056 82.6286 147.793 60.1026 132.423 72.3434C114.787 86.3893 131.927 119.413 119.575 138.35C109.742 153.425 82.3023 148.399 72.8308 163.707C63.8603 178.206 69.5138 197.599 72.5089 214.422C75.3978 230.648 75.6616 252.116 89.9839 260.052C107.685 269.859 130.568 251.183 149.841 257.267C161.42 260.922 161.482 279.751 171.957 285.927C182.75 292.291 196.753 287.8 208.576 291.899C232.095 300.053 251.835 327.694 276.06 322.019C295.695 317.419 297.673 288.174 305.131 269.279C311.956 251.989 323.311 233.46 318.058 215.619C312.425 196.486 287.476 190.261 276.901 173.393C269.36 161.363 270.033 146.255 266.019 132.609C259.97 112.042 264.878 83.5846 247.047 71.899Z" stroke="#6260FF" stroke-width="1.28384"/>
<path d="M248.28 69.0407C231.401 57.9792 209.671 79.8623 189.545 79.9403C169.512 80.018 146.735 56.9718 131.011 69.4953C112.967 83.8656 130.503 117.652 117.866 137.027C107.806 152.45 79.7329 147.307 70.0428 162.969C60.8653 177.803 66.6493 197.644 69.7135 214.855C72.6691 231.456 72.939 253.42 87.5918 261.539C105.701 271.572 129.112 252.466 148.83 258.69C160.676 262.429 160.74 281.693 171.456 288.012C182.499 294.523 196.825 289.928 208.921 294.121C232.983 302.463 253.179 330.743 277.963 324.937C298.051 320.231 300.074 290.31 307.704 270.979C314.686 253.29 326.304 234.333 320.93 216.08C315.167 196.505 289.642 190.136 278.823 172.878C271.107 160.571 271.797 145.113 267.69 131.153C261.501 110.111 266.523 80.9961 248.28 69.0407Z" stroke="#6260FF" stroke-width="1.28384"/>
<path d="M249.51 66.1789C232.251 54.8678 210.031 77.2448 189.45 77.3246C168.966 77.404 145.675 53.8376 129.596 66.6438C111.145 81.3385 129.077 115.888 116.154 135.7C105.868 151.471 77.1612 146.212 67.2524 162.228C57.8679 177.396 63.7824 197.685 66.9157 215.285C69.938 232.261 70.2139 254.72 85.1973 263.022C103.715 273.282 127.655 253.744 147.817 260.109C159.931 263.933 159.995 283.631 170.954 290.093C182.245 296.751 196.895 292.052 209.263 296.34C233.868 304.871 254.52 333.789 279.863 327.852C300.404 323.039 302.473 292.443 310.275 272.676C317.415 254.587 329.294 235.202 323.799 216.538C317.906 196.52 291.805 190.008 280.742 172.36C272.853 159.775 273.558 143.969 269.358 129.693C263.03 108.176 268.165 78.4042 249.51 66.1789Z" stroke="#6260FF" stroke-width="1.28384"/>
<path d="M250.741 63.3207C233.101 51.7598 210.391 74.6309 189.356 74.7124C168.42 74.7936 144.615 50.707 128.181 63.7958C109.323 78.8149 127.651 114.127 114.443 134.376C103.93 150.495 74.5899 145.121 64.4626 161.49C54.871 176.993 60.9159 197.73 64.1184 215.718C67.2073 233.069 67.4894 256.024 82.8033 264.509C101.73 274.996 126.197 255.027 146.805 261.532C159.185 265.44 159.251 285.573 170.452 292.178C181.992 298.983 196.965 294.18 209.606 298.563C234.754 307.282 255.861 336.838 281.763 330.77C302.758 325.851 304.872 294.58 312.847 274.376C320.144 255.888 332.285 236.075 326.669 216.999C320.646 196.54 293.969 189.883 282.662 171.846C274.599 158.983 275.319 142.828 271.027 128.237C264.559 106.245 269.807 75.8158 250.741 63.3207Z" stroke="#6260FF" stroke-width="1.28384"/>
<path d="M251.974 60.4588C233.953 48.6483 210.753 72.0133 189.264 72.0966C167.876 72.1795 143.558 47.5726 126.769 60.9442C107.504 76.2877 126.226 112.362 112.734 133.049C101.994 149.516 72.0205 144.026 61.6746 160.748C51.876 176.586 58.0514 197.771 61.323 216.148C64.4787 233.873 64.7668 257.324 80.4113 265.993C99.7464 276.706 124.742 256.305 145.794 262.951C158.442 266.944 158.51 287.512 169.952 294.259C181.741 301.211 197.037 296.304 209.951 300.782C235.642 309.689 257.205 339.884 283.666 333.684C305.113 328.66 307.273 296.713 315.42 276.073C322.875 257.185 335.278 236.944 329.541 217.456C323.388 196.555 296.135 189.755 284.584 171.328C276.347 158.187 277.082 141.683 272.698 126.777C266.09 104.31 271.452 73.2238 251.974 60.4588Z" stroke="#6260FF" stroke-width="1.28384"/>
<path d="M253.205 57.6007C234.803 45.5405 211.113 69.3994 189.17 69.4845C167.33 69.5692 142.498 44.4421 125.354 58.0964C105.682 73.7642 124.801 110.601 111.023 131.726C100.056 148.541 69.4492 142.934 58.8847 160.011C48.8791 176.183 55.185 197.816 58.5257 216.581C61.748 234.681 62.0422 258.628 78.0172 267.48C97.7609 278.419 123.284 257.588 144.781 264.374C157.697 268.451 157.766 289.454 169.449 296.343C181.488 303.442 197.107 298.432 210.294 303.004C236.528 312.1 258.546 342.933 285.566 336.603C307.467 331.472 309.673 298.849 317.992 277.773C325.604 258.486 338.269 237.817 332.411 217.917C326.128 196.574 298.299 189.63 286.504 170.814C278.093 157.395 278.844 140.542 274.367 125.321C267.619 102.379 273.094 70.6356 253.205 57.6007Z" stroke="#6260FF" stroke-width="1.28384"/>
<path d="M254.436 54.7393C235.653 42.4294 211.473 66.7823 189.076 66.8692C166.784 66.9556 141.438 41.3083 123.94 55.2452C103.861 71.2375 123.375 108.837 109.312 130.399C98.1178 147.563 66.8779 141.84 56.0948 159.269C45.8821 175.777 52.3185 197.857 55.7284 217.011C59.0174 235.486 59.3177 259.929 75.6232 268.964C95.7754 280.13 121.827 258.867 143.769 265.793C156.951 269.955 157.022 291.393 168.947 298.425C181.235 305.671 197.177 300.557 210.637 305.224C237.414 314.508 259.887 345.979 287.467 339.518C309.821 334.281 312.072 300.983 320.563 279.47C328.333 259.784 341.26 238.687 335.281 218.375C328.868 196.59 300.463 189.502 288.424 170.297C279.838 156.6 280.605 139.398 276.035 123.862C269.148 100.445 274.737 68.0441 254.436 54.7393Z" stroke="#6260FF" stroke-width="1.28384"/>
<path d="M255.666 51.8774C236.503 39.3178 211.832 64.1647 188.982 64.2533C166.237 64.3415 140.378 38.1739 122.525 52.3936C102.039 68.7102 121.948 107.073 107.601 129.072C96.1794 146.584 64.3062 140.745 53.3045 158.528C42.8847 175.37 49.4516 197.899 52.9306 217.441C56.2862 236.29 56.5926 261.229 73.2287 270.447C93.7894 281.84 120.369 260.145 142.756 267.213C156.205 271.459 156.277 293.331 168.445 300.506C180.982 307.899 197.247 302.681 210.98 307.443C238.299 316.915 261.228 349.025 289.367 342.432C312.174 337.089 314.471 303.116 323.134 281.167C331.061 261.081 344.251 239.556 338.15 218.832C331.607 196.605 302.627 189.374 290.343 169.779C281.584 155.804 282.366 138.254 277.704 122.402C270.677 98.5104 276.379 65.4521 255.666 51.8774Z" stroke="#6260FF" stroke-width="1.28384"/>
<path d="M256.9 49.0192C237.356 36.2098 212.195 61.5508 188.89 61.6411C165.694 61.7311 139.32 35.0433 121.112 49.5456C100.219 66.1867 120.524 105.312 105.892 127.748C94.2438 145.608 61.7373 139.653 50.517 157.79C39.8902 174.967 46.5876 197.943 50.1357 217.874C53.558 237.098 53.8705 262.533 70.8372 271.934C91.8064 283.553 118.914 261.428 141.746 268.635C155.463 272.966 155.536 295.273 167.945 302.591C180.731 310.131 197.319 304.809 211.325 309.665C239.187 319.326 262.572 352.074 291.27 345.35C314.53 339.901 316.873 305.252 325.708 282.867C333.793 262.382 347.244 240.429 341.022 219.293C334.349 196.625 304.793 189.249 292.266 169.264C283.332 155.012 284.13 137.113 279.375 120.946C272.208 96.5793 278.023 62.8637 256.9 49.0192Z" stroke="#6260FF" stroke-width="1.28384"/>
<path d="M258.13 46.1574C238.205 33.0984 212.554 58.9333 188.795 59.0254C165.147 59.1171 138.26 31.9091 119.697 46.6941C98.3973 63.6595 119.098 103.547 104.18 126.421C92.3053 144.629 59.1655 138.558 47.7266 157.048C36.8928 174.561 43.7207 197.985 47.3379 218.304C50.8269 237.903 51.1455 263.833 68.4427 273.418C89.8204 285.263 117.456 262.706 140.733 270.055C154.717 274.469 154.792 297.212 167.442 304.672C180.478 312.359 197.389 306.934 211.668 311.884C240.073 321.733 263.913 355.12 293.17 348.265C316.883 342.709 319.272 307.385 328.279 284.563C336.521 263.68 350.235 241.299 343.892 219.75C337.089 196.64 306.957 189.121 294.185 168.747C285.078 154.216 285.891 135.968 281.043 119.486C273.737 94.6446 279.665 60.2718 258.13 46.1574Z" stroke="#6260FF" stroke-width="1.28384"/>
<path d="M259.361 43.2992C239.056 29.9905 212.914 56.3193 188.701 56.4132C164.601 56.5066 137.2 28.7784 118.283 43.8462C96.5758 61.136 117.672 101.786 102.469 125.097C90.3673 143.654 56.5942 137.467 44.9367 156.31C33.8959 174.158 40.8542 198.029 44.5406 218.737C48.0962 238.711 48.4209 265.137 66.0487 274.905C87.8349 286.977 115.999 263.989 139.72 271.477C153.972 275.977 154.048 299.154 166.94 306.757C180.225 314.59 197.459 309.061 212.011 314.107C240.958 324.144 265.255 358.169 295.07 351.183C319.237 345.521 321.671 309.522 330.85 286.264C339.25 264.98 353.226 242.172 346.761 220.211C339.828 196.659 309.121 188.996 296.105 168.232C286.823 153.424 287.652 134.827 282.712 118.03C275.266 92.7135 281.308 57.6835 259.361 43.2992Z" stroke="#6260FF" stroke-width="1.28384"/>
<path d="M260.592 40.4379C239.906 26.8795 213.274 53.7023 188.607 53.798C164.055 53.8932 136.14 25.6447 116.868 40.9951C94.7542 58.6093 116.246 100.022 100.758 123.771C88.4293 142.675 54.0229 136.372 42.1468 155.569C30.899 173.751 37.9878 198.071 41.7432 219.167C45.3656 239.516 45.6963 266.438 63.6547 276.389C85.8495 288.688 114.542 265.268 138.708 272.897C153.226 277.481 153.304 301.093 166.438 308.838C179.972 316.819 197.529 311.186 212.354 316.327C241.844 326.552 266.596 361.215 296.971 354.099C321.591 348.33 324.07 311.655 333.422 287.961C341.979 266.278 356.217 243.042 349.631 220.669C342.568 196.675 311.285 188.869 298.025 167.715C288.569 152.629 289.414 133.683 284.381 116.57C276.796 90.7793 282.95 55.0921 260.592 40.4379Z" stroke="#6260FF" stroke-width="1.28384"/>
<path d="M261.825 37.5792C240.758 23.7711 213.636 51.0879 188.515 51.1853C163.511 51.2822 135.083 22.5135 115.456 38.1467C92.9346 56.0853 114.822 98.2611 99.0491 122.447C86.4933 141.699 51.4536 135.28 39.3589 154.831C27.904 173.348 35.1233 198.115 38.9479 219.6C42.6369 240.323 42.9737 267.741 61.2626 277.876C83.8659 290.401 113.086 266.55 137.697 274.319C152.483 278.987 152.562 303.034 165.938 310.922C179.721 319.05 197.602 313.314 212.699 318.549C242.732 328.962 267.939 364.264 298.873 357.016C323.946 351.142 326.471 313.792 335.995 289.66C344.71 267.579 359.21 243.914 352.503 221.13C345.31 196.694 313.451 188.744 299.947 167.2C290.317 151.837 291.177 132.541 286.052 115.114C278.327 88.8477 284.595 52.5032 261.825 37.5792Z" stroke="#6260FF" stroke-width="1.28384"/>
<path d="M263.056 34.7178C241.608 20.66 213.996 48.4708 188.421 48.5699C162.965 48.6686 134.023 19.3797 114.041 35.2956C91.113 53.5585 113.396 96.497 97.3381 121.12C84.5553 140.721 48.8823 134.185 36.569 154.09C24.9071 172.942 32.2568 198.157 36.1505 220.03C39.9063 241.128 40.2492 269.042 58.8686 279.36C81.8805 292.111 111.629 267.829 136.684 275.739C151.738 280.491 151.818 304.973 165.436 313.004C179.468 321.279 197.672 315.439 213.042 320.768C243.618 331.37 269.281 367.31 300.774 359.931C326.3 353.951 328.871 315.925 338.567 291.357C347.439 268.876 362.201 244.784 355.373 221.587C348.05 196.71 315.615 188.616 301.867 166.683C292.063 151.041 292.939 131.397 287.72 113.655C279.856 86.9134 286.237 49.9117 263.056 34.7178Z" stroke="#6260FF" stroke-width="1.28384"/>
<path d="M264.286 31.8597C242.458 17.5522 214.355 45.857 188.327 45.9579C162.419 46.0583 132.963 16.2492 112.626 32.4477C89.2909 51.0351 111.97 94.7362 95.6265 119.797C82.6168 139.746 46.3105 133.094 33.7786 153.352C21.9097 172.539 29.3899 198.202 33.3527 220.464C37.1751 241.936 37.5241 270.346 56.4741 280.847C79.8945 293.825 110.171 269.111 135.671 277.162C150.992 281.999 151.074 306.915 164.933 315.089C179.214 323.51 197.741 317.567 213.384 322.991C244.503 333.781 270.622 370.36 302.674 362.85C328.653 356.763 331.27 318.062 341.138 293.058C350.168 270.177 365.192 245.657 358.242 222.048C350.789 196.729 317.778 188.491 303.786 166.169C293.808 150.249 294.7 130.256 289.389 112.198C281.385 84.9823 287.879 47.3235 264.286 31.8597Z" stroke="#6260FF" stroke-width="1.28384"/>
<path d="M265.519 28.9978C243.31 14.4406 214.717 43.2393 188.234 43.342C161.875 43.4442 131.905 13.1148 111.214 29.5961C87.4713 48.5078 110.546 92.9717 93.9174 118.469C80.6808 138.767 43.7412 131.999 30.9907 152.611C18.9147 172.132 26.5254 198.243 30.5574 220.893C34.4464 242.741 34.8015 271.646 54.0821 282.33C77.911 295.535 108.716 270.39 134.661 278.581C150.248 283.502 150.332 308.854 164.433 317.17C178.963 325.738 197.813 319.691 213.729 325.21C245.391 336.188 271.965 373.405 304.576 365.764C331.009 359.571 333.671 320.195 343.711 294.754C352.898 271.475 368.185 246.526 361.114 222.506C353.531 196.744 319.944 188.363 305.708 165.651C295.556 149.454 296.463 129.112 291.059 110.739C282.916 83.0476 289.524 44.7314 265.519 28.9978Z" stroke="#6260FF" stroke-width="1.28384"/>
<path d="M266.75 26.1396C244.16 11.3327 215.077 40.6254 188.14 40.7298C161.329 40.8338 130.845 9.98417 109.799 26.7481C85.6497 45.9842 109.12 91.2108 92.2063 117.146C78.7428 137.791 41.1699 130.907 28.2008 151.873C15.9178 171.729 23.659 198.288 27.76 221.327C31.7158 243.549 32.077 272.95 51.688 283.817C75.9255 297.248 107.258 271.672 133.648 280.004C149.503 285.01 149.588 310.796 163.931 319.254C178.71 327.97 197.884 321.819 214.072 327.432C246.277 338.599 273.307 376.454 306.477 368.682C333.362 362.383 336.07 322.331 346.282 296.455C355.627 272.776 371.176 247.399 363.984 222.967C356.271 196.763 322.108 188.238 307.628 165.136C297.302 148.662 298.224 127.971 292.728 109.283C284.445 81.1164 291.166 42.1431 266.75 26.1396Z" stroke="#6260FF" stroke-width="1.28384"/>
<path d="M267.981 23.2777C245.01 8.2211 215.437 38.0078 188.046 38.114C160.783 38.2197 129.785 6.84985 108.385 23.8965C83.8281 43.457 107.694 89.4462 90.4953 115.819C76.8048 136.812 38.5986 129.812 25.4109 151.131C12.9208 171.322 20.7925 198.329 24.9627 221.756C28.9851 244.353 29.3524 274.25 49.294 285.301C73.94 298.958 105.801 272.951 132.636 281.423C148.758 286.513 148.844 312.734 163.429 321.335C178.457 330.198 197.954 323.943 214.415 329.651C247.163 341.006 274.648 379.5 308.377 371.597C335.716 365.191 338.47 324.464 348.854 298.151C358.356 274.073 374.167 248.269 366.854 223.424C359.01 196.779 324.272 188.11 309.548 164.618C299.048 147.866 299.986 126.826 294.397 107.823C285.974 79.1816 292.808 39.5511 267.981 23.2777Z" stroke="#6260FF" stroke-width="1.28384"/>
<path d="M269.214 20.4195C245.862 5.11317 215.799 35.3938 187.954 35.5018C160.239 35.6093 128.727 3.71919 106.972 21.0485C82.0085 40.9334 106.27 87.6853 88.7862 114.495C74.8688 135.837 36.0293 128.721 22.623 150.393C9.92588 170.919 17.928 198.374 22.1674 222.189C26.2565 245.161 26.6298 275.554 46.902 286.788C71.9565 300.672 104.346 274.233 131.625 282.846C148.014 288.02 148.102 314.676 162.929 323.42C178.206 332.43 198.026 326.071 214.76 331.874C248.051 343.417 275.991 382.549 310.28 374.515C338.072 368.003 340.871 326.601 351.427 299.851C361.087 275.374 377.16 249.142 369.725 223.885C361.752 196.798 326.438 187.985 311.47 164.104C300.796 147.074 301.749 125.685 296.068 106.367C287.505 77.2505 294.453 36.9627 269.214 20.4195Z" stroke="#6260FF" stroke-width="1.28384"/>
<path d="M270.445 17.5582C246.712 2.0022 216.159 32.7768 187.86 32.8866C159.693 32.9958 127.667 0.585474 105.557 18.1975C80.187 38.4068 104.844 85.9213 87.0751 113.168C72.9308 134.858 33.458 127.626 19.8331 149.652C6.92895 170.513 15.0616 198.415 19.37 222.62C23.5258 245.966 23.9053 276.855 44.508 288.272C69.971 302.382 102.888 275.512 130.613 284.266C147.269 289.524 147.358 316.615 162.426 325.502C177.953 334.658 198.096 328.196 215.103 334.093C248.936 345.825 277.333 385.595 312.18 377.43C340.425 370.812 343.27 328.734 353.999 301.548C363.816 276.672 380.151 250.011 372.595 224.343C364.492 196.814 328.602 187.857 313.39 163.587C302.542 146.279 303.511 124.541 297.737 104.907C289.034 75.3163 296.095 34.3713 270.445 17.5582Z" stroke="#6260FF" stroke-width="1.28384"/>
<path d="M271.675 14.6995C247.562 -1.10621 216.519 30.1624 187.766 30.2739C159.146 30.3849 126.607 -2.54568 104.142 15.3491C78.3649 35.8827 103.417 84.1599 85.3636 111.844C70.9923 133.882 30.8862 126.534 17.0427 148.914C3.93154 170.109 12.1946 198.46 16.5722 223.052C20.7947 246.774 21.1802 278.158 42.1135 289.758C67.985 304.095 101.43 276.794 129.6 285.688C146.523 291.031 146.614 318.557 161.924 327.586C177.699 336.89 198.166 330.323 215.446 336.315C249.822 348.236 278.674 388.644 314.08 380.348C342.779 373.624 345.669 330.87 356.57 303.248C366.545 277.972 383.141 250.884 375.465 224.803C367.231 196.832 330.765 187.732 315.309 163.072C304.287 145.486 305.272 123.399 299.405 103.451C290.563 73.3847 297.737 31.7825 271.675 14.6995Z" stroke="#6260FF" stroke-width="1.28384"/>
<path d="M272.906 11.8382C248.412 -4.21718 216.879 27.5454 187.671 27.6587C158.6 27.7714 125.547 -5.67939 102.728 12.498C76.5433 33.3561 101.991 82.396 83.6525 110.518C69.0543 132.904 28.3149 125.44 14.2528 148.173C0.934612 169.703 9.3282 198.501 13.7749 223.483C18.064 247.579 18.4557 279.459 39.7195 291.243C65.9996 305.806 99.9731 278.073 128.587 287.108C145.778 292.535 145.87 320.496 161.422 329.668C177.446 339.118 198.236 332.448 215.789 338.535C250.708 350.644 280.015 391.691 315.981 383.263C345.132 376.433 348.068 333.004 359.141 304.945C369.274 279.27 386.132 251.754 378.334 225.261C369.971 196.848 332.929 187.604 317.229 162.555C306.033 144.691 307.033 122.255 301.074 101.992C292.092 71.4505 299.38 29.1911 272.906 11.8382Z" stroke="#6260FF" stroke-width="1.28384"/>
<path d="M274.139 8.97935C249.264 -7.32571 217.24 24.9309 187.579 25.0459C158.056 25.1603 124.489 -8.81066 101.315 9.64946C74.7237 30.8319 100.567 80.6345 81.9434 109.194C67.1183 131.928 25.7455 124.348 11.4649 147.434C-2.06036 169.299 6.46371 198.546 10.9795 223.915C15.3353 248.386 15.7331 280.762 37.3274 292.729C64.016 307.519 98.5177 279.355 127.576 288.53C145.035 294.042 145.128 322.437 160.922 331.752C177.195 341.349 198.308 334.576 216.134 340.757C251.595 353.054 281.359 394.739 317.883 386.181C347.488 379.244 350.47 335.14 361.715 306.645C372.005 280.57 389.125 252.626 381.206 225.721C372.713 196.867 335.095 187.479 319.151 162.04C307.781 143.898 308.796 121.114 302.744 100.535C293.623 69.5188 301.024 26.6021 274.139 8.97935Z" stroke="#6260FF" stroke-width="1.28384"/>
</svg>
