<svg width="408" height="500" viewBox="0 0 408 500" fill="none" xmlns="http://www.w3.org/2000/svg">
<path fill-rule="evenodd" clip-rule="evenodd" d="M175.885 127.467C228.013 109.357 230.824 19.7819 283.469 3.26221C319.306 -7.9833 363.028 29.2423 376.864 64.4006C392.29 103.598 349.94 146.041 356.074 187.753C360.886 220.477 408.061 238.182 407.284 271.254C406.526 303.525 379.701 332.684 352.277 349.366C325.056 365.925 287.688 348.423 258.718 361.629C237.138 371.466 227.964 396.953 211.107 413.719C182.271 442.397 159.728 514.101 123.227 496.382C80.6393 475.708 114.546 401.508 95.8402 357.763C87.8425 339.059 58.4521 338.582 48.236 321.01C38.0158 303.43 37.3843 281.414 39.6856 261.172C41.8285 242.324 64.9987 227.649 60.9572 209.119C51.3495 165.071 -8.98154 132.808 2.16016 89.1278C10.3024 57.2068 64.9849 61.0163 96.9359 68.0675C129.373 75.2259 144.493 138.373 175.885 127.467Z" stroke="#6260FF" stroke-width="1.28384"/>
<path d="M219.774 201.295C209.348 204.566 208.791 222.302 198.468 225.888C192.251 228.048 189.256 215.544 182.832 214.127C176.505 212.73 165.675 211.976 164.063 218.297C161.856 226.946 173.804 233.334 175.707 242.056C176.508 245.725 171.919 248.631 171.494 252.363C171.039 256.371 171.164 260.731 173.188 264.212C175.211 267.691 181.032 267.786 182.615 271.489C186.32 280.151 179.605 294.843 188.039 298.937C195.268 302.446 199.732 288.248 205.443 282.569C208.782 279.249 210.599 274.203 214.872 272.255C220.61 269.64 228.01 273.105 233.401 269.827C238.832 266.523 244.145 260.749 244.295 254.36C244.449 247.811 235.106 244.305 234.153 237.825C232.938 229.566 241.325 221.162 238.27 213.401C235.53 206.439 226.871 199.068 219.774 201.295Z" stroke="#6260FF" stroke-width="1.28384"/>
<path d="M221.048 197.333C209.778 200.87 209.176 220.043 198.016 223.919C191.296 226.254 188.059 212.737 181.115 211.205C174.275 209.696 162.568 208.88 160.825 215.713C158.44 225.063 171.355 231.969 173.412 241.397C174.278 245.363 169.317 248.504 168.858 252.539C168.366 256.872 168.501 261.584 170.689 265.347C172.876 269.109 179.168 269.211 180.88 273.214C184.885 282.578 177.626 298.46 186.743 302.886C194.557 306.678 199.383 291.33 205.557 285.191C209.165 281.603 211.13 276.147 215.749 274.042C221.951 271.215 229.951 274.961 235.779 271.417C241.65 267.846 247.392 261.605 247.555 254.697C247.721 247.618 237.622 243.828 236.592 236.824C235.278 227.895 244.345 218.81 241.042 210.42C238.08 202.895 228.72 194.926 221.048 197.333Z" stroke="#6260FF" stroke-width="1.28384"/>
<path d="M222.32 193.376C210.205 197.177 209.558 217.787 197.563 221.954C190.339 224.463 186.859 209.934 179.395 208.287C172.042 206.664 159.458 205.788 157.585 213.132C155.021 223.183 168.904 230.606 171.115 240.741C172.045 245.004 166.713 248.381 166.22 252.718C165.69 257.375 165.836 262.441 168.188 266.486C170.539 270.529 177.302 270.639 179.142 274.942C183.447 285.008 175.644 302.08 185.445 306.837C193.844 310.914 199.032 294.416 205.668 287.817C209.547 283.96 211.658 278.095 216.624 275.832C223.291 272.793 231.89 276.82 238.154 273.01C244.465 269.172 250.638 262.463 250.812 255.038C250.991 247.428 240.135 243.354 239.028 235.825C237.616 226.227 247.362 216.462 243.812 207.443C240.628 199.353 230.567 190.788 222.32 193.376Z" stroke="#6260FF" stroke-width="1.28384"/>
<path d="M223.595 189.414C210.636 193.48 209.944 215.527 197.113 219.984C189.385 222.669 185.663 207.126 177.678 205.364C169.813 203.629 156.353 202.691 154.348 210.548C151.606 221.299 166.457 229.24 168.822 240.081C169.817 244.642 164.113 248.254 163.586 252.893C163.019 257.875 163.175 263.294 165.69 267.621C168.205 271.946 175.44 272.063 177.409 276.667C182.013 287.434 173.667 305.697 184.15 310.785C193.135 315.146 198.684 297.498 205.783 290.439C209.932 286.313 212.191 280.04 217.503 277.618C224.634 274.368 233.832 278.676 240.533 274.6C247.284 270.494 253.887 263.317 254.074 255.375C254.265 247.235 242.653 242.877 241.468 234.822C239.958 224.556 250.383 214.109 246.586 204.462C243.18 195.808 232.417 186.646 223.595 189.414Z" stroke="#6260FF" stroke-width="1.28384"/>
<path d="M224.87 185.453C211.066 189.784 210.329 213.268 196.661 218.015C188.43 220.875 184.466 204.319 175.961 202.443C167.583 200.594 153.245 199.595 151.11 207.964C148.189 219.416 164.008 227.874 166.527 239.422C167.587 244.28 161.511 248.127 160.95 253.069C160.346 258.376 160.512 264.147 163.192 268.756C165.87 273.363 173.576 273.488 175.673 278.392C180.578 289.861 171.688 309.313 182.854 314.734C192.425 319.379 198.335 300.58 205.896 293.062C210.316 288.666 212.722 281.984 218.38 279.405C225.976 275.943 235.774 280.532 242.911 276.19C250.101 271.817 257.135 264.172 257.334 255.712C257.538 247.042 245.168 242.4 243.907 233.82C242.298 222.885 253.402 211.758 249.358 201.481C245.73 192.264 234.266 182.505 224.87 185.453Z" stroke="#6260FF" stroke-width="1.28384"/>
<path d="M226.144 181.491C211.496 186.087 210.714 211.008 196.21 216.046C187.475 219.08 183.268 201.512 174.243 199.521C165.353 197.559 150.138 196.499 147.873 205.38C144.773 217.532 161.559 226.508 164.232 238.762C165.357 243.918 158.91 248 158.314 253.244C157.673 258.875 157.849 265 160.693 269.891C163.535 274.78 171.713 274.913 173.938 280.116C179.143 292.287 169.709 312.93 181.558 318.681C191.714 323.611 197.986 303.662 206.01 295.684C210.7 291.02 213.253 283.929 219.257 281.192C227.317 277.518 237.715 282.387 245.289 277.78C252.919 273.139 260.383 265.027 260.594 256.049C260.81 246.848 247.684 241.922 246.345 232.818C244.639 221.214 256.422 209.405 252.13 198.5C248.28 188.719 236.115 178.363 226.144 181.491Z" stroke="#6260FF" stroke-width="1.28384"/>
<path d="M227.416 177.53C211.924 182.391 211.097 208.749 195.757 214.077C186.519 217.287 182.069 198.706 172.524 196.599C163.121 194.524 147.029 193.403 144.633 202.796C141.355 215.649 159.109 225.142 161.936 238.104C163.125 243.556 156.307 247.874 155.676 253.42C154.999 259.376 155.185 265.854 158.192 271.027C161.199 276.198 169.848 276.338 172.201 281.842C177.706 294.714 167.728 316.547 180.261 322.63C191.002 327.844 197.636 306.745 206.122 298.307C211.082 293.373 213.782 285.874 220.133 282.979C228.658 279.093 239.654 284.243 247.665 279.371C255.735 274.462 263.629 265.882 263.852 256.387C264.081 246.655 250.199 241.445 248.782 231.816C246.977 219.543 259.44 207.054 254.901 195.52C250.829 185.175 237.962 174.221 227.416 177.53Z" stroke="#6260FF" stroke-width="1.28384"/>
<path d="M228.69 173.572C212.354 178.698 211.481 206.492 195.305 212.111C185.564 215.495 180.872 195.902 170.806 193.68C160.891 191.493 143.922 190.311 141.395 200.215C137.938 213.769 156.66 223.779 159.641 237.447C160.895 243.197 153.705 247.75 153.04 253.599C152.326 259.879 152.522 266.711 155.694 272.165C158.864 277.618 167.984 277.766 170.466 283.57C176.271 297.143 165.749 320.167 178.964 326.581C190.291 332.08 197.287 309.831 206.235 300.932C211.466 295.73 214.313 287.822 221.01 284.769C230 280.672 241.596 286.102 250.043 280.964C258.553 275.788 266.877 266.74 267.112 256.727C267.353 246.465 252.714 240.971 251.221 230.817C249.318 217.875 262.46 204.705 257.673 192.543C253.379 181.633 239.811 170.083 228.69 173.572Z" stroke="#6260FF" stroke-width="1.28384"/>
<path d="M229.964 169.611C212.784 175.002 211.866 204.232 194.854 210.142C184.609 213.701 179.674 193.095 169.088 190.759C158.661 188.458 140.815 187.214 138.158 197.631C134.521 211.885 154.211 222.413 157.346 236.788C158.665 242.834 151.104 247.623 150.404 253.774C149.653 260.38 149.859 267.564 153.195 273.301C156.529 279.035 166.121 279.191 168.731 285.294C174.835 299.57 163.77 323.783 177.668 330.53C189.581 336.312 196.938 312.913 206.349 303.554C211.85 298.083 214.844 289.766 221.887 286.556C231.341 282.247 243.537 287.958 252.42 282.554C261.37 277.11 270.125 267.595 270.372 257.064C270.626 246.272 255.23 240.494 253.66 229.815C251.658 216.204 265.479 202.353 260.445 189.562C255.929 178.089 241.66 165.941 229.964 169.611Z" stroke="#6260FF" stroke-width="1.28384"/>
<path d="M231.239 165.65C213.213 171.306 212.251 201.973 194.402 208.173C183.654 211.907 178.477 190.288 167.371 187.837C156.431 185.423 137.708 184.119 134.92 195.047C131.105 210.002 151.762 221.048 155.052 236.129C156.435 242.472 148.502 247.497 147.768 253.95C146.98 260.88 147.197 268.417 150.696 274.436C154.194 280.453 164.257 280.616 166.995 287.019C173.4 301.996 161.791 327.4 176.372 334.478C188.87 340.545 196.589 315.996 206.462 306.177C212.234 300.437 215.375 291.711 222.764 288.343C232.683 283.822 245.478 289.814 254.798 284.145C264.188 278.433 273.373 268.45 273.632 257.402C273.898 246.079 257.746 240.017 256.098 228.813C253.998 214.533 268.499 200.001 263.217 186.582C258.479 174.544 243.509 161.8 231.239 165.65Z" stroke="#6260FF" stroke-width="1.28384"/>
<path d="M232.513 161.688C213.643 167.609 212.635 199.713 193.951 206.204C182.699 210.113 177.279 187.48 165.653 184.915C154.2 182.388 134.6 181.022 131.682 192.463C127.688 208.118 149.313 219.682 152.757 235.469C154.205 242.11 145.9 247.37 145.132 254.125C144.307 261.38 144.534 269.271 148.197 275.571C151.859 281.869 162.393 282.04 165.26 288.744C171.965 304.423 159.812 331.016 175.076 338.426C188.16 344.777 196.24 319.078 206.576 308.799C212.618 302.79 215.906 293.655 223.641 290.13C234.025 285.396 247.419 291.669 257.176 285.734C267.006 279.755 276.621 269.304 276.892 257.739C277.171 245.885 260.262 239.539 258.537 227.811C256.338 212.861 271.518 197.649 265.989 183.601C261.029 171 245.358 157.658 232.513 161.688Z" stroke="#6260FF" stroke-width="1.28384"/>
<path d="M233.787 157.727C214.073 163.913 213.02 197.454 193.5 204.235C181.744 208.319 176.082 184.674 163.935 181.993C151.97 179.353 131.493 177.926 128.444 189.879C124.272 206.235 146.864 218.316 150.462 234.81C151.975 241.748 143.299 247.243 142.496 254.301C141.635 261.88 141.871 270.124 145.698 276.707C149.524 283.287 160.53 283.465 163.525 290.469C170.53 306.849 157.832 334.633 173.78 342.374C187.449 349.009 195.891 322.16 206.689 311.421C213.002 305.144 216.437 295.6 224.518 291.917C235.367 286.972 249.36 293.525 259.553 287.325C269.823 281.078 279.868 270.16 280.152 258.076C280.443 245.692 262.778 239.062 260.976 226.809C258.679 211.19 274.538 195.297 268.761 180.62C263.58 167.455 247.207 153.516 233.787 157.727Z" stroke="#6260FF" stroke-width="1.28384"/>
<path d="M235.06 153.769C214.501 160.22 213.404 195.198 193.047 202.269C180.788 206.528 174.883 181.87 162.216 179.075C149.739 176.321 128.385 174.834 125.205 187.298C120.854 204.355 144.414 216.953 148.166 234.154C149.745 241.389 140.696 247.12 139.859 254.48C138.961 262.384 139.207 270.981 143.199 277.845C147.188 284.707 158.665 284.894 161.789 292.197C169.093 309.279 155.852 338.253 172.483 346.326C186.737 353.245 195.541 325.246 206.802 314.047C213.385 307.5 216.967 297.548 225.394 293.707C236.707 288.55 251.3 295.384 261.93 288.918C272.64 282.404 283.115 271.018 283.411 258.417C283.715 245.502 265.293 238.589 263.413 225.81C261.018 209.522 277.556 192.949 271.532 177.643C266.129 163.914 249.055 149.378 235.06 153.769Z" stroke="#6260FF" stroke-width="1.28384"/>
<path d="M236.334 149.807C214.931 156.523 213.788 192.938 192.596 200.3C179.833 204.734 173.686 179.063 160.499 176.153C147.509 173.286 125.278 171.737 121.967 184.714C117.438 202.471 141.965 215.587 145.872 233.494C147.515 241.027 138.095 246.992 137.224 254.655C136.288 262.884 136.545 271.834 140.7 278.98C144.853 286.124 156.802 286.318 160.053 293.922C167.658 311.705 153.873 341.869 171.187 350.274C186.027 357.477 195.192 328.328 206.915 316.669C213.768 309.854 217.498 299.492 226.272 295.493C238.049 290.125 253.241 297.24 264.308 290.508C275.457 283.726 286.363 271.872 286.671 258.754C286.987 245.309 267.808 238.111 265.852 224.808C263.358 207.851 280.576 190.597 274.304 174.662C268.679 160.369 250.904 145.236 236.334 149.807Z" stroke="#6260FF" stroke-width="1.28384"/>
<path d="M237.608 145.846C215.361 152.827 214.173 190.678 192.144 198.331C178.878 202.94 172.489 176.256 158.781 173.231C145.279 170.251 122.17 168.642 118.73 182.13C114.021 200.588 139.517 214.221 143.577 232.835C145.285 240.665 135.493 246.866 134.588 254.831C133.615 263.384 133.882 272.687 138.201 280.116C142.518 287.541 154.938 287.743 158.318 295.647C166.223 314.132 151.894 345.486 169.891 354.222C185.316 361.71 194.843 331.41 207.029 319.292C214.152 312.207 218.029 301.437 227.149 297.28C239.391 291.7 255.182 299.096 266.686 292.098C278.275 285.049 289.611 272.727 289.931 259.091C290.26 245.116 270.324 237.634 268.291 223.806C265.698 206.18 283.595 188.245 277.076 171.681C271.229 156.825 252.753 141.094 237.608 145.846Z" stroke="#6260FF" stroke-width="1.28384"/>
<path d="M238.883 141.885C215.792 149.13 214.558 188.419 191.694 196.362C177.924 201.145 171.292 173.448 157.064 170.309C143.05 167.216 119.064 165.545 115.493 179.546C110.606 198.704 137.069 212.855 141.283 232.175C143.056 240.302 132.893 246.739 131.953 255.006C130.943 263.884 131.22 273.54 135.703 281.251C140.184 288.958 153.076 289.168 156.584 297.371C164.789 316.558 149.916 349.103 168.596 358.17C184.607 365.942 194.495 334.492 207.143 321.914C214.537 314.56 218.561 303.381 228.027 299.067C240.734 293.275 257.125 300.951 269.064 293.688C281.093 286.371 292.86 273.582 293.192 259.428C293.533 244.922 272.841 237.156 270.73 222.803C268.04 204.509 286.616 185.893 279.849 168.7C273.78 153.28 254.603 136.952 238.883 141.885Z" stroke="#6260FF" stroke-width="1.28384"/>
<path d="M240.155 137.924C216.219 145.434 214.941 186.159 191.24 194.393C176.967 199.352 170.092 170.642 155.344 167.387C140.817 164.182 115.955 162.45 112.252 176.962C107.187 196.821 134.617 211.49 138.986 231.516C140.823 239.94 130.288 246.612 129.314 255.182C128.268 264.385 128.555 274.394 133.202 282.387C137.847 290.376 151.21 290.593 154.846 299.096C163.351 318.985 147.935 352.72 167.298 362.119C183.894 370.175 194.143 337.575 207.254 324.536C214.918 316.914 219.09 305.326 228.901 300.854C242.073 294.85 259.063 302.807 271.44 295.279C283.909 287.694 296.105 274.437 296.45 259.766C296.803 244.73 275.354 236.68 273.166 221.802C270.377 202.838 289.633 183.541 282.619 165.72C276.328 149.736 256.449 132.811 240.155 137.924Z" stroke="#6260FF" stroke-width="1.28384"/>
<path d="M241.429 133.966C216.649 141.741 215.325 183.903 190.789 192.427C176.012 197.561 168.895 167.838 153.626 164.469C138.587 161.15 112.847 159.357 109.015 174.382C103.77 194.941 132.168 210.127 136.691 230.86C138.593 239.582 127.687 246.489 126.678 255.361C125.595 264.888 125.892 275.251 130.703 283.525C135.512 291.796 149.346 292.021 153.111 300.825C161.916 321.415 145.955 356.34 166.002 366.071C183.183 374.411 193.794 340.661 207.368 327.162C215.302 319.271 219.621 307.274 229.779 302.644C243.415 296.428 261.004 304.666 273.817 296.872C286.726 289.02 299.353 275.295 299.71 260.106C300.076 244.54 277.87 236.206 275.605 220.803C272.718 201.17 292.652 181.193 285.391 162.743C278.878 146.194 258.298 128.673 241.429 133.966Z" stroke="#6260FF" stroke-width="1.28384"/>
<path d="M242.703 130.004C217.078 138.045 215.71 181.643 190.337 190.458C175.057 195.766 167.697 165.031 151.909 161.547C136.357 158.115 109.74 156.261 105.777 171.797C100.354 193.058 129.72 208.761 134.396 230.2C136.363 239.219 125.085 246.362 124.042 255.536C122.922 265.388 123.229 276.104 128.204 284.66C133.177 293.213 147.482 293.446 151.375 302.549C160.48 323.841 143.976 359.956 164.706 370.019C182.472 378.643 193.445 343.743 207.481 329.784C215.686 321.624 220.152 309.219 230.656 304.431C244.757 298.003 262.946 306.522 276.195 298.462C289.544 290.342 302.601 276.15 302.97 260.443C303.348 244.346 280.386 235.728 278.044 219.801C275.058 199.499 295.672 178.84 288.163 159.762C281.428 142.649 260.147 124.531 242.703 130.004Z" stroke="#6260FF" stroke-width="1.28384"/>
<path d="M243.979 126.043C217.51 134.349 216.096 179.384 189.887 188.489C174.104 193.972 166.501 162.224 150.192 158.625C134.128 155.08 106.634 153.165 102.54 169.214C96.9385 191.174 127.272 207.395 132.103 229.541C134.135 238.857 122.485 246.235 121.408 255.712C120.251 265.888 120.568 276.957 125.707 285.796C130.843 294.631 145.62 294.871 149.642 304.274C159.047 326.268 141.999 363.573 163.411 373.967C181.763 382.876 193.098 346.825 207.596 332.407C216.071 323.978 220.684 311.164 231.534 306.218C246.1 299.578 264.888 308.378 278.574 300.052C292.363 291.665 305.85 277.005 306.231 260.781C306.622 244.153 282.903 235.251 280.484 218.799C277.4 197.828 298.693 176.489 290.937 156.781C283.98 139.105 261.997 120.389 243.979 126.043Z" stroke="#6260FF" stroke-width="1.28384"/>
<path d="M245.253 122.082C217.939 130.652 216.481 177.124 189.436 186.52C173.149 192.178 165.304 159.417 148.475 155.703C131.898 152.045 103.527 150.068 99.3026 166.629C93.522 189.291 124.823 206.029 129.808 228.881C131.905 238.495 119.884 246.108 118.772 255.887C117.578 266.388 117.905 277.81 123.208 286.931C128.508 296.048 143.757 296.295 147.906 305.999C157.611 328.694 140.02 367.189 162.115 377.915C181.053 387.108 192.749 349.907 207.709 335.029C216.455 326.331 221.215 313.108 232.411 308.004C247.442 301.153 266.829 310.233 280.952 301.642C295.18 292.987 309.098 277.859 309.491 261.118C309.895 243.96 285.419 234.774 282.922 217.796C279.74 196.156 301.712 174.136 293.709 153.801C286.53 135.56 263.846 116.247 245.253 122.082Z" stroke="#6260FF" stroke-width="1.28384"/>
<path d="M246.525 118.12C218.367 126.956 216.863 174.865 188.982 184.551C172.191 190.384 164.104 156.61 146.755 152.781C129.665 149.01 100.417 146.972 96.0623 164.045C90.103 187.407 122.372 204.663 127.511 228.222C129.672 238.133 117.28 245.981 116.133 256.062C114.902 266.889 115.24 278.664 120.707 288.066C126.171 297.465 141.891 297.72 146.169 307.724C156.174 331.121 138.038 370.806 160.817 381.863C180.34 391.34 192.397 352.99 207.821 337.651C216.837 328.684 221.744 315.053 233.286 309.791C248.781 302.728 268.768 312.089 283.327 303.233C297.996 294.31 312.343 278.715 312.749 261.455C313.165 243.767 287.933 234.297 285.359 216.794C282.078 194.485 304.729 171.785 296.479 150.82C289.078 132.016 265.693 112.106 246.525 118.12Z" stroke="#6260FF" stroke-width="1.28384"/>
<path d="M247.8 114.159C218.797 123.259 217.248 172.605 188.531 182.581C171.237 188.59 162.907 153.803 145.038 149.859C127.436 145.975 97.3111 143.876 92.8255 161.461C86.6874 185.524 119.924 203.297 125.217 227.563C127.443 237.77 114.679 245.854 113.498 256.238C112.231 267.389 112.578 279.517 118.209 289.201C123.837 298.882 140.028 299.145 144.434 309.448C154.739 333.547 136.06 374.422 159.522 385.811C179.63 395.573 192.049 356.072 207.935 340.273C217.222 331.038 222.276 316.997 234.164 311.578C250.124 304.303 270.71 313.944 285.706 304.823C300.814 295.632 315.592 279.569 316.01 261.792C316.438 243.573 290.449 233.819 287.798 215.792C284.419 192.814 307.75 169.432 299.252 147.839C291.629 128.471 267.542 107.964 247.8 114.159Z" stroke="#6260FF" stroke-width="1.28384"/>
<path d="M249.074 110.201C219.227 119.566 217.633 170.349 188.08 180.616C170.282 186.799 161.71 150.999 143.32 146.941C125.206 142.943 94.2038 140.784 89.5876 158.88C83.2709 183.644 117.475 201.934 122.922 226.907C125.214 237.411 112.077 245.731 110.862 256.417C109.558 267.892 109.916 280.374 115.71 290.34C121.502 300.302 138.165 300.573 142.699 311.176C153.304 335.977 134.081 378.042 158.226 389.763C178.919 399.809 191.7 359.158 208.048 342.899C217.605 333.394 222.807 318.945 235.041 313.368C251.466 305.881 272.651 315.804 288.084 306.416C303.632 296.958 318.84 280.427 319.27 262.133C319.71 243.383 292.965 233.345 290.237 214.793C286.759 191.146 310.769 167.084 302.024 144.862C294.179 124.93 269.391 103.826 249.074 110.201Z" stroke="#6260FF" stroke-width="1.28384"/>
<path d="M250.348 106.24C219.657 115.87 218.018 168.089 187.629 178.647C169.327 185.005 160.513 148.192 141.602 144.019C122.975 139.909 91.0966 137.688 86.3498 156.297C79.8544 181.761 115.026 200.569 120.627 226.247C122.984 237.049 109.476 245.604 108.226 256.592C106.885 268.393 107.253 281.227 113.211 291.476C119.167 301.72 136.301 301.998 140.964 312.901C151.869 338.404 132.102 381.659 156.929 393.712C178.209 404.041 191.351 362.24 208.162 345.522C217.989 335.748 223.338 320.89 235.918 315.155C252.807 307.457 274.592 317.659 290.461 308.006C306.449 298.281 322.088 281.282 322.53 262.47C322.983 243.19 295.481 232.868 292.675 213.791C289.099 189.475 313.789 164.732 304.796 141.881C296.729 121.385 271.24 99.6842 250.348 106.24Z" stroke="#6260FF" stroke-width="1.28384"/>
<path d="M251.621 102.278C220.086 112.174 218.401 165.829 187.176 176.677C168.371 183.21 159.314 145.385 139.884 141.097C120.744 136.873 87.9884 134.591 83.111 153.712C76.4369 179.877 112.576 199.202 118.332 225.588C120.753 236.687 106.873 245.477 105.59 256.768C104.211 268.893 104.589 282.08 110.711 292.611C116.831 303.137 134.437 303.423 139.227 314.626C150.433 340.83 130.122 385.276 155.632 397.659C177.497 408.273 191.001 365.322 208.274 348.144C218.372 338.101 223.868 322.834 236.795 316.942C254.148 309.031 276.532 319.515 292.838 309.596C309.266 299.603 325.335 282.137 325.789 262.807C326.254 242.997 297.996 232.391 295.113 212.789C291.439 187.804 316.807 162.38 307.567 138.901C299.279 117.841 273.088 95.5422 251.621 102.278Z" stroke="#6260FF" stroke-width="1.28384"/>
<path d="M252.895 98.3173C220.515 108.478 218.786 163.57 186.725 174.709C167.417 181.417 158.117 142.578 138.166 138.176C118.514 133.839 84.8811 131.496 79.8731 151.129C73.0203 177.994 110.128 197.837 116.037 224.929C118.523 236.325 104.272 245.351 102.954 256.943C101.538 269.393 101.927 282.934 108.213 293.746C114.496 304.554 132.573 304.848 137.492 316.351C148.997 343.257 128.143 388.893 154.336 401.608C176.787 412.506 190.652 368.405 208.388 350.766C218.756 340.455 224.399 324.779 237.672 318.729C255.49 310.607 278.474 321.371 295.216 311.187C312.084 300.926 328.582 282.992 329.049 263.145C329.527 242.804 300.512 231.914 297.552 211.787C293.779 186.133 319.827 160.028 310.339 135.92C301.829 114.296 274.937 91.4009 252.895 98.3173Z" stroke="#6260FF" stroke-width="1.28384"/>
<path d="M254.169 94.3589C220.945 104.784 219.171 161.314 186.273 172.742C166.462 179.625 156.919 139.774 136.448 135.257C116.284 130.807 81.7739 128.402 76.6353 148.547C69.6038 176.113 107.679 196.474 113.742 224.272C116.293 235.966 101.67 245.227 100.318 257.122C98.8652 269.896 99.2638 283.79 105.714 294.884C112.161 305.974 130.709 306.275 135.757 318.079C147.562 345.686 126.163 392.512 153.04 405.559C176.076 416.741 190.303 371.49 208.501 353.392C219.14 342.811 224.93 326.727 238.549 320.519C256.832 312.185 280.415 323.23 297.594 312.78C314.901 302.252 331.83 283.85 332.309 263.485C332.799 242.613 303.027 231.44 299.99 210.788C296.119 184.465 322.846 157.679 313.111 132.942C304.379 110.755 276.786 87.2621 254.169 94.3589Z" stroke="#6260FF" stroke-width="1.28384"/>
<path d="M255.443 90.3978C221.375 101.088 219.555 159.054 185.822 170.774C165.507 177.831 155.722 136.967 134.731 132.335C114.054 127.772 78.6666 125.307 73.3975 145.964C66.1872 174.23 105.23 195.108 111.447 223.613C114.063 235.604 99.0684 245.1 97.6816 257.298C96.1924 270.396 96.601 284.644 103.215 296.02C109.826 307.391 128.846 307.7 134.021 319.804C146.127 348.113 124.184 396.129 151.744 409.508C175.365 420.974 189.954 374.573 208.615 356.014C219.524 345.165 225.461 328.671 239.426 322.306C258.173 313.76 282.356 325.085 299.971 314.37C317.719 303.574 335.078 284.705 335.569 263.822C336.072 242.42 305.543 230.962 302.429 209.786C298.459 182.794 325.866 155.327 315.883 129.962C306.929 107.21 278.635 83.1206 255.443 90.3978Z" stroke="#6260FF" stroke-width="1.28384"/>
<path d="M256.717 86.4362C221.804 97.3915 219.94 156.794 185.37 168.804C164.552 176.037 154.524 134.16 133.013 129.413C111.824 124.737 75.5594 122.21 70.1596 143.379C62.7707 172.346 102.781 193.742 109.153 222.953C111.833 235.241 96.4668 244.973 95.0457 257.473C93.5195 270.896 93.9383 285.497 100.716 297.155C107.491 308.808 126.982 309.125 132.286 321.528C144.692 350.539 122.205 399.745 150.448 413.455C174.655 425.206 189.605 377.655 208.728 358.636C219.908 347.518 225.992 330.616 240.303 324.092C259.515 315.334 284.297 326.941 302.349 315.96C320.536 304.897 338.326 285.559 338.829 264.159C339.344 242.227 308.059 230.485 304.868 208.784C300.8 181.122 328.885 152.975 318.655 126.981C309.479 103.665 280.484 78.9786 256.717 86.4362Z" stroke="#6260FF" stroke-width="1.28384"/>
<path d="M257.992 82.4752C222.234 93.6954 220.325 154.535 184.919 166.835C163.597 174.243 153.327 131.353 131.295 126.491C109.593 121.702 72.4521 119.115 66.9218 140.795C59.3541 170.463 100.332 192.376 106.858 222.294C109.603 234.879 93.8652 244.847 92.4097 257.649C90.8466 271.397 91.2755 286.35 98.2173 298.29C105.156 310.226 125.119 310.55 130.551 323.253C143.256 352.966 120.226 403.362 149.152 417.404C173.944 429.439 189.256 380.737 208.842 361.259C220.291 349.872 226.523 332.561 241.18 325.879C260.857 316.91 286.238 328.797 304.727 317.55C323.354 306.219 341.574 286.415 342.089 264.497C342.617 242.034 310.575 230.008 307.306 207.782C303.14 179.451 331.905 150.624 321.427 124.001C312.029 100.121 282.333 74.8372 257.992 82.4752Z" stroke="#6260FF" stroke-width="1.28384"/>
<path d="M259.264 78.5141C222.662 89.9993 220.708 152.276 184.466 164.867C162.64 172.449 152.128 128.546 129.576 123.57C107.362 118.667 69.3434 116.019 63.6825 138.212C55.9361 168.58 97.8817 191.01 104.561 221.635C107.371 234.517 91.2622 244.72 89.7723 257.824C88.1723 271.897 88.6113 287.204 95.717 299.426C102.82 311.643 123.254 311.975 128.814 324.978C141.82 355.392 118.246 406.979 147.855 421.352C173.232 433.672 188.906 383.82 208.954 363.881C220.674 352.225 227.053 334.505 242.056 327.666C262.197 318.485 288.178 330.653 307.103 319.141C326.17 307.542 344.82 287.27 345.347 264.834C345.888 241.841 313.089 229.531 309.743 206.78C305.479 177.78 334.923 148.272 324.198 121.02C314.578 96.5766 284.18 70.6957 259.264 78.5141Z" stroke="#6260FF" stroke-width="1.28384"/>
<path d="M260.538 74.5525C223.092 86.3027 221.092 150.016 184.015 162.897C161.685 170.655 150.93 125.739 127.858 120.647C105.132 115.632 66.2362 112.922 60.4446 135.627C52.5196 166.696 95.4328 189.644 102.267 220.975C105.141 234.155 88.6606 244.593 87.1363 258C85.4994 272.397 85.9486 288.057 93.2182 300.561C100.485 313.06 121.39 313.399 127.079 326.703C140.384 357.818 116.267 410.595 146.559 425.3C172.522 437.904 188.557 386.902 209.067 366.503C221.058 354.578 227.584 336.45 242.933 329.453C263.539 320.06 290.119 332.508 309.481 320.73C328.988 308.864 348.068 288.124 348.607 265.171C349.16 241.647 315.605 229.053 312.182 205.777C307.819 176.109 337.942 145.92 326.97 118.039C317.128 93.0317 286.029 66.5537 260.538 74.5525Z" stroke="#6260FF" stroke-width="1.28384"/>
<path d="M261.812 70.5946C223.522 82.6097 221.477 147.76 183.563 160.931C160.73 168.864 149.733 122.935 126.141 117.729C102.901 112.6 63.129 109.83 57.2068 133.047C49.1031 164.816 92.9839 188.282 99.9719 220.319C102.911 233.796 86.059 244.47 84.5004 258.178C82.8265 272.901 83.2858 288.913 90.7194 301.7C98.1499 314.481 119.527 314.828 125.344 328.431C138.949 360.248 114.287 414.215 145.263 429.252C171.811 442.14 188.208 389.988 209.181 369.129C221.442 356.935 228.115 338.398 243.81 331.243C264.881 321.638 292.06 334.367 311.859 322.324C331.805 310.19 351.316 288.982 351.867 265.512C352.433 241.457 318.121 228.58 314.621 204.779C310.159 174.441 340.962 143.571 329.742 115.062C319.678 89.4905 287.878 62.4154 261.812 70.5946Z" stroke="#6260FF" stroke-width="1.28384"/>
<path d="M263.088 66.633C223.953 78.9131 221.863 145.5 183.113 158.962C159.777 167.069 148.537 120.128 124.424 114.807C100.673 109.565 60.0232 106.733 53.9704 130.462C45.688 162.932 90.5365 186.915 97.6786 219.659C100.683 233.434 83.4589 244.342 81.8659 258.354C80.1551 273.401 80.6246 289.766 88.222 302.835C95.8164 315.897 117.664 316.252 123.61 330.156C137.515 362.674 112.31 417.832 143.968 433.2C171.102 446.372 187.86 393.07 209.296 371.751C221.827 359.288 228.647 340.342 244.689 333.03C266.224 323.213 294.003 336.223 314.238 323.914C334.624 311.513 354.565 289.837 355.129 265.848C355.707 241.264 320.638 228.102 317.061 203.776C312.501 172.77 343.983 141.219 332.516 112.081C322.23 85.9456 289.728 58.2735 263.088 66.633Z" stroke="#6260FF" stroke-width="1.28384"/>
<path d="M264.36 62.6718C224.38 75.2169 222.245 143.24 182.659 156.993C158.82 165.275 147.337 117.321 122.704 111.885C98.4401 106.53 56.9135 103.637 50.7302 127.878C42.269 161.049 88.0852 185.55 95.3814 219C98.4506 233.072 80.8548 244.216 79.2275 258.529C77.4798 273.901 77.9594 290.62 85.7208 303.97C93.479 317.315 115.798 317.677 121.872 331.881C136.078 365.101 110.328 421.449 142.67 437.148C170.389 450.604 187.509 396.152 209.407 374.374C222.208 361.642 229.176 342.287 245.563 334.817C267.563 324.788 295.941 338.079 316.613 325.504C337.439 312.835 357.811 290.692 358.386 266.186C358.977 241.071 323.152 227.625 319.497 202.774C314.839 171.099 347 138.867 335.285 109.1C324.778 82.4012 291.575 54.132 264.36 62.6718Z" stroke="#6260FF" stroke-width="1.28384"/>
<path d="M265.634 58.7108C224.81 71.5209 222.63 140.981 182.208 155.024C157.865 163.482 146.14 114.515 120.986 108.964C96.2099 103.496 53.8063 100.542 47.4923 125.295C38.8525 159.166 85.6363 184.184 93.0866 218.341C96.2206 232.71 78.2532 244.089 76.5915 258.705C74.8069 274.402 75.2966 291.474 83.222 305.106C91.144 318.732 113.935 319.102 120.137 333.606C134.642 367.528 108.349 425.065 141.374 441.097C169.678 454.837 187.16 399.235 209.52 376.996C222.592 363.996 229.707 344.232 246.441 336.604C268.905 326.363 297.882 339.935 318.991 327.095C340.257 314.158 361.058 291.547 361.646 266.523C362.249 240.878 325.667 227.148 321.936 201.773C317.179 169.428 350.02 136.515 338.057 106.12C327.328 78.8569 293.424 49.9906 265.634 58.7108Z" stroke="#6260FF" stroke-width="1.28384"/>
<path d="M266.908 54.7492C225.24 67.8243 223.015 138.721 181.756 153.055C156.91 161.687 144.942 111.707 119.269 106.042C93.9797 100.461 50.699 97.4454 44.2545 122.71C35.4359 157.282 83.1874 182.818 90.7918 217.682C93.9907 232.347 75.6517 243.962 73.9555 258.88C72.1341 274.901 72.6339 292.327 80.7231 306.241C88.8091 320.149 112.071 320.527 118.401 335.33C133.207 369.954 106.37 428.682 140.078 445.045C168.968 459.069 186.81 402.317 209.634 379.618C222.976 366.349 230.238 346.176 247.318 338.39C270.247 327.938 299.824 341.79 321.368 328.684C343.075 315.48 364.306 292.402 364.906 266.86C365.522 240.685 328.183 226.671 324.374 200.77C319.519 167.756 353.039 134.163 340.83 103.139C329.878 75.312 295.273 45.8486 266.908 54.7492Z" stroke="#6260FF" stroke-width="1.28384"/>
<path d="M268.183 50.7913C225.671 64.1313 223.4 136.465 181.306 151.089C155.956 159.896 143.746 108.904 117.552 103.123C91.7505 97.429 47.5927 94.3527 41.0176 120.13C32.0204 155.402 80.7395 181.455 88.498 217.025C91.7617 231.988 73.051 243.839 71.3206 259.059C69.4622 275.405 69.9721 293.183 78.2253 307.379C86.4751 321.57 110.209 321.955 116.667 337.059C131.773 372.384 104.392 432.302 138.783 448.996C168.258 463.305 186.462 405.403 209.748 382.244C223.361 368.706 230.77 348.124 248.196 340.18C271.59 329.516 301.766 343.649 323.747 330.278C345.893 316.806 367.555 293.26 368.167 267.201C368.795 240.495 330.7 226.197 326.814 199.771C321.86 166.089 356.06 131.815 343.603 100.162C332.429 71.7708 297.122 41.7103 268.183 50.7913Z" stroke="#6260FF" stroke-width="1.28384"/>
<path d="M269.455 46.8297C226.098 60.4347 223.782 134.205 180.852 149.12C154.998 158.102 142.546 106.096 115.832 100.201C89.5179 94.3938 44.4831 91.2564 37.7773 117.545C28.6014 153.519 78.2882 180.089 86.2008 216.366C89.5293 231.626 70.447 243.712 68.6822 259.234C66.7868 275.905 67.3069 294.036 75.724 308.514C84.1377 322.986 108.343 323.38 114.929 338.783C130.335 374.81 102.41 435.918 137.484 452.944C167.545 467.537 186.111 408.485 209.859 384.866C223.742 371.059 231.298 350.068 249.07 341.967C272.929 331.091 303.704 345.505 326.122 331.868C348.708 318.129 370.8 294.114 371.425 267.538C372.065 240.301 333.213 225.719 329.25 198.769C324.198 164.417 359.077 129.462 346.372 97.1809C334.977 68.2259 298.969 37.5683 269.455 46.8297Z" stroke="#6260FF" stroke-width="1.28384"/>
<path d="M270.729 42.8687C226.528 56.7387 224.167 131.946 180.401 147.151C154.043 156.308 141.348 103.29 114.114 97.2794C87.2877 91.3592 41.3758 88.1607 34.5395 114.962C25.1848 151.636 75.8393 178.723 83.906 215.707C87.2993 231.264 67.8454 243.585 66.0462 259.41C64.114 276.405 64.6442 294.89 73.2252 309.65C81.8027 324.404 106.479 324.805 113.194 340.508C128.9 377.237 100.431 439.535 136.188 456.893C166.834 471.77 185.762 411.567 209.973 387.489C224.126 373.413 231.829 352.013 249.948 343.754C274.271 332.666 305.645 347.361 328.5 333.458C351.526 319.451 374.048 294.97 374.685 267.876C375.337 240.108 335.729 225.242 331.689 197.767C326.539 162.746 362.096 127.111 349.144 94.2006C337.527 64.6817 300.818 33.427 270.729 42.8687Z" stroke="#6260FF" stroke-width="1.28384"/>
<path d="M272.004 38.9071C226.959 53.042 224.553 129.686 179.951 145.182C153.09 154.514 140.152 100.482 112.398 94.3572C85.059 88.3239 38.27 85.0643 31.3031 112.377C21.7698 149.752 73.3919 177.357 81.6127 215.047C85.0708 230.902 65.2453 243.458 63.4117 259.586C61.4426 276.905 61.9829 295.743 70.7279 310.785C79.4692 325.821 104.617 326.229 111.46 342.233C127.466 379.663 98.4537 443.151 134.893 460.841C166.125 476.002 185.414 414.649 210.088 390.111C224.511 375.766 232.362 353.958 250.826 345.541C275.614 334.241 307.588 349.216 330.879 335.048C354.345 320.774 377.298 295.824 377.946 268.212C378.611 239.915 338.247 224.765 334.129 196.765C328.88 161.075 365.117 124.758 351.918 91.2196C340.079 61.1368 302.668 29.285 272.004 38.9071Z" stroke="#6260FF" stroke-width="1.28384"/>
<path d="M273.278 34.9461C227.389 49.346 224.938 127.427 179.499 143.213C152.135 152.72 138.955 97.6755 110.68 91.4357C82.8288 85.2893 35.1628 81.9686 28.0653 109.794C18.3532 147.869 70.943 175.992 79.3179 214.388C82.8409 230.54 62.6437 243.332 60.7757 259.761C58.7697 277.406 59.3202 296.597 68.229 311.921C77.1343 327.238 102.753 327.654 109.725 343.958C126.031 382.09 96.4746 446.768 133.597 464.789C165.415 480.235 185.065 417.732 210.201 392.733C224.895 378.119 232.893 355.903 251.703 347.328C276.956 335.816 309.529 351.072 333.257 336.638C357.162 322.097 380.545 296.679 381.206 268.55C381.884 239.722 340.762 224.288 336.567 195.763C331.221 159.404 368.137 122.407 354.69 88.2393C342.629 57.5925 304.517 25.1436 273.278 34.9461Z" stroke="#6260FF" stroke-width="1.28384"/>
<path d="M274.553 30.9881C227.818 45.6529 225.322 125.17 179.048 141.247C151.18 150.929 137.757 94.8718 108.962 88.5171C80.5986 82.2576 32.0556 78.8758 24.8275 107.213C14.9367 145.989 68.4941 174.629 77.0231 213.732C80.6109 230.181 60.0421 243.208 58.1398 259.94C56.0968 277.909 56.6574 297.453 65.7302 313.059C74.7993 328.659 100.89 329.082 107.99 345.686C124.595 384.52 94.4955 450.388 132.301 468.741C164.704 484.471 184.716 420.818 210.315 395.359C225.279 380.476 233.424 357.85 252.58 349.118C278.298 337.395 311.47 352.931 335.635 338.232C359.98 323.422 383.793 297.537 384.466 268.89C385.156 239.532 343.278 223.814 339.006 194.764C333.561 157.736 371.156 120.058 357.462 85.2619C345.179 54.0511 306.366 21.0052 274.553 30.9881Z" stroke="#6260FF" stroke-width="1.28384"/>
<path d="M275.824 27.0266C228.246 41.9564 225.705 122.911 178.594 139.278C150.223 149.135 136.558 92.0646 107.242 85.5951C78.366 79.2225 28.9459 75.7796 21.5872 104.629C11.5177 144.105 66.0428 173.263 74.7259 213.072C78.3785 229.818 57.4381 243.081 55.5014 260.115C53.4215 278.409 53.9922 298.306 63.229 314.194C72.4619 330.076 99.0239 330.507 106.252 347.41C123.158 386.946 92.5139 454.005 131.003 472.689C163.991 488.703 184.365 423.9 210.426 397.981C225.661 382.829 233.952 359.795 253.455 350.904C279.637 338.969 313.409 354.787 338.01 339.822C362.795 324.745 387.039 298.392 387.724 269.228C388.426 239.338 345.792 223.336 341.442 193.762C335.899 156.065 374.173 117.706 360.232 82.2811C347.727 50.5064 308.213 16.8633 275.824 27.0266Z" stroke="#6260FF" stroke-width="1.28384"/>
<path d="M277.099 23.0655C228.676 38.2603 226.09 120.651 178.144 137.309C149.269 147.341 135.361 89.2577 105.525 82.6734C76.1368 76.1877 25.8396 72.6837 18.3503 102.045C8.10214 142.222 63.5949 171.897 72.4321 212.413C76.1495 229.456 54.8375 242.954 52.8664 260.291C50.7496 278.91 51.3305 299.16 60.7311 315.33C70.1279 331.493 97.1613 331.932 104.518 349.136C121.723 389.373 90.5358 457.622 129.708 476.637C163.282 492.936 184.017 426.982 210.54 400.604C226.045 385.183 234.484 361.74 254.333 352.692C280.98 340.545 315.351 356.643 340.389 341.412C365.614 326.067 390.288 299.247 390.985 269.565C391.7 239.145 348.308 222.859 343.882 192.76C338.24 154.394 377.194 115.354 363.005 79.3006C350.278 46.962 310.062 12.7218 277.099 23.0655Z" stroke="#6260FF" stroke-width="1.28384"/>
<path d="M278.373 19.1039C229.106 34.5637 226.475 118.391 177.692 135.34C148.314 145.546 134.164 86.4504 103.808 79.7513C73.9066 73.1525 22.7324 69.5874 15.1125 99.4604C4.6856 140.338 61.146 170.531 70.1373 211.753C73.9195 229.094 52.2359 242.827 50.2304 260.466C48.0767 279.409 48.6677 300.013 58.2323 316.465C67.793 332.91 95.2977 333.357 102.782 350.86C120.288 391.799 88.5567 461.238 128.412 480.585C162.571 497.168 183.668 430.064 210.654 403.226C226.429 387.536 235.015 363.684 255.21 354.478C282.322 342.119 317.292 358.498 342.767 343.002C368.431 327.39 393.535 300.102 394.245 269.902C394.972 238.952 350.824 222.382 346.321 191.757C340.58 152.722 380.213 113.002 365.777 76.3196C352.828 43.4171 311.911 8.57985 278.373 19.1039Z" stroke="#6260FF" stroke-width="1.28384"/>
<path d="M279.648 15.1427C229.536 30.8675 226.86 116.132 177.241 133.371C147.359 143.752 132.967 83.6436 102.091 76.8296C71.6769 70.1178 19.6256 66.4915 11.8751 96.8765C1.26955 138.455 58.6976 169.165 67.843 211.094C71.6901 228.732 49.6348 242.701 47.595 260.642C45.4044 279.91 46.0055 300.866 55.734 317.6C65.4585 334.327 93.4346 334.782 101.048 352.585C118.853 394.226 86.5781 464.855 127.116 484.534C161.861 501.4 183.319 433.147 210.768 405.848C226.814 389.89 235.547 365.629 256.088 356.265C283.664 343.695 319.234 360.354 345.145 344.592C371.249 328.712 396.784 300.957 397.505 270.239C398.245 238.759 353.34 221.905 348.76 190.756C342.921 151.051 383.233 110.65 368.55 73.3392C355.379 39.8727 313.761 4.43836 279.648 15.1427Z" stroke="#6260FF" stroke-width="1.28384"/>
<path d="M280.921 11.1849C229.965 27.1747 227.243 113.876 176.788 131.405C146.403 141.961 131.768 80.8401 100.371 73.9113C69.4453 67.0863 16.5169 63.399 8.63584 94.296C-2.14846 136.575 56.2473 167.803 65.5468 210.438C69.4587 228.373 47.0317 242.577 44.9575 260.821C42.73 280.414 43.3413 301.723 53.2337 318.739C63.1221 335.748 91.5696 336.21 99.3108 354.313C117.417 396.655 84.5975 468.475 125.819 488.486C161.149 505.636 182.969 436.233 210.88 408.474C227.196 392.247 236.076 367.577 256.964 358.055C285.004 345.273 321.174 362.213 347.521 346.186C374.066 330.039 400.03 301.815 400.764 270.58C401.516 238.569 355.855 221.431 351.197 189.757C345.26 149.384 386.251 108.302 371.32 70.362C357.928 36.3316 315.608 0.300168 280.921 11.1849Z" stroke="#6260FF" stroke-width="1.28384"/>
<path d="M282.196 7.22333C230.396 23.478 227.629 111.616 176.338 129.436C145.45 140.167 130.572 78.0327 98.6551 70.9892C67.2165 64.0511 13.4111 60.3026 5.39947 91.7117C-5.56353 134.691 53.7999 166.436 63.2534 209.778C67.2302 228.011 44.4316 242.45 42.323 260.996C40.0586 280.913 40.68 302.576 50.7363 319.874C60.7886 337.165 89.7075 337.634 97.577 356.038C115.983 399.082 82.6199 472.091 124.524 492.433C160.44 509.869 182.621 439.315 210.995 411.096C227.581 394.6 236.609 369.521 257.842 359.842C286.347 346.848 323.116 364.069 349.9 347.776C376.885 331.361 403.279 302.67 404.025 270.917C404.79 238.375 358.372 220.954 353.637 188.755C347.601 147.712 389.272 105.95 374.094 67.3811C360.479 32.7867 317.459 -3.84181 282.196 7.22333Z" stroke="#6260FF" stroke-width="1.28384"/>
</svg>
