<svg width="539" height="453" viewBox="0 0 539 453" fill="none" xmlns="http://www.w3.org/2000/svg">
<path fill-rule="evenodd" clip-rule="evenodd" d="M202.389 235.954C210.016 226.86 224.696 228.417 235.056 222.584C239.023 220.35 241.493 216.283 244.022 212.51C247.385 207.496 249.148 201.77 252.417 196.694C258.717 186.91 261.794 173.444 272.363 168.498C281.334 164.3 296.038 165.456 301.289 173.823C308.031 184.57 290.98 201.733 299.256 211.361C308.58 222.207 341.981 205.711 340.934 219.944C339.715 236.517 306.918 229.327 296.954 242.661C291.877 249.455 308.23 257.555 306.617 265.867C305.276 272.777 296.622 276.176 289.981 278.596C283.595 280.923 275.975 282.138 269.813 279.275C263.354 276.275 263.452 261.938 256.405 263.001C241.623 265.228 234.059 286.357 219.12 286.915C209.19 287.286 202.454 274.532 199.368 265.133C196.283 255.736 196.023 243.544 202.389 235.954Z" stroke="#6260FF" stroke-width="1.28384"/>
<path fill-rule="evenodd" clip-rule="evenodd" d="M19.9602 261.741C48.4434 227.769 103.261 233.588 141.949 211.795C156.761 203.452 165.986 188.258 175.432 174.166C187.988 155.434 194.573 134.042 206.778 115.082C230.305 78.5307 241.797 28.2274 281.262 9.75228C314.764 -5.9309 369.675 -1.61255 389.281 29.6455C414.461 69.7913 350.787 133.905 381.692 169.872C416.507 210.388 541.239 148.764 537.328 201.936C532.775 263.844 410.303 236.985 373.092 286.799C354.135 312.176 415.202 342.437 409.179 373.487C404.172 399.299 371.855 411.998 347.053 421.037C323.206 429.728 294.754 434.267 271.742 423.575C247.623 412.368 247.989 358.811 221.671 362.778C166.472 371.1 138.227 450.028 82.4383 452.114C45.3571 453.501 20.2024 405.854 8.68015 370.745C-2.84086 335.64 -3.81287 290.095 19.9602 261.741Z" stroke="#6260FF" stroke-width="1.28384"/>
<path d="M233.229 222.371C222.313 228.518 206.847 226.877 198.81 236.458C192.103 244.456 192.377 257.302 195.628 267.203C198.878 277.106 205.976 290.545 216.438 290.154C232.179 289.565 240.148 267.303 255.722 264.956C263.147 263.837 263.044 278.943 269.849 282.104C276.342 285.12 284.369 283.839 291.098 281.388C298.095 278.839 307.214 275.257 308.626 267.977C310.326 259.219 293.096 250.684 298.445 243.526C308.943 229.476 343.498 237.052 344.783 219.59C345.886 204.593 310.694 221.974 300.871 210.547C292.151 200.402 310.116 182.319 303.012 170.996C297.48 162.179 281.987 160.961 272.535 165.385C261.4 170.596 258.158 184.784 251.52 195.093C248.076 200.441 246.218 206.474 242.676 211.758C240.011 215.732 237.408 220.018 233.229 222.371Z" stroke="#6260FF" stroke-width="1.28384"/>
<path d="M231.405 222.159C219.934 228.618 203.681 226.894 195.235 236.963C188.186 245.368 188.475 258.868 191.891 269.273C195.307 279.68 202.765 293.803 213.76 293.392C230.302 292.773 238.676 269.378 255.043 266.912C262.846 265.736 262.738 281.611 269.889 284.933C276.712 288.102 285.148 286.756 292.219 284.18C299.573 281.501 309.155 277.737 310.639 270.086C312.425 260.882 294.319 251.913 299.94 244.391C310.973 229.625 347.286 237.587 348.636 219.236C349.795 203.476 312.812 221.742 302.489 209.732C293.326 199.071 312.205 180.067 304.739 168.168C298.926 158.903 282.645 157.623 272.712 162.271C261.01 167.747 257.603 182.658 250.627 193.492C247.008 199.112 245.056 205.453 241.333 211.005C238.532 215.182 235.797 219.686 231.405 222.159Z" stroke="#6260FF" stroke-width="1.28384"/>
<path d="M229.578 221.948C217.551 228.721 200.51 226.912 191.656 237.47C184.266 246.281 184.568 260.436 188.15 271.345C191.731 282.256 199.551 297.063 211.078 296.632C228.42 295.984 237.201 271.455 254.36 268.869C262.541 267.636 262.427 284.28 269.925 287.763C277.078 291.086 285.923 289.675 293.336 286.974C301.046 284.165 311.092 280.219 312.648 272.197C314.521 262.548 295.537 253.144 301.43 245.257C312.998 229.777 351.069 238.123 352.485 218.884C353.7 202.36 314.926 221.511 304.104 208.92C294.496 197.743 314.29 177.818 306.463 165.342C300.368 155.628 283.298 154.286 272.884 159.16C260.616 164.901 257.044 180.534 249.73 191.893C245.936 197.785 243.889 204.433 239.986 210.254C237.049 214.634 234.182 219.355 229.578 221.948Z" stroke="#6260FF" stroke-width="1.28384"/>
<path d="M227.755 221.738C215.173 228.823 197.346 226.931 188.082 237.977C180.351 247.195 180.667 262.003 184.414 273.417C188.161 284.832 196.342 300.323 208.401 299.872C226.545 299.194 235.73 273.532 253.682 270.827C262.241 269.537 262.122 286.95 269.966 290.594C277.45 294.07 286.703 292.594 294.458 289.768C302.524 286.83 313.034 282.701 314.663 274.309C316.621 264.213 296.761 254.375 302.927 246.124C315.028 229.928 354.858 238.66 356.339 218.532C357.611 201.245 317.046 221.28 305.723 208.107C295.672 196.414 316.38 175.568 308.191 162.516C301.815 152.353 283.957 150.949 273.062 156.048C260.227 162.055 256.49 178.41 248.839 190.294C244.869 196.458 242.728 203.413 238.644 209.504C235.572 214.085 232.572 219.025 227.755 221.738Z" stroke="#6260FF" stroke-width="1.28384"/>
<path d="M225.928 221.526C212.79 228.924 194.175 226.948 184.503 238.481C176.431 248.107 176.761 263.569 180.673 275.487C184.586 287.406 193.127 303.582 205.719 303.111C224.664 302.402 234.255 275.607 252.999 272.782C261.936 271.435 261.812 289.617 270.002 293.422C277.816 297.052 287.478 295.511 295.575 292.56C303.997 289.492 314.971 285.181 316.672 276.418C318.717 265.877 297.98 255.604 304.418 246.988C317.053 230.077 358.642 239.195 360.188 218.178C361.516 200.127 319.16 221.048 307.338 207.293C296.843 195.083 318.465 173.317 309.915 159.688C303.257 149.076 284.611 147.61 273.235 152.935C259.833 159.207 255.931 176.284 247.942 188.692C243.797 195.129 241.561 202.392 237.297 208.751C234.09 213.535 230.957 218.693 225.928 221.526Z" stroke="#6260FF" stroke-width="1.28384"/>
<path d="M224.104 221.313C210.411 229.024 191.009 226.965 180.928 238.986C172.514 249.019 172.858 265.135 176.936 277.557C181.014 289.98 189.917 306.84 203.041 306.349C222.787 305.611 232.783 277.682 252.32 274.738C261.634 273.334 261.505 292.285 270.042 296.251C278.186 300.034 288.256 298.428 296.697 295.353C305.474 292.154 316.912 287.661 318.685 278.527C320.816 267.54 299.203 256.833 305.912 247.853C319.083 230.227 362.429 239.73 364.041 217.824C365.425 199.01 321.278 220.815 308.956 206.479C298.018 193.752 320.554 171.066 311.642 156.86C304.703 145.8 285.268 144.272 273.411 149.821C259.443 156.358 255.376 174.158 247.049 187.091C242.729 193.8 240.398 201.37 235.954 207.998C232.611 212.984 229.346 218.361 224.104 221.313Z" stroke="#6260FF" stroke-width="1.28384"/>
<path d="M222.276 221.103C208.028 229.127 187.839 226.984 177.349 239.493C168.594 249.933 168.952 266.703 173.195 279.629C177.439 292.556 186.703 310.1 200.359 309.589C220.906 308.821 231.308 279.759 251.637 276.695C261.329 275.234 261.195 294.955 270.078 299.081C278.553 303.018 289.031 301.347 297.814 298.147C306.948 294.818 318.85 290.143 320.694 280.638C322.912 269.206 300.422 258.063 307.404 248.719C321.108 230.378 366.213 240.267 367.89 217.472C369.33 197.894 323.393 220.584 310.571 205.666C299.189 192.423 322.639 168.816 313.365 154.034C306.145 142.525 285.922 140.935 273.584 146.709C259.049 153.512 254.817 172.034 246.152 185.492C241.657 192.474 239.232 200.35 234.608 207.247C231.129 212.436 227.732 218.031 222.276 221.103Z" stroke="#6260FF" stroke-width="1.28384"/>
<path d="M220.451 220.89C205.647 229.227 184.672 227.001 173.773 239.998C164.676 250.845 165.048 268.269 169.457 281.699C173.866 295.13 183.491 313.358 197.68 312.828C219.027 312.029 229.835 281.835 250.956 278.651C261.027 277.133 260.887 297.622 270.116 301.91C278.921 306 289.808 304.264 298.933 300.939C308.424 297.481 320.789 292.623 322.705 282.748C325.01 270.869 301.643 259.292 308.897 249.584C323.136 230.527 369.999 240.802 371.741 217.119C373.238 196.777 325.51 220.352 312.188 204.852C300.362 191.092 324.726 166.565 315.091 151.206C307.589 139.248 286.578 137.596 273.759 143.596C258.658 150.664 254.26 169.908 245.258 183.891C240.588 191.145 238.068 199.329 233.263 206.495C229.649 211.886 226.119 217.698 220.451 220.89Z" stroke="#6260FF" stroke-width="1.28384"/>
<path d="M218.626 220.68C203.267 229.33 181.504 227.02 170.197 240.505C160.759 251.759 161.144 269.837 165.718 283.771C170.293 297.707 180.279 316.619 195 316.068C217.149 315.24 228.362 283.912 250.276 280.609C260.724 279.034 260.579 300.292 270.155 304.74C279.29 308.984 290.586 307.183 300.053 303.733C309.899 300.145 322.729 295.105 324.717 284.859C327.108 272.535 302.864 260.524 310.391 250.451C325.163 230.679 373.785 241.339 375.593 216.767C377.145 195.662 327.626 220.121 313.805 204.04C301.535 189.764 326.814 164.315 316.817 148.381C309.034 135.974 287.234 134.26 273.934 140.485C258.266 147.818 253.704 167.784 244.364 182.292C239.518 189.818 236.904 198.309 231.919 205.744C228.169 211.337 224.507 217.368 218.626 220.68Z" stroke="#6260FF" stroke-width="1.28384"/>
<path d="M216.799 220.467C200.884 229.431 178.334 227.037 166.618 241.009C156.838 252.671 157.238 271.403 161.977 285.841C166.717 300.28 177.065 319.877 192.319 319.306C215.268 318.448 226.887 285.987 249.593 282.564C260.419 280.932 260.269 302.959 270.19 307.569C279.657 311.966 291.361 310.099 301.17 306.525C311.373 302.807 324.666 297.584 326.726 286.968C329.204 274.198 304.083 261.752 311.882 251.315C327.189 230.828 377.569 241.874 379.442 216.413C381.05 194.544 329.741 219.889 315.419 203.225C302.706 188.433 328.899 162.064 318.541 145.553C310.476 132.697 287.888 130.921 274.107 137.371C257.872 144.969 253.145 165.658 243.467 180.691C238.446 188.489 235.737 197.287 230.572 204.991C226.687 210.787 222.892 217.036 216.799 220.467Z" stroke="#6260FF" stroke-width="1.28384"/>
<path d="M214.975 220.257C198.505 229.533 175.168 227.056 163.043 241.516C152.922 253.585 153.336 272.971 158.24 287.913C163.146 302.857 173.854 323.137 189.64 322.547C213.391 321.659 225.415 288.064 248.914 284.522C260.118 282.833 259.962 305.629 270.23 310.399C280.027 314.951 292.139 313.018 302.291 309.319C312.85 305.472 326.608 300.067 328.739 289.08C331.303 275.864 305.306 262.984 313.377 252.182C329.218 230.979 381.356 242.411 383.294 216.061C384.959 193.429 331.859 219.658 317.038 202.413C303.881 187.104 330.988 159.815 320.268 142.727C311.922 129.422 288.545 127.584 274.283 134.26C257.482 142.123 252.59 163.534 242.574 179.092C237.378 187.162 234.575 196.268 229.229 204.241C225.208 210.239 221.281 216.706 214.975 220.257Z" stroke="#6260FF" stroke-width="1.28384"/>
<path d="M213.148 220.045C196.122 229.634 171.998 227.073 159.464 242.021C149.002 254.497 149.429 274.537 154.499 289.983C159.57 305.431 170.64 326.396 186.958 325.785C211.51 324.867 223.939 290.139 248.231 286.477C259.813 284.732 259.652 308.297 270.266 313.228C280.393 317.933 292.914 315.935 303.408 312.111C314.323 308.134 328.545 302.547 330.748 291.189C333.399 277.527 306.525 264.213 314.868 253.046C331.243 231.129 385.14 242.946 387.143 215.707C388.864 192.311 333.973 219.426 318.652 201.598C305.051 185.773 333.073 157.563 321.991 139.899C313.364 126.145 289.199 124.245 274.456 131.146C257.088 139.275 252.031 161.408 241.677 177.491C236.306 185.833 233.408 195.246 227.882 203.488C223.725 209.688 219.666 216.374 213.148 220.045Z" stroke="#6260FF" stroke-width="1.28384"/>
<path d="M211.324 219.834C193.743 229.736 168.832 227.092 155.888 242.528C145.085 255.411 145.527 276.104 150.762 292.055C155.999 308.007 167.43 329.656 184.28 329.026C209.633 328.077 222.468 292.216 247.552 288.435C259.511 286.632 259.345 310.967 270.306 316.059C280.763 320.917 293.693 318.854 304.529 314.905C315.8 310.798 330.486 305.029 332.761 293.301C335.498 279.193 307.748 265.443 316.362 253.913C333.272 231.28 388.927 243.483 390.996 215.355C392.773 191.196 336.091 219.195 320.27 200.786C306.226 184.445 335.161 155.314 323.719 137.073C314.809 122.871 289.856 120.909 274.632 128.034C256.698 136.429 251.476 159.284 240.784 175.892C235.238 184.507 232.245 194.226 226.539 202.737C222.247 209.14 218.055 216.044 211.324 219.834Z" stroke="#6260FF" stroke-width="1.28384"/>
<path d="M209.497 219.62C191.36 229.835 165.662 227.107 152.31 243.03C141.165 256.32 141.621 277.668 147.022 294.123C152.423 310.579 164.215 332.912 181.599 332.262C207.752 331.284 220.992 294.289 246.869 290.388C259.206 288.529 259.035 313.632 270.342 318.885C281.129 323.897 294.467 321.769 305.647 317.695C317.273 313.459 332.423 307.506 334.77 295.408C337.594 280.854 308.966 266.67 317.853 254.775C335.297 231.427 392.711 244.016 394.845 214.999C396.678 190.076 338.206 218.96 321.885 199.969C307.397 183.112 337.246 153.06 325.442 134.243C316.251 119.592 290.51 117.568 274.805 124.919C256.304 133.578 250.917 157.156 239.887 174.288C234.166 183.176 231.079 193.202 225.193 201.982C220.765 208.587 216.44 215.709 209.497 219.62Z" stroke="#6260FF" stroke-width="1.28384"/>
<path d="M207.673 219.412C188.98 229.939 162.496 227.128 148.734 243.539C137.249 257.236 137.718 279.238 143.284 296.197C148.851 313.157 161.005 336.174 178.92 335.504C205.874 334.496 219.521 296.368 246.19 292.348C258.905 290.431 258.728 316.304 270.382 321.718C281.499 326.883 295.246 324.69 306.768 320.491C318.75 316.125 334.364 309.99 336.783 297.521C339.693 282.521 310.189 267.903 319.348 255.644C337.326 231.58 396.498 244.555 398.698 214.649C400.587 188.963 340.324 218.732 323.503 199.159C308.571 181.785 339.335 150.813 327.169 131.419C317.697 116.319 291.167 114.233 274.981 121.809C255.914 130.734 250.361 155.035 238.994 172.691C233.098 181.851 229.916 192.185 223.85 201.234C219.286 208.041 214.829 215.381 207.673 219.412Z" stroke="#6260FF" stroke-width="1.28384"/>
<path d="M205.845 219.199C186.598 230.04 159.326 227.145 145.156 244.044C133.328 258.148 133.812 280.804 139.544 298.267C145.276 315.731 157.79 339.433 176.238 338.743C203.993 337.705 218.045 298.443 245.507 294.304C258.6 292.33 258.418 318.971 270.418 324.546C281.866 329.865 296.021 327.607 307.885 323.284C320.224 318.787 336.301 312.47 338.792 299.631C341.789 284.185 311.408 269.132 320.839 256.509C339.352 231.73 400.282 245.09 402.547 214.295C404.492 187.845 342.438 218.499 325.118 198.345C309.742 180.454 341.42 148.561 328.893 128.591C319.139 113.043 291.821 110.894 275.154 118.696C255.52 127.886 249.802 152.909 238.098 171.09C232.026 180.522 228.749 191.163 222.503 200.481C217.803 207.491 213.214 215.049 205.845 219.199Z" stroke="#6260FF" stroke-width="1.28384"/>
<path d="M204.023 218.987C184.22 230.14 156.161 227.162 141.582 244.549C129.413 259.06 129.911 282.37 135.808 300.337C141.706 318.305 154.581 342.691 173.562 341.981C202.118 340.913 216.575 300.518 244.829 296.259C258.3 294.228 258.113 321.639 270.459 327.375C282.237 332.847 296.801 330.524 309.007 326.076C321.702 321.45 338.244 314.95 340.806 301.74C343.889 285.848 312.632 270.361 322.335 257.373C341.382 231.879 404.07 245.625 406.401 213.941C408.403 186.728 344.558 218.267 326.737 197.531C310.918 179.123 343.51 146.31 330.621 125.764C320.586 109.766 292.479 107.556 275.331 115.582C255.131 125.038 249.249 150.783 237.206 169.489C230.959 179.193 227.588 190.141 221.161 199.728C216.326 206.94 211.605 214.717 204.023 218.987Z" stroke="#6260FF" stroke-width="1.28384"/>
<path d="M202.195 218.774C181.837 230.241 152.991 227.179 138.003 245.053C125.493 259.972 126.004 283.936 132.067 302.407C138.13 320.879 151.367 345.949 170.88 345.219C200.237 344.121 215.099 302.593 244.146 298.215C257.995 296.127 257.802 324.307 270.494 330.203C282.603 335.829 297.575 333.441 310.124 328.868C323.175 324.112 340.181 317.43 342.815 303.849C345.985 287.512 313.851 271.59 323.826 258.238C343.407 232.028 407.854 246.16 410.25 213.587C412.308 185.61 346.672 218.034 328.352 196.716C312.089 177.792 345.595 144.058 332.345 122.936C322.028 106.489 293.133 104.217 275.504 112.469C254.737 122.189 248.69 148.657 236.309 167.888C229.887 177.864 226.421 189.12 219.814 198.976C214.844 206.39 209.99 214.385 202.195 218.774Z" stroke="#6260FF" stroke-width="1.28384"/>
<path d="M200.372 218.564C179.457 230.343 149.825 227.198 134.428 245.56C121.576 260.886 122.102 285.504 128.33 304.478C134.558 323.455 148.156 349.209 168.202 348.46C198.359 347.332 213.628 304.67 243.467 300.172C257.694 298.028 257.496 326.976 270.534 333.034C282.974 338.813 298.354 336.359 311.245 331.662C324.652 326.776 342.122 319.912 344.828 305.961C348.084 289.177 315.073 272.821 325.321 259.104C345.436 232.18 411.641 246.697 414.103 213.235C416.217 184.495 348.79 217.803 329.97 195.904C313.263 176.464 347.684 141.809 334.072 120.11C323.474 103.214 293.79 100.88 275.68 109.357C254.347 119.343 248.134 146.533 235.416 166.289C228.819 176.537 225.259 188.1 218.471 198.225C213.365 205.842 208.379 214.054 200.372 218.564Z" stroke="#6260FF" stroke-width="1.28384"/>
<path d="M198.544 218.352C177.075 230.444 146.655 227.215 130.849 246.065C117.656 261.798 118.196 287.07 124.589 306.548C130.983 326.029 144.942 352.468 165.52 351.698C196.479 350.54 212.152 306.745 242.784 302.128C257.388 299.926 257.186 329.644 270.57 335.862C283.34 341.795 299.129 339.276 312.362 334.454C326.126 329.439 344.059 322.392 346.838 308.07C350.18 290.841 316.292 274.05 326.812 259.969C347.462 232.329 415.425 247.232 417.952 212.881C420.122 183.377 350.904 217.571 331.584 195.089C314.434 175.133 349.769 139.558 335.796 117.282C324.916 99.9376 294.444 97.5415 275.853 106.244C253.953 116.495 247.575 144.407 234.519 164.688C227.747 175.209 224.092 187.078 217.124 197.472C211.883 205.291 206.764 213.722 198.544 218.352Z" stroke="#6260FF" stroke-width="1.28384"/>
<path d="M196.717 218.141C174.692 230.546 143.485 227.234 127.27 246.572C113.736 262.712 114.289 288.637 120.848 308.62C127.408 328.605 141.728 355.728 162.838 354.938C194.598 353.75 210.677 308.822 242.101 304.085C257.083 301.827 256.875 332.313 270.606 338.693C283.706 344.779 299.904 342.195 313.48 337.248C327.599 332.103 345.996 324.874 348.847 310.181C352.276 292.506 317.511 275.281 328.303 260.835C349.487 232.48 419.209 247.769 421.801 212.529C424.027 182.262 353.019 217.34 333.199 194.277C315.605 173.804 351.854 137.308 337.519 114.456C326.358 96.6629 295.098 94.2047 276.026 103.132C253.559 113.649 247.017 142.283 233.623 163.089C226.675 173.882 222.926 186.059 215.778 196.721C210.4 204.743 205.149 213.392 196.717 218.141Z" stroke="#6260FF" stroke-width="1.28384"/>
<path d="M194.893 217.929C172.312 230.647 140.319 227.251 123.695 247.076C109.82 263.624 110.387 290.203 117.111 310.69C123.836 331.18 138.517 358.986 160.16 358.177C192.72 356.959 209.205 310.897 241.422 306.041C256.782 303.725 256.569 334.981 270.646 341.521C284.076 347.761 300.682 345.112 314.601 340.04C329.076 334.765 347.937 327.354 350.86 312.29C354.375 294.17 318.734 276.51 329.798 261.7C351.516 232.629 422.996 248.304 425.653 212.175C427.936 181.144 355.137 217.107 334.817 193.463C316.779 172.473 353.942 135.057 339.246 111.628C327.804 93.3862 295.755 90.866 276.202 100.019C253.168 110.8 246.461 140.157 232.73 161.488C225.607 172.553 221.763 185.037 214.435 195.969C208.922 204.192 203.538 213.06 194.893 217.929Z" stroke="#6260FF" stroke-width="1.28384"/>
<path d="M193.065 217.718C169.929 230.749 137.149 227.27 120.116 247.583C105.899 264.537 106.481 291.771 113.37 312.762C120.261 333.756 135.303 362.246 157.478 361.417C190.839 360.169 207.73 312.974 240.739 307.998C256.477 305.626 256.258 337.651 270.682 344.352C284.443 350.745 301.457 348.031 315.718 342.834C330.549 337.429 349.875 329.836 352.869 314.402C356.471 295.835 319.953 277.741 331.289 262.566C353.541 232.781 426.78 248.841 429.503 211.823C431.841 180.029 357.251 216.877 336.432 192.65C317.95 171.144 356.027 132.807 340.97 108.802C329.246 90.1114 296.409 87.5293 276.375 96.907C252.774 107.954 245.902 138.033 231.833 159.888C224.535 171.226 220.596 184.017 213.088 195.218C207.439 203.644 201.923 212.729 193.065 217.718Z" stroke="#6260FF" stroke-width="1.28384"/>
<path d="M191.242 217.506C167.55 230.85 133.982 227.287 116.541 248.088C101.983 265.449 102.578 293.337 109.633 314.832C116.689 336.33 132.092 365.505 154.799 364.655C188.962 363.377 206.258 315.049 240.06 309.954C256.176 307.525 255.952 340.318 270.721 347.18C284.813 353.727 302.236 350.948 316.839 345.626C332.026 340.092 351.816 332.316 354.882 316.511C358.57 297.499 321.175 278.97 332.784 263.431C355.57 232.93 430.567 249.376 433.355 211.469C435.75 178.911 359.369 216.644 338.05 191.836C319.125 169.813 358.116 130.556 342.697 105.974C330.691 86.8347 297.066 84.1906 276.551 93.7935C252.384 105.106 245.347 135.907 230.94 158.287C223.466 169.897 219.434 182.996 211.745 194.465C205.96 203.094 200.312 212.397 191.242 217.506Z" stroke="#6260FF" stroke-width="1.28384"/>
<path d="M189.415 217.296C165.168 230.953 130.814 227.306 112.963 248.595C98.0639 266.364 98.6731 294.905 105.893 316.904C113.115 338.906 128.879 368.765 152.119 367.896C187.083 366.588 204.784 317.127 239.378 311.912C255.872 309.425 255.643 342.988 270.759 350.011C285.18 356.712 303.012 353.867 317.957 348.421C333.501 342.756 353.754 334.798 356.892 318.623C360.667 299.164 322.395 280.201 334.276 264.298C357.597 233.082 434.352 249.913 437.205 211.117C439.656 177.796 361.485 216.414 339.666 191.024C320.297 168.485 360.202 128.307 344.422 103.149C332.134 83.5602 297.721 80.8541 276.725 90.6822C251.992 102.26 244.789 133.783 230.044 156.689C222.396 168.57 218.268 181.976 210.399 193.715C204.479 202.545 198.698 212.067 189.415 217.296Z" stroke="#6260FF" stroke-width="1.28384"/>
<path d="M187.592 217.083C162.789 231.053 127.648 227.323 109.388 249.099C94.1475 267.275 94.7706 296.471 102.156 318.974C109.543 341.48 125.669 372.023 149.441 371.134C185.205 369.796 203.313 319.201 238.699 313.867C255.571 311.324 255.336 345.655 270.798 352.839C285.551 359.693 303.79 356.784 319.078 351.212C334.978 345.418 355.695 337.278 358.905 320.732C362.766 300.828 323.618 281.43 335.771 265.162C359.626 233.231 438.139 250.448 441.058 210.763C443.565 176.678 363.603 216.181 341.284 190.209C321.471 167.154 362.291 126.055 346.149 100.32C333.58 80.2832 298.378 77.5151 276.901 87.5684C251.601 99.4114 244.234 131.657 229.152 155.087C221.328 167.241 217.106 180.954 209.056 192.962C203.001 201.995 197.087 211.735 187.592 217.083Z" stroke="#6260FF" stroke-width="1.28384"/>
<path d="M185.764 216.873C160.406 231.156 124.478 227.342 105.809 249.606C90.2273 268.189 90.8644 298.039 98.4156 321.046C105.968 344.056 122.455 375.283 146.759 374.374C183.325 373.007 201.837 321.279 238.016 315.825C255.265 313.224 255.026 348.325 270.834 355.67C285.917 362.678 304.565 359.703 320.195 354.007C336.451 348.083 357.633 339.76 360.914 322.843C364.862 302.493 324.837 282.661 337.262 266.029C361.651 233.382 441.923 250.985 444.907 210.411C447.47 175.563 365.718 215.951 342.899 189.397C322.642 165.825 364.376 123.806 347.872 97.4948C335.022 77.0087 299.032 74.1785 277.074 84.4571C251.207 96.5653 243.675 129.533 228.255 153.488C220.256 165.915 215.939 179.935 207.709 192.211C201.518 201.447 195.472 211.405 185.764 216.873Z" stroke="#6260FF" stroke-width="1.28384"/>
<path d="M183.94 216.661C158.027 231.256 121.311 227.359 102.234 250.111C86.3108 269.101 86.9618 299.605 94.6784 323.116C102.396 346.63 119.244 378.542 144.081 377.613C181.447 376.215 200.365 323.354 237.337 317.78C254.964 315.123 254.719 350.993 270.874 358.499C286.287 365.66 305.344 362.62 321.316 356.799C337.928 350.745 359.573 342.24 362.927 324.953C366.961 304.157 326.06 283.89 338.757 266.893C363.68 233.531 445.71 251.52 448.76 210.057C451.379 174.446 367.836 215.718 344.517 188.582C323.817 164.494 366.465 121.554 349.6 94.6669C336.468 73.732 299.689 70.8398 277.25 81.3435C250.817 93.7171 243.12 127.407 227.362 151.887C219.187 164.586 214.776 178.913 206.366 191.458C200.04 200.896 193.861 211.073 183.94 216.661Z" stroke="#6260FF" stroke-width="1.28384"/>
<path d="M182.113 216.448C155.644 231.357 118.141 227.376 98.6548 250.616C82.3906 270.013 83.0556 301.17 90.9376 325.186C98.8205 349.204 116.03 381.8 141.399 380.851C179.566 379.423 198.89 325.429 236.654 319.736C254.659 317.021 254.409 353.66 270.91 361.327C286.653 368.642 306.119 365.536 322.434 359.591C339.401 353.407 361.511 344.72 364.936 327.062C369.057 305.82 327.278 285.119 340.248 267.758C365.706 233.68 449.494 252.055 452.609 209.703C455.285 173.328 369.95 215.485 346.131 187.768C324.988 163.163 368.55 119.303 351.323 91.8388C337.91 70.4551 300.343 67.5009 277.423 78.2298C250.423 90.8686 242.561 125.281 226.465 150.286C218.115 163.257 213.61 177.891 205.02 190.705C198.557 200.346 192.247 210.74 182.113 216.448Z" stroke="#6260FF" stroke-width="1.28384"/>
<path d="M180.29 216.238C153.266 231.459 114.976 227.395 95.0809 251.123C78.4754 270.927 79.1543 302.739 87.2018 327.258C95.2501 351.78 112.821 385.06 138.722 384.091C177.691 382.634 197.42 327.506 235.976 321.693C254.359 318.922 254.104 356.33 270.951 364.158C287.025 371.626 306.899 368.455 323.556 362.385C340.88 356.072 363.453 347.202 366.95 329.173C371.157 307.486 328.502 286.35 341.744 268.625C367.736 233.832 453.283 252.592 456.463 209.351C459.195 172.213 372.069 215.255 347.751 186.956C326.163 161.835 370.64 117.053 353.052 89.0131C339.357 67.1806 301.001 64.1644 277.601 75.1185C250.034 88.0226 242.007 123.158 225.573 148.687C217.048 161.93 212.448 176.872 203.678 189.955C197.08 199.798 190.637 210.41 180.29 216.238Z" stroke="#6260FF" stroke-width="1.28384"/>
<path d="M178.462 216.027C150.882 231.562 111.805 227.414 91.5007 251.629C74.5539 271.841 75.2468 304.306 83.4596 329.33C91.6734 354.356 109.605 388.32 136.039 387.332C175.808 385.844 195.943 329.583 235.292 323.651C254.053 320.823 253.792 359 270.986 366.988C287.39 374.61 307.672 371.374 324.672 365.179C342.352 358.736 365.389 349.684 368.958 331.285C373.252 309.151 329.72 287.581 343.234 269.491C369.76 233.983 457.065 253.129 460.311 208.999C463.099 171.097 374.183 215.024 349.364 186.143C327.333 160.506 372.724 114.804 354.774 86.1872C340.798 63.9058 301.654 60.8276 277.772 72.0069C249.639 85.1763 241.447 121.034 224.675 147.088C215.975 160.603 211.281 175.852 202.33 189.204C195.596 199.249 189.021 210.08 178.462 216.027Z" stroke="#6260FF" stroke-width="1.28384"/>
<path d="M176.634 215.813C148.499 231.66 108.635 227.428 87.9218 252.132C70.6337 272.751 71.3405 305.87 79.7188 331.398C88.098 356.928 106.391 391.576 133.357 390.568C173.927 389.05 194.468 331.656 234.609 325.604C253.748 322.719 253.482 361.665 271.022 369.815C287.756 377.59 308.447 374.289 325.789 367.969C343.825 361.396 367.326 352.162 370.967 333.392C375.347 310.812 330.939 288.808 344.725 270.353C371.785 234.13 460.849 253.661 464.16 208.643C467.004 169.978 376.297 214.789 350.979 185.327C328.504 159.173 374.809 112.55 356.497 83.3571C342.24 60.6269 302.307 57.4867 277.945 68.8912C249.245 82.3258 240.888 118.905 223.779 145.484C214.903 159.272 210.114 174.828 200.983 188.449C194.114 198.697 187.406 209.746 176.634 215.813Z" stroke="#6260FF" stroke-width="1.28384"/>
<path d="M174.812 215.603C146.121 231.763 105.47 227.448 84.348 252.639C66.7185 273.665 67.4393 307.438 75.983 333.47C84.5276 359.505 103.182 394.837 130.68 393.808C172.051 392.261 192.997 333.733 233.931 327.562C253.448 324.62 253.176 364.335 271.063 372.645C288.127 380.574 309.227 377.208 326.911 370.763C345.303 364.061 369.269 354.644 372.982 335.503C377.448 312.478 332.163 290.039 346.221 271.22C373.815 234.282 464.637 254.199 468.014 208.292C470.914 168.862 378.416 214.559 352.598 184.514C329.68 157.844 376.899 110.301 358.226 80.5314C343.687 57.3524 302.966 54.1502 278.122 65.7799C248.856 79.4799 240.334 116.782 222.887 143.886C213.836 157.945 208.953 173.809 199.641 187.699C192.636 198.148 185.796 209.416 174.812 215.603Z" stroke="#6260FF" stroke-width="1.28384"/>
<path d="M172.984 215.392C143.738 231.865 102.3 227.466 80.7691 253.146C62.7983 274.579 63.5331 309.006 72.2422 335.542C80.9522 362.081 99.9673 398.097 127.998 397.049C170.171 395.471 191.522 335.81 233.248 329.52C253.142 326.52 252.866 367.005 271.099 375.476C288.494 383.558 310.002 380.127 328.028 373.557C346.777 366.725 371.206 357.126 374.991 337.614C379.544 314.144 333.382 291.27 347.712 272.087C375.841 234.433 468.421 254.736 471.863 207.939C474.819 167.747 380.531 214.328 354.213 183.702C330.85 156.515 378.984 108.052 359.949 77.7055C345.129 54.0776 303.62 50.8133 278.295 62.6682C248.462 76.6335 239.775 114.658 221.99 142.286C212.764 156.619 207.786 172.789 198.295 186.948C191.154 197.6 184.181 209.085 172.984 215.392Z" stroke="#6260FF" stroke-width="1.28384"/>
<path d="M171.16 215.18C141.359 231.966 99.1341 227.483 77.1939 253.65C58.8818 275.49 59.6305 310.572 68.505 337.612C77.3805 364.655 96.7567 401.355 125.32 400.287C168.293 398.68 190.05 337.885 232.569 331.475C252.841 328.419 252.559 369.672 271.138 378.304C288.864 386.54 310.78 383.044 329.149 376.349C348.254 369.387 373.147 359.606 377.004 339.724C381.643 315.807 334.604 292.499 349.207 272.951C377.87 234.582 472.208 255.27 475.716 207.586C478.728 166.629 382.649 214.096 355.831 182.888C332.025 155.184 381.072 105.8 361.676 74.8776C346.574 50.8009 304.277 47.4747 278.471 59.5547C248.072 73.7853 239.22 112.532 221.097 140.685C211.696 155.29 206.623 171.767 196.951 186.195C189.675 197.05 182.57 208.753 171.16 215.18Z" stroke="#6260FF" stroke-width="1.28384"/>
<path d="M169.333 214.967C138.976 232.066 95.9642 227.5 73.615 254.155C54.9616 276.402 55.7243 312.138 64.7642 339.682C73.8051 367.229 93.5425 404.614 122.638 403.525C166.412 401.888 188.575 339.96 231.886 333.431C252.536 330.318 252.249 372.34 271.174 381.133C289.23 389.522 311.555 385.961 330.267 379.142C349.727 372.05 375.084 362.086 379.013 341.833C383.739 317.47 335.823 293.728 350.698 273.816C379.895 234.732 475.992 255.805 479.565 207.232C482.633 165.512 384.763 213.863 357.446 182.073C333.196 153.854 383.157 103.549 363.4 72.0497C348.016 47.5242 304.931 44.1359 278.644 56.4412C247.678 70.937 238.661 110.406 220.2 139.084C210.624 153.961 205.457 170.745 195.605 185.443C188.193 196.499 180.955 208.421 169.333 214.967Z" stroke="#6260FF" stroke-width="1.28384"/>
<path d="M167.509 214.757C136.597 232.169 92.7979 227.519 70.0398 254.662C51.0451 277.316 51.8217 313.706 61.027 341.754C70.2333 369.805 90.3319 407.874 119.96 406.766C164.535 405.098 187.103 342.037 231.207 335.388C252.235 332.218 251.943 375.009 271.214 383.964C289.6 392.506 312.334 388.88 331.388 381.936C351.204 374.714 377.025 364.568 381.026 343.944C385.838 319.136 337.046 294.959 352.193 274.682C381.924 234.883 479.779 256.342 483.417 206.88C486.542 164.396 386.881 213.632 359.064 181.261C334.37 152.525 385.246 101.299 365.127 69.2238C349.462 44.2494 305.588 40.7992 278.82 53.3296C247.288 68.0907 238.106 108.282 219.307 137.485C209.556 152.634 204.294 169.726 194.262 184.692C186.714 195.951 179.344 208.091 167.509 214.757Z" stroke="#6260FF" stroke-width="1.28384"/>
<path d="M165.682 214.544C134.214 232.269 89.628 227.536 66.4609 255.167C47.1249 278.228 47.9155 315.272 57.2862 343.824C66.6579 372.379 87.1177 411.132 117.278 410.004C162.654 408.307 185.628 344.112 230.524 337.344C251.93 334.117 251.632 377.677 271.25 386.792C289.967 395.488 313.108 391.796 332.505 384.728C352.677 377.376 378.962 367.048 383.035 346.054C387.934 320.799 338.265 296.188 353.684 275.547C383.949 235.032 483.563 256.877 487.266 206.526C490.447 163.279 388.996 213.4 360.678 180.446C335.541 151.194 387.331 99.0478 366.85 66.3959C350.904 40.9727 306.242 37.4605 278.993 50.2161C246.894 65.2425 237.547 106.156 218.411 135.884C208.484 151.305 203.127 168.704 192.915 183.939C185.232 195.4 177.729 207.758 165.682 214.544Z" stroke="#6260FF" stroke-width="1.28384"/>
<path d="M163.858 214.334C131.835 232.372 86.4618 227.555 62.8858 255.673C43.2085 279.142 44.013 316.839 53.5491 345.896C63.0863 374.955 83.9072 414.392 114.6 413.244C160.777 411.517 184.156 346.189 229.845 339.301C251.628 336.017 251.326 380.347 271.29 389.623C290.337 398.473 313.887 394.715 333.626 387.522C354.154 380.04 380.903 369.529 385.048 348.165C390.033 322.465 339.487 297.419 355.179 276.414C385.979 235.184 487.351 257.414 491.119 206.174C494.356 162.163 391.114 213.169 362.297 179.634C336.716 149.865 389.42 96.7984 368.578 63.57C352.35 37.698 306.899 34.1237 279.17 47.1045C246.504 62.3962 236.992 104.032 217.518 134.285C207.416 149.978 201.965 167.684 191.572 183.188C183.753 194.852 176.118 207.428 163.858 214.334Z" stroke="#6260FF" stroke-width="1.28384"/>
<path d="M162.03 214.122C129.452 232.472 83.2918 227.572 59.3068 256.178C39.2882 280.054 40.1067 318.405 49.8082 347.966C59.5108 377.529 80.6928 417.651 111.918 416.483C158.896 414.725 182.68 348.264 229.162 341.257C251.323 337.916 251.015 383.014 271.326 392.451C290.703 401.455 314.662 397.632 334.743 390.314C355.627 382.703 382.841 372.009 387.057 350.274C392.129 324.128 340.706 298.648 356.67 277.278C388.004 235.333 491.134 257.949 494.968 205.82C498.261 161.046 393.228 212.937 363.911 178.82C337.886 148.534 391.505 94.547 370.301 60.7421C353.792 34.4213 307.553 30.785 279.342 43.991C246.11 59.548 236.433 101.906 216.621 132.684C206.344 148.649 200.798 166.663 190.225 182.436C182.271 194.302 174.503 207.096 162.03 214.122Z" stroke="#6260FF" stroke-width="1.28384"/>
<path d="M160.206 213.909C127.071 232.573 80.1244 227.589 55.7305 256.683C35.3706 280.966 36.203 319.971 46.0699 350.036C55.938 380.103 77.4811 420.909 109.239 419.721C157.018 417.934 181.208 350.339 228.481 343.213C251.021 339.815 250.708 385.682 271.364 395.28C291.072 404.437 315.439 400.549 335.863 393.106C357.103 385.365 384.781 374.489 389.069 352.384C394.227 325.792 341.928 299.876 358.163 278.143C390.032 235.482 494.92 258.484 498.82 205.466C502.169 159.929 395.345 212.704 365.528 178.005C339.06 147.204 393.592 92.2956 372.027 57.9143C355.236 31.1446 308.209 27.4462 279.517 40.8775C245.718 56.6997 235.876 99.7801 215.727 131.083C205.274 147.32 199.634 165.641 188.881 181.683C180.791 193.751 172.891 206.764 160.206 213.909Z" stroke="#6260FF" stroke-width="1.28384"/>
<path d="M158.381 213.699C124.691 232.675 76.9569 227.608 52.1541 257.19C31.4528 281.88 32.2992 321.539 42.3316 352.107C52.365 382.679 74.2693 424.169 106.559 422.961C155.139 421.144 179.735 352.416 227.801 345.17C250.718 341.715 250.4 388.351 271.403 398.11C291.441 407.421 316.217 403.468 336.982 395.9C358.579 388.029 386.72 376.971 391.08 354.495C396.325 327.457 343.149 301.107 359.657 279.009C392.059 235.633 498.706 259.021 502.671 205.114C506.077 158.813 397.462 212.473 367.145 177.193C340.233 145.875 395.68 90.046 373.753 55.0883C356.681 27.8697 308.865 24.1095 279.692 37.7659C245.327 53.8534 235.32 97.656 214.832 129.483C204.205 145.994 198.47 164.621 187.537 180.932C179.311 193.203 171.279 206.434 158.381 213.699Z" stroke="#6260FF" stroke-width="1.28384"/>
<path d="M156.553 213.489C122.308 232.778 73.787 227.627 48.5752 257.697C27.5326 282.794 28.393 323.107 38.5907 354.18C48.7896 385.256 71.0551 427.43 103.877 426.202C153.258 424.355 178.259 354.494 227.118 347.128C250.413 343.616 250.089 391.021 271.439 400.941C291.807 410.405 316.991 406.387 338.1 398.694C360.052 390.694 388.657 379.454 393.089 356.607C398.421 329.123 344.368 302.339 361.148 279.876C394.085 235.785 502.49 259.558 506.52 204.762C509.982 157.698 399.576 212.243 368.76 176.381C341.404 144.546 397.765 87.7968 375.477 52.2626C358.123 24.5953 309.519 20.773 279.865 34.6546C244.933 51.0074 234.761 95.5323 213.936 127.885C203.133 144.667 197.304 163.602 186.19 180.182C177.829 192.655 169.664 206.104 156.553 213.489Z" stroke="#6260FF" stroke-width="1.28384"/>
<path d="M154.729 213.276C119.929 232.879 70.6207 227.644 45 258.202C23.6161 283.706 24.4904 324.673 34.8536 356.25C45.2179 387.83 67.8445 430.688 101.199 429.44C151.381 427.563 176.788 356.569 226.439 349.083C250.112 345.515 249.783 393.689 271.478 403.769C292.177 413.387 317.77 409.304 339.22 401.486C361.529 393.356 390.598 381.933 395.102 358.716C400.52 330.786 345.59 303.568 362.643 280.741C396.114 235.934 506.277 260.093 510.373 204.408C513.89 156.58 401.694 212.01 370.378 175.566C342.578 143.215 399.853 85.5454 377.204 49.4348C359.568 21.3186 310.176 17.4343 280.041 31.5411C244.542 48.1592 234.205 93.4064 213.043 126.283C202.065 143.338 196.141 162.58 184.847 179.429C176.35 192.104 168.053 205.771 154.729 213.276Z" stroke="#6260FF" stroke-width="1.28384"/>
<path d="M152.902 213.064C117.546 232.979 67.4508 227.661 41.4212 258.706C19.6959 284.617 20.5842 326.239 31.1128 358.319C41.6425 390.403 64.6303 433.946 98.5172 432.678C149.5 430.771 175.312 358.643 225.756 351.039C249.807 347.413 249.473 396.356 271.514 406.598C292.544 416.369 318.545 412.221 340.338 404.278C363.003 396.018 392.536 384.413 397.111 360.825C402.616 332.45 346.809 304.796 364.134 281.605C398.139 236.083 510.061 260.628 514.222 204.054C517.796 155.463 403.809 211.777 371.992 174.752C343.749 141.884 401.938 83.2937 378.927 46.6066C361.011 18.0416 310.829 14.0953 280.214 28.4273C244.149 45.3107 233.647 91.2802 212.146 124.682C200.993 142.009 194.974 161.558 183.5 178.676C174.868 191.554 166.438 205.439 152.902 213.064Z" stroke="#6260FF" stroke-width="1.28384"/>
<path d="M151.079 212.853C115.168 233.082 64.2858 227.68 37.8473 259.213C15.7807 285.531 16.683 327.807 27.3769 360.391C38.0721 392.98 61.421 437.206 95.8404 435.919C147.624 433.982 173.842 360.721 225.078 352.996C249.507 349.314 249.167 399.026 271.555 409.429C292.915 419.353 319.325 415.14 341.46 407.073C364.481 398.683 394.478 386.895 399.126 362.937C404.716 334.115 348.033 306.027 365.63 282.472C400.169 236.235 513.85 261.165 518.076 203.702C521.706 154.347 405.928 211.547 373.612 173.94C344.925 140.556 404.028 81.0446 380.656 43.781C362.458 14.7672 311.488 10.7588 280.392 25.3161C243.76 42.4647 233.093 89.1565 211.254 123.083C199.926 140.682 193.813 160.539 182.158 177.925C173.39 191.006 164.828 205.109 151.079 212.853Z" stroke="#6260FF" stroke-width="1.28384"/>
<path d="M149.252 212.641C112.785 233.182 61.1159 227.697 34.2684 259.718C11.8606 286.443 12.7767 329.373 23.6361 362.461C34.4967 395.554 58.2068 440.465 93.1585 439.157C145.743 437.19 172.366 362.796 224.395 354.952C249.202 351.212 248.857 401.694 271.591 412.257C293.281 422.335 320.099 418.057 342.577 409.865C365.954 401.345 396.415 389.375 401.135 365.046C406.812 335.779 349.252 307.256 367.121 283.336C402.195 236.384 517.633 261.7 521.925 203.348C525.611 153.23 408.042 211.314 375.226 173.125C346.096 139.225 406.113 78.7931 382.379 40.9531C363.9 11.4904 312.142 7.42009 280.564 22.2025C243.366 39.6164 232.534 87.0305 210.358 121.482C198.854 139.353 192.646 159.517 180.811 177.173C171.908 190.455 163.213 204.777 149.252 212.641Z" stroke="#6260FF" stroke-width="1.28384"/>
<path d="M147.428 212.428C110.406 233.282 57.9496 227.714 30.6932 260.222C7.94403 287.355 8.87417 330.938 19.899 364.531C30.925 398.128 54.9962 443.723 90.4803 442.395C143.866 440.398 170.895 364.871 223.716 356.907C248.9 353.111 248.55 404.361 271.631 415.085C293.651 425.317 320.878 420.973 343.698 412.657C367.431 404.007 398.356 391.855 403.148 367.155C408.911 337.442 350.475 308.485 368.616 284.201C404.224 236.533 521.421 262.235 525.778 202.994C529.52 152.112 410.16 211.082 376.845 172.311C347.27 137.894 408.202 76.5414 384.106 38.125C365.345 8.21342 312.799 4.0811 280.741 19.0887C242.975 36.7679 231.978 84.9043 209.465 119.881C197.786 138.024 191.484 158.495 179.468 176.42C170.429 189.905 161.602 204.444 147.428 212.428Z" stroke="#6260FF" stroke-width="1.28384"/>
<path d="M145.601 212.218C108.023 233.385 54.7797 227.733 27.1143 260.729C4.02384 288.269 4.96794 332.506 16.1581 366.603C27.3496 400.704 51.7819 446.983 87.7984 445.636C141.985 443.609 169.419 366.948 223.033 358.865C248.595 355.011 248.24 407.031 271.667 417.916C294.018 428.301 321.653 423.892 344.815 415.451C368.905 406.672 400.294 394.337 405.157 369.267C411.007 339.108 351.694 309.716 370.107 285.067C406.249 236.685 525.204 262.772 529.627 202.642C533.425 150.997 412.275 210.851 378.459 171.498C348.441 136.565 410.287 74.2922 385.83 35.2993C366.787 4.93892 313.453 0.744585 280.913 15.9774C242.581 33.9219 231.42 82.7806 208.568 118.282C196.714 136.698 190.317 157.476 178.122 175.669C168.947 189.356 159.987 204.114 145.601 212.218Z" stroke="#6260FF" stroke-width="1.28384"/>
<path d="M143.777 212.008C105.644 233.488 51.6134 227.752 23.5391 261.236C0.107314 289.183 1.06537 334.074 12.421 368.675C23.7778 403.28 48.5713 450.243 85.1202 448.876C140.108 446.819 167.948 369.025 222.354 360.823C248.294 356.912 247.933 409.7 271.707 420.747C294.388 431.285 322.431 426.811 345.936 418.245C370.382 409.336 402.235 396.819 407.17 371.378C413.106 340.773 352.916 310.947 371.601 285.934C408.278 236.836 528.992 263.309 533.48 202.29C537.334 149.881 414.393 210.621 380.077 170.686C349.616 135.236 412.376 72.0427 387.557 32.4734C368.233 1.66414 314.11 -2.59218 281.09 12.8658C242.191 31.0756 230.864 80.6566 207.675 116.683C195.645 135.371 189.154 156.456 176.778 174.919C167.468 188.808 158.376 203.784 143.777 212.008Z" stroke="#6260FF" stroke-width="1.28384"/>
</svg>
