<svg width="425" height="458" viewBox="0 0 425 458" fill="none" xmlns="http://www.w3.org/2000/svg">
<path fill-rule="evenodd" clip-rule="evenodd" d="M214.942 189.391C223.263 183.313 230.887 170.78 240.876 173.296C249.741 175.529 246.577 190.425 250.952 198.46C254.49 204.957 262.339 208.792 264.117 215.974C265.897 223.169 262.807 230.565 260.654 237.657C258.6 244.421 257.898 253.098 251.775 256.619C245.042 260.491 236.416 254.562 228.783 255.987C223.559 256.962 219.283 260.425 214.942 263.494C205.079 270.466 198.814 284.114 186.837 285.641C176.754 286.926 163.703 280.157 160.867 270.385C157.523 258.864 170.535 248.672 172.681 236.868C173.884 230.255 171.785 223.678 170.56 217.07C168.59 206.45 153.553 190.696 163.232 185.926C176.003 179.632 188.29 200.38 202.493 201.331C208.3 201.72 210.24 192.825 214.942 189.391Z" stroke="#6260FF" stroke-width="1.28384"/>
<path fill-rule="evenodd" clip-rule="evenodd" d="M222.871 67.8535C256.455 43.3051 287.229 -7.31616 327.544 2.84523C363.324 11.8634 350.554 72.0317 368.215 104.487C382.493 130.726 414.174 146.219 421.348 175.227C428.536 204.288 416.063 234.161 407.371 262.806C399.081 290.125 396.247 325.173 371.535 339.396C344.362 355.035 309.543 331.087 278.737 336.841C257.652 340.779 240.392 354.769 222.871 367.164C183.065 395.326 157.775 450.452 109.435 456.617C68.7395 461.807 16.0637 434.469 4.61675 394.999C-8.8798 348.462 43.6404 307.298 52.3018 259.62C57.1543 232.909 48.6857 206.344 43.738 179.651C35.7881 136.759 -24.9014 73.1259 14.1641 53.8589C65.7104 28.4363 115.302 112.239 172.627 116.083C196.063 117.654 203.896 81.7236 222.871 67.8535Z" stroke="#6260FF" stroke-width="1.28384"/>
<path d="M242.575 169.954C231.992 167.288 223.914 180.568 215.098 187.008C210.116 190.646 208.06 200.072 201.908 199.66C186.86 198.651 173.841 176.667 160.31 183.336C150.055 188.391 165.986 205.084 168.073 216.336C169.372 223.338 171.595 230.307 170.321 237.314C168.047 249.822 154.26 260.621 157.803 272.829C160.808 283.183 174.636 290.355 185.319 288.993C198.009 287.376 204.648 272.914 215.098 265.527C219.697 262.275 224.228 258.605 229.763 257.572C237.85 256.062 246.99 262.345 254.123 258.242C260.611 254.511 261.355 245.317 263.531 238.15C265.812 230.636 269.087 222.799 267.2 215.175C265.317 207.565 257 203.501 253.252 196.618C248.616 188.104 251.968 172.32 242.575 169.954Z" stroke="#6260FF" stroke-width="1.28384"/>
<path d="M244.274 166.611C233.096 163.796 224.564 177.822 215.252 184.624C209.991 188.468 207.819 198.423 201.321 197.988C185.427 196.923 171.678 173.702 157.386 180.747C146.554 186.085 163.381 203.717 165.585 215.602C166.957 222.998 169.305 230.359 167.96 237.76C165.558 250.971 150.997 262.377 154.739 275.272C157.912 286.208 172.517 293.784 183.801 292.345C197.204 290.637 204.215 275.362 215.252 267.559C220.11 264.125 224.895 260.248 230.741 259.157C239.283 257.563 248.937 264.198 256.471 259.865C263.322 255.924 264.108 246.213 266.407 238.643C268.816 230.706 272.275 222.428 270.282 214.376C268.293 206.338 259.509 202.045 255.55 194.775C250.653 185.782 254.194 169.11 244.274 166.611Z" stroke="#6260FF" stroke-width="1.28384"/>
<path d="M245.973 163.27C234.201 160.304 225.215 175.078 215.408 182.242C209.867 186.29 207.58 196.776 200.736 196.317C183.997 195.195 169.515 170.738 154.463 178.158C143.056 183.78 160.778 202.351 163.099 214.869C164.544 222.659 167.017 230.412 165.6 238.207C163.071 252.121 147.734 264.135 151.675 277.716C155.018 289.234 170.4 297.213 182.283 295.698C196.399 293.899 203.784 277.811 215.408 269.592C220.524 265.975 225.564 261.892 231.721 260.743C240.717 259.064 250.884 266.053 258.819 261.489C266.036 257.338 266.863 247.109 269.284 239.137C271.822 230.777 275.464 222.059 273.365 213.578C271.27 205.112 262.019 200.59 257.85 192.933C252.692 183.461 256.422 165.902 245.973 163.27Z" stroke="#6260FF" stroke-width="1.28384"/>
<path d="M247.674 159.928C235.307 156.812 225.867 172.332 215.564 179.859C209.743 184.111 207.341 195.127 200.151 194.645C182.566 193.467 167.354 167.774 151.541 175.568C139.557 181.475 158.175 200.985 160.613 214.135C162.131 222.319 164.729 230.464 163.24 238.653C160.583 253.271 144.472 265.891 148.612 280.159C152.124 292.26 168.283 300.642 180.767 299.051C195.595 297.161 203.353 280.259 215.564 271.625C220.939 267.825 226.234 263.536 232.702 262.328C242.152 260.564 252.833 267.907 261.168 263.112C268.749 258.751 269.619 248.006 272.161 239.63C274.828 230.847 278.654 221.688 276.449 212.779C274.248 203.885 264.53 199.135 260.15 191.09C254.732 181.14 258.65 162.692 247.674 159.928Z" stroke="#6260FF" stroke-width="1.28384"/>
<path d="M249.372 156.585C236.41 153.32 226.516 169.587 215.718 177.475C209.617 181.932 207.099 193.479 199.564 192.974C181.134 191.738 165.189 164.809 148.617 172.978C136.057 179.17 155.569 199.618 158.125 213.401C159.716 221.979 162.438 230.515 160.878 239.099C158.094 254.42 141.208 267.648 145.547 282.602C149.227 295.286 166.163 304.071 179.247 302.403C194.789 300.422 202.92 282.707 215.718 273.657C221.351 269.674 226.901 265.179 233.679 263.913C243.584 262.064 254.779 269.76 263.515 264.734C271.46 260.164 272.371 248.901 275.037 240.122C277.831 230.918 281.841 221.318 279.531 211.979C277.224 202.658 267.038 197.679 262.447 189.247C256.769 178.818 260.875 159.483 249.372 156.585Z" stroke="#6260FF" stroke-width="1.28384"/>
<path d="M251.071 153.243C237.515 149.828 227.167 166.841 215.874 175.092C209.493 179.754 206.86 191.83 198.979 191.302C179.703 190.01 163.027 161.844 145.694 170.389C132.558 176.864 152.965 198.251 155.639 212.667C157.302 221.639 160.15 230.567 158.518 239.545C155.606 255.569 137.945 269.405 142.484 285.046C146.333 298.311 164.046 307.5 177.73 305.755C193.985 303.683 202.489 285.155 215.874 275.69C221.765 271.524 227.569 266.822 234.659 265.499C245.018 263.565 256.726 271.614 265.864 266.357C274.173 261.577 275.126 249.798 277.914 240.616C280.836 230.988 285.031 220.948 282.614 211.18C280.201 201.431 269.548 196.224 264.747 187.405C258.808 176.496 263.103 156.274 251.071 153.243Z" stroke="#6260FF" stroke-width="1.28384"/>
<path d="M252.772 149.901C238.62 146.336 227.819 164.097 216.03 172.71C209.37 177.576 206.621 190.182 198.394 189.631C178.273 188.282 160.865 158.88 142.772 167.799C129.06 174.559 150.362 196.885 153.153 211.934C154.89 221.299 157.862 230.62 156.159 239.992C153.119 256.719 134.683 271.162 139.421 287.489C143.439 301.337 161.929 310.929 176.213 309.108C193.181 306.945 202.058 287.604 216.03 277.723C222.18 273.375 228.239 268.466 235.64 267.085C246.453 265.066 258.675 273.468 268.213 267.981C276.887 262.991 277.882 250.694 280.791 241.109C283.842 231.059 288.221 220.578 285.698 210.382C283.179 200.204 272.059 194.769 267.047 185.562C260.848 174.175 265.331 153.065 252.772 149.901Z" stroke="#6260FF" stroke-width="1.28384"/>
<path d="M254.471 146.559C239.725 142.844 228.47 161.351 216.186 170.326C209.246 175.397 206.381 188.534 197.809 187.959C176.842 186.554 158.703 155.915 139.849 165.21C125.561 172.254 147.759 195.519 150.666 211.2C152.476 220.96 155.574 230.672 153.799 240.438C150.631 257.869 131.421 272.919 136.357 289.933C140.544 304.363 159.811 314.358 174.696 312.461C192.377 310.207 201.627 290.052 216.186 279.756C222.594 275.224 228.908 270.11 236.619 268.67C247.887 266.566 260.623 275.322 270.561 269.604C279.6 264.404 280.637 251.59 283.669 241.602C286.848 231.13 291.41 220.208 288.781 209.583C286.157 198.977 274.569 193.313 269.347 183.72C262.887 171.854 267.558 149.856 254.471 146.559Z" stroke="#6260FF" stroke-width="1.28384"/>
<path d="M256.169 143.217C240.829 139.352 229.119 158.606 216.34 167.943C209.12 173.219 206.139 186.885 197.222 186.288C175.409 184.826 156.539 152.95 136.925 162.62C122.06 169.948 145.153 194.152 148.178 210.466C150.061 220.619 153.283 230.724 151.437 240.883C148.141 259.018 128.157 274.675 133.292 292.376C137.648 307.389 157.691 317.787 173.176 315.813C191.57 313.468 201.193 292.5 216.34 281.789C223.007 277.074 229.574 271.753 237.597 270.255C249.319 268.066 262.568 277.175 272.908 271.227C282.311 265.817 283.39 252.486 286.544 242.095C289.851 231.2 294.597 219.837 291.862 208.784C289.132 197.75 277.078 191.857 271.644 181.877C264.924 169.532 269.784 146.647 256.169 143.217Z" stroke="#6260FF" stroke-width="1.28384"/>
<path d="M257.869 139.874C241.934 135.859 229.771 155.861 216.496 165.56C208.996 171.04 205.9 185.237 196.637 184.616C173.979 183.097 154.377 149.986 134.003 160.031C118.562 167.643 142.55 192.785 145.692 209.733C147.648 220.279 150.995 230.776 149.077 241.33C145.654 260.168 124.895 276.432 130.229 294.819C134.754 310.414 155.574 321.216 171.66 319.166C190.767 316.73 200.763 294.948 216.496 283.821C223.421 278.924 230.244 273.396 238.578 271.84C250.754 269.567 264.517 279.029 275.257 272.85C285.025 267.23 286.145 253.382 289.422 242.588C292.857 231.27 297.787 219.467 294.946 207.985C292.11 196.523 279.588 190.402 273.945 180.034C266.964 167.211 272.012 143.438 257.869 139.874Z" stroke="#6260FF" stroke-width="1.28384"/>
<path d="M259.569 136.532C243.039 132.367 230.422 153.115 216.652 163.177C208.872 168.862 205.661 183.589 196.052 182.944C172.548 181.369 152.215 147.021 131.08 157.441C115.063 165.338 139.946 191.419 143.206 208.999C145.235 219.94 148.707 230.828 146.717 241.776C143.166 261.317 121.632 278.189 127.166 297.263C131.859 313.44 153.457 324.645 170.142 322.518C189.962 319.991 200.331 297.397 216.652 285.854C223.836 280.774 230.913 275.04 239.557 273.426C252.188 271.067 266.464 280.883 277.606 274.473C287.738 268.643 288.9 254.279 292.299 243.081C295.862 231.341 300.976 219.097 298.03 207.186C295.088 195.296 282.099 188.946 276.244 178.192C269.003 164.889 274.239 140.228 259.569 136.532Z" stroke="#6260FF" stroke-width="1.28384"/>
<path d="M261.267 133.19C244.143 128.875 231.072 150.37 216.807 160.794C208.747 166.683 205.42 181.94 195.465 181.273C171.116 179.641 150.051 144.056 128.157 154.851C111.563 163.032 137.342 190.052 140.718 208.265C142.82 219.6 146.417 230.88 144.356 242.222C140.677 262.467 118.368 279.946 124.101 299.706C128.963 316.466 151.338 328.074 168.624 325.87C189.157 323.253 199.899 299.845 216.807 287.887C224.249 282.623 231.58 276.683 240.536 275.011C253.621 272.568 268.411 282.737 279.953 276.096C290.45 270.056 291.653 255.175 295.175 243.574C298.866 231.411 304.164 218.726 301.112 206.387C298.064 194.069 284.607 187.491 278.542 176.349C271.041 162.568 276.465 137.019 261.267 133.19Z" stroke="#6260FF" stroke-width="1.28384"/>
<path d="M262.967 129.848C245.248 125.383 231.723 147.624 216.963 158.41C208.623 164.505 205.18 180.292 194.88 179.601C169.685 177.912 147.889 141.092 125.234 152.262C108.064 160.727 134.738 188.686 138.232 207.531C140.406 219.26 144.128 230.932 141.996 242.668C138.189 263.616 115.106 281.702 121.038 302.149C126.069 319.491 149.22 331.503 167.106 329.223C188.352 326.514 199.467 302.293 216.963 289.919C224.663 284.473 232.249 278.327 241.516 276.596C255.055 274.068 270.359 284.59 282.301 277.719C293.163 271.47 294.408 256.071 298.052 244.067C301.872 231.482 307.354 218.356 304.195 205.588C301.042 192.842 287.118 186.035 280.842 174.506C273.08 160.246 278.693 133.81 262.967 129.848Z" stroke="#6260FF" stroke-width="1.28384"/>
<path d="M264.667 126.506C246.354 121.891 232.375 144.88 217.119 156.028C208.499 162.326 204.941 178.644 194.295 177.93C168.255 176.184 145.727 138.127 122.312 149.672C104.566 158.422 132.135 187.32 135.746 206.798C137.994 218.92 141.841 230.984 139.636 243.114C135.702 264.766 111.844 283.46 117.975 304.593C123.175 322.517 147.103 334.932 165.589 332.576C187.548 329.776 199.036 304.741 217.119 291.952C225.078 286.323 232.918 279.97 242.496 278.182C256.49 275.569 272.307 286.445 284.651 279.342C295.876 272.883 297.164 256.967 300.929 244.561C304.878 231.552 310.544 217.986 307.279 204.789C304.02 191.615 289.628 184.58 283.142 172.664C275.12 157.925 280.921 130.601 264.667 126.506Z" stroke="#6260FF" stroke-width="1.28384"/>
<path d="M266.365 123.164C247.457 118.399 233.024 142.134 217.273 153.645C208.373 160.148 204.7 176.995 193.708 176.258C166.822 174.456 143.563 135.163 119.387 147.083C101.065 156.117 129.529 185.953 133.258 206.064C135.578 218.58 139.55 231.036 137.274 243.56C133.212 265.915 108.58 285.216 114.91 307.036C120.278 325.543 144.984 338.362 164.07 335.928C186.742 333.037 198.603 307.19 217.273 293.985C225.49 288.173 233.585 281.614 243.474 279.767C257.923 277.069 274.253 288.298 286.997 280.965C298.588 274.296 299.917 257.863 303.805 245.054C307.881 231.623 313.731 217.616 310.36 203.99C306.995 190.388 292.137 183.124 285.44 170.821C277.157 155.604 283.146 127.392 266.365 123.164Z" stroke="#6260FF" stroke-width="1.28384"/>
<path d="M268.065 119.821C248.562 114.907 233.675 139.389 217.429 151.261C208.249 157.969 204.46 175.347 193.123 174.587C165.391 172.728 141.401 132.198 116.465 144.493C97.5667 153.811 126.926 184.586 130.771 205.33C133.165 218.24 137.262 231.088 134.914 244.006C130.724 267.065 105.317 286.973 111.846 309.48C117.384 328.568 142.866 341.79 162.553 339.28C185.938 336.299 198.172 309.638 217.429 296.018C225.904 290.023 234.254 283.257 244.454 281.353C259.357 278.57 276.201 290.152 289.346 282.588C301.301 275.709 302.672 258.759 306.682 245.547C310.886 231.693 316.92 217.245 313.443 203.191C309.973 189.161 294.647 181.669 287.739 168.978C279.196 153.282 285.374 124.183 268.065 119.821Z" stroke="#6260FF" stroke-width="1.28384"/>
<path d="M269.765 116.479C249.668 111.415 234.327 136.644 217.585 148.878C208.126 155.791 204.221 173.698 192.538 172.915C163.961 170.999 139.239 129.233 113.543 141.904C94.0685 151.506 124.323 183.22 128.286 204.596C130.752 217.9 134.974 231.14 132.555 244.452C128.237 268.214 102.055 288.73 108.783 311.923C114.49 331.594 140.749 345.219 161.036 342.633C185.134 339.56 197.741 312.086 217.585 298.05C226.319 291.873 234.924 284.901 245.434 282.938C260.792 280.07 278.149 292.006 291.695 284.211C304.014 277.123 305.427 259.655 309.559 246.04C313.892 231.764 320.11 216.875 316.527 202.392C312.951 187.934 297.158 180.213 290.04 167.136C281.236 150.961 287.602 120.974 269.765 116.479Z" stroke="#6260FF" stroke-width="1.28384"/>
<path d="M271.465 113.137C250.773 107.923 234.978 133.899 217.741 146.495C208.002 153.613 203.981 172.05 191.953 171.244C162.53 169.271 137.077 126.269 110.62 139.314C90.5696 149.201 121.719 181.854 125.799 203.863C128.339 217.561 132.685 231.192 130.195 244.899C125.749 269.364 98.7928 290.487 105.72 314.367C111.595 334.62 138.631 348.649 159.519 345.986C184.33 342.822 197.31 314.534 217.741 300.083C226.733 293.723 235.592 286.545 246.414 284.524C262.226 281.571 280.097 293.86 294.043 285.835C306.727 278.536 308.182 260.552 312.437 246.533C316.898 231.835 323.299 216.505 319.611 201.593C315.928 186.708 299.668 178.758 292.339 165.293C283.275 148.639 289.829 117.765 271.465 113.137Z" stroke="#6260FF" stroke-width="1.28384"/>
<path d="M273.163 109.795C251.876 104.431 235.628 131.153 217.895 144.112C207.876 151.434 203.741 170.402 191.366 169.572C161.098 167.543 134.913 123.304 107.696 136.725C87.0696 146.896 119.114 180.487 123.312 203.129C125.924 217.221 130.396 231.244 127.833 245.345C123.26 270.514 95.5291 292.244 102.655 316.81C108.699 337.646 136.513 352.078 158 349.338C183.524 346.083 196.877 316.983 217.895 302.116C227.146 295.573 236.26 288.188 247.393 286.109C263.659 283.071 282.043 295.714 296.391 287.458C309.439 279.949 310.935 261.448 315.312 247.026C319.902 231.905 326.487 216.135 322.693 200.794C318.904 185.481 302.177 177.302 294.638 163.451C285.312 146.318 292.055 114.556 273.163 109.795Z" stroke="#6260FF" stroke-width="1.28384"/>
<path d="M274.863 106.453C252.981 100.939 236.279 128.408 218.051 141.729C207.752 149.256 203.501 168.753 190.781 167.901C159.667 165.815 132.751 120.34 104.774 134.135C83.5708 144.59 116.51 179.121 120.825 202.396C123.511 216.881 128.107 231.296 125.473 245.791C120.772 271.663 92.2666 294.001 99.5919 319.253C105.805 340.671 134.395 355.507 156.483 352.69C182.72 349.345 196.446 319.431 218.051 304.149C227.56 297.423 236.929 289.831 248.372 287.694C265.093 284.572 283.991 297.567 298.739 289.081C312.152 281.363 313.69 262.344 318.189 247.519C322.907 231.975 329.677 215.765 325.776 199.995C321.882 184.254 304.687 175.847 296.937 161.608C287.352 143.996 294.283 111.346 274.863 106.453Z" stroke="#6260FF" stroke-width="1.28384"/>
<path d="M276.563 103.11C254.087 97.4465 236.931 125.663 218.208 139.346C207.629 147.077 203.262 167.105 190.196 166.229C158.237 164.087 130.589 117.375 101.852 131.545C80.0726 142.285 113.907 177.754 118.339 201.662C121.098 216.541 125.819 231.348 123.114 246.237C118.285 272.813 89.0047 295.757 96.5291 321.697C102.911 343.697 132.278 358.936 154.966 356.043C181.916 352.606 196.015 321.879 218.208 306.181C227.975 299.272 237.598 291.475 249.353 289.28C266.528 286.072 285.939 299.421 301.088 290.704C314.866 282.776 316.446 263.24 321.067 248.012C325.913 232.046 332.867 215.394 328.86 199.196C324.86 183.027 307.198 174.391 299.237 159.765C289.391 141.675 296.511 108.137 276.563 103.11Z" stroke="#6260FF" stroke-width="1.28384"/>
<path d="M278.261 99.7682C255.19 93.9543 237.58 122.917 218.361 136.963C207.503 144.899 203.02 165.457 189.609 164.557C156.804 162.358 128.425 114.41 98.9273 128.956C76.5719 139.979 111.302 176.387 115.851 200.928C118.682 216.201 123.529 231.4 120.752 246.683C115.795 273.962 85.7403 297.514 93.4638 324.14C100.014 346.723 130.158 362.365 153.447 359.395C181.11 355.868 195.582 324.327 218.361 308.214C228.387 301.122 238.265 293.118 250.331 290.865C267.96 287.573 287.885 301.275 303.435 292.327C317.577 284.189 319.199 264.136 323.942 248.505C328.916 232.116 336.054 215.024 331.941 198.397C327.835 181.8 309.706 172.936 301.535 157.923C291.428 139.353 298.736 104.928 278.261 99.7682Z" stroke="#6260FF" stroke-width="1.28384"/>
<path d="M279.961 96.4263C256.295 90.4625 238.231 120.172 218.517 134.58C207.379 142.721 202.781 163.809 189.024 162.886C155.373 160.63 126.263 111.446 96.0047 126.367C73.073 137.674 108.698 175.021 113.365 200.195C116.269 215.861 121.24 231.452 118.392 247.129C113.307 275.112 82.4778 299.271 90.4003 326.584C97.1198 349.749 128.041 365.794 151.929 362.748C180.305 359.13 195.15 326.776 218.517 310.247C228.802 302.972 238.934 294.762 251.31 292.451C269.394 289.074 289.833 303.129 305.784 293.95C320.29 285.602 321.954 265.033 326.82 248.999C331.922 232.187 339.243 214.654 335.024 197.599C330.813 180.573 312.216 171.48 303.834 156.08C293.467 137.032 300.964 101.719 279.961 96.4263Z" stroke="#6260FF" stroke-width="1.28384"/>
<path d="M281.661 93.0841C257.401 86.9704 238.883 117.427 218.674 132.197C207.255 140.542 202.542 162.16 188.439 161.215C153.943 158.902 124.101 108.481 93.0827 123.777C69.5749 135.369 106.095 173.655 110.879 199.461C113.856 215.521 118.952 231.504 116.032 247.575C110.82 276.261 79.2159 301.028 87.3376 329.027C94.2258 352.774 125.924 369.223 150.413 366.1C179.502 362.391 194.72 329.224 218.674 312.28C229.216 304.822 239.603 296.405 252.291 294.036C270.829 290.574 291.781 304.983 308.133 295.573C323.004 287.016 324.709 265.929 329.697 249.492C334.927 232.258 342.433 214.284 338.108 196.8C333.791 179.346 314.727 170.025 306.135 154.238C295.507 134.711 303.192 98.51 281.661 93.0841Z" stroke="#6260FF" stroke-width="1.28384"/>
<path d="M283.361 89.7418C258.506 83.4782 239.534 114.682 218.829 129.814C207.131 138.363 202.302 160.512 187.854 159.543C152.512 157.174 121.939 105.516 90.1601 121.187C66.076 133.064 103.491 172.288 108.393 198.727C111.443 215.181 116.664 231.556 113.672 248.021C108.332 277.411 75.9534 302.785 84.2741 331.47C91.3313 355.8 123.806 372.652 148.895 369.453C178.697 365.653 194.288 331.672 218.829 314.312C229.631 306.672 240.272 298.049 253.271 295.621C272.263 292.074 293.729 306.836 310.481 297.196C325.717 288.429 327.464 266.825 332.574 249.985C337.933 232.328 345.623 213.913 341.192 196C336.768 178.119 317.237 168.569 308.434 152.395C297.546 132.389 305.419 95.3007 283.361 89.7418Z" stroke="#6260FF" stroke-width="1.28384"/>
<path d="M285.059 86.3995C259.61 79.986 240.184 111.936 218.984 127.431C207.006 136.185 202.061 158.863 187.267 157.871C151.08 155.445 119.775 102.552 87.2362 118.598C62.576 130.758 100.886 170.921 105.905 197.993C109.028 214.841 114.374 231.608 111.311 248.467C105.843 278.56 72.6896 304.541 81.2094 333.914C88.4354 358.826 121.687 376.081 147.376 372.805C177.892 368.914 193.856 334.12 218.984 316.345C230.044 308.522 240.939 299.692 254.249 297.206C273.696 293.575 295.675 308.69 312.829 298.819C328.428 289.842 330.217 267.721 335.45 250.478C340.937 232.398 348.811 213.543 344.274 195.201C339.745 176.892 319.746 167.114 310.733 150.552C299.584 130.068 307.645 92.0915 285.059 86.3995Z" stroke="#6260FF" stroke-width="1.28384"/>
<path d="M286.759 83.0572C260.715 76.4937 240.835 109.191 219.14 125.047C206.882 134.006 201.822 157.215 186.682 156.2C149.649 153.717 117.613 99.587 84.3136 116.008C59.0771 128.453 98.2828 169.555 103.419 197.259C106.615 214.501 112.085 231.66 108.951 248.913C103.355 279.71 69.4271 306.298 78.146 336.357C85.5408 361.851 119.57 379.51 145.859 376.158C177.087 372.175 193.424 336.568 219.14 318.378C230.458 310.371 241.608 301.335 255.229 298.792C275.13 295.075 297.623 310.544 315.177 300.442C331.141 291.255 332.972 268.617 338.327 250.971C343.942 232.469 352 213.173 347.357 194.402C342.722 175.665 322.256 165.658 313.032 148.709C301.623 127.746 309.873 88.8822 286.759 83.0572Z" stroke="#6260FF" stroke-width="1.28384"/>
<path d="M288.459 79.715C261.82 73.0016 241.487 106.446 219.296 122.664C206.758 131.828 201.583 155.566 186.097 154.528C148.219 151.988 115.451 96.6223 81.3916 113.418C55.579 126.148 95.6798 168.188 100.933 196.526C104.202 214.161 109.798 231.712 106.591 249.359C100.868 280.859 66.1653 308.055 75.0832 338.8C82.6469 364.877 117.453 382.939 144.342 379.51C176.283 375.437 192.994 339.016 219.296 320.41C230.873 312.221 242.278 302.979 256.209 300.377C276.565 296.575 299.572 312.398 317.526 302.065C333.855 292.668 335.728 269.513 341.205 251.464C346.948 232.539 355.19 212.802 350.441 193.603C345.7 174.438 324.767 164.202 315.332 146.867C303.663 125.425 312.101 85.6731 288.459 79.715Z" stroke="#6260FF" stroke-width="1.28384"/>
<path d="M290.157 76.3727C262.924 69.5094 242.136 103.7 219.45 120.281C206.632 129.649 201.341 153.918 185.51 152.856C146.787 150.26 113.287 93.6576 78.4671 110.829C52.0783 123.842 93.0743 166.822 98.4445 195.792C101.787 213.821 107.507 231.764 104.229 249.805C98.3785 282.008 62.9009 309.812 72.0179 341.244C79.7504 367.902 115.333 386.368 142.823 382.862C175.477 378.698 192.56 341.464 219.45 322.443C231.285 314.071 242.945 304.622 257.187 301.962C277.997 298.076 301.517 314.251 319.873 303.688C336.566 294.081 338.481 270.409 344.08 251.957C349.951 232.61 358.377 212.432 353.522 192.804C348.676 173.211 327.275 162.747 317.63 145.024C305.7 123.103 314.326 82.4638 290.157 76.3727Z" stroke="#6260FF" stroke-width="1.28384"/>
<path d="M291.857 73.031C264.029 66.0178 242.787 100.956 219.606 117.898C206.508 127.471 201.101 152.27 184.925 151.185C145.356 148.532 111.125 90.6934 75.5445 108.24C48.5794 121.537 90.4706 165.456 95.9581 195.059C99.3732 213.482 105.219 231.817 101.869 250.252C95.8907 283.158 59.6384 311.569 68.9545 343.688C76.8558 370.929 113.215 389.797 141.306 386.215C174.673 381.96 192.129 343.913 219.606 324.476C231.699 315.921 243.613 306.266 258.167 303.548C279.431 299.577 303.465 316.105 322.221 305.312C339.279 295.495 341.236 271.306 346.957 252.451C352.957 232.681 361.566 212.062 356.605 192.006C351.653 171.985 329.785 161.292 319.93 143.182C307.739 120.782 316.554 79.2551 291.857 73.031Z" stroke="#6260FF" stroke-width="1.28384"/>
<path d="M293.557 69.6886C265.134 62.5255 243.439 98.2101 219.762 115.515C206.384 125.293 200.862 150.621 184.34 149.514C143.925 146.804 108.963 87.7286 72.6225 105.65C45.0812 119.232 87.8676 164.089 93.4723 194.325C96.9604 213.142 102.931 231.869 99.5098 250.698C93.4034 284.308 56.3765 313.326 65.8916 346.131C73.9618 373.954 111.098 393.226 139.789 389.568C173.869 385.222 191.698 346.361 219.762 326.509C232.114 317.771 244.283 307.91 259.147 305.133C280.866 301.077 305.414 317.959 324.571 306.934C341.993 296.908 343.991 272.202 349.835 252.944C355.963 232.751 364.756 211.692 359.689 191.207C354.631 170.757 332.296 159.836 322.23 141.339C309.779 118.46 318.782 76.0459 293.557 69.6886Z" stroke="#6260FF" stroke-width="1.28384"/>
<path d="M295.257 66.3464C266.239 59.0334 244.09 95.4648 219.918 113.132C206.26 123.114 200.623 148.973 183.755 147.842C142.495 145.076 106.801 84.764 69.6999 103.06C41.5824 116.926 85.2639 162.722 90.9859 193.591C94.547 212.802 100.642 231.921 97.1497 251.144C90.9156 285.457 53.114 315.082 62.8282 348.574C71.0672 376.98 108.981 396.655 138.272 392.92C173.065 388.483 191.267 348.809 219.918 328.541C232.528 319.621 244.952 309.553 260.127 306.719C282.3 302.578 307.361 319.813 326.919 308.557C344.706 298.321 346.746 273.098 352.712 253.437C358.968 232.821 367.946 211.322 362.773 190.408C357.609 169.53 334.806 158.381 324.529 139.496C311.818 116.139 321.009 72.8367 295.257 66.3464Z" stroke="#6260FF" stroke-width="1.28384"/>
<path d="M296.954 63.0041C267.342 55.5412 244.739 92.7194 220.072 110.749C206.134 120.936 200.381 147.325 183.167 146.17C141.062 143.347 104.636 81.7992 66.7754 100.471C38.0818 114.621 82.6584 161.356 88.4977 192.857C92.1317 212.462 98.3519 231.972 94.7878 251.59C88.4259 286.607 49.8496 316.839 59.7629 351.017C68.1708 380.005 106.861 400.084 136.752 396.272C172.258 391.744 190.834 351.257 220.072 330.574C232.94 321.471 245.618 311.196 261.105 308.304C283.733 304.078 309.307 321.667 329.266 310.18C347.417 299.734 349.499 273.994 355.587 253.93C361.971 232.892 371.133 210.951 365.854 189.608C360.584 168.303 337.315 156.925 326.827 137.654C313.855 113.817 323.235 69.6274 296.954 63.0041Z" stroke="#6260FF" stroke-width="1.28384"/>
<path d="M298.655 59.6623C268.448 52.0495 245.391 89.9745 220.228 108.366C206.011 118.757 200.142 145.676 182.583 144.499C139.632 141.619 102.475 78.835 63.8534 97.8814C34.5836 112.316 80.0553 159.99 86.0119 192.124C89.7189 212.122 96.064 232.025 92.4283 252.037C85.9387 287.757 46.5878 318.596 56.7001 353.461C65.2768 383.031 104.744 403.514 135.236 399.625C171.455 395.006 190.403 353.706 220.228 332.607C233.355 323.321 246.288 312.84 262.085 309.89C285.167 305.579 311.256 323.521 331.615 311.804C350.131 301.148 352.254 274.891 358.465 254.423C364.977 232.963 374.323 210.581 368.938 188.81C363.562 167.077 339.825 155.47 329.127 135.811C315.895 111.496 325.463 66.4187 298.655 59.6623Z" stroke="#6260FF" stroke-width="1.28384"/>
<path d="M300.354 56.3201C269.553 48.5573 246.042 87.2292 220.384 105.983C205.887 116.579 199.903 144.028 181.997 142.828C138.201 139.891 100.312 75.8703 60.9308 95.2918C31.0847 110.011 77.4517 158.623 83.5255 191.39C87.3055 211.783 93.7755 232.077 90.0682 252.483C83.4508 288.906 43.3253 320.353 53.6367 355.905C62.3822 386.057 102.627 406.943 133.718 402.978C170.65 398.268 189.972 356.154 220.384 334.64C233.769 325.171 246.957 314.484 263.065 311.475C286.602 307.079 313.203 325.374 333.963 313.427C352.844 302.561 355.009 275.787 361.342 254.916C367.983 233.033 377.512 210.211 372.021 188.011C366.54 165.85 342.336 154.014 331.427 133.969C317.934 109.175 327.69 63.2095 300.354 56.3201Z" stroke="#6260FF" stroke-width="1.28384"/>
<path d="M302.053 52.9778C270.657 45.0651 246.692 84.4839 220.539 103.6C205.761 114.4 199.662 142.38 181.411 141.156C136.769 138.163 98.1489 72.9056 58.007 92.7021C27.5847 107.705 74.8468 157.256 81.0378 190.656C84.8908 211.442 91.4857 232.129 87.7069 252.929C80.9617 290.055 40.0615 322.11 50.572 358.348C59.4864 389.083 100.508 410.371 132.199 406.33C169.845 401.529 189.539 358.602 220.539 336.672C234.182 327.02 247.624 316.127 264.044 313.06C288.034 308.58 315.15 327.228 336.311 315.05C355.556 303.974 357.763 276.683 364.218 255.409C370.987 233.104 380.7 209.841 375.103 187.212C369.516 164.623 344.844 152.559 333.725 132.126C319.972 106.853 329.917 60.0003 302.053 52.9778Z" stroke="#6260FF" stroke-width="1.28384"/>
<path d="M303.753 49.6356C271.762 41.573 247.343 81.7386 220.694 101.217C205.637 112.222 199.422 140.731 180.825 139.484C135.338 136.434 95.9866 69.9409 55.0844 90.1125C24.0859 105.4 72.2431 155.89 78.5514 189.923C82.4774 211.103 89.1972 232.181 85.3468 253.375C78.4739 291.205 36.799 323.867 47.5086 360.791C56.5918 392.108 98.3901 413.801 130.682 409.682C169.04 404.791 189.108 361.05 220.694 338.705C234.597 328.87 248.293 317.77 265.023 314.646C289.469 310.08 317.097 329.082 338.659 316.673C358.269 305.387 360.517 277.579 367.095 255.902C373.992 233.174 383.89 209.471 378.186 186.413C372.493 163.396 347.355 151.103 336.025 130.283C322.011 104.532 332.144 56.7911 303.753 49.6356Z" stroke="#6260FF" stroke-width="1.28384"/>
<path d="M305.453 46.2933C272.868 38.0808 247.995 78.9932 220.851 98.8334C205.514 110.043 199.183 139.083 180.241 137.813C133.908 134.706 93.8249 66.9762 52.1624 87.5228C20.5877 103.095 69.6401 154.523 76.0656 189.189C80.0646 210.763 86.9093 232.233 82.9873 253.821C75.9867 292.354 33.5371 325.623 44.4457 363.234C53.6978 395.134 96.2731 417.229 129.165 413.035C168.237 408.052 188.677 363.499 220.851 340.738C235.011 330.72 248.962 319.414 266.004 316.231C290.903 311.58 319.046 330.936 341.008 318.296C360.982 306.801 363.273 278.475 369.973 256.395C376.998 233.244 387.079 209.1 381.27 185.614C375.471 162.169 349.865 149.647 338.325 128.441C324.05 102.21 334.372 53.5818 305.453 46.2933Z" stroke="#6260FF" stroke-width="1.28384"/>
<path d="M307.151 42.9516C273.971 34.5891 248.644 76.2484 221.005 96.4507C205.388 107.865 198.942 137.435 179.654 136.142C132.475 132.978 91.6607 64.012 49.2379 84.9338C17.0869 100.79 67.0345 153.157 73.5773 188.455C77.6492 210.423 84.6189 232.285 80.6253 254.267C73.4969 293.504 30.2727 327.381 41.3804 365.678C50.8013 398.16 94.1536 420.659 127.646 416.388C167.43 411.314 188.244 365.947 221.005 342.771C235.424 332.57 249.629 321.058 266.982 317.817C292.336 313.081 320.992 332.79 343.355 319.919C363.693 308.214 366.026 279.372 372.848 256.889C380.001 233.315 390.267 208.73 384.352 184.815C378.447 160.942 352.374 148.192 340.622 126.598C326.087 99.8892 336.598 50.3732 307.151 42.9516Z" stroke="#6260FF" stroke-width="1.28384"/>
<path d="M308.85 39.6093C275.076 31.0969 249.295 73.503 221.16 94.0675C205.264 105.687 198.702 135.786 179.068 134.47C131.044 131.25 89.4983 61.0472 46.3153 82.3441C13.5881 98.4843 64.4309 151.791 71.0909 187.722C75.2358 210.083 82.3304 232.337 78.2653 254.713C71.0091 294.654 27.0102 329.137 38.317 368.122C47.9067 401.186 92.0359 424.088 126.129 419.74C166.626 414.575 187.812 368.395 221.16 344.804C235.838 334.42 250.298 322.701 267.962 319.402C293.77 314.582 322.939 334.644 345.704 321.542C366.407 309.627 368.781 280.268 375.725 257.382C383.007 233.386 393.456 208.36 387.435 184.016C381.424 159.715 354.884 146.737 342.922 124.756C328.127 97.5676 338.825 47.1639 308.85 39.6093Z" stroke="#6260FF" stroke-width="1.28384"/>
<path d="M310.551 36.2664C276.181 27.6042 249.947 70.7571 221.317 91.6838C205.14 103.508 198.463 134.137 178.484 132.798C129.614 129.521 87.3367 58.082 43.3933 79.7539C10.09 96.1783 61.8278 150.423 68.6052 186.987C72.823 209.743 80.0426 232.388 75.9058 255.159C68.5219 295.803 23.7484 330.893 35.2542 370.564C45.0128 404.211 89.919 427.516 124.612 423.092C165.822 417.836 187.382 370.843 221.317 346.836C236.253 336.269 250.967 324.344 268.942 320.987C295.205 316.082 324.888 336.497 348.053 323.165C369.12 311.04 371.536 281.163 378.603 257.874C386.013 233.456 396.646 207.989 390.519 183.216C384.403 158.488 357.395 145.281 345.222 122.912C330.166 95.2456 341.053 43.9542 310.551 36.2664Z" stroke="#6260FF" stroke-width="1.28384"/>
<path d="M312.25 32.9246C277.286 24.1125 250.598 68.0122 221.473 89.3011C205.016 101.33 198.223 132.489 177.898 131.127C128.183 127.793 85.1744 55.1177 40.4707 77.1647C6.59115 93.8734 59.2242 149.057 66.1188 186.254C70.4096 209.403 77.754 232.441 73.5457 255.605C66.0341 296.952 20.4859 332.651 32.1908 373.008C42.1182 407.237 87.8013 430.946 123.095 426.445C165.018 421.098 186.95 373.291 221.473 348.869C236.667 338.12 251.636 325.988 269.922 322.572C296.639 317.582 326.836 338.351 350.401 324.788C371.833 312.454 374.291 282.06 381.48 258.368C389.018 233.526 399.835 207.619 393.602 182.418C387.38 157.261 359.905 143.825 347.522 121.07C332.205 92.9245 343.281 40.7454 312.25 32.9246Z" stroke="#6260FF" stroke-width="1.28384"/>
<path d="M313.949 29.5829C278.39 20.6208 251.248 65.2674 221.627 86.9184C204.891 99.1515 197.982 130.841 177.312 129.455C126.751 126.065 83.0108 52.1536 37.5468 74.5756C3.09105 91.5686 56.6192 147.691 63.6311 185.521C67.9949 209.064 75.4642 232.493 71.1844 256.052C63.5449 298.102 17.2221 334.408 29.1261 375.452C39.2223 410.263 85.6824 434.375 121.576 429.798C164.212 424.36 186.518 375.74 221.627 350.902C237.08 339.97 252.304 327.632 270.9 324.158C298.072 319.083 328.782 340.205 352.749 326.412C374.545 313.867 377.045 282.956 384.356 258.861C392.022 233.597 403.023 207.25 396.684 181.619C390.356 156.035 362.414 142.37 349.82 119.228C334.243 90.6035 345.507 37.5367 313.949 29.5829Z" stroke="#6260FF" stroke-width="1.28384"/>
<path d="M315.648 26.2407C279.495 17.1287 251.899 62.5221 221.783 84.5353C204.767 96.9731 197.743 129.193 176.726 127.784C125.32 124.337 80.8485 49.1889 34.6242 71.986C-0.407762 89.2632 54.0156 146.325 61.1447 184.787C65.5815 208.724 73.1757 232.545 68.8243 256.498C61.0571 299.252 13.9596 336.165 26.0626 377.895C36.3277 413.289 83.5648 437.804 120.058 433.15C163.408 427.622 186.086 378.188 221.783 352.935C237.494 341.82 252.973 329.275 271.88 325.744C299.506 320.584 330.73 342.059 355.097 328.035C377.258 315.28 379.799 283.852 387.233 259.354C395.027 233.668 406.213 206.879 399.767 180.82C393.334 154.808 364.924 140.915 352.12 117.385C336.282 88.282 347.734 34.3276 315.648 26.2407Z" stroke="#6260FF" stroke-width="1.28384"/>
<path d="M317.349 22.8979C280.601 13.636 252.551 59.7762 221.939 82.1516C204.643 94.794 197.504 127.544 176.142 126.112C123.89 122.608 78.6868 46.2237 31.7022 69.3958C-3.90593 86.9573 51.4126 144.958 58.659 184.053C63.1687 208.383 70.8879 232.597 66.4648 256.943C58.5699 300.401 10.6977 337.921 22.9999 380.338C33.4338 416.314 81.4478 441.233 118.542 436.502C162.604 430.883 185.656 380.636 221.939 354.967C237.909 343.669 253.642 330.918 272.86 327.328C300.941 322.084 332.678 343.912 357.446 329.657C379.972 316.693 382.555 284.748 390.111 259.847C398.033 233.738 409.403 206.508 402.851 180.021C396.312 153.58 367.435 139.459 354.42 115.542C338.322 85.96 349.962 31.1178 317.349 22.8979Z" stroke="#6260FF" stroke-width="1.28384"/>
<path d="M319.048 19.5561C281.706 10.1443 253.202 57.0313 222.095 79.7689C204.519 92.6159 197.264 125.896 175.556 124.441C122.459 120.88 76.5245 43.2594 28.7796 66.8066C-7.40475 84.6523 48.8089 143.592 56.1726 183.319C60.7553 208.044 68.5994 232.649 64.1047 257.39C56.0821 301.551 7.43523 339.678 19.9364 382.782C30.5392 419.34 79.3302 444.662 117.024 439.855C161.8 434.144 185.224 383.084 222.095 357C238.323 345.519 254.311 332.562 273.84 328.914C302.375 323.584 334.626 345.766 359.795 331.281C382.685 318.107 385.31 285.644 392.988 260.34C401.039 233.809 412.592 206.139 405.935 179.222C399.289 152.353 369.945 138.004 356.719 113.7C340.361 83.6389 352.19 27.909 319.048 19.5561Z" stroke="#6260FF" stroke-width="1.28384"/>
<path d="M320.746 16.2138C282.809 6.65203 253.851 54.2859 222.249 77.3857C204.393 90.4373 197.023 124.248 174.969 122.769C121.026 119.152 74.3603 40.2946 25.8551 64.2169C-10.9055 82.3469 46.2034 142.225 53.6843 182.585C58.34 207.704 66.3089 232.701 61.7428 257.836C53.5923 302.7 4.17083 341.435 16.8711 385.225C27.6427 422.366 77.2106 448.091 115.505 443.207C160.993 437.406 184.791 385.533 222.249 359.033C238.735 347.369 254.978 334.205 274.818 330.499C303.807 325.085 336.572 347.62 362.141 332.904C385.396 319.52 388.063 286.541 395.863 260.833C404.042 233.879 415.779 205.768 409.016 178.423C402.265 151.126 372.453 136.548 359.017 111.857C342.398 81.3173 354.415 24.6998 320.746 16.2138Z" stroke="#6260FF" stroke-width="1.28384"/>
<path d="M322.446 12.8716C283.915 3.15992 254.503 51.5406 222.405 75.0025C204.27 88.2588 196.784 122.599 174.384 121.097C119.596 117.424 72.1986 37.33 22.9331 61.6274C-14.4037 80.0416 43.6003 140.858 51.1985 181.852C55.9272 207.364 64.021 232.753 59.3833 258.282C51.1051 303.85 0.908947 343.192 13.8083 387.668C24.7487 425.391 75.0936 451.52 113.988 446.56C160.19 440.667 184.36 387.981 222.405 361.065C239.15 349.219 255.647 335.849 275.798 332.085C305.242 326.585 338.52 349.474 364.491 334.527C388.11 320.933 390.818 287.437 398.741 261.326C407.048 233.95 418.969 205.398 412.1 177.624C405.243 149.899 374.964 135.092 361.317 110.014C344.438 78.9958 356.643 21.4906 322.446 12.8716Z" stroke="#6260FF" stroke-width="1.28384"/>
<path d="M324.146 9.52926C285.02 -0.332311 255.154 48.7953 222.561 72.6193C204.146 86.0802 196.544 120.951 173.799 119.426C118.165 115.695 70.0363 34.3652 20.0105 59.0377C-17.9025 77.7361 40.9966 139.492 48.7121 181.118C53.5137 207.024 61.7325 232.805 57.0232 258.728C48.6173 304.999 -2.35355 344.948 10.7449 390.112C21.8542 428.417 72.976 454.949 112.471 449.912C159.385 443.929 183.929 390.429 222.561 363.098C239.564 351.069 256.316 337.492 276.778 333.67C306.676 328.086 340.468 351.327 366.839 336.15C390.823 322.346 393.573 288.333 401.618 261.819C410.053 234.02 422.158 205.028 415.183 176.825C408.22 148.672 377.474 133.637 363.617 108.172C346.477 76.6742 358.871 18.2814 324.146 9.52926Z" stroke="#6260FF" stroke-width="1.28384"/>
<path d="M325.844 6.18706C286.123 -3.82442 255.804 46.05 222.715 70.2362C204.02 83.9017 196.302 119.302 173.212 117.754C116.733 113.967 67.8721 31.4006 17.086 56.4481C-21.4031 75.4308 38.3911 138.125 46.2238 180.384C51.0985 206.684 59.4422 232.857 54.6613 259.174C46.1276 306.149 -5.61791 346.705 7.67956 392.555C18.9577 431.442 70.8565 458.378 110.952 453.264C158.579 447.19 183.496 392.877 222.715 365.131C239.977 352.918 256.983 339.135 277.756 335.255C308.108 329.586 342.414 353.181 369.186 337.773C393.534 323.759 396.326 289.229 404.493 262.312C413.057 234.09 425.346 204.657 418.264 176.026C411.196 147.445 379.982 132.181 365.914 106.329C348.514 74.3528 361.096 15.0722 325.844 6.18706Z" stroke="#6260FF" stroke-width="1.28384"/>
</svg>
