<svg width="494" height="489" viewBox="0 0 494 489" fill="none" xmlns="http://www.w3.org/2000/svg">
<path fill-rule="evenodd" clip-rule="evenodd" d="M251.935 172.632C260.97 170.777 273.378 170.881 278.681 178.433C285.382 187.976 278.92 201.421 280.286 213.004C280.899 218.205 280.473 224.636 284.521 227.955C294.911 236.474 316.087 232.934 320.2 245.731C323.323 255.446 301.424 255.363 296.136 264.089C291.011 272.544 296.072 284.292 291.512 293.065C286.356 302.984 279.724 315.934 268.608 317.049C256.928 318.219 250.45 301.797 239.243 298.304C229.363 295.224 218.038 302.43 208.538 298.325C198.988 294.197 193.154 284.504 187.337 275.874C181.29 266.903 171.176 257.27 173.787 246.77C176.771 234.77 197.914 233.944 200.756 221.909C203.981 208.25 179.917 192.541 189.097 181.93C198.163 171.451 215.964 190.522 229.665 188.494C238.778 187.146 242.91 174.484 251.935 172.632Z" stroke="#6260FF" stroke-width="1.28384"/>
<path fill-rule="evenodd" clip-rule="evenodd" d="M263.63 4.55828C293.798 -1.64138 335.228 -1.29285 352.935 23.9513C375.311 55.8509 353.734 100.796 358.295 139.516C360.343 156.903 358.918 178.4 372.434 189.495C407.127 217.974 477.833 206.141 491.568 248.918C501.995 281.394 428.876 281.118 411.218 310.287C394.107 338.552 411.006 377.821 395.779 407.148C378.564 440.306 356.42 483.598 319.301 487.323C280.303 491.237 258.674 436.341 221.253 424.663C188.265 414.369 150.451 438.455 118.731 424.732C86.8418 410.935 67.3631 378.532 47.9385 349.682C27.7487 319.695 -6.02069 287.494 2.69778 252.392C12.6617 212.277 83.2569 209.517 92.7453 169.286C103.514 123.624 23.1649 71.1116 53.818 35.6398C84.0865 0.612945 143.526 64.3617 189.272 57.585C219.701 53.0773 233.498 10.7506 263.63 4.55828Z" stroke="#6260FF" stroke-width="1.28384"/>
<path d="M280.137 175.404C274.591 167.506 261.614 167.397 252.164 169.337C242.726 171.274 238.404 184.518 228.873 185.928C214.544 188.048 195.926 168.102 186.445 179.062C176.844 190.16 202.012 206.591 198.638 220.878C195.666 233.466 173.554 234.329 170.433 246.881C167.702 257.863 178.28 267.939 184.604 277.321C190.688 286.348 196.789 296.487 206.778 300.803C216.713 305.097 228.558 297.561 238.891 300.782C250.612 304.436 257.386 321.612 269.602 320.388C281.121 319.233 288.036 305.927 293.407 295.591L293.557 295.302C298.326 286.126 293.033 273.839 298.393 264.995C303.924 255.869 326.827 255.955 323.561 245.794C319.258 232.409 297.111 236.112 286.245 227.201C282.011 223.729 282.457 217.003 281.816 211.563C280.387 199.448 287.146 185.385 280.137 175.404Z" stroke="#6260FF" stroke-width="1.28384"/>
<path d="M281.593 172.375C275.803 164.13 262.257 164.016 252.394 166.041C242.541 168.063 238.03 181.889 228.081 183.361C213.124 185.574 193.689 164.752 183.793 176.193C173.77 187.779 200.042 204.931 196.52 219.846C193.418 232.986 170.336 233.888 167.078 246.991C164.228 258.456 175.269 268.974 181.87 278.768C188.221 288.192 194.59 298.776 205.017 303.282C215.388 307.764 227.752 299.897 238.538 303.26C250.773 307.074 257.845 325.005 270.596 323.726C282.62 322.521 289.838 308.63 295.444 297.841L295.601 297.539C300.58 287.96 295.055 275.133 300.649 265.901C306.423 256.373 330.33 256.464 326.921 245.856C322.43 231.884 299.312 235.749 287.968 226.447C283.549 222.823 284.015 215.801 283.346 210.122C281.854 197.475 288.909 182.795 281.593 172.375Z" stroke="#6260FF" stroke-width="1.28384"/>
<path d="M283.049 169.347C277.016 160.754 262.901 160.636 252.623 162.746C242.357 164.853 237.656 179.26 227.289 180.795C211.704 183.101 191.453 161.403 181.14 173.325C170.697 185.399 198.072 203.272 194.403 218.814C191.17 232.508 167.119 233.447 163.724 247.101C160.753 259.049 172.259 270.009 179.137 280.216C185.755 290.036 192.392 301.065 203.256 305.761C214.063 310.432 226.946 302.234 238.185 305.738C250.934 309.712 258.303 328.398 271.59 327.065C284.119 325.809 291.641 311.334 297.483 300.091L297.646 299.776C302.834 289.794 297.076 276.428 302.906 266.807C308.922 256.879 333.834 256.973 330.281 245.919C325.602 231.359 301.512 235.386 289.693 225.693C285.087 221.916 285.573 214.6 284.875 208.682C283.322 195.502 290.673 180.204 283.049 169.347Z" stroke="#6260FF" stroke-width="1.28384"/>
<path d="M284.506 166.317C278.23 157.378 263.545 157.254 252.853 159.45C242.173 161.643 237.283 176.631 226.498 178.227C210.284 180.627 189.216 158.053 178.488 170.456C167.624 183.017 196.102 201.613 192.285 217.782C188.922 232.029 163.901 233.006 160.369 247.211C157.279 259.641 169.248 271.044 176.404 281.663C183.289 291.879 190.193 303.354 201.495 308.239C212.738 313.099 226.141 304.569 237.833 308.215C251.096 312.35 258.762 331.79 272.584 330.404C285.619 329.097 293.443 314.037 299.521 302.34L299.691 302.013C305.088 291.628 299.098 277.722 305.163 267.713C311.422 257.383 337.337 257.481 333.642 245.981C328.774 230.833 303.713 235.023 291.417 224.939C286.626 221.01 287.131 213.397 286.405 207.24C284.789 193.529 292.436 177.613 284.506 166.317Z" stroke="#6260FF" stroke-width="1.28384"/>
<path d="M285.962 163.288C279.443 154.002 264.189 153.874 253.082 156.155C241.989 158.433 236.909 174.003 225.706 175.661C208.864 178.154 186.98 154.703 175.836 167.588C164.55 180.637 194.133 199.954 190.168 216.751C186.674 231.55 160.683 232.565 157.015 247.322C153.805 260.234 166.238 272.08 173.671 283.111C180.823 293.723 187.994 305.643 199.735 310.718C211.413 315.766 225.335 306.906 237.48 310.693C251.258 314.989 259.221 335.183 273.579 333.743C287.118 332.385 295.246 316.741 301.559 304.59L301.736 304.25C307.342 293.462 301.12 279.016 307.42 268.619C313.921 257.889 340.841 257.99 337.002 246.044C331.945 230.308 305.914 234.661 293.141 224.185C288.164 220.103 288.689 212.196 287.935 205.8C286.256 191.556 294.2 175.023 285.962 163.288Z" stroke="#6260FF" stroke-width="1.28384"/>
<path d="M287.418 160.259C280.655 150.626 264.833 150.493 253.312 152.859C241.804 155.222 236.535 171.374 224.914 173.094C207.443 175.68 184.743 151.353 173.183 164.72C161.477 178.256 192.163 198.294 188.05 215.719C184.426 231.071 157.466 232.124 153.66 247.432C150.331 260.827 163.227 273.115 170.938 284.558C178.356 295.567 185.795 307.932 197.974 313.197C210.088 318.433 224.529 309.242 237.128 313.171C251.419 317.627 259.679 338.575 274.573 337.082C288.617 335.673 297.048 319.445 303.597 306.84L303.78 306.487C309.595 295.296 303.141 280.31 309.676 269.525C316.42 258.394 344.344 258.499 340.362 246.106C335.117 229.783 308.114 234.298 294.865 223.431C289.703 219.197 290.247 210.993 289.465 204.359C287.723 189.583 295.963 172.432 287.418 160.259Z" stroke="#6260FF" stroke-width="1.28384"/>
<path d="M288.872 157.23C281.866 147.25 265.475 147.112 253.539 149.563C241.617 152.011 236.159 168.745 224.12 170.527C206.021 173.206 182.504 148.003 170.529 161.851C158.401 175.874 190.191 196.634 185.93 214.687C182.176 230.592 154.246 231.683 150.303 247.542C146.854 261.419 160.215 274.149 168.203 286.005C175.888 297.41 183.594 310.221 196.211 315.675C208.761 321.1 223.721 311.578 236.773 315.648C251.578 320.265 260.135 341.967 275.565 340.42C290.114 338.961 298.848 322.148 305.632 309.089L305.822 308.723C311.847 297.129 305.161 281.604 311.931 270.43C318.917 258.898 347.846 259.008 343.72 246.168C338.286 229.257 310.312 233.935 296.586 222.676C291.238 218.29 291.802 209.791 290.992 202.918C289.188 187.61 297.724 169.841 288.872 157.23Z" stroke="#6260FF" stroke-width="1.28384"/>
<path d="M290.328 154.201C283.079 143.874 266.118 143.732 253.768 146.268C241.433 148.801 235.785 166.116 223.328 167.96C204.6 170.733 180.267 144.654 167.876 158.983C155.328 173.494 188.221 194.976 183.812 213.655C179.928 230.113 151.028 231.242 146.949 247.653C143.38 262.012 157.204 275.185 165.469 287.452C173.421 299.254 181.395 312.51 194.45 318.154C207.436 323.768 222.915 313.914 236.42 318.126C251.739 322.903 260.594 345.36 276.559 343.759C291.613 342.249 300.651 324.852 307.67 311.339L307.867 310.961C314.1 298.964 307.182 282.899 314.187 271.336C321.416 259.404 351.349 259.517 347.08 246.231C341.458 228.732 312.512 233.573 298.31 221.923C292.777 217.384 293.36 208.59 292.522 201.477C290.655 185.637 299.488 167.251 290.328 154.201Z" stroke="#6260FF" stroke-width="1.28384"/>
<path d="M291.784 151.172C284.292 140.498 266.762 140.351 253.998 142.972C241.249 145.591 235.411 163.487 222.536 165.393C203.18 168.259 178.031 141.304 165.224 156.114C152.254 171.113 186.251 193.316 181.695 212.623C177.68 229.634 147.81 230.801 143.594 247.763C139.906 262.605 154.194 276.22 162.736 288.899C170.955 301.098 179.197 314.799 192.689 320.632C206.111 326.435 222.11 316.251 236.068 320.603C251.901 325.541 261.052 348.753 277.553 347.098C293.113 345.537 302.453 327.556 309.708 313.589L309.912 313.198C316.354 300.797 309.204 284.193 316.444 272.242C323.915 259.909 354.853 260.025 350.441 246.294C344.629 228.207 314.713 233.21 300.034 221.168C294.315 216.477 294.918 207.387 294.052 200.036C292.122 183.664 301.251 164.66 291.784 151.172Z" stroke="#6260FF" stroke-width="1.28384"/>
<path d="M293.24 148.143C285.505 137.123 267.406 136.971 254.228 139.677C241.064 142.38 235.037 160.859 221.744 162.827C201.76 165.785 175.794 137.955 162.572 153.246C149.181 168.732 184.281 191.657 179.577 211.592C175.432 229.155 144.593 230.36 140.24 247.873C136.431 263.198 151.183 277.255 160.003 290.347C168.489 302.942 176.998 317.088 190.929 323.111C204.786 329.102 221.304 318.587 235.715 323.081C252.062 328.179 261.511 352.145 278.547 350.437C294.612 348.826 304.256 330.26 311.747 315.839L311.956 315.435C318.608 302.632 311.226 285.488 318.701 273.148C326.415 260.414 358.356 260.535 353.801 246.357C347.801 227.682 316.914 232.848 301.758 220.415C295.854 215.571 296.476 206.186 295.582 198.595C293.589 181.691 303.015 162.07 293.24 148.143Z" stroke="#6260FF" stroke-width="1.28384"/>
<path d="M294.696 145.114C286.718 133.746 268.05 133.589 254.457 136.381C240.88 139.17 234.663 158.23 220.952 160.26C200.34 163.311 173.558 134.605 159.919 150.378C146.108 166.351 182.312 189.997 177.459 210.56C173.184 228.676 141.375 229.919 136.886 247.983C132.957 263.79 148.173 278.29 157.27 291.794C166.023 304.785 174.799 319.377 189.168 325.589C203.461 331.769 220.499 320.923 235.363 325.559C252.224 330.817 261.969 355.538 279.541 353.775C296.111 352.113 306.058 332.963 313.785 318.088L314.001 317.672C320.862 304.465 313.248 286.782 320.957 274.054C328.914 260.919 361.86 261.043 357.162 246.419C350.973 227.156 319.114 232.484 303.482 219.66C297.392 214.664 298.034 204.983 297.111 197.154C295.056 179.718 304.778 159.479 294.696 145.114Z" stroke="#6260FF" stroke-width="1.28384"/>
<path d="M296.152 142.085C287.931 130.371 268.694 130.209 254.686 133.086C240.695 135.96 234.289 155.601 220.16 157.693C198.92 160.838 171.321 131.255 157.267 147.509C143.034 163.97 180.342 188.339 175.342 209.528C170.936 228.198 138.157 229.478 133.531 248.094C129.483 264.383 145.162 279.326 154.537 293.241C163.556 306.63 172.6 321.666 187.407 328.068C202.136 334.437 219.693 323.259 235.01 328.037C252.385 333.456 262.428 358.93 280.535 357.114C297.611 355.402 307.861 335.667 315.823 320.338L316.046 319.909C323.115 306.3 315.269 288.076 323.214 274.96C331.413 261.424 365.363 261.552 360.522 246.482C354.145 226.631 321.314 232.122 305.206 218.906C298.93 213.758 299.592 203.782 298.641 195.714C296.523 177.745 306.542 156.888 296.152 142.085Z" stroke="#6260FF" stroke-width="1.28384"/>
<path d="M297.609 139.056C289.144 126.995 269.338 126.828 254.916 129.79C240.511 132.749 233.915 152.972 219.369 155.126C197.5 158.364 169.085 127.905 154.615 144.641C139.961 161.589 178.372 186.679 173.224 208.496C168.688 227.718 134.94 229.037 130.176 248.204C126.009 264.975 142.152 280.361 151.804 294.688C161.09 308.473 170.402 323.955 185.646 330.547C200.811 337.104 218.887 325.595 234.658 330.514C252.546 336.094 262.886 362.323 281.53 360.453C299.11 358.69 309.663 338.37 317.861 322.588L318.09 322.146C325.369 308.133 317.291 289.371 325.471 275.866C333.912 261.929 368.867 262.061 363.882 246.544C357.316 226.106 323.515 231.759 306.93 218.152C300.469 212.851 301.15 202.58 300.171 194.273C297.991 175.772 308.305 154.298 297.609 139.056Z" stroke="#6260FF" stroke-width="1.28384"/>
<path d="M299.065 136.028C290.357 123.619 269.982 123.448 255.146 126.495C240.327 129.539 233.542 150.344 218.577 152.56C196.08 155.891 166.848 124.556 151.962 141.773C136.888 159.209 176.403 185.02 171.106 207.465C166.44 227.24 131.722 228.596 126.822 248.315C122.534 265.568 139.142 281.396 149.071 296.136C158.624 310.317 168.203 326.244 183.886 333.026C199.486 339.771 218.082 327.932 234.305 332.992C252.708 338.732 263.345 365.716 282.524 363.792C300.609 361.978 311.466 341.074 319.899 324.838L320.135 324.383C327.623 309.968 319.313 290.665 327.728 276.772C336.412 262.434 372.371 262.57 367.243 246.607C360.488 225.581 325.716 231.397 308.654 217.399C302.007 211.945 302.708 201.378 301.701 192.832C299.458 173.799 310.069 151.707 299.065 136.028Z" stroke="#6260FF" stroke-width="1.28384"/>
<path d="M300.521 132.998C291.57 120.243 270.626 120.067 255.375 123.199C240.143 126.328 233.168 147.715 217.785 149.993C194.66 153.417 164.612 121.206 149.31 138.904C133.814 156.827 174.433 183.361 168.989 206.433C164.192 226.761 128.505 228.155 123.468 248.425C119.06 266.161 136.131 282.431 146.338 297.583C156.158 312.161 166.004 328.533 182.125 335.504C198.161 342.438 217.276 330.268 233.953 335.47C252.87 341.37 263.803 369.108 283.518 367.131C302.109 365.266 313.269 343.778 321.937 327.087L322.18 326.62C329.877 311.801 321.334 291.959 329.984 277.678C338.911 262.939 375.874 263.079 370.603 246.669C363.66 225.055 327.916 231.034 310.378 216.644C303.545 211.038 304.266 200.176 303.231 191.391C300.925 171.826 311.833 149.116 300.521 132.998Z" stroke="#6260FF" stroke-width="1.28384"/>
<path d="M301.977 129.969C292.782 116.867 271.27 116.686 255.605 119.904C239.958 123.118 232.794 145.086 216.993 147.426C193.239 150.943 162.375 117.856 146.658 136.036C130.741 154.446 172.463 181.701 166.871 205.401C161.944 226.282 125.287 227.714 120.113 248.535C115.586 266.753 133.121 283.466 143.605 299.03C153.691 314.004 163.806 330.822 180.364 337.983C196.835 345.105 216.47 332.604 233.6 337.947C253.031 344.008 264.262 372.5 284.512 370.469C303.608 368.554 315.071 346.481 323.975 329.336L324.224 328.856C332.131 313.635 323.356 293.253 332.241 278.583C341.41 263.444 379.378 263.587 373.963 246.731C366.831 224.529 330.117 230.671 312.102 215.89C305.084 210.131 305.824 198.974 304.76 189.95C302.392 169.853 313.596 146.526 301.977 129.969Z" stroke="#6260FF" stroke-width="1.28384"/>
<path d="M303.433 126.94C293.995 113.491 271.914 113.306 255.834 116.608C239.774 119.908 232.42 142.458 216.201 144.859C191.819 148.47 160.138 114.507 144.005 133.168C127.667 152.066 170.493 180.042 164.753 204.369C159.696 225.803 122.069 227.273 116.759 248.645C112.112 267.346 130.111 284.502 140.872 300.478C151.225 315.848 161.607 333.111 178.604 340.461C195.51 347.773 215.665 334.94 233.247 340.425C253.192 346.647 264.72 375.893 285.506 373.808C305.107 371.842 316.874 349.185 326.013 331.586L326.269 331.094C334.385 315.469 325.378 294.548 334.498 279.489C343.909 263.949 382.881 264.096 377.324 246.794C370.003 224.004 332.317 230.309 313.826 215.136C306.622 209.225 307.382 197.772 306.29 188.509C303.859 167.88 315.359 143.935 303.433 126.94Z" stroke="#6260FF" stroke-width="1.28384"/>
<path d="M304.89 123.911C295.209 110.115 272.558 109.925 256.064 113.313C239.59 116.697 232.046 139.829 215.41 142.292C190.399 145.996 157.902 111.157 141.353 130.299C124.594 149.684 168.524 178.383 162.636 203.337C157.448 225.324 118.852 226.832 113.404 248.755C108.637 267.939 127.1 285.536 138.139 301.925C148.759 317.692 159.408 335.4 176.843 342.94C194.186 350.44 214.859 337.276 232.895 342.903C253.354 349.284 265.179 379.286 286.501 377.147C306.607 375.13 318.676 351.888 328.051 333.836L328.314 333.33C336.638 317.303 327.399 295.842 336.754 280.395C346.409 264.454 386.385 264.605 380.684 246.857C373.175 223.479 334.518 229.946 315.55 214.382C308.16 208.318 308.94 196.57 307.82 187.068C305.327 165.907 317.123 141.344 304.89 123.911Z" stroke="#6260FF" stroke-width="1.28384"/>
<path d="M306.344 120.882C296.42 106.739 273.2 106.544 256.292 110.018C239.403 113.487 231.67 137.2 214.616 139.726C188.977 143.522 155.663 107.807 138.699 127.431C121.519 147.304 166.552 176.724 160.516 202.306C155.198 224.845 115.632 226.391 110.048 248.866C105.161 268.532 124.088 286.572 135.404 303.372C146.29 319.536 157.208 337.69 175.08 345.419C192.859 353.107 214.052 339.613 232.541 345.38C253.513 351.923 265.636 382.678 287.493 380.486C308.104 378.418 320.477 354.592 330.087 336.086L330.356 335.568C338.89 319.137 329.419 297.137 339.009 281.301C348.906 264.959 389.887 265.114 384.043 246.919C376.345 222.954 336.716 229.583 317.272 213.628C309.697 207.412 310.496 195.368 309.348 185.627C306.792 163.934 318.885 138.754 306.344 120.882Z" stroke="#6260FF" stroke-width="1.28384"/>
<path d="M307.8 117.853C297.632 103.363 273.843 103.163 256.521 106.722C239.219 110.276 231.296 134.571 213.824 137.159C187.557 141.048 153.427 104.457 136.046 124.562C118.445 144.923 164.582 175.064 158.398 201.274C152.95 224.366 112.414 225.95 106.693 248.976C101.687 269.124 121.077 287.607 132.67 304.819C143.824 321.379 155.009 339.978 173.319 347.897C191.533 355.774 213.246 341.949 232.188 347.858C253.675 354.561 266.094 386.071 288.487 383.824C309.603 381.706 322.279 357.296 332.125 338.335L332.401 337.805C341.144 320.971 331.441 298.431 341.266 282.207C351.405 265.464 393.39 265.623 387.403 246.982C379.516 222.428 338.917 229.22 318.996 212.874C311.235 206.505 312.053 194.166 310.878 184.186C308.259 161.961 320.648 136.163 307.8 117.853Z" stroke="#6260FF" stroke-width="1.28384"/>
<path d="M309.256 114.824C298.845 99.9877 274.487 99.7828 256.75 103.427C239.035 107.066 230.923 131.943 213.032 134.592C186.137 138.575 151.19 101.108 133.394 121.694C115.372 142.542 162.612 173.405 156.281 200.242C150.702 223.887 109.197 225.509 103.339 249.087C98.2128 269.717 118.067 288.642 129.937 306.267C141.358 323.223 152.81 342.268 171.559 350.376C190.208 358.442 212.44 344.285 231.835 350.336C253.836 357.199 266.553 389.464 289.481 387.163C311.103 384.994 324.082 360 334.163 340.585L334.446 340.042C343.398 322.805 333.462 299.725 343.523 283.113C353.904 265.97 396.894 266.132 390.763 247.045C382.688 221.903 341.117 228.858 320.72 212.12C312.773 205.599 313.611 192.964 312.407 182.746C309.726 159.988 322.412 133.573 309.256 114.824Z" stroke="#6260FF" stroke-width="1.28384"/>
<path d="M310.712 111.795C300.058 96.6115 275.131 96.4019 256.98 100.131C238.85 103.855 230.549 129.314 212.241 132.025C184.717 136.101 148.954 97.7578 130.742 118.826C112.299 140.161 160.643 171.746 154.163 199.21C148.454 223.408 105.979 225.068 99.9843 249.197C94.7386 270.309 115.057 289.677 127.204 307.714C138.892 325.067 150.611 344.556 169.798 352.854C188.883 361.109 211.635 346.621 231.483 352.813C253.998 359.837 267.011 392.856 290.476 390.502C312.602 388.282 325.884 362.703 336.201 342.835L336.49 342.279C345.652 324.639 335.484 301.019 345.779 284.019C356.404 266.474 400.397 266.64 394.124 247.107C385.86 221.378 343.318 228.495 322.444 211.366C314.312 204.692 315.169 191.762 313.937 181.305C311.193 158.015 324.175 130.982 310.712 111.795Z" stroke="#6260FF" stroke-width="1.28384"/>
<path d="M312.169 108.767C301.271 93.2359 275.775 93.0215 257.21 96.8356C238.666 100.645 230.175 126.685 211.449 129.459C183.297 133.628 146.717 94.4084 128.09 115.958C109.225 137.78 158.673 170.087 152.046 198.179C146.207 222.93 102.762 224.627 96.6298 249.307C91.2644 270.902 112.046 290.713 124.471 309.161C136.425 326.911 148.413 346.846 168.037 355.333C187.559 363.776 210.829 348.958 231.13 355.291C254.159 362.476 267.47 396.249 291.47 393.841C314.101 391.57 327.687 365.407 338.24 345.085L338.535 344.516C347.906 326.473 337.506 302.314 348.036 284.925C358.903 266.98 403.901 267.15 397.484 247.17C389.032 220.853 345.519 228.133 324.168 210.612C315.85 203.786 316.727 190.561 315.467 179.864C312.66 156.043 325.939 128.392 312.169 108.767Z" stroke="#6260FF" stroke-width="1.28384"/>
<path d="M313.625 105.737C302.484 89.8597 276.419 89.6405 257.439 93.5399C238.481 97.4346 229.801 124.056 210.657 126.892C181.876 131.154 144.48 91.0584 125.437 113.089C106.152 135.399 156.703 168.427 149.928 197.147C143.958 222.45 99.5439 224.186 93.2752 249.417C87.79 271.495 109.036 291.748 121.738 310.608C133.959 328.754 146.214 349.135 166.276 357.812C186.233 366.443 210.023 351.294 230.778 357.769C254.321 365.114 267.928 399.641 292.464 397.179C315.6 394.858 329.489 368.11 340.277 347.334L340.58 346.753C350.159 328.307 339.528 303.608 350.293 285.831C361.402 267.485 407.404 267.658 400.844 247.232C392.203 220.327 347.719 227.77 325.892 209.858C317.388 202.879 318.285 189.358 316.997 178.423C314.127 154.069 327.702 125.801 313.625 105.737Z" stroke="#6260FF" stroke-width="1.28384"/>
<path d="M315.081 102.709C303.697 86.4842 277.063 86.2602 257.669 90.2447C238.297 94.2245 229.427 121.428 209.865 124.325C180.456 128.68 142.244 87.709 122.785 110.221C103.079 133.019 154.734 166.768 147.81 196.115C141.71 221.972 96.3264 223.746 89.9208 249.528C84.3158 272.088 106.025 292.783 119.005 312.056C131.493 330.598 144.015 351.424 164.516 360.291C184.908 369.111 209.218 353.63 230.425 360.247C254.482 367.752 268.387 403.034 293.458 400.519C317.1 398.147 331.292 370.814 342.316 349.584L342.624 348.99C352.413 330.141 341.549 304.903 352.549 286.737C363.901 267.99 410.908 268.167 404.205 247.295C395.375 219.802 349.919 227.407 327.616 209.104C318.927 201.973 319.843 188.157 318.527 176.982C315.595 152.097 329.466 123.211 315.081 102.709Z" stroke="#6260FF" stroke-width="1.28384"/>
<path d="M316.537 99.6763C304.91 83.1049 277.707 82.8761 257.898 86.9459C238.113 91.0108 229.053 118.796 209.073 121.755C179.036 126.203 140.007 84.356 120.133 107.349C100.005 130.634 152.764 165.106 145.693 195.08C139.463 221.49 93.1088 223.301 86.5663 249.635C80.8417 272.677 103.015 293.815 116.272 313.5C129.026 332.439 141.816 353.71 162.755 362.766C183.583 371.775 208.412 355.963 230.073 362.721C254.644 370.387 268.845 406.423 294.452 403.854C318.599 401.431 333.095 373.515 344.354 351.831L344.669 351.224C354.667 331.972 343.571 306.194 354.806 287.639C366.401 268.492 414.412 268.673 407.565 247.354C398.547 219.274 352.12 227.041 329.34 208.347C320.465 201.063 321.401 186.952 320.057 175.538C317.062 150.12 331.229 120.617 316.537 99.6763Z" stroke="#6260FF" stroke-width="1.28384"/>
<path d="M317.993 96.647C306.123 79.7287 278.351 79.4952 258.128 83.6501C237.928 87.8001 228.679 116.167 208.281 119.188C177.616 123.73 137.771 81.006 117.48 104.481C96.9318 128.253 150.794 163.446 143.575 194.048C137.214 221.01 89.891 222.86 83.2117 249.745C77.3672 273.269 100.005 294.85 113.539 314.947C126.56 334.282 139.618 355.998 160.994 365.244C182.258 374.442 207.606 358.299 229.72 365.199C254.805 373.025 269.304 409.815 295.446 407.193C320.098 404.719 334.897 376.218 346.392 354.08L346.713 353.46C356.921 333.806 345.593 307.488 357.063 288.545C368.9 268.996 417.915 269.181 410.925 247.416C401.718 218.748 354.32 226.678 331.064 207.592C322.003 200.156 322.959 185.749 321.586 174.097C318.529 148.147 332.993 118.026 317.993 96.647Z" stroke="#6260FF" stroke-width="1.28384"/>
<path d="M319.447 93.6183C307.334 76.3532 278.993 76.1148 258.355 80.3549C237.742 84.5901 228.304 113.538 207.488 116.621C176.194 121.256 135.532 77.6566 114.826 101.612C93.8566 125.873 148.822 161.787 141.455 193.017C134.965 220.532 86.6715 222.419 79.8553 249.856C73.8911 273.862 96.9923 295.886 110.804 316.395C124.092 336.126 137.417 358.288 159.232 367.723C180.931 377.109 206.799 360.636 229.366 367.677C254.964 375.663 269.76 413.208 296.439 410.532C321.596 408.008 336.698 378.922 348.428 356.33L348.756 355.698C359.172 335.64 347.612 308.782 359.318 289.451C371.397 269.502 421.417 269.691 414.284 247.479C404.888 218.223 356.519 226.316 332.786 206.839C323.54 199.25 324.515 184.548 323.114 172.657C319.994 146.174 334.754 115.435 319.447 93.6183Z" stroke="#6260FF" stroke-width="1.28384"/>
<path d="M320.904 90.5891C308.547 72.977 279.637 72.7338 258.585 77.0592C237.558 81.3794 227.93 110.909 206.696 114.054C174.774 118.782 133.296 74.3066 112.174 98.7438C90.7833 123.491 146.853 160.127 139.338 191.984C132.717 220.053 83.4539 221.978 76.5009 249.966C70.417 274.455 93.9819 296.92 108.071 317.842C121.626 337.97 135.218 360.576 157.471 370.202C179.606 379.776 205.993 362.972 229.013 370.154C255.126 378.301 270.219 416.601 297.433 413.87C323.095 411.295 338.5 381.625 350.466 358.58L350.801 357.934C361.426 337.474 349.634 310.076 361.574 290.357C373.897 270.007 424.921 270.199 417.644 247.542C408.06 217.698 358.72 225.953 334.51 206.084C325.078 198.343 326.073 183.345 324.644 171.215C321.461 144.201 336.518 112.844 320.904 90.5891Z" stroke="#6260FF" stroke-width="1.28384"/>
<path d="M322.36 87.5604C309.76 69.6014 280.281 69.3535 258.814 73.764C237.374 78.1693 227.556 108.281 205.904 111.488C173.354 116.309 131.059 70.9572 109.521 95.8758C87.71 121.111 144.883 158.469 137.22 190.953C130.469 219.574 80.2364 221.537 73.1465 250.076C66.9428 275.048 90.9716 297.956 105.338 319.289C119.159 339.814 133.02 362.866 155.71 372.681C178.281 382.444 205.188 365.308 228.661 372.632C255.287 380.94 270.678 419.994 298.427 417.209C324.595 414.584 340.303 384.329 352.504 360.83L352.846 360.172C363.68 339.308 351.656 311.371 363.831 291.263C376.396 270.512 428.424 270.708 421.005 247.604C411.232 217.173 360.92 225.591 336.234 205.331C326.617 197.437 327.631 182.144 326.174 169.775C322.929 142.229 338.281 110.254 322.36 87.5604Z" stroke="#6260FF" stroke-width="1.28384"/>
<path d="M323.816 84.5311C310.973 66.2252 280.925 65.9725 259.044 70.4682C237.189 74.9586 227.182 105.652 205.112 108.921C171.933 113.835 128.823 67.6072 106.869 93.0071C84.6367 118.73 142.913 156.809 135.103 189.921C128.221 219.095 77.0188 221.096 69.792 250.186C63.4686 275.64 87.9613 298.991 102.605 320.736C116.693 341.657 130.821 365.155 153.95 375.159C176.956 385.111 204.382 367.644 228.308 375.109C255.449 383.578 271.136 423.386 299.422 420.548C326.094 417.872 342.105 387.033 354.542 363.079L354.89 362.408C365.934 341.142 353.678 312.665 366.088 292.169C378.895 271.017 431.928 271.217 424.365 247.667C414.403 216.647 363.121 225.228 337.959 204.576C328.155 196.53 329.189 180.942 327.704 168.334C324.396 140.255 340.045 107.663 323.816 84.5311Z" stroke="#6260FF" stroke-width="1.28384"/>
<path d="M325.272 81.502C312.186 62.8492 281.568 62.5916 259.273 67.1726C237.005 71.7481 226.808 103.023 204.32 106.354C170.513 111.361 126.586 64.2574 104.217 90.1386C81.5632 116.349 140.944 155.15 132.985 188.889C125.973 218.616 73.801 220.655 66.4374 250.296C59.9942 276.233 84.9507 300.026 99.8715 322.183C114.227 343.501 128.622 367.443 152.189 377.637C175.631 387.778 203.576 369.98 227.956 377.587C255.61 386.216 271.595 426.778 300.416 423.886C327.593 421.159 343.908 389.736 356.58 365.329L356.935 364.645C368.188 342.976 355.699 313.959 368.344 293.075C381.394 271.522 435.431 271.726 427.725 247.729C417.575 216.122 365.321 224.865 339.682 203.822C329.693 195.624 330.747 179.74 329.233 166.893C325.863 138.282 341.808 105.073 325.272 81.502Z" stroke="#6260FF" stroke-width="1.28384"/>
<path d="M326.728 78.4732C313.399 59.4735 282.212 59.2112 259.503 63.8773C236.821 68.5379 226.434 100.395 203.529 103.787C169.093 108.888 124.349 60.9078 101.564 87.2705C78.4899 113.968 138.974 153.491 130.867 187.857C123.725 218.137 70.5834 220.214 63.083 250.407C56.52 276.826 81.9404 301.061 97.1385 323.631C111.761 345.345 126.423 369.733 150.428 380.116C174.306 390.445 202.771 372.317 227.603 380.065C255.772 388.854 272.053 430.171 301.41 427.225C329.092 424.448 345.71 392.44 358.618 367.579L358.98 366.882C370.442 344.81 357.721 315.254 370.601 293.981C383.894 272.027 438.935 272.235 431.086 247.792C420.747 215.597 367.522 224.502 341.406 203.068C331.232 194.717 332.305 178.538 330.763 165.452C327.33 136.309 343.572 102.482 326.728 78.4732Z" stroke="#6260FF" stroke-width="1.28384"/>
<path d="M328.185 75.444C314.612 56.0974 282.856 55.8303 259.733 60.5816C236.636 65.3273 226.061 97.7657 202.737 101.22C167.673 106.414 122.113 57.558 98.912 84.4019C75.4166 111.587 137.004 151.831 128.75 186.826C121.477 217.658 67.3659 219.773 59.7285 250.517C53.0458 277.418 78.93 302.096 94.4054 325.078C109.294 347.188 124.225 372.022 148.667 382.595C172.981 393.112 201.965 374.653 227.251 382.542C255.933 391.492 272.512 433.563 302.404 430.564C330.592 427.736 347.513 395.143 360.656 369.828L361.024 369.119C372.695 346.644 359.743 316.548 372.858 294.886C386.393 272.532 442.439 272.743 434.446 247.854C423.918 215.071 369.722 224.14 343.131 202.314C332.77 193.811 333.863 177.336 332.293 164.011C328.797 134.336 345.336 99.8913 328.185 75.444Z" stroke="#6260FF" stroke-width="1.28384"/>
<path d="M329.641 72.4153C315.825 52.7217 283.5 52.4498 259.962 57.2863C236.452 62.1171 225.687 95.1372 201.945 98.6537C166.253 103.94 119.876 54.2085 96.2595 81.5338C72.343 109.206 135.034 150.172 126.632 185.794C119.229 217.179 64.1481 219.332 56.3739 250.628C49.5714 278.011 75.9194 303.132 91.6722 326.525C106.828 349.032 122.026 374.311 146.907 385.074C171.656 395.78 201.159 376.989 226.898 385.02C256.095 394.13 272.97 436.956 303.398 433.903C332.091 431.024 349.315 397.847 362.694 372.078L363.069 371.356C374.949 348.478 361.764 317.843 375.115 295.792C388.892 273.037 445.942 273.252 437.806 247.917C427.09 214.546 371.923 223.777 344.854 201.56C334.308 192.904 335.42 176.134 333.823 162.57C330.264 132.363 347.099 97.3009 329.641 72.4153Z" stroke="#6260FF" stroke-width="1.28384"/>
<path d="M331.097 69.3861C317.038 49.3456 284.144 49.069 260.192 53.9907C236.267 58.9066 225.313 92.5082 201.153 96.0868C164.833 101.467 117.64 50.8586 93.6073 78.6652C69.2697 106.825 133.065 148.513 124.514 184.762C116.981 216.7 60.9305 218.891 53.0194 250.738C46.0973 278.604 72.9091 304.167 88.9392 327.972C104.362 350.876 119.827 376.6 145.146 387.552C170.331 398.447 200.354 379.325 226.545 387.498C256.256 396.768 273.429 440.349 304.392 437.242C333.59 434.312 351.118 400.551 364.732 374.328L365.114 373.593C377.203 350.312 363.786 319.137 377.371 296.698C391.391 273.542 449.446 273.761 441.167 247.979C430.262 214.02 374.123 223.414 346.578 200.806C335.847 191.998 336.979 174.932 335.353 161.129C331.731 130.39 348.862 94.7101 331.097 69.3861Z" stroke="#6260FF" stroke-width="1.28384"/>
<path d="M332.551 66.3574C318.249 45.9701 284.786 45.6886 260.419 50.6955C236.081 55.6965 224.937 89.8799 200.359 93.5203C163.41 98.9933 115.401 47.5092 90.9526 75.7972C66.194 104.444 131.093 146.854 122.394 183.731C114.73 216.222 57.7105 218.451 49.6626 250.848C42.6206 279.197 69.8963 305.202 86.2037 329.42C101.893 352.72 117.626 378.889 143.383 390.031C169.004 401.114 199.546 381.662 226.191 389.976C256.415 399.407 273.885 443.742 305.384 440.581C335.087 437.6 352.918 403.255 366.768 376.578L367.156 375.831C379.454 352.146 365.805 320.431 379.626 297.604C393.888 274.047 452.947 274.27 444.525 248.042C433.431 213.496 376.321 223.052 348.3 200.052C337.383 191.091 338.534 173.73 336.88 159.689C333.196 128.418 350.624 92.1198 332.551 66.3574Z" stroke="#6260FF" stroke-width="1.28384"/>
<path d="M334.007 63.3282C319.461 42.5939 285.429 42.3076 260.648 47.3997C235.896 52.4858 224.562 87.2508 199.567 90.9533C161.99 96.5193 113.164 44.1592 88.3001 72.9286C63.1205 102.063 129.123 145.194 120.276 182.699C112.482 215.743 54.4927 218.009 46.3079 250.958C39.1462 279.789 66.8858 306.237 83.4704 330.867C99.4266 354.564 115.427 381.178 141.622 392.509C167.679 403.781 198.74 383.998 225.838 392.453C256.576 402.045 274.343 447.134 306.378 443.919C336.586 440.888 354.721 405.958 368.806 378.827L369.2 378.067C381.708 353.98 367.827 321.725 381.882 298.51C396.387 274.552 456.45 274.779 447.885 248.105C436.603 212.97 378.522 222.689 350.024 199.298C338.921 190.185 340.092 172.528 338.41 158.248C334.663 126.444 352.387 89.5289 334.007 63.3282Z" stroke="#6260FF" stroke-width="1.28384"/>
<path d="M335.463 60.2994C320.674 39.2182 286.073 38.9271 260.878 44.1044C235.712 49.2756 224.189 84.6223 198.775 88.3867C160.57 94.0459 110.927 40.8097 85.6478 70.0604C60.0472 99.6826 127.153 143.535 118.159 181.667C110.234 215.264 51.2751 217.568 42.9535 251.069C35.6721 280.382 63.8754 307.273 80.7374 332.315C96.9604 356.408 113.228 383.467 139.861 394.988C166.354 406.448 197.934 386.334 225.485 394.931C256.738 404.683 274.802 450.527 307.373 447.258C338.086 444.176 356.523 408.662 370.844 381.077L371.245 380.305C383.962 355.814 369.849 323.02 384.139 299.416C398.887 275.057 459.954 275.288 451.245 248.167C439.774 212.445 380.722 222.326 351.748 198.544C340.459 189.278 341.65 171.326 339.939 156.807C336.13 124.472 354.151 86.9385 335.463 60.2994Z" stroke="#6260FF" stroke-width="1.28384"/>
<path d="M336.919 57.2702C321.887 35.8421 286.717 35.5463 261.107 40.8088C235.528 46.0651 223.815 81.9934 197.983 85.8197C159.15 91.5721 108.691 37.4598 82.9955 67.1919C56.9739 97.3015 125.183 141.876 116.041 180.635C107.987 214.785 48.0576 217.127 39.5991 251.179C32.1979 280.974 60.8651 308.308 78.0044 333.762C94.4941 358.251 111.03 385.756 138.101 397.467C165.029 409.116 197.129 388.67 225.133 397.409C256.899 407.321 275.261 453.919 308.367 450.597C339.585 447.464 358.326 411.366 372.882 383.327L373.29 382.541C386.216 357.648 371.87 324.314 386.396 300.322C401.386 275.562 463.457 275.796 454.606 248.23C442.946 211.919 382.923 221.964 353.472 197.79C341.998 188.372 343.208 170.124 341.469 155.366C337.598 122.499 355.914 84.3477 336.919 57.2702Z" stroke="#6260FF" stroke-width="1.28384"/>
<path d="M338.375 54.2414C323.1 32.4664 287.361 32.1658 261.337 37.5135C235.343 42.8549 223.441 79.3649 197.192 83.2531C157.729 89.0986 106.454 34.1103 80.343 64.3237C53.9003 94.9208 123.213 140.217 113.923 179.603C105.738 214.306 44.8398 216.687 36.2444 251.29C28.7235 281.567 57.8545 309.343 75.2711 335.209C92.0277 360.095 108.831 388.045 136.34 399.946C163.703 411.783 196.323 391.007 224.78 399.887C257.061 409.96 275.719 457.312 309.361 453.936C341.084 450.752 360.128 414.069 374.92 385.576L375.334 384.779C388.469 359.482 373.892 325.609 388.652 301.228C403.885 276.067 466.961 276.306 457.966 248.293C446.118 211.394 385.123 221.601 355.196 197.036C343.536 187.465 344.766 168.922 342.999 153.925C339.065 120.526 357.677 81.7573 338.375 54.2414Z" stroke="#6260FF" stroke-width="1.28384"/>
<path d="M339.831 51.2123C324.313 29.0904 288.005 28.7849 261.566 34.2178C235.159 39.6443 223.067 76.736 196.4 80.6862C156.309 86.6248 104.218 30.7605 77.6908 61.4552C50.827 92.5398 121.244 138.557 111.806 178.572C103.49 213.827 41.6222 216.245 32.89 251.4C25.2493 282.16 54.8442 310.378 72.5381 336.656C89.5615 361.939 106.632 390.334 134.579 402.424C162.378 414.45 195.517 393.343 224.428 402.364C257.222 412.598 276.178 460.704 310.355 457.275C342.584 454.04 361.931 416.773 376.958 387.826L377.379 387.015C390.723 361.316 375.914 326.903 390.909 302.134C406.384 276.572 470.464 276.814 461.326 248.355C449.289 210.869 387.324 221.238 356.92 196.282C345.074 186.559 346.324 167.72 344.529 152.484C340.532 118.553 359.441 79.1666 339.831 51.2123Z" stroke="#6260FF" stroke-width="1.28384"/>
<path d="M341.288 48.1835C325.526 25.7147 288.649 25.4045 261.796 30.9225C234.975 36.4341 222.693 74.1075 195.608 78.1196C154.889 84.1513 101.981 27.4109 75.0385 58.587C47.7537 90.1591 119.274 136.898 109.688 177.54C101.243 213.348 38.4047 215.805 29.5356 251.51C21.7751 282.753 51.8339 311.413 69.8051 338.104C87.0953 363.783 104.434 392.623 132.818 404.903C161.053 417.118 194.712 395.679 224.075 404.842C257.384 415.236 276.636 464.097 311.349 460.613C344.083 457.329 363.733 419.477 378.996 390.076L379.424 389.253C392.977 363.15 377.935 328.197 393.166 303.04C408.884 277.078 473.968 277.323 464.687 248.418C452.461 210.344 389.525 220.876 358.644 195.528C346.613 185.652 347.882 166.519 346.059 151.044C341.999 116.58 361.205 76.5761 341.288 48.1835Z" stroke="#6260FF" stroke-width="1.28384"/>
<path d="M342.744 45.1544C326.739 22.3386 289.293 22.0236 262.026 27.6269C234.79 33.2236 222.319 71.4786 194.816 75.5527C153.469 81.6775 99.7445 24.0611 72.3862 55.7185C44.6804 87.778 117.304 135.239 107.571 176.508C98.9946 212.869 35.1871 215.364 26.1812 251.62C18.301 283.345 48.8235 312.448 67.0721 339.551C84.6291 365.626 102.235 394.912 131.058 407.381C159.729 419.785 193.906 398.015 223.723 407.32C257.545 417.874 277.095 467.489 312.344 463.952C345.582 460.617 365.536 422.18 381.034 392.326L381.468 391.49C395.231 364.984 379.957 329.492 395.423 303.946C411.383 277.583 477.472 277.832 468.047 248.48C455.633 209.818 391.725 220.513 360.368 194.774C348.151 184.746 349.44 165.317 347.589 149.603C343.466 114.607 362.968 73.9854 342.744 45.1544Z" stroke="#6260FF" stroke-width="1.28384"/>
<path d="M344.2 42.1251C327.952 18.9624 289.937 18.6426 262.255 24.3311C234.606 30.0129 221.945 68.8495 194.024 72.9856C152.049 79.2036 97.5078 20.7111 69.7337 52.8499C41.6069 85.3968 115.335 133.579 105.453 175.476C96.7465 212.39 31.9693 214.922 22.8265 251.73C14.8265 283.937 45.8129 313.483 64.3388 340.998C82.1626 367.47 100.036 397.201 129.297 409.86C158.403 422.452 193.1 400.351 223.37 409.797C257.707 420.512 277.553 470.882 313.338 467.291C347.082 463.904 367.338 424.884 383.072 394.575L383.513 393.726C397.485 366.817 381.979 330.786 397.679 304.851C413.882 278.087 480.975 278.341 471.407 248.542C458.804 209.293 393.925 220.15 362.092 194.019C349.689 183.839 350.997 164.114 349.118 148.161C344.933 112.633 364.732 71.3945 344.2 42.1251Z" stroke="#6260FF" stroke-width="1.28384"/>
<path d="M345.656 39.0964C329.165 15.5869 290.581 15.2623 262.484 21.0359C234.421 26.8028 221.572 66.2211 193.233 70.4191C150.629 76.7302 95.2713 17.3617 67.0815 49.9818C38.5336 83.0163 113.365 131.92 103.335 174.445C94.4986 211.912 28.7517 214.482 19.4721 251.841C11.3524 284.53 42.8026 314.519 61.6058 342.445C79.6964 369.314 97.8373 399.49 127.536 412.339C157.078 425.119 192.295 402.688 223.018 412.275C257.868 423.15 278.012 474.275 314.332 470.63C348.581 467.193 369.141 427.588 385.11 396.825L385.558 395.963C399.738 368.652 384 332.08 399.936 305.757C416.381 278.593 484.479 278.85 474.768 248.605C461.976 208.768 396.126 219.788 363.816 193.266C351.228 182.933 352.555 162.913 350.648 146.721C346.4 110.661 366.495 68.8042 345.656 39.0964Z" stroke="#6260FF" stroke-width="1.28384"/>
<path d="M347.112 36.0671C330.378 12.2107 291.225 11.8813 262.714 17.7402C234.237 23.5921 221.198 63.5921 192.441 67.8521C149.208 74.2563 93.0348 14.0117 64.4292 47.1132C35.4603 80.6351 111.395 130.261 101.218 173.413C92.2507 211.432 25.5342 214.04 16.1177 251.951C7.8782 285.123 39.7923 315.554 58.8728 343.892C77.2302 371.157 95.6386 401.779 125.776 414.817C155.753 427.786 191.489 405.024 222.665 414.752C258.03 425.788 278.47 477.667 315.326 473.968C350.08 470.48 370.943 430.291 387.149 399.075L387.602 398.2C401.992 370.485 386.022 333.374 402.193 306.663C418.881 279.097 487.982 279.358 478.128 248.668C465.148 208.242 398.327 219.425 365.54 192.511C352.766 182.026 354.113 161.711 352.178 145.28C347.868 108.688 368.259 66.2133 347.112 36.0671Z" stroke="#6260FF" stroke-width="1.28384"/>
<path d="M348.568 33.0385C331.591 8.83509 291.868 8.50093 262.943 14.445C234.053 20.3821 220.824 60.9637 191.649 65.2856C147.788 71.783 90.798 10.6623 61.7767 44.2451C32.3868 78.2545 109.425 128.602 99.1 172.381C90.0025 210.954 22.3164 213.6 12.763 252.062C4.40378 285.716 36.7817 316.589 56.1395 345.34C74.7637 373.001 93.4397 404.068 124.015 417.296C154.428 430.454 190.683 407.36 222.312 417.23C258.191 428.427 278.929 481.06 316.32 477.307C351.579 473.769 372.746 432.995 389.186 401.324L389.647 400.438C404.246 372.32 388.044 334.669 404.449 307.569C421.38 279.603 491.486 279.867 481.488 248.73C468.32 207.717 400.527 219.062 367.264 191.758C354.304 181.12 355.671 160.509 353.707 143.839C349.335 106.715 370.022 63.623 348.568 33.0385Z" stroke="#6260FF" stroke-width="1.28384"/>
<path d="M350.023 30.0092C332.802 5.45891 292.51 5.11996 263.171 11.1492C233.866 17.1714 220.448 58.3347 190.855 62.7185C146.366 69.309 88.5596 7.31232 59.1225 41.3765C29.3115 75.8733 107.454 126.942 96.9804 171.349C87.7527 210.475 19.0969 213.158 9.40662 252.172C0.927654 286.308 33.7694 317.624 53.4045 346.787C72.2956 374.845 91.2391 406.357 122.252 419.774C153.101 433.12 189.876 409.696 221.958 419.708C258.35 431.065 279.385 484.452 317.312 480.646C353.077 477.057 374.547 435.698 391.223 403.574L391.69 402.674C406.498 374.153 390.063 335.963 406.704 308.475C423.877 280.108 494.988 280.376 484.847 248.793C471.489 207.192 402.726 218.699 368.986 191.003C355.841 180.213 357.227 159.307 355.235 142.398C350.8 104.742 371.784 61.0321 350.023 30.0092Z" stroke="#6260FF" stroke-width="1.28384"/>
<path d="M351.479 26.9805C334.015 2.08333 293.154 1.73959 263.401 7.85406C233.682 13.9613 220.074 55.7063 190.063 60.1521C144.946 66.8357 86.323 3.96294 56.4702 38.5085C26.2382 73.4927 105.484 125.283 94.8628 170.318C85.5048 209.996 15.8793 212.718 6.0522 252.282C-2.54652 286.901 30.7591 318.66 50.6715 348.235C69.8293 376.689 89.0404 408.647 120.491 422.253C151.776 435.788 189.07 412.033 221.606 422.186C258.512 433.703 279.844 487.845 318.307 483.985C354.576 480.345 376.349 438.402 393.261 405.824L393.734 404.912C408.752 375.988 392.085 337.258 408.961 309.381C426.377 280.613 498.491 280.885 488.207 248.856C474.661 206.667 404.926 218.337 370.71 190.25C357.379 179.307 358.785 158.105 356.765 140.957C352.267 102.769 373.547 58.4418 351.479 26.9805Z" stroke="#6260FF" stroke-width="1.28384"/>
</svg>
