<svg width="412" height="396" viewBox="0 0 412 396" fill="none" xmlns="http://www.w3.org/2000/svg">
<path fill-rule="evenodd" clip-rule="evenodd" d="M203.856 159.747C212.645 155.607 219.174 144.848 228.866 145.505C237.386 146.083 242.052 156.063 247.428 162.701C252.831 169.373 262.286 176.142 260.474 184.536C258.306 194.582 241.64 195.619 238.231 205.314C235.389 213.398 249.93 223.264 244.52 229.908C239.075 236.594 227.54 230.112 219.001 228.928C213.703 228.193 208.597 221.792 203.856 224.268C193.042 229.917 190.498 247.67 178.537 250.063C170.008 251.77 162.072 241.386 159.015 233.24C155.871 224.862 163.653 215.795 162.354 206.941C161.194 199.032 149.996 193.361 152.031 185.63C154.095 177.79 164.608 175.812 171.619 171.745C176.848 168.711 182.424 166.82 188.09 164.712C193.319 162.765 198.808 162.124 203.856 159.747Z" stroke="#6260FF" stroke-width="1.28384"/>
<path fill-rule="evenodd" clip-rule="evenodd" d="M197.265 54.6579C230.32 39.1044 254.877 -1.31708 291.328 1.15199C323.37 3.32241 340.917 40.818 361.134 65.7577C381.455 90.8255 417.013 116.256 410.2 147.792C402.046 185.535 339.368 189.433 326.547 225.857C315.857 256.228 370.546 293.298 350.198 318.258C329.72 343.379 286.338 319.025 254.224 314.576C234.299 311.816 215.097 287.766 197.265 297.071C156.598 318.291 147.03 384.992 102.044 393.984C69.969 400.394 40.1231 361.383 28.6255 330.777C16.8011 299.301 46.0668 265.236 41.1823 231.971C36.819 202.255 -5.29258 180.949 2.36051 151.905C10.1222 122.449 49.6617 115.015 76.0269 99.7355C95.695 88.337 116.664 81.2345 137.972 73.3117C157.639 65.9994 178.281 63.5909 197.265 54.6579Z" stroke="#6260FF" stroke-width="1.28384"/>
<path d="M230.092 142.675C219.875 141.982 212.992 153.323 203.727 157.686C198.406 160.192 192.62 160.868 187.108 162.92C181.135 165.142 175.258 167.135 169.745 170.333C162.355 174.62 151.273 176.705 149.097 184.969C146.952 193.118 158.755 199.095 159.978 207.432C161.347 216.765 153.145 226.322 156.459 235.153C159.682 243.739 168.047 254.684 177.037 252.886C189.646 250.363 192.328 231.65 203.727 225.696C208.725 223.086 214.107 229.833 219.692 230.607C228.693 231.856 240.853 238.688 246.593 231.64C252.296 224.638 236.967 214.238 239.963 205.717C243.557 195.498 261.125 194.404 263.41 183.815C265.32 174.968 255.353 167.833 249.658 160.8C243.991 153.803 239.073 143.284 230.092 142.675Z" stroke="#6260FF" stroke-width="1.28384"/>
<path d="M231.317 139.844C220.575 139.116 213.339 151.038 203.598 155.625C198.004 158.26 191.921 158.971 186.125 161.127C179.846 163.464 173.667 165.559 167.871 168.921C160.102 173.427 148.45 175.62 146.163 184.308C143.908 192.874 156.317 199.158 157.603 207.923C159.042 217.734 150.418 227.781 153.903 237.065C157.291 246.092 166.086 257.598 175.538 255.707C188.795 253.055 191.614 233.382 203.598 227.123C208.853 224.379 214.511 231.472 220.383 232.287C229.847 233.599 242.63 240.782 248.665 233.372C254.661 226.011 238.545 215.077 241.696 206.12C245.474 195.376 263.944 194.227 266.347 183.095C268.354 173.793 257.876 166.293 251.888 158.899C245.93 151.543 240.759 140.484 231.317 139.844Z" stroke="#6260FF" stroke-width="1.28384"/>
<path d="M232.542 137.014C221.276 136.25 213.686 148.754 203.469 153.565C197.602 156.328 191.222 157.073 185.143 159.335C178.557 161.786 172.076 163.983 165.997 167.509C157.848 172.236 145.628 174.535 143.229 183.647C140.863 192.631 153.879 199.222 155.228 208.414C156.737 218.704 147.692 229.241 151.347 238.977C154.9 248.445 164.125 260.513 174.039 258.529C187.943 255.748 190.9 235.115 203.469 228.551C208.981 225.673 214.916 233.112 221.074 233.966C231 235.342 244.408 242.876 250.738 235.105C257.027 227.384 240.124 215.917 243.428 206.523C247.39 195.255 266.763 194.05 269.283 182.374C271.389 172.619 260.399 164.753 254.118 156.999C247.869 149.284 242.446 137.685 232.542 137.014Z" stroke="#6260FF" stroke-width="1.28384"/>
<path d="M233.767 134.184C221.976 133.384 214.033 146.47 203.341 151.505C197.2 154.397 190.523 155.176 184.161 157.543C177.268 160.108 170.485 162.407 164.123 166.097C155.595 171.044 142.805 173.45 140.294 182.986C137.819 192.388 151.441 199.285 152.852 208.905C154.432 219.673 144.965 230.701 148.79 240.89C152.509 250.798 162.164 263.427 172.539 261.352C187.091 258.441 190.186 236.848 203.341 229.979C209.109 226.967 215.32 234.752 221.765 235.646C232.153 237.086 246.186 244.97 252.81 236.838C259.392 228.758 241.702 216.757 245.16 206.926C249.307 195.134 269.582 193.872 272.219 181.654C274.423 171.445 262.921 163.213 256.348 155.098C249.808 147.024 244.132 134.886 233.767 134.184Z" stroke="#6260FF" stroke-width="1.28384"/>
<path d="M234.99 131.353C222.674 130.518 214.378 144.185 203.209 149.444C196.795 152.464 189.821 153.278 183.176 155.751C175.977 158.429 168.892 160.831 162.247 164.685C153.339 169.851 139.98 172.365 137.358 182.324C134.772 192.144 149 199.348 150.474 209.395C152.124 220.642 142.237 232.16 146.232 242.802C150.116 253.15 160.2 266.341 171.037 264.173C186.237 261.133 189.469 238.581 203.209 231.406C209.234 228.26 215.722 236.391 222.454 237.325C233.304 238.829 247.961 247.063 254.88 238.57C261.755 230.13 243.278 217.597 246.89 207.328C251.221 195.012 272.398 193.695 275.153 180.933C277.455 170.271 265.441 161.672 258.575 153.197C251.745 144.764 245.816 132.087 234.99 131.353Z" stroke="#6260FF" stroke-width="1.28384"/>
<path d="M236.215 128.523C223.375 127.652 214.725 141.901 203.081 147.383C196.393 150.532 189.122 151.381 182.194 153.959C174.688 156.752 167.302 159.255 160.373 163.273C151.086 168.659 137.158 171.28 134.423 181.663C131.728 191.901 146.562 199.411 148.099 209.886C149.819 221.612 139.51 233.62 143.676 244.715C147.726 255.504 158.239 269.255 169.538 266.995C185.385 263.826 188.755 240.314 203.081 232.834C209.362 229.554 216.126 238.031 223.145 239.004C234.458 240.573 249.739 249.157 256.953 240.302C264.121 231.504 244.856 218.437 248.622 207.731C253.138 194.891 275.217 193.517 278.089 180.213C280.489 169.097 267.964 160.132 260.805 151.296C253.684 142.505 247.503 129.288 236.215 128.523Z" stroke="#6260FF" stroke-width="1.28384"/>
<path d="M237.44 125.692C224.075 124.786 215.072 139.617 202.952 145.323C195.991 148.6 188.423 149.484 181.212 152.167C173.399 155.074 165.711 157.679 158.499 161.861C148.832 167.467 134.335 170.195 131.489 181.002C128.683 191.657 144.123 199.475 145.723 210.377C147.514 222.582 136.784 235.079 141.119 246.628C145.335 257.857 156.278 272.17 168.039 269.817C184.533 266.519 188.041 242.047 202.952 234.261C209.49 230.848 216.53 239.671 223.836 240.684C235.611 242.316 251.517 251.251 259.026 242.035C266.486 232.877 246.434 219.277 250.354 208.134C255.055 194.77 278.036 193.34 281.026 179.493C283.524 167.923 270.486 158.592 263.035 149.395C255.623 140.245 249.189 126.489 237.44 125.692Z" stroke="#6260FF" stroke-width="1.28384"/>
<path d="M238.665 122.862C224.775 121.921 215.418 137.332 202.823 143.263C195.589 146.669 187.723 147.587 180.229 150.375C172.109 153.396 164.119 156.104 156.625 160.45C146.578 166.276 131.512 169.11 128.554 180.341C125.638 191.414 141.685 199.538 143.347 210.868C145.209 223.551 134.057 236.539 138.563 248.54C142.944 260.21 154.317 275.084 166.539 272.64C183.681 269.211 187.327 243.78 202.823 235.689C209.618 232.141 216.934 241.311 224.527 242.363C236.764 244.06 253.294 253.345 261.098 243.767C268.851 234.251 248.012 220.117 252.086 208.537C256.971 194.649 280.854 193.163 283.961 178.773C286.557 166.749 273.008 157.052 265.265 147.495C257.561 137.986 250.875 123.69 238.665 122.862Z" stroke="#6260FF" stroke-width="1.28384"/>
<path d="M239.89 120.031C225.476 119.054 215.765 135.048 202.694 141.202C195.187 144.736 187.024 145.689 179.247 148.582C170.82 151.717 162.529 154.527 154.751 159.037C144.325 165.083 128.689 168.025 125.62 179.679C122.594 191.171 139.246 199.601 140.972 211.358C142.903 224.52 131.331 237.999 136.006 250.452C140.553 262.562 152.355 277.998 165.039 275.461C182.829 271.904 186.612 245.512 202.694 237.116C209.745 233.435 217.339 242.95 225.218 244.043C237.917 245.803 255.072 255.439 263.17 245.499C271.217 235.623 249.59 220.956 253.818 208.94C258.888 194.528 283.673 192.985 286.898 178.052C289.592 165.574 275.531 155.512 267.495 145.594C259.5 135.726 252.561 120.89 239.89 120.031Z" stroke="#6260FF" stroke-width="1.28384"/>
<path d="M241.114 117.201C226.175 116.189 216.11 132.764 202.563 139.141C194.783 142.804 186.323 143.792 178.263 146.791C169.53 150.039 160.936 152.952 152.875 157.626C142.07 163.891 125.865 166.94 122.684 179.018C119.547 190.928 136.806 199.665 138.595 211.849C140.596 225.49 128.602 239.458 133.448 252.365C138.16 264.915 150.392 280.912 163.538 278.283C181.975 274.597 185.896 247.245 202.563 238.544C209.871 234.729 217.741 244.59 225.907 245.722C239.069 247.547 256.848 257.533 265.241 247.232C273.58 236.997 251.167 221.796 255.548 209.343C260.803 194.407 286.49 192.808 289.832 177.332C292.624 164.4 278.051 153.972 269.723 143.693C261.437 133.466 254.246 118.091 241.114 117.201Z" stroke="#6260FF" stroke-width="1.28384"/>
<path d="M242.338 114.37C226.875 113.322 216.457 130.479 202.434 137.081C194.38 140.872 185.623 141.894 177.28 144.998C168.24 148.361 159.345 151.376 151.001 156.214C139.816 162.699 123.042 165.854 119.749 178.357C116.502 190.684 134.368 199.727 136.219 212.34C138.291 226.459 125.875 240.918 130.892 254.277C135.769 267.268 148.431 283.826 162.038 281.105C181.123 277.289 185.182 248.978 202.434 239.971C209.999 236.022 218.145 246.23 226.598 247.401C240.222 249.29 258.625 259.627 267.313 248.964C275.945 238.37 252.745 222.636 257.28 209.745C262.719 194.285 289.309 192.631 292.768 176.611C295.658 163.226 280.573 152.432 271.952 141.792C263.376 131.206 255.932 115.292 242.338 114.37Z" stroke="#6260FF" stroke-width="1.28384"/>
<path d="M243.564 111.54C227.575 110.456 216.804 128.195 202.305 135.02C193.978 138.94 184.924 139.997 176.298 143.206C166.951 146.683 157.754 149.8 149.127 154.802C137.562 161.507 120.219 164.769 116.815 177.695C113.458 190.44 131.929 199.791 133.843 212.831C135.986 227.429 123.149 242.377 128.335 256.19C133.379 269.621 146.47 286.74 160.539 283.927C180.271 279.982 184.468 250.711 202.305 241.399C210.127 237.315 218.549 247.869 227.289 249.081C241.375 251.033 260.403 261.72 269.386 250.696C278.311 239.743 254.323 223.476 259.012 210.148C264.635 194.164 292.128 192.453 295.704 175.89C298.692 162.051 283.096 150.892 274.182 139.891C265.315 128.947 257.618 112.492 243.564 111.54Z" stroke="#6260FF" stroke-width="1.28384"/>
<path d="M244.789 108.709C228.276 107.59 217.151 125.91 202.177 132.959C193.576 137.008 184.225 138.099 175.316 141.414C165.662 145.004 156.163 148.223 147.253 153.389C135.309 160.315 117.397 163.684 113.881 177.034C110.414 190.197 129.491 199.854 131.468 213.321C133.681 228.398 120.423 243.837 125.779 258.102C130.988 271.974 144.509 289.654 159.04 286.749C179.419 282.674 183.754 252.443 202.177 242.826C210.255 238.609 218.953 249.509 227.98 250.76C242.529 252.776 262.181 263.814 271.458 252.428C280.676 241.116 255.901 224.315 260.744 210.55C266.552 194.042 294.947 192.276 298.64 175.17C301.727 160.877 285.618 149.351 276.413 137.99C267.254 126.687 259.305 109.693 244.789 108.709Z" stroke="#6260FF" stroke-width="1.28384"/>
<path d="M246.014 105.879C228.976 104.724 217.498 123.626 202.048 130.899C193.174 135.076 183.526 136.202 174.333 139.622C164.373 143.326 154.572 146.648 145.379 151.978C133.056 159.123 114.574 162.599 110.946 176.373C107.369 189.954 127.053 199.917 129.092 213.812C131.375 229.367 117.696 245.296 123.223 260.015C128.597 274.327 142.548 292.569 157.54 289.571C178.567 285.367 183.039 254.176 202.048 244.254C210.383 239.903 219.358 251.149 228.671 252.439C243.682 254.52 263.959 265.908 273.531 254.161C283.042 242.489 257.479 225.155 262.476 210.953C268.469 193.921 297.765 192.098 301.577 174.449C304.761 159.703 288.141 147.811 278.643 136.089C269.193 124.427 260.991 106.894 246.014 105.879Z" stroke="#6260FF" stroke-width="1.28384"/>
<path d="M247.239 103.048C229.677 101.858 217.845 121.341 201.919 128.838C192.772 133.144 182.827 134.305 173.351 137.829C163.084 141.648 152.982 145.071 143.505 150.565C130.802 157.93 111.752 161.513 108.012 175.711C104.325 189.71 124.615 199.98 126.717 214.303C129.07 230.337 114.97 246.756 120.667 261.927C126.207 276.679 140.587 295.483 156.041 292.393C177.715 288.059 182.325 255.909 201.919 245.681C210.511 241.196 219.762 252.788 229.362 254.118C244.835 256.263 265.737 268.001 275.604 255.893C285.407 243.862 259.058 225.995 264.208 211.356C270.386 193.799 300.584 191.921 304.513 173.729C307.795 158.528 290.663 146.271 280.873 134.188C271.132 122.167 262.677 104.094 247.239 103.048Z" stroke="#6260FF" stroke-width="1.28384"/>
<path d="M248.462 100.218C230.375 98.9924 218.19 119.057 201.788 126.778C192.368 131.212 182.125 132.408 172.366 136.037C161.793 139.97 151.388 143.496 141.629 149.154C128.546 156.738 108.927 160.429 105.075 175.05C101.278 189.467 122.174 200.043 124.339 214.794C126.763 231.306 112.241 248.216 118.108 263.84C123.813 279.032 138.623 298.397 154.539 295.215C176.861 290.752 181.609 257.642 201.788 247.109C210.636 242.49 220.164 254.428 230.051 255.798C245.986 258.007 267.512 270.096 277.674 257.626C287.77 245.236 260.633 226.835 265.938 211.759C272.3 193.678 303.401 191.744 307.447 173.008C310.827 157.354 293.183 144.731 283.1 132.288C273.068 119.908 264.361 101.295 248.462 100.218Z" stroke="#6260FF" stroke-width="1.28384"/>
<path d="M249.687 97.3872C231.075 96.1261 218.537 116.772 201.659 124.717C191.966 129.28 181.426 130.51 171.384 134.245C160.504 138.292 149.798 141.919 139.755 147.741C126.293 155.546 106.104 159.343 102.141 174.388C98.2336 189.223 119.736 200.106 121.964 215.284C124.458 232.275 109.515 249.675 115.552 265.752C121.423 281.385 136.662 301.311 153.04 298.037C176.009 293.444 180.895 259.374 201.659 248.536C210.764 243.783 220.568 256.067 230.742 257.477C247.14 259.75 269.29 272.189 279.746 259.358C290.136 246.609 262.212 227.674 267.67 212.162C274.217 193.557 306.22 191.566 310.383 172.288C313.862 156.18 295.706 143.19 285.33 130.386C275.007 117.648 266.048 98.4958 249.687 97.3872Z" stroke="#6260FF" stroke-width="1.28384"/>
<path d="M250.912 94.557C231.776 93.2603 218.884 114.488 201.53 122.656C191.564 127.348 180.727 128.613 170.402 132.453C159.215 136.614 148.207 140.344 137.881 146.33C124.04 154.354 103.282 158.258 99.207 173.727C95.1892 188.98 117.297 200.17 119.588 215.775C122.152 233.245 106.788 251.135 112.996 267.665C119.032 283.738 134.701 304.226 151.54 300.859C175.157 296.137 180.18 261.107 201.53 249.963C210.892 245.077 220.973 257.707 231.433 259.157C248.293 261.493 271.068 274.283 281.819 261.09C292.501 247.982 263.79 228.514 269.402 212.565C276.133 193.436 309.039 191.389 313.319 171.567C316.896 155.006 298.228 141.65 287.56 128.486C276.946 115.388 267.734 95.6968 250.912 94.557Z" stroke="#6260FF" stroke-width="1.28384"/>
<path d="M252.137 91.7268C232.476 90.3946 219.23 112.204 201.401 120.596C191.161 125.416 180.027 126.716 169.419 130.661C157.926 134.936 146.615 138.768 136.007 144.918C121.786 153.162 100.459 157.173 96.2722 173.066C92.1442 188.737 114.859 200.233 117.212 216.266C119.847 234.215 104.061 252.594 110.439 269.577C116.641 286.091 132.739 307.14 150.04 303.681C174.305 298.83 179.466 262.841 201.401 251.391C211.019 246.371 221.376 259.347 232.124 260.836C249.446 263.237 272.845 276.377 283.891 262.823C294.866 249.356 265.368 229.355 271.134 212.968C278.049 193.315 311.857 191.212 316.255 170.847C319.93 153.832 300.75 140.111 289.79 126.585C278.885 113.129 269.42 92.8978 252.137 91.7268Z" stroke="#6260FF" stroke-width="1.28384"/>
<path d="M253.363 88.8959C233.177 87.5282 219.578 109.919 201.273 118.535C190.76 123.484 179.329 124.818 168.438 128.868C156.637 133.257 145.025 137.191 134.133 143.506C119.533 151.97 97.6368 156.088 93.3385 172.405C89.1004 188.493 112.421 200.296 114.837 216.757C117.542 235.184 101.335 254.054 107.884 271.489C114.251 288.444 130.779 310.054 148.541 306.502C173.453 301.522 178.752 264.573 201.273 252.818C211.148 247.664 221.781 260.986 232.815 262.515C250.6 264.98 274.623 278.47 285.964 264.555C297.232 250.728 266.947 230.194 272.867 213.37C279.967 193.193 314.677 191.034 319.192 170.126C322.965 152.657 303.273 138.57 292.02 124.684C280.824 110.869 271.107 90.0982 253.363 88.8959Z" stroke="#6260FF" stroke-width="1.28384"/>
<path d="M254.585 86.0658C233.875 84.6626 219.922 107.635 201.142 116.475C190.355 121.552 178.627 122.921 167.453 127.077C155.346 131.579 143.432 135.616 132.257 142.094C117.277 150.778 94.8118 155.003 90.4018 171.744C86.0535 188.25 109.98 200.359 112.459 217.248C115.235 236.153 98.6066 255.513 105.325 273.402C111.858 290.797 128.815 312.968 147.04 309.325C172.599 304.215 178.036 266.306 201.142 254.246C211.273 248.958 222.183 262.626 233.504 264.195C251.751 266.724 276.399 280.565 288.034 266.288C299.595 252.102 268.522 231.034 274.596 213.773C281.881 193.072 317.493 190.857 322.126 169.406C325.997 151.483 305.793 137.03 294.248 122.783C282.761 108.609 272.791 87.2993 254.585 86.0658Z" stroke="#6260FF" stroke-width="1.28384"/>
<path d="M255.811 83.2355C234.575 81.7967 220.27 105.351 201.013 114.414C189.953 119.62 177.928 121.023 166.471 125.284C154.057 129.901 141.841 134.04 130.383 140.682C115.024 149.586 91.9894 153.918 87.4676 171.082C83.0092 188.007 107.542 200.423 110.084 217.739C112.93 237.123 95.8803 256.973 102.769 275.315C109.467 293.15 126.854 315.883 145.54 312.147C171.747 306.907 177.322 268.039 201.013 255.674C211.401 250.252 222.587 264.266 234.195 265.874C252.904 268.467 278.177 282.659 290.107 268.02C301.961 253.475 270.101 231.874 276.329 214.176C283.798 192.951 320.312 190.679 325.062 168.686C329.031 150.309 308.316 135.49 296.478 120.883C284.7 106.35 274.478 84.5002 255.811 83.2355Z" stroke="#6260FF" stroke-width="1.28384"/>
<path d="M257.035 80.4047C235.275 78.9304 220.616 103.067 200.884 112.354C189.55 117.688 177.228 119.126 165.488 123.492C152.767 128.223 140.25 132.464 128.509 139.27C112.77 148.394 89.1662 152.833 84.5327 170.421C79.9641 187.763 105.103 200.486 107.708 218.229C110.624 238.092 93.1532 258.432 100.212 277.227C107.076 295.502 124.892 318.797 144.04 314.969C170.895 309.6 176.607 269.772 200.884 257.101C211.528 251.545 222.991 265.905 234.886 267.554C254.057 270.21 279.954 284.752 292.179 269.752C304.326 254.848 271.678 232.714 278.06 214.579C285.714 192.829 323.13 190.502 327.998 167.965C332.065 149.135 310.838 133.95 298.707 118.982C286.638 104.09 276.163 81.7007 257.035 80.4047Z" stroke="#6260FF" stroke-width="1.28384"/>
<path d="M258.261 77.5745C235.976 76.0647 220.963 100.782 200.755 110.293C189.148 115.756 176.529 117.229 164.506 121.7C151.479 126.545 138.659 130.888 126.635 137.858C110.516 147.202 86.3438 151.748 81.5986 169.76C76.9198 187.52 102.665 200.549 105.333 218.72C108.319 239.062 90.4269 259.892 97.6558 279.14C104.685 297.855 122.931 321.711 142.541 317.791C170.043 312.293 175.893 271.505 200.755 258.529C211.656 252.839 223.396 267.545 235.577 269.233C255.21 271.954 281.732 286.846 294.252 271.485C306.691 256.222 273.257 233.554 279.792 214.982C287.631 192.708 325.949 190.325 330.934 167.245C335.099 147.961 313.361 132.41 300.937 117.081C288.577 101.83 277.85 78.9017 258.261 77.5745Z" stroke="#6260FF" stroke-width="1.28384"/>
<path d="M259.486 74.7437C236.676 73.1983 221.31 98.4976 200.626 108.232C188.746 113.823 175.83 115.331 163.523 119.908C150.19 124.866 137.068 129.312 124.761 136.446C108.263 146.009 83.5212 150.662 78.6643 169.098C73.8754 187.276 100.227 200.612 102.957 219.211C106.014 240.031 87.7005 261.351 95.0996 281.052C102.294 300.208 120.97 324.625 141.042 320.612C169.191 314.985 175.179 273.237 200.626 259.956C211.784 254.132 223.8 269.184 236.268 270.912C256.364 273.697 283.51 288.94 296.324 273.217C309.057 257.594 274.835 234.393 281.524 215.384C289.547 192.586 328.768 190.147 333.87 166.524C338.133 146.786 315.883 130.869 303.167 115.18C290.516 99.5702 279.536 76.1021 259.486 74.7437Z" stroke="#6260FF" stroke-width="1.28384"/>
<path d="M260.711 71.9135C237.377 70.3326 221.657 96.2135 200.497 106.172C188.345 111.892 175.131 113.434 162.541 118.116C148.901 123.188 135.478 127.736 122.887 135.034C106.01 144.818 80.6987 149.577 75.7301 168.437C70.831 187.033 97.7885 200.675 100.582 219.702C103.709 241 84.9742 262.811 92.5435 282.965C99.9037 302.561 119.009 327.539 139.542 323.435C168.339 317.678 174.465 274.97 200.497 261.383C211.912 255.426 224.204 270.824 236.959 272.592C257.517 275.44 285.288 291.034 298.397 274.949C311.422 258.968 276.413 235.233 283.257 215.787C291.464 192.465 331.587 189.97 336.807 165.804C341.168 145.612 318.406 129.329 305.397 113.279C292.455 97.3107 281.223 73.3031 260.711 71.9135Z" stroke="#6260FF" stroke-width="1.28384"/>
<path d="M261.934 69.0831C238.075 67.4667 222.002 93.9292 200.366 104.112C187.94 109.96 174.429 111.537 161.557 116.324C147.609 121.51 133.884 126.16 121.011 133.622C103.754 143.626 77.8737 148.492 72.7934 167.776C67.7841 186.79 95.3478 200.739 98.2038 220.192C101.401 241.97 82.2453 264.271 89.9848 284.877C97.5105 304.914 117.046 330.454 138.04 326.257C167.485 320.37 173.748 276.703 200.366 262.811C212.038 256.72 224.606 272.464 237.648 274.271C258.668 277.184 287.063 293.128 300.467 276.682C313.785 260.341 277.989 236.073 284.986 216.19C293.378 192.344 334.403 189.792 339.74 165.083C344.2 144.438 320.926 127.789 307.625 111.378C294.392 95.0511 282.907 70.504 261.934 69.0831Z" stroke="#6260FF" stroke-width="1.28384"/>
<path d="M263.159 66.253C238.776 64.601 222.349 91.6452 200.237 102.051C187.538 108.028 173.73 109.639 160.574 114.532C146.32 119.833 132.294 124.585 119.137 132.211C101.5 142.434 75.0512 147.408 69.8591 167.115C64.7397 186.547 92.9095 200.802 95.8283 220.684C99.0957 242.94 79.5189 265.731 87.4286 286.79C95.1198 307.267 115.085 333.368 136.541 329.079C166.633 323.063 173.034 278.436 200.237 264.239C212.166 258.014 225.01 274.104 238.339 275.951C259.821 278.928 288.841 295.222 302.54 278.414C316.151 261.715 279.567 236.913 286.719 216.593C295.295 192.223 337.222 189.615 342.677 164.363C347.234 143.264 323.448 126.249 309.855 109.478C296.331 92.7917 284.593 67.7051 263.159 66.253Z" stroke="#6260FF" stroke-width="1.28384"/>
<path d="M264.384 63.4222C239.476 61.7347 222.696 89.3605 200.109 99.9904C187.136 106.096 173.031 107.742 159.592 112.739C145.031 118.154 130.703 123.008 117.263 130.798C99.2472 141.241 72.2287 146.322 66.9249 166.453C61.6954 186.303 90.4714 200.865 93.4529 221.174C96.7907 243.909 76.7926 267.19 84.8725 288.702C92.7292 309.62 113.124 336.282 135.042 331.9C165.781 325.755 172.32 280.169 200.109 265.666C212.294 259.307 225.415 275.743 239.03 277.63C260.975 280.671 290.619 297.315 304.612 280.146C318.516 263.088 281.146 237.753 288.451 216.996C297.212 192.101 340.041 189.438 345.613 163.642C350.268 142.089 325.971 124.709 312.085 107.577C298.27 90.5317 286.28 64.9055 264.384 63.4222Z" stroke="#6260FF" stroke-width="1.28384"/>
<path d="M265.609 60.5914C240.177 58.8684 223.043 87.0758 199.98 97.9296C186.734 104.163 172.332 105.844 158.61 110.947C143.742 116.476 129.112 121.432 115.389 129.386C96.9937 140.049 69.4062 145.237 63.9907 165.792C58.6509 186.059 88.0331 200.928 91.0775 221.664C94.4855 244.878 74.0662 268.649 82.3163 290.614C90.3384 311.972 111.163 339.196 133.542 334.722C164.93 328.448 171.606 281.901 199.98 267.093C212.422 260.6 225.819 277.383 239.721 279.309C262.128 282.414 292.396 299.409 306.685 281.878C320.882 264.46 282.724 238.592 290.183 217.398C299.128 191.98 342.86 189.26 348.549 162.922C353.303 140.915 328.493 123.169 314.315 105.675C300.209 88.2717 287.966 62.106 265.609 60.5914Z" stroke="#6260FF" stroke-width="1.28384"/>
<path d="M266.834 57.7611C240.876 56.0026 223.389 84.7916 199.851 95.8691C186.331 102.231 171.632 103.947 157.627 109.155C142.453 114.798 127.521 119.856 113.515 127.974C94.7397 138.857 66.583 144.152 61.0558 165.131C55.6059 185.816 85.5942 200.991 88.7014 222.155C92.1797 245.847 71.3392 270.109 79.7595 292.527C87.9471 314.325 109.201 342.11 132.042 337.544C164.077 331.141 170.891 283.634 199.851 268.521C212.549 261.894 226.223 279.023 240.412 280.989C263.281 284.157 294.173 301.503 308.757 283.611C323.246 265.834 284.302 239.432 291.914 217.801C301.044 191.859 345.678 189.083 351.485 162.201C356.336 139.741 331.015 121.628 316.544 103.775C302.147 86.0121 289.652 59.3069 266.834 57.7611Z" stroke="#6260FF" stroke-width="1.28384"/>
<path d="M268.057 54.9304C241.575 53.1363 223.734 82.507 199.72 93.8083C185.927 100.299 170.931 102.049 156.643 107.362C141.162 113.119 125.928 118.28 111.639 126.562C92.4845 137.665 63.7586 143.066 58.1196 164.469C52.5596 185.572 83.1541 201.054 86.3241 222.646C89.8727 246.817 68.6109 271.568 77.2014 294.439C85.5545 316.678 107.238 345.024 130.541 340.366C163.223 333.833 170.175 285.367 199.72 269.948C212.675 263.187 226.625 280.662 241.101 282.668C264.432 285.9 295.949 303.596 310.827 285.343C325.61 267.207 285.878 240.272 293.645 218.204C302.959 191.737 348.496 188.905 354.419 161.481C359.369 138.566 333.536 120.088 318.772 101.874C304.084 83.7521 291.336 56.5074 268.057 54.9304Z" stroke="#6260FF" stroke-width="1.28384"/>
<path d="M269.283 52.1001C242.276 50.2706 224.082 80.2228 199.591 91.748C185.525 98.3673 170.232 100.152 155.661 105.57C139.873 111.441 124.337 116.704 109.765 125.15C90.2312 136.473 60.9362 141.981 55.1855 163.808C49.5153 185.329 80.7159 201.118 83.9487 223.137C87.5677 247.786 65.8846 273.028 74.6453 296.352C83.1639 319.031 105.277 347.939 129.042 343.188C162.372 336.526 169.461 287.1 199.591 271.376C212.803 264.481 227.029 282.302 241.792 284.347C265.586 287.644 297.727 305.69 312.9 287.076C327.976 268.58 287.457 241.112 295.377 218.607C304.876 191.616 351.315 188.728 357.356 160.76C362.403 137.392 336.058 118.548 321.002 99.973C306.023 81.4926 293.023 53.7084 269.283 52.1001Z" stroke="#6260FF" stroke-width="1.28384"/>
<path d="M270.507 49.2699C242.976 47.4048 224.428 77.9387 199.462 89.6876C185.123 96.4355 169.532 98.2549 154.678 103.779C138.584 109.763 122.746 115.128 107.891 123.739C87.9771 135.281 58.113 140.896 52.2506 163.147C46.4702 185.086 78.277 201.181 81.5726 223.628C85.2619 248.756 63.1576 274.488 72.0885 298.265C80.7726 321.384 103.315 350.853 127.542 346.01C161.519 339.219 168.746 288.833 199.462 272.804C212.93 265.775 227.433 283.942 242.483 286.027C266.739 289.388 299.505 307.784 314.972 288.808C330.34 269.954 289.034 241.952 297.108 219.01C306.792 191.495 354.133 188.551 360.291 160.04C365.437 136.218 338.58 117.008 323.232 98.0724C307.962 79.2332 294.709 50.9094 270.507 49.2699Z" stroke="#6260FF" stroke-width="1.28384"/>
<path d="M271.732 46.4396C243.676 44.5389 224.775 75.6544 199.333 87.6272C184.721 94.5036 168.833 96.3576 153.696 101.986C137.295 108.085 121.155 113.553 106.017 122.327C85.7238 134.089 55.2906 139.811 49.3164 162.486C43.4259 184.843 75.8388 201.244 79.1973 224.119C82.9569 249.725 60.4313 275.948 69.5324 300.177C78.382 323.737 101.354 353.767 126.042 348.832C160.667 341.911 168.032 290.566 199.333 274.231C213.058 267.069 227.838 285.581 243.174 287.706C267.892 291.131 301.282 309.878 317.045 290.541C332.706 271.327 290.613 242.792 298.841 219.413C308.709 191.374 356.952 188.373 363.228 159.32C368.471 135.044 341.103 115.468 325.462 96.1716C309.901 76.9736 296.395 48.1103 271.732 46.4396Z" stroke="#6260FF" stroke-width="1.28384"/>
<path d="M272.958 43.6088C244.377 41.6727 225.122 73.3698 199.204 85.5663C184.319 92.5713 168.134 94.46 152.714 100.194C136.006 106.407 119.564 111.976 104.143 120.915C83.4704 132.897 52.468 138.726 46.3821 161.824C40.3814 184.599 73.4006 201.307 76.8218 224.609C80.6517 250.695 57.7048 277.407 66.9761 302.089C75.9913 326.09 99.393 356.681 124.543 351.654C159.815 344.604 167.318 292.298 199.204 275.658C213.186 268.362 228.242 287.221 243.865 289.386C269.046 292.874 303.06 311.972 319.117 292.273C335.071 272.7 292.191 243.631 300.573 219.815C310.626 191.252 359.771 188.196 366.164 158.599C371.506 133.87 343.625 113.928 327.692 94.2705C311.84 74.7136 298.081 45.3108 272.958 43.6088Z" stroke="#6260FF" stroke-width="1.28384"/>
<path d="M274.183 40.7786C245.077 38.8069 225.469 71.0857 199.076 83.506C183.917 90.6395 167.435 92.5629 151.731 98.4021C134.717 104.729 117.974 110.401 102.269 119.503C81.2171 131.705 49.6456 137.641 43.448 161.163C37.3371 184.356 70.9624 201.371 74.4464 225.1C78.3466 251.664 54.9785 278.867 64.42 304.002C73.6007 328.443 97.432 359.596 123.044 354.476C158.964 347.296 166.604 294.031 199.076 277.086C213.314 269.656 228.646 288.861 244.556 291.065C270.199 294.618 304.838 314.066 321.19 294.005C337.437 274.073 293.769 244.471 302.305 220.218C312.542 191.131 362.59 188.019 369.1 157.879C374.54 132.696 346.148 112.388 329.922 92.3699C313.779 72.4541 299.768 42.5118 274.183 40.7786Z" stroke="#6260FF" stroke-width="1.28384"/>
<path d="M275.406 37.9479C245.775 35.9407 225.814 68.8011 198.944 81.4452C183.512 88.7072 166.733 90.6652 150.747 96.6097C133.425 103.05 116.381 108.824 100.393 118.091C78.9612 130.512 46.8206 136.556 40.5112 160.502C34.2902 184.112 68.5217 201.434 72.0685 225.591C76.039 252.633 52.2497 280.326 61.8614 305.914C71.2075 330.796 95.4685 362.51 121.542 357.298C158.109 349.989 165.887 295.764 198.944 278.513C213.44 270.949 229.048 290.5 245.245 292.744C271.35 296.361 306.613 316.159 323.26 295.737C339.8 275.446 295.345 245.311 304.035 220.621C314.457 191.01 365.406 187.841 372.034 157.158C377.572 131.521 348.668 110.847 332.149 90.4688C315.715 70.1942 301.452 39.7123 275.406 37.9479Z" stroke="#6260FF" stroke-width="1.28384"/>
<path d="M276.631 35.1175C246.476 33.0748 226.161 66.5168 198.816 79.3847C183.11 86.7753 166.034 88.768 149.765 94.8176C132.136 101.372 114.79 107.249 98.5189 116.679C76.7078 129.32 43.998 135.471 37.577 159.84C31.2458 183.869 66.0834 201.497 69.693 226.082C73.7339 253.603 49.5232 281.786 59.3052 307.827C68.8168 333.148 93.5074 365.424 120.042 360.12C157.257 352.681 165.173 297.497 198.816 279.941C213.567 272.243 229.452 292.14 245.936 294.424C272.503 298.105 308.391 318.253 325.333 297.47C342.165 276.82 296.923 246.151 305.767 221.024C316.373 190.888 368.225 187.664 374.97 156.438C380.606 130.347 351.19 109.307 334.379 88.568C317.654 67.9346 303.138 36.9132 276.631 35.1175Z" stroke="#6260FF" stroke-width="1.28384"/>
<path d="M277.856 32.2873C247.176 30.209 226.508 64.2327 198.687 77.3244C182.708 84.8435 165.335 86.8708 148.782 93.0257C130.848 99.6945 113.199 105.673 96.6451 115.267C74.4545 128.129 41.1756 134.386 34.6428 159.179C28.2015 183.626 63.6452 201.56 67.3177 226.573C71.4288 254.573 46.7969 283.246 56.7491 309.74C66.4262 335.502 91.5464 368.338 118.543 362.942C156.406 355.374 164.459 299.23 198.687 281.369C213.695 273.537 229.857 293.78 246.627 296.103C273.657 299.848 310.169 320.347 327.405 299.202C344.531 278.193 298.502 246.991 307.499 221.427C318.29 190.767 371.044 187.487 377.907 155.717C383.641 129.173 353.713 107.767 336.61 86.6674C319.593 65.6751 304.825 34.1142 277.856 32.2873Z" stroke="#6260FF" stroke-width="1.28384"/>
<path d="M279.081 29.4565C247.877 27.3427 226.855 61.9479 198.558 75.2634C182.306 82.9111 164.636 84.9731 147.8 91.2332C129.559 98.016 111.608 104.096 94.7712 113.855C72.2011 126.936 38.353 133.3 31.7085 158.518C25.157 183.382 61.2069 201.623 64.9422 227.063C69.1237 255.542 44.0705 284.705 54.1928 311.652C64.0355 337.854 89.5853 371.252 117.044 365.764C155.554 358.066 163.745 300.963 198.558 282.796C213.823 274.83 230.261 295.419 247.318 297.782C274.81 301.591 311.947 322.441 329.478 300.934C346.897 279.566 300.08 247.83 309.231 221.829C320.207 190.646 373.863 187.309 380.843 154.997C386.675 127.998 356.235 106.227 338.84 84.7662C321.532 63.415 306.511 31.3146 279.081 29.4565Z" stroke="#6260FF" stroke-width="1.28384"/>
<path d="M280.306 26.6264C248.577 24.477 227.201 59.6639 198.429 73.2032C181.904 80.9794 163.936 83.076 146.817 89.4413C128.269 96.3382 110.017 102.521 92.8967 112.443C69.947 125.744 35.5298 132.216 28.7736 157.857C22.112 183.139 58.768 201.687 62.5661 227.554C66.8179 256.511 41.3435 286.165 51.636 313.565C61.6441 340.207 87.6235 374.167 115.544 368.586C154.701 360.759 163.03 302.696 198.429 284.224C213.951 276.124 230.665 297.059 248.009 299.462C275.963 303.335 313.724 324.535 331.55 302.667C349.261 280.939 301.657 248.67 310.963 222.232C322.123 190.525 376.681 187.132 383.778 154.277C389.709 126.825 358.757 104.687 341.069 82.8657C323.471 61.1556 308.197 28.5157 280.306 26.6264Z" stroke="#6260FF" stroke-width="1.28384"/>
<path d="M281.529 23.796C249.276 21.6112 227.547 57.3796 198.298 71.1428C181.5 79.0475 163.235 81.1788 145.833 87.6493C126.978 94.6601 108.424 100.945 91.0211 111.031C67.6919 124.552 32.7055 131.131 25.8376 157.196C19.0658 182.896 56.3281 201.75 60.1889 228.045C64.511 257.481 38.6153 287.624 49.0781 315.477C59.2517 342.56 85.6607 377.081 114.043 371.408C153.848 363.452 162.314 304.429 198.298 285.651C214.077 277.417 231.067 298.699 248.698 301.141C277.114 305.078 315.5 326.629 333.621 304.4C351.625 282.313 303.234 249.51 312.693 222.635C324.038 190.403 379.498 186.954 386.713 153.556C392.741 125.65 361.278 103.147 343.297 80.9649C325.408 58.896 309.882 25.7166 281.529 23.796Z" stroke="#6260FF" stroke-width="1.28384"/>
<path d="M282.754 20.9653C249.976 18.7449 227.894 55.095 198.17 69.0819C181.098 77.1152 162.536 79.2811 144.851 85.8569C125.689 92.9817 106.833 99.3688 89.1471 109.619C65.4385 123.36 29.883 130.045 22.9033 156.534C16.0214 182.652 53.8898 201.813 57.8135 228.536C62.2058 258.45 35.8889 289.084 46.5218 317.389C56.861 344.913 83.6996 379.995 112.543 374.23C152.996 366.144 161.6 306.161 198.17 287.078C214.205 278.711 231.472 300.338 249.389 302.821C278.268 306.822 317.278 328.723 335.693 306.132C353.991 283.686 304.812 250.35 314.425 223.038C325.954 190.282 382.317 186.777 389.649 152.835C395.776 124.476 363.8 101.607 345.527 79.0638C327.347 56.6361 311.568 22.9171 282.754 20.9653Z" stroke="#6260FF" stroke-width="1.28384"/>
<path d="M283.98 18.1351C250.677 15.8792 228.241 52.8109 198.041 67.0216C180.696 75.1834 161.837 77.384 143.869 84.0649C124.4 91.3038 105.243 97.7931 87.2733 108.208C63.1852 122.168 27.0605 128.96 19.9692 155.873C12.977 182.409 51.4516 201.877 55.4381 229.027C59.9008 259.42 33.1626 290.544 43.9657 319.302C54.4704 347.266 81.7386 382.91 111.044 377.052C152.144 368.837 160.886 307.894 198.041 288.506C214.333 280.005 231.876 301.978 250.08 304.5C279.421 308.565 319.056 330.817 337.766 307.864C356.356 285.059 306.391 251.19 316.158 223.441C327.871 190.161 385.136 186.6 392.586 152.115C398.81 123.302 366.323 100.067 347.757 77.1632C329.286 54.3766 313.255 20.1181 283.98 18.1351Z" stroke="#6260FF" stroke-width="1.28384"/>
<path d="M285.204 15.3042C251.376 13.0128 228.587 50.5261 197.911 64.9607C180.293 73.251 161.137 75.4863 142.886 82.2724C123.111 89.6252 103.651 96.2167 85.3988 106.795C60.9312 120.976 24.2374 127.875 17.0343 155.211C9.93197 182.165 49.0127 201.939 53.062 229.517C57.595 260.389 30.4356 292.003 41.4089 321.214C52.079 349.619 79.7769 385.823 109.544 379.874C151.292 371.529 160.171 309.627 197.911 289.933C214.46 281.298 232.28 303.617 250.771 306.179C280.574 310.308 320.833 332.91 339.838 309.596C358.721 286.432 307.968 252.029 317.889 223.843C329.787 190.039 387.954 186.422 395.521 151.394C401.844 122.127 368.845 98.5262 349.987 75.262C331.224 52.1165 314.94 17.3185 285.204 15.3042Z" stroke="#6260FF" stroke-width="1.28384"/>
<path d="M286.429 12.4735C252.077 10.1466 228.934 48.2415 197.783 62.8998C179.891 71.3187 160.438 73.5886 141.904 80.48C121.822 87.9468 102.061 94.6405 83.5249 105.383C58.6777 119.783 21.4148 126.789 14.1 154.55C6.88753 181.922 46.5744 202.002 50.6865 230.008C55.2898 261.358 27.7092 293.462 38.8527 323.126C49.6883 351.971 77.8157 388.737 108.044 382.695C150.44 374.222 159.457 311.359 197.783 291.36C214.588 282.591 232.684 305.257 251.462 307.858C281.727 312.051 322.611 335.004 341.91 311.328C361.086 287.805 309.546 252.869 319.621 224.246C331.704 189.918 390.773 186.244 398.457 150.674C404.878 120.953 371.367 96.9858 352.217 73.3609C333.163 49.8565 316.627 14.519 286.429 12.4735Z" stroke="#6260FF" stroke-width="1.28384"/>
<path d="M287.655 9.64329C252.778 7.2808 229.281 45.9574 197.654 60.8395C179.489 69.3869 159.739 71.6915 140.922 78.6881C120.533 86.2689 100.47 93.0648 81.6511 103.971C56.4244 118.592 18.5924 125.704 11.1658 153.889C3.8432 181.679 44.1363 202.066 48.3112 230.499C52.9848 262.328 24.9828 294.922 36.2966 325.039C47.2977 354.324 75.8548 391.652 106.545 385.518C149.588 376.915 158.743 313.092 197.654 292.788C214.716 283.885 233.088 306.897 252.153 309.538C282.881 313.795 324.389 337.098 343.983 313.061C363.452 289.178 311.125 253.709 321.353 224.649C333.621 189.797 393.592 186.067 401.394 149.953C407.912 119.779 373.89 95.4459 354.447 71.4602C335.102 47.5971 318.313 11.72 287.655 9.64329Z" stroke="#6260FF" stroke-width="1.28384"/>
<path d="M288.877 6.81294C253.476 4.41492 229.626 43.6731 197.523 58.779C179.085 67.455 159.037 69.7942 139.937 76.896C119.242 84.5908 98.8766 91.4889 79.7747 102.559C54.1686 117.4 15.7674 124.619 8.22909 153.228C0.796316 181.435 41.6955 202.129 45.9333 230.989C50.6772 263.297 22.254 296.382 33.7379 326.952C44.9046 356.677 73.8912 394.566 105.043 388.34C148.734 379.607 158.026 314.825 197.523 294.216C214.841 285.179 233.49 308.536 252.842 311.217C284.032 315.538 326.164 339.192 346.053 314.793C365.815 290.552 312.701 254.549 323.083 225.052C335.535 189.675 396.409 185.89 404.328 149.233C410.944 118.605 376.41 93.9058 356.674 69.5595C337.039 45.3375 319.997 8.9209 288.877 6.81294Z" stroke="#6260FF" stroke-width="1.28384"/>
<path d="M290.103 3.98222C254.176 1.54868 229.973 41.3885 197.394 56.7182C178.683 65.5227 158.338 67.8966 138.955 75.1036C117.953 82.9124 97.2858 89.9127 77.9008 101.147C51.9152 116.207 12.9448 123.534 5.2948 152.566C-2.24813 181.192 39.2573 202.192 43.5578 231.48C48.372 264.266 19.5276 297.841 31.1817 328.864C42.5138 359.03 71.9301 397.48 103.544 391.161C147.882 382.3 157.312 316.558 197.394 295.643C214.969 286.472 233.894 310.176 253.533 312.897C285.185 317.282 327.942 341.285 348.126 316.525C368.18 291.924 314.279 255.388 324.815 225.454C337.452 189.554 399.227 185.712 407.264 148.512C413.979 117.43 378.932 92.3654 358.904 67.6584C338.978 43.0775 321.684 6.12141 290.103 3.98222Z" stroke="#6260FF" stroke-width="1.28384"/>
</svg>
