<svg width="516" height="544" viewBox="0 0 516 544" fill="none" xmlns="http://www.w3.org/2000/svg">
<path fill-rule="evenodd" clip-rule="evenodd" d="M254.308 217.077C263.548 222.684 260.484 237.826 266.826 246.569C269.561 250.339 275.021 250.947 279.581 251.92C290.182 254.182 309.4 245.474 311.472 256.095C313.699 267.505 288.827 266.974 284.634 277.818C281.845 285.032 297.796 290.916 295.193 298.2C292.87 304.701 282.325 303.528 275.411 303.631C269.78 303.714 263.945 295.359 259.438 298.73C250.392 305.494 254.227 326.904 242.968 327.892C233.511 328.722 242.992 306.305 235.224 300.856C227.269 295.275 211.889 310.259 206.406 302.243C201.182 294.605 214.411 285.805 219.77 278.26C222.892 273.865 228.123 271.524 231.313 267.178C233.41 264.322 235.002 260.915 235.103 257.375C235.409 246.681 227.895 235.399 232.498 225.738C235.897 218.608 247.548 212.975 254.308 217.077Z" stroke="#6260FF" stroke-width="1.28384"/>
<path fill-rule="evenodd" clip-rule="evenodd" d="M238.601 7.90152C283.216 34.9418 268.42 107.959 299.041 150.122C312.244 168.303 338.61 171.232 360.625 175.923C411.806 186.83 504.594 144.84 514.6 196.057C525.348 251.077 405.266 248.517 385.023 300.81C371.555 335.6 448.567 363.972 436.001 399.095C424.785 430.445 373.87 424.792 340.49 425.286C313.303 425.689 285.132 385.399 263.371 401.652C219.697 434.272 238.21 537.513 183.85 542.279C138.19 546.283 183.967 438.179 146.465 411.902C108.056 384.99 33.7983 457.25 7.32745 418.594C-17.8963 381.759 45.9752 339.324 71.85 302.941C86.9228 281.746 112.178 270.458 127.582 249.502C137.707 235.728 145.391 219.299 145.879 202.229C147.356 150.662 111.076 96.2562 133.304 49.6712C149.711 15.2853 205.966 -11.8784 238.601 7.90152Z" stroke="#6260FF" stroke-width="1.28384"/>
<path d="M267.458 244.679C260.64 235.28 263.934 219.003 254 212.976C246.733 208.566 234.207 214.622 230.554 222.287C225.604 232.671 233.683 244.799 233.354 256.294C233.245 260.099 231.534 263.762 229.28 266.832C225.85 271.503 220.226 274.02 216.87 278.744C211.109 286.855 196.887 296.314 202.503 304.525C208.397 313.142 224.932 297.034 233.484 303.033C241.835 308.891 231.642 332.989 241.809 332.096C253.913 331.034 249.791 308.02 259.515 300.749C264.361 297.125 270.633 306.107 276.687 306.017C284.12 305.907 295.457 307.167 297.954 300.179C300.752 292.349 283.604 286.024 286.603 278.269C291.111 266.612 317.849 267.183 315.456 254.918C313.228 243.501 292.567 252.861 281.171 250.43C276.269 249.384 270.398 248.731 267.458 244.679Z" stroke="#6260FF" stroke-width="1.28384"/>
<path d="M268.09 242.788C260.796 232.734 264.32 215.322 253.692 208.874C245.918 204.157 232.517 210.635 228.609 218.834C223.314 229.943 231.956 242.916 231.605 255.213C231.488 259.283 229.658 263.201 227.246 266.485C223.577 271.483 217.56 274.174 213.97 279.228C207.806 287.904 192.591 298.023 198.6 306.807C204.906 316.024 222.595 298.793 231.744 305.211C240.678 311.477 229.773 337.255 240.65 336.3C253.599 335.164 249.189 310.545 259.593 302.767C264.777 298.891 271.487 308.498 277.964 308.402C285.915 308.284 298.044 309.632 300.715 302.157C303.709 293.782 285.364 287.016 288.572 278.72C293.394 266.25 321.999 266.861 319.439 253.741C317.055 241.528 294.952 251.541 282.76 248.94C277.516 247.821 271.235 247.123 268.09 242.788Z" stroke="#6260FF" stroke-width="1.28384"/>
<path d="M268.721 240.897C260.951 230.188 264.705 211.641 253.384 204.773C245.103 199.749 230.827 206.649 226.664 215.383C221.023 227.215 230.23 241.034 229.855 254.132C229.731 258.468 227.781 262.641 225.212 266.139C221.303 271.462 214.894 274.329 211.069 279.713C204.503 288.954 188.295 299.732 194.696 309.088C201.413 318.907 220.257 300.553 230.004 307.389C239.52 314.063 227.904 341.521 239.491 340.504C253.285 339.294 248.587 313.071 259.67 304.785C265.192 300.657 272.34 310.89 279.239 310.788C287.71 310.663 300.63 312.099 303.476 304.136C306.665 295.215 287.123 288.008 290.54 279.172C295.677 265.889 326.149 266.539 323.421 252.564C320.882 239.555 297.336 250.221 284.349 247.45C278.762 246.259 272.072 245.515 268.721 240.897Z" stroke="#6260FF" stroke-width="1.28384"/>
<path d="M269.353 239.006C261.107 227.641 265.091 207.96 253.076 200.672C244.287 195.34 229.138 202.662 224.719 211.93C218.733 224.487 228.504 239.151 228.106 253.051C227.974 257.652 225.905 262.08 223.178 265.793C219.03 271.441 212.228 274.484 208.169 280.197C201.201 290.003 184 301.441 190.793 311.37C197.922 321.789 217.92 302.312 228.264 309.566C238.363 316.649 226.035 345.787 238.332 344.708C252.971 343.423 247.985 315.596 259.747 306.803C265.608 302.422 273.194 313.282 280.516 313.174C289.505 313.04 303.217 314.564 306.237 306.114C309.621 296.647 288.882 288.999 292.509 279.622C297.96 265.527 330.299 266.217 327.405 251.387C324.71 237.582 299.721 248.9 285.938 245.96C280.009 244.696 272.909 243.906 269.353 239.006Z" stroke="#6260FF" stroke-width="1.28384"/>
<path d="M269.984 237.115C261.262 225.095 265.476 204.279 252.768 196.57C243.471 190.931 227.447 198.675 222.774 208.478C216.442 221.758 226.776 237.269 226.356 251.969C226.216 256.836 224.028 261.519 221.144 265.446C216.756 271.42 209.562 274.638 205.268 280.68C197.898 291.052 179.704 303.15 186.889 313.651C194.429 324.671 215.581 304.071 226.523 311.743C237.205 319.234 224.165 350.053 237.172 348.911C252.656 347.553 247.383 318.121 259.824 308.821C266.022 304.188 274.047 315.674 281.791 315.559C291.3 315.418 305.803 317.029 308.998 308.092C312.577 298.079 290.64 289.991 294.476 280.073C300.243 265.165 334.448 265.895 331.387 250.21C328.537 235.609 302.106 247.579 287.527 244.47C281.256 243.133 273.745 242.297 269.984 237.115Z" stroke="#6260FF" stroke-width="1.28384"/>
<path d="M270.616 235.224C261.418 222.549 265.862 200.598 252.46 192.469C242.656 186.523 225.757 194.689 220.829 205.026C214.152 219.031 225.05 235.386 224.606 250.888C224.46 256.02 222.151 260.959 219.11 265.1C214.483 271.4 206.896 274.793 202.368 281.165C194.595 292.102 175.408 304.86 182.986 315.933C190.937 327.554 213.244 305.831 224.782 313.921C236.048 321.82 222.297 354.319 236.013 353.116C252.343 351.683 246.781 320.646 259.901 310.84C266.438 305.954 274.9 318.066 283.067 317.945C293.095 317.796 308.39 319.496 311.759 310.071C315.534 299.512 292.4 290.983 296.445 280.524C302.526 264.804 338.599 265.573 335.37 249.033C332.364 233.636 304.491 246.259 289.116 242.98C282.503 241.57 274.582 240.689 270.616 235.224Z" stroke="#6260FF" stroke-width="1.28384"/>
<path d="M271.248 233.333C261.574 220.002 266.248 196.917 252.152 188.368C241.841 182.114 224.068 190.702 218.884 201.574C211.861 216.302 223.324 233.504 222.857 249.807C222.703 255.204 220.275 260.398 217.076 264.753C212.209 271.379 204.23 274.948 199.468 281.649C191.293 293.152 171.113 306.568 179.082 318.214C187.446 330.436 210.907 307.59 223.042 316.099C234.891 324.406 220.428 358.585 234.854 357.319C252.029 355.812 246.18 323.171 259.978 312.858C266.854 307.719 275.754 320.457 284.344 320.33C294.89 320.174 310.977 321.961 314.52 312.049C318.49 300.945 294.159 291.974 298.414 280.975C304.81 264.442 342.749 265.251 339.353 247.856C336.192 231.663 306.876 244.938 290.706 241.49C283.75 240.007 275.42 239.081 271.248 233.333Z" stroke="#6260FF" stroke-width="1.28384"/>
<path d="M271.88 231.442C261.729 217.456 266.634 193.236 251.844 184.267C241.026 177.706 222.378 186.716 216.939 198.122C209.571 213.575 221.597 231.621 221.108 248.726C220.946 254.389 218.398 259.838 215.042 264.407C209.936 271.358 201.564 275.103 196.567 282.133C187.99 294.202 166.817 308.278 175.179 320.496C183.954 333.319 208.569 309.349 221.302 318.276C233.733 326.993 218.559 362.851 233.695 361.523C251.715 359.943 245.578 325.697 260.055 314.876C267.269 309.485 276.607 322.85 285.62 322.716C296.685 322.552 313.563 324.427 317.281 314.028C321.446 302.378 295.918 292.966 300.382 281.427C307.093 264.08 346.899 264.929 343.336 246.679C340.019 229.69 309.26 243.618 292.294 240.001C284.996 238.444 276.256 237.473 271.88 231.442Z" stroke="#6260FF" stroke-width="1.28384"/>
<path d="M272.509 229.548C261.882 214.907 267.017 189.552 251.534 180.162C240.208 173.293 220.686 182.726 214.992 194.666C207.278 210.843 219.868 229.735 219.356 247.642C219.186 253.569 216.52 259.274 213.006 264.057C207.66 271.334 198.896 275.254 193.665 282.614C184.685 295.248 162.519 309.984 171.273 322.774C180.459 336.198 206.23 311.105 219.559 320.451C232.574 329.575 216.688 367.114 232.533 365.724C251.398 364.069 244.974 328.219 260.13 316.891C267.682 311.247 277.458 325.238 286.894 325.098C298.478 324.927 316.147 326.89 320.04 316.003C324.4 303.807 297.675 293.955 302.348 281.874C309.374 263.715 351.047 264.604 347.317 245.499C343.844 227.714 311.643 242.295 293.881 238.507C286.241 236.878 277.091 235.861 272.509 229.548Z" stroke="#6260FF" stroke-width="1.28384"/>
<path d="M273.141 227.657C262.038 212.36 267.403 185.871 251.226 176.061C239.393 168.885 218.996 178.739 213.047 191.214C204.988 208.115 218.142 227.853 217.607 246.561C217.43 252.753 214.643 258.714 210.972 263.711C205.387 271.314 196.23 275.409 190.765 283.098C181.383 296.297 158.224 311.693 167.37 325.056C176.968 339.08 203.892 312.864 217.819 322.628C231.417 332.161 214.819 371.38 231.375 369.928C251.085 368.199 244.372 330.744 260.208 318.909C268.098 313.013 278.312 327.63 288.17 327.484C300.273 327.304 318.734 329.355 322.801 317.982C327.357 305.24 299.434 294.946 304.317 282.325C311.657 263.353 355.197 264.282 351.3 244.322C347.672 225.74 314.028 240.974 295.471 237.017C287.488 235.315 277.928 234.252 273.141 227.657Z" stroke="#6260FF" stroke-width="1.28384"/>
<path d="M273.773 225.766C262.194 209.814 267.789 182.189 250.919 171.959C238.578 164.476 217.306 174.753 211.102 187.762C202.697 205.387 216.416 225.97 215.858 245.479C215.673 251.937 212.767 258.153 208.939 263.364C203.114 271.293 193.564 275.563 187.865 283.582C178.08 297.347 153.929 313.401 163.466 327.337C173.476 341.962 201.555 314.624 216.079 324.806C230.26 334.747 212.95 375.646 230.216 374.131C250.771 372.328 243.771 333.269 260.285 320.928C268.514 314.778 279.166 330.021 289.446 329.869C302.068 329.682 321.321 331.821 325.562 319.96C330.314 306.672 301.193 295.938 306.286 282.776C313.94 262.992 359.347 263.96 355.283 243.144C351.499 223.767 316.413 239.653 297.06 235.527C288.735 233.752 278.766 232.644 273.773 225.766Z" stroke="#6260FF" stroke-width="1.28384"/>
<path d="M274.405 223.875C262.35 207.268 268.175 178.509 250.611 167.858C237.763 160.067 215.617 170.766 209.158 184.31C200.407 202.659 214.69 224.088 214.108 244.399C213.916 251.122 210.891 257.593 206.905 263.018C200.841 271.272 190.898 275.718 184.964 284.066C174.778 298.397 149.633 315.111 159.563 329.619C169.984 344.845 199.218 316.383 214.339 326.983C229.103 337.333 211.081 379.912 229.057 378.336C250.457 376.458 243.169 335.794 260.362 322.946C268.929 316.544 280.019 332.414 290.723 332.255C303.864 332.06 323.908 334.287 328.323 321.939C333.27 308.105 302.952 296.93 308.254 283.227C316.224 262.63 363.497 263.638 359.266 241.968C355.327 221.794 318.798 238.333 298.65 234.038C289.982 232.19 279.603 231.036 274.405 223.875Z" stroke="#6260FF" stroke-width="1.28384"/>
<path d="M275.037 221.984C262.506 204.722 268.561 174.827 250.303 163.757C236.948 155.658 213.927 166.78 207.213 180.858C198.117 199.93 212.963 222.205 212.359 243.317C212.159 250.306 209.015 257.032 204.871 262.672C198.568 271.251 188.233 275.873 182.064 284.55C171.476 299.446 145.338 316.82 155.66 331.901C166.493 347.727 196.881 318.142 212.599 329.161C227.946 339.919 209.213 384.178 227.898 382.539C250.143 380.588 242.567 338.319 260.44 324.964C269.345 318.31 280.873 334.805 291.999 334.64C305.659 334.438 326.495 336.752 331.085 323.917C336.227 309.538 304.712 297.921 310.223 283.678C318.507 262.268 367.648 263.316 363.249 240.79C359.155 219.821 321.183 237.013 300.239 232.547C291.23 230.627 280.44 229.427 275.037 221.984Z" stroke="#6260FF" stroke-width="1.28384"/>
<path d="M275.669 220.093C262.662 202.176 268.947 171.147 249.996 159.656C236.133 151.25 212.237 162.794 205.268 177.406C195.827 197.203 211.237 220.323 210.61 242.237C210.402 249.491 207.138 256.472 202.838 262.326C196.294 271.231 185.567 276.028 179.164 285.035C168.173 300.496 141.042 318.529 151.757 334.182C163.001 350.609 194.543 319.902 210.859 331.339C226.789 342.505 207.344 388.445 226.739 386.743C249.83 384.718 241.966 340.845 260.517 326.983C269.761 320.076 281.727 337.197 293.275 337.026C307.454 336.816 329.082 339.219 333.846 325.896C339.183 310.971 306.471 298.913 312.192 284.129C320.791 261.907 371.798 262.995 367.232 239.614C362.982 217.849 323.568 235.693 301.828 231.058C292.477 229.064 281.277 227.819 275.669 220.093Z" stroke="#6260FF" stroke-width="1.28384"/>
<path d="M276.301 218.202C262.818 199.629 269.333 167.465 249.688 155.554C235.318 146.841 210.548 158.807 203.324 173.954C193.536 194.474 209.511 218.44 208.861 241.155C208.646 248.675 205.262 255.912 200.804 261.979C194.021 271.21 182.901 276.183 176.264 285.519C164.871 301.545 136.747 320.238 147.854 336.464C159.509 353.492 192.206 321.661 209.119 333.516C225.631 345.091 205.475 392.711 225.58 390.947C249.516 388.848 241.364 343.37 260.595 329.001C270.177 321.841 282.581 339.589 294.552 339.412C309.25 339.194 331.668 341.684 336.607 327.875C342.14 312.403 308.23 299.905 314.16 284.58C323.074 261.545 375.948 262.673 371.216 238.437C366.81 215.875 325.953 234.372 303.418 229.568C293.724 227.501 282.114 226.211 276.301 218.202Z" stroke="#6260FF" stroke-width="1.28384"/>
<path d="M276.933 216.311C262.974 197.083 269.719 163.784 249.38 151.453C234.503 142.432 208.858 154.82 201.379 170.501C191.246 191.746 207.785 216.557 207.112 240.074C206.889 247.859 203.386 255.351 198.77 261.632C191.748 271.189 180.235 276.337 173.364 286.003C161.569 302.595 132.452 321.947 143.95 338.745C156.018 356.374 189.869 323.42 207.379 335.694C224.474 347.677 203.606 396.976 224.421 395.151C249.202 392.977 240.763 345.895 260.672 331.019C270.592 323.607 283.434 341.981 295.828 341.797C311.045 341.572 334.255 344.15 339.368 329.853C345.096 313.836 309.99 300.896 316.129 285.031C325.357 261.183 380.099 262.35 375.199 237.259C370.638 213.902 328.338 233.051 305.007 228.078C294.971 225.938 282.952 224.602 276.933 216.311Z" stroke="#6260FF" stroke-width="1.28384"/>
<path d="M277.565 214.421C263.13 194.537 270.104 160.104 249.073 147.352C233.688 138.024 207.169 150.834 199.434 167.05C188.956 189.018 206.058 214.675 205.362 238.993C205.132 247.043 201.51 254.791 196.737 261.286C189.475 271.169 177.569 276.492 170.464 286.487C158.266 303.645 128.156 323.657 140.047 341.027C152.526 359.257 187.532 325.18 205.639 337.871C223.317 350.263 201.738 401.243 223.262 399.355C248.888 397.107 240.161 348.421 260.749 333.038C271.008 325.373 284.288 344.373 297.104 344.183C312.84 343.95 336.842 346.616 342.129 331.832C348.053 315.268 311.749 301.888 318.098 285.482C327.641 260.822 384.249 262.029 379.182 236.083C374.465 211.929 330.723 231.731 306.596 226.588C296.218 224.376 283.789 222.994 277.565 214.421Z" stroke="#6260FF" stroke-width="1.28384"/>
<path d="M278.197 212.529C263.286 191.991 270.49 156.422 248.765 143.25C232.873 133.615 205.479 146.847 197.489 163.597C186.665 186.29 204.332 212.792 203.613 237.912C203.375 246.227 199.633 254.23 194.703 260.94C187.202 271.148 174.904 276.647 167.564 286.971C154.964 304.694 123.861 325.365 136.144 343.308C149.034 362.138 185.195 326.939 203.898 340.049C222.16 352.848 199.869 405.509 222.104 403.558C248.575 401.237 239.559 350.945 260.827 335.056C271.424 327.138 285.142 346.764 298.381 346.568C314.636 346.327 339.429 349.081 344.891 333.81C351.01 316.701 313.508 302.88 320.066 285.933C329.924 260.46 388.399 261.707 383.165 234.905C378.293 209.956 333.109 230.41 308.186 225.098C297.465 222.812 284.626 221.385 278.197 212.529Z" stroke="#6260FF" stroke-width="1.28384"/>
<path d="M278.827 210.639C263.44 189.445 270.875 152.741 248.456 139.149C232.056 129.206 203.788 142.861 195.543 160.145C184.374 183.562 202.605 210.91 201.863 236.831C201.617 245.411 197.756 253.67 192.668 260.593C184.927 271.127 172.236 276.802 164.662 287.455C151.66 305.744 119.564 327.075 132.239 345.59C145.541 365.021 182.856 328.698 202.157 342.226C221.002 355.435 197.999 409.775 220.943 407.763C248.259 405.367 238.956 353.471 260.903 337.074C271.838 328.904 285.994 349.156 299.656 348.954C316.429 348.705 342.014 351.547 347.65 335.789C353.965 318.134 315.266 303.872 322.034 286.384C332.206 260.098 392.548 261.385 387.147 233.728C382.119 207.983 335.492 229.09 309.774 223.608C298.711 221.25 285.462 219.777 278.827 210.639Z" stroke="#6260FF" stroke-width="1.28384"/>
<path d="M279.459 208.748C263.596 186.898 271.261 149.06 248.148 135.048C231.241 124.798 202.098 138.874 193.599 156.693C182.083 180.834 200.878 209.027 200.113 235.75C199.86 244.595 195.879 253.109 190.634 260.247C182.654 271.106 169.571 276.956 161.762 287.939C148.358 306.793 115.269 328.784 128.336 347.872C142.049 367.903 180.519 330.458 200.417 344.404C219.845 358.021 196.13 414.041 219.784 411.966C247.946 409.496 238.355 355.996 260.98 339.092C272.254 330.67 286.847 351.548 300.932 351.339C318.225 351.083 344.601 354.013 350.412 337.767C356.921 319.566 317.026 304.863 324.002 286.835C334.49 259.736 396.698 261.063 391.13 232.551C385.947 206.01 337.877 227.77 311.363 222.118C299.958 219.687 286.299 218.169 279.459 208.748Z" stroke="#6260FF" stroke-width="1.28384"/>
<path d="M280.091 206.856C263.752 184.352 271.647 145.379 247.84 130.946C230.426 120.389 200.409 134.887 191.654 153.241C179.793 178.105 199.152 207.145 198.364 234.668C198.103 243.779 194.003 252.548 188.601 259.9C180.381 271.086 166.905 277.111 158.862 288.423C145.055 307.842 110.973 330.493 124.433 350.153C138.558 370.785 178.181 332.217 198.677 346.581C218.688 360.606 194.261 418.307 218.625 416.17C247.632 413.626 237.753 358.521 261.058 341.11C272.67 332.435 287.701 353.94 302.208 353.725C320.02 353.461 347.188 356.478 353.173 339.746C359.878 320.999 318.785 305.855 325.971 287.286C336.773 259.374 400.849 260.741 395.113 231.374C389.774 204.037 340.262 226.449 312.953 220.628C301.205 218.124 287.136 216.56 280.091 206.856Z" stroke="#6260FF" stroke-width="1.28384"/>
<path d="M280.723 204.966C263.908 181.806 272.033 141.698 247.533 126.845C229.611 115.98 198.719 130.901 189.709 149.789C177.503 175.378 197.426 205.262 196.615 233.588C196.347 242.964 192.127 251.988 186.567 259.554C178.108 271.065 164.239 277.266 155.962 288.908C141.753 308.892 106.678 332.202 120.53 352.435C135.066 373.668 175.844 333.976 196.937 348.759C217.531 363.193 192.393 422.573 217.467 420.374C247.318 417.756 237.152 361.047 261.135 343.129C273.085 334.201 288.555 356.332 303.485 356.111C321.815 355.839 349.775 358.944 355.934 341.724C362.835 322.432 320.544 306.847 327.94 287.737C339.056 259.013 404.999 260.419 399.096 230.197C393.602 202.064 342.647 225.129 314.542 219.138C302.452 216.561 287.974 214.952 280.723 204.966Z" stroke="#6260FF" stroke-width="1.28384"/>
<path d="M281.355 203.075C264.064 179.26 272.419 138.017 247.225 122.744C228.796 111.571 197.029 126.914 187.764 146.337C175.213 172.649 195.7 203.38 194.866 232.506C194.59 242.148 190.251 251.428 184.533 259.208C175.835 271.044 161.573 277.42 153.062 289.392C138.45 309.942 102.383 333.911 116.626 354.716C131.574 376.55 173.507 335.735 195.197 350.937C216.373 365.778 190.524 426.839 216.308 424.578C247.004 421.886 236.55 363.572 261.212 345.147C273.501 335.967 289.408 358.724 304.761 358.496C323.611 358.217 352.362 361.41 358.695 343.703C365.791 323.864 322.303 307.838 329.908 288.188C341.34 258.651 409.149 260.097 403.08 229.02C397.429 200.091 345.032 223.808 316.131 217.648C303.699 214.998 288.811 213.344 281.355 203.075Z" stroke="#6260FF" stroke-width="1.28384"/>
<path d="M281.987 201.184C264.22 176.714 272.804 134.336 246.917 118.643C227.981 107.163 195.34 122.928 185.82 142.885C172.922 169.922 193.973 201.497 193.117 231.425C192.833 241.332 188.374 250.867 182.5 258.862C173.562 271.024 158.908 277.575 150.162 289.876C135.148 310.992 98.0873 335.62 112.723 356.998C128.083 379.433 171.17 337.495 193.456 353.114C215.216 368.365 188.655 431.105 215.149 428.782C246.691 426.016 235.949 366.097 261.29 347.166C273.917 337.732 290.262 361.116 306.037 360.882C325.406 360.595 354.949 363.876 361.457 345.682C368.748 325.297 324.063 308.83 331.877 288.64C343.623 258.29 413.299 259.775 407.063 227.843C401.257 198.118 347.417 222.488 317.721 216.158C304.946 213.436 289.648 211.735 281.987 201.184Z" stroke="#6260FF" stroke-width="1.28384"/>
<path d="M282.616 199.293C264.373 174.167 273.187 130.655 246.607 114.541C227.163 102.754 193.647 118.942 183.872 139.433C170.629 167.193 192.244 199.615 191.364 230.344C191.073 240.516 186.495 250.307 180.463 258.515C171.285 271.003 156.239 277.73 147.259 290.36C131.843 312.041 93.789 337.329 108.817 359.28C124.588 382.315 168.829 339.254 191.713 355.292C214.056 370.95 186.783 435.371 213.987 432.986C246.374 430.145 235.344 368.622 261.364 349.184C274.329 339.498 291.113 363.507 307.311 363.267C327.198 362.973 357.533 366.342 364.215 347.66C371.701 326.73 325.819 309.822 333.843 289.09C345.904 257.928 417.447 259.453 411.043 226.666C405.082 196.145 349.8 221.168 319.307 214.668C306.191 211.873 290.482 210.127 282.616 199.293Z" stroke="#6260FF" stroke-width="1.28384"/>
<path d="M283.248 197.399C264.528 171.618 273.573 126.971 246.299 110.437C226.348 98.3422 191.957 114.952 181.927 135.977C168.339 164.462 190.518 197.729 189.615 229.26C189.316 239.697 184.619 249.743 178.429 258.165C169.012 270.979 153.573 277.881 144.359 290.841C128.54 313.087 89.4937 339.035 104.914 361.558C121.096 385.194 166.492 341.01 189.973 357.466C212.899 373.533 184.915 439.634 212.828 437.186C246.06 434.272 234.742 371.144 261.442 351.199C274.745 341.26 291.967 365.896 308.587 365.65C328.994 365.347 360.119 368.804 366.976 349.635C374.658 328.159 327.578 310.81 335.811 289.538C348.187 257.563 421.597 259.128 415.026 225.486C408.909 194.169 352.185 219.844 320.897 213.175C307.438 210.306 291.319 208.515 283.248 197.399Z" stroke="#6260FF" stroke-width="1.28384"/>
<path d="M283.88 195.507C264.684 169.071 273.959 123.289 245.991 106.335C225.533 93.9332 190.268 110.965 179.983 132.525C166.049 161.734 188.792 195.846 187.866 228.178C187.56 238.881 182.743 249.182 176.396 257.819C166.739 270.958 150.907 278.036 141.458 291.324C125.238 314.137 85.1983 340.744 101.011 363.839C117.605 388.076 164.155 342.769 188.233 359.643C211.742 376.119 183.046 443.9 211.669 441.39C245.746 438.401 234.141 373.669 261.519 353.217C275.161 343.026 292.82 368.287 309.863 368.035C330.789 367.725 362.706 371.27 369.737 351.613C377.614 329.591 329.338 311.802 337.78 289.989C350.47 257.201 425.747 258.806 419.009 224.309C412.737 192.195 354.57 218.523 322.486 211.685C308.685 208.743 292.157 206.907 283.88 195.507Z" stroke="#6260FF" stroke-width="1.28384"/>
<path d="M284.512 193.617C264.84 166.525 274.345 119.609 245.684 102.234C224.718 89.5248 188.578 106.979 178.038 129.073C163.758 159.006 187.065 193.964 186.117 227.098C185.803 238.066 180.866 248.622 174.362 257.472C164.466 270.938 148.242 278.191 138.558 291.809C121.936 315.187 80.9029 342.453 97.1074 366.121C114.113 390.959 161.818 344.529 186.493 361.821C210.585 378.705 181.177 448.166 210.51 445.594C245.433 442.531 233.539 376.195 261.597 355.235C275.577 344.792 293.674 370.68 311.14 370.421C332.584 370.103 365.293 373.736 372.499 353.592C380.571 331.024 331.097 312.794 339.749 290.44C352.754 256.839 429.898 258.484 422.992 223.132C416.565 190.223 356.955 217.203 324.075 210.195C309.932 207.181 292.994 205.298 284.512 193.617Z" stroke="#6260FF" stroke-width="1.28384"/>
<path d="M285.144 191.726C264.996 163.979 274.731 115.928 245.376 98.1328C223.903 85.116 186.889 102.992 176.093 125.621C161.468 156.277 185.339 192.081 184.368 226.016C184.046 237.25 178.99 248.061 172.328 257.126C162.193 270.917 145.576 278.345 135.658 292.293C118.633 316.236 76.6076 344.162 93.2041 368.402C110.621 393.841 159.481 346.288 184.753 363.999C209.428 381.291 179.308 452.432 209.352 449.798C245.119 446.661 232.938 378.72 261.674 357.253C275.992 346.557 294.528 373.071 312.416 372.806C334.379 372.481 367.88 376.201 375.26 355.571C383.528 332.457 332.856 313.785 341.718 290.891C355.037 256.477 434.048 258.162 426.976 221.955C420.392 188.249 359.34 215.882 325.665 208.705C311.179 205.618 293.831 203.69 285.144 191.726Z" stroke="#6260FF" stroke-width="1.28384"/>
<path d="M285.776 189.835C265.152 161.433 275.117 112.247 245.068 94.0318C223.088 80.7076 185.199 99.0057 174.149 122.169C159.178 153.55 183.613 190.199 182.618 224.935C182.289 236.434 177.114 247.501 170.295 256.78C159.92 270.896 142.91 278.5 132.758 292.777C115.331 317.286 72.3122 345.872 89.3009 370.684C107.13 396.724 157.143 348.048 183.013 366.177C208.271 383.877 177.44 456.699 208.193 454.002C244.805 450.791 232.336 381.245 261.751 359.272C276.408 348.323 295.381 375.463 313.693 375.192C336.175 374.859 370.467 378.667 378.021 357.549C386.484 333.89 334.616 314.777 343.686 291.342C357.321 256.116 438.198 257.84 430.959 220.778C424.22 186.277 361.725 214.562 327.254 207.216C312.426 204.055 294.668 202.082 285.776 189.835Z" stroke="#6260FF" stroke-width="1.28384"/>
<path d="M286.408 187.944C265.308 158.886 275.503 108.566 244.761 89.9303C222.273 76.2986 183.509 95.0189 172.204 118.716C156.888 150.821 181.887 188.316 180.869 223.854C180.532 235.618 175.238 246.941 168.261 256.433C157.647 270.875 140.244 278.655 129.858 293.261C112.029 318.335 68.0168 347.58 85.3977 372.966C103.638 399.606 154.806 349.806 181.273 368.354C207.114 386.463 175.571 460.964 207.034 458.205C244.491 454.921 231.735 383.77 261.829 361.29C276.824 350.089 296.235 377.855 314.969 377.577C337.97 377.237 373.054 381.133 380.782 359.528C389.441 335.322 336.375 315.769 345.655 291.793C359.604 255.754 442.348 257.518 434.942 219.601C428.047 184.303 364.11 213.242 328.844 205.725C313.673 202.492 295.506 200.473 286.408 187.944Z" stroke="#6260FF" stroke-width="1.28384"/>
<path d="M287.038 186.053C265.462 156.34 275.887 104.884 244.452 85.8288C221.456 71.8897 181.818 91.0322 170.258 115.264C154.596 148.093 180.159 186.433 179.119 222.773C178.774 234.802 173.36 246.38 166.226 256.087C155.372 270.854 137.577 278.809 126.956 293.745C108.725 319.385 63.72 349.289 81.493 375.247C100.145 402.488 152.467 351.566 179.531 370.531C205.956 389.048 173.701 465.23 205.873 462.409C244.176 459.05 231.132 386.295 261.905 363.308C277.238 351.854 297.087 380.247 316.244 379.963C339.764 379.615 375.639 383.598 383.542 361.506C392.396 336.755 338.133 316.76 347.622 292.244C361.886 255.392 446.497 257.196 438.924 218.423C431.874 182.33 366.494 211.921 330.431 204.235C314.919 200.929 296.341 198.865 287.038 186.053Z" stroke="#6260FF" stroke-width="1.28384"/>
<path d="M287.67 184.162C265.618 153.794 276.273 101.204 244.144 81.7278C220.641 67.4813 180.129 87.046 168.313 111.812C152.306 145.365 178.433 184.551 177.369 221.692C177.017 233.987 171.484 245.82 164.192 255.74C153.099 270.834 134.911 278.964 124.056 294.23C105.422 320.434 59.4246 350.999 77.5898 377.529C96.6531 405.371 150.13 353.325 177.791 372.709C204.798 391.635 171.832 469.497 204.715 466.613C243.862 463.18 230.53 388.821 261.982 365.327C277.654 353.62 297.941 382.639 317.52 382.349C341.559 381.993 378.226 386.064 386.303 363.485C395.352 338.188 339.892 317.752 349.591 292.695C364.169 255.031 450.647 256.875 442.907 217.247C435.701 180.357 368.879 210.601 332.021 202.746C316.166 199.366 297.179 197.257 287.67 184.162Z" stroke="#6260FF" stroke-width="1.28384"/>
<path d="M288.302 182.271C265.774 151.248 276.659 97.5224 243.836 77.6264C219.826 63.0725 178.439 83.0593 166.368 108.36C150.015 142.637 176.707 182.668 175.62 220.611C175.261 233.171 169.607 245.259 162.159 255.394C150.826 270.813 132.245 279.119 121.156 294.714C102.12 321.484 55.1293 352.708 73.6866 379.81C93.1614 408.253 147.793 355.084 176.051 374.887C203.641 394.221 169.963 473.763 203.556 470.817C243.549 467.31 229.928 391.346 262.06 367.345C278.07 355.386 298.795 385.03 318.796 384.734C343.355 384.37 380.813 388.53 389.064 365.463C398.309 339.62 341.652 318.744 351.56 293.146C366.453 254.669 454.798 256.552 446.89 216.07C439.529 178.384 371.264 209.28 333.61 201.255C317.413 197.803 298.016 195.648 288.302 182.271Z" stroke="#6260FF" stroke-width="1.28384"/>
<path d="M288.934 180.38C265.93 148.702 277.045 93.8417 243.528 73.5254C219.011 58.6641 176.749 79.0731 164.424 104.908C147.725 139.909 174.98 180.786 173.871 219.53C173.504 232.355 167.731 244.699 160.125 255.048C148.553 270.793 129.58 279.274 118.256 295.198C98.8176 322.534 50.8339 354.417 69.7834 382.092C89.6697 411.135 145.456 356.844 174.311 377.064C202.484 396.807 168.094 478.029 202.397 475.021C243.235 471.44 229.327 393.872 262.137 369.363C278.485 357.151 299.648 387.423 320.073 387.12C345.15 386.749 383.4 390.996 391.826 367.442C401.266 341.053 343.411 319.736 353.528 293.597C368.736 254.307 458.948 256.231 450.873 214.893C443.356 176.411 373.649 207.96 335.2 199.766C318.66 196.241 298.853 194.04 288.934 180.38Z" stroke="#6260FF" stroke-width="1.28384"/>
<path d="M289.566 178.489C266.086 146.155 277.431 90.1603 243.221 69.4238C218.196 54.2551 175.06 75.0863 162.479 101.456C145.435 137.181 173.254 178.903 172.122 218.449C171.747 231.539 165.855 244.138 158.091 254.701C146.279 270.772 126.914 279.429 115.356 295.682C95.5152 323.583 46.5385 356.126 65.8801 384.373C86.178 414.018 143.118 358.603 172.571 379.242C201.327 399.392 166.226 482.295 201.238 479.225C242.921 475.57 228.725 396.397 262.214 371.381C278.901 358.917 300.502 389.814 321.349 389.505C346.945 389.126 385.987 393.462 394.587 369.42C404.222 342.485 345.17 320.727 355.497 294.048C371.02 253.945 463.098 255.909 454.856 213.716C447.184 174.438 376.034 206.639 336.789 198.276C319.907 194.678 299.69 192.431 289.566 178.489Z" stroke="#6260FF" stroke-width="1.28384"/>
<path d="M290.198 176.598C266.242 143.609 277.817 86.4791 242.913 65.3224C217.381 49.8462 173.37 71.0996 160.534 98.0036C143.144 134.453 171.528 177.021 170.373 217.367C169.99 230.723 163.979 243.578 156.058 254.355C144.006 270.751 124.248 279.583 112.456 296.166C92.2128 324.632 42.2432 357.835 61.9769 386.655C82.6863 416.9 140.781 360.362 170.831 381.419C200.17 401.978 164.357 486.561 200.079 483.428C242.607 479.699 228.124 398.922 262.292 373.399C279.317 360.682 301.356 392.206 322.626 391.891C348.74 391.504 388.573 395.927 397.348 371.399C407.179 343.918 346.929 321.719 357.466 294.499C373.303 253.584 467.249 255.586 458.84 212.538C451.012 172.465 378.419 205.319 338.378 196.785C321.154 193.115 300.527 190.823 290.198 176.598Z" stroke="#6260FF" stroke-width="1.28384"/>
<path d="M290.83 174.708C266.398 141.063 278.203 82.7984 242.605 61.2214C216.566 45.4379 171.68 67.1134 158.589 94.5518C140.854 131.725 169.802 175.138 168.623 216.286C168.233 229.908 162.102 243.017 154.024 254.008C141.733 270.731 121.582 279.738 109.556 296.65C88.9105 325.682 37.9478 359.544 58.0737 388.937C79.1946 419.782 138.444 362.122 169.091 383.597C199.013 404.565 162.488 490.827 198.92 487.632C242.294 483.829 227.522 401.447 262.369 375.418C279.732 362.448 302.209 394.598 323.902 394.277C350.536 393.882 391.16 398.393 400.109 373.378C410.135 345.351 348.689 322.711 359.434 294.95C375.586 253.222 471.399 255.265 462.823 211.362C454.839 170.492 380.804 203.999 339.968 195.296C322.402 191.552 301.365 189.215 290.83 174.708Z" stroke="#6260FF" stroke-width="1.28384"/>
<path d="M291.462 172.816C266.554 138.517 278.589 79.1172 242.298 57.12C215.751 41.029 169.991 63.1267 156.645 91.0996C138.564 128.996 168.075 173.256 166.874 215.205C166.477 229.092 160.226 242.457 151.99 253.662C139.46 270.71 118.916 279.893 106.656 297.134C85.6081 326.732 33.6524 361.253 54.1705 391.218C75.703 422.665 136.107 363.881 167.351 385.774C197.856 407.15 160.62 495.093 197.761 491.836C241.98 487.959 226.92 403.972 262.447 377.436C280.148 364.214 303.063 396.99 325.178 396.662C352.331 396.26 393.747 400.859 402.87 375.356C413.092 346.783 350.448 323.702 361.403 295.401C377.87 252.86 475.549 254.943 466.806 210.184C458.667 168.519 383.189 202.678 341.557 193.806C323.649 189.989 302.202 187.606 291.462 172.816Z" stroke="#6260FF" stroke-width="1.28384"/>
<path d="M292.094 170.926C266.71 135.971 278.975 75.4365 241.99 53.019C214.936 36.6206 168.301 59.1405 154.7 87.6478C136.274 126.269 166.349 171.374 165.125 214.124C164.72 228.276 158.35 241.897 149.957 253.316C137.187 270.689 116.251 280.048 103.756 297.619C82.3057 327.782 29.3571 362.963 50.2673 393.5C72.2113 425.547 133.77 365.641 165.611 387.952C196.699 409.737 158.751 499.359 196.602 496.04C241.666 492.089 226.319 406.498 262.524 379.455C280.564 365.98 303.917 399.382 326.455 399.048C354.126 398.638 396.334 403.325 405.632 377.335C416.049 348.216 352.207 324.694 363.372 295.852C380.153 252.499 479.699 254.621 470.789 209.008C462.495 166.546 385.574 201.358 343.147 192.316C324.896 188.427 303.039 185.998 292.094 170.926Z" stroke="#6260FF" stroke-width="1.28384"/>
<path d="M292.725 169.035C266.865 133.424 279.36 71.7552 241.682 48.9174C214.12 32.2116 166.611 55.1536 152.755 84.1953C133.983 123.54 164.622 169.491 163.375 213.043C162.963 227.46 156.473 241.336 147.922 252.969C134.913 270.668 113.584 280.202 100.855 298.102C79.0028 328.831 25.0612 364.671 46.3636 395.781C68.7191 428.429 131.432 367.4 163.87 390.13C195.541 412.322 156.882 503.625 195.443 500.244C241.352 496.219 225.717 409.023 262.601 381.473C280.979 367.745 304.77 401.773 327.73 401.433C355.921 401.016 398.92 405.79 408.392 379.313C419.005 349.649 353.966 325.686 365.34 296.303C382.436 252.137 483.849 254.299 474.772 207.83C466.322 164.573 387.959 200.037 344.735 190.826C326.142 186.864 303.876 184.389 292.725 169.035Z" stroke="#6260FF" stroke-width="1.28384"/>
<path d="M293.357 167.144C267.021 130.878 279.746 68.0741 241.374 44.8161C213.305 27.8029 164.921 51.1671 150.81 80.7432C131.693 120.812 162.896 167.608 161.626 211.962C161.206 226.644 154.597 240.775 145.889 252.623C132.64 270.647 110.919 280.357 97.9549 298.586C75.7005 329.88 20.7659 366.38 42.4603 398.063C65.2274 431.312 129.095 369.159 162.13 392.307C194.384 414.908 155.013 507.891 194.284 504.448C241.038 500.348 225.115 411.548 262.678 383.491C281.395 369.511 305.623 404.165 329.007 403.819C357.716 403.394 401.507 408.256 411.154 381.292C421.961 351.081 355.726 326.677 367.309 296.754C384.72 251.775 487.999 253.977 478.755 206.653C470.149 162.6 390.344 198.717 346.325 189.336C327.39 185.301 304.713 182.781 293.357 167.144Z" stroke="#6260FF" stroke-width="1.28384"/>
<path d="M293.987 165.25C267.174 128.329 280.13 64.3902 241.064 40.7119C212.488 23.3913 163.229 47.1777 148.863 77.2882C129.4 118.081 161.167 165.723 159.874 210.878C159.447 225.826 152.718 240.212 143.853 252.273C130.364 270.624 108.25 280.509 95.0523 299.068C72.3957 330.927 16.468 368.087 38.5547 400.342C61.7333 434.191 126.755 370.915 160.387 394.482C193.225 417.491 153.142 512.154 193.123 508.649C240.722 504.475 224.511 414.07 262.753 385.506C281.808 371.274 306.475 406.554 330.281 406.202C359.509 405.769 404.092 410.719 413.913 383.267C424.915 352.511 357.482 327.666 369.275 297.202C387.001 251.41 492.147 253.652 482.736 205.473C473.975 160.624 392.726 197.393 347.912 187.843C328.634 183.735 305.548 181.17 293.987 165.25Z" stroke="#6260FF" stroke-width="1.28384"/>
<path d="M294.619 163.359C267.33 125.782 280.516 60.7089 240.756 36.6104C211.673 18.9823 161.54 43.1909 146.918 73.8358C127.11 115.353 159.441 163.84 158.125 209.797C157.69 225.009 150.842 239.651 141.819 251.927C128.091 270.603 105.585 280.663 92.1522 299.552C69.0933 331.976 12.1727 369.796 34.6515 402.623C58.2416 437.073 124.418 372.674 158.647 396.659C192.068 420.077 151.273 516.42 191.964 512.852C240.408 508.605 223.91 416.595 262.831 387.524C282.224 373.039 307.328 408.946 331.557 408.587C361.305 408.146 406.679 413.185 416.674 385.245C427.872 353.944 359.242 328.657 371.243 297.653C389.284 251.049 496.298 253.33 486.719 204.296C477.802 158.651 395.112 196.073 349.501 186.353C329.881 182.172 306.385 179.561 294.619 163.359Z" stroke="#6260FF" stroke-width="1.28384"/>
<path d="M295.251 161.467C267.486 123.236 280.902 57.0277 240.449 32.5089C210.857 14.5735 159.85 39.2042 144.974 70.3835C124.819 112.625 157.715 161.957 156.376 208.715C155.933 224.193 148.966 239.091 139.785 251.58C125.818 270.582 102.919 280.818 89.2521 300.036C65.7909 333.026 7.87732 371.504 30.7482 404.904C54.7499 439.955 122.08 374.433 156.907 398.836C190.911 422.663 149.404 520.686 190.805 517.056C240.094 512.734 223.308 419.12 262.908 389.542C282.64 374.804 308.182 411.337 332.833 410.972C363.1 410.524 409.265 415.65 419.435 387.224C430.829 355.376 361.001 329.649 373.212 298.104C391.567 250.687 500.448 253.008 490.702 203.119C481.63 156.678 397.497 194.752 351.091 184.863C331.128 180.609 307.222 177.952 295.251 161.467Z" stroke="#6260FF" stroke-width="1.28384"/>
<path d="M295.881 159.577C267.641 120.69 281.286 53.347 240.14 28.4079C210.041 10.1651 158.159 35.2179 143.027 66.9317C122.528 109.897 155.987 160.075 154.625 207.634C154.175 223.378 147.088 238.53 137.75 251.234C123.544 270.562 100.252 280.973 86.3505 300.52C62.4871 334.076 3.58049 373.214 26.8435 407.186C51.2568 442.838 119.742 376.193 155.166 401.014C189.752 425.249 147.534 524.952 189.645 521.26C239.779 516.864 222.705 421.646 262.984 391.561C283.054 376.57 309.034 413.73 334.108 413.358C364.894 412.902 411.851 418.116 422.195 389.203C433.784 356.809 362.759 330.641 375.179 298.555C393.849 250.325 504.597 252.686 494.684 201.942C485.456 154.705 399.88 193.432 352.679 183.373C332.374 179.046 308.058 176.344 295.881 159.577Z" stroke="#6260FF" stroke-width="1.28384"/>
<path d="M296.513 157.686C267.797 118.144 281.672 49.6658 239.832 24.3065C209.226 5.75621 156.469 31.2312 141.083 63.4794C120.237 107.168 154.261 158.192 152.876 206.553C152.418 222.562 145.212 237.97 135.717 250.887C121.27 270.541 97.5859 281.127 83.4504 301.004C59.1847 335.125 -0.714876 374.923 22.9403 409.467C47.7651 445.72 117.405 377.952 153.426 403.192C188.595 427.835 145.665 529.218 188.486 525.464C239.465 520.994 222.103 424.171 263.061 393.579C283.47 378.336 309.888 416.121 335.385 415.744C366.689 415.28 414.438 420.582 424.956 391.181C436.74 358.241 364.518 331.633 377.148 299.006C396.133 249.963 508.747 252.364 498.667 200.765C489.284 152.732 402.265 192.111 354.268 181.883C333.621 177.483 308.895 174.736 296.513 157.686Z" stroke="#6260FF" stroke-width="1.28384"/>
<path d="M297.145 155.795C267.952 115.597 282.058 45.9844 239.524 20.2049C208.411 1.34722 154.78 27.2444 139.138 60.027C117.947 104.44 152.535 156.309 151.127 205.472C150.661 221.746 143.335 237.409 133.683 250.541C118.997 270.52 94.9201 281.282 80.5503 301.488C55.8823 336.174 -5.01024 376.632 19.0371 411.749C44.2734 448.602 115.067 379.711 151.686 405.369C187.438 430.42 143.797 533.484 187.327 529.667C239.152 525.123 221.502 426.696 263.139 395.597C283.885 380.101 310.742 418.513 336.661 418.129C368.484 417.657 417.025 423.047 427.717 393.159C439.697 359.674 366.277 332.624 379.117 299.457C398.416 249.601 512.897 252.042 502.65 199.588C493.111 150.758 404.65 190.791 355.857 180.393C334.868 175.92 309.732 173.127 297.145 155.795Z" stroke="#6260FF" stroke-width="1.28384"/>
<path d="M297.777 153.904C268.108 113.051 282.444 42.3037 239.216 16.1039C207.596 -3.06116 153.09 23.2582 137.193 56.5753C115.657 101.712 150.809 154.427 149.378 204.391C148.904 220.93 141.459 236.849 131.649 250.195C116.724 270.499 92.2543 281.437 77.6502 301.972C52.5799 337.224 -9.30561 378.341 15.1339 414.031C40.7817 451.485 112.73 381.471 149.945 407.547C186.281 433.007 141.928 537.751 186.168 533.872C238.838 529.254 220.9 429.221 263.216 397.616C284.301 381.867 311.595 420.905 337.937 420.515C370.28 420.036 419.611 425.513 430.478 395.138C442.653 361.107 368.037 333.616 381.085 299.908C400.7 249.24 517.047 251.72 506.633 198.411C496.939 148.786 407.035 189.471 357.447 178.903C336.115 174.358 310.57 171.519 297.777 153.904Z" stroke="#6260FF" stroke-width="1.28384"/>
<path d="M298.409 152.013C268.264 110.505 282.83 38.6225 238.909 12.0025C206.781 -7.47003 151.4 19.2715 135.249 53.123C113.367 98.984 149.082 152.544 147.629 203.31C147.147 220.114 139.583 236.288 129.616 249.848C114.451 270.479 89.5886 281.591 74.7501 302.456C49.2776 338.274 -13.601 380.05 11.2307 416.312C37.29 454.367 110.393 383.23 148.205 409.724C185.124 435.593 140.059 542.016 185.009 538.075C238.524 533.383 220.299 431.747 263.294 399.634C284.717 383.633 312.449 423.297 339.214 422.9C372.075 422.413 422.198 427.979 433.24 397.116C445.61 362.539 369.796 334.608 383.054 300.359C402.983 248.878 521.198 251.398 510.616 197.234C500.766 146.812 409.421 188.15 359.036 177.413C337.363 172.795 311.407 169.911 298.409 152.013Z" stroke="#6260FF" stroke-width="1.28384"/>
</svg>
