<svg width="434" height="429" viewBox="0 0 434 429" fill="none" xmlns="http://www.w3.org/2000/svg">
<path fill-rule="evenodd" clip-rule="evenodd" d="M268.067 161.414C273.756 156.575 280.632 151.182 288.056 151.95C294.901 152.659 304.482 158.257 303.651 165.099C302.346 175.855 286.594 179.642 283.436 190.005C282.108 194.364 290.97 195.322 293.239 199.272C296.783 205.442 301.316 212.147 300.191 219.175C299.145 225.711 292.691 229.955 287.644 234.23C281.707 239.259 275.841 246.544 268.067 246.387C260.257 246.228 250.974 240.978 248.869 233.444C246.043 223.331 255.436 213.65 255.991 203.163C256.129 200.559 253.104 198.638 250.774 197.471C237.54 190.844 219.154 192.299 210.416 180.34C205.014 172.948 210.489 155.599 219.602 154.812C234.858 153.494 244.511 174.017 259.684 176.084C265.329 176.853 263.725 165.108 268.067 161.414Z" stroke="#6260FF" stroke-width="1.28384"/>
<path fill-rule="evenodd" clip-rule="evenodd" d="M271.791 44.2855C297.512 22.4292 328.602 -1.93451 362.17 1.53785C393.121 4.73953 436.441 30.0266 432.686 60.9292C426.783 109.511 355.56 126.621 341.283 173.429C335.278 193.118 375.347 197.445 385.607 215.287C401.631 243.155 422.127 273.44 417.041 305.184C412.311 334.709 383.127 353.879 360.308 373.19C333.465 395.905 306.941 428.81 271.791 428.098C236.475 427.382 194.502 403.669 184.984 369.636C172.209 323.956 214.678 280.228 217.19 232.861C217.814 221.097 204.132 212.421 193.601 207.152C133.76 177.217 50.6284 183.79 11.1175 129.773C-13.306 96.3834 11.4514 18.0181 52.655 14.4622C121.635 8.50918 165.28 101.212 233.885 110.548C259.41 114.022 252.157 60.9696 271.791 44.2855Z" stroke="#6260FF" stroke-width="1.28384"/>
<path d="M289.509 149.002C281.573 148.18 274.222 153.946 268.141 159.118C263.498 163.067 265.213 175.622 259.178 174.8C242.958 172.59 232.638 150.651 216.329 152.06C206.587 152.902 200.734 171.447 206.508 179.349C215.85 192.133 235.505 190.577 249.654 197.662C252.144 198.909 255.378 200.962 255.231 203.746C254.637 214.956 244.596 225.304 247.616 236.115C249.867 244.169 259.791 249.781 268.141 249.95C276.451 250.119 282.722 242.331 289.069 236.956C294.464 232.386 301.364 227.849 302.483 220.862C303.685 213.349 298.839 206.182 295.051 199.587C292.625 195.364 283.151 194.34 284.571 189.681C287.946 178.603 304.786 174.554 306.182 163.057C307.07 155.744 296.827 149.759 289.509 149.002Z" stroke="#6260FF" stroke-width="1.28384"/>
<path d="M290.962 146.052C282.513 145.177 274.687 151.315 268.213 156.821C263.271 161.024 265.097 174.39 258.672 173.514C241.403 171.162 230.418 147.808 213.055 149.308C202.684 150.204 196.452 169.946 202.6 178.358C212.545 191.966 233.47 190.31 248.532 197.851C251.183 199.179 254.627 201.364 254.47 204.328C253.837 216.261 243.148 227.277 246.363 238.785C248.759 247.359 259.324 253.332 268.213 253.513C277.061 253.692 283.737 245.403 290.493 239.68C296.237 234.815 303.583 229.986 304.773 222.548C306.054 214.551 300.894 206.921 296.861 199.901C294.279 195.406 284.193 194.316 285.705 189.356C289.298 177.563 307.225 173.253 308.711 161.014C309.656 153.229 298.752 146.859 290.962 146.052Z" stroke="#6260FF" stroke-width="1.28384"/>
<path d="M292.415 143.103C283.453 142.176 275.153 148.685 268.286 154.525C263.044 158.983 264.98 173.158 258.166 172.23C239.85 169.735 228.198 144.966 209.781 146.557C198.781 147.507 192.171 168.445 198.692 177.367C209.24 191.799 231.435 190.043 247.411 198.042C250.222 199.449 253.875 201.767 253.709 204.911C253.038 217.567 241.7 229.251 245.11 241.456C247.651 250.549 258.857 256.885 268.286 257.076C277.67 257.267 284.751 248.475 291.918 242.405C298.01 237.246 305.801 232.124 307.064 224.235C308.422 215.753 302.95 207.661 298.672 200.215C295.933 195.448 285.235 194.292 286.839 189.031C290.65 176.524 309.665 171.953 311.241 158.972C312.244 150.715 300.678 143.959 292.415 143.103Z" stroke="#6260FF" stroke-width="1.28384"/>
<path d="M293.869 140.154C284.394 139.173 275.619 146.055 268.359 152.228C262.817 156.941 264.865 171.926 257.66 170.945C238.297 168.308 225.978 142.123 206.508 143.805C194.879 144.809 187.891 166.944 194.784 176.375C205.936 191.632 229.4 189.776 246.29 198.231C249.263 199.72 253.124 202.17 252.948 205.493C252.239 218.872 240.252 231.224 243.858 244.126C246.544 253.739 258.391 260.437 268.359 260.639C278.28 260.84 285.767 251.546 293.343 245.13C299.784 239.676 308.021 234.261 309.356 225.921C310.791 216.955 305.006 208.401 300.484 200.529C297.588 195.489 286.278 194.267 287.973 188.706C292.003 175.485 312.106 170.652 313.772 156.93C314.832 148.201 302.604 141.058 293.869 140.154Z" stroke="#6260FF" stroke-width="1.28384"/>
<path d="M295.323 137.205C285.336 136.171 276.085 143.424 268.433 149.932C262.591 154.899 264.749 170.694 257.155 169.66C236.744 166.88 223.759 139.28 203.236 141.052C190.977 142.111 183.611 165.442 190.877 175.383C202.633 191.465 227.366 189.509 245.17 198.421C248.303 199.99 252.374 202.573 252.188 206.075C251.441 220.178 238.805 233.196 242.606 246.796C245.438 256.929 257.926 263.989 268.433 264.202C278.891 264.414 286.782 254.617 294.769 247.854C301.558 242.105 310.241 236.398 311.648 227.608C313.161 218.157 307.063 209.14 302.296 200.843C299.243 195.531 287.322 194.243 289.108 188.381C293.356 174.445 314.546 169.351 316.303 154.887C317.42 145.686 304.531 138.158 295.323 137.205Z" stroke="#6260FF" stroke-width="1.28384"/>
<path d="M296.775 134.255C286.276 133.168 276.551 140.794 268.505 147.635C262.364 152.857 264.633 169.462 256.649 168.375C235.19 165.452 221.538 136.437 199.961 138.3C187.073 139.413 179.329 163.941 186.969 174.392C199.328 191.299 225.33 189.241 244.048 198.611C247.342 200.26 251.622 202.975 251.427 206.657C250.641 221.483 237.357 235.169 241.353 249.467C244.33 260.119 257.459 267.541 268.505 267.765C279.5 267.988 287.796 257.689 296.193 250.579C303.331 244.535 312.459 238.535 313.938 229.294C315.529 219.358 309.118 209.879 304.106 201.157C300.897 195.572 288.364 194.218 290.242 188.056C294.708 173.405 316.986 168.05 318.832 152.844C320.007 143.172 306.456 135.257 296.775 134.255Z" stroke="#6260FF" stroke-width="1.28384"/>
<path d="M298.228 131.306C287.216 130.166 277.016 138.163 268.578 145.338C262.137 150.815 264.517 168.23 256.143 167.089C233.636 164.024 219.318 133.594 196.688 135.548C183.17 136.716 175.048 162.44 183.061 173.4C196.023 191.131 223.295 188.974 242.927 198.8C246.382 200.53 250.87 203.378 250.666 207.239C249.842 222.788 235.909 237.142 240.1 252.137C243.223 263.309 256.992 271.093 268.578 271.328C280.11 271.561 288.811 260.76 297.617 253.304C305.104 246.965 314.678 240.672 316.23 230.98C317.898 220.56 311.174 210.619 305.917 201.471C302.551 195.614 289.406 194.193 291.376 187.731C296.06 172.365 319.425 166.749 321.362 150.801C322.594 140.657 308.382 132.357 298.228 131.306Z" stroke="#6260FF" stroke-width="1.28384"/>
<path d="M299.682 128.356C288.157 127.164 277.482 135.533 268.652 143.041C261.911 148.773 264.401 166.998 255.637 165.804C232.083 162.597 217.098 130.751 193.415 132.796C179.268 134.018 170.768 160.938 179.153 172.409C192.719 190.965 221.261 188.707 241.806 198.99C245.422 200.8 250.119 203.78 249.905 207.822C249.043 224.094 234.462 239.115 238.848 254.808C242.116 266.499 256.526 274.645 268.652 274.891C280.72 275.135 289.826 263.832 299.043 256.028C306.877 249.395 316.897 242.809 318.521 232.667C320.267 221.762 313.23 211.358 307.729 201.785C304.206 195.655 290.449 194.169 292.511 187.406C297.412 171.326 321.866 165.448 323.892 148.759C325.182 138.143 310.308 129.456 299.682 128.356Z" stroke="#6260FF" stroke-width="1.28384"/>
<path d="M301.134 125.407C289.097 124.161 277.948 132.903 268.724 140.744C261.683 146.731 264.284 165.765 255.131 164.519C230.529 161.169 214.877 127.908 190.141 130.044C175.365 131.32 166.487 159.437 175.245 171.417C189.414 190.797 219.225 188.439 240.685 199.18C244.461 201.07 249.368 204.183 249.144 208.404C248.243 225.399 233.013 241.088 237.595 257.478C241.008 269.688 256.059 278.196 268.724 278.453C281.329 278.709 290.841 266.903 300.467 258.753C308.65 251.824 319.115 244.946 320.812 234.353C322.635 222.963 315.285 212.097 309.539 202.099C305.86 195.697 291.491 194.144 293.644 187.08C298.764 170.286 324.305 164.147 326.422 146.716C327.768 135.628 312.234 126.556 301.134 125.407Z" stroke="#6260FF" stroke-width="1.28384"/>
<path d="M302.587 122.458C290.037 121.159 278.413 130.273 268.797 138.448C261.456 144.689 264.168 164.534 254.625 163.235C228.975 159.742 212.657 125.066 186.867 127.293C171.462 128.623 162.206 157.936 171.337 170.426C186.109 190.631 217.19 188.173 239.563 199.37C243.501 201.341 248.616 204.586 248.383 208.986C247.444 226.705 231.566 243.062 236.342 260.149C239.9 272.879 255.593 281.749 268.797 282.017C281.939 282.283 291.855 269.975 301.891 261.478C310.423 254.255 321.334 247.084 323.103 236.04C325.004 224.166 317.341 212.837 311.35 202.413C307.514 195.739 292.533 194.12 294.778 186.756C300.116 169.247 326.745 162.846 328.952 144.674C330.356 133.115 314.159 123.656 302.587 122.458Z" stroke="#6260FF" stroke-width="1.28384"/>
<path d="M304.041 119.509C290.978 118.157 278.879 127.642 268.87 136.152C261.23 142.647 264.052 163.302 254.119 161.95C227.422 158.314 210.437 122.223 183.594 124.541C167.56 125.925 157.925 156.435 167.43 169.434C182.805 190.464 215.156 187.905 238.443 199.56C242.541 201.611 247.865 204.989 247.622 209.569C246.645 228.01 230.118 245.035 235.09 262.819C238.793 276.069 255.127 285.301 268.87 285.58C282.549 285.857 292.871 273.046 303.316 264.203C312.197 256.685 323.553 249.221 325.394 237.726C327.373 225.367 319.397 213.577 313.162 202.727C309.169 195.78 293.576 194.096 295.913 186.431C301.469 168.207 329.185 161.546 331.482 142.631C332.944 130.6 316.085 120.755 304.041 119.509Z" stroke="#6260FF" stroke-width="1.28384"/>
<path d="M305.495 116.559C291.92 115.155 279.346 125.012 268.944 133.855C261.004 140.605 263.937 162.07 253.614 160.664C225.869 156.887 208.218 119.38 180.321 121.789C163.658 123.227 153.645 154.933 163.523 168.443C179.502 190.297 213.122 187.638 237.322 199.75C241.582 201.881 247.115 205.391 246.862 210.151C245.847 229.316 228.671 247.007 233.838 265.489C237.687 279.259 254.661 288.853 268.944 289.142C283.16 289.431 293.886 276.117 304.742 266.927C313.971 259.114 325.773 251.358 327.686 239.413C329.743 226.569 321.454 214.316 314.973 203.041C310.824 195.822 294.62 194.071 297.048 186.105C302.822 167.167 331.626 160.244 334.013 140.589C335.532 128.086 318.012 117.855 305.495 116.559Z" stroke="#6260FF" stroke-width="1.28384"/>
<path d="M306.948 113.61C292.86 112.152 279.811 122.381 269.016 131.558C260.776 138.563 263.82 160.838 253.108 159.379C224.315 155.459 205.998 116.537 177.047 119.036C159.754 120.529 149.364 153.432 159.614 167.451C176.197 190.13 211.086 187.371 236.201 199.939C240.621 202.151 246.363 205.794 246.101 210.733C245.047 230.621 227.223 248.98 232.585 268.16C236.579 282.449 254.195 292.405 269.016 292.705C283.769 293.004 294.9 279.189 306.166 269.652C315.743 261.544 327.991 253.495 329.977 241.099C332.111 227.771 323.509 215.055 316.784 203.355C312.478 195.863 295.661 194.047 298.182 185.78C304.173 166.127 334.065 158.943 336.543 138.546C338.119 125.571 319.937 114.954 306.948 113.61Z" stroke="#6260FF" stroke-width="1.28384"/>
<path d="M308.401 110.661C293.8 109.15 280.277 119.752 269.089 129.262C260.549 136.522 263.704 159.606 252.602 158.095C222.761 154.032 203.777 113.695 173.773 116.285C155.852 117.832 145.083 151.931 155.706 166.46C172.892 189.964 209.051 187.104 235.08 200.13C239.66 202.422 245.611 206.197 245.34 211.316C244.247 231.927 225.775 250.954 231.332 270.831C235.472 285.639 253.728 295.957 269.089 296.269C284.378 296.579 295.915 282.261 307.591 272.377C317.516 263.974 330.21 255.633 332.268 242.786C334.48 228.973 325.565 215.795 318.595 203.669C314.132 195.905 296.704 194.023 299.316 185.456C305.526 165.088 336.505 157.643 339.073 136.504C340.706 123.057 321.863 112.054 308.401 110.661Z" stroke="#6260FF" stroke-width="1.28384"/>
<path d="M309.853 107.712C294.74 106.148 280.742 117.121 269.162 126.965C260.322 134.48 263.587 158.374 252.095 156.809C221.207 152.604 201.557 110.852 170.499 113.533C151.948 115.134 140.802 150.43 151.798 165.468C169.587 189.797 207.016 186.837 233.958 200.319C238.7 202.692 244.859 206.6 244.579 211.898C243.448 233.232 224.327 252.927 230.079 273.501C234.364 288.829 253.261 299.509 269.162 299.832C284.988 300.152 296.929 285.332 309.015 275.101C319.289 266.404 332.428 257.77 334.558 244.472C336.848 230.175 327.62 216.534 320.405 203.983C315.786 195.947 297.746 193.998 300.449 185.131C306.877 164.048 338.944 156.342 341.602 134.461C343.293 120.543 323.788 109.154 309.853 107.712Z" stroke="#6260FF" stroke-width="1.28384"/>
<path d="M311.307 104.762C295.681 103.146 281.208 114.491 269.235 124.668C260.095 132.437 263.472 157.142 251.59 155.524C219.654 151.177 199.337 108.009 167.226 110.781C148.046 112.437 136.521 148.928 147.89 164.477C166.283 189.63 204.981 186.569 232.837 200.509C237.74 202.962 244.108 207.002 243.818 212.48C242.649 234.538 222.879 254.9 228.826 276.171C233.257 292.019 252.795 303.061 269.235 303.394C285.598 303.726 297.945 288.403 310.44 277.826C321.063 268.834 334.648 259.907 336.85 246.158C339.217 231.377 329.676 217.274 322.217 204.297C317.441 195.988 298.789 193.974 301.584 184.805C308.23 163.009 341.385 155.041 344.133 132.419C345.88 118.029 325.715 106.253 311.307 104.762Z" stroke="#6260FF" stroke-width="1.28384"/>
<path d="M312.76 101.813C296.622 100.143 281.674 111.86 269.308 122.372C259.868 130.395 263.356 155.91 251.084 154.239C218.1 149.749 197.117 105.166 163.953 108.029C144.143 109.739 132.24 147.427 143.982 163.485C162.978 189.463 202.946 186.302 231.716 200.699C236.779 203.232 243.357 207.405 243.057 213.062C241.85 235.843 221.431 256.873 227.573 278.841C232.149 295.209 252.329 306.613 269.308 306.957C286.207 307.3 298.959 291.475 311.865 280.55C322.836 271.264 336.867 262.044 339.141 247.845C341.586 232.578 331.732 218.013 324.028 204.611C319.095 196.03 299.831 193.949 302.718 184.48C309.582 161.969 343.824 153.74 346.662 130.376C348.468 115.514 327.64 103.353 312.76 101.813Z" stroke="#6260FF" stroke-width="1.28384"/>
<path d="M314.214 98.8637C297.563 97.1407 282.141 109.23 269.382 120.075C259.642 128.353 263.24 154.678 250.578 152.954C216.547 148.321 194.897 102.323 160.68 105.277C140.241 107.041 127.96 145.925 140.075 162.493C159.675 189.296 200.912 186.035 230.596 200.888C235.82 203.503 242.607 207.807 242.297 213.645C241.051 237.148 219.985 258.846 226.322 281.512C231.043 298.399 251.863 310.165 269.382 310.52C286.818 310.874 299.975 294.546 313.29 283.275C324.61 273.693 339.086 264.181 341.433 249.531C343.956 233.78 333.788 218.752 325.84 204.925C320.751 196.071 300.874 193.924 303.853 184.155C310.935 160.929 346.265 152.439 349.193 128.333C351.056 113 329.567 100.452 314.214 98.8637Z" stroke="#6260FF" stroke-width="1.28384"/>
<path d="M315.667 95.9143C298.503 94.1383 282.606 106.599 269.454 117.778C259.415 126.311 263.124 153.446 250.072 151.669C214.993 146.893 192.677 99.4798 157.406 102.525C136.338 104.343 123.679 144.424 136.167 161.502C156.37 189.129 198.876 185.767 229.474 201.078C234.859 203.773 241.855 208.21 241.536 214.227C240.251 238.454 218.536 260.819 225.068 284.182C229.935 301.589 251.396 313.717 269.454 314.083C287.427 314.447 300.989 297.618 314.715 286C326.383 276.123 341.305 266.318 343.723 251.217C346.324 234.982 335.844 219.492 327.65 205.239C322.405 196.113 301.916 193.9 304.987 183.83C312.287 159.889 348.704 151.138 351.723 126.291C353.643 110.485 331.492 97.5518 315.667 95.9143Z" stroke="#6260FF" stroke-width="1.28384"/>
<path d="M317.12 92.9654C299.444 91.1364 283.072 103.969 269.528 115.482C259.188 124.27 263.008 152.214 249.566 150.384C213.44 145.466 190.457 96.6374 154.133 99.773C132.435 101.646 119.398 142.923 132.26 160.511C153.066 188.962 196.842 185.501 228.353 201.268C233.899 204.043 241.104 208.613 240.775 214.809C239.453 239.759 217.089 262.792 223.816 286.853C228.828 304.779 250.93 317.269 269.528 317.646C288.037 318.021 302.004 300.689 316.14 288.725C328.156 278.553 343.524 268.456 346.015 252.904C348.693 236.184 337.9 220.232 329.462 205.553C324.059 196.155 302.959 193.876 306.121 183.505C313.639 158.85 351.145 149.838 354.253 124.248C356.231 107.971 333.418 94.6518 317.12 92.9654Z" stroke="#6260FF" stroke-width="1.28384"/>
<path d="M318.573 90.016C300.384 88.134 283.538 101.339 269.6 113.185C258.961 122.228 262.892 150.982 249.06 149.099C211.886 144.039 188.237 93.7944 150.859 97.0209C128.533 98.9482 115.117 141.422 128.352 159.519C149.761 188.795 194.807 185.233 227.232 201.458C232.939 204.313 240.352 209.016 240.014 215.392C238.653 241.065 215.641 264.765 222.563 289.523C227.721 307.969 250.464 320.821 269.6 321.209C288.647 321.595 303.019 303.761 317.564 291.449C329.929 280.983 345.743 270.593 348.306 254.591C351.062 237.385 339.955 220.971 331.273 205.867C325.714 196.196 304.002 193.851 307.255 183.18C314.991 157.81 353.585 148.537 356.783 122.206C358.818 105.457 335.344 91.7513 318.573 90.016Z" stroke="#6260FF" stroke-width="1.28384"/>
<path d="M320.026 87.0666C301.324 85.1316 284.003 98.7085 269.673 110.888C258.734 120.186 262.775 149.75 248.554 147.814C210.332 142.611 186.016 90.9514 147.585 94.2689C124.629 96.2504 110.836 139.92 124.443 158.527C146.456 188.628 192.771 184.966 226.11 201.648C231.978 204.584 239.6 209.418 239.253 215.974C237.853 242.37 214.193 266.738 221.31 292.194C226.613 311.159 249.997 324.373 269.673 324.772C289.256 325.169 304.033 306.832 318.988 294.174C331.702 283.413 347.961 272.73 350.596 256.277C353.43 238.587 342.011 221.71 333.083 206.181C327.367 196.238 305.044 193.827 308.389 182.855C316.343 156.77 356.024 147.236 359.313 120.163C361.405 102.942 337.269 88.8508 320.026 87.0666Z" stroke="#6260FF" stroke-width="1.28384"/>
<path d="M321.479 84.1172C302.265 82.1292 284.469 96.0781 269.746 108.591C258.508 118.144 262.659 148.518 248.048 146.529C208.779 141.183 183.796 88.1085 144.312 91.5168C120.727 93.5526 106.556 138.419 120.536 157.536C143.152 188.462 190.737 184.699 224.99 201.837C231.018 204.854 238.849 209.821 238.492 216.556C237.055 243.675 212.745 268.711 220.058 294.864C225.506 314.349 249.531 327.925 269.746 328.335C289.866 328.743 305.048 309.903 320.414 296.898C333.476 285.843 350.18 274.867 352.888 257.963C355.799 239.789 344.067 222.45 334.895 206.495C329.022 196.279 306.086 193.802 309.524 182.53C317.696 155.731 358.464 145.935 361.843 118.12C363.992 100.428 339.196 85.9503 321.479 84.1172Z" stroke="#6260FF" stroke-width="1.28384"/>
<path d="M322.933 81.1679C303.207 79.1269 284.935 93.4478 269.82 106.295C258.282 116.102 262.544 147.286 247.543 145.244C207.226 139.756 181.577 85.2657 141.039 88.7648C116.825 90.855 102.276 136.918 116.629 156.544C139.848 188.295 188.703 184.431 223.869 202.027C230.059 205.124 238.099 210.224 237.732 217.138C236.256 244.981 211.298 270.684 218.806 297.534C224.399 317.539 249.065 331.477 269.82 331.898C290.477 332.316 306.064 312.975 321.839 299.623C335.25 288.273 352.4 277.004 355.18 259.65C358.169 240.991 346.123 223.189 336.707 206.809C330.678 196.321 307.13 193.778 310.659 182.205C319.049 154.691 360.905 144.634 364.374 116.078C366.581 97.9135 341.122 83.0499 322.933 81.1679Z" stroke="#6260FF" stroke-width="1.28384"/>
<path d="M324.386 78.219C304.147 76.125 285.401 90.8178 269.893 103.999C258.055 114.06 262.428 146.054 247.037 143.959C205.673 138.328 179.357 82.4232 137.766 86.0132C112.922 88.1577 97.9947 135.417 112.721 155.553C136.544 188.128 186.668 184.165 222.748 202.217C229.098 205.395 237.348 210.627 236.971 217.721C235.457 246.287 209.85 272.657 217.553 300.205C223.292 320.729 248.599 335.029 269.893 335.461C291.087 335.891 307.079 316.047 323.264 302.348C337.023 290.703 354.619 279.142 357.471 261.337C360.538 242.193 348.179 223.929 338.518 207.123C332.332 196.363 308.172 193.754 311.793 181.88C320.401 153.652 363.345 143.333 366.904 114.036C369.168 95.3995 343.048 80.1499 324.386 78.219Z" stroke="#6260FF" stroke-width="1.28384"/>
<path d="M325.839 75.2697C305.087 73.1226 285.866 88.1874 269.965 101.702C257.827 112.018 262.311 144.822 246.531 142.674C204.118 136.901 177.136 79.5802 134.492 83.2612C109.019 85.4599 93.7133 133.915 108.812 154.561C133.239 187.961 184.632 183.897 221.627 202.407C228.138 205.665 236.596 211.029 236.21 218.303C234.657 247.592 208.402 274.63 216.3 302.875C222.184 323.919 248.132 338.581 269.965 339.024C291.696 339.464 308.093 319.118 324.688 305.073C338.795 293.133 356.837 281.279 359.762 263.023C362.906 243.395 350.234 224.668 340.328 207.437C333.986 196.404 309.214 193.729 312.927 181.555C321.753 152.612 365.784 142.032 369.433 111.993C371.755 92.8851 344.973 77.2493 325.839 75.2697Z" stroke="#6260FF" stroke-width="1.28384"/>
<path d="M327.293 72.3203C306.028 70.1202 286.332 85.5569 270.039 99.405C257.601 109.976 262.195 143.59 246.025 141.389C202.565 135.473 174.917 76.7373 131.218 80.5091C105.116 82.7621 89.4329 132.414 104.905 153.57C129.935 187.794 182.597 183.63 220.506 202.597C227.178 205.935 235.845 211.432 235.45 218.885C233.858 248.897 206.955 276.603 215.048 305.546C221.077 327.109 247.666 342.133 270.039 342.587C292.306 343.038 309.108 322.189 326.113 307.797C340.569 295.562 359.056 283.416 362.053 264.709C365.275 244.596 352.291 225.408 342.14 207.751C335.64 196.446 310.257 193.704 314.061 181.23C323.105 151.572 368.224 140.731 371.964 109.95C374.343 90.3706 346.9 74.3488 327.293 72.3203Z" stroke="#6260FF" stroke-width="1.28384"/>
<path d="M328.746 69.3709C306.968 67.1178 286.798 82.9265 270.111 97.1082C257.374 107.934 262.079 142.358 245.519 140.104C201.011 134.045 172.696 73.8943 127.945 77.757C101.214 80.0643 85.1519 130.913 100.997 152.578C126.63 187.627 180.562 183.363 219.385 202.786C226.217 206.205 235.093 211.834 234.689 219.467C233.059 250.203 205.507 278.576 213.795 308.216C219.97 330.299 247.2 345.685 270.111 346.15C292.916 346.612 310.123 325.261 327.538 310.522C342.342 297.992 361.275 285.553 364.344 266.396C367.644 245.798 354.346 226.147 343.951 208.065C337.295 196.487 311.299 193.68 315.195 180.905C324.457 150.532 370.664 139.431 374.494 107.908C376.93 87.8561 348.825 71.4483 328.746 69.3709Z" stroke="#6260FF" stroke-width="1.28384"/>
<path d="M330.198 66.4215C307.908 64.1154 287.263 80.296 270.184 94.8115C257.146 105.892 261.963 141.126 245.013 138.819C199.457 132.618 170.476 71.0513 124.671 75.0049C97.3102 77.3665 80.8705 129.411 97.0885 151.586C123.325 187.46 178.527 183.095 218.263 202.976C225.256 206.475 234.341 212.237 233.927 220.05C232.259 251.508 204.059 280.549 212.542 310.886C218.862 333.489 246.733 349.237 270.184 349.712C293.525 350.186 311.137 328.332 328.962 313.246C344.115 300.422 363.493 287.69 366.635 268.082C370.012 247 356.401 226.886 345.761 208.379C338.949 196.529 312.341 193.655 316.329 180.58C325.809 149.493 373.103 138.13 377.023 105.865C379.517 85.3417 350.751 68.5478 330.198 66.4215Z" stroke="#6260FF" stroke-width="1.28384"/>
<path d="M331.652 63.4727C308.849 61.1136 287.729 77.6662 270.257 92.5153C256.92 103.85 261.847 139.894 244.507 137.534C197.904 131.191 168.256 68.209 121.398 72.2535C93.4078 74.6693 76.5901 127.91 93.181 150.595C120.021 187.294 176.492 182.829 217.142 203.166C224.297 206.746 233.59 212.64 233.167 220.632C231.46 252.814 202.611 282.522 211.289 313.557C217.755 336.679 246.267 352.79 270.257 353.276C294.135 353.76 312.152 331.404 330.387 315.972C345.888 302.852 365.713 289.828 368.926 269.769C372.381 248.202 358.458 227.626 347.573 208.693C340.603 196.571 313.384 193.631 317.463 180.255C327.161 148.453 375.544 136.829 379.554 103.823C382.104 82.8278 352.677 65.6479 331.652 63.4727Z" stroke="#6260FF" stroke-width="1.28384"/>
<path d="M333.106 60.5233C309.791 58.1112 288.196 75.0358 270.331 90.2185C256.694 101.808 261.732 138.662 244.002 136.249C196.351 129.763 166.037 65.366 118.125 69.5014C89.506 71.9716 72.3101 126.409 89.274 149.604C116.717 187.127 174.458 182.561 216.022 203.356C223.337 207.016 232.84 213.043 232.407 221.215C230.662 254.119 201.164 284.495 210.038 316.228C216.648 339.869 245.801 356.341 270.331 356.839C294.746 357.334 313.168 334.475 331.813 318.696C347.662 305.282 367.933 291.965 371.218 271.455C374.751 249.404 360.514 228.366 349.385 209.007C342.259 196.612 314.428 193.607 318.598 179.93C328.515 147.414 377.984 135.528 382.085 101.78C384.693 80.3134 354.603 62.7474 333.106 60.5233Z" stroke="#6260FF" stroke-width="1.28384"/>
<path d="M334.559 57.5739C310.731 55.1088 288.662 72.4053 270.404 87.9218C256.467 99.7663 261.615 137.43 243.496 134.964C194.798 128.335 163.817 62.5231 114.851 66.7493C85.6031 69.2738 68.0292 124.908 85.3661 148.612C113.413 186.96 172.423 182.294 214.901 203.546C222.377 207.286 232.089 213.445 231.646 221.797C229.863 255.425 199.716 286.468 208.785 318.898C215.541 343.059 245.335 359.893 270.404 360.401C295.355 360.907 314.183 337.547 333.237 321.421C349.436 307.712 370.151 294.102 373.509 273.142C377.119 250.605 362.57 229.105 351.196 209.321C343.913 196.654 315.47 193.582 319.733 179.605C329.867 146.374 380.424 134.227 384.615 99.7376C387.28 77.7989 356.529 59.8469 334.559 57.5739Z" stroke="#6260FF" stroke-width="1.28384"/>
<path d="M336.012 54.6245C311.671 52.1064 289.127 69.7749 270.476 85.625C256.239 97.7243 261.499 136.198 242.99 133.679C193.244 126.908 161.596 59.6801 111.577 63.9973C81.6998 66.576 63.7478 123.406 81.4577 147.62C110.108 186.793 170.388 182.027 213.779 203.735C221.416 207.556 231.337 213.848 230.884 222.379C229.063 256.73 198.268 288.441 207.531 321.568C214.433 346.249 244.868 363.445 270.476 363.964C295.964 364.481 315.197 340.618 334.661 324.145C351.208 310.141 372.37 296.239 375.8 274.828C379.488 251.807 364.625 229.844 353.006 209.635C345.567 196.695 316.512 193.558 320.866 179.28C331.218 145.334 382.864 132.926 387.144 97.6949C389.867 75.2845 358.454 56.9464 336.012 54.6245Z" stroke="#6260FF" stroke-width="1.28384"/>
<path d="M337.465 51.6756C312.612 49.1045 289.593 67.1449 270.55 83.3287C256.013 95.6827 261.383 134.966 242.484 132.394C191.69 125.48 159.376 56.8376 108.304 61.2457C77.7974 63.8787 59.4673 121.905 77.5502 146.629C106.804 186.626 168.353 181.76 212.659 203.926C220.456 207.827 230.586 214.251 230.124 222.962C228.264 258.036 196.821 290.415 206.279 324.239C213.326 349.439 244.402 366.998 270.55 367.528C296.575 368.055 316.212 343.69 336.087 326.87C352.982 312.572 374.589 298.377 378.091 276.515C381.857 253.009 366.681 230.584 354.818 209.949C347.222 196.737 317.555 193.534 322.001 178.955C332.571 144.295 385.304 131.626 389.674 95.6528C392.455 72.7705 360.381 54.0464 337.465 51.6756Z" stroke="#6260FF" stroke-width="1.28384"/>
<path d="M338.918 48.7262C313.553 46.1021 290.059 64.5145 270.623 81.032C255.786 93.6406 261.267 133.734 241.978 131.109C190.137 124.053 157.156 53.9947 105.03 58.4936C73.8946 61.1809 55.1864 120.404 73.6422 145.638C103.499 186.46 166.318 181.492 211.537 204.115C219.496 208.097 229.834 214.654 229.363 223.544C227.465 259.341 195.373 292.387 205.026 326.909C212.219 352.629 243.935 370.55 270.623 371.09C297.184 371.629 317.227 346.761 337.511 329.595C354.755 315.001 376.808 300.514 380.382 278.201C384.226 254.211 368.737 231.324 356.629 210.263C348.876 196.779 318.597 193.509 323.135 178.63C333.923 143.255 387.744 130.325 392.204 93.6101C395.042 70.2561 362.306 51.1459 338.918 48.7262Z" stroke="#6260FF" stroke-width="1.28384"/>
<path d="M340.372 45.7769C314.494 43.0997 290.525 61.884 270.696 78.7352C255.56 91.5986 261.152 132.502 241.473 129.824C188.584 122.625 154.937 51.1517 101.758 55.7415C69.9927 58.4831 50.9065 118.903 69.7353 144.646C100.195 186.293 164.284 181.225 210.417 204.305C218.536 208.367 229.084 215.056 228.603 224.126C226.666 260.647 193.926 294.36 203.775 329.58C211.112 355.819 243.47 374.101 270.696 374.653C297.795 375.203 318.243 349.833 338.937 332.319C356.529 317.431 379.027 302.651 382.674 279.887C386.595 255.413 370.794 232.063 358.441 210.577C350.531 196.82 319.641 193.484 324.27 178.305C335.276 142.215 390.184 129.024 394.735 91.5674C397.63 67.7416 364.233 48.2453 340.372 45.7769Z" stroke="#6260FF" stroke-width="1.28384"/>
<path d="M341.825 42.8275C315.434 40.0973 290.991 59.2536 270.769 76.4384C255.332 89.5565 261.035 131.27 240.967 128.539C187.03 121.197 152.716 48.3088 98.4837 52.9894C66.0893 55.7853 46.625 117.401 65.8268 143.654C96.8904 186.126 162.248 180.958 209.295 204.495C217.575 208.637 228.332 215.459 227.841 224.708C225.867 261.952 192.478 296.333 202.521 332.25C210.004 359.009 243.003 377.653 270.769 378.216C298.404 378.776 319.257 352.904 340.361 335.044C358.302 319.861 381.246 304.788 384.965 281.574C388.963 256.614 372.849 232.802 360.251 210.891C352.185 196.862 320.682 193.46 325.404 177.98C336.628 141.176 392.624 127.723 397.265 89.5247C400.217 65.2271 366.158 45.3448 341.825 42.8275Z" stroke="#6260FF" stroke-width="1.28384"/>
<path d="M343.278 39.8781C316.375 37.0949 291.457 56.6231 270.842 74.1416C255.106 87.5145 260.919 130.038 240.461 127.253C185.477 119.77 150.496 45.4658 95.2106 50.2374C62.187 53.0875 42.3446 115.9 61.9194 142.663C93.5863 185.959 160.214 180.691 208.175 204.684C216.616 208.907 227.581 215.861 227.081 225.29C225.068 263.257 191.03 298.306 201.269 334.92C208.897 362.199 242.537 381.205 270.842 381.779C299.014 382.35 320.272 355.975 341.786 337.769C360.075 322.291 383.465 306.925 387.256 283.26C391.333 257.816 374.905 233.542 362.063 211.205C353.84 196.903 321.725 193.435 326.538 177.654C337.98 140.136 395.064 126.422 399.795 87.4821C402.805 62.7127 368.085 42.4443 343.278 39.8781Z" stroke="#6260FF" stroke-width="1.28384"/>
<path d="M344.731 36.9288C317.315 34.0926 291.922 53.9928 270.915 71.845C254.879 85.4726 260.803 128.806 239.955 125.968C183.923 118.342 148.276 42.623 91.9369 47.4854C58.2841 50.3899 38.0637 114.398 58.0114 141.671C90.2818 185.792 158.179 180.423 207.053 204.874C215.655 209.178 226.83 216.264 226.32 225.873C224.268 264.563 189.582 300.279 200.016 337.591C207.79 365.389 242.071 384.757 270.915 385.342C299.624 385.924 321.287 359.047 343.211 340.493C361.848 324.721 385.684 309.062 389.547 284.947C393.701 259.018 376.961 234.281 363.874 211.519C355.494 196.945 322.768 193.411 327.672 177.329C339.333 139.096 397.504 125.121 402.325 85.4395C405.392 60.1984 370.01 39.5439 344.731 36.9288Z" stroke="#6260FF" stroke-width="1.28384"/>
<path d="M346.184 33.9799C318.255 31.0907 292.387 51.3629 270.987 69.5487C254.652 83.431 260.686 127.574 239.449 124.684C182.369 116.915 146.055 39.7805 88.6628 44.7338C54.3808 47.6926 33.7823 112.898 54.103 140.68C86.9767 185.625 156.143 180.157 205.932 205.064C214.694 209.448 226.078 216.667 225.559 226.455C223.469 265.868 188.134 302.253 198.763 340.262C206.682 368.579 241.604 388.31 270.987 388.905C300.233 389.498 322.301 362.119 344.635 343.218C363.621 327.151 387.902 311.2 391.838 286.633C396.07 260.22 379.016 235.021 365.684 211.833C357.148 196.987 323.81 193.387 328.806 177.005C340.684 138.057 399.943 123.82 404.855 83.3973C407.979 57.6844 371.936 36.6439 346.184 33.9799Z" stroke="#6260FF" stroke-width="1.28384"/>
<path d="M347.637 31.0305C319.196 28.0883 292.853 48.7324 271.06 67.252C254.425 81.3889 260.57 126.342 238.943 123.399C180.815 115.487 143.835 36.9375 85.3892 41.9818C50.4779 44.9948 29.5013 111.396 50.195 139.688C83.6721 185.458 154.108 179.889 204.811 205.254C213.734 209.718 225.326 217.07 224.798 227.038C222.669 267.174 186.686 304.226 197.51 342.932C205.574 371.769 241.137 391.862 271.06 392.468C300.843 393.072 323.316 365.19 346.06 345.943C365.394 329.581 390.121 313.337 394.129 288.32C398.438 261.422 381.072 235.76 367.495 212.147C358.802 197.028 324.852 193.362 329.94 176.68C342.036 137.017 402.383 122.519 407.385 81.3547C410.566 55.1699 373.861 33.7434 347.637 31.0305Z" stroke="#6260FF" stroke-width="1.28384"/>
<path d="M349.091 28.0811C320.137 25.0859 293.32 46.102 271.134 64.9552C254.199 79.3469 260.455 125.11 238.438 122.113C179.262 114.06 141.616 34.0946 82.1166 39.2297C46.5761 42.297 25.2214 109.895 46.2881 138.697C80.3686 185.291 152.074 179.622 203.69 205.444C212.775 209.988 224.576 217.472 224.038 227.62C221.871 268.479 185.239 306.199 196.258 345.602C204.468 374.959 240.672 395.414 271.134 396.031C301.453 396.646 324.331 368.261 347.485 348.667C367.168 332.01 392.341 315.474 396.421 290.006C400.808 262.624 383.128 236.5 369.307 212.461C360.458 197.07 325.895 193.338 331.075 176.354C343.389 135.977 404.824 121.218 409.915 79.312C413.154 52.6555 375.788 30.8429 349.091 28.0811Z" stroke="#6260FF" stroke-width="1.28384"/>
<path d="M350.545 25.1322C321.078 22.084 293.786 43.472 271.207 62.6589C253.972 77.3053 260.339 123.878 237.932 120.829C177.709 112.632 139.396 31.2521 78.8434 36.4781C42.6737 39.5997 20.9409 108.394 42.3806 137.706C77.0645 185.125 150.04 179.355 202.57 205.634C211.815 210.259 223.825 217.875 223.277 228.202C221.072 269.785 183.792 308.172 195.006 348.273C203.361 378.149 240.206 398.966 271.207 399.594C302.064 400.22 325.347 371.333 348.91 351.392C368.942 334.441 394.56 317.611 398.712 291.693C403.177 263.826 385.184 237.239 371.119 212.776C362.112 197.112 326.938 193.314 332.21 176.03C344.742 134.938 407.264 119.918 412.446 77.2698C415.742 50.1415 377.714 27.9429 350.545 25.1322Z" stroke="#6260FF" stroke-width="1.28384"/>
<path d="M351.997 22.183C322.018 19.0817 294.251 40.8417 271.28 60.3623C253.745 75.2634 260.222 122.646 237.426 119.544C176.155 111.205 137.176 28.4093 75.5693 33.7261C38.7704 36.902 16.6595 106.893 38.4722 136.714C73.7594 184.958 148.004 179.088 201.448 205.824C210.854 210.529 223.073 218.278 222.516 228.785C220.272 271.09 182.343 310.145 193.753 350.943C202.253 381.339 239.739 402.518 271.28 403.157C302.673 403.794 326.361 374.405 350.334 354.117C370.715 336.871 396.778 319.749 401.003 293.379C405.545 265.028 387.24 237.979 372.929 213.09C363.766 197.153 327.98 193.289 333.343 175.705C346.094 133.898 409.703 118.617 414.975 75.2273C418.329 47.6272 379.639 25.0425 351.997 22.183Z" stroke="#6260FF" stroke-width="1.28384"/>
<path d="M353.45 19.2336C322.959 16.0793 294.717 38.2113 271.353 58.0655C253.518 73.2213 260.106 121.414 236.92 118.259C174.601 109.777 134.955 25.5663 72.2957 30.9741C34.8675 34.2042 12.3786 105.391 34.5642 135.723C70.4549 184.791 145.969 178.821 200.327 206.014C209.894 210.799 222.321 218.681 221.755 229.367C219.473 272.396 180.896 312.118 192.5 353.614C201.146 384.529 239.272 406.07 271.353 406.72C303.282 407.367 327.375 377.476 351.759 356.842C372.488 339.3 398.997 321.886 403.294 295.066C407.914 266.229 389.295 238.718 374.74 213.403C365.42 197.195 329.023 193.265 334.477 175.38C347.446 132.859 412.143 117.316 417.505 73.1846C420.916 45.1127 381.565 22.142 353.45 19.2336Z" stroke="#6260FF" stroke-width="1.28384"/>
<path d="M354.903 16.2842C323.899 13.0769 295.182 35.5808 271.426 55.7687C253.291 71.1793 259.99 120.182 236.414 116.973C173.048 108.349 132.735 22.7234 69.0221 28.222C30.9647 31.5065 8.09767 103.89 30.6563 134.731C67.1503 184.624 143.934 178.553 199.206 206.203C208.933 211.07 221.57 219.083 220.994 229.949C218.674 273.701 179.448 314.091 191.247 356.284C200.038 387.719 238.806 409.622 271.426 410.283C303.892 410.941 328.39 380.548 353.184 359.566C374.261 341.73 401.216 324.023 405.585 296.752C410.283 267.431 391.351 239.458 376.551 213.717C367.075 197.236 330.065 193.24 335.612 175.054C348.798 131.819 414.583 116.015 420.035 71.1419C423.504 42.5983 383.491 19.2415 354.903 16.2842Z" stroke="#6260FF" stroke-width="1.28384"/>
<path d="M356.357 13.3348C324.84 10.0745 295.648 32.9504 271.498 53.472C253.064 69.1372 259.874 118.95 235.908 115.688C171.494 106.922 130.515 19.8804 65.7485 25.4699C27.0618 28.8087 3.81674 102.388 26.7483 133.739C63.8457 184.457 141.899 178.286 198.084 206.393C207.973 211.34 220.819 219.486 220.233 230.531C217.874 275.006 178 316.064 189.995 358.954C198.931 390.909 238.339 413.174 271.498 413.846C304.502 414.515 329.405 383.619 354.608 362.291C376.034 344.16 403.435 326.16 407.876 298.438C412.651 268.633 393.407 240.197 378.362 214.031C368.729 197.278 331.108 193.215 336.746 174.729C350.15 130.779 417.023 114.714 422.565 69.0993C426.091 40.0838 385.417 16.341 356.357 13.3348Z" stroke="#6260FF" stroke-width="1.28384"/>
<path d="M357.81 10.3854C325.78 7.07208 296.114 30.3199 271.571 51.1752C252.837 67.0952 259.758 117.718 235.402 114.403C169.94 105.494 128.295 17.0374 62.4749 22.7178C23.159 26.1109 -0.464189 100.887 22.8404 132.748C60.5412 184.29 139.864 178.019 196.963 206.583C207.013 211.61 220.067 219.888 219.472 231.113C217.075 276.312 176.552 318.037 188.742 361.625C197.823 394.099 237.873 416.726 271.571 417.409C305.111 418.088 330.42 386.69 356.033 365.015C377.807 346.59 405.653 328.297 410.167 300.125C415.02 269.834 395.462 240.936 380.173 214.345C370.383 197.319 332.15 193.191 337.88 174.404C351.502 129.739 419.462 113.413 425.095 67.0566C428.678 37.5694 387.342 13.4404 357.81 10.3854Z" stroke="#6260FF" stroke-width="1.28384"/>
<path d="M359.264 7.43651C326.721 4.07017 296.58 27.69 271.645 48.8789C252.611 65.0536 259.642 116.486 234.897 113.119C168.387 104.067 126.076 14.195 59.2022 19.9663C19.2571 23.4136 -4.74414 99.3861 18.9334 131.757C57.2376 184.124 137.83 177.752 195.843 206.773C206.053 211.881 219.317 220.291 218.712 231.696C216.277 277.618 175.105 320.01 187.49 364.295C196.717 397.289 237.408 420.278 271.645 420.972C305.722 421.663 331.435 389.762 357.459 367.74C379.581 349.02 407.873 330.435 412.459 301.812C417.39 271.037 397.519 241.676 381.985 214.66C372.039 197.361 333.193 193.167 339.015 174.08C352.855 128.7 421.903 112.113 427.626 65.0144C431.266 35.0554 389.269 10.5404 359.264 7.43651Z" stroke="#6260FF" stroke-width="1.28384"/>
<path d="M360.717 4.48712C327.662 1.06777 297.046 25.0595 271.718 46.5822C252.384 63.0116 259.526 115.254 234.391 111.833C166.834 102.639 123.855 11.352 55.9286 17.2142C15.3542 20.7158 -9.02507 97.8847 15.0254 130.765C53.933 183.957 135.795 177.484 194.722 206.963C205.093 212.151 218.565 220.694 217.951 232.278C215.477 278.923 173.657 321.983 186.237 366.966C195.61 400.479 236.941 423.83 271.718 424.535C306.332 425.236 332.45 392.833 358.883 370.465C381.354 351.45 410.092 332.572 414.75 303.498C419.758 272.238 399.575 242.415 383.796 214.973C373.693 197.403 334.236 193.142 340.149 173.754C354.207 127.66 424.343 110.812 430.156 62.9717C433.854 32.5409 391.195 7.63992 360.717 4.48712Z" stroke="#6260FF" stroke-width="1.28384"/>
</svg>
