<svg width="373" height="433" viewBox="0 0 373 433" fill="none" xmlns="http://www.w3.org/2000/svg">
<path fill-rule="evenodd" clip-rule="evenodd" d="M195.001 24.9822C231.019 26.0683 268.971 -2.44886 301.152 13.7391C333.465 29.9929 342.768 72.1178 355.749 105.842C366.572 133.959 375.796 164.205 370.483 193.857C365.582 221.208 334.965 237.292 327.405 264.031C320.374 288.9 335.305 315.502 329.002 340.565C321.267 371.328 314.573 408.881 287.016 424.654C259.98 440.127 225.078 425.396 195.001 417.26C169.025 410.233 145.707 396.803 124.224 380.616C105.116 366.219 84.6515 350.626 76.6616 328.093C68.9324 306.295 92.396 280.086 81.3676 259.753C64.3038 228.293 9.4354 224.705 1.64323 189.783C-4.69541 161.375 37.6068 144.652 49.7853 118.211C66.2588 82.4437 52.5553 28.5325 85.7173 7.24255C117.155 -12.9407 157.644 23.8556 195.001 24.9822Z" stroke="#6260FF" stroke-width="1.28384"/>
<path fill-rule="evenodd" clip-rule="evenodd" d="M188.673 167.834C197.834 168.11 207.487 160.883 215.672 164.985C223.891 169.104 226.257 179.779 229.559 188.325C232.311 195.45 234.657 203.114 233.306 210.628C232.06 217.559 224.272 221.635 222.349 228.411C220.561 234.713 224.359 241.454 222.756 247.805C220.788 255.6 219.086 265.117 212.077 269.113C205.2 273.035 196.323 269.302 188.673 267.24C182.066 265.459 176.135 262.056 170.671 257.954C165.811 254.306 160.606 250.354 158.574 244.644C156.608 239.121 162.576 232.479 159.771 227.327C155.431 219.354 141.476 218.445 139.494 209.596C137.881 202.397 148.641 198.159 151.738 191.459C155.928 182.395 152.443 168.734 160.877 163.339C168.874 158.224 179.172 167.549 188.673 167.834Z" stroke="#6260FF" stroke-width="1.28384"/>
<path d="M299.477 16.7049C267.766 0.753919 230.369 28.8536 194.878 27.7834C158.066 26.6733 118.17 -9.58428 87.1916 10.3035C54.5145 31.2817 68.0175 84.4038 51.7849 119.647C39.7844 145.702 -1.89925 162.179 4.34671 190.171C12.025 224.582 66.0912 228.117 82.9055 259.117C93.7726 279.152 70.6521 304.978 78.2682 326.457C86.1414 348.66 106.306 364.024 125.135 378.212C146.304 394.162 169.282 407.395 194.878 414.319C224.515 422.336 258.907 436.851 285.547 421.604C312.701 406.063 319.297 369.059 326.92 338.746C333.13 314.05 318.417 287.837 325.346 263.333C332.795 236.985 362.965 221.136 367.794 194.186C373.029 164.968 363.94 135.165 353.275 107.459C340.484 74.229 331.317 32.7208 299.477 16.7049Z" stroke="#6260FF" stroke-width="1.28384"/>
<path d="M297.8 19.6702C266.56 3.95621 229.717 31.6385 194.753 30.5841C158.488 29.4906 119.184 -6.22839 88.6649 13.3639C56.4726 34.0305 69.7753 86.3633 53.7836 121.083C41.9611 146.751 0.895933 162.983 7.04922 190.56C14.6135 224.459 67.8775 227.942 84.4424 258.481C95.1482 278.219 72.3708 303.661 79.8739 324.82C87.6302 346.694 107.496 361.83 126.046 375.806C146.9 391.519 169.537 404.556 194.753 411.377C223.951 419.275 257.832 433.575 284.077 418.554C310.829 403.243 317.327 366.79 324.836 336.927C330.954 312.598 316.46 286.774 323.285 262.634C330.625 236.677 360.346 221.064 365.103 194.515C370.261 165.731 361.307 136.371 350.801 109.076C338.199 76.3397 329.168 35.4482 297.8 19.6702Z" stroke="#6260FF" stroke-width="1.28384"/>
<path d="M296.125 22.636C265.355 7.159 229.067 34.4238 194.63 33.3853C158.911 32.3083 120.198 -2.87202 90.1391 16.4248C58.4317 36.7797 71.5341 88.3233 55.7832 122.519C44.1388 147.8 3.69209 163.788 9.75271 190.948C17.2031 224.337 69.6649 227.767 85.9802 257.846C96.5249 277.285 74.0905 302.344 81.4806 323.184C89.1201 344.728 108.686 359.636 126.957 373.401C147.497 388.877 169.793 401.717 194.63 408.435C223.388 416.214 256.759 430.299 282.608 415.504C308.957 400.425 315.357 364.521 322.753 335.109C328.779 311.147 314.503 285.712 321.226 261.936C328.455 236.371 357.729 220.993 362.414 194.844C367.494 166.494 358.675 137.577 348.327 110.694C335.915 78.4509 327.02 38.176 296.125 22.636Z" stroke="#6260FF" stroke-width="1.28384"/>
<path d="M294.448 25.6015C264.148 10.3614 228.416 37.2087 194.505 36.1862C159.332 35.1256 121.211 0.483988 91.6119 19.4853C60.3894 39.5286 73.2914 90.283 57.7813 123.956C46.315 148.849 6.48679 164.592 12.4547 191.337C19.7912 224.214 71.4507 227.591 87.5166 257.21C97.9 276.352 75.8087 301.027 83.0858 321.548C90.6085 342.762 109.876 357.441 127.867 370.996C148.093 386.235 170.048 398.878 194.505 405.494C222.823 413.153 255.683 427.022 281.138 412.455C307.084 397.606 313.386 362.252 320.669 333.29C326.603 309.694 312.545 284.65 319.165 261.237C326.283 236.064 355.11 220.921 359.724 195.173C364.726 167.257 356.042 138.782 345.852 112.311C333.63 80.5617 324.87 40.9035 294.448 25.6015Z" stroke="#6260FF" stroke-width="1.28384"/>
<path d="M292.772 28.5673C262.943 13.5642 227.766 39.994 194.381 38.9874C159.755 37.9433 122.226 3.84036 93.0862 22.5462C62.3485 42.2778 75.0501 92.243 59.781 125.392C48.4927 149.898 9.28295 165.397 15.1582 191.725C22.3808 224.091 73.2381 227.416 89.0545 256.574C99.2766 275.418 77.5284 299.71 84.6925 319.912C92.0983 340.796 111.066 355.247 128.778 368.591C148.69 383.593 170.304 396.04 194.381 402.552C222.26 410.093 254.61 423.746 279.669 409.405C305.212 394.787 311.416 359.982 318.586 331.471C324.428 308.243 310.588 283.587 317.106 260.539C324.113 235.757 352.492 220.85 357.034 195.502C361.959 168.02 353.41 139.988 343.378 113.928C331.346 82.6729 322.722 43.6314 292.772 28.5673Z" stroke="#6260FF" stroke-width="1.28384"/>
<path d="M291.097 31.5326C261.738 16.7665 227.115 42.7789 194.258 41.7881C160.177 40.7606 123.241 7.19625 94.5605 25.6067C64.3076 45.0266 76.8089 94.2026 61.7806 126.828C50.6704 150.947 12.0791 166.201 17.8617 192.114C24.9703 223.968 75.0254 227.241 90.5923 255.938C100.653 274.485 79.248 298.392 86.2991 318.275C93.5881 338.829 112.257 353.052 129.689 366.186C149.287 380.951 170.56 393.201 194.258 399.61C221.696 407.032 253.536 420.469 278.2 406.355C303.34 391.968 309.447 357.713 316.504 329.652C322.253 306.79 308.632 282.524 315.046 259.84C321.944 235.449 349.874 220.778 354.345 195.83C359.192 168.782 350.778 141.193 340.904 115.545C329.062 84.7836 320.574 46.3588 291.097 31.5326Z" stroke="#6260FF" stroke-width="1.28384"/>
<path d="M289.42 34.4985C260.532 19.9694 226.464 45.5643 194.133 44.5895C160.599 43.5784 124.254 10.5527 96.0338 28.6677C66.2657 47.776 78.5667 96.1627 63.7792 128.264C52.8471 151.997 14.8743 167.006 20.5642 192.502C27.5589 223.846 76.8118 227.066 92.1292 255.302C102.029 273.552 80.9667 297.076 87.9048 316.639C95.077 336.864 113.447 350.858 130.6 363.781C149.884 378.309 170.816 390.362 194.133 396.669C221.132 403.972 252.462 417.193 276.73 403.305C301.467 389.149 307.476 355.444 314.42 327.833C320.077 305.339 306.674 281.462 312.986 259.142C319.773 235.143 347.256 220.707 351.655 196.159C356.424 169.546 348.145 142.399 338.429 117.163C326.777 86.895 318.425 49.0868 289.42 34.4985Z" stroke="#6260FF" stroke-width="1.28384"/>
<path d="M287.744 37.4639C259.327 23.1717 225.814 48.3491 194.009 47.3902C161.021 46.3956 125.268 13.9086 97.5075 31.7281C68.2244 50.5247 80.325 98.1223 65.7783 129.7C55.0242 153.046 17.67 167.81 23.2672 192.891C30.148 223.723 78.5987 226.89 93.6666 254.666C103.405 272.618 82.6859 295.758 89.511 315.003C96.5664 334.897 114.637 348.663 131.51 361.375C150.48 375.666 171.071 387.523 194.009 393.727C220.568 400.911 251.388 413.917 275.261 400.255C299.595 386.33 305.506 353.175 312.337 326.014C317.902 303.887 304.717 280.4 310.926 258.443C317.602 234.835 344.638 220.635 348.965 196.488C353.657 170.308 345.512 143.605 335.955 118.78C324.492 89.0057 316.277 51.8141 287.744 37.4639Z" stroke="#6260FF" stroke-width="1.28384"/>
<path d="M286.068 40.4297C258.121 26.3745 225.163 51.1345 193.885 50.1914C161.443 49.2133 126.282 17.265 98.9808 34.789C70.1825 53.274 82.0827 100.082 67.777 131.137C57.2009 154.095 20.4652 168.614 25.9697 193.279C32.7366 223.6 80.385 226.715 95.2035 254.031C104.781 271.685 84.4046 294.441 91.1167 313.367C98.0552 332.931 115.826 346.469 132.421 358.97C151.076 373.025 171.327 384.685 193.885 390.786C220.004 397.85 250.313 410.64 273.791 397.206C297.722 383.511 303.535 350.906 310.253 324.196C315.726 302.435 302.76 279.337 308.866 257.745C315.431 234.529 342.019 220.564 346.275 196.817C350.889 171.071 342.879 144.811 333.48 120.398C322.207 91.1169 314.128 54.542 286.068 40.4297Z" stroke="#6260FF" stroke-width="1.28384"/>
<path d="M284.392 43.395C256.916 29.5768 224.512 53.9193 193.761 52.9922C161.865 52.0305 127.297 20.6209 100.455 37.8495C72.1416 56.0227 83.8415 102.042 69.7766 132.573C59.3786 155.144 23.2613 169.418 28.6732 193.667C35.3261 223.477 82.1724 226.54 96.7413 253.395C106.157 270.751 86.1243 293.124 92.7233 311.73C99.5451 330.965 117.017 344.275 133.332 356.565C151.674 370.382 171.583 381.846 193.761 387.844C219.441 394.789 249.24 407.364 272.322 394.155C295.851 380.692 301.566 348.636 308.17 322.376C313.551 300.983 300.803 278.274 306.806 257.046C313.261 234.221 339.402 220.492 343.586 197.145C348.122 171.834 340.247 146.016 331.006 122.015C319.923 93.2276 311.98 57.2694 284.392 43.395Z" stroke="#6260FF" stroke-width="1.28384"/>
<path d="M282.715 46.3608C255.709 32.7796 223.861 56.7046 193.636 55.7934C162.286 54.8482 128.31 23.9773 101.928 40.9104C74.0993 58.772 85.5988 104.002 71.7747 134.009C61.5548 156.193 26.056 170.223 31.3752 194.056C37.9142 223.355 83.9583 226.365 98.2777 252.759C107.532 269.818 87.8425 291.807 94.3285 310.094C101.033 328.999 118.206 342.081 134.242 354.16C152.269 367.74 171.838 379.007 193.636 384.903C218.876 391.729 248.165 404.088 270.852 391.106C293.977 377.873 299.595 346.367 306.086 320.558C311.375 299.531 298.845 277.212 304.746 256.348C311.09 233.915 336.783 220.421 340.895 197.474C345.354 172.597 337.613 147.222 328.531 123.632C317.638 95.3388 309.831 59.9973 282.715 46.3608Z" stroke="#6260FF" stroke-width="1.28384"/>
<path d="M281.039 49.3267C254.504 35.9825 223.211 59.49 193.512 58.5947C162.709 57.6661 129.324 27.3338 103.402 43.9714C76.0584 61.5213 87.3576 105.962 73.7743 135.446C63.7325 157.243 28.8522 171.027 34.0787 194.445C40.5038 223.232 85.7456 226.19 99.8156 252.123C108.909 268.884 89.5621 290.49 95.9352 308.458C102.523 327.033 119.397 339.886 135.153 351.755C152.867 365.098 172.094 376.169 193.512 381.961C218.313 388.668 247.091 400.812 269.383 388.056C292.106 375.055 297.625 344.098 304.003 318.739C309.2 298.079 296.888 276.15 302.686 255.65C308.92 233.608 334.165 220.349 338.206 197.804C342.587 173.36 334.981 148.428 326.057 125.25C315.354 97.4501 307.683 62.7252 281.039 49.3267Z" stroke="#6260FF" stroke-width="1.28384"/>
<path d="M279.364 52.292C253.299 39.1848 222.561 62.2749 193.389 61.3955C163.132 60.4833 130.339 30.6897 104.876 47.0318C78.0175 64.2701 89.1163 107.922 75.774 136.882C65.9102 158.291 31.6483 171.831 36.7822 194.833C43.0933 223.109 87.5329 226.014 101.353 251.487C110.286 267.951 91.2818 289.172 97.5419 306.822C104.013 325.067 120.588 337.692 136.064 349.35C153.464 362.456 172.35 373.33 193.389 379.02C217.749 385.607 246.017 397.535 267.914 385.006C290.234 372.235 295.655 341.829 301.921 316.92C307.025 296.627 294.932 275.087 300.627 254.951C306.75 233.301 331.548 220.278 335.517 198.132C339.82 174.123 332.349 149.633 323.584 126.867C313.07 99.5608 305.535 65.4526 279.364 52.292Z" stroke="#6260FF" stroke-width="1.28384"/>
<path d="M277.687 55.2574C252.093 42.3871 221.909 65.0597 193.264 64.1962C163.553 63.3005 131.353 34.0455 106.35 50.0922C79.9756 67.0189 90.8741 109.881 77.7726 138.318C68.0869 159.34 34.4435 172.636 39.4847 195.221C45.6819 222.986 89.3193 225.839 102.89 250.851C111.661 267.017 93.0005 287.855 99.1476 305.185C105.502 323.1 121.777 335.497 136.975 346.944C154.06 359.814 172.605 370.491 193.264 376.078C217.185 382.546 244.943 394.258 266.444 381.956C288.361 369.416 293.685 339.56 299.837 315.101C304.849 295.175 292.974 274.024 298.566 254.253C304.579 232.993 328.929 220.206 332.827 198.461C337.052 174.886 329.716 150.839 321.109 128.484C310.785 101.671 303.386 68.18 277.687 55.2574Z" stroke="#6260FF" stroke-width="1.28384"/>
<path d="M276.012 58.2233C250.888 45.59 221.259 67.8451 193.141 66.9975C163.976 66.1184 132.367 37.402 107.824 53.1533C81.9348 69.7682 92.6329 111.841 79.7722 139.754C70.2645 160.39 37.2397 173.44 42.1882 195.61C48.2715 222.864 91.1067 225.664 104.428 250.216C113.038 266.084 94.7202 286.538 100.754 303.549C106.992 321.135 122.968 333.303 137.886 344.539C154.657 357.172 172.862 367.653 193.141 373.136C216.622 379.486 243.869 390.982 264.975 378.907C286.489 366.598 291.715 337.291 297.754 313.283C302.674 293.723 291.018 272.962 296.507 253.554C302.409 232.687 326.312 220.134 330.137 198.79C334.285 175.649 327.084 152.045 318.635 130.101C308.501 103.783 301.238 70.908 276.012 58.2233Z" stroke="#6260FF" stroke-width="1.28384"/>
<path d="M274.335 61.1886C249.682 48.7923 220.608 70.63 193.016 69.7983C164.397 68.9356 133.381 40.7579 109.297 56.2137C83.8924 72.517 94.3902 113.801 81.7704 141.19C72.4408 161.439 40.0344 174.244 44.8902 195.998C50.8596 222.741 92.8925 225.488 105.965 249.58C114.413 265.15 96.4384 285.221 102.359 301.913C108.48 319.168 124.157 331.108 138.796 342.134C155.253 354.529 173.116 364.814 193.016 370.195C216.057 376.425 242.794 387.706 263.505 375.857C284.616 363.778 289.744 335.021 295.67 311.464C300.498 292.271 289.06 271.899 294.446 252.856C300.238 232.379 323.693 220.063 327.447 199.118C331.517 176.411 324.451 153.25 316.16 131.718C306.215 105.894 299.088 73.6354 274.335 61.1886Z" stroke="#6260FF" stroke-width="1.28384"/>
<path d="M272.659 64.1544C248.477 51.995 219.958 73.4153 192.892 72.5995C164.82 71.7533 134.395 44.1143 110.771 59.2746C85.8515 75.2662 96.1489 115.761 83.77 142.627C74.6184 162.488 42.8305 175.049 47.5937 196.387C53.4491 222.618 94.6799 225.313 107.502 248.944C115.79 264.217 98.1581 283.904 103.966 300.277C109.97 317.202 125.348 328.914 139.707 339.729C155.85 351.888 173.373 361.975 192.892 367.253C215.494 373.365 241.721 384.43 262.036 372.807C282.744 360.96 287.774 332.752 293.587 309.645C298.323 290.819 287.103 270.837 292.387 252.157C298.068 232.073 321.075 219.991 324.758 199.447C328.75 177.175 321.819 154.456 313.686 133.336C303.931 108.005 296.94 76.3632 272.659 64.1544Z" stroke="#6260FF" stroke-width="1.28384"/>
<path d="M270.984 67.1197C247.272 55.1973 219.307 76.2001 192.769 75.4002C165.243 74.5705 135.41 47.4702 112.245 62.335C87.8106 78.015 97.9077 117.72 85.7696 144.063C76.7961 163.537 45.6267 175.853 50.2972 196.775C56.0387 222.495 96.4672 225.138 109.04 248.308C117.166 263.283 99.8777 282.586 105.573 298.64C111.46 315.236 126.538 326.72 140.618 337.324C156.447 349.245 173.629 359.136 192.769 364.311C214.93 370.304 240.647 381.153 260.567 369.757C280.873 358.14 285.805 330.483 291.504 307.826C296.148 289.367 285.147 269.774 290.327 251.459C295.898 231.765 318.457 219.919 322.068 199.776C325.983 177.937 319.187 155.661 311.212 134.953C301.647 110.115 294.792 79.0906 270.984 67.1197Z" stroke="#6260FF" stroke-width="1.28384"/>
<path d="M269.307 70.0857C246.065 58.4003 218.656 78.9856 192.644 78.2015C165.664 77.3883 136.423 50.8267 113.719 65.3961C89.7688 80.7644 99.6655 119.681 87.7682 145.499C78.9728 164.586 48.4219 176.658 52.9997 197.164C58.6273 222.373 98.2536 224.963 110.577 247.672C118.542 262.35 101.596 281.269 107.178 297.004C112.949 313.27 127.728 324.525 141.528 334.919C157.043 346.603 173.884 356.298 192.644 361.37C214.366 367.243 239.572 377.877 259.098 366.707C279 355.322 283.834 328.214 289.421 306.007C293.972 287.915 283.189 268.712 288.267 250.761C293.727 231.459 315.839 219.848 319.378 200.105C323.215 178.7 316.554 156.868 308.737 136.571C299.363 112.227 292.643 81.8186 269.307 70.0857Z" stroke="#6260FF" stroke-width="1.28384"/>
<path d="M267.631 73.051C244.86 61.6025 218.006 81.7704 192.52 81.0023C166.086 80.2056 137.438 54.1826 115.192 68.4565C91.7274 83.5131 101.424 121.64 89.7674 146.935C81.15 165.635 51.2176 177.462 55.7027 197.552C61.2163 222.25 100.04 224.787 112.115 247.036C119.918 261.416 103.316 279.952 108.785 295.368C114.438 311.304 128.918 322.331 142.439 332.513C157.64 343.961 174.14 353.459 192.52 358.428C213.802 364.182 238.498 374.6 257.628 363.657C277.128 352.503 281.864 325.944 287.337 304.188C291.797 286.463 281.232 267.649 286.207 250.062C291.557 231.151 313.221 219.776 316.688 200.434C320.448 179.463 313.921 158.073 306.263 138.188C297.078 114.337 290.495 84.546 267.631 73.051Z" stroke="#6260FF" stroke-width="1.28384"/>
<path d="M265.955 76.0168C243.654 64.8053 217.355 84.5557 192.396 83.8035C166.508 83.0233 138.451 57.5389 116.666 71.5174C93.6855 86.2624 103.182 123.6 91.766 148.372C83.3267 166.685 54.0127 178.266 58.4052 197.941C63.8049 222.127 101.827 224.612 113.651 246.401C121.294 260.483 105.034 278.635 110.39 293.732C115.927 309.338 130.108 320.137 143.349 330.108C158.236 341.319 174.395 350.62 192.396 355.487C213.238 361.122 237.424 371.324 256.158 360.608C275.255 349.684 279.893 323.675 285.254 302.369C289.621 285.012 279.274 266.587 284.147 249.364C289.386 230.845 310.602 219.705 313.998 200.763C317.68 180.226 311.288 159.279 303.788 139.805C294.793 116.449 288.346 87.2738 265.955 76.0168Z" stroke="#6260FF" stroke-width="1.28384"/>
<path d="M264.279 78.9827C242.449 68.0082 216.704 87.3412 192.272 86.6048C166.931 85.8411 139.466 60.8954 118.14 74.5784C95.6447 89.0117 104.94 125.56 93.7656 149.808C85.5044 167.734 56.8089 179.071 61.1087 198.33C66.3945 222.005 103.614 224.437 115.189 245.765C122.67 259.55 106.754 277.318 111.997 292.096C117.417 307.372 131.299 317.943 144.261 327.704C158.833 338.677 174.652 347.782 192.272 352.546C212.675 358.061 236.35 368.048 254.69 357.558C273.383 346.865 277.924 321.407 283.171 300.551C287.446 283.56 277.318 265.525 282.087 248.666C287.216 230.538 307.985 219.634 311.309 201.092C314.913 180.989 308.656 160.485 301.315 141.423C292.509 118.56 286.198 90.0018 264.279 78.9827Z" stroke="#6260FF" stroke-width="1.28384"/>
<path d="M262.602 81.948C241.242 71.2105 216.053 90.126 192.147 89.4056C167.352 88.6583 140.479 64.2513 119.613 77.6389C97.6023 91.7605 106.698 127.52 95.7638 151.244C87.6806 168.783 59.6036 179.875 63.8107 198.718C68.9826 221.882 105.4 224.261 116.726 245.129C124.045 258.616 108.472 276.001 113.602 290.459C118.905 305.406 132.488 315.748 145.171 325.298C159.429 336.035 174.906 344.943 192.147 349.604C212.11 355 235.275 364.772 253.219 354.508C271.51 344.046 275.953 319.137 281.087 298.732C285.27 282.108 275.36 264.462 280.027 247.967C285.045 230.231 305.366 219.562 308.618 201.42C312.145 181.752 306.023 161.69 298.839 143.04C290.224 120.671 284.049 92.7292 262.602 81.948Z" stroke="#6260FF" stroke-width="1.28384"/>
<path d="M260.927 84.9138C240.037 74.4133 215.403 92.9113 192.024 92.2068C167.775 91.476 141.494 67.6077 121.087 80.6998C99.5614 94.5097 108.456 129.48 97.7634 152.68C89.8582 169.832 62.3998 180.679 66.5142 199.107C71.5721 221.759 107.187 224.086 118.264 244.494C125.422 257.683 110.192 274.684 115.209 288.823C120.395 303.44 133.678 313.554 146.082 322.893C160.026 333.393 175.163 342.104 192.024 346.662C211.547 351.94 234.202 361.496 251.75 351.458C269.638 341.227 273.983 316.868 279.004 296.913C283.095 280.656 273.403 263.4 277.967 247.269C282.875 229.924 302.748 219.491 305.929 201.75C309.378 182.515 303.391 162.896 296.366 144.657C287.94 122.782 281.901 95.4571 260.927 84.9138Z" stroke="#6260FF" stroke-width="1.28384"/>
<path d="M259.251 87.8793C238.832 77.6157 214.752 95.6963 191.9 95.0076C168.197 94.2934 142.508 70.9637 122.561 83.7603C101.521 97.2586 110.215 131.44 99.763 154.117C92.0359 170.881 65.1959 181.484 69.2177 199.495C74.1617 221.636 108.975 223.911 119.801 243.858C126.799 256.749 111.912 273.367 116.816 287.187C121.885 301.473 134.869 311.359 146.993 320.488C160.623 330.751 175.419 339.265 191.9 343.721C210.983 348.879 233.128 358.219 250.282 348.408C267.766 338.408 272.013 314.599 276.921 295.094C280.92 279.204 271.447 262.337 275.908 246.57C280.705 229.617 300.131 219.419 303.24 202.078C306.611 183.278 300.759 164.102 293.892 146.274C285.656 124.893 279.753 98.1846 259.251 87.8793Z" stroke="#6260FF" stroke-width="1.28384"/>
<path d="M257.574 90.8451C237.626 80.8185 214.101 98.4816 191.776 97.8089C168.619 97.1111 143.522 74.3201 124.035 86.8212C103.479 100.008 111.973 133.4 101.762 155.553C94.2126 171.931 67.9911 182.288 71.9202 199.884C76.7503 221.514 110.761 223.736 121.338 243.222C128.174 255.816 113.63 272.05 118.421 285.551C123.374 299.507 136.059 309.165 147.903 318.083C161.22 328.109 175.674 336.427 191.776 340.779C210.419 345.819 232.053 354.943 248.812 345.359C265.894 335.59 270.043 312.33 274.838 293.276C278.744 277.752 269.489 261.275 273.848 245.872C278.534 229.31 297.512 219.348 300.55 202.407C303.843 184.041 298.126 165.308 291.417 147.892C283.371 127.004 277.604 100.912 257.574 90.8451Z" stroke="#6260FF" stroke-width="1.28384"/>
<path d="M255.899 93.8104C236.421 84.0208 213.451 101.266 191.652 100.61C169.042 99.9283 144.536 77.676 125.509 89.8816C105.438 102.757 113.732 135.359 103.761 156.989C96.3903 172.98 70.7873 183.092 74.6237 200.272C79.3398 221.391 112.548 223.56 122.876 242.586C129.551 254.882 115.35 270.732 120.028 283.914C124.864 297.541 137.249 306.97 148.815 315.677C161.817 325.466 175.93 333.588 191.652 337.837C209.856 342.758 230.98 351.666 247.343 342.309C264.022 332.77 268.073 310.06 272.755 291.456C276.569 276.3 267.532 260.212 271.788 245.173C276.364 229.002 294.895 219.276 297.861 202.736C301.076 184.804 295.494 166.513 288.943 149.509C281.087 129.115 275.456 103.64 255.899 93.8104Z" stroke="#6260FF" stroke-width="1.28384"/>
<path d="M254.222 96.7763C235.215 87.2237 212.8 104.052 191.527 103.411C169.463 102.746 145.55 81.0325 126.982 92.9427C107.396 105.506 115.489 137.319 105.76 158.426C98.567 174.029 73.5825 183.897 77.3262 200.661C81.9284 221.268 114.335 223.385 124.413 241.95C130.927 253.949 117.069 269.415 121.634 282.278C126.353 295.575 138.439 304.776 149.725 313.273C162.413 322.825 176.186 330.75 191.527 334.896C209.292 339.697 229.905 348.39 245.873 339.259C262.149 329.952 266.102 307.792 270.671 289.638C274.393 274.848 265.575 259.15 269.728 244.475C274.193 228.696 292.276 219.205 295.17 203.065C298.308 185.567 292.861 167.719 286.468 151.127C278.802 131.226 273.307 106.368 254.222 96.7763Z" stroke="#6260FF" stroke-width="1.28384"/>
<path d="M252.547 99.7421C234.01 90.4265 212.15 106.837 191.404 106.212C169.886 105.564 146.565 84.3888 128.456 96.0036C109.355 108.255 117.248 139.279 107.76 159.862C100.745 175.078 76.3786 184.702 80.0297 201.049C84.518 221.146 116.122 223.21 125.951 241.315C132.303 253.016 118.788 268.098 123.24 280.642C127.842 293.609 139.63 302.582 150.636 310.868C163.01 320.183 176.442 327.911 191.404 331.955C208.728 336.637 228.832 345.114 244.404 336.21C260.277 327.133 264.133 305.523 268.588 287.819C272.219 273.397 263.618 258.088 267.668 243.777C272.023 228.389 289.658 219.133 292.481 203.394C295.542 186.33 290.229 168.925 283.995 152.744C276.518 133.337 271.159 109.096 252.547 99.7421Z" stroke="#6260FF" stroke-width="1.28384"/>
<path d="M250.87 102.707C232.804 93.6288 211.498 109.622 191.279 109.013C170.307 108.381 147.578 87.7447 129.929 99.064C111.313 111.004 119.006 141.239 109.758 161.298C102.921 176.127 79.1733 185.506 82.7317 201.437C87.1061 221.023 117.908 223.035 127.487 240.679C133.678 252.082 120.506 266.781 124.845 279.006C129.331 291.643 140.819 300.387 151.546 308.462C163.606 317.54 176.697 325.072 191.279 329.013C208.164 333.576 227.757 341.838 242.934 333.159C258.404 324.314 262.162 303.253 266.504 286C270.042 271.944 261.66 257.025 265.608 243.078C269.852 228.082 287.039 219.061 289.791 203.723C292.773 187.093 287.595 170.13 281.519 154.361C274.232 135.448 269.009 111.823 250.87 102.707Z" stroke="#6260FF" stroke-width="1.28384"/>
<path d="M249.194 105.673C231.599 96.8311 210.848 112.407 191.155 111.814C170.73 111.198 148.592 91.1006 131.403 102.124C113.272 113.753 120.764 143.198 111.757 162.734C105.099 177.176 81.9695 186.31 85.4352 201.826C89.6956 220.9 119.695 222.859 129.025 240.042C135.055 251.148 122.226 265.463 126.452 277.369C130.821 289.676 142.01 298.193 152.457 306.057C164.203 314.898 176.953 322.233 191.155 326.071C207.6 330.515 226.683 338.561 241.465 330.109C256.532 321.495 260.192 300.984 264.422 284.181C267.867 270.492 259.704 255.962 263.548 242.379C267.682 227.774 284.422 218.99 287.101 204.051C290.006 187.855 284.963 171.336 279.046 155.978C271.948 137.559 266.861 114.55 249.194 105.673Z" stroke="#6260FF" stroke-width="1.28384"/>
<path d="M247.518 108.639C230.393 100.034 210.198 115.192 191.031 114.615C171.152 114.016 149.607 94.4571 132.877 105.185C115.23 116.502 122.523 145.159 113.756 164.17C107.276 178.226 84.7652 187.114 88.1382 202.214C92.2847 220.777 121.482 222.684 130.563 239.407C136.431 250.215 123.945 264.147 128.058 275.733C132.31 287.711 143.2 295.999 153.368 303.652C164.8 312.256 177.209 319.395 191.031 323.13C207.037 327.455 225.609 335.285 239.996 327.06C254.66 318.676 258.222 298.715 262.338 282.363C265.692 269.041 257.747 254.9 261.488 241.681C265.511 227.468 281.804 218.918 284.412 204.38C287.239 188.619 282.331 172.542 276.571 157.596C269.664 139.67 264.713 117.278 247.518 108.639Z" stroke="#6260FF" stroke-width="1.28384"/>
<path d="M245.842 111.604C229.187 103.236 209.546 117.977 190.907 117.416C171.574 116.833 150.62 97.813 134.35 108.246C117.189 119.251 124.28 147.118 115.755 165.606C109.452 179.274 87.5603 187.918 90.8407 202.603C94.8733 220.654 123.269 222.509 132.099 238.771C137.807 249.281 125.664 262.829 129.664 274.097C133.799 285.744 144.389 293.804 154.278 301.247C165.396 309.614 177.464 316.556 190.907 320.188C206.472 324.394 224.534 332.008 238.526 324.01C252.787 315.857 256.251 296.445 260.255 280.543C263.516 267.588 255.789 253.837 259.428 240.982C263.341 227.16 279.185 218.846 281.721 204.709C284.471 189.381 279.698 173.747 274.097 159.213C267.379 141.781 262.564 120.006 245.842 111.604Z" stroke="#6260FF" stroke-width="1.28384"/>
<path d="M244.166 114.57C227.982 106.439 208.896 120.762 190.783 120.217C171.996 119.651 151.635 101.169 135.825 111.307C119.148 122 126.039 149.078 117.755 167.043C111.63 180.324 90.3565 188.723 93.5442 202.991C97.4628 220.532 125.056 222.334 133.637 238.135C139.183 248.348 127.384 261.512 131.271 272.461C135.289 283.778 145.58 291.61 155.19 298.842C165.993 306.972 177.72 313.717 190.783 317.247C205.909 321.333 223.461 328.732 237.057 320.96C250.915 313.038 254.282 294.176 258.172 278.725C261.341 266.137 253.833 252.775 257.369 240.284C261.171 226.854 276.568 218.775 279.032 205.038C281.704 190.144 277.066 174.953 271.623 160.83C265.095 143.892 260.416 122.734 244.166 114.57Z" stroke="#6260FF" stroke-width="1.28384"/>
<path d="M242.489 117.536C226.776 109.642 208.245 123.548 190.658 123.018C172.417 122.469 152.648 104.526 137.298 114.368C121.105 124.749 127.796 151.038 119.753 168.479C113.806 181.373 93.1512 189.527 96.2462 203.38C100.051 220.409 126.842 222.159 135.174 237.5C140.559 247.415 129.102 260.195 132.876 270.825C136.777 281.812 146.769 289.416 156.099 296.437C166.589 304.33 177.975 310.879 190.658 314.305C205.344 318.273 222.386 325.456 235.587 317.911C249.042 310.219 252.311 291.907 256.088 276.906C259.165 264.685 251.875 251.713 255.308 239.586C258.999 226.547 273.949 218.704 276.342 205.367C278.936 190.908 274.432 176.159 269.148 162.448C262.809 146.003 258.267 125.462 242.489 117.536Z" stroke="#6260FF" stroke-width="1.28384"/>
<path d="M240.814 120.501C225.571 112.844 207.595 126.333 190.535 125.819C172.84 125.286 153.663 107.882 138.772 117.428C123.064 127.498 129.555 152.998 121.752 169.915C115.984 182.422 95.9474 190.332 98.9497 203.768C102.64 220.286 128.629 221.983 136.712 236.864C141.935 246.481 130.822 258.878 134.482 269.188C138.267 279.846 147.96 287.221 157.011 294.031C167.186 301.688 178.231 308.04 190.535 311.363C204.781 315.212 221.312 322.18 234.118 314.861C247.17 307.4 250.341 289.638 254.005 275.087C256.99 263.233 249.918 250.65 253.248 238.887C256.829 226.24 271.331 218.632 273.652 205.696C276.169 191.67 271.8 177.364 266.674 164.065C260.525 148.114 256.119 128.189 240.814 120.501Z" stroke="#6260FF" stroke-width="1.28384"/>
<path d="M239.137 123.467C224.365 116.047 206.943 129.118 190.41 128.62C173.262 128.104 154.676 111.238 140.245 120.489C125.023 130.247 131.313 154.958 123.751 171.352C118.161 183.471 98.7425 191.136 101.652 204.157C105.229 220.164 130.416 221.808 138.248 236.228C143.311 245.548 132.54 257.561 136.088 267.552C139.756 277.88 149.15 285.027 157.921 291.626C167.782 299.046 178.486 305.201 190.41 308.422C204.217 312.151 220.238 318.903 232.648 311.811C245.298 304.582 248.37 287.369 251.921 273.269C254.814 261.781 247.96 249.588 251.188 238.189C254.659 225.933 268.713 218.561 270.962 206.025C273.401 192.433 269.167 178.57 264.199 165.682C258.24 150.225 253.97 130.917 239.137 123.467Z" stroke="#6260FF" stroke-width="1.28384"/>
<path d="M237.462 126.432C223.16 119.249 206.293 131.903 190.287 131.421C173.684 130.921 155.691 114.594 141.719 123.55C126.982 132.996 133.072 156.918 125.751 172.788C120.338 184.52 101.539 191.94 104.356 204.545C107.819 220.041 132.203 221.633 139.786 235.592C144.687 244.614 134.26 256.244 137.695 265.916C141.246 275.914 150.34 282.832 158.832 289.221C168.379 296.403 178.743 302.362 190.287 305.48C203.653 309.09 219.164 315.627 231.179 308.761C243.426 301.763 246.401 285.1 249.839 271.45C252.639 260.329 246.004 248.525 249.129 237.49C252.489 225.626 266.095 218.489 268.273 206.353C270.634 193.196 266.535 179.776 261.725 167.3C255.956 152.336 251.822 133.644 237.462 126.432Z" stroke="#6260FF" stroke-width="1.28384"/>
<path d="M235.786 129.398C221.955 122.452 205.643 134.688 190.163 134.222C174.107 133.738 156.705 117.95 143.194 126.61C128.941 135.745 134.83 158.877 127.75 174.224C122.516 185.569 104.335 192.744 107.059 204.933C110.408 219.918 133.99 221.457 141.324 234.956C146.064 243.68 135.98 254.926 139.301 264.279C142.736 273.947 151.531 280.638 159.744 286.816C168.977 293.761 178.999 299.523 190.163 302.538C203.09 306.029 218.091 312.35 229.71 305.711C241.554 298.943 244.431 282.83 247.756 269.63C250.464 258.877 244.047 247.462 247.069 236.792C250.319 225.318 263.478 218.417 265.584 206.682C267.867 193.959 263.903 180.981 259.251 168.916C253.672 154.446 249.674 136.372 235.786 129.398Z" stroke="#6260FF" stroke-width="1.28384"/>
<path d="M234.109 132.363C220.749 125.655 204.992 137.473 190.039 137.023C174.529 136.556 157.719 121.306 144.667 129.671C130.899 138.494 136.588 160.837 129.749 175.66C124.693 186.619 107.13 193.549 109.762 205.322C112.997 219.795 135.777 221.282 142.861 234.32C147.44 242.747 137.698 253.609 140.907 262.643C144.224 271.982 152.72 278.444 160.654 284.411C169.573 291.119 179.254 296.685 190.039 299.597C202.526 302.969 217.016 309.074 228.24 302.661C239.681 296.125 242.46 280.561 245.672 267.812C248.289 257.425 242.09 246.4 245.009 236.093C248.148 225.012 260.859 218.346 262.894 207.011C265.099 194.722 261.27 182.187 256.777 170.534C251.387 156.558 247.525 139.1 234.109 132.363Z" stroke="#6260FF" stroke-width="1.28384"/>
<path d="M232.434 135.329C219.544 128.857 204.342 140.258 189.915 139.824C174.951 139.373 158.734 124.662 146.141 132.731C132.858 141.243 138.347 162.797 131.749 177.096C126.87 187.667 109.926 194.353 112.465 205.71C115.586 219.672 137.564 221.106 144.399 233.684C148.816 241.813 139.418 252.292 142.514 261.006C145.714 270.015 153.911 276.249 161.565 282.005C170.17 288.477 179.51 293.846 189.915 296.655C201.962 299.908 215.942 305.797 226.771 299.611C237.81 293.305 240.491 278.292 243.589 265.993C246.114 255.973 240.133 245.337 242.95 235.395C245.978 224.704 258.241 218.274 260.204 207.339C262.333 195.484 258.638 183.392 254.303 172.151C249.103 158.668 245.377 141.827 232.434 135.329Z" stroke="#6260FF" stroke-width="1.28384"/>
<path d="M230.757 138.295C218.337 132.06 203.69 143.043 189.79 142.625C175.373 142.191 159.747 128.019 147.614 135.792C134.816 143.992 140.104 164.757 133.747 178.533C129.047 188.717 112.721 195.158 115.167 206.099C118.174 219.55 139.35 220.932 145.935 233.049C150.191 240.88 141.136 250.975 144.119 259.37C147.203 268.049 155.1 274.055 162.475 279.6C170.766 285.835 179.765 291.007 189.79 293.714C201.398 296.848 214.867 302.521 225.301 296.562C235.936 290.487 238.52 276.023 241.505 264.174C243.937 254.521 238.175 244.275 240.889 234.696C243.806 224.398 255.622 218.203 257.514 207.668C259.564 196.248 256.004 184.598 251.828 173.769C246.818 160.78 243.227 144.555 230.757 138.295Z" stroke="#6260FF" stroke-width="1.28384"/>
<path d="M229.081 141.26C217.132 135.262 203.04 145.828 189.666 145.426C175.795 145.008 160.762 131.375 149.088 138.853C136.775 146.741 141.863 166.716 135.746 179.969C131.224 189.766 115.517 195.962 117.871 206.487C120.764 219.427 141.137 220.756 147.473 232.413C151.568 239.946 142.856 249.658 145.726 257.734C148.692 266.083 156.291 271.86 163.386 277.195C171.363 283.193 180.021 288.168 189.666 290.772C200.834 293.787 213.794 299.245 223.832 293.512C234.065 287.668 236.55 273.754 239.422 262.355C241.762 253.069 236.218 243.212 238.829 233.998C241.637 224.09 253.005 218.131 254.825 207.997C256.797 197.01 253.372 185.804 249.354 175.386C244.534 162.89 241.079 147.282 229.081 141.26Z" stroke="#6260FF" stroke-width="1.28384"/>
<path d="M227.405 144.226C215.927 138.465 202.389 148.614 189.542 148.227C176.217 147.826 161.776 134.731 150.562 141.914C138.733 149.491 143.621 168.677 137.745 181.405C133.401 190.815 118.313 196.767 120.574 206.876C123.353 219.304 142.924 220.581 149.011 231.777C152.944 239.013 144.575 248.341 147.332 256.098C150.182 264.117 157.481 269.666 164.297 274.79C171.96 280.551 180.277 285.33 189.542 287.831C200.271 290.726 212.72 295.969 222.363 290.462C232.192 284.849 234.58 271.485 237.339 260.537C239.587 251.617 234.261 242.15 236.769 233.3C239.466 223.784 250.387 218.06 252.135 208.326C254.03 197.774 250.74 187.01 246.879 177.003C242.249 165.002 238.931 150.01 227.405 144.226Z" stroke="#6260FF" stroke-width="1.28384"/>
<path d="M225.729 147.191C214.721 141.667 201.738 151.398 189.418 151.028C176.639 150.643 162.789 138.087 152.035 144.974C140.692 152.239 145.379 170.636 139.744 182.841C135.578 191.864 121.108 197.57 123.276 207.264C125.942 219.181 144.71 220.405 150.547 231.141C154.32 238.079 146.294 247.023 148.938 254.461C151.671 262.151 158.671 267.471 165.207 272.385C172.556 277.908 180.532 282.491 189.418 284.889C199.706 287.665 211.645 292.692 220.893 287.412C230.32 282.03 232.609 269.215 235.255 258.717C237.411 250.165 232.304 241.087 234.709 232.601C237.295 223.476 247.768 217.988 249.445 208.655C251.262 198.536 248.107 188.215 244.405 178.62C239.964 167.112 236.782 152.738 225.729 147.191Z" stroke="#6260FF" stroke-width="1.28384"/>
<path d="M224.053 150.157C213.516 144.87 201.088 154.184 189.294 153.829C177.062 153.461 163.804 141.443 153.51 148.035C142.651 154.989 147.138 172.596 141.744 184.278C137.756 192.914 123.904 198.375 125.98 207.653C128.531 219.059 146.498 220.231 152.085 230.506C155.696 237.146 148.013 245.706 150.544 252.826C153.161 260.185 159.861 265.277 166.118 269.98C173.153 275.266 180.789 279.653 189.294 281.948C199.143 284.605 210.572 289.416 219.424 284.362C228.448 279.211 230.64 266.946 233.173 256.899C235.236 248.713 230.347 240.025 232.65 231.903C235.125 223.17 245.151 217.917 246.755 208.984C248.495 199.299 245.475 189.421 241.931 180.238C237.68 169.224 234.634 155.466 224.053 150.157Z" stroke="#6260FF" stroke-width="1.28384"/>
<path d="M222.377 153.122C212.31 148.072 200.437 156.969 189.17 156.63C177.483 156.278 164.818 144.799 154.983 151.096C144.609 157.737 148.896 174.556 143.742 185.713C139.933 193.962 126.699 199.179 128.682 208.041C131.12 218.936 148.284 220.055 153.622 229.869C157.072 236.212 149.732 244.389 152.15 251.189C154.649 258.218 161.051 263.083 167.029 267.574C173.749 272.624 181.044 276.813 189.17 279.006C198.579 281.544 209.497 286.139 217.954 281.312C226.575 276.392 228.669 264.677 231.089 255.08C233.061 247.261 228.39 238.962 230.589 231.204C232.954 222.862 242.532 217.845 244.065 209.312C245.727 200.062 242.842 190.626 239.456 181.855C235.395 171.334 232.485 158.193 222.377 153.122Z" stroke="#6260FF" stroke-width="1.28384"/>
<path d="M220.701 156.088C211.104 151.275 199.787 159.754 189.046 159.431C177.906 159.096 165.832 148.156 156.457 154.157C146.568 160.487 150.654 176.516 145.742 187.15C142.11 195.012 129.495 199.984 131.386 208.43C133.709 218.813 150.071 219.88 155.16 229.234C158.449 235.279 151.452 243.072 153.757 249.553C156.139 256.253 162.242 260.889 167.94 265.169C174.346 269.982 181.3 273.975 189.046 276.064C198.016 278.483 208.423 282.863 216.486 278.263C224.703 273.573 226.7 262.408 229.006 253.261C230.886 245.809 226.433 237.9 228.53 230.506C230.785 222.556 239.915 217.773 241.376 209.641C242.96 200.825 240.21 191.832 236.982 183.472C233.111 173.446 230.337 160.921 220.701 156.088Z" stroke="#6260FF" stroke-width="1.28384"/>
<path d="M219.024 159.054C209.898 154.478 199.135 162.539 188.921 162.232C178.327 161.914 166.845 151.512 157.93 157.218C148.526 163.236 152.412 178.476 147.74 188.587C144.286 196.061 132.29 200.788 134.088 208.819C136.297 218.691 151.857 219.705 156.696 228.598C159.824 234.346 153.17 241.755 155.362 247.917C157.628 254.287 163.431 258.694 168.85 262.765C174.942 267.34 181.555 271.137 188.921 273.123C197.451 275.423 207.348 279.587 215.015 275.213C222.83 270.755 224.728 260.139 226.922 251.443C228.709 244.358 224.475 236.838 226.469 229.808C228.613 222.249 237.296 217.702 238.685 209.971C240.192 201.588 237.576 193.038 234.507 185.09C230.826 175.557 228.188 163.649 219.024 159.054Z" stroke="#6260FF" stroke-width="1.28384"/>
<path d="M217.349 162.019C208.693 157.68 198.485 165.324 188.798 165.033C178.75 164.731 167.86 154.868 159.404 160.278C150.485 165.985 154.17 180.435 149.74 190.022C146.464 197.11 135.086 201.592 136.791 209.207C138.887 218.568 153.645 219.529 158.234 227.962C161.2 233.412 154.89 240.438 156.968 246.28C159.118 252.32 164.622 256.5 169.761 260.359C175.539 264.698 181.811 268.298 188.798 270.181C196.887 272.362 206.275 276.311 213.546 272.163C220.958 267.935 222.759 257.869 224.839 249.623C226.534 242.905 222.519 235.775 224.41 229.109C226.443 221.941 234.678 217.63 235.996 210.299C237.425 202.351 234.944 194.244 232.033 186.707C228.542 177.667 226.04 166.376 217.349 162.019Z" stroke="#6260FF" stroke-width="1.28384"/>
</svg>
