<svg width="541" height="384" viewBox="0 0 541 384" fill="none" xmlns="http://www.w3.org/2000/svg">
<path fill-rule="evenodd" clip-rule="evenodd" d="M299.294 124.671C305.8 126.811 306.098 138.655 312.852 139.785C323.571 141.577 334.105 127.977 344.133 132.169C351.911 135.42 351.732 147.569 351.669 156.01C351.609 163.946 342.898 170.27 343.79 178.155C345.299 191.498 369.119 207.151 358.359 215.16C345.808 224.503 330.261 199.898 314.623 199.865C307.349 199.85 306.445 216.373 299.294 215.036C291.303 213.542 289.416 202.203 286.494 194.606C284.604 189.692 289.541 182.349 285.451 179.041C279.674 174.37 270.416 179.194 263.651 176.132C248.575 169.308 228.79 165.405 221.974 150.308C217.084 139.477 226.626 122.882 237.795 118.862C251.795 113.823 265.831 127.792 280.642 129.19C287.091 129.8 293.139 122.646 299.294 124.671Z" stroke="#6260FF" stroke-width="1.28384"/>
<path fill-rule="evenodd" clip-rule="evenodd" d="M302.588 27.6419C327.528 35.8452 328.669 81.25 354.561 85.58C395.649 92.4509 436.029 40.3162 474.471 56.3854C504.287 68.8489 503.599 115.419 503.357 147.778C503.13 178.198 469.735 202.439 473.154 232.666C478.938 283.812 570.25 343.816 529.002 374.519C480.889 410.331 421.293 316.013 361.349 315.887C333.463 315.828 330 379.167 302.588 374.041C271.955 368.314 264.721 324.851 253.52 295.726C246.275 276.889 265.201 248.742 249.52 236.061C227.379 218.154 191.887 236.648 165.954 224.909C108.166 198.751 32.3221 183.791 6.19373 125.918C-12.5504 84.3999 24.028 20.7859 66.8405 5.37557C120.507 -13.9417 174.312 39.6051 231.087 44.9675C255.81 47.3026 278.995 19.8819 302.588 27.6419Z" stroke="#6260FF" stroke-width="1.28384"/>
<path d="M313.668 138.722C306.538 137.53 306.224 125.027 299.356 122.768C292.859 120.631 286.475 128.182 279.667 127.539C264.034 126.062 249.218 111.317 234.44 116.637C222.651 120.88 212.579 138.397 217.74 149.829C224.935 165.766 245.82 169.885 261.732 177.088C268.873 180.32 278.646 175.228 284.743 180.159C289.061 183.651 283.85 191.401 285.845 196.588C288.929 204.608 290.921 216.576 299.356 218.153C306.904 219.565 307.858 202.124 315.537 202.14C332.043 202.174 348.453 228.146 361.702 218.285C373.06 209.83 347.916 193.308 346.323 179.224C345.382 170.9 354.578 164.225 354.64 155.849L354.643 155.551C354.71 146.655 354.806 134.077 346.686 130.683C336.101 126.258 324.981 140.614 313.668 138.722Z" stroke="#6260FF" stroke-width="1.28384"/>
<path d="M314.487 137.659C306.981 136.404 306.651 123.244 299.422 120.866C292.583 118.617 285.863 126.565 278.697 125.888C262.24 124.333 246.645 108.813 231.089 114.412C218.68 118.879 208.077 137.317 213.511 149.352C221.084 166.127 243.068 170.463 259.818 178.045C267.335 181.447 277.622 176.087 284.04 181.277C288.585 184.953 283.099 193.111 285.199 198.571C288.446 207.013 290.543 219.611 299.422 221.271C307.367 222.757 308.371 204.398 316.454 204.415C333.829 204.452 351.103 231.79 365.049 221.41C377.005 212.511 350.538 195.118 348.861 180.293C347.87 171.532 357.55 164.505 357.616 155.688L357.618 155.375C357.689 146.011 357.79 132.77 349.243 129.197C338.1 124.54 326.396 139.651 314.487 137.659Z" stroke="#6260FF" stroke-width="1.28384"/>
<path d="M315.305 136.596C307.425 135.279 307.078 121.46 299.487 118.963C292.307 116.601 285.251 124.947 277.726 124.236C260.447 122.604 244.072 106.307 227.738 112.186C214.708 116.876 203.576 136.237 209.28 148.873C217.233 166.487 240.316 171.04 257.903 179.001C265.796 182.574 276.598 176.945 283.336 182.395C288.109 186.254 282.349 194.821 284.554 200.554C287.963 209.418 290.164 222.646 299.487 224.389C307.83 225.949 308.884 206.672 317.371 206.69C335.615 206.728 353.753 235.434 368.396 224.534C380.95 215.19 353.159 196.928 351.399 181.362C350.358 172.162 360.522 164.784 360.591 155.526L360.594 155.197C360.668 145.365 360.774 131.462 351.8 127.711C340.1 122.82 327.81 138.687 315.305 136.596Z" stroke="#6260FF" stroke-width="1.28384"/>
<path d="M316.123 135.534C307.867 134.153 307.504 119.676 299.552 117.061C292.029 114.586 284.637 123.329 276.754 122.585C258.652 120.875 241.497 103.802 224.386 109.961C210.736 114.875 199.073 135.157 205.049 148.395C213.38 166.847 237.562 171.617 255.987 179.958C264.256 183.7 275.572 177.804 282.632 183.513C287.631 187.556 281.597 196.531 283.907 202.537C287.478 211.823 289.785 225.681 299.552 227.507C308.292 229.141 309.396 208.946 318.287 208.965C337.4 209.005 356.401 239.078 371.742 227.659C384.893 217.87 355.779 198.738 353.935 182.431C352.845 172.793 363.493 165.064 363.565 155.365L363.568 155.02C363.646 144.72 363.756 130.155 354.355 126.225C342.098 121.102 329.223 137.724 316.123 135.534Z" stroke="#6260FF" stroke-width="1.28384"/>
<path d="M316.94 134.471C308.31 133.027 307.929 117.892 299.616 115.158C291.752 112.571 284.023 121.711 275.782 120.933C256.857 119.146 238.922 101.297 221.034 107.736C206.763 112.873 194.57 134.077 200.818 147.916C209.527 167.208 234.809 172.194 254.071 180.914C262.716 184.827 274.546 178.662 281.927 184.631C287.154 188.858 280.845 198.24 283.26 204.519C286.994 214.227 289.405 228.715 299.616 230.624C308.753 232.333 309.908 211.22 319.203 211.24C339.185 211.282 359.05 242.721 375.087 230.784C388.837 220.549 358.4 200.548 356.471 183.499C355.332 173.424 366.463 165.343 366.539 155.203L366.542 154.843C366.624 144.074 366.739 128.848 356.91 124.739C344.096 119.383 330.636 136.761 316.94 134.471Z" stroke="#6260FF" stroke-width="1.28384"/>
<path d="M317.757 133.407C308.751 131.901 308.354 116.108 299.679 113.255C291.473 110.556 283.409 120.093 274.81 119.281C255.062 117.416 236.347 98.7911 217.68 105.51C202.789 110.87 190.066 132.997 196.586 147.438C205.674 167.568 232.054 172.771 252.154 181.87C261.175 185.953 273.52 179.52 281.221 185.748C286.675 190.159 280.092 199.95 282.612 206.502C286.508 216.632 289.025 231.75 299.679 233.742C309.214 235.524 310.419 213.494 320.118 213.514C340.968 213.558 361.697 246.364 378.432 233.908C392.779 223.229 361.019 202.358 359.007 184.568C357.817 174.054 369.433 165.622 369.512 155.041L369.515 154.666C369.6 143.429 369.721 127.54 359.465 123.253C346.094 117.663 332.048 135.797 317.757 133.407Z" stroke="#6260FF" stroke-width="1.28384"/>
<path d="M318.577 132.345C309.196 130.776 308.782 114.325 299.746 111.353C291.198 108.541 282.798 118.476 273.84 117.63C253.269 115.687 233.775 96.2863 214.33 103.285C198.819 108.869 185.566 131.917 192.357 146.96C201.824 167.929 229.303 173.349 250.241 182.827C259.637 187.08 272.497 180.379 280.519 186.867C286.2 191.462 279.343 201.66 281.968 208.485C286.026 219.037 288.647 234.785 299.746 236.86C309.678 238.717 310.933 215.768 321.036 215.789C342.755 215.835 364.348 250.008 381.78 237.033C396.725 225.909 363.641 204.168 361.545 185.637C360.307 174.685 372.406 165.902 372.489 154.88L372.492 154.489C372.58 142.784 372.706 126.233 362.023 121.767C348.094 115.945 333.464 134.834 318.577 132.345Z" stroke="#6260FF" stroke-width="1.28384"/>
<path d="M319.395 131.282C309.638 129.651 309.208 112.542 299.81 109.45C290.92 106.526 282.184 116.859 272.868 115.979C251.475 113.958 231.2 93.7813 210.978 101.06C194.846 106.867 181.063 130.838 188.126 146.482C197.971 168.289 226.55 173.927 248.325 183.783C258.097 188.206 271.471 181.238 279.814 187.985C285.723 192.764 278.591 203.37 281.321 210.468C285.542 221.442 288.268 237.82 299.81 239.978C310.14 241.909 311.445 218.042 321.952 218.065C344.54 218.112 366.996 253.652 385.126 240.158C400.669 228.589 366.261 205.978 364.082 186.706C362.793 175.316 375.377 166.182 375.463 154.719L375.466 154.312C375.558 142.139 375.689 124.926 364.578 120.281C350.092 114.226 334.877 133.871 319.395 131.282Z" stroke="#6260FF" stroke-width="1.28384"/>
<path d="M320.211 130.219C310.079 128.525 309.633 110.758 299.874 107.548C290.642 104.511 281.569 115.241 271.895 114.327C249.679 112.229 228.625 91.2758 207.625 98.8347C190.872 104.865 176.559 129.757 183.893 146.003C194.118 168.65 223.796 174.504 246.408 184.739C256.556 189.333 270.444 182.096 279.108 189.103C285.244 194.065 277.838 205.079 280.673 212.45C285.056 223.847 287.887 240.854 299.874 243.095C310.6 245.101 311.956 220.316 322.867 220.339C346.324 220.389 369.644 257.296 388.471 243.282C404.611 231.268 368.88 207.788 366.617 187.775C365.279 175.947 378.347 166.461 378.436 154.557L378.439 154.135C378.535 141.493 378.67 123.618 367.132 118.795C352.09 112.507 336.289 132.908 320.211 130.219Z" stroke="#6260FF" stroke-width="1.28384"/>
<path d="M321.03 129.156C310.523 127.399 310.06 108.974 299.939 105.645C290.365 102.496 280.957 113.624 270.924 112.676C247.885 110.5 226.051 88.7709 204.274 96.6097C186.901 102.863 172.057 128.678 179.663 145.525C190.266 169.01 221.044 175.081 244.494 185.696C255.017 190.459 269.42 182.955 278.405 190.221C284.768 195.367 277.088 206.789 280.028 214.433C284.573 226.252 287.509 243.889 299.939 246.213C311.063 248.293 312.469 222.59 323.785 222.614C348.11 222.666 372.293 260.94 391.817 246.407C408.556 233.948 371.502 209.599 369.154 188.844C367.767 176.578 381.319 166.74 381.411 154.396L381.414 153.958C381.514 140.848 381.654 122.311 369.689 117.309C354.089 110.789 337.703 131.945 321.03 129.156Z" stroke="#6260FF" stroke-width="1.28384"/>
<path d="M321.847 128.094C310.965 126.274 310.486 107.191 300.004 103.743C290.088 100.482 280.343 112.006 269.953 111.025C246.091 108.771 223.477 86.266 200.921 94.3848C182.928 100.862 167.554 127.598 175.432 145.047C186.414 169.371 218.29 175.659 242.578 186.653C253.477 191.586 268.394 183.814 277.7 191.339C284.29 196.669 276.336 208.499 279.381 216.416C284.089 228.657 287.129 246.924 300.004 249.331C311.525 251.485 312.98 224.865 324.7 224.89C349.894 224.943 374.942 264.584 395.163 249.532C412.499 236.628 374.122 211.409 371.691 189.913C370.254 177.209 384.289 167.02 384.385 154.235L384.388 153.781C384.491 140.203 384.637 121.004 372.244 115.824C356.087 109.07 339.116 130.982 321.847 128.094Z" stroke="#6260FF" stroke-width="1.28384"/>
<path d="M322.665 127.031C311.408 125.148 310.912 105.407 300.068 101.84C289.81 98.4663 279.73 110.388 268.981 109.373C244.296 107.042 220.903 83.7604 197.569 92.1592C178.955 98.8593 163.052 126.518 171.201 144.569C182.561 169.731 215.537 176.236 240.662 187.609C251.937 192.712 267.369 184.672 276.995 192.457C283.813 197.971 275.584 210.208 278.734 218.398C283.604 231.061 286.75 249.959 300.068 252.449C311.986 254.677 313.492 227.139 325.617 227.164C351.679 227.219 377.59 268.227 398.509 252.656C416.443 239.307 376.742 213.219 374.227 190.981C372.741 177.839 387.26 167.299 387.359 154.073L387.363 153.603C387.469 139.557 387.62 119.696 374.8 114.337C358.086 107.351 340.529 130.018 322.665 127.031Z" stroke="#6260FF" stroke-width="1.28384"/>
<path d="M323.484 125.968C311.851 124.022 311.339 103.623 300.134 99.9374C289.534 96.451 279.117 108.77 268.01 107.721C242.503 105.312 218.329 81.255 194.218 89.9337C174.984 96.8572 158.55 125.437 166.971 144.09C178.71 170.092 212.785 176.813 238.747 188.565C250.399 193.839 266.344 185.53 276.292 193.575C283.337 199.272 274.834 211.918 278.089 220.381C283.121 233.466 286.371 252.993 300.134 255.566C312.449 257.869 314.005 229.412 326.534 229.439C353.465 229.496 380.24 271.87 401.856 255.781C420.388 241.987 379.364 215.028 376.765 192.05C375.229 178.47 390.232 167.578 390.334 153.912L390.338 153.426C390.448 138.912 390.604 118.389 377.357 112.851C360.085 105.632 341.944 129.055 323.484 125.968Z" stroke="#6260FF" stroke-width="1.28384"/>
<path d="M324.302 124.905C312.293 122.897 311.765 101.84 300.198 98.0352C289.256 94.4364 278.504 107.153 267.038 106.07C240.708 103.583 215.755 78.7501 190.866 87.7088C171.011 94.8556 154.047 124.358 162.74 143.612C174.857 170.452 210.031 177.39 236.832 189.522C248.858 194.966 265.319 186.389 275.587 194.693C282.859 200.575 274.082 213.628 277.442 222.364C282.637 235.871 285.992 256.028 300.198 258.684C312.911 261.061 314.517 231.687 327.45 231.714C355.25 231.773 382.888 275.514 405.202 258.906C424.331 244.667 381.984 216.839 379.301 193.119C377.715 179.101 393.203 167.858 393.308 153.75L393.312 153.249C393.426 138.267 393.587 117.082 379.912 111.366C362.084 103.913 343.357 128.092 324.302 124.905Z" stroke="#6260FF" stroke-width="1.28384"/>
<path d="M325.119 123.842C312.736 121.771 312.19 100.056 300.262 96.1324C288.979 92.4211 277.89 105.535 266.066 104.419C238.913 101.854 213.18 76.2446 187.514 85.4833C167.038 92.8535 149.544 123.278 158.509 143.134C171.005 170.813 207.278 177.967 234.916 190.478C247.318 196.092 264.293 187.247 274.882 195.811C282.382 201.876 273.33 215.338 276.795 224.347C282.152 238.276 285.612 259.063 300.262 261.802C313.372 264.253 315.029 233.961 328.366 233.989C357.035 234.049 385.537 279.158 408.547 262.03C428.275 247.346 384.604 218.649 381.837 194.188C380.202 179.731 396.174 168.137 396.282 153.589L396.286 153.072C396.404 137.621 396.569 115.774 382.467 109.879C364.082 102.194 344.77 127.128 325.119 123.842Z" stroke="#6260FF" stroke-width="1.28384"/>
<path d="M325.936 122.779C313.177 120.646 312.615 98.2723 300.326 94.2301C288.7 90.4063 277.276 103.918 265.093 102.767C237.117 100.125 210.605 73.7397 184.16 83.2583C163.064 90.8518 145.04 122.198 154.276 142.656C167.151 171.173 204.524 178.545 232.999 191.434C245.777 197.219 263.266 188.106 274.177 196.929C281.903 203.178 272.577 217.047 276.147 226.329C281.667 240.681 285.231 262.098 300.326 264.92C313.833 267.445 315.54 236.235 329.281 236.264C358.818 236.326 388.184 282.802 411.892 265.155C432.217 250.026 387.223 220.459 384.373 195.257C382.688 180.362 399.143 168.417 399.255 153.427L399.259 152.895C399.38 136.976 399.551 114.467 385.022 108.394C366.079 100.475 346.182 126.165 325.936 122.779Z" stroke="#6260FF" stroke-width="1.28384"/>
<path d="M326.754 121.716C313.621 119.52 313.042 96.4884 300.391 92.3273C288.424 88.3911 276.663 102.3 264.123 101.116C235.324 98.3956 208.031 71.2342 180.809 81.0328C159.093 88.8496 140.539 121.118 150.046 142.177C163.3 171.534 201.772 179.122 231.084 192.391C244.239 198.345 262.242 188.964 273.473 198.047C281.427 204.48 271.827 218.757 275.502 228.312C281.183 243.085 284.853 265.132 300.391 268.037C314.296 270.637 316.053 238.509 330.198 238.539C360.604 238.603 390.834 286.445 415.239 268.279C436.162 252.706 389.844 222.269 386.91 196.325C385.176 180.993 402.115 168.696 402.231 153.266L402.235 152.718C402.359 136.331 402.535 113.159 387.578 106.907C368.079 98.7563 347.596 125.201 326.754 121.716Z" stroke="#6260FF" stroke-width="1.28384"/>
<path d="M327.572 120.654C314.063 118.395 313.468 94.7051 300.455 90.4251C288.146 86.3764 276.05 100.683 263.151 99.4646C233.529 96.6668 205.457 68.7293 177.457 78.8079C155.12 86.8481 136.036 120.038 145.815 141.699C159.447 171.894 199.018 179.7 229.168 193.347C242.699 199.472 261.216 189.823 272.768 199.165C280.95 205.782 271.075 220.467 274.855 230.295C280.699 245.491 284.473 268.167 300.455 271.155C314.758 273.829 316.565 240.783 331.114 240.814C362.389 240.88 393.482 290.089 418.585 271.404C440.105 255.386 392.464 224.079 389.446 197.394C387.663 181.624 405.086 168.976 405.205 153.105L405.209 152.541C405.337 135.686 405.518 111.852 390.134 105.422C370.077 97.0378 349.009 124.239 327.572 120.654Z" stroke="#6260FF" stroke-width="1.28384"/>
<path d="M328.39 119.591C314.505 117.269 313.894 92.9217 300.52 88.5228C287.869 84.3616 275.436 99.0655 262.179 97.8134C231.734 94.9379 202.883 66.2244 174.105 76.5829C151.147 84.8464 131.533 118.958 141.584 141.221C155.595 172.255 196.265 180.277 227.253 194.304C241.159 200.599 260.191 190.682 272.064 200.284C280.472 207.084 270.323 222.177 274.208 232.278C280.215 247.896 284.094 271.202 300.52 274.273C315.219 277.022 317.077 243.057 332.03 243.089C364.174 243.157 396.131 293.733 421.93 274.529C444.049 258.065 395.085 225.889 391.983 198.464C390.15 182.255 408.057 169.256 408.179 152.943L408.183 152.364C408.315 135.041 408.501 110.545 392.689 103.936C372.075 95.3191 350.422 123.275 328.39 119.591Z" stroke="#6260FF" stroke-width="1.28384"/>
<path d="M329.209 118.528C314.949 116.143 314.321 91.1378 300.586 86.62C287.592 82.3464 274.824 97.4476 261.208 96.1616C229.941 93.2084 200.309 63.7189 170.754 74.3574C147.176 82.8442 127.031 117.878 137.354 140.743C151.744 172.615 193.513 180.854 225.338 195.26C239.62 201.725 259.166 191.54 271.36 201.401C279.996 208.385 269.573 223.886 273.563 234.26C279.731 250.3 283.715 274.237 300.586 277.391C315.682 280.213 317.59 245.331 332.947 245.364C365.96 245.433 398.78 297.376 425.277 277.654C447.994 260.745 397.706 227.699 394.52 199.532C392.638 182.885 411.029 169.535 411.154 152.782L411.159 152.187C411.294 134.395 411.485 109.238 395.246 102.45C374.075 93.6 351.836 122.312 329.209 118.528Z" stroke="#6260FF" stroke-width="1.28384"/>
<path d="M330.026 117.465C315.391 115.018 314.747 89.3544 300.65 84.7177C287.315 80.3316 274.21 95.8303 260.236 94.5104C228.146 91.4795 197.735 61.2139 167.401 72.1324C143.203 80.8425 122.528 116.798 133.123 140.265C147.891 172.976 190.759 181.432 223.422 196.217C238.08 202.852 258.141 192.399 270.655 202.52C279.518 209.687 268.821 225.596 272.916 236.243C279.247 252.705 283.336 277.271 300.65 280.509C316.144 283.406 318.101 247.606 333.863 247.639C367.744 247.71 401.429 301.02 428.623 280.779C451.937 263.425 400.326 229.51 397.057 200.601C395.124 183.516 414 169.814 414.128 152.621L414.133 152.01C414.271 133.75 414.467 107.931 397.801 100.964C376.073 91.8814 353.249 121.349 330.026 117.465Z" stroke="#6260FF" stroke-width="1.28384"/>
<path d="M330.844 116.402C315.834 113.892 315.172 87.5704 300.714 82.8149C287.037 78.3163 273.597 94.2124 259.265 92.8587C226.351 89.7501 195.16 58.7085 164.049 69.9069C139.23 78.8404 118.026 115.718 128.892 139.786C144.039 173.336 188.006 182.009 221.506 197.173C236.54 203.978 257.115 193.257 269.951 203.637C279.041 210.989 268.069 227.306 272.269 238.226C278.762 255.11 282.956 280.306 300.714 283.626C316.605 286.597 318.613 249.879 334.779 249.913C369.529 249.987 404.077 304.664 431.969 283.903C455.881 266.104 402.946 231.319 399.593 201.67C397.611 184.147 416.97 170.094 417.102 152.459L417.107 151.832C417.249 133.104 417.45 106.623 400.357 99.4778C378.071 90.1623 354.663 120.385 330.844 116.402Z" stroke="#6260FF" stroke-width="1.28384"/>
<path d="M331.66 115.34C316.275 112.767 315.597 85.787 300.777 80.9126C286.759 76.3016 272.982 92.595 258.292 91.2075C224.556 88.0211 192.585 56.2035 160.696 67.6819C135.257 76.8387 113.522 114.638 124.659 139.308C140.185 173.697 185.252 182.586 219.589 198.129C234.999 205.105 256.088 194.116 269.245 204.756C278.562 212.291 267.316 229.016 271.621 240.209C278.277 257.515 282.576 283.341 300.777 286.744C317.066 289.79 319.124 252.154 335.694 252.189C371.313 252.264 406.725 308.308 435.313 287.028C459.823 268.784 405.566 233.13 402.128 202.739C400.097 184.778 419.94 170.373 420.075 152.298L420.08 151.656C420.226 132.459 420.432 105.316 402.911 97.9921C380.068 88.4437 356.075 119.422 331.66 115.34Z" stroke="#6260FF" stroke-width="1.28384"/>
<path d="M332.479 114.276C316.718 111.641 316.024 84.0031 300.843 79.0098C286.482 74.2863 272.37 90.9771 257.321 89.5558C222.762 86.2917 190.011 53.698 157.345 65.4563C131.285 74.8365 109.02 113.558 120.429 138.83C136.334 174.057 182.5 183.163 217.675 199.086C233.46 206.231 255.064 194.974 268.541 205.873C278.086 213.593 266.566 230.725 270.976 242.191C277.794 259.919 282.197 286.375 300.843 289.862C317.529 292.981 319.637 254.427 336.611 254.463C373.099 254.54 409.374 311.951 438.66 290.152C463.768 271.464 408.187 234.939 404.666 203.807C402.585 185.408 422.912 170.652 423.051 152.136L423.056 151.478C423.205 131.814 423.416 104.008 405.468 96.5058C382.068 86.7245 357.489 118.459 332.479 114.276Z" stroke="#6260FF" stroke-width="1.28384"/>
<path d="M333.298 113.213C317.162 110.515 316.451 82.2192 300.909 77.107C286.206 72.271 271.757 89.3593 256.35 87.9041C220.969 84.5623 187.438 51.1926 153.994 63.2308C127.313 72.8344 104.518 112.478 116.199 138.351C132.482 174.417 179.747 183.74 215.76 200.042C231.921 207.357 254.039 195.832 267.838 206.991C277.61 214.894 265.815 232.435 270.33 244.174C277.311 262.324 281.819 289.41 300.909 292.979C317.992 296.173 320.15 256.701 337.528 256.738C374.885 256.817 412.024 315.594 442.007 293.277C467.713 274.143 410.808 236.749 407.203 204.876C405.073 186.039 425.884 170.931 426.026 151.974L426.031 151.301C426.184 131.168 426.4 102.701 408.024 95.0196C384.068 85.0054 358.903 117.495 333.298 113.213Z" stroke="#6260FF" stroke-width="1.28384"/>
<path d="M334.114 112.151C317.603 109.39 316.876 80.4358 300.972 75.2047C285.927 70.2562 271.143 87.7419 255.377 86.2529C219.173 82.8334 184.863 48.6876 150.64 61.0058C123.34 70.8327 100.014 111.398 111.967 137.873C128.629 174.778 176.993 184.318 213.843 200.998C230.38 208.484 253.013 196.691 267.132 208.109C277.131 216.196 265.062 234.145 269.682 246.157C276.825 264.729 281.438 292.445 300.972 296.097C318.452 299.365 320.661 258.976 338.443 259.013C376.668 259.094 414.671 319.238 445.352 296.402C471.655 276.823 413.427 238.56 409.739 205.945C407.559 186.67 428.854 171.211 428.999 151.813L429.004 151.124C429.16 130.523 429.381 101.394 410.579 93.5339C386.065 83.2868 360.315 116.532 334.114 112.151Z" stroke="#6260FF" stroke-width="1.28384"/>
<path d="M334.933 111.088C318.047 108.264 317.303 78.6525 301.037 73.3025C285.651 68.2416 270.53 86.1246 254.407 84.6018C217.379 81.1045 182.289 46.1827 147.289 58.7809C119.368 68.8311 95.5127 110.319 107.737 137.395C124.777 175.139 174.241 184.896 211.928 201.955C228.841 209.611 251.988 197.55 266.429 209.228C276.655 217.498 264.312 235.855 269.037 248.14C276.342 267.134 281.06 295.48 301.037 299.215C318.915 302.558 321.174 261.25 339.36 261.288C378.454 261.371 417.321 322.882 448.699 299.527C475.6 279.503 416.049 240.37 412.276 207.014C410.047 187.301 431.826 171.491 431.974 151.652L431.979 150.947C432.139 129.878 432.365 100.087 413.135 92.0482C388.064 81.5683 361.729 115.569 334.933 111.088Z" stroke="#6260FF" stroke-width="1.28384"/>
<path d="M335.751 110.025C318.489 107.138 317.729 76.8685 301.102 71.3997C285.373 66.2263 269.917 84.5068 253.435 82.9501C215.585 79.3751 179.715 43.6773 143.937 56.5554C115.395 66.829 91.0098 109.238 103.506 136.917C120.925 175.499 171.487 185.473 210.013 202.911C227.301 210.737 250.963 198.408 265.724 210.346C276.178 218.8 263.56 237.564 268.39 250.122C275.857 269.539 280.68 298.514 301.102 302.333C319.377 305.75 321.686 263.524 340.276 263.563C380.239 263.647 419.969 326.526 452.045 302.651C479.543 282.182 418.669 242.18 414.812 208.083C412.533 187.931 434.796 171.77 434.948 151.49L434.954 150.77C435.117 129.232 435.348 98.7789 415.691 90.562C390.062 79.8492 363.142 114.606 335.751 110.025Z" stroke="#6260FF" stroke-width="1.28384"/>
<path d="M336.568 108.962C318.931 106.013 318.155 75.0851 301.166 69.4974C285.096 64.2115 269.303 82.8894 252.463 81.2988C213.79 77.6462 177.14 41.1723 140.585 54.3304C111.423 64.8273 86.5069 108.159 99.2746 136.439C117.072 175.86 168.734 186.05 208.097 203.868C225.761 211.864 249.937 199.267 265.019 211.464C275.7 220.102 262.808 239.274 267.743 252.105C275.373 271.944 280.301 301.549 301.166 305.451C319.838 308.942 322.197 265.798 341.192 265.838C382.024 265.924 422.618 330.17 455.39 305.776C483.487 284.862 421.289 243.99 417.349 209.152C415.02 188.562 437.767 172.05 437.922 151.329L437.928 150.593C438.095 128.587 438.331 97.4718 418.246 89.0763C392.061 78.1305 364.555 113.643 336.568 108.962Z" stroke="#6260FF" stroke-width="1.28384"/>
<path d="M337.387 107.9C319.375 104.888 318.582 73.3017 301.232 67.595C284.819 62.1968 268.691 81.272 251.492 79.6476C211.997 75.9173 174.567 38.6673 137.234 52.1054C107.451 62.8256 82.0055 107.079 95.0448 135.961C113.221 176.221 165.982 186.628 206.182 204.825C224.223 212.991 248.913 200.125 264.316 212.582C275.224 221.404 262.058 240.984 267.098 254.088C274.89 274.349 279.922 304.584 301.232 308.569C320.301 312.134 322.711 268.072 342.109 268.113C383.81 268.201 425.268 333.814 458.737 308.901C487.432 287.542 423.911 245.8 419.886 210.221C417.508 189.193 440.739 172.329 440.898 151.168L440.903 150.416C441.074 127.942 441.315 96.1647 420.803 87.5905C394.06 76.4119 365.97 112.68 337.387 107.9Z" stroke="#6260FF" stroke-width="1.28384"/>
<path d="M338.204 106.837C319.816 103.762 319.006 71.5179 301.295 65.6924C284.541 60.1816 268.076 79.6543 250.519 77.996C210.201 74.1879 171.991 36.162 133.88 49.88C103.477 60.8236 77.5013 105.999 90.8124 135.482C109.367 176.581 163.228 187.205 204.265 205.781C222.681 214.117 247.886 200.984 263.61 213.7C274.745 222.706 261.305 242.694 266.45 256.071C274.404 276.754 279.541 307.619 301.295 311.686C320.762 315.326 323.221 270.346 343.024 270.388C385.593 270.478 427.915 337.457 462.082 312.025C491.374 290.222 426.529 247.61 422.422 211.289C419.994 189.824 443.709 172.609 443.87 151.006L443.876 150.239C444.05 127.297 444.297 94.8572 423.357 86.1044C396.057 74.6929 367.382 111.716 338.204 106.837Z" stroke="#6260FF" stroke-width="1.28384"/>
<path d="M339.022 105.774C320.26 102.636 319.433 69.7343 301.36 63.7899C284.264 58.1667 267.463 78.0368 249.548 76.3447C208.407 72.4589 169.418 33.6569 130.529 47.6549C99.5057 58.8218 72.9997 104.919 86.5823 135.004C105.516 176.942 160.475 187.782 202.351 206.737C221.143 215.244 246.861 201.842 262.906 214.818C274.269 224.008 260.554 244.404 265.804 258.054C273.921 279.159 279.163 310.654 301.36 314.804C321.224 318.518 323.734 272.62 343.941 272.663C387.379 272.755 430.564 341.101 465.429 315.15C495.319 292.902 429.151 249.421 424.959 212.358C422.482 190.455 446.681 172.888 446.846 150.845L446.851 150.062C447.029 126.652 447.28 93.55 425.914 84.6186C398.057 72.9742 368.796 110.753 339.022 105.774Z" stroke="#6260FF" stroke-width="1.28384"/>
<path d="M339.839 104.711C320.701 101.511 319.858 67.9504 301.424 61.8871C283.986 56.1515 266.849 76.4189 248.576 74.693C206.611 70.7295 166.843 31.1514 127.176 45.4294C95.532 56.8196 68.4958 103.839 82.3501 134.526C101.662 177.302 157.721 188.359 200.434 207.694C219.602 216.37 245.835 202.701 262.2 215.936C273.79 225.309 259.801 246.113 265.156 260.036C273.435 281.563 278.782 313.688 301.424 317.921C321.685 321.71 324.245 274.894 344.856 274.938C389.163 275.031 433.212 344.744 468.773 318.274C499.261 295.581 431.77 251.23 427.494 213.427C424.967 191.085 449.651 173.167 449.819 150.683L449.825 149.885C450.006 126.006 450.262 92.2424 428.468 83.1323C400.054 71.255 370.208 109.789 339.839 104.711Z" stroke="#6260FF" stroke-width="1.28384"/>
<path d="M340.658 103.648C321.145 100.385 320.285 66.1665 301.489 59.9843C283.709 54.1362 266.236 74.8011 247.605 73.0413C204.818 69.0001 164.269 28.646 123.825 43.2039C91.5604 54.8174 63.9941 102.758 78.1201 134.047C97.811 177.662 154.969 188.936 198.519 208.65C218.063 217.496 244.81 203.559 261.497 217.054C273.314 226.611 259.051 247.823 264.511 262.019C272.952 283.968 278.404 316.723 301.489 321.039C322.148 324.902 324.758 277.168 345.773 277.212C390.949 277.308 435.861 348.388 472.12 321.399C503.206 298.261 434.391 253.04 430.032 214.496C427.455 191.716 452.622 173.447 452.794 150.521L452.8 149.707C452.985 125.361 453.246 90.9348 431.025 81.6461C402.054 69.5359 371.622 108.826 340.658 103.648Z" stroke="#6260FF" stroke-width="1.28384"/>
<path d="M341.477 102.585C321.588 99.2594 320.712 64.3832 301.555 58.0821C283.433 52.1215 265.624 73.1838 246.634 71.3902C203.024 67.2712 161.696 26.1411 120.474 40.979C87.5888 52.8159 59.4924 101.679 73.8901 133.569C93.9597 178.023 152.217 189.514 196.604 209.606C216.524 218.623 243.786 204.418 260.793 218.172C272.838 227.913 258.3 249.533 263.865 264.002C272.469 286.373 278.026 319.758 301.555 324.157C322.611 328.094 325.271 279.443 346.691 279.488C392.735 279.585 438.511 352.032 475.467 324.524C507.151 300.941 437.013 254.851 432.569 215.565C429.943 192.347 455.594 173.726 455.769 150.36L455.775 149.53C455.964 124.716 456.23 89.6278 433.581 80.1605C404.053 67.8174 373.036 107.863 341.477 102.585Z" stroke="#6260FF" stroke-width="1.28384"/>
<path d="M342.293 101.523C322.029 98.134 321.137 62.5998 301.618 56.1798C283.154 50.1067 265.009 71.5664 245.661 69.739C201.229 65.5423 159.12 23.6361 117.12 38.754C83.6151 50.8142 54.9885 100.599 69.6578 133.091C90.1061 178.384 149.462 190.092 194.687 210.563C214.983 219.75 242.759 205.276 260.087 219.29C272.359 229.215 257.547 251.243 263.217 265.985C271.983 288.778 277.645 322.793 301.618 327.275C323.071 331.286 325.782 281.717 347.606 281.763C394.518 281.862 441.158 355.676 478.812 327.649C511.093 303.62 439.632 256.661 435.105 216.634C432.429 192.978 458.564 174.006 458.742 150.199L458.748 149.354C458.94 124.071 459.212 88.3207 436.136 78.6747C406.05 66.0988 374.449 106.9 342.293 101.523Z" stroke="#6260FF" stroke-width="1.28384"/>
<path d="M343.112 100.46C322.473 97.0081 321.564 60.8159 301.684 54.277C282.878 48.0915 264.397 69.9486 244.691 68.0873C199.435 63.8129 156.547 21.1307 113.769 36.5285C79.6435 48.812 50.4868 99.5189 65.4278 132.613C86.2547 178.744 146.71 190.669 192.773 211.519C213.444 220.876 241.735 206.135 259.384 220.408C271.883 230.516 256.797 252.952 262.572 267.967C271.5 291.182 277.267 325.827 301.684 330.393C323.534 334.478 326.295 283.991 348.523 284.038C396.304 284.138 443.808 359.319 482.159 330.773C515.038 306.3 442.253 258.471 437.642 217.702C434.917 193.608 461.536 174.285 461.717 150.037L461.724 149.176C461.919 123.425 462.196 87.0131 438.692 77.1885C408.05 64.3797 375.863 105.936 343.112 100.46Z" stroke="#6260FF" stroke-width="1.28384"/>
<path d="M343.928 99.397C322.914 95.8829 321.988 59.0326 301.747 52.3748C282.599 46.0768 263.782 68.3313 243.717 66.4362C197.639 62.0841 153.971 18.6258 110.416 34.3036C75.6695 46.8105 45.9827 98.4392 61.1953 132.135C82.4009 179.105 143.955 191.246 190.856 212.476C211.903 222.003 240.708 206.994 258.678 221.526C271.404 231.819 256.044 254.662 261.924 269.95C271.014 293.588 276.886 328.862 301.747 333.511C323.995 337.67 326.806 286.265 349.437 286.313C398.088 286.415 446.455 362.963 485.503 333.898C518.98 308.98 444.872 260.281 440.177 218.772C437.403 194.239 464.506 174.565 464.69 149.876L464.697 149C464.896 122.78 465.177 85.7061 441.247 75.7029C410.047 62.6612 377.275 104.973 343.928 99.397Z" stroke="#6260FF" stroke-width="1.28384"/>
<path d="M344.747 98.3339C323.358 94.757 322.415 57.2487 301.812 50.472C282.323 44.0616 263.17 66.7134 242.747 64.7845C195.845 60.3546 151.398 16.1204 107.065 32.0781C71.698 44.8083 41.481 97.359 56.9653 131.656C78.5496 179.465 141.203 191.823 188.941 213.432C210.364 223.129 239.683 207.852 257.974 222.644C270.928 233.12 255.293 256.372 261.278 271.933C270.531 295.992 276.507 331.897 301.812 336.628C324.457 340.862 327.319 288.539 350.355 288.587C399.874 288.692 449.105 366.607 488.85 337.023C522.925 311.659 447.493 262.091 442.715 219.84C439.891 194.87 467.478 174.844 467.665 149.715L467.672 148.822C467.875 122.135 468.161 84.3985 443.803 74.2167C412.046 60.942 378.689 104.01 344.747 98.3339Z" stroke="#6260FF" stroke-width="1.28384"/>
<path d="M345.564 97.2712C323.799 93.6316 322.84 55.4652 301.876 48.5697C282.044 42.0468 262.555 65.0961 241.774 63.1332C194.05 58.6257 148.823 13.6154 103.711 29.8531C67.7242 42.8066 36.9772 96.2793 52.7331 131.178C74.696 179.826 138.449 192.401 187.024 214.389C208.823 224.256 238.657 208.711 257.269 223.762C270.45 234.422 254.54 258.082 260.63 273.916C270.046 298.397 276.127 334.932 301.876 339.746C324.918 344.054 327.829 290.813 351.27 290.863C401.658 290.969 451.752 370.25 492.195 340.147C526.867 314.339 450.113 263.901 445.25 220.909C442.376 195.501 470.447 175.124 470.638 149.553L470.645 148.645C470.851 121.49 471.143 83.0914 446.358 72.7309C414.044 59.2234 380.101 103.047 345.564 97.2712Z" stroke="#6260FF" stroke-width="1.28384"/>
<path d="M346.382 96.2086C324.242 92.5062 323.267 53.6818 301.941 46.6674C281.768 40.032 261.943 63.4787 240.803 61.482C192.256 56.8968 146.249 11.1104 100.36 27.628C63.7526 40.805 32.4755 95.1995 48.503 130.7C70.8447 180.186 135.697 192.978 185.11 215.345C207.284 225.383 237.632 209.569 256.565 224.881C269.973 235.724 253.79 259.792 259.985 275.899C269.563 300.802 275.748 337.967 301.941 342.864C325.381 347.247 328.342 293.087 352.187 293.138C403.443 293.246 454.402 373.894 495.542 343.272C530.812 317.019 452.734 265.712 447.788 221.978C444.864 196.132 473.419 175.403 473.614 149.392L473.621 148.468C473.83 120.844 474.127 81.7842 448.914 71.2452C416.043 57.5048 381.515 102.084 346.382 96.2086Z" stroke="#6260FF" stroke-width="1.28384"/>
<path d="M347.201 95.1455C324.686 91.3803 323.694 51.8979 302.007 44.7646C281.491 38.0167 261.33 61.8608 239.832 59.8303C190.463 55.1673 143.676 8.60494 97.0093 25.4025C59.7811 38.8028 27.9738 94.1193 44.273 130.222C66.9933 180.547 132.945 193.555 183.195 216.302C205.745 226.509 236.608 210.428 255.862 225.998C269.497 237.026 253.039 261.501 259.339 277.881C269.079 303.207 275.37 341.001 302.007 345.981C325.844 350.438 328.855 295.361 353.104 295.412C405.229 295.522 457.051 377.538 498.889 346.397C534.757 319.699 455.355 267.521 450.325 223.047C447.352 196.762 476.391 175.683 476.589 149.231L476.596 148.291C476.809 120.199 477.111 80.4767 451.471 69.759C418.042 55.7857 382.929 101.12 347.201 95.1455Z" stroke="#6260FF" stroke-width="1.28384"/>
<path d="M348.018 94.0824C325.127 90.2545 324.119 50.114 302.07 42.8618C281.213 36.0015 260.716 60.243 238.859 58.1786C188.667 53.4379 141.1 6.09948 93.656 23.177C55.8073 36.8006 23.4699 93.0391 40.0408 129.743C63.1398 180.907 130.19 194.133 181.278 217.258C204.204 227.635 235.581 211.286 255.156 227.116C269.018 238.327 252.286 263.211 258.691 279.864C268.594 305.611 274.989 344.036 302.07 349.099C326.304 353.63 329.366 297.635 354.019 297.687C407.013 297.799 459.699 381.181 502.233 349.521C538.699 322.378 457.974 269.331 452.86 224.115C449.838 197.393 479.361 175.962 479.562 149.069L479.569 148.114C479.786 119.553 480.092 79.1691 454.025 68.2727C420.04 54.0665 384.341 100.157 348.018 94.0824Z" stroke="#6260FF" stroke-width="1.28384"/>
<path d="M348.836 93.0198C325.571 89.1291 324.546 48.3306 302.136 40.9595C280.936 33.9867 260.103 58.6256 237.889 56.5274C186.873 51.709 138.527 3.5945 90.3049 20.952C51.8358 34.799 18.9682 91.9594 35.8108 129.265C59.2884 181.268 127.438 194.71 179.363 218.214C202.665 228.762 234.557 212.145 254.452 228.234C268.542 239.629 251.536 264.921 258.046 281.847C268.111 308.017 274.611 347.071 302.136 352.217C326.767 356.822 329.879 299.909 354.936 299.962C408.799 300.076 462.348 384.825 505.58 352.646C542.644 325.058 460.596 271.141 455.398 225.184C452.326 198.024 482.333 176.241 482.537 148.908L482.545 147.937C482.765 118.908 483.076 77.8619 456.582 66.787C422.039 52.3479 385.756 99.1936 348.836 93.0198Z" stroke="#6260FF" stroke-width="1.28384"/>
<path d="M349.653 91.9566C326.012 88.0032 324.971 46.5466 302.199 39.0567C280.658 31.9714 259.489 57.0077 236.916 54.8757C185.077 49.9796 135.951 1.08904 86.9514 18.7265C47.8618 32.7968 14.4641 90.8791 31.5783 128.787C55.4346 181.628 124.683 195.287 177.446 219.17C201.124 229.888 233.53 213.003 253.746 229.352C268.063 240.931 250.783 266.63 257.398 283.829C267.625 310.421 274.23 350.105 302.199 355.334C327.227 360.014 330.39 302.183 355.851 302.237C410.582 302.352 464.996 388.469 508.925 355.77C546.586 327.737 463.215 272.951 457.933 226.253C454.811 198.654 485.302 176.52 485.51 148.746L485.517 147.759C485.741 118.263 486.058 76.5543 459.136 65.3008C424.036 50.6288 387.167 98.2301 349.653 91.9566Z" stroke="#6260FF" stroke-width="1.28384"/>
<path d="M350.472 90.894C326.456 86.8778 325.398 44.7632 302.264 37.1543C280.381 29.9566 258.876 55.3903 235.945 53.2245C183.284 48.2506 133.378 -1.41593 83.6006 16.5015C43.8904 30.7951 9.96268 89.7994 27.3485 128.309C51.5835 181.989 121.932 195.865 175.532 220.127C199.586 231.015 232.506 213.862 253.043 230.47C267.587 242.233 250.033 268.34 256.752 285.812C267.142 312.826 273.852 353.14 302.264 358.452C327.69 363.206 330.903 304.457 356.768 304.512C412.369 304.629 467.645 392.112 512.272 358.895C550.531 330.417 465.836 274.762 460.471 227.322C457.3 199.285 488.275 176.8 488.485 148.585L488.493 147.582C488.72 117.618 489.042 75.2472 461.693 63.815C426.036 48.9102 388.582 97.267 350.472 90.894Z" stroke="#6260FF" stroke-width="1.28384"/>
<path d="M351.291 89.8309C326.899 85.7519 325.825 42.9793 302.33 35.2515C280.105 27.9414 258.264 53.7725 234.974 51.5728C181.491 46.5212 130.805 -3.9214 80.2495 14.276C39.9189 28.793 5.461 88.7192 23.1185 127.83C47.7321 182.349 119.179 196.442 173.617 221.083C198.047 232.141 231.481 214.72 252.339 231.588C267.111 243.534 249.282 270.049 256.107 287.794C266.659 315.231 273.473 356.175 302.33 361.57C328.153 366.398 331.416 306.731 357.685 306.787C414.154 306.906 470.295 395.756 515.619 362.02C554.476 333.097 468.457 276.571 463.008 228.391C459.788 199.916 491.246 177.079 491.461 148.423L491.468 147.405C491.699 116.972 492.026 73.9396 464.249 62.3288C428.035 47.1911 389.996 96.3035 351.291 89.8309Z" stroke="#6260FF" stroke-width="1.28384"/>
<path d="M352.107 88.7684C327.34 84.6267 326.249 41.196 302.393 33.3494C279.826 25.9267 257.649 52.1552 234.001 49.9217C179.695 44.7924 128.229 -6.42625 76.8959 12.0511C35.9449 26.7914 0.956874 87.6396 18.886 127.352C43.8783 182.71 116.425 197.019 171.7 222.04C196.505 233.268 230.454 215.579 251.633 232.707C266.632 244.837 248.529 271.76 255.459 289.778C266.173 317.636 273.093 359.21 302.393 364.688C328.614 369.59 331.927 309.006 358.6 309.062C415.938 309.183 472.942 399.4 518.963 365.145C558.418 335.777 471.076 278.382 465.543 229.46C462.273 200.547 494.216 177.359 494.433 148.262L494.441 147.228C494.676 116.327 495.008 72.6326 466.804 60.8432C430.032 45.4725 391.408 95.3406 352.107 88.7684Z" stroke="#6260FF" stroke-width="1.28384"/>
<path d="M352.926 87.7057C327.784 83.5013 326.676 39.4126 302.459 31.447C279.55 23.9119 257.037 50.5378 233.031 48.2705C177.901 43.0635 125.656 -8.93123 73.5449 9.82609C31.9733 24.7897 -3.54481 86.5598 14.656 126.874C40.027 183.07 113.673 197.597 169.785 222.997C194.967 234.395 229.43 216.437 250.93 233.825C266.156 246.139 247.778 273.47 254.813 291.76C265.69 320.041 272.714 362.245 302.459 367.806C329.076 372.783 332.44 311.28 359.517 311.337C417.724 311.46 475.592 403.044 522.31 368.27C562.363 338.457 473.698 280.192 468.081 230.529C464.761 201.178 497.188 177.639 497.409 148.101L497.417 147.051C497.655 115.682 497.991 71.3255 469.36 59.3574C432.032 43.7539 392.822 94.3775 352.926 87.7057Z" stroke="#6260FF" stroke-width="1.28384"/>
<path d="M353.742 86.6426C328.225 82.3754 327.101 37.6287 302.522 29.5442C279.271 21.8967 256.422 48.92 232.058 46.6187C176.105 41.334 123.08 -11.4367 70.1916 7.60058C27.9996 22.7876 -8.04869 85.4796 10.4238 126.396C36.1734 183.431 110.918 198.174 167.868 223.953C193.426 235.521 228.403 217.296 250.224 234.943C265.678 247.44 247.026 275.179 254.165 293.743C265.204 322.446 272.334 365.279 302.522 370.923C329.537 375.974 332.95 313.554 360.432 313.612C419.508 313.736 478.239 406.687 525.655 371.394C566.305 341.136 476.317 282.002 470.616 231.597C467.247 201.808 500.158 177.918 500.382 147.939L500.39 146.874C500.631 115.036 500.973 70.0179 471.915 57.8712C434.029 42.0348 394.234 93.4139 353.742 86.6426Z" stroke="#6260FF" stroke-width="1.28384"/>
</svg>
