<svg width="505" height="446" viewBox="0 0 505 446" fill="none" xmlns="http://www.w3.org/2000/svg">
<path fill-rule="evenodd" clip-rule="evenodd" d="M259.751 178.514C265.33 180.758 267.606 189.437 273.611 189.756C284.322 190.326 300.649 170.74 304.178 180.877C308.57 193.495 281.49 200.337 281.942 213.692C282.246 222.668 304.632 216.822 305.695 225.739C306.622 233.511 286.36 227.607 284.507 235.21C281.646 246.957 305.556 263.562 295.034 269.504C283.899 275.792 276.446 252.089 265.115 246.161C261.746 244.398 257.714 247.264 253.99 248.03C248.319 249.198 242.871 253.29 237.25 251.899C231.902 250.576 227.09 246.057 225.153 240.896C223.184 235.65 229.999 229.039 226.915 224.361C220.166 214.127 202.491 212.865 198.934 201.132C196.353 192.623 205.542 183.527 213.13 178.899C220.859 174.185 230.799 176.252 239.85 176.177C246.603 176.121 253.485 175.994 259.751 178.514Z" stroke="#6260FF" stroke-width="1.28384"/>
<path fill-rule="evenodd" clip-rule="evenodd" d="M287.953 13.9827C314.117 24.4937 324.794 65.1467 352.953 66.6425C403.19 69.3111 479.762 -22.433 496.31 25.0509C516.909 84.1574 389.908 116.208 392.027 178.762C393.452 220.807 498.442 193.423 503.428 235.196C507.773 271.598 412.745 243.943 404.058 279.56C390.637 334.583 502.775 412.366 453.426 440.199C401.204 469.652 366.249 358.622 313.11 330.854C297.309 322.597 278.398 336.02 260.934 339.612C234.336 345.083 208.786 364.248 182.425 357.734C157.342 351.536 134.776 330.37 125.692 306.195C116.457 281.619 148.418 250.65 133.952 228.738C102.304 180.8 19.4086 174.89 2.72349 119.931C-9.37667 80.074 33.7183 37.4637 69.3027 15.7869C105.552 -6.2953 152.168 3.38468 194.619 3.03442C226.289 2.7731 258.567 2.17734 287.953 13.9827Z" stroke="#6260FF" stroke-width="1.28384"/>
<path d="M275.167 187.342C268.728 187 266.287 177.694 260.304 175.288C253.585 172.586 246.205 172.722 238.963 172.782C229.257 172.862 218.598 170.647 210.31 175.701C202.173 180.663 192.32 190.417 195.086 199.54C198.902 212.121 217.856 213.474 225.092 224.447C228.4 229.463 221.092 236.552 223.203 242.177C225.28 247.711 230.44 252.556 236.175 253.975C242.203 255.466 248.045 251.079 254.126 249.826C258.12 249.004 262.443 245.932 266.056 247.822C278.207 254.178 286.199 279.593 298.14 272.851C309.423 266.48 283.783 248.675 286.852 236.08C288.838 227.927 310.566 234.258 309.573 225.925C308.433 216.363 284.426 222.631 284.101 213.007C283.616 198.688 312.655 191.352 307.945 177.822C304.161 166.953 286.653 187.953 275.167 187.342Z" stroke="#6260FF" stroke-width="1.28384"/>
<path d="M276.72 184.929C269.847 184.564 267.241 174.631 260.855 172.063C253.683 169.179 245.804 169.324 238.074 169.388C227.713 169.474 216.335 167.109 207.487 172.504C198.802 177.8 188.284 188.211 191.237 197.949C195.309 211.377 215.542 212.821 223.267 224.534C226.798 229.887 218.997 237.454 221.251 243.458C223.468 249.365 228.976 254.536 235.098 256.051C241.532 257.642 247.768 252.96 254.26 251.623C258.523 250.745 263.139 247.466 266.995 249.483C279.965 256.268 288.497 283.395 301.243 276.199C313.288 269.399 285.918 250.394 289.194 236.951C291.314 228.248 314.508 235.005 313.448 226.111C312.231 215.905 286.605 222.596 286.257 212.323C285.74 197.039 316.738 189.209 311.71 174.767C307.671 163.166 288.982 185.581 276.72 184.929Z" stroke="#6260FF" stroke-width="1.28384"/>
<path d="M278.276 182.515C270.969 182.127 268.198 171.567 261.408 168.837C253.782 165.771 245.406 165.925 237.188 165.993C226.171 166.084 214.074 163.57 204.667 169.306C195.433 174.936 184.25 186.004 187.39 196.357C191.72 210.633 213.232 212.168 221.444 224.62C225.198 230.311 216.904 238.355 219.301 244.739C221.658 251.018 227.514 256.516 234.023 258.126C240.864 259.818 247.494 254.84 254.397 253.419C258.929 252.486 263.836 248.999 267.937 251.144C281.726 258.357 290.797 287.197 304.349 279.546C317.155 272.317 288.055 252.112 291.538 237.82C293.792 228.569 318.452 235.752 317.325 226.297C316.031 215.446 288.785 222.559 288.416 211.638C287.866 195.39 320.823 187.065 315.478 171.712C311.183 159.378 291.313 183.208 278.276 182.515Z" stroke="#6260FF" stroke-width="1.28384"/>
<path d="M279.833 180.102C272.092 179.69 269.156 168.504 261.963 165.611C253.884 162.363 245.009 162.527 236.302 162.599C224.631 162.695 211.815 160.031 201.849 166.108C192.066 172.073 180.218 183.798 183.544 194.765C188.131 209.888 210.922 211.515 219.623 224.706C223.6 230.735 214.813 239.257 217.352 246.019C219.85 252.672 226.054 258.496 232.95 260.202C240.197 261.994 247.222 256.72 254.534 255.215C259.336 254.226 264.535 250.533 268.879 252.805C283.489 260.446 293.099 290.998 307.456 282.893C321.024 275.235 290.194 253.831 293.884 238.69C296.272 228.89 322.398 236.499 321.204 226.483C319.833 214.988 290.968 222.523 290.576 210.954C289.993 193.741 324.91 184.921 319.246 168.657C314.697 155.591 293.645 180.836 279.833 180.102Z" stroke="#6260FF" stroke-width="1.28384"/>
<path d="M281.388 177.685C273.212 177.25 270.112 165.437 262.515 162.382C253.982 158.952 244.61 159.125 235.414 159.201C223.088 159.303 209.553 156.49 199.028 162.907C188.696 169.206 176.183 181.588 179.696 193.17C184.541 209.141 208.61 210.858 217.799 224.789C222 231.156 212.719 240.155 215.401 247.297C218.039 254.322 224.591 260.473 231.874 262.274C239.528 264.167 246.947 258.598 254.669 257.008C259.74 255.964 265.231 252.063 269.819 254.463C285.249 262.532 295.398 294.797 310.561 286.238C324.89 278.15 292.33 255.546 296.227 239.557C298.749 229.207 326.341 237.243 325.08 226.665C323.632 214.526 293.147 222.484 292.733 210.266C292.118 192.088 328.994 182.775 323.013 165.599C318.208 151.8 295.975 178.46 281.388 177.685Z" stroke="#6260FF" stroke-width="1.28384"/>
<path d="M282.945 175.271C274.335 174.813 271.07 162.373 263.069 159.157C254.083 155.544 244.213 155.726 234.529 155.806C221.548 155.913 207.294 152.951 196.209 159.709C185.328 166.342 172.15 179.381 175.85 191.578C180.952 208.397 206.301 210.205 215.978 224.875C220.401 231.58 210.628 241.057 213.452 248.578C216.23 255.976 223.13 262.453 230.8 264.349C238.861 266.343 246.674 260.478 254.807 258.804C260.147 257.705 265.93 253.597 270.762 256.124C287.011 264.621 297.699 298.598 313.668 289.585C328.758 281.068 294.468 257.265 298.572 240.427C301.229 229.528 330.287 237.991 328.958 226.851C327.434 214.068 295.329 222.448 294.894 209.581C294.246 190.439 333.08 180.631 326.782 162.544C321.721 148.013 298.307 176.088 282.945 175.271Z" stroke="#6260FF" stroke-width="1.28384"/>
<path d="M284.5 172.858C275.455 172.377 272.025 159.31 263.621 155.931C254.182 152.136 243.814 152.328 233.641 152.412C220.005 152.524 205.032 149.413 193.388 156.511C181.958 163.479 168.115 177.175 172.002 189.987C177.361 207.653 203.989 209.552 214.154 224.961C218.801 232.005 208.535 241.959 211.501 249.859C214.419 257.629 221.667 264.433 229.724 266.425C238.192 268.519 246.399 262.359 254.942 260.6C260.552 259.445 266.626 255.131 271.702 257.785C288.771 266.711 299.999 302.4 316.773 292.932C332.624 283.986 296.604 258.984 300.915 241.297C303.706 229.849 334.23 238.738 332.834 227.037C331.233 213.61 297.509 222.412 297.051 208.897C296.37 188.79 337.164 178.488 330.548 159.489C325.232 144.226 300.637 173.716 284.5 172.858Z" stroke="#6260FF" stroke-width="1.28384"/>
<path d="M286.055 170.444C276.575 169.94 272.981 156.246 264.173 152.705C254.281 148.729 243.414 148.929 232.753 149.017C218.463 149.135 202.77 145.874 190.567 153.313C178.588 160.615 164.08 174.969 168.154 188.395C173.77 206.908 201.676 208.899 212.33 225.048C217.2 232.429 206.441 242.861 209.55 251.139C212.608 259.283 220.204 266.413 228.648 268.501C237.522 270.695 246.123 264.239 255.077 262.396C260.957 261.186 267.323 256.665 272.642 259.446C290.531 268.8 302.298 306.201 319.878 296.28C336.49 286.904 298.741 260.702 303.258 242.167C306.183 230.169 338.173 239.485 336.71 227.223C335.032 213.151 299.688 222.376 299.209 208.213C298.495 187.141 341.249 176.344 334.314 156.434C328.743 140.438 302.966 171.343 286.055 170.444Z" stroke="#6260FF" stroke-width="1.28384"/>
<path d="M287.613 168.03C277.699 167.503 273.94 153.182 264.729 149.479C254.383 145.32 243.019 145.53 231.869 145.622C216.924 145.746 200.512 142.336 187.749 150.115C175.221 157.751 160.049 172.762 164.309 186.803C170.183 206.164 199.368 208.246 210.51 225.134C215.603 232.852 204.351 243.762 207.602 252.42C210.8 260.936 218.745 268.393 227.576 270.576C236.857 272.871 245.852 266.119 255.216 264.192C261.365 262.927 268.023 258.198 273.586 261.107C292.294 270.889 304.601 310.003 322.986 299.627C340.36 289.822 300.88 262.42 305.605 243.037C308.664 230.49 342.12 240.232 340.59 227.409C338.835 212.693 301.871 222.34 301.37 207.528C300.624 185.491 345.336 174.2 338.084 153.378C332.258 136.651 305.3 168.97 287.613 168.03Z" stroke="#6260FF" stroke-width="1.28384"/>
<path d="M289.169 165.617C278.821 165.067 274.897 150.118 265.282 146.254C254.483 141.913 242.621 142.132 230.982 142.228C215.382 142.357 198.251 138.797 184.929 146.917C171.852 154.888 156.015 170.555 160.462 185.211C166.594 205.42 197.057 207.593 208.688 225.22C214.004 233.277 202.258 244.664 205.652 253.7C208.991 262.59 217.283 270.373 226.501 272.652C236.189 275.047 245.578 268 255.353 265.988C261.771 264.667 268.72 259.732 274.527 262.768C294.055 272.978 306.901 313.804 326.092 302.974C344.228 292.74 303.018 264.139 307.95 243.907C311.142 230.81 346.064 240.979 344.468 227.594C342.635 212.234 304.052 222.303 303.529 206.843C302.75 183.842 349.422 172.057 341.852 150.323C335.77 132.863 307.631 166.598 289.169 165.617Z" stroke="#6260FF" stroke-width="1.28384"/>
<path d="M290.725 163.203C279.943 162.63 275.854 147.055 265.835 143.028C254.583 138.505 242.223 138.733 230.096 138.833C213.841 138.967 195.99 135.259 182.11 143.719C168.484 152.024 151.982 168.349 156.615 183.619C163.004 204.675 194.747 206.94 206.865 225.306C212.405 233.701 200.166 245.566 203.702 254.981C207.181 264.243 215.822 272.353 225.426 274.727C235.521 277.223 245.304 269.88 255.489 267.784C262.177 266.408 269.418 261.265 275.468 264.429C295.816 275.067 309.201 317.606 329.198 306.321C348.095 295.658 305.155 265.857 310.294 244.777C313.621 231.131 350.009 241.726 348.345 227.78C346.436 211.776 306.233 222.267 305.687 206.159C304.876 182.193 353.507 169.913 345.619 147.268C339.283 129.076 309.962 164.225 290.725 163.203Z" stroke="#6260FF" stroke-width="1.28384"/>
<path d="M292.28 160.79C281.063 160.193 276.81 143.991 266.387 139.802C254.681 135.097 241.823 135.335 229.208 135.439C212.298 135.578 193.728 131.721 179.288 140.521C165.114 149.161 147.947 166.143 152.767 182.028C159.413 203.931 192.435 206.287 205.042 225.392C210.804 234.125 198.072 246.468 201.751 256.262C205.37 265.897 214.359 274.333 224.35 276.803C234.851 279.399 245.029 271.761 255.624 269.58C262.581 268.149 270.114 262.799 276.408 266.09C297.576 277.157 311.5 321.408 332.303 309.669C351.961 298.576 307.291 267.576 312.637 245.647C316.098 231.452 353.952 242.474 352.221 227.966C350.235 211.318 308.412 222.231 307.845 205.474C307.001 180.544 357.591 167.77 349.386 144.213C342.794 125.289 312.292 161.853 292.28 160.79Z" stroke="#6260FF" stroke-width="1.28384"/>
<path d="M293.837 158.373C282.186 157.754 277.768 140.925 266.942 136.573C254.783 131.686 241.427 131.933 228.322 132.041C210.758 132.186 191.469 128.179 176.47 137.32C161.746 146.294 143.914 163.933 148.921 180.432C155.825 203.184 190.125 205.63 203.22 225.475C209.206 234.546 195.981 247.366 199.802 257.54C203.561 267.548 212.898 276.31 223.277 278.875C234.185 281.572 244.756 273.638 255.762 271.373C262.988 269.886 270.813 264.33 277.351 267.748C299.339 279.243 313.802 325.206 335.41 313.013C355.829 301.491 309.43 269.291 314.983 246.514C318.577 231.769 357.897 243.218 356.1 228.149C354.037 210.856 310.594 222.192 310.005 204.787C309.128 178.891 361.678 165.623 353.154 141.155C346.307 121.498 314.624 159.478 293.837 158.373Z" stroke="#6260FF" stroke-width="1.28384"/>
<path d="M295.391 155.959C283.305 155.317 278.722 137.861 267.493 133.348C254.88 128.278 241.026 128.534 227.433 128.646C209.213 128.797 189.206 124.64 173.647 134.122C158.375 143.43 139.878 161.726 145.072 178.841C152.233 202.44 187.812 204.977 201.395 225.561C207.604 234.97 193.886 248.268 197.85 258.82C201.749 269.201 211.434 278.29 222.2 280.951C233.514 283.748 244.48 275.519 255.896 273.169C263.392 271.627 271.508 265.863 278.29 269.409C301.097 281.332 316.1 329.007 338.514 316.36C359.694 304.409 311.565 271.01 317.325 247.384C321.053 232.09 361.839 243.965 359.975 228.334C357.835 210.397 312.773 222.156 312.161 204.102C311.252 177.242 365.76 163.48 356.919 138.1C349.817 117.711 316.952 157.105 295.391 155.959Z" stroke="#6260FF" stroke-width="1.28384"/>
<path d="M296.948 153.545C284.428 152.88 279.68 134.797 268.047 130.122C254.981 124.871 240.629 125.136 226.548 125.252C207.673 125.408 186.946 121.102 170.829 130.924C155.007 140.566 135.846 159.52 141.226 177.249C148.644 201.695 185.502 204.324 199.574 225.648C206.006 235.394 191.795 249.169 195.901 260.101C199.94 270.854 209.974 280.269 221.126 283.026C232.847 285.924 244.207 277.399 256.033 274.965C263.799 273.367 272.207 267.397 279.232 271.07C302.86 283.421 318.401 332.809 341.621 319.708C363.563 307.327 313.703 272.728 319.67 248.253C323.533 232.411 365.785 244.712 363.853 228.52C361.636 209.939 314.955 222.12 314.321 203.417C313.379 175.593 369.847 161.336 360.688 135.045C353.33 113.924 319.284 154.732 296.948 153.545Z" stroke="#6260FF" stroke-width="1.28384"/>
<path d="M298.504 151.132C285.549 150.443 280.637 131.733 268.6 126.896C255.081 121.463 240.231 121.737 225.661 121.857C206.132 122.018 184.686 117.563 168.009 127.726C151.638 137.703 131.812 157.313 137.379 175.657C145.055 200.951 183.192 203.671 197.751 225.734C204.406 235.818 189.703 250.071 193.951 261.381C198.13 272.508 208.512 282.249 220.051 285.102C232.179 288.1 243.933 279.279 256.17 276.761C264.204 275.108 272.904 268.93 280.174 272.731C304.621 285.51 320.702 336.61 344.727 323.055C367.43 310.245 315.841 274.447 322.015 249.123C326.011 232.731 369.729 245.459 367.731 228.706C365.437 209.48 317.135 222.083 316.48 202.733C315.505 173.943 373.932 159.193 364.456 131.99C356.843 110.136 321.616 152.36 298.504 151.132Z" stroke="#6260FF" stroke-width="1.28384"/>
<path d="M300.06 148.718C286.671 148.007 281.594 128.67 269.153 123.671C255.181 118.055 239.833 118.339 224.775 118.463C204.59 118.63 182.425 114.025 165.189 124.529C148.269 134.839 127.778 155.107 133.532 174.065C141.465 200.207 180.881 203.018 195.929 225.82C202.807 236.243 187.61 250.973 192.001 262.663C196.321 274.162 207.05 284.23 218.977 287.178C231.511 290.276 243.659 281.16 256.306 278.558C264.61 276.849 273.602 270.465 281.115 274.392C306.382 287.6 323.002 340.412 347.833 326.403C371.297 313.164 317.978 276.166 324.359 249.994C328.49 233.052 373.674 246.207 371.608 228.892C369.237 209.022 319.316 222.048 318.639 202.049C317.631 172.295 378.018 157.05 368.223 128.935C360.355 106.349 323.946 149.988 300.06 148.718Z" stroke="#6260FF" stroke-width="1.28384"/>
<path d="M301.616 146.305C287.792 145.57 282.551 125.606 269.707 120.445C255.281 114.647 239.435 114.94 223.888 115.068C203.049 115.24 180.164 110.487 162.369 121.331C144.9 131.976 123.745 152.901 129.685 172.473C137.876 199.463 178.57 202.365 194.106 225.906C201.208 236.667 185.518 251.875 190.051 263.943C194.511 275.815 205.589 286.21 217.902 289.253C230.843 292.452 243.385 283.04 256.443 280.354C265.016 278.59 274.299 271.998 282.056 276.053C308.143 289.689 325.302 344.214 350.939 329.75C375.165 316.082 320.115 277.884 326.703 250.863C330.968 233.373 377.618 246.954 375.485 229.078C373.038 208.564 321.497 222.012 320.798 201.364C319.757 170.645 382.103 154.906 371.991 125.88C363.867 102.562 326.277 147.615 301.616 146.305Z" stroke="#6260FF" stroke-width="1.28384"/>
<path d="M303.17 143.891C288.913 143.133 283.507 122.543 270.259 117.219C255.379 111.239 239.036 111.541 223 111.673C201.506 111.851 177.902 106.948 159.548 118.133C141.53 129.112 119.71 150.694 125.837 170.881C134.285 198.718 176.258 201.712 192.283 225.992C199.607 237.091 183.424 252.776 188.1 265.224C192.7 277.469 204.126 288.189 216.826 291.329C230.174 294.628 243.11 284.921 256.578 282.15C265.421 280.33 274.996 273.532 282.996 277.714C309.903 291.778 327.601 348.015 354.044 333.097C379.031 319 322.251 279.602 329.047 251.733C333.445 233.693 381.561 247.701 379.361 229.263C376.837 208.105 323.676 221.975 322.955 200.679C321.882 168.996 386.187 152.762 375.757 122.825C367.378 98.7742 328.607 145.243 303.17 143.891Z" stroke="#6260FF" stroke-width="1.28384"/>
<path d="M304.725 141.477C290.033 140.696 284.462 119.479 270.811 113.993C255.478 107.831 238.636 108.142 222.112 108.279C199.963 108.462 175.641 103.409 156.727 114.935C138.16 126.248 115.675 148.487 121.988 169.29C130.694 197.974 173.946 201.059 190.459 226.078C198.006 237.515 181.33 253.678 186.149 266.504C190.889 279.122 202.663 290.169 215.75 293.404C229.504 296.804 242.835 286.801 256.713 283.946C265.825 282.071 275.692 275.065 283.937 279.375C311.663 293.867 329.9 351.817 357.148 336.444C382.897 321.918 324.387 281.321 331.39 252.603C335.922 234.014 385.504 248.448 383.238 229.449C380.636 207.647 325.856 221.939 325.113 199.995C324.007 167.347 390.271 150.619 379.523 119.77C370.889 94.9868 330.937 142.87 304.725 141.477Z" stroke="#6260FF" stroke-width="1.28384"/>
<path d="M306.281 139.064C291.155 138.26 285.419 116.416 271.364 110.768C255.578 104.424 238.238 104.744 221.225 104.885C198.422 105.073 173.38 99.8714 153.907 111.737C134.791 123.385 111.641 146.281 118.141 167.698C127.104 197.23 171.635 200.406 188.636 226.165C196.407 237.939 179.238 254.58 184.199 267.786C189.079 280.776 201.201 292.15 214.675 295.48C228.836 298.98 242.561 288.682 256.849 285.742C266.231 283.812 276.39 276.599 284.878 281.036C313.424 295.957 332.201 355.619 360.254 339.792C386.764 324.836 326.525 283.04 333.734 253.473C338.401 234.335 389.449 249.195 387.115 229.635C384.437 207.189 328.037 221.903 327.271 199.311C326.133 165.698 394.357 148.476 383.291 116.715C374.401 91.1999 333.268 140.498 306.281 139.064Z" stroke="#6260FF" stroke-width="1.28384"/>
<path d="M307.838 136.647C292.277 135.82 286.377 113.349 271.918 107.539C255.679 101.013 237.841 101.342 220.34 101.487C196.881 101.68 171.12 96.3296 151.088 108.536C131.424 120.518 107.609 144.072 114.296 166.103C123.516 196.483 169.326 199.75 186.815 226.248C194.809 238.36 177.147 255.478 182.25 269.063C187.27 282.426 199.741 294.126 213.602 297.552C228.169 301.153 242.289 290.559 256.987 287.535C266.638 285.549 277.088 278.13 285.82 282.694C315.186 298.043 334.502 359.417 363.362 343.136C390.632 327.751 328.663 284.755 336.08 254.34C340.88 234.653 393.394 249.939 390.993 229.818C388.238 206.727 330.219 221.864 329.431 198.623C328.261 164.045 398.443 146.329 387.06 113.657C377.915 87.4092 335.6 138.122 307.838 136.647Z" stroke="#6260FF" stroke-width="1.28384"/>
<path d="M309.394 134.233C293.399 133.384 287.334 110.285 272.472 104.313C255.779 97.6052 237.443 97.9437 219.453 98.0921C195.34 98.2912 168.86 92.7911 148.268 105.338C128.055 117.654 103.575 141.865 110.449 164.511C119.926 195.738 167.015 199.096 184.992 226.334C193.21 238.784 175.054 256.38 180.3 270.344C185.46 284.08 198.279 296.106 212.527 299.628C227.501 303.329 242.015 292.44 257.123 289.331C267.044 287.29 277.786 279.663 286.762 284.355C316.947 300.132 336.803 363.218 366.468 346.483C394.5 330.669 330.801 286.473 338.424 255.21C343.359 234.973 397.339 250.686 394.871 230.004C392.039 206.269 332.399 221.828 331.59 197.938C330.387 162.396 402.528 144.185 390.827 110.602C381.427 83.6219 337.931 135.75 309.394 134.233Z" stroke="#6260FF" stroke-width="1.28384"/>
<path d="M310.948 131.82C294.518 130.947 288.288 107.221 273.022 101.087C255.876 94.1972 237.043 94.5449 218.564 94.6974C193.796 94.9018 166.597 89.2525 145.446 102.14C124.684 114.791 99.5389 139.658 106.599 162.919C116.334 194.994 164.702 198.443 183.167 226.42C191.608 239.208 172.959 257.282 178.348 271.624C183.648 285.733 196.815 298.086 211.449 301.703C226.831 305.505 241.738 294.32 257.257 291.127C267.447 289.031 278.481 281.197 287.701 286.016C318.706 302.221 339.101 367.02 369.571 349.83C398.364 333.587 332.935 288.192 340.766 256.08C345.835 235.294 401.281 251.433 398.746 230.189C395.837 205.81 334.578 221.792 333.747 197.254C332.51 160.747 406.611 142.041 394.592 107.546C384.937 79.8344 340.26 133.377 310.948 131.82Z" stroke="#6260FF" stroke-width="1.28384"/>
<path d="M312.505 129.406C295.641 128.51 289.246 104.157 273.577 97.8611C255.977 90.7893 236.646 91.1462 217.679 91.3027C192.255 91.5125 164.337 85.7139 142.627 98.9418C121.316 111.927 95.5065 137.452 102.753 161.327C112.746 194.25 162.392 197.79 181.346 226.506C190.009 239.632 170.868 258.183 176.399 272.905C181.839 287.387 195.354 300.066 210.376 303.779C226.164 307.681 241.466 296.2 257.395 292.923C267.854 290.771 279.18 282.731 288.643 287.677C320.468 304.31 341.402 370.821 372.678 353.178C402.233 336.505 335.074 289.91 343.112 256.95C348.314 235.614 405.226 252.181 402.624 230.375C399.638 205.351 336.76 221.755 335.907 196.569C334.638 159.097 410.698 139.898 398.361 104.491C388.45 76.0469 342.592 131.004 312.505 129.406Z" stroke="#6260FF" stroke-width="1.28384"/>
<path d="M314.059 126.993C296.76 126.073 290.201 101.094 274.128 94.6357C256.075 87.3818 236.245 87.7479 216.79 87.9085C190.711 88.1237 162.074 82.1758 139.805 95.7442C117.945 109.064 91.4703 135.246 98.9037 159.736C109.154 193.506 160.079 197.137 179.521 226.593C188.408 240.056 168.773 259.085 174.446 274.186C180.027 289.041 193.89 302.046 209.299 305.855C225.493 309.857 241.189 298.081 257.529 294.719C268.258 292.512 279.875 284.265 289.582 289.338C322.227 306.4 343.7 374.623 375.782 356.525C406.098 339.423 337.209 291.629 345.453 257.82C350.79 235.935 409.168 252.928 406.499 230.561C403.436 204.893 338.938 221.72 338.063 195.885C336.761 157.448 414.781 137.755 402.126 101.437C391.96 72.2599 344.92 128.632 314.059 126.993Z" stroke="#6260FF" stroke-width="1.28384"/>
<path d="M315.615 124.579C297.882 123.637 291.158 98.0305 274.681 91.4099C256.175 83.974 235.847 84.3493 215.903 84.5139C189.17 84.7345 159.813 78.6373 136.985 92.5463C114.576 106.2 87.4366 133.039 95.0567 158.144C105.564 192.762 157.768 196.484 177.698 226.679C186.808 240.481 166.681 259.987 172.496 275.467C178.217 290.694 192.428 304.026 208.224 307.93C224.825 312.033 240.915 299.961 257.665 296.515C268.664 294.253 280.572 285.798 290.523 290.999C323.988 308.489 346 378.425 378.888 359.873C409.965 342.342 339.346 293.348 347.798 258.69C353.269 236.256 413.113 253.675 410.377 230.747C407.237 204.435 341.119 221.683 340.222 195.2C338.887 155.799 418.866 135.611 405.894 98.3815C395.472 68.4726 347.251 126.26 315.615 124.579Z" stroke="#6260FF" stroke-width="1.28384"/>
<path d="M317.169 122.165C299.002 121.2 292.113 94.9667 275.233 88.184C256.273 80.5661 235.448 80.9505 215.015 81.1191C187.627 81.3452 157.551 75.0987 134.164 89.3482C111.206 103.336 83.4017 130.832 91.2085 156.552C101.973 192.017 155.456 195.831 175.875 226.765C185.208 240.905 164.587 260.889 170.545 276.747C176.406 292.348 190.965 306.006 207.148 310.006C224.156 314.209 240.64 301.842 257.8 298.311C269.068 295.993 281.269 287.332 291.463 292.66C325.748 310.578 348.299 382.226 381.992 363.22C413.831 345.26 341.482 295.066 350.141 259.56C355.746 236.577 417.056 254.422 414.253 230.932C411.036 203.976 343.298 221.647 342.379 194.516C341.012 154.15 422.95 133.467 409.66 95.3263C398.983 64.6851 349.581 123.887 317.169 122.165Z" stroke="#6260FF" stroke-width="1.28384"/>
<path d="M318.727 119.751C300.125 118.763 293.071 91.903 275.787 84.9582C256.374 77.1581 235.051 77.5518 214.13 77.7244C186.087 77.9558 155.292 71.5601 131.345 86.1502C107.838 100.472 79.3693 128.626 87.3627 154.96C98.385 191.273 153.146 195.178 174.053 226.851C183.609 241.329 162.496 261.79 168.596 278.028C174.598 294.001 189.505 307.986 206.074 312.081C223.489 316.385 240.367 303.722 257.938 300.107C269.475 297.734 281.968 288.865 292.406 294.321C327.51 312.668 350.601 386.027 385.1 366.567C417.7 348.177 343.621 296.784 352.487 260.43C358.225 236.897 421.001 255.169 418.131 231.118C414.838 203.518 345.48 221.611 344.539 193.831C343.139 152.5 427.037 131.324 413.429 92.2711C402.497 60.8976 351.913 121.515 318.727 119.751Z" stroke="#6260FF" stroke-width="1.28384"/>
<path d="M320.285 117.335C301.249 116.323 294.031 88.8361 276.343 81.7292C256.477 73.7471 234.656 74.15 213.246 74.3266C184.548 74.5635 153.034 68.0185 128.528 82.9491C104.472 97.6057 75.3381 126.416 83.5182 153.365C94.7979 190.525 150.838 194.521 172.233 226.934C182.013 241.749 160.406 262.689 166.649 279.305C172.79 295.651 188.046 309.963 205.002 314.153C222.824 318.558 240.096 305.599 258.077 301.9C269.884 299.471 282.668 290.396 293.35 295.979C329.274 314.754 352.904 389.826 388.208 369.911C421.569 351.092 345.761 298.5 354.834 261.296C360.706 237.215 424.948 255.913 422.011 231.301C418.641 203.056 347.663 221.572 346.701 193.143C345.268 150.848 431.124 129.177 417.199 89.2129C406.012 57.1071 354.247 119.139 320.285 117.335Z" stroke="#6260FF" stroke-width="1.28384"/>
<path d="M321.839 114.921C302.368 113.887 294.985 85.773 276.894 78.504C256.574 70.3398 234.255 70.7518 212.357 70.9325C183.004 71.1748 150.771 64.4805 125.706 79.7516C101.1 94.7425 71.3019 124.21 79.6687 151.774C91.2057 189.782 148.525 193.869 170.408 227.021C180.411 242.174 158.311 263.591 164.696 280.587C170.978 297.305 186.581 311.943 203.925 316.229C222.153 320.734 239.819 307.48 258.211 303.697C270.287 301.212 283.363 291.93 294.289 297.64C331.032 316.843 355.202 393.628 391.312 373.259C425.434 354.011 347.896 300.219 357.175 262.167C363.182 237.536 428.89 256.661 425.886 231.487C422.439 202.598 349.842 221.536 348.857 192.459C347.392 149.199 435.207 127.034 420.964 86.1583C409.521 53.3202 356.575 116.767 321.839 114.921Z" stroke="#6260FF" stroke-width="1.28384"/>
<path d="M323.395 112.508C303.489 111.45 295.942 82.7091 277.447 75.278C256.674 66.9318 233.857 67.3529 211.47 67.5377C181.462 67.7853 148.51 60.9417 122.886 76.5535C97.7315 91.8787 67.2682 122.003 75.8217 150.182C87.6162 189.037 146.214 193.215 168.586 227.107C178.811 242.598 156.219 264.492 162.746 281.867C169.168 298.959 185.12 313.923 202.85 318.305C221.485 322.91 239.546 309.36 258.347 305.493C270.693 302.953 284.06 293.463 295.23 299.301C332.793 318.932 357.502 397.429 394.418 376.606C429.301 356.929 350.033 301.937 359.52 263.036C365.661 237.856 432.835 257.408 429.763 231.672C426.239 202.139 352.022 221.5 351.016 191.774C349.518 147.55 439.293 124.89 424.732 83.103C413.034 49.5326 358.906 114.394 323.395 112.508Z" stroke="#6260FF" stroke-width="1.28384"/>
<path d="M324.952 110.094C304.612 109.013 296.9 79.6454 278.001 72.0522C256.775 63.5239 233.46 63.9543 210.585 64.1431C179.922 64.3961 146.251 57.4032 120.067 73.3555C94.3639 89.015 63.2358 119.797 71.9759 148.59C84.0278 188.293 143.905 192.562 166.764 227.193C177.213 243.022 154.127 265.394 160.798 283.148C167.36 300.612 183.659 315.903 201.777 320.38C220.818 325.086 239.273 311.241 258.485 307.289C271.1 304.694 284.759 294.997 296.172 300.962C334.556 321.021 359.804 401.231 397.525 379.953C433.17 359.847 352.171 303.655 361.865 263.906C368.14 238.177 436.78 258.155 433.642 231.858C430.041 201.681 354.204 221.464 353.176 191.09C351.645 145.901 443.379 122.747 428.5 80.0479C416.547 45.7452 361.238 112.022 324.952 110.094Z" stroke="#6260FF" stroke-width="1.28384"/>
<path d="M326.508 107.68C305.734 106.577 297.857 76.5816 278.555 68.8263C256.875 60.116 233.062 60.5556 209.698 60.7484C178.381 61.0068 143.99 53.8646 117.247 70.1575C90.9951 86.1513 59.2021 117.59 68.1289 146.998C80.4382 187.548 141.594 191.909 164.942 227.279C175.614 243.446 152.035 266.296 158.848 284.428C165.55 302.266 182.198 317.883 200.702 322.456C220.15 327.262 238.999 313.121 258.621 309.085C271.506 306.434 285.457 296.531 297.114 302.623C336.317 323.111 362.104 405.032 400.631 383.3C437.037 362.765 354.309 305.374 364.21 264.776C370.619 238.497 440.725 258.902 437.519 232.044C433.841 201.222 356.385 221.427 355.334 190.405C353.771 144.251 447.464 120.603 432.268 76.9927C420.059 41.9578 363.569 109.649 326.508 107.68Z" stroke="#6260FF" stroke-width="1.28384"/>
<path d="M328.062 105.267C306.854 104.14 298.813 73.5185 279.107 65.6011C256.974 56.7087 232.663 57.1574 208.81 57.3543C176.838 57.6181 141.728 50.3267 114.426 66.96C87.625 83.2881 55.1672 115.384 64.2807 145.407C76.8473 186.805 139.282 191.256 163.118 227.366C174.013 243.871 149.941 267.198 156.897 285.71C163.739 303.92 180.735 319.863 199.626 324.532C219.481 329.438 238.724 315.002 258.756 310.881C271.91 308.175 286.153 298.065 298.054 304.284C338.077 325.2 364.403 408.834 403.736 386.648C440.903 365.683 356.445 307.093 366.553 265.647C373.096 238.819 444.668 259.65 441.395 232.23C437.64 200.765 358.565 221.392 357.492 189.721C355.896 142.602 451.549 118.46 436.034 73.9381C423.57 38.1709 365.899 107.277 328.062 105.267Z" stroke="#6260FF" stroke-width="1.28384"/>
<path d="M329.62 102.853C307.977 101.703 299.771 70.4547 279.661 62.3752C257.075 53.3007 232.266 53.7587 207.925 53.9595C175.297 54.2288 139.469 46.788 111.607 63.762C84.2574 80.4244 51.1348 113.178 60.4349 143.815C73.259 186.06 136.972 190.603 161.297 227.452C172.415 244.295 147.85 268.099 154.948 286.99C161.93 305.573 179.274 321.843 198.552 326.607C218.814 331.614 238.451 316.882 258.894 312.677C272.317 309.916 286.852 299.598 298.996 305.945C339.839 327.289 366.705 412.635 406.843 389.995C444.772 368.601 358.583 308.811 368.898 266.517C375.575 239.139 448.613 260.397 445.274 232.416C441.442 200.306 360.747 221.355 359.652 189.036C358.023 140.953 455.635 116.316 439.803 70.8829C427.084 34.3834 368.231 104.905 329.62 102.853Z" stroke="#6260FF" stroke-width="1.28384"/>
<path d="M331.172 100.439C309.095 99.2666 300.724 67.3909 280.211 59.1493C257.171 49.8928 231.864 50.3599 207.034 50.5648C173.752 50.8394 137.204 43.2494 108.784 60.5639C80.8847 77.5606 47.0973 110.971 56.5841 142.223C69.6656 185.316 134.658 189.95 159.471 227.538C170.812 244.719 145.754 269.001 152.994 288.271C160.116 307.227 177.809 323.823 197.474 328.682C218.142 333.79 238.173 318.763 259.027 314.473C272.719 311.656 287.546 301.132 299.934 307.606C341.596 329.379 369.001 416.437 409.945 393.343C448.635 371.519 360.717 310.529 371.239 267.386C378.05 239.46 452.554 261.144 449.148 232.602C445.239 199.847 362.924 221.319 361.807 188.352C360.146 139.304 459.717 114.173 443.567 67.8278C430.592 30.5959 370.559 102.532 331.172 100.439Z" stroke="#6260FF" stroke-width="1.28384"/>
<path d="M332.728 98.0257C310.216 96.8298 301.681 64.3271 280.764 55.9234C257.271 46.4848 231.466 46.9612 206.148 47.1701C172.211 47.4501 134.944 39.7108 105.964 57.3659C77.5159 74.6968 43.0637 108.764 52.7371 140.631C66.076 184.572 132.347 189.297 157.648 227.624C169.213 245.143 143.661 269.903 151.044 289.551C158.307 308.88 176.347 325.803 196.399 330.758C217.474 335.966 237.9 320.643 259.163 316.269C273.125 313.397 288.243 302.665 300.875 309.267C343.357 331.468 371.302 420.238 413.051 396.69C452.503 374.437 362.854 312.248 373.583 268.256C380.528 239.78 456.498 261.891 453.025 232.787C449.039 199.389 365.104 221.283 363.966 187.667C362.272 137.654 463.802 112.029 447.334 64.7726C434.105 26.8085 372.89 100.159 332.728 98.0257Z" stroke="#6260FF" stroke-width="1.28384"/>
<path d="M334.284 95.6089C311.338 94.3899 302.638 61.2603 281.317 52.6945C257.371 43.0738 231.068 43.5594 205.261 43.7723C170.669 44.0578 132.683 36.1692 103.144 54.1648C74.147 71.83 39.03 106.555 48.8901 139.036C62.4864 183.824 130.036 188.64 155.825 227.707C167.613 245.563 141.569 270.801 149.094 290.829C156.497 310.53 174.885 327.78 195.324 332.83C216.806 338.139 237.626 322.52 259.3 318.062C273.531 315.134 288.941 304.196 301.817 310.925C345.118 333.554 373.602 424.037 416.157 400.034C456.37 377.352 364.992 313.963 375.928 269.123C383.007 240.098 460.443 262.635 456.902 232.97C452.84 198.927 367.285 221.244 366.125 186.979C364.398 136.002 467.887 109.882 451.102 61.7143C437.617 23.0179 375.221 97.7837 334.284 95.6089Z" stroke="#6260FF" stroke-width="1.28384"/>
<path d="M335.839 93.1956C312.458 91.9535 303.593 58.197 281.869 49.4691C257.469 39.6664 230.669 40.1611 204.373 40.3781C169.126 40.6689 130.421 32.6311 100.323 50.9672C70.7769 68.9668 34.995 104.349 45.0418 137.444C58.8955 183.08 127.724 187.988 154.002 227.793C166.013 245.988 139.475 271.703 147.143 292.11C154.686 312.184 173.422 329.76 194.248 334.906C216.136 340.315 237.35 324.401 259.435 319.858C273.935 316.875 289.637 305.73 302.757 312.586C346.878 335.643 375.901 427.839 419.262 403.382C460.236 380.27 367.128 315.682 378.271 269.993C385.484 240.419 464.386 263.382 460.778 233.156C456.639 198.469 369.464 221.208 368.282 186.295C366.523 134.353 471.971 107.739 454.868 58.6596C441.128 19.2309 377.55 95.4115 335.839 93.1956Z" stroke="#6260FF" stroke-width="1.28384"/>
<path d="M337.397 90.782C313.582 89.5168 304.552 55.1333 282.425 46.2433C257.572 36.2586 230.273 36.7625 203.489 36.9835C167.587 37.2797 128.163 29.0926 97.5053 47.7692C67.4106 66.1031 30.9639 102.142 41.1973 135.852C55.3084 182.336 125.416 187.334 152.182 227.88C164.416 246.412 137.385 272.605 145.195 293.391C152.878 313.838 171.963 331.74 193.176 336.982C215.471 342.491 237.079 326.281 259.574 321.654C274.344 318.616 290.337 307.263 303.701 314.247C348.642 337.732 378.204 431.64 422.37 406.729C464.106 383.189 369.268 317.4 380.618 270.863C387.965 240.739 468.333 264.129 464.658 233.342C460.442 198.011 371.648 221.172 370.443 185.611C368.651 132.704 476.059 105.596 458.638 55.6046C444.643 15.4436 379.884 93.039 337.397 90.782Z" stroke="#6260FF" stroke-width="1.28384"/>
<path d="M338.953 88.3682C314.704 87.08 305.509 52.0696 282.978 43.0175C257.672 32.8506 229.875 33.3637 202.602 33.5888C166.046 33.8904 125.902 25.554 94.6855 44.5712C64.0417 63.2394 26.9302 99.9354 37.3503 134.26C51.7188 181.592 123.105 186.681 150.359 227.966C162.816 246.836 135.293 273.506 143.245 294.671C151.069 315.491 170.501 333.72 192.101 339.057C214.803 344.667 236.805 328.162 259.71 323.45C274.75 320.357 291.035 308.797 304.642 315.908C350.403 339.822 380.504 435.441 425.476 410.076C467.973 386.106 371.405 319.119 382.962 271.733C390.443 241.06 472.277 264.876 468.536 233.527C464.242 197.552 373.829 221.135 372.602 184.926C370.777 131.054 480.145 103.452 462.406 52.5494C448.155 11.6561 382.215 90.6664 338.953 88.3682Z" stroke="#6260FF" stroke-width="1.28384"/>
<path d="M340.508 85.9544C315.824 84.6432 306.465 49.0058 283.53 39.7916C257.77 29.4427 229.476 29.965 201.714 30.194C164.503 30.5011 123.64 22.0154 91.8643 41.3731C60.6716 60.3756 22.8953 97.7288 33.5021 132.668C48.128 180.847 120.793 186.028 148.535 228.052C161.216 247.26 133.199 274.408 141.294 295.952C149.257 317.145 169.038 335.7 191.025 341.133C214.134 346.843 236.53 330.042 259.845 325.246C275.154 322.097 291.731 310.331 305.582 317.569C352.163 341.911 382.803 439.243 428.581 413.423C471.839 389.024 373.541 320.837 385.305 272.603C392.92 241.38 476.22 265.624 472.412 233.713C468.041 197.094 376.008 221.099 374.76 184.241C372.902 129.405 484.229 101.308 466.172 49.4942C451.666 7.86862 384.545 88.2938 340.508 85.9544Z" stroke="#6260FF" stroke-width="1.28384"/>
<path d="M342.063 83.5413C316.945 82.2069 307.421 45.9426 284.082 36.5663C257.869 26.0354 229.076 26.5668 200.826 26.7999C162.96 27.1124 121.378 18.4774 89.0432 38.1757C57.3015 57.5125 18.8603 95.5228 29.6538 131.077C44.5371 180.103 118.481 185.375 146.712 228.138C159.615 247.685 131.106 275.31 139.343 297.233C147.446 318.799 167.576 337.68 189.949 343.209C213.464 349.019 236.255 331.923 259.98 327.043C275.559 323.838 292.427 311.865 306.522 319.23C353.923 344 385.102 443.045 431.686 416.771C475.705 391.943 375.677 322.556 387.648 273.473C395.398 241.702 480.163 266.371 476.288 233.899C471.841 196.636 378.188 221.064 376.917 183.557C375.027 127.756 488.313 99.1654 469.938 46.4396C455.177 4.08175 386.874 85.9218 342.063 83.5413Z" stroke="#6260FF" stroke-width="1.28384"/>
<path d="M343.619 81.1275C318.066 79.7701 308.377 42.8788 284.635 33.3404C257.969 22.6274 228.678 23.1681 199.94 23.4052C161.419 23.723 119.118 14.9388 86.2233 34.9776C53.9327 54.6487 14.8267 93.3162 25.8068 129.485C40.9475 179.359 116.17 184.722 144.889 228.225C158.016 248.109 129.013 276.212 137.393 298.513C145.637 320.452 166.114 339.66 188.875 345.284C212.796 351.195 235.981 333.803 260.117 328.839C275.965 325.579 293.125 313.398 307.463 320.891C355.684 346.09 387.403 446.846 434.792 420.118C479.572 394.861 377.814 324.275 389.993 274.343C397.876 242.022 484.108 267.118 480.165 234.085C475.641 196.177 380.368 221.027 379.076 182.873C377.153 126.107 492.398 97.0217 473.706 43.3844C458.689 0.294273 389.205 83.5492 343.619 81.1275Z" stroke="#6260FF" stroke-width="1.28384"/>
<path d="M345.176 78.7138C319.189 77.3333 309.336 39.815 285.19 30.1146C258.07 19.2195 228.282 19.7693 199.054 20.0105C159.878 20.3337 116.858 11.4002 83.4046 31.7796C50.5651 51.785 10.7942 91.1095 21.961 127.893C37.3591 178.615 113.861 184.069 143.068 228.311C156.418 248.533 126.922 277.113 135.444 299.794C143.828 322.106 164.653 341.64 187.801 347.359C212.129 353.371 235.708 335.684 260.254 330.635C276.372 327.319 293.824 314.932 308.406 322.552C357.446 348.179 389.704 450.648 437.899 423.465C483.441 397.779 379.953 325.993 392.338 275.213C400.356 242.343 488.053 267.865 484.044 234.271C479.443 195.718 382.55 220.991 381.236 182.188C379.281 124.458 496.485 94.8781 477.475 40.3292C462.203 -3.49321 391.538 81.1766 345.176 78.7138Z" stroke="#6260FF" stroke-width="1.28384"/>
<path d="M346.733 76.2969C320.312 74.8934 310.294 36.7482 285.744 26.8856C258.171 15.8085 227.885 16.3675 198.169 16.6127C158.338 16.9414 114.599 7.85851 80.586 28.5785C47.1975 48.9181 6.7618 88.8999 18.1153 126.298C33.7708 177.867 111.551 183.413 141.246 228.394C154.819 248.953 124.831 278.012 133.496 301.072C142.019 323.756 163.193 343.616 186.728 349.432C211.462 355.544 235.435 337.561 260.392 332.428C276.779 329.057 294.522 316.462 309.348 324.21C359.208 350.265 392.006 454.446 441.006 426.81C487.309 400.694 382.092 327.708 394.684 276.08C402.835 242.66 491.999 268.609 487.923 234.453C483.244 195.257 384.732 220.952 383.396 181.5C381.408 122.805 500.571 92.7314 481.243 37.271C465.716 -7.28374 393.87 78.801 346.733 76.2969Z" stroke="#6260FF" stroke-width="1.28384"/>
<path d="M348.287 73.8832C321.431 72.4566 311.248 33.6844 286.295 23.6597C258.269 12.4006 227.484 12.9687 197.28 13.218C156.794 13.552 112.336 4.31991 77.7636 25.3804C43.8261 46.0544 2.72564 86.6932 14.2658 124.706C30.1787 177.123 109.238 182.759 139.421 228.48C153.218 249.377 122.736 278.914 131.543 302.352C140.207 325.409 161.729 345.596 185.65 351.507C210.792 357.72 235.159 339.441 260.526 334.223C277.182 330.797 295.217 317.996 310.287 325.871C360.967 352.354 394.304 458.247 444.11 430.157C491.174 403.612 384.226 329.427 397.026 276.949C405.311 242.981 495.941 269.356 491.797 234.639C487.042 194.798 386.911 220.916 385.552 180.815C383.531 121.156 504.654 90.5877 485.008 34.2158C469.226 -11.0712 396.198 76.4283 348.287 73.8832Z" stroke="#6260FF" stroke-width="1.28384"/>
<path d="M349.841 71.47C322.551 70.0203 312.204 30.6213 286.847 20.4345C258.367 8.99322 227.085 9.5706 196.392 9.82386C155.251 10.1633 110.074 0.781913 74.9425 22.183C40.456 43.1912 -1.30929 84.4872 10.4175 123.115C26.5878 176.379 106.926 182.107 137.598 228.566C151.617 249.802 120.642 279.816 129.592 303.633C138.396 327.063 160.266 347.577 184.574 353.583C210.123 359.896 234.884 341.322 260.661 336.02C277.587 332.539 295.914 319.53 311.227 327.532C362.727 354.444 396.603 462.05 447.214 433.504C495.04 406.53 386.363 331.146 399.369 277.82C407.788 243.302 499.884 270.104 495.673 234.825C490.842 194.34 389.09 220.88 387.71 180.131C385.656 119.507 508.738 88.4447 488.775 31.1612C472.737 -14.8581 398.528 74.0563 349.841 71.47Z" stroke="#6260FF" stroke-width="1.28384"/>
<path d="M351.397 69.0561C323.673 67.5834 313.161 27.5574 287.4 17.2085C258.467 5.58516 226.687 6.17173 195.505 6.42902C153.71 6.77388 107.813 -2.75681 72.1225 18.9848C37.0871 40.3274 -5.34301 82.2805 6.57048 121.523C22.9982 175.635 104.615 181.453 135.775 228.652C150.017 250.226 118.55 280.717 127.642 304.914C136.586 328.717 158.804 349.556 183.5 355.659C209.454 362.072 234.61 343.202 260.797 337.816C277.992 334.279 296.611 321.063 312.169 329.193C364.488 356.533 398.903 465.851 450.32 436.852C498.908 409.448 388.5 332.864 401.713 278.69C410.267 243.622 503.828 270.851 499.551 235.011C494.642 193.882 391.271 220.844 389.869 179.447C387.782 117.858 512.823 86.3009 492.542 28.1059C476.249 -18.6457 400.859 71.6836 351.397 69.0561Z" stroke="#6260FF" stroke-width="1.28384"/>
</svg>
