<svg width="467" height="408" viewBox="0 0 467 408" fill="none" xmlns="http://www.w3.org/2000/svg">
<path fill-rule="evenodd" clip-rule="evenodd" d="M224.975 141.832C236.273 149.293 233.871 167.014 240.595 178.762C243.244 183.391 247.01 188.358 252.232 189.455C270.177 193.223 299.142 175.787 306.462 192.591C313.113 207.86 270.242 204.446 265.747 220.482C261.575 235.365 291.831 246.091 287.32 260.875C283.765 272.526 263.86 266.822 251.676 266.599C242.37 266.428 234.074 261.688 224.975 259.73C217.723 258.171 210.535 257.774 203.289 256.19C194.379 254.244 182.959 256.329 177.171 249.284C171.409 242.272 174.017 231.393 175.566 222.452C176.866 214.955 187.117 209.539 185.343 202.139C181.484 186.044 157.684 176.131 160.552 159.83C162.659 147.85 183.057 151.781 194.778 148.507C204.832 145.698 216.264 136.08 224.975 141.832Z" stroke="#6260FF" stroke-width="1.28384"/>
<path fill-rule="evenodd" clip-rule="evenodd" d="M205.986 6.8953C241.77 30.5206 234.162 86.6379 255.458 123.84C263.85 138.5 275.776 154.229 292.315 157.701C349.153 169.632 440.893 114.419 464.077 167.632C485.143 215.985 349.36 205.172 335.122 255.954C321.908 303.084 417.737 337.048 403.45 383.864C392.191 420.758 329.147 402.698 290.556 401.99C261.083 401.449 234.804 386.438 205.986 380.24C183.018 375.301 160.251 374.045 137.3 369.03C109.081 362.865 72.9093 369.468 54.577 347.161C36.3282 324.956 44.5876 290.504 49.4962 262.193C53.6125 238.451 86.0804 221.301 80.4611 197.869C68.2378 146.9 -7.14279 115.51 1.93987 63.8896C8.61499 25.9521 73.2208 38.4018 110.344 28.0326C142.189 19.1377 178.398 -11.319 205.986 6.8953Z" stroke="#6260FF" stroke-width="1.28384"/>
<path d="M240.887 177.685C233.877 165.438 236.381 146.964 224.603 139.186C215.523 133.19 203.604 143.216 193.123 146.145C180.904 149.558 159.639 145.46 157.442 157.949C154.453 174.943 179.264 185.276 183.287 202.056C185.137 209.769 174.45 215.416 173.095 223.231C171.479 232.552 168.761 243.894 174.767 251.203C180.801 258.547 192.707 256.373 201.995 258.403C209.55 260.054 217.043 260.467 224.603 262.093C234.088 264.134 242.738 269.075 252.439 269.253C265.141 269.487 285.892 275.432 289.598 263.286C294.3 247.874 262.758 236.693 267.108 221.177C271.794 204.46 316.487 208.02 309.553 192.102C301.922 174.583 271.726 192.76 253.018 188.832C247.574 187.689 243.649 182.511 240.887 177.685Z" stroke="#6260FF" stroke-width="1.28384"/>
<path d="M241.178 176.608C233.882 163.862 236.489 144.635 224.23 136.54C214.78 130.3 202.376 140.735 191.467 143.782C178.75 147.335 156.618 143.069 154.332 156.068C151.22 173.754 177.043 184.509 181.23 201.972C183.155 210 172.033 215.876 170.623 224.011C168.941 233.711 166.112 245.515 172.363 253.123C178.643 260.765 191.034 258.503 200.701 260.615C208.563 262.333 216.363 262.764 224.23 264.456C234.102 266.58 243.104 271.723 253.201 271.908C266.421 272.151 288.017 278.338 291.874 265.698C296.769 249.657 263.941 238.021 268.468 221.873C273.345 204.474 319.859 208.179 312.643 191.612C304.701 173.38 273.274 192.297 253.804 188.209C248.138 187.02 244.052 181.631 241.178 176.608Z" stroke="#6260FF" stroke-width="1.28384"/>
<path d="M241.469 175.531C233.888 162.286 236.596 142.306 223.858 133.894C214.037 127.409 201.148 138.253 189.811 141.42C176.596 145.112 153.598 140.679 151.222 154.186C147.988 172.565 174.822 183.741 179.174 201.888C181.174 210.231 169.616 216.337 168.151 224.79C166.403 234.87 163.463 247.136 169.96 255.042C176.485 262.984 189.362 260.633 199.407 262.828C207.577 264.613 215.682 265.06 223.858 266.819C234.117 269.026 243.471 274.37 253.963 274.563C267.701 274.815 290.144 281.245 294.152 268.109C299.237 251.441 265.124 239.348 269.828 222.568C274.897 204.488 323.233 208.338 315.733 191.123C307.48 172.177 274.823 191.835 254.59 187.587C248.702 186.351 244.457 180.75 241.469 175.531Z" stroke="#6260FF" stroke-width="1.28384"/>
<path d="M241.76 174.454C233.893 160.71 236.704 139.977 223.485 131.249C213.294 124.52 199.919 135.772 188.155 139.058C174.442 142.889 150.577 138.289 148.111 152.306C144.756 171.377 172.602 182.974 177.117 201.805C179.193 210.462 167.199 216.798 165.678 225.569C163.865 236.029 160.814 248.758 167.555 256.961C174.327 265.202 187.689 262.763 198.113 265.041C206.591 266.893 215.001 267.358 223.485 269.182C234.131 271.472 243.838 277.018 254.725 277.218C268.981 277.48 292.269 284.152 296.428 270.521C301.706 253.225 266.307 240.677 271.188 223.264C276.447 204.503 326.605 208.498 318.823 190.634C310.259 170.974 276.371 191.372 255.375 186.965C249.266 185.682 244.86 179.871 241.76 174.454Z" stroke="#6260FF" stroke-width="1.28384"/>
<path d="M242.053 173.377C233.901 159.134 236.813 137.648 223.115 128.603C212.553 121.629 198.692 133.29 186.501 136.696C172.29 140.666 147.558 135.899 145.003 150.424C141.526 170.188 170.383 182.206 175.062 201.721C177.213 210.692 164.784 217.258 163.208 226.348C161.329 237.188 158.167 250.378 165.153 258.88C172.171 267.42 186.018 264.893 196.82 267.253C205.606 269.173 214.322 269.654 223.115 271.545C234.147 273.918 244.206 279.665 255.489 279.872C270.263 280.143 294.397 287.058 298.707 272.932C304.176 255.008 267.491 242.004 272.55 223.959C278 204.517 329.98 208.657 321.916 190.144C313.04 169.77 277.921 190.91 256.163 186.342C249.831 185.012 245.266 178.99 242.053 173.377Z" stroke="#6260FF" stroke-width="1.28384"/>
<path d="M242.344 172.3C233.905 157.558 236.92 135.319 222.741 125.957C211.81 118.739 197.463 130.809 184.845 134.333C170.136 138.443 144.537 133.509 141.892 148.543C138.293 168.999 168.161 181.439 173.004 201.637C175.231 210.923 162.366 217.719 160.735 227.128C158.79 238.347 155.518 252 162.748 260.799C170.012 269.639 184.345 267.023 195.526 269.466C204.62 271.453 213.641 271.951 222.741 273.908C234.16 276.364 244.572 282.313 256.251 282.527C271.542 282.808 296.522 289.965 300.983 275.344C306.644 256.791 268.673 243.332 273.909 224.655C279.551 204.531 333.352 208.816 325.005 189.655C315.819 168.567 279.468 190.447 256.948 185.719C250.394 184.343 245.669 178.11 242.344 172.3Z" stroke="#6260FF" stroke-width="1.28384"/>
<path d="M242.636 171.224C233.912 155.982 237.028 132.991 222.37 123.311C211.068 115.849 196.235 128.327 183.19 131.971C167.983 136.22 141.517 131.119 138.782 146.662C135.062 167.811 165.941 180.671 170.948 201.553C173.25 211.153 159.95 218.18 158.264 227.907C156.253 239.506 152.87 253.621 160.345 262.719C167.855 271.858 182.673 269.153 194.232 271.678C203.634 273.733 212.961 274.248 222.37 276.271C234.175 278.81 244.94 284.961 257.013 285.182C272.822 285.472 298.648 292.871 303.261 277.756C309.113 258.575 269.857 244.66 275.27 225.351C281.103 204.546 336.726 208.976 328.096 189.165C318.599 167.364 281.018 189.985 257.734 185.097C250.959 183.674 246.074 177.23 242.636 171.224Z" stroke="#6260FF" stroke-width="1.28384"/>
<path d="M242.926 170.146C233.916 154.406 237.135 130.662 221.996 120.665C210.325 112.959 195.006 125.845 181.533 129.609C165.828 133.996 138.495 128.729 135.671 144.781C131.829 166.622 163.72 179.903 168.891 201.469C171.268 211.384 157.532 218.64 155.791 228.686C153.714 240.665 150.22 255.242 157.94 264.637C165.696 274.076 180.999 271.282 192.937 273.891C202.647 276.012 212.28 276.544 221.996 278.634C234.188 281.256 245.306 287.608 257.775 287.837C274.102 288.136 300.773 295.778 305.537 280.167C311.581 260.358 271.039 245.988 276.629 226.046C282.653 204.56 340.098 209.135 331.186 188.676C321.377 166.16 282.565 189.522 258.519 184.474C251.522 183.005 246.477 176.349 242.926 170.146Z" stroke="#6260FF" stroke-width="1.28384"/>
<path d="M243.219 169.07C233.923 152.83 237.244 128.333 221.625 118.02C209.583 110.069 193.779 123.364 179.879 127.247C163.675 131.773 135.476 126.339 132.562 142.899C128.598 165.434 161.5 179.136 166.836 201.386C169.288 211.615 155.117 219.101 153.32 229.465C151.177 241.824 147.572 256.864 155.538 266.557C163.539 276.294 179.328 273.412 191.645 276.103C201.662 278.292 211.6 278.841 221.625 280.997C234.204 283.702 245.674 290.255 258.538 290.491C275.383 290.801 302.9 298.684 307.815 282.579C314.051 262.142 272.223 247.316 277.991 226.742C284.206 204.574 343.473 209.294 334.277 188.187C324.158 164.957 284.115 189.06 259.306 183.851C252.087 182.336 246.882 175.469 243.219 169.07Z" stroke="#6260FF" stroke-width="1.28384"/>
<path d="M243.51 167.993C233.929 151.254 237.352 126.004 221.252 115.374C208.84 107.178 192.55 120.882 178.223 124.885C161.521 129.55 132.455 123.949 129.452 141.018C125.366 164.245 159.279 178.369 164.779 201.302C167.307 211.845 152.7 219.562 150.848 230.245C148.639 242.983 144.923 258.485 153.133 268.476C161.381 278.513 177.655 275.542 190.35 278.316C200.676 280.572 210.919 281.138 221.252 283.36C234.218 286.149 246.04 292.903 259.3 293.146C276.663 293.465 305.026 301.591 310.091 284.991C316.519 263.926 273.406 248.644 279.351 227.437C285.756 204.588 346.845 209.454 337.367 187.697C326.937 163.754 285.663 188.597 260.092 183.229C252.651 181.667 247.285 174.589 243.51 167.993Z" stroke="#6260FF" stroke-width="1.28384"/>
<path d="M243.801 166.916C233.934 149.678 237.459 123.675 220.88 112.728C208.098 104.288 191.322 118.401 176.567 122.522C159.368 127.327 129.435 121.558 126.342 139.137C122.134 163.056 157.059 177.601 162.722 201.218C165.326 212.076 150.283 220.023 148.376 231.024C146.101 244.142 142.275 260.106 150.73 270.395C159.223 280.731 175.982 277.672 189.056 280.528C199.69 282.852 210.239 283.434 220.88 285.723C234.232 288.595 246.407 295.55 260.063 295.801C277.943 296.129 307.152 304.497 312.369 287.402C318.988 265.709 274.589 249.971 280.711 228.133C287.308 204.602 350.218 209.613 340.458 187.208C329.716 162.551 287.212 188.134 260.878 182.606C253.215 180.997 247.689 173.709 243.801 166.916Z" stroke="#6260FF" stroke-width="1.28384"/>
<path d="M244.093 165.839C233.94 148.102 237.567 121.346 220.508 110.082C207.356 101.398 190.094 115.919 174.912 120.16C157.214 125.104 126.414 119.168 123.232 137.256C118.902 161.867 154.839 176.833 160.666 201.134C163.345 212.306 147.866 220.483 145.904 231.803C143.564 245.301 139.626 261.727 148.326 272.314C157.066 282.949 174.31 279.802 187.763 282.741C198.704 285.132 209.558 285.731 220.508 288.086C234.246 291.041 246.774 298.198 260.825 298.456C279.223 298.793 309.278 307.404 314.646 289.813C321.457 267.492 275.772 251.299 282.072 228.828C288.859 204.617 353.592 209.772 343.549 186.718C332.496 161.347 288.76 187.672 261.664 181.983C253.779 180.328 248.094 172.828 244.093 165.839Z" stroke="#6260FF" stroke-width="1.28384"/>
<path d="M244.384 164.762C233.945 146.526 237.675 119.018 220.135 107.437C206.613 98.5079 188.865 113.438 173.256 117.798C155.06 122.881 123.393 116.778 120.122 135.375C115.67 160.679 152.618 176.066 158.609 201.051C161.363 212.537 145.449 220.944 143.431 232.582C141.025 246.461 136.977 263.349 145.922 274.234C154.907 285.168 172.637 281.932 186.468 284.954C197.718 287.412 208.878 288.028 220.135 290.449C234.26 293.487 247.141 300.845 261.587 301.111C280.503 301.458 311.404 310.311 316.922 292.225C323.925 269.276 276.954 252.627 283.431 229.524C290.41 204.631 356.964 209.932 346.639 186.229C335.275 160.144 290.308 187.209 262.45 181.361C254.343 179.659 248.497 171.948 244.384 164.762Z" stroke="#6260FF" stroke-width="1.28384"/>
<path d="M244.676 163.685C233.952 144.95 237.783 116.688 219.763 104.79C205.871 95.6174 187.637 110.956 171.601 115.435C152.907 120.657 120.374 114.388 117.012 133.493C112.438 159.49 150.398 175.298 156.553 200.967C159.383 212.767 143.033 221.405 140.96 233.361C138.488 247.619 134.329 264.97 143.519 276.152C152.75 287.386 170.965 284.061 185.175 287.166C196.732 289.691 208.198 290.324 219.763 292.812C234.275 295.933 247.508 303.493 262.35 303.765C281.783 304.122 313.53 313.217 319.2 294.636C326.395 271.059 278.138 253.954 284.792 230.219C291.962 204.645 360.338 210.091 349.73 185.739C338.055 158.941 291.858 186.747 263.236 180.738C254.907 178.989 248.902 171.068 244.676 163.685Z" stroke="#6260FF" stroke-width="1.28384"/>
<path d="M244.967 162.608C233.957 143.374 237.89 114.36 219.391 102.145C205.128 92.7273 186.408 108.474 169.945 113.073C150.753 118.434 117.353 111.997 113.902 131.612C109.206 158.301 148.177 174.531 154.496 200.883C157.401 212.998 140.616 221.865 138.488 234.14C135.95 248.778 131.68 266.591 141.114 278.072C150.592 289.605 169.292 286.191 183.881 289.379C195.746 291.971 207.517 292.621 219.391 295.174C234.289 298.379 247.875 306.14 263.112 306.42C283.063 306.786 315.656 316.123 321.477 297.048C328.863 272.843 279.321 255.282 286.152 230.915C293.513 204.659 363.711 210.25 352.82 185.25C340.834 157.737 293.406 186.284 264.022 180.115C255.471 178.32 249.305 170.188 244.967 162.608Z" stroke="#6260FF" stroke-width="1.28384"/>
<path d="M245.258 161.532C233.963 141.798 237.998 112.031 219.018 99.4991C204.385 89.8374 185.18 105.993 168.289 110.711C148.599 116.212 114.332 109.608 110.792 129.731C105.974 157.113 145.956 173.763 152.44 200.8C155.42 213.229 138.199 222.326 136.016 234.92C133.412 249.938 129.031 268.213 138.711 279.991C148.434 291.823 167.62 288.321 182.587 291.591C194.76 294.251 206.836 294.918 219.018 297.538C234.304 300.825 248.242 308.788 263.874 309.075C284.343 309.45 317.782 319.03 323.754 299.46C331.332 274.626 280.504 256.61 287.513 231.611C295.064 204.674 367.084 210.41 355.91 184.761C343.614 156.534 294.954 185.822 264.808 179.493C256.035 177.651 249.71 169.308 245.258 161.532Z" stroke="#6260FF" stroke-width="1.28384"/>
<path d="M245.549 160.454C233.968 140.222 238.106 109.702 218.646 96.8528C203.642 86.9468 183.951 103.511 166.634 108.349C146.445 113.988 111.311 107.217 107.681 127.85C102.742 155.924 143.735 172.996 150.383 200.716C153.439 213.459 135.782 222.787 133.543 235.699C130.874 251.096 126.382 269.833 136.306 281.91C146.276 294.041 165.947 290.451 181.293 293.804C193.774 296.531 206.155 297.214 218.646 299.9C234.317 303.271 248.608 311.435 264.636 311.729C285.623 312.114 319.908 321.936 326.031 301.871C333.8 276.409 281.686 257.938 288.872 232.306C296.615 204.688 370.457 210.568 359 184.271C346.393 155.331 296.502 185.359 265.593 178.87C256.599 176.982 250.113 168.427 245.549 160.454Z" stroke="#6260FF" stroke-width="1.28384"/>
<path d="M245.841 159.378C233.974 138.646 238.213 107.373 218.273 94.2073C202.9 84.0569 182.723 101.03 164.978 105.987C144.292 111.765 108.291 104.827 104.571 125.969C99.5102 154.736 141.515 172.228 148.326 200.632C151.458 213.69 133.365 223.248 131.072 236.478C128.336 252.256 123.734 271.455 133.903 283.829C144.118 296.26 164.274 292.581 179.999 296.016C192.788 298.811 205.475 299.511 218.273 302.263C234.332 305.717 248.975 314.083 265.399 314.384C286.903 314.779 322.034 324.843 328.308 304.283C336.269 278.193 282.869 259.266 290.233 233.001C298.167 204.702 373.83 210.728 362.091 183.782C349.172 154.128 298.051 184.896 266.379 178.248C257.163 176.313 250.517 167.547 245.841 159.378Z" stroke="#6260FF" stroke-width="1.28384"/>
<path d="M246.132 158.301C233.979 137.07 238.321 105.044 217.901 91.5616C202.157 81.1669 181.494 98.5482 163.322 103.625C142.138 109.542 105.27 102.437 101.461 124.088C96.2779 153.547 139.294 171.461 146.269 200.549C149.476 213.921 130.948 223.709 128.599 237.258C125.798 253.415 121.085 273.076 131.499 285.748C141.96 298.479 162.601 294.711 178.704 298.229C191.802 301.091 204.794 301.808 217.901 304.627C234.346 308.164 249.342 316.73 266.161 317.039C288.183 317.443 324.159 327.75 330.584 306.695C338.737 279.977 284.052 260.594 291.593 233.697C299.718 204.717 377.203 210.887 365.181 183.293C351.951 152.925 299.599 184.434 267.165 177.625C257.726 175.644 250.921 166.667 246.132 158.301Z" stroke="#6260FF" stroke-width="1.28384"/>
<path d="M246.424 157.224C233.985 135.494 238.429 102.715 217.529 88.9155C201.415 78.2764 180.267 96.0663 161.667 101.262C139.985 107.319 102.25 100.047 98.3515 122.206C93.0466 152.358 137.074 170.693 144.213 200.464C147.495 214.151 128.532 224.169 126.128 238.037C123.261 254.574 118.437 274.697 129.095 287.667C139.803 300.697 160.93 296.84 177.411 300.441C190.816 303.37 204.114 304.104 217.529 306.989C234.361 310.609 249.709 319.377 266.924 319.693C289.464 320.107 326.286 330.656 332.862 309.106C341.207 281.76 285.235 261.921 292.954 234.392C301.27 204.73 380.577 211.046 368.272 182.803C354.731 151.721 301.148 183.971 267.951 177.002C258.291 174.974 251.326 165.787 246.424 157.224Z" stroke="#6260FF" stroke-width="1.28384"/>
<path d="M246.715 156.147C233.991 133.918 238.537 100.386 217.157 86.2697C200.673 75.3862 179.039 93.5848 160.012 98.8997C137.831 105.096 99.2298 97.6566 95.2415 120.325C89.8147 151.17 134.854 169.926 142.157 200.381C145.514 214.382 126.115 224.63 123.656 238.816C120.723 255.733 115.788 276.319 126.692 289.586C137.645 302.915 159.257 298.97 176.117 302.654C189.83 305.65 203.434 306.401 217.157 309.352C234.375 313.055 250.076 322.025 267.686 322.348C290.744 322.771 328.412 333.562 335.139 311.517C343.675 283.543 286.419 263.249 294.314 235.088C302.821 204.745 383.95 211.206 371.363 182.314C357.511 150.518 302.697 183.509 268.737 176.38C258.855 174.305 251.73 164.906 246.715 156.147Z" stroke="#6260FF" stroke-width="1.28384"/>
<path d="M247.007 155.07C233.996 132.342 238.644 98.0578 216.784 83.6242C199.93 72.4963 177.81 91.1035 158.356 96.5378C135.677 102.873 96.2089 95.2667 92.1311 118.444C86.5824 149.981 132.633 169.158 140.1 200.297C143.533 214.613 123.698 225.091 121.183 239.595C118.185 256.892 113.139 277.94 124.287 291.506C135.487 305.134 157.584 301.1 174.823 304.867C188.844 307.93 202.753 308.698 216.784 311.715C234.389 315.502 250.443 324.673 268.448 325.003C292.024 325.436 330.537 336.469 337.416 313.929C346.144 285.327 287.601 264.577 295.674 235.784C304.372 204.759 387.322 211.365 374.453 181.825C360.29 149.315 304.245 183.046 269.523 175.757C259.419 173.636 252.133 164.026 247.007 155.07Z" stroke="#6260FF" stroke-width="1.28384"/>
<path d="M247.298 153.993C234.002 130.766 238.752 95.7291 216.412 80.9785C199.188 69.6063 176.582 88.6221 156.7 94.1757C133.523 100.65 93.1885 92.8767 89.0211 116.563C83.3506 148.793 130.412 168.391 138.044 200.214C141.552 214.844 121.281 225.552 118.712 240.375C115.647 258.051 110.491 279.562 121.884 293.425C133.329 307.352 155.912 303.23 173.529 307.079C187.858 310.21 202.072 310.995 216.411 314.078C234.403 317.948 250.81 327.32 269.21 327.658C293.304 328.1 332.664 339.376 339.693 316.341C348.613 287.111 288.784 265.905 297.034 236.479C305.923 204.774 390.696 211.525 377.543 181.335C363.069 148.112 305.794 182.584 270.309 175.135C259.983 172.967 252.537 163.146 247.298 153.993Z" stroke="#6260FF" stroke-width="1.28384"/>
<path d="M247.589 152.916C234.007 129.19 238.86 93.3999 216.039 78.3324C198.445 66.7158 175.353 86.1402 155.044 91.8131C131.369 98.4263 90.1676 90.4862 85.9107 114.682C80.1183 147.604 128.191 167.623 135.987 200.13C139.57 215.074 118.864 226.012 116.239 241.154C113.109 259.21 107.841 281.182 119.479 295.344C131.171 309.57 154.239 305.36 172.235 309.292C186.872 312.49 201.392 313.291 216.039 316.441C234.417 320.394 251.176 329.968 269.972 330.312C294.584 330.764 334.789 342.282 341.97 318.752C351.081 288.894 289.967 267.233 298.394 237.175C307.474 204.788 394.068 211.684 380.633 180.846C365.848 146.908 307.342 182.121 271.094 174.512C260.547 172.298 252.941 162.266 247.589 152.916Z" stroke="#6260FF" stroke-width="1.28384"/>
<path d="M247.881 151.839C234.014 127.614 238.968 91.0712 215.667 75.6867C197.703 63.8258 174.125 83.6588 153.389 89.4511C129.216 96.2034 87.1477 88.0962 82.8012 112.801C76.887 146.415 125.972 166.856 133.931 200.046C137.59 215.305 116.448 226.473 113.768 241.933C110.571 260.369 105.193 282.804 117.076 297.263C129.013 311.789 152.567 307.49 170.941 311.504C185.886 314.77 200.712 315.588 215.667 318.804C234.432 322.84 251.544 332.615 270.735 332.967C295.864 333.429 336.916 345.189 344.247 321.164C353.55 290.678 291.15 268.561 299.755 237.87C309.026 204.802 397.442 211.843 383.725 180.356C368.628 145.705 308.891 181.659 271.881 173.889C261.111 171.629 253.346 161.386 247.881 151.839Z" stroke="#6260FF" stroke-width="1.28384"/>
<path d="M248.172 150.762C234.019 126.038 239.075 88.742 215.294 73.0406C196.96 60.9353 172.896 81.1769 151.733 87.0885C127.062 93.9799 84.1269 85.7058 79.6907 110.919C73.6547 145.226 123.751 166.088 131.874 199.962C135.608 215.535 114.031 226.933 111.295 242.712C108.033 261.528 102.544 284.425 114.672 299.182C126.855 314.007 150.894 309.619 169.647 313.717C184.9 317.049 200.031 317.884 215.294 321.167C234.446 325.286 251.91 335.262 271.497 335.622C297.144 336.092 339.041 348.095 346.524 323.575C356.019 292.461 292.333 269.888 301.115 238.565C310.577 204.816 400.815 212.002 386.815 179.867C371.407 144.501 310.439 181.196 272.667 173.266C261.675 170.959 253.749 160.505 248.172 150.762Z" stroke="#6260FF" stroke-width="1.28384"/>
<path d="M248.464 149.685C234.025 124.462 239.183 86.4133 214.922 70.3949C196.217 58.0453 171.668 78.6955 150.078 84.7264C124.909 91.7569 81.1065 83.3158 76.5808 109.038C70.4228 144.038 121.53 165.32 129.817 199.878C133.627 215.766 111.614 227.394 108.824 243.491C105.495 262.687 99.8958 286.046 112.268 301.102C124.697 316.226 149.222 311.749 168.353 315.929C183.914 319.329 199.35 320.181 214.922 323.53C234.46 327.732 252.277 337.91 272.26 338.277C298.424 338.757 341.167 351.002 348.801 325.987C358.487 294.244 293.516 271.216 302.475 239.261C312.128 204.83 404.188 212.162 389.905 179.377C374.187 143.298 311.988 180.733 273.453 172.644C262.239 170.29 254.153 159.625 248.464 149.685Z" stroke="#6260FF" stroke-width="1.28384"/>
<path d="M248.755 148.609C234.031 122.886 239.291 84.0846 214.55 67.7493C195.475 55.1553 170.44 76.2141 148.422 82.3643C122.755 89.534 78.0861 80.9258 73.4708 107.157C67.191 142.849 119.31 164.553 127.761 199.795C131.646 215.996 109.198 227.855 106.352 244.271C102.958 263.846 97.2472 287.668 109.865 303.021C122.54 318.444 147.549 313.879 167.059 318.142C182.928 321.609 198.67 322.478 214.55 325.893C234.475 330.178 252.644 340.558 273.022 340.932C299.704 341.421 343.293 353.908 351.078 328.399C360.956 296.028 294.699 272.544 303.836 239.957C313.68 204.845 407.561 212.321 392.996 178.888C376.966 142.095 313.536 180.271 274.239 172.022C262.803 169.621 254.557 158.745 248.755 148.609Z" stroke="#6260FF" stroke-width="1.28384"/>
<path d="M249.046 147.532C234.036 121.31 239.398 81.7554 214.177 65.1031C194.732 52.2648 169.211 73.7322 146.766 80.0018C120.601 87.3105 75.0652 78.5353 70.3604 105.276C63.9587 141.66 117.089 163.785 125.704 199.711C129.665 216.227 106.78 228.315 103.879 245.05C100.42 265.005 94.5981 289.289 107.46 304.94C120.381 320.662 145.876 316.009 165.765 320.354C181.942 323.889 197.989 324.774 214.177 328.256C234.489 332.624 253.011 343.205 273.784 343.586C300.984 344.085 345.419 356.815 353.355 330.81C363.425 297.811 295.882 273.872 305.195 240.652C315.231 204.859 410.934 212.48 396.086 178.399C379.745 140.891 315.084 179.808 275.024 171.399C263.367 168.951 254.961 157.864 249.046 147.532Z" stroke="#6260FF" stroke-width="1.28384"/>
<path d="M249.338 146.455C234.042 119.734 239.506 79.4267 213.805 62.4575C193.99 49.3747 167.983 71.2507 145.111 77.6397C118.447 85.0876 72.0448 76.1453 67.2504 103.395C60.7269 140.472 114.868 163.018 123.648 199.627C127.684 216.458 104.364 228.776 101.407 245.829C97.8818 266.164 91.9496 290.91 105.057 306.859C118.224 322.881 144.204 318.139 164.471 322.567C180.956 326.169 197.309 327.071 213.805 330.619C234.503 335.07 253.378 345.852 274.546 346.241C302.264 346.75 347.545 359.721 355.632 333.221C365.894 299.595 297.065 275.2 306.556 241.348C316.782 204.873 414.307 212.64 399.176 177.909C382.525 139.688 316.633 179.346 275.81 170.776C263.931 168.282 255.365 156.984 249.338 146.455Z" stroke="#6260FF" stroke-width="1.28384"/>
<path d="M249.629 145.378C234.047 118.158 239.614 77.098 213.433 59.8118C193.247 46.4847 166.755 68.7693 143.455 75.2776C116.294 82.8646 69.0244 73.7553 64.1405 101.514C57.4951 139.283 112.648 162.25 121.591 199.544C125.703 216.688 101.947 229.237 98.9355 246.608C95.344 267.324 89.301 292.531 102.653 308.778C116.066 325.1 142.531 320.269 163.177 324.78C179.97 328.448 196.628 329.368 213.432 332.982C234.518 337.517 253.745 348.5 275.309 348.896C303.545 349.414 349.671 362.628 357.909 335.633C368.362 301.378 298.248 276.528 307.916 242.043C318.334 204.887 417.681 212.799 402.267 177.42C385.304 138.485 318.182 178.883 276.596 170.154C264.495 167.613 255.769 156.104 249.629 145.378Z" stroke="#6260FF" stroke-width="1.28384"/>
<path d="M249.921 144.301C234.053 116.582 239.722 74.7688 213.06 57.1657C192.505 43.5942 165.527 66.2874 141.8 72.915C114.14 80.6411 66.004 71.3648 61.0305 99.632C54.2632 138.094 110.428 161.483 119.535 199.46C123.722 216.919 99.5305 229.697 96.4636 247.387C92.8063 268.482 86.6524 294.152 100.249 310.697C113.908 327.318 140.859 322.398 161.884 326.992C178.984 330.728 195.948 331.664 213.06 335.344C234.532 339.962 254.112 351.147 276.071 351.55C304.825 352.078 351.797 365.534 360.186 338.044C370.831 303.162 299.431 277.855 309.277 242.739C319.885 204.901 421.054 212.958 405.358 176.93C388.084 137.281 319.73 178.421 277.382 169.531C265.059 166.944 256.173 155.224 249.921 144.301Z" stroke="#6260FF" stroke-width="1.28384"/>
<path d="M250.212 143.224C234.059 115.006 239.83 72.4401 212.688 54.52C191.762 40.7042 164.298 63.806 140.144 70.553C111.987 78.4182 62.9836 68.9748 57.9206 97.751C51.0314 136.906 108.207 160.715 117.478 199.376C121.741 217.149 97.1138 230.158 93.9917 248.167C90.2685 269.642 84.0039 295.774 97.8455 312.616C111.75 329.536 139.186 324.528 160.59 329.205C177.998 333.008 195.267 333.961 212.688 337.708C234.546 342.409 254.478 353.795 276.834 354.205C306.105 354.742 353.923 368.441 362.463 340.456C373.3 304.945 300.614 279.183 310.637 243.434C321.436 204.916 424.427 213.118 408.448 176.441C390.863 136.078 321.279 177.958 278.168 168.908C265.623 166.275 256.578 154.344 250.212 143.224Z" stroke="#6260FF" stroke-width="1.28384"/>
<path d="M250.503 142.147C234.064 113.43 239.937 70.1114 212.315 51.8744C191.02 37.8142 163.07 61.3246 138.488 68.1909C109.833 76.1952 59.9627 66.5849 54.8101 95.8699C47.7991 135.717 105.986 159.948 115.421 199.292C119.759 217.38 94.6967 230.619 91.5193 248.946C87.7303 270.801 81.3548 297.395 95.4412 314.536C109.592 331.755 137.514 326.658 159.296 331.417C177.012 335.288 194.586 336.258 212.315 340.071C234.56 344.855 254.845 356.442 277.596 356.86C307.385 357.407 356.049 371.347 364.74 342.868C375.768 306.729 301.797 280.511 311.997 244.13C322.987 204.93 427.8 213.277 411.538 175.952C393.642 134.875 322.827 177.496 278.954 168.286C266.187 165.606 256.981 153.464 250.503 142.147Z" stroke="#6260FF" stroke-width="1.28384"/>
<path d="M250.796 141.07C234.071 111.854 240.046 67.7822 211.944 49.2282C190.278 34.9237 161.842 58.8427 136.834 65.8283C107.68 73.9717 56.9433 64.1944 51.7011 93.9884C44.5683 134.528 103.767 159.18 113.366 199.208C117.779 217.611 92.281 231.08 89.0484 249.725C85.1935 271.959 78.7072 299.016 93.0385 316.455C107.435 333.973 135.842 328.788 158.003 333.629C176.027 337.567 193.907 338.554 211.944 342.433C234.576 347.301 255.213 359.09 278.359 359.514C308.666 360.071 358.176 374.254 367.018 345.279C378.238 308.512 302.981 281.839 313.358 244.825C324.54 204.944 431.174 213.436 414.63 175.462C396.423 133.672 324.377 177.033 279.741 167.663C266.752 164.936 257.386 152.583 250.796 141.07Z" stroke="#6260FF" stroke-width="1.28384"/>
<path d="M251.086 139.993C234.076 110.278 240.153 65.4535 211.571 46.5826C189.535 32.0337 160.613 56.3613 135.177 63.4662C105.525 71.7488 53.9219 61.8044 48.5902 92.1074C41.3355 133.34 101.545 158.413 111.309 199.125C115.797 217.841 89.8634 231.54 86.5755 250.504C82.6548 273.119 76.0577 300.638 90.6338 318.374C105.277 336.191 134.169 330.918 156.708 335.842C175.04 339.847 193.226 340.851 211.571 344.796C234.589 349.747 255.579 361.737 279.12 362.169C309.945 362.735 360.301 377.16 369.294 347.691C380.706 310.296 304.163 283.167 314.718 245.521C326.09 204.959 434.546 213.596 417.719 174.973C399.201 132.468 325.924 176.57 280.526 167.04C267.315 164.267 257.789 151.703 251.086 139.993Z" stroke="#6260FF" stroke-width="1.28384"/>
<path d="M251.378 138.917C234.082 108.702 240.261 63.1248 211.199 43.9369C188.793 29.1436 159.385 53.8799 133.522 61.1042C103.372 69.5258 50.902 59.4144 45.4807 90.2264C38.1042 132.151 99.3253 157.645 109.253 199.041C113.816 218.072 87.4472 232.001 84.1041 251.284C80.1175 274.278 73.4096 302.259 88.2306 320.293C103.119 338.41 132.497 333.048 155.415 338.055C174.055 342.127 192.546 343.148 211.199 347.16C234.604 352.193 255.946 364.385 279.883 364.824C311.226 365.399 362.428 380.067 371.572 350.103C383.175 312.079 305.346 284.495 316.078 246.217C327.642 204.973 437.92 213.755 420.81 174.484C401.981 131.265 327.473 176.108 281.312 166.418C267.88 163.598 258.194 150.823 251.378 138.917Z" stroke="#6260FF" stroke-width="1.28384"/>
<path d="M251.67 137.839C234.088 107.126 240.37 60.7956 210.827 41.2908C188.051 26.2531 158.158 51.398 131.867 58.7416C101.219 67.3024 47.8821 57.0239 42.3713 88.3449C34.8728 130.962 97.1054 156.877 107.197 198.957C111.836 218.302 85.031 232.462 81.6327 252.063C77.5803 275.437 70.7615 303.88 85.8273 322.212C100.962 340.628 130.825 335.177 154.121 340.267C173.069 344.407 191.866 345.444 210.827 349.522C234.619 354.639 256.314 367.032 280.646 367.479C312.507 368.063 364.554 382.973 373.849 352.514C385.645 313.862 306.53 285.822 317.439 246.912C329.194 204.987 441.294 213.914 423.902 173.994C404.761 130.062 329.023 175.645 282.099 165.795C268.444 162.929 258.599 149.942 251.67 137.839Z" stroke="#6260FF" stroke-width="1.28384"/>
<path d="M251.961 136.763C234.094 105.55 240.477 58.467 210.454 38.6451C187.308 23.3631 156.929 48.9166 130.211 56.3795C99.0652 65.0794 44.8612 54.6339 39.2608 86.4638C31.6405 129.774 94.8845 156.11 105.14 198.874C109.854 218.533 82.6139 232.923 79.1603 252.842C75.042 276.596 68.1125 305.501 83.4231 324.131C98.8038 342.847 129.152 337.307 152.827 342.48C172.083 346.687 191.185 347.741 210.454 351.885C234.633 357.085 256.68 369.68 281.408 370.134C313.786 370.728 366.68 385.88 376.126 354.925C388.113 315.646 307.713 287.15 318.799 247.607C330.745 205.001 444.666 214.074 426.992 173.505C407.54 128.859 330.571 175.183 282.884 165.173C269.008 162.26 259.002 149.062 251.961 136.763Z" stroke="#6260FF" stroke-width="1.28384"/>
<path d="M252.253 135.686C234.1 103.974 240.585 56.1383 210.082 35.9995C186.566 20.4731 155.701 46.4352 128.556 54.0174C96.9116 62.8564 41.8408 52.2439 36.1509 84.5828C28.4087 128.585 92.664 155.343 103.083 198.79C107.873 218.764 80.1972 233.383 76.6885 253.621C72.5043 277.755 65.4639 307.123 81.0194 326.051C96.6461 345.065 127.479 339.437 151.533 344.693C171.097 348.967 190.504 350.038 210.082 354.248C234.647 359.531 257.047 372.327 282.171 372.788C315.066 373.392 368.806 388.787 378.403 357.337C390.582 317.43 308.896 288.478 320.16 248.303C332.296 205.016 448.04 214.233 430.082 173.016C410.32 127.655 332.119 174.72 283.671 164.55C269.572 161.591 259.406 148.182 252.253 135.686Z" stroke="#6260FF" stroke-width="1.28384"/>
<path d="M252.544 134.609C234.105 102.398 240.693 53.8091 209.71 33.3533C185.823 17.5826 154.473 43.9532 126.9 51.6549C94.758 60.633 38.8204 49.8535 33.0409 82.7013C25.1769 127.396 90.4436 154.575 101.027 198.706C105.892 218.994 77.7806 233.844 74.2166 254.4C69.9665 278.914 62.8154 308.744 78.6157 327.97C94.4883 347.283 125.807 341.567 150.239 346.905C170.111 351.246 189.824 352.334 209.71 356.611C234.662 361.977 257.414 374.974 282.933 375.443C316.347 376.056 370.932 391.693 380.68 359.748C393.051 319.213 310.079 289.805 321.52 248.998C333.848 205.03 451.413 214.392 433.173 172.526C413.099 126.452 333.668 174.257 284.457 163.927C270.136 160.921 259.81 147.302 252.544 134.609Z" stroke="#6260FF" stroke-width="1.28384"/>
<path d="M252.835 133.532C234.111 100.822 240.8 51.4804 209.337 30.7077C185.08 14.6926 153.244 41.4718 125.244 49.2928C92.604 58.41 35.7995 47.4635 29.9305 80.8203C21.9446 126.208 88.2227 153.807 98.9699 198.622C103.911 219.225 75.3634 234.305 71.7442 255.18C67.4283 280.073 60.1663 310.365 76.2115 329.889C92.3301 349.502 124.134 343.697 148.945 349.117C169.125 353.526 189.143 354.631 209.337 358.974C234.676 364.423 257.781 377.622 283.695 378.098C317.626 378.72 373.058 394.599 382.957 362.16C395.519 320.996 311.261 291.133 322.88 249.694C335.399 205.044 454.785 214.551 436.263 172.037C415.878 125.249 335.216 173.795 285.242 163.305C270.7 160.252 260.214 146.422 252.835 133.532Z" stroke="#6260FF" stroke-width="1.28384"/>
<path d="M253.127 132.455C234.116 99.2461 240.908 49.1517 208.965 28.062C184.338 11.8026 152.016 38.9904 123.589 46.9307C90.4504 56.187 32.7791 45.0735 26.8205 78.9393C18.7127 125.02 86.0023 153.04 96.9135 198.539C101.93 219.456 72.9467 234.766 69.2723 255.959C64.8905 281.232 57.5177 311.986 73.8078 331.808C90.1723 351.721 122.462 345.827 147.651 351.33C168.139 355.806 188.463 356.928 208.965 361.337C234.69 366.87 258.148 380.27 284.457 380.753C318.907 381.385 375.184 397.506 385.234 364.572C397.988 322.78 312.444 292.461 324.24 250.39C336.95 205.058 458.159 214.711 439.353 171.547C418.658 124.046 336.765 173.333 286.028 162.682C271.264 159.583 260.618 145.542 253.127 132.455Z" stroke="#6260FF" stroke-width="1.28384"/>
<path d="M253.418 131.378C234.122 97.6703 241.016 46.823 208.593 25.4163C183.596 8.91256 150.787 36.509 121.933 44.5686C88.2968 53.9641 29.7587 42.6835 23.7105 77.0582C15.4809 123.831 83.7818 152.273 94.8571 198.455C99.9487 219.687 70.5301 235.226 66.8004 256.738C62.3528 282.391 54.8692 313.608 71.4041 333.727C88.0146 353.939 120.789 347.957 146.357 353.543C167.153 358.086 187.782 359.225 208.593 363.7C234.704 369.316 258.515 382.917 285.22 383.408C320.187 384.049 377.31 400.413 387.511 366.984C400.457 324.564 313.628 293.789 325.601 251.085C338.501 205.073 461.532 214.87 442.444 171.058C421.438 122.842 338.313 172.87 286.814 162.06C271.828 158.914 261.022 144.662 253.418 131.378Z" stroke="#6260FF" stroke-width="1.28384"/>
<path d="M253.709 130.301C234.127 96.0941 241.123 44.4939 208.22 22.7703C182.853 6.02217 149.559 34.0272 120.277 42.2062C86.1428 51.7407 26.7379 40.2931 20.6001 75.1768C12.2486 122.642 81.5609 151.505 92.8002 198.371C97.9671 219.917 68.1129 235.687 64.328 257.517C59.8145 283.55 52.2201 315.229 68.9998 335.646C85.8564 356.157 119.116 350.086 145.063 355.755C166.167 360.366 187.101 361.521 208.22 366.063C234.718 371.762 258.881 385.565 285.982 386.062C321.467 386.713 379.435 403.319 389.788 369.395C402.925 326.347 314.81 295.117 326.96 251.781C340.052 205.087 464.905 215.029 445.534 170.569C424.216 121.639 339.861 172.408 287.6 161.437C272.392 158.244 261.426 143.781 253.709 130.301Z" stroke="#6260FF" stroke-width="1.28384"/>
<path d="M254.001 129.224C234.133 94.5181 241.231 42.1651 207.848 20.1246C182.11 3.13204 148.33 31.5457 118.622 39.844C83.9892 49.5176 23.7175 37.903 17.4901 73.2957C9.01679 121.454 79.3405 150.737 90.7437 198.288C95.9861 220.148 65.6963 236.148 61.8561 258.297C57.2768 284.709 49.5716 316.85 66.5961 337.566C83.6986 358.376 117.444 352.216 143.769 357.968C165.181 362.646 186.421 363.818 207.848 368.426C234.733 374.208 259.248 388.212 286.744 388.717C322.747 389.377 381.561 406.226 392.065 371.807C405.394 328.131 315.993 296.445 328.321 252.476C341.604 205.101 468.278 215.189 448.625 170.079C426.996 120.436 341.41 171.945 288.386 160.814C272.956 157.575 261.83 142.901 254.001 129.224Z" stroke="#6260FF" stroke-width="1.28384"/>
<path d="M254.292 128.148C234.139 92.9423 241.339 39.8364 207.475 17.4789C181.368 0.242023 147.102 29.0643 116.966 37.4819C81.8356 47.2947 20.6971 35.513 14.3802 71.4146C5.78498 120.265 77.12 149.97 88.6873 198.204C94.005 220.378 63.2796 236.609 59.3842 259.076C54.739 285.869 46.923 318.472 64.1924 339.485C81.5408 360.594 115.771 354.346 142.475 360.181C164.195 364.926 185.741 366.115 207.475 370.789C234.747 376.654 259.615 390.86 287.507 391.372C324.027 392.042 383.687 409.132 394.342 374.218C407.863 329.914 317.176 297.773 329.681 253.172C343.155 205.116 471.651 215.348 451.715 169.59C429.776 119.233 342.959 171.483 289.172 160.192C273.52 156.906 262.234 142.021 254.292 128.148Z" stroke="#6260FF" stroke-width="1.28384"/>
<path d="M254.584 127.071C234.145 91.3659 241.447 37.5072 207.103 14.8328C180.625 -2.64848 145.874 26.5824 115.311 35.1193C79.682 45.0712 17.6767 33.1225 11.2702 69.5331C2.55316 119.076 74.8996 149.202 86.6308 198.12C92.024 220.609 60.8629 237.069 56.9124 259.855C52.2013 287.027 44.2744 320.093 61.7887 341.404C79.3831 362.812 114.099 356.476 141.181 362.393C163.209 367.205 185.06 368.411 207.103 373.152C234.761 379.1 259.982 393.507 288.269 394.026C325.307 394.706 385.813 412.039 396.619 376.629C410.331 331.697 318.359 299.1 331.042 253.867C344.707 205.129 475.024 215.507 454.806 169.1C432.555 118.029 344.507 171.02 289.958 159.569C274.084 156.237 262.638 141.14 254.584 127.071Z" stroke="#6260FF" stroke-width="1.28384"/>
<path d="M254.875 125.994C234.151 89.7902 241.555 35.1786 206.731 12.1872C179.883 -5.53838 144.646 24.1011 113.655 32.7574C77.5285 42.8484 14.6563 30.7327 8.16027 67.6522C-0.678663 117.888 72.6792 148.435 84.5744 198.037C90.043 220.84 58.4463 237.53 54.4405 260.634C49.6635 288.187 41.6258 321.714 59.385 343.323C77.2253 365.031 112.427 358.606 139.888 364.606C162.223 369.485 184.38 370.708 206.731 375.515C234.776 381.546 260.349 396.155 289.031 396.681C326.587 397.37 387.94 414.945 398.897 379.041C412.8 333.481 319.542 300.428 332.402 254.563C346.258 205.144 478.398 215.667 457.896 168.611C435.334 116.826 346.056 170.557 290.744 158.947C274.648 155.568 263.042 140.26 254.875 125.994Z" stroke="#6260FF" stroke-width="1.28384"/>
<path d="M255.167 124.917C234.156 88.2143 241.662 32.8498 206.358 9.54144C179.14 -8.42852 143.417 21.6196 111.999 30.3952C75.3744 40.6253 11.6354 28.3426 5.04982 65.7711C-3.91097 116.699 70.4583 147.667 82.5175 197.953C88.0614 221.07 56.0291 237.991 51.9681 261.414C47.1253 289.346 38.9768 323.335 56.9807 345.242C75.0671 367.25 110.754 360.736 138.593 366.818C161.237 371.765 183.699 373.005 206.358 377.878C234.79 383.993 260.716 398.802 289.793 399.336C327.867 400.035 390.065 417.852 401.173 381.453C415.269 335.265 320.725 301.756 333.762 255.259C347.809 205.158 481.77 215.826 460.986 168.122C438.114 115.623 347.604 170.095 291.529 158.324C275.212 154.899 263.446 139.38 255.167 124.917Z" stroke="#6260FF" stroke-width="1.28384"/>
</svg>
