<svg width="510" height="393" viewBox="0 0 510 393" fill="none" xmlns="http://www.w3.org/2000/svg">
<path fill-rule="evenodd" clip-rule="evenodd" d="M254.417 159.877C259.116 161.006 264.067 162.785 267.117 166.526C270.13 170.224 268.477 176.059 270.938 180.144C272.816 183.263 276.642 184.494 279.384 186.892C283.904 190.844 289.268 193.904 292.474 198.977C296.98 206.108 307.264 215.875 301.713 222.23C295.415 229.439 282.887 220.854 273.303 220.921C268.882 220.952 264.64 221.769 260.283 222.52C256.089 223.243 252.044 224.088 247.961 225.29C240.914 227.364 231.648 238.138 227.297 232.229C221.994 225.026 238.988 214.187 234.216 206.623C229.175 198.632 212.692 207.463 206.942 199.964C202.923 194.723 213.763 188.743 215.656 182.42C217.604 175.913 213.342 167.207 218.178 162.429C223.129 157.538 231.717 160.176 238.666 159.687C243.962 159.314 249.256 158.636 254.417 159.877Z" stroke="#6260FF" stroke-width="1.28384"/>
<path fill-rule="evenodd" clip-rule="evenodd" d="M253.281 4.94205C277.82 10.8413 303.674 20.1302 319.6 39.6691C335.339 58.9777 326.704 89.4517 339.554 110.784C349.364 127.069 369.342 133.497 383.664 146.021C407.268 166.661 435.282 182.639 452.02 209.131C475.551 246.372 529.259 297.38 500.268 330.567C467.38 368.215 401.959 323.382 351.907 323.732C328.82 323.893 306.664 328.158 283.914 332.08C262.009 335.856 240.888 340.268 219.568 346.544C182.763 357.377 134.375 413.638 111.655 382.784C83.9574 345.169 172.707 288.562 147.786 249.06C121.461 207.333 35.3844 253.448 5.35563 214.289C-15.6323 186.919 40.9779 155.687 50.8624 122.667C61.0334 88.6894 38.7784 43.2217 64.0328 18.2713C89.8844 -7.26927 134.734 6.50713 171.024 3.95111C198.679 2.0033 226.329 -1.53742 253.281 4.94205Z" stroke="#6260FF" stroke-width="1.28384"/>
<path d="M268.145 164.038C264.842 159.987 259.482 158.061 254.394 156.838C248.806 155.494 243.073 156.228 237.339 156.632C229.814 157.162 220.515 154.306 215.155 159.601C209.918 164.775 214.533 174.202 212.424 181.247C210.374 188.094 198.637 194.569 202.988 200.244C209.215 208.364 227.062 198.802 232.52 207.454C237.687 215.644 219.286 227.381 225.029 235.18C229.74 241.578 239.773 229.913 247.404 227.666C251.824 226.365 256.204 225.45 260.745 224.667C265.463 223.854 270.056 222.97 274.843 222.936C285.221 222.864 298.786 232.16 305.605 224.354C311.616 217.473 300.48 206.897 295.601 199.175C292.13 193.682 286.322 190.369 281.428 186.089C278.458 183.493 274.316 182.16 272.282 178.783C269.618 174.36 271.408 168.042 268.145 164.038Z" stroke="#6260FF" stroke-width="1.28384"/>
<path d="M269.173 161.553C265.618 157.192 259.848 155.119 254.371 153.802C248.355 152.356 242.184 153.146 236.011 153.581C227.912 154.151 217.901 151.077 212.131 156.777C206.495 162.346 211.462 172.494 209.192 180.078C206.986 187.448 194.35 194.419 199.035 200.527C205.737 209.268 224.949 198.975 230.825 208.288C236.387 217.105 216.578 229.739 222.76 238.135C227.831 245.021 238.631 232.464 246.846 230.046C251.605 228.645 256.319 227.661 261.208 226.818C266.286 225.942 271.231 224.991 276.384 224.955C287.555 224.876 302.157 234.883 309.497 226.48C315.968 219.073 303.98 207.688 298.728 199.376C294.992 193.463 288.74 189.897 283.472 185.29C280.275 182.495 275.816 181.06 273.626 177.425C270.758 172.664 272.686 165.863 269.173 161.553Z" stroke="#6260FF" stroke-width="1.28384"/>
<path d="M270.203 159.065C266.396 154.394 260.216 152.173 254.35 150.763C247.907 149.214 241.298 150.061 234.687 150.526C226.011 151.137 215.29 147.844 209.11 153.95C203.073 159.914 208.393 170.783 205.962 178.905C203.599 186.799 190.067 194.265 195.084 200.807C202.262 210.168 222.839 199.144 229.132 209.119C235.089 218.562 213.873 232.094 220.495 241.086C225.926 248.462 237.493 235.012 246.291 232.423C251.388 230.922 256.436 229.868 261.673 228.965C267.111 228.028 272.407 227.008 277.926 226.969C289.891 226.886 305.53 237.603 313.392 228.603C320.322 220.67 307.483 208.477 301.858 199.574C297.857 193.242 291.16 189.422 285.518 184.488C282.094 181.494 277.318 179.958 274.973 176.064C271.902 170.965 273.966 163.68 270.203 159.065Z" stroke="#6260FF" stroke-width="1.28384"/>
<path d="M271.233 156.576C267.173 151.596 260.583 149.228 254.328 147.724C247.458 146.073 240.41 146.975 233.36 147.472C224.11 148.123 212.678 144.612 206.088 151.122C199.651 157.482 205.324 169.072 202.731 177.733C200.211 186.15 185.781 194.111 191.131 201.087C198.786 211.069 220.727 199.314 227.437 209.951C233.789 220.02 211.167 234.449 218.227 244.037C224.019 251.902 236.353 237.561 245.734 234.799C251.169 233.2 256.553 232.075 262.136 231.112C267.935 230.113 273.583 229.026 279.468 228.984C292.226 228.895 308.902 240.323 317.285 230.727C324.675 222.267 310.985 209.265 304.987 199.772C300.72 193.02 293.579 188.947 287.563 183.685C283.912 180.493 278.82 178.855 276.319 174.704C273.044 169.266 275.245 161.498 271.233 156.576Z" stroke="#6260FF" stroke-width="1.28384"/>
<path d="M272.261 154.088C267.949 148.798 260.949 146.283 254.305 144.685C247.007 142.931 239.521 143.89 232.033 144.417C222.207 145.109 210.064 141.379 203.065 148.294C196.227 155.05 202.253 167.36 199.499 176.56C196.823 185.5 181.495 193.957 187.178 201.367C195.308 211.97 218.614 199.484 225.741 210.782C232.489 221.477 208.46 236.804 215.959 246.988C222.11 255.342 235.212 240.109 245.177 237.176C250.949 235.477 256.668 234.282 262.599 233.26C268.759 232.198 274.757 231.043 281.008 230.999C294.56 230.905 312.273 243.043 321.178 232.85C329.027 223.864 314.485 210.054 308.114 199.971C303.582 192.798 295.997 188.472 289.606 182.883C285.729 179.492 280.32 177.752 277.663 173.343C274.184 167.567 276.522 159.316 272.261 154.088Z" stroke="#6260FF" stroke-width="1.28384"/>
<path d="M273.292 151.603C268.727 146.003 261.317 143.341 254.284 141.65C246.559 139.793 238.635 140.808 230.709 141.366C220.307 142.099 207.453 138.15 200.044 145.471C192.806 152.622 199.184 165.653 196.269 175.391C193.436 184.855 177.211 193.806 183.227 201.651C191.833 212.874 216.503 199.657 224.048 211.617C231.191 222.938 205.754 239.162 213.693 249.943C220.205 258.786 234.073 242.661 244.621 239.556C250.732 237.757 256.785 236.493 263.064 235.411C269.584 234.287 275.934 233.064 282.551 233.018C296.896 232.918 315.646 245.767 325.072 234.977C333.382 225.465 317.988 210.846 311.244 200.172C306.447 192.58 298.418 188 291.653 182.084C287.548 178.495 281.822 176.653 279.01 171.985C275.328 165.871 277.802 157.137 273.292 151.603Z" stroke="#6260FF" stroke-width="1.28384"/>
<path d="M274.32 149.115C269.503 143.205 261.683 140.396 254.261 138.611C246.109 136.652 237.746 137.723 229.381 138.312C218.405 139.085 204.84 134.918 197.02 142.643C189.382 150.19 196.113 163.942 193.037 174.219C190.047 184.206 172.925 193.653 179.273 201.931C188.355 213.775 214.39 199.827 222.353 212.448C229.89 224.395 203.047 241.517 211.424 252.894C218.296 262.226 232.932 245.209 244.064 241.933C250.512 240.035 256.901 238.7 263.526 237.558C270.407 236.372 277.108 235.082 284.091 235.033C299.23 234.927 319.017 248.487 328.965 237.1C337.733 227.063 321.489 211.635 314.372 200.371C309.309 192.358 300.836 187.525 293.696 181.282C289.365 177.494 283.322 175.55 280.355 170.624C276.468 164.172 279.08 154.955 274.32 149.115Z" stroke="#6260FF" stroke-width="1.28384"/>
<path d="M275.349 146.627C270.279 140.407 262.05 137.45 254.239 135.573C245.659 133.51 236.858 134.637 228.055 135.257C216.503 136.071 202.227 131.685 193.998 139.815C185.959 147.757 193.044 162.231 189.806 173.046C186.66 183.557 168.64 193.499 175.32 202.211C184.879 214.676 212.278 199.996 220.658 213.279C228.591 225.853 200.341 243.872 209.157 255.845C216.389 265.666 231.792 247.758 243.507 244.309C250.294 242.312 257.017 240.907 263.989 239.705C271.231 238.457 278.284 237.099 285.633 237.048C301.565 236.936 322.389 251.207 332.858 239.224C342.087 228.66 324.99 212.423 317.5 200.569C312.172 192.136 303.255 187.05 295.741 180.48C291.183 176.493 284.823 174.447 281.701 169.263C277.61 162.473 280.359 152.773 275.349 146.627Z" stroke="#6260FF" stroke-width="1.28384"/>
<path d="M276.38 144.138C271.058 137.609 262.418 134.505 254.218 132.534C245.211 130.368 235.972 131.552 226.73 132.202C214.603 133.057 199.616 128.453 190.977 136.988C182.538 145.325 189.975 160.519 186.576 171.873C183.273 182.908 164.356 193.345 171.369 202.491C181.404 215.576 210.168 200.166 218.965 214.11C227.293 227.31 197.635 246.226 206.891 258.796C214.483 269.107 230.653 250.306 242.952 246.686C250.077 244.589 257.135 243.114 264.454 241.852C272.057 240.542 279.461 239.117 287.176 239.063C303.901 238.946 325.763 253.928 336.753 241.347C346.441 230.257 328.493 213.212 320.63 200.767C315.037 191.914 305.675 186.575 297.788 179.678C293.002 175.493 286.326 173.345 283.047 167.902C278.754 160.774 281.639 150.591 276.38 144.138Z" stroke="#6260FF" stroke-width="1.28384"/>
<path d="M277.408 141.653C271.833 134.814 262.784 131.563 254.195 129.498C244.761 127.23 235.083 128.469 225.403 129.151C212.701 130.046 197.002 125.224 187.954 134.163C179.114 142.897 186.904 158.811 183.344 170.704C179.884 182.262 160.069 193.194 167.416 202.774C177.926 216.48 208.055 200.339 217.269 214.944C225.992 228.771 194.928 248.584 204.623 261.75C212.575 272.55 229.512 252.858 242.394 249.066C249.857 246.869 257.25 245.325 264.917 244.003C272.88 242.63 280.635 241.137 288.716 241.081C306.235 240.958 329.134 256.651 340.645 243.474C350.793 231.857 331.994 214.004 323.757 200.968C317.899 191.696 308.093 186.103 299.831 178.878C294.818 174.495 287.826 172.245 284.392 166.545C279.894 159.078 282.917 148.412 277.408 141.653Z" stroke="#6260FF" stroke-width="1.28384"/>
<path d="M278.436 139.165C272.609 132.016 263.15 128.617 254.171 126.459C244.31 124.088 234.194 125.384 224.076 126.097C210.798 127.032 194.389 121.991 184.93 131.336C175.69 140.465 183.833 157.1 180.112 169.532C176.495 181.613 155.783 193.04 163.462 203.054C174.449 217.381 205.942 200.509 215.573 215.776C224.691 230.228 192.22 250.939 202.354 264.702C210.667 275.99 228.371 255.406 241.837 251.442C249.637 249.146 257.365 247.532 265.379 246.15C273.703 244.715 281.809 243.155 290.256 243.096C308.569 242.968 332.504 259.371 344.537 245.597C355.145 233.454 335.494 214.792 326.885 201.166C320.761 191.474 310.511 185.628 301.875 178.076C296.635 173.494 289.326 171.142 285.736 165.184C281.035 157.379 284.194 146.229 278.436 139.165Z" stroke="#6260FF" stroke-width="1.28384"/>
<path d="M279.465 136.676C273.386 129.218 263.517 125.672 254.149 123.42C243.861 120.947 233.306 122.298 222.75 123.042C208.897 124.018 191.776 118.759 181.908 128.508C172.268 138.033 180.763 155.389 176.881 168.359C173.108 180.964 151.498 192.886 159.51 203.334C170.972 218.282 203.83 200.678 213.879 216.607C223.392 231.686 189.514 253.294 200.087 267.653C208.76 279.431 227.231 257.954 241.28 253.819C249.419 251.423 257.481 249.739 265.843 248.298C274.527 246.8 282.985 245.172 291.798 245.111C310.904 244.977 335.877 262.091 348.431 247.72C359.498 235.052 338.996 215.581 330.013 201.365C323.624 191.252 312.93 185.153 303.92 177.274C298.453 172.493 290.827 170.039 287.082 163.823C282.177 155.68 285.473 144.047 279.465 136.676Z" stroke="#6260FF" stroke-width="1.28384"/>
<path d="M280.493 134.192C274.161 126.424 263.882 122.73 254.126 120.385C243.41 117.809 232.418 119.217 221.422 119.991C206.994 121.007 189.163 115.53 178.885 125.684C168.844 135.604 177.692 153.681 173.648 167.19C169.719 180.318 147.211 192.736 155.556 203.617C167.495 219.186 201.717 200.852 212.183 217.442C222.091 233.147 186.806 255.652 197.818 270.607C206.851 282.875 226.089 260.506 240.722 256.199C249.199 253.704 257.596 251.95 266.305 250.448C275.35 248.889 284.159 247.194 293.338 247.129C313.237 246.99 339.248 264.815 352.323 249.847C363.85 236.653 342.496 216.373 333.141 201.566C326.486 191.034 315.348 184.681 305.964 176.475C300.27 171.496 292.327 168.94 288.426 162.465C283.318 153.984 286.751 141.869 280.493 134.192Z" stroke="#6260FF" stroke-width="1.28384"/>
<path d="M281.524 131.703C274.939 123.625 264.251 119.785 254.105 117.346C242.962 114.667 231.531 116.131 220.098 116.936C205.094 117.993 186.552 112.298 175.864 122.857C165.423 133.172 174.624 151.97 170.419 166.018C166.332 179.669 142.928 192.582 151.605 203.897C164.02 220.087 199.606 201.021 210.49 218.273C220.793 234.604 184.101 258.007 195.552 273.559C204.946 286.315 224.951 263.055 240.167 258.576C248.982 255.981 257.714 254.157 266.77 252.596C276.176 250.974 285.336 249.211 294.881 249.144C315.574 249 342.621 267.535 356.218 251.97C368.204 238.25 345.999 217.161 336.271 201.765C329.35 190.812 317.769 184.206 308.01 175.673C302.089 170.495 293.829 167.838 289.773 161.105C284.461 152.285 288.031 139.686 281.524 131.703Z" stroke="#6260FF" stroke-width="1.28384"/>
<path d="M282.553 129.215C275.716 120.827 264.618 116.84 254.083 114.307C242.513 111.526 230.644 113.046 218.772 113.882C203.193 114.979 183.939 109.065 172.842 120.029C162 130.74 171.554 150.259 167.188 164.845C162.944 179.02 138.642 192.428 147.652 204.177C160.543 220.988 197.495 201.191 208.796 219.104C219.494 236.062 181.395 260.362 193.285 276.51C203.039 289.755 223.811 265.603 239.611 260.952C248.763 258.258 257.83 256.364 267.233 254.743C277 253.06 286.511 251.229 296.422 251.159C317.909 251.009 345.993 270.255 360.111 254.094C372.557 239.847 349.501 217.95 339.399 201.963C332.214 190.59 320.188 183.731 310.055 174.87C303.907 169.494 295.33 166.735 291.119 159.744C285.603 150.586 289.31 137.504 282.553 129.215Z" stroke="#6260FF" stroke-width="1.28384"/>
<path d="M283.581 126.727C276.492 118.029 264.984 113.894 254.06 111.268C242.063 108.384 229.755 109.96 217.444 110.827C201.29 111.965 181.326 105.833 169.818 117.202C158.576 128.308 168.483 148.548 163.956 163.672C159.556 178.371 134.356 192.274 143.699 204.457C157.066 221.888 195.382 201.36 207.1 219.935C218.193 237.519 178.687 262.717 191.017 279.461C201.13 293.195 222.67 268.151 239.053 263.329C248.544 260.535 257.945 258.571 267.696 256.89C277.823 255.145 287.685 253.246 297.962 253.174C320.243 253.019 349.364 272.975 364.004 256.217C376.909 241.444 353.001 218.739 342.527 202.161C335.076 190.369 322.606 183.256 312.099 174.068C305.723 168.493 296.83 165.632 292.463 158.383C286.744 148.887 290.587 135.322 283.581 126.727Z" stroke="#6260FF" stroke-width="1.28384"/>
<path d="M284.612 124.242C277.27 115.234 265.352 110.952 254.039 108.233C241.614 105.246 228.868 106.878 216.12 107.776C199.39 108.954 178.715 102.603 166.797 114.377C155.155 125.879 165.415 146.84 160.726 162.503C156.169 177.725 130.072 192.123 139.747 204.74C153.591 222.792 193.271 201.533 205.407 220.77C216.895 238.979 175.982 265.075 188.751 282.415C199.224 296.639 221.531 270.703 238.498 265.709C248.326 262.816 258.063 260.781 268.161 259.041C278.649 257.233 288.862 255.267 299.505 255.192C322.579 255.031 352.737 275.699 367.898 258.344C381.263 243.044 356.504 219.53 345.657 202.362C337.94 190.15 325.026 182.784 314.145 173.269C307.543 167.496 298.333 164.532 293.81 157.025C287.887 147.191 291.867 133.143 284.612 124.242Z" stroke="#6260FF" stroke-width="1.28384"/>
<path d="M285.64 121.753C278.046 112.436 265.718 108.007 254.016 105.194C241.164 102.104 227.979 103.792 214.792 104.721C197.487 105.94 176.101 99.3709 163.774 111.55C151.731 123.447 162.344 145.128 157.494 161.33C152.78 177.076 125.786 191.969 135.794 205.02C150.113 223.693 191.158 201.703 203.711 221.601C215.594 240.437 173.275 267.43 186.482 285.366C197.316 300.079 220.39 273.251 237.94 268.085C248.107 265.093 258.178 262.989 268.623 261.188C279.472 259.318 290.036 257.284 301.045 257.207C324.912 257.041 356.108 278.419 371.791 260.467C385.615 244.642 360.004 220.319 348.784 202.56C340.802 189.928 327.444 182.309 316.188 172.467C309.359 166.495 299.833 163.43 295.155 155.664C289.027 145.492 293.145 130.961 285.64 121.753Z" stroke="#6260FF" stroke-width="1.28384"/>
<path d="M286.669 119.265C278.822 109.638 266.085 105.062 253.994 102.155C240.715 98.9625 227.092 100.707 213.466 101.667C195.586 102.926 173.489 96.1385 160.752 108.722C148.309 121.015 159.274 143.417 154.263 160.158C149.392 176.427 121.501 191.815 131.841 205.3C146.637 224.594 189.046 201.873 202.017 222.432C214.295 241.894 170.568 269.784 184.215 288.317C195.409 303.519 219.25 275.8 237.383 270.462C247.888 267.37 258.294 265.196 269.087 263.335C280.296 261.403 291.212 259.302 302.587 259.222C327.248 259.05 359.48 281.139 375.684 262.59C389.968 246.239 363.506 221.107 351.913 202.759C343.666 189.706 329.863 181.834 318.233 171.664C311.177 165.494 301.334 162.327 296.501 154.303C290.169 143.793 294.424 128.778 286.669 119.265Z" stroke="#6260FF" stroke-width="1.28384"/>
<path d="M287.698 116.78C279.598 106.844 266.45 102.12 253.971 99.1198C240.264 95.8246 226.203 97.6252 212.139 98.6158C193.683 99.9157 170.875 92.9097 157.728 105.898C144.885 118.587 156.203 141.71 151.03 158.989C146.004 175.782 117.214 191.665 127.888 205.584C143.159 225.498 186.933 202.046 200.321 223.267C212.995 243.355 167.861 272.143 181.947 291.272C193.501 306.963 218.109 278.351 236.826 272.842C247.669 269.651 258.409 267.407 269.549 265.486C281.119 263.492 292.386 261.323 304.127 261.241C329.581 261.063 362.851 283.863 379.576 264.717C394.32 247.84 367.007 221.9 355.04 202.96C346.528 189.488 332.281 181.363 320.277 170.866C312.994 164.497 302.834 161.228 297.845 152.946C291.31 142.097 295.701 126.6 287.698 116.78Z" stroke="#6260FF" stroke-width="1.28384"/>
<path d="M288.727 114.292C280.375 104.046 266.817 99.1745 253.949 96.0809C239.815 92.683 225.315 94.5398 210.813 95.5612C191.782 96.9016 168.263 89.6772 154.706 103.071C141.462 116.155 153.133 139.998 147.799 157.816C142.616 175.132 112.929 191.511 123.935 205.864C139.683 226.399 184.822 202.216 198.627 224.098C211.695 244.813 165.155 274.498 179.679 294.223C191.594 310.404 216.969 280.9 236.269 275.219C247.45 271.928 258.526 269.614 270.013 267.634C281.943 265.577 293.562 263.341 305.669 263.256C331.916 263.072 366.223 286.583 383.47 266.84C398.673 249.437 370.508 222.688 358.169 203.159C349.391 189.266 334.7 180.887 322.322 170.063C314.812 163.496 304.335 160.125 299.191 151.585C292.452 140.398 296.98 124.417 288.727 114.292Z" stroke="#6260FF" stroke-width="1.28384"/>
<path d="M289.757 111.804C281.153 101.248 267.186 96.2292 253.928 93.042C239.367 89.5414 224.429 91.4543 209.488 92.5067C189.882 93.8876 165.652 86.4447 151.685 100.243C138.041 113.723 150.065 138.287 144.57 156.644C139.229 174.483 108.645 191.357 119.984 206.143C136.207 227.3 182.711 202.385 196.933 224.929C210.397 246.27 162.449 276.852 177.413 297.174C189.688 313.844 215.83 283.448 235.714 277.595C247.233 274.205 258.643 271.821 270.478 269.781C282.769 267.662 294.739 265.358 307.212 265.271C334.253 265.082 369.597 289.303 387.365 268.964C403.028 251.034 374.011 223.477 361.298 203.357C352.255 189.045 337.121 180.412 324.368 169.261C316.631 162.495 305.838 159.022 300.538 150.224C293.595 138.699 298.26 122.235 289.757 111.804Z" stroke="#6260FF" stroke-width="1.28384"/>
<path d="M290.786 109.315C281.929 98.4495 267.552 93.2838 253.905 90.0031C238.916 86.3998 223.54 88.3689 208.161 89.4521C187.979 90.8735 163.038 83.2123 148.662 97.4157C134.617 111.291 146.994 136.576 141.337 155.471C135.841 173.834 104.359 191.203 116.031 206.423C132.73 228.2 180.598 202.555 195.238 225.76C209.096 247.728 159.742 279.207 175.145 300.125C187.78 317.284 214.689 285.996 235.156 279.972C247.013 276.482 258.759 274.028 270.94 271.928C283.592 269.747 295.913 267.376 308.752 267.286C336.586 267.091 372.968 292.023 391.257 271.087C407.38 252.631 377.512 224.265 364.426 203.555C355.118 188.823 339.539 179.937 326.412 168.459C318.448 161.494 307.338 157.919 301.882 148.863C294.736 137 299.538 120.053 290.786 109.315Z" stroke="#6260FF" stroke-width="1.28384"/>
<path d="M291.815 106.83C282.706 95.6544 267.918 90.3415 253.883 86.9673C238.467 83.2613 222.652 85.2865 206.835 86.4005C186.078 87.8625 160.426 79.9829 145.639 94.5912C131.195 108.862 143.924 134.868 138.106 154.302C132.453 173.188 100.074 191.052 112.078 206.706C129.254 229.104 178.486 202.728 193.543 226.595C207.797 249.188 157.036 281.565 172.878 303.08C185.873 320.727 213.549 288.548 234.6 282.352C246.795 278.762 258.875 276.238 271.403 274.079C284.416 271.836 297.088 269.396 310.293 269.304C338.921 269.104 376.34 294.746 395.15 273.213C411.733 254.232 381.013 225.057 367.554 203.756C357.981 188.604 341.958 179.465 328.457 167.659C320.266 160.496 308.839 156.82 303.228 147.505C295.878 135.304 300.817 117.874 291.815 106.83Z" stroke="#6260FF" stroke-width="1.28384"/>
<path d="M292.846 104.342C283.484 92.8565 268.287 87.3963 253.862 83.9286C238.019 80.1198 221.766 82.2011 205.51 83.3461C184.178 84.8486 157.814 76.7505 142.618 91.7637C127.773 106.43 140.855 133.157 134.877 153.129C129.066 172.539 95.7899 190.898 108.127 206.986C125.778 230.005 176.376 202.897 191.85 227.426C206.499 250.646 154.331 283.92 170.612 306.031C183.967 324.168 212.41 291.096 234.045 284.728C246.577 281.039 258.992 278.446 271.868 276.226C285.242 273.921 298.265 271.414 311.836 271.319C341.258 271.113 379.713 297.467 399.045 275.337C416.087 255.829 384.516 225.846 370.684 203.954C360.845 188.382 344.378 178.99 330.503 166.857C322.085 159.495 310.341 155.717 304.575 146.144C297.021 133.605 302.097 115.692 292.846 104.342Z" stroke="#6260FF" stroke-width="1.28384"/>
<path d="M293.874 101.854C284.259 90.0589 268.652 84.4514 253.839 80.8902C237.568 76.9787 220.877 79.1162 204.183 80.292C182.275 81.835 155.201 73.5186 139.595 88.9367C124.35 103.999 137.784 131.446 131.644 151.957C125.677 171.891 91.5034 190.745 104.173 207.267C122.301 230.906 174.263 203.068 190.154 228.257C205.198 252.103 151.623 286.275 168.343 308.982C182.059 327.608 211.269 293.645 233.487 287.105C246.358 283.317 259.107 280.653 272.331 278.374C286.065 276.006 299.439 273.432 313.376 273.334C343.591 273.123 383.084 300.187 402.937 277.461C420.439 257.427 388.016 226.635 373.812 204.153C363.707 188.161 346.796 178.516 332.547 166.055C323.901 158.495 311.841 154.615 305.919 144.784C298.162 131.906 303.375 113.51 293.874 101.854Z" stroke="#6260FF" stroke-width="1.28384"/>
<path d="M294.902 99.3656C285.035 87.2608 269.018 81.5061 253.816 77.8513C237.118 73.8371 219.988 76.0307 202.855 77.2374C180.373 78.8209 152.587 70.2861 136.572 86.1091C120.926 101.567 134.713 129.735 128.412 150.785C122.289 171.242 87.2171 190.591 100.22 207.547C118.823 231.807 172.15 203.237 188.459 229.089C203.898 253.561 148.915 288.63 166.075 311.933C180.15 331.049 210.128 296.194 232.929 289.482C246.138 285.594 259.223 282.86 272.793 280.521C286.888 278.092 300.614 275.449 314.917 275.349C345.925 275.133 386.455 302.908 406.83 279.584C424.791 259.024 391.517 227.423 376.939 204.351C366.569 187.939 349.214 178.04 334.591 165.253C325.718 157.494 313.341 153.512 307.264 143.423C299.303 130.207 304.652 111.328 294.902 99.3656Z" stroke="#6260FF" stroke-width="1.28384"/>
<path d="M295.93 96.8803C285.811 84.4657 269.384 78.5638 253.792 74.8155C236.667 70.6986 219.1 72.9483 201.528 74.1859C178.47 75.8099 149.974 67.0567 133.548 83.2846C117.502 99.1376 131.642 128.027 125.18 149.615C118.9 170.596 82.9307 190.44 96.266 207.83C115.346 232.711 170.037 203.41 186.763 229.923C202.597 255.021 146.208 290.988 163.806 314.888C178.242 334.492 208.987 298.745 232.371 291.862C245.918 287.874 259.338 285.07 273.255 282.671C287.711 280.18 301.788 277.47 316.457 277.367C348.259 277.145 389.826 305.631 410.722 281.71C429.143 260.624 395.017 228.215 380.066 204.552C369.431 187.72 351.632 177.568 336.634 164.454C327.535 156.496 314.841 152.412 308.608 142.065C300.443 128.511 305.93 109.149 295.93 96.8803Z" stroke="#6260FF" stroke-width="1.28384"/>
<path d="M296.959 94.3921C286.588 81.6678 269.751 75.6186 253.77 71.7768C236.218 67.5571 218.212 69.863 200.202 71.1314C176.569 72.796 147.361 63.8244 130.526 80.4572C114.08 96.7057 128.573 126.316 121.949 148.443C115.512 169.947 78.6456 190.286 92.3136 208.11C111.869 233.611 167.925 203.58 185.069 230.754C201.298 256.479 143.502 293.343 161.539 317.839C176.335 337.932 207.847 301.293 231.815 294.238C245.7 290.151 259.454 287.278 273.719 284.819C288.535 282.265 302.964 279.487 317.999 279.382C350.594 279.154 393.198 308.351 414.615 283.834C433.496 262.221 398.519 229.004 383.195 204.751C372.295 187.499 354.051 177.093 338.679 163.651C329.353 155.496 316.342 151.31 309.954 140.704C301.585 126.812 307.209 106.966 296.959 94.3921Z" stroke="#6260FF" stroke-width="1.28384"/>
<path d="M297.99 91.9036C287.366 78.8696 270.119 72.6731 253.75 68.7378C235.77 64.4154 217.326 66.7774 198.877 68.0767C174.669 69.7818 144.75 60.5918 127.505 77.6295C110.658 94.2736 125.504 124.604 118.719 147.27C112.126 169.297 74.3617 190.132 88.3625 208.39C108.394 234.512 165.814 203.749 183.375 231.585C200 257.936 140.796 295.697 159.273 320.79C174.429 341.373 206.708 303.842 231.26 296.615C245.483 292.428 259.572 289.485 274.184 286.966C289.361 284.35 304.14 281.505 319.541 281.397C352.93 281.164 396.571 311.071 418.51 285.957C437.85 263.818 402.022 229.792 386.325 204.949C375.159 187.277 356.472 176.618 340.726 162.849C331.172 154.495 317.845 150.207 311.301 139.343C302.729 125.113 308.489 104.784 297.99 91.9036Z" stroke="#6260FF" stroke-width="1.28384"/>
<path d="M299.018 89.4154C288.141 76.0716 270.485 69.7279 253.726 65.699C235.319 61.274 216.437 63.6921 197.55 65.0223C172.766 66.7679 142.137 57.3595 124.482 74.802C107.234 91.8417 122.433 122.893 115.487 146.098C108.737 168.648 70.0753 189.978 84.4088 208.67C104.917 235.413 163.701 203.919 181.68 232.417C198.699 259.394 138.089 298.052 157.005 323.741C172.521 344.813 205.567 306.39 230.702 298.991C245.263 294.706 259.687 291.692 274.646 289.113C290.184 286.435 305.314 283.522 321.082 283.412C355.264 283.173 399.942 313.791 422.402 288.08C442.202 265.416 405.522 230.581 389.452 205.147C378.021 187.055 358.889 176.143 342.769 162.047C332.989 153.494 319.345 149.104 312.645 137.982C303.869 123.414 309.766 102.602 299.018 89.4154Z" stroke="#6260FF" stroke-width="1.28384"/>
<path d="M300.047 86.9302C288.918 73.2767 270.852 66.7857 253.704 62.6633C234.87 58.1355 215.549 60.6098 196.224 61.9709C170.865 63.757 139.524 54.1302 121.459 71.9777C103.812 89.4128 119.364 121.185 112.256 144.928C105.349 168.003 65.7902 189.827 80.4564 208.953C101.44 236.317 161.59 204.092 179.985 233.251C197.4 260.854 135.383 300.41 154.738 326.695C170.614 348.256 204.427 308.942 230.146 301.371C245.044 296.986 259.803 293.902 275.11 291.264C291.008 288.523 306.49 285.543 322.623 285.43C357.599 285.186 403.314 316.515 426.296 290.207C446.555 267.016 409.024 231.372 392.581 205.348C380.884 186.836 361.309 175.671 344.814 161.248C334.807 152.496 320.846 148.005 313.991 136.624C305.011 121.718 311.045 100.423 300.047 86.9302Z" stroke="#6260FF" stroke-width="1.28384"/>
<path d="M301.078 84.4424C289.696 70.4791 271.22 63.8408 253.684 59.625C234.422 54.9944 214.663 57.5248 194.899 58.9168C168.964 60.7434 136.913 50.8982 118.438 69.1506C100.391 86.9813 116.295 119.474 109.026 143.756C101.962 167.354 61.5063 189.674 76.5053 209.233C97.9651 237.218 159.479 204.262 178.292 234.083C196.101 262.312 132.677 302.766 152.472 329.647C168.708 351.697 203.288 311.49 229.59 303.748C244.827 299.263 259.921 296.11 275.575 293.412C291.833 290.609 307.667 287.561 324.166 287.446C359.935 287.196 406.688 319.235 430.191 292.331C450.91 268.614 412.527 232.161 395.711 205.547C383.749 186.615 363.729 175.197 346.861 160.446C336.626 151.496 322.348 146.902 315.338 135.264C306.155 120.019 312.325 98.2412 301.078 84.4424Z" stroke="#6260FF" stroke-width="1.28384"/>
<path d="M302.106 81.9541C290.472 67.681 271.586 60.8955 253.66 56.5861C233.972 51.8529 213.774 54.4393 193.572 55.8622C167.062 57.7294 134.299 47.6658 115.415 66.323C96.9667 84.5493 113.224 117.763 105.794 142.584C98.5735 166.705 57.2199 189.52 72.5515 209.513C94.4874 238.119 157.366 204.432 176.596 234.914C194.801 263.769 129.97 305.12 150.203 332.598C166.8 355.137 202.147 314.039 229.033 306.125C244.607 301.541 260.036 298.317 276.037 295.559C292.656 292.694 308.841 289.579 325.706 289.461C362.269 289.205 410.058 321.955 434.083 294.454C455.261 270.211 416.027 232.95 398.838 205.745C386.611 186.393 366.147 174.722 348.904 159.643C338.442 150.495 323.848 145.799 316.682 133.903C307.295 118.32 313.603 96.059 302.106 81.9541Z" stroke="#6260FF" stroke-width="1.28384"/>
<path d="M303.135 79.4688C291.249 64.886 271.953 57.9532 253.638 53.5503C233.522 48.7143 212.886 51.3569 192.246 52.8107C165.16 54.7184 131.687 44.4364 112.393 63.4985C93.5442 82.1203 110.154 116.055 102.563 141.414C95.1859 166.059 52.9348 189.369 68.5992 209.796C91.0111 239.023 155.254 204.604 174.902 235.748C193.501 265.23 127.264 307.478 147.936 335.552C164.893 358.581 201.007 316.59 228.476 308.505C244.389 303.821 260.152 300.527 276.501 297.709C293.481 294.782 310.017 291.599 327.248 291.479C364.604 291.218 413.431 324.679 437.977 296.58C459.614 271.811 419.529 233.742 401.967 205.946C389.474 186.175 368.566 174.249 350.949 158.844C340.26 149.497 325.35 144.7 318.028 132.545C308.437 116.624 314.882 93.8798 303.135 79.4688Z" stroke="#6260FF" stroke-width="1.28384"/>
<path d="M304.163 76.9806C292.024 62.088 272.319 55.008 253.615 50.5115C233.072 45.5729 211.997 48.2716 190.919 49.7562C163.258 51.7044 129.074 41.204 109.369 60.6711C90.1204 79.6884 107.083 114.344 99.3309 140.242C91.7969 165.41 48.6484 189.215 64.6455 210.076C87.5335 239.923 153.141 204.774 173.206 236.579C192.201 266.687 124.556 309.833 145.667 338.504C162.984 362.021 199.866 319.139 227.918 310.881C244.169 306.098 260.267 302.735 276.963 299.857C294.304 296.868 311.191 293.617 328.788 293.494C366.938 293.227 416.802 327.399 441.869 298.704C463.966 273.408 423.029 234.53 405.094 206.145C392.336 185.953 370.984 173.774 352.993 158.042C342.077 148.496 326.849 143.597 319.372 131.184C309.578 114.925 316.159 91.6977 304.163 76.9806Z" stroke="#6260FF" stroke-width="1.28384"/>
<path d="M305.192 74.4921C292.8 59.2898 272.685 52.0625 253.592 47.4725C232.621 42.4311 211.109 45.186 189.591 46.7015C161.355 48.6903 126.46 37.9714 106.346 57.8434C86.6967 77.2563 104.012 112.633 96.0987 139.069C88.408 164.761 44.3621 189.061 60.6919 210.356C84.0559 240.824 151.028 204.944 171.511 237.41C190.9 268.145 121.848 312.188 143.399 341.454C161.076 365.461 198.725 321.687 227.361 313.258C243.95 308.375 260.383 304.942 277.426 302.004C295.127 298.953 312.365 295.634 330.328 295.509C369.271 295.236 420.173 330.119 445.761 300.827C468.318 275.006 426.53 235.319 408.222 206.343C395.198 185.731 373.402 173.299 355.037 157.239C343.894 147.495 328.349 142.494 320.717 129.823C310.719 113.226 317.437 89.5153 305.192 74.4921Z" stroke="#6260FF" stroke-width="1.28384"/>
<path d="M306.222 72.0039C293.578 56.4918 273.053 49.1173 253.571 44.4338C232.173 39.2897 210.222 42.1007 188.266 43.6471C159.455 45.6763 123.849 34.7391 103.325 55.016C83.2752 74.8244 100.944 110.922 92.8689 137.897C85.0215 164.112 40.0781 188.907 56.7406 210.636C80.5807 241.725 148.918 205.114 169.817 238.242C189.602 269.602 119.143 314.543 141.133 344.406C159.17 368.902 197.586 324.235 226.805 315.635C243.732 310.652 260.5 307.149 277.89 304.151C295.952 301.038 313.542 297.652 331.871 297.524C371.608 297.246 423.546 332.839 449.656 302.951C472.672 276.603 430.033 236.107 411.351 206.541C398.063 185.509 375.822 172.824 357.083 156.437C345.713 146.495 329.852 141.392 322.063 128.462C311.862 111.527 318.717 87.3332 306.222 72.0039Z" stroke="#6260FF" stroke-width="1.28384"/>
<path d="M307.251 69.5191C294.355 53.6973 273.42 46.1755 253.549 41.3985C231.724 36.1516 209.334 39.0188 186.94 40.596C157.554 42.6658 121.236 31.5102 100.303 52.1919C79.8527 72.3959 97.8741 109.214 89.6379 136.728C81.6338 163.466 35.793 188.757 52.7883 210.92C77.1044 242.629 146.806 205.287 168.123 239.076C188.303 271.063 116.437 316.901 138.866 347.36C157.263 372.345 196.446 326.787 226.249 318.015C243.514 312.933 260.616 309.36 278.354 306.302C296.777 303.127 314.717 299.673 333.412 299.542C373.943 299.259 426.918 335.563 453.549 305.077C477.026 278.204 433.534 236.9 414.48 206.743C400.926 185.291 378.242 172.353 359.128 155.638C347.531 145.497 331.353 140.292 323.409 127.105C313.004 109.831 319.996 85.1545 307.251 69.5191Z" stroke="#6260FF" stroke-width="1.28384"/>
<path d="M308.28 67.0309C295.131 50.8993 273.786 43.2303 253.526 38.3597C231.273 33.0102 208.446 35.9334 185.613 37.5416C155.651 39.6519 118.623 28.2779 97.2793 49.3645C76.4289 69.964 94.803 107.503 86.4057 135.555C78.2449 162.817 31.5066 188.603 48.8346 211.2C73.6268 243.53 144.693 205.456 166.427 239.908C187.002 272.521 113.729 319.256 136.597 350.312C155.355 375.786 195.305 329.336 225.691 320.391C243.294 315.21 260.731 311.567 278.816 308.45C297.6 305.212 315.892 301.691 334.953 301.557C376.276 301.268 430.289 338.283 457.441 307.201C481.377 279.801 437.035 237.688 417.607 206.941C403.788 185.069 380.659 171.878 361.171 154.836C349.347 144.497 332.853 139.19 324.754 125.744C314.145 108.132 321.274 82.9724 308.28 67.0309Z" stroke="#6260FF" stroke-width="1.28384"/>
<path d="M309.31 64.5424C295.909 48.1011 274.154 40.2848 253.505 35.3207C230.825 29.8685 207.559 32.8479 184.288 34.4869C153.751 36.6377 116.012 25.0453 94.2584 46.5368C73.0076 67.5319 91.7345 105.792 83.176 134.382C74.8584 162.168 27.2227 188.449 44.8834 211.479C70.1517 244.431 142.582 205.626 164.734 240.739C185.704 273.978 111.024 321.611 134.331 353.263C153.449 379.226 194.166 331.884 225.136 322.768C243.077 317.487 260.849 313.774 279.281 310.597C298.425 307.297 317.068 303.708 336.496 303.572C378.613 303.278 433.662 341.003 461.336 309.324C485.732 281.398 440.538 238.477 420.737 207.139C406.653 184.847 383.08 171.402 363.218 154.034C351.167 143.496 334.355 138.087 326.101 124.383C315.288 106.433 322.554 80.79 309.31 64.5424Z" stroke="#6260FF" stroke-width="1.28384"/>
<path d="M310.338 62.0573C296.684 45.3062 274.52 37.3426 253.482 32.285C230.375 26.73 206.67 29.7656 182.961 31.4355C151.848 33.6268 113.398 21.816 91.235 43.7124C69.5839 65.103 88.6636 104.083 79.9438 133.213C71.4696 161.522 22.9364 188.298 40.9298 211.763C66.6741 245.335 140.469 205.799 163.038 241.573C184.403 275.439 108.317 323.969 132.063 356.217C151.541 382.669 193.025 334.435 224.578 325.148C242.857 319.767 260.964 315.984 279.744 312.747C299.248 309.385 318.243 305.729 338.036 305.59C380.946 305.29 437.033 343.726 465.229 311.45C490.084 282.998 444.038 239.268 423.865 207.34C409.515 184.629 385.498 170.931 365.261 153.235C352.983 142.498 335.855 136.987 327.445 123.025C316.429 104.737 323.831 78.611 310.338 62.0573Z" stroke="#6260FF" stroke-width="1.28384"/>
<path d="M311.368 59.5689C297.461 42.5081 274.887 34.3973 253.46 29.2462C229.925 23.5885 205.783 26.6801 181.635 28.3809C149.947 30.6127 110.786 18.5835 88.2127 40.8849C66.1612 62.671 85.5938 102.372 76.7127 132.041C68.0818 160.873 18.6512 188.144 36.9773 212.043C63.1977 246.235 138.357 205.969 161.344 242.404C183.104 276.896 105.61 326.323 129.795 359.168C149.634 386.11 191.885 336.984 224.022 327.524C242.639 322.044 261.081 318.191 280.207 314.895C300.072 311.47 319.418 307.746 339.577 307.605C383.281 307.3 440.405 346.447 469.122 313.574C494.437 284.596 447.54 240.057 426.993 207.539C412.378 184.407 387.917 170.455 367.306 152.432C354.801 141.497 337.357 135.884 328.791 121.664C317.571 103.038 325.11 76.4288 311.368 59.5689Z" stroke="#6260FF" stroke-width="1.28384"/>
<path d="M312.396 57.0806C298.237 39.71 275.253 31.4519 253.437 26.2073C229.475 20.4469 204.894 23.5947 180.308 25.3263C148.045 27.5987 108.172 15.3511 85.1894 38.0573C62.7375 60.239 82.5229 100.661 73.4806 130.868C64.693 160.224 14.3649 187.99 33.0238 212.322C59.7202 247.136 136.245 206.138 159.648 243.235C181.803 278.353 102.903 328.678 127.527 362.119C147.726 389.55 190.744 339.532 223.464 329.901C242.419 324.322 261.196 320.399 280.67 317.042C300.895 313.555 320.593 309.764 341.118 309.62C385.615 309.309 443.776 349.167 473.014 315.697C498.789 286.193 451.04 240.846 430.121 207.737C415.24 184.185 390.335 169.98 369.35 151.63C356.618 140.496 338.857 134.782 330.135 120.303C318.711 101.339 326.388 74.2465 312.396 57.0806Z" stroke="#6260FF" stroke-width="1.28384"/>
<path d="M313.426 54.5922C299.015 36.9119 275.621 28.5066 253.416 23.1684C229.027 17.3053 204.008 20.5092 178.983 22.2717C146.144 24.5846 105.561 12.1186 82.1684 35.2298C59.3162 57.807 79.4544 98.9499 70.2509 129.695C61.3066 159.575 10.081 187.836 29.0726 212.602C56.2451 248.037 134.134 206.308 157.955 244.067C180.505 279.811 100.198 331.033 125.261 365.07C145.82 392.99 189.605 342.08 222.909 332.277C242.202 326.599 261.313 322.606 281.134 319.189C301.721 315.64 321.769 311.781 342.66 311.635C387.951 311.319 447.149 351.887 476.909 317.82C503.143 287.79 454.543 241.634 433.251 207.935C418.105 183.963 392.755 169.505 371.396 150.828C358.437 139.495 340.359 133.679 331.482 118.942C319.855 99.6396 327.668 72.0643 313.426 54.5922Z" stroke="#6260FF" stroke-width="1.28384"/>
<path d="M314.454 52.1076C299.791 34.1175 275.987 25.5649 253.393 20.1332C228.576 14.1673 203.119 17.4274 177.656 19.2208C144.242 21.5742 102.947 8.88984 79.1449 32.4059C55.8924 55.3786 76.3834 97.2423 67.0186 128.527C57.9176 158.929 5.79457 187.686 25.1189 212.886C52.7674 248.941 132.021 206.481 156.259 244.901C179.205 281.272 97.4903 333.391 122.993 368.025C143.911 396.434 188.464 344.632 222.351 334.658C241.982 328.879 261.428 324.817 281.597 321.34C302.544 317.729 322.944 313.802 344.201 313.654C390.285 313.332 450.52 354.611 480.801 319.947C507.495 289.391 458.044 242.426 436.378 208.137C420.966 183.745 395.173 169.034 373.44 150.029C360.254 138.498 341.859 132.58 332.826 117.585C320.995 97.9442 328.946 69.8857 314.454 52.1076Z" stroke="#6260FF" stroke-width="1.28384"/>
<path d="M315.484 49.6192C300.568 31.3194 276.354 22.6195 253.371 17.0944C228.127 11.0258 202.231 14.3419 176.33 16.1662C142.34 18.5602 100.335 5.65738 76.1228 29.5783C52.4699 52.9466 73.3137 95.5311 63.7876 127.354C54.5299 158.28 1.50948 187.532 21.1665 213.166C49.2911 249.842 129.909 206.651 154.565 245.733C177.905 282.729 94.784 335.746 120.725 370.976C142.004 399.874 187.324 347.181 221.795 337.034C241.764 331.156 261.545 327.024 282.06 323.487C303.368 319.814 324.119 315.82 345.742 315.669C392.62 315.341 453.892 357.331 484.695 322.071C511.848 290.988 461.545 243.215 439.507 208.335C423.83 183.523 397.592 168.559 375.485 149.227C362.072 137.497 343.36 131.477 334.172 116.224C322.137 96.2451 330.225 67.7035 315.484 49.6192Z" stroke="#6260FF" stroke-width="1.28384"/>
<path d="M316.512 47.1309C301.343 28.5213 276.719 19.6742 253.347 14.0555C227.676 7.88417 201.342 11.2565 175.002 13.1117C140.438 15.5461 97.7214 2.42492 73.0993 26.7508C49.046 50.5146 70.2427 93.8199 60.5554 126.181C51.1409 157.631 -2.77695 187.378 17.2128 213.446C45.8134 250.743 127.796 206.82 152.869 246.564C176.605 284.187 92.0764 338.101 118.457 373.927C140.096 403.314 186.183 349.729 221.237 339.411C241.544 333.434 261.66 329.231 282.523 325.635C304.191 321.899 325.293 317.837 347.282 317.684C394.954 317.35 457.263 360.051 488.587 324.194C516.2 292.585 465.046 244.003 442.634 208.533C426.692 183.302 400.01 168.084 377.529 148.424C363.888 136.496 344.86 130.374 335.517 114.863C323.278 94.5459 331.502 65.5213 316.512 47.1309Z" stroke="#6260FF" stroke-width="1.28384"/>
<path d="M317.543 44.6426C302.121 25.7232 277.088 16.7289 253.327 11.0166C227.228 4.74258 200.456 8.17104 173.678 10.0571C138.538 12.5321 95.1104 -0.807534 70.0784 23.9232C45.6247 48.0826 67.1742 92.1087 57.3256 125.009C47.7545 156.982 -7.06082 187.224 13.2617 213.726C42.3383 251.643 125.686 206.99 151.176 247.395C175.307 285.644 89.3713 340.456 116.191 376.878C138.19 406.755 185.044 352.277 220.682 341.787C241.327 335.711 261.777 331.438 282.988 327.782C305.017 323.985 326.47 319.855 348.825 319.699C397.29 319.36 460.637 362.771 492.482 326.317C520.554 294.182 468.549 244.792 445.764 208.731C429.556 183.08 402.431 167.608 379.575 147.622C365.708 135.496 346.363 129.271 336.864 113.502C324.421 92.8468 332.782 63.339 317.543 44.6426Z" stroke="#6260FF" stroke-width="1.28384"/>
<path d="M318.572 42.1574C302.898 22.9283 277.455 13.7867 253.305 7.98092C226.779 1.60417 199.568 5.08875 172.352 7.00569C136.636 9.52118 92.498 -4.03682 67.0562 21.0988C42.2022 45.6538 64.1045 90.4006 54.0947 123.839C44.3669 156.336 -11.3459 187.073 9.30933 214.009C38.862 252.547 123.574 207.163 149.482 248.229C174.007 287.105 86.665 342.814 113.924 379.833C136.283 410.198 183.904 354.829 220.125 344.167C241.108 337.991 261.894 333.648 283.451 329.932C305.841 326.073 327.646 321.876 350.367 321.717C399.625 321.372 464.009 365.494 496.375 328.444C524.907 295.783 472.05 245.584 448.893 208.933C432.42 182.861 404.85 167.137 381.62 146.823C367.526 134.498 347.864 128.172 338.209 112.144C325.563 91.1509 334.061 61.16 318.572 42.1574Z" stroke="#6260FF" stroke-width="1.28384"/>
</svg>
