<svg width="528" height="488" viewBox="0 0 528 488" fill="none" xmlns="http://www.w3.org/2000/svg">
<path fill-rule="evenodd" clip-rule="evenodd" d="M258.709 204.105C265.37 206.087 274.654 196.55 279.17 201.836C284.914 208.559 271.639 223.386 279.156 228.038C291.993 235.981 314.76 217.416 323.842 229.479C330.956 238.926 300.894 241.86 298.243 253.387C295.599 264.881 322.094 282.436 310.85 285.97C295.102 290.919 283.641 258.792 267.677 262.993C255.353 266.235 269.624 293.109 258.709 299.689C250.92 304.385 250.924 281.425 242.411 278.225C232.596 274.535 220.845 286.878 211.577 281.972C203.714 277.81 201.284 265.966 202.629 257.166C204.018 248.084 214.187 243.212 218.722 235.223C221.854 229.706 223.487 223.682 225.121 217.551C227.78 207.576 221.83 191.457 231.408 187.623C241.401 183.622 248.393 201.035 258.709 204.105Z" stroke="#6260FF" stroke-width="1.28384"/>
<path fill-rule="evenodd" clip-rule="evenodd" d="M242.629 74.0407C271.173 82.5383 310.957 41.6542 330.308 64.3148C354.92 93.1348 298.036 156.701 330.249 176.642C385.256 210.695 482.815 131.108 521.736 182.82C552.217 223.319 423.399 235.895 412.038 285.313C400.71 334.587 514.244 409.845 466.061 424.994C398.577 446.21 349.465 308.485 281.057 326.492C228.248 340.392 289.402 455.597 242.629 483.807C209.253 503.938 209.269 405.508 172.792 391.791C130.731 375.973 80.3785 428.888 40.6619 407.856C6.96629 390.011 -3.44285 339.24 2.32084 301.514C8.26959 262.577 51.8448 241.692 71.2807 207.444C84.7024 183.794 91.6999 157.967 98.7014 131.685C110.093 88.9229 84.6 19.8213 125.642 3.38382C168.463 -13.7662 198.422 60.8799 242.629 74.0407Z" stroke="#6260FF" stroke-width="1.28384"/>
<path d="M280.173 199.139C275.366 193.513 265.483 203.664 258.393 201.554C247.412 198.286 239.971 179.752 229.334 184.01C219.139 188.092 225.472 205.25 222.642 215.867C220.903 222.393 219.165 228.806 215.831 234.678C211.003 243.182 200.179 248.368 198.702 258.036C197.27 267.403 199.855 280.01 208.225 284.44C218.091 289.663 230.598 276.524 241.046 280.452C250.107 283.858 250.103 308.298 258.393 303.299C270.011 296.295 254.821 267.689 267.939 264.238C284.931 259.767 297.13 293.964 313.893 288.696C325.862 284.935 297.66 266.248 300.474 254.013C303.296 241.743 335.294 238.62 327.722 228.564C318.055 215.724 293.821 235.486 280.158 227.03C272.156 222.079 286.286 206.295 280.173 199.139Z" stroke="#6260FF" stroke-width="1.28384"/>
<path d="M281.176 196.443C276.078 190.475 265.598 201.242 258.079 199.004C246.433 195.538 238.541 175.881 227.261 180.398C216.449 184.726 223.165 202.923 220.164 214.184C218.32 221.105 216.476 227.906 212.941 234.134C207.821 243.152 196.342 248.652 194.775 258.905C193.256 268.84 195.998 282.21 204.875 286.909C215.337 292.447 228.602 278.513 239.682 282.678C249.291 286.29 249.286 312.21 258.079 306.909C270.4 299.48 254.29 269.143 268.202 265.483C286.222 260.741 299.16 297.009 316.937 291.422C329.63 287.433 299.722 267.615 302.706 254.639C305.699 241.626 339.633 238.314 331.603 227.649C321.351 214.032 295.651 234.99 281.16 226.022C272.675 220.771 287.659 204.032 281.176 196.443Z" stroke="#6260FF" stroke-width="1.28384"/>
<path d="M282.179 193.746C276.79 187.438 265.711 198.819 257.763 196.454C245.453 192.79 237.111 172.011 225.187 176.785C213.758 181.361 220.857 200.596 217.685 212.5C215.735 219.816 213.787 227.005 210.049 233.589C204.637 243.122 192.503 248.936 190.847 259.775C189.242 270.276 192.14 284.41 201.523 289.377C212.583 295.232 226.604 280.502 238.316 284.905C248.474 288.723 248.469 316.123 257.763 310.519C270.788 302.666 253.759 270.597 268.464 266.728C287.513 261.715 301.189 300.053 319.98 294.148C333.397 289.931 301.783 268.981 304.937 255.265C308.101 241.508 343.971 238.008 335.484 226.734C324.646 212.339 297.479 234.494 282.162 225.015C273.192 219.464 289.032 201.769 282.179 193.746Z" stroke="#6260FF" stroke-width="1.28384"/>
<path d="M283.181 191.05C277.501 184.401 265.825 196.397 257.447 193.904C244.473 190.042 235.68 168.141 223.113 173.173C211.067 177.996 218.549 198.27 215.206 210.817C213.151 218.528 211.097 226.106 207.158 233.045C201.454 243.093 188.665 249.221 186.919 260.645C185.227 271.714 188.282 286.61 198.172 291.846C209.828 298.017 224.606 282.491 236.951 287.132C247.657 291.157 247.652 320.036 257.447 314.13C271.175 305.853 253.227 272.052 268.726 267.973C288.803 262.69 303.217 303.099 323.023 296.874C337.165 292.429 303.843 270.349 307.168 255.891C310.502 241.392 348.309 237.702 339.363 225.82C327.94 210.647 299.307 233.998 283.163 224.007C273.709 218.156 290.404 199.506 283.181 191.05Z" stroke="#6260FF" stroke-width="1.28384"/>
<path d="M284.184 188.354C278.214 181.364 265.94 193.974 257.133 191.353C243.494 187.294 234.251 164.271 221.04 169.56C208.377 174.63 216.243 195.944 212.728 209.133C210.568 217.239 208.409 225.205 204.268 232.5C198.271 243.063 184.827 249.505 182.992 261.514C181.214 273.15 184.425 288.81 194.821 294.314C207.075 300.801 222.61 284.48 235.587 289.359C246.841 293.59 246.836 323.949 257.133 317.74C271.564 309.039 252.696 273.506 268.989 269.218C290.095 263.664 305.247 306.144 326.068 299.6C340.933 294.928 305.905 271.715 309.4 256.517C312.905 241.275 352.649 237.396 343.245 224.905C331.237 208.955 301.137 233.502 284.166 222.999C274.228 216.849 291.778 197.243 284.184 188.354Z" stroke="#6260FF" stroke-width="1.28384"/>
<path d="M285.185 185.657C278.924 178.327 266.052 191.552 256.816 188.803C242.513 184.546 232.819 160.4 218.964 165.948C205.685 171.265 213.933 193.617 210.247 207.449C207.982 215.951 205.718 224.305 201.375 231.955C195.087 243.033 180.988 249.789 179.063 262.384C177.198 274.587 180.566 291.01 191.468 296.782C204.319 303.586 220.611 286.469 234.22 291.586C246.022 296.023 246.017 327.862 256.816 321.35C271.95 312.225 252.163 274.96 269.25 270.463C291.384 264.639 307.274 309.189 329.109 302.326C344.699 297.426 307.964 273.082 311.63 257.143C315.306 241.158 356.986 237.09 347.123 223.99C334.53 207.263 302.964 233.007 285.166 221.992C274.744 215.541 293.149 194.98 285.185 185.657Z" stroke="#6260FF" stroke-width="1.28384"/>
<path d="M286.189 182.961C279.637 175.29 266.166 189.129 256.502 186.253C241.534 181.798 231.39 156.53 216.891 162.335C202.995 167.899 211.627 191.291 207.77 205.766C205.399 214.662 203.03 223.405 198.485 231.41C191.904 243.003 177.15 250.073 175.136 263.254C173.185 276.024 176.709 293.21 188.118 299.25C201.566 306.37 218.614 288.458 232.856 293.812C245.207 298.456 245.201 331.775 256.502 324.96C272.339 315.411 251.632 276.414 269.513 271.708C292.675 265.613 309.304 312.234 332.154 305.052C348.468 299.924 310.026 274.449 313.862 257.769C317.709 241.041 361.325 236.784 351.004 223.075C337.826 205.57 304.794 232.511 286.169 220.984C275.262 214.234 294.522 192.716 286.189 182.961Z" stroke="#6260FF" stroke-width="1.28384"/>
<path d="M287.191 180.264C280.348 172.253 266.28 186.707 256.186 183.703C240.554 179.05 229.959 152.659 214.817 158.723C200.304 164.534 209.319 188.964 205.29 204.082C202.814 213.374 200.34 222.504 195.594 230.866C188.721 242.973 173.312 250.357 171.208 264.123C169.17 277.46 172.851 295.41 184.766 301.719C198.811 309.155 216.617 290.447 231.49 296.039C244.389 300.889 244.383 335.687 256.186 328.57C272.726 318.597 251.101 277.868 269.775 272.953C293.966 266.587 311.333 315.278 335.196 307.778C352.235 302.422 312.087 275.816 316.093 258.395C320.11 240.924 365.663 236.478 354.884 222.16C341.121 203.878 306.622 232.015 287.17 219.976C275.779 212.926 295.895 190.453 287.191 180.264Z" stroke="#6260FF" stroke-width="1.28384"/>
<path d="M288.195 177.567C281.061 169.215 266.394 184.284 255.872 181.152C239.575 176.301 228.53 148.789 212.744 155.11C197.614 161.168 207.012 186.637 202.812 202.398C200.231 212.085 197.652 221.604 192.704 230.321C185.539 242.944 169.474 250.641 167.281 264.992C165.157 278.897 168.994 297.61 181.416 304.187C196.058 311.939 214.62 292.436 230.126 298.266C243.574 303.322 243.567 339.6 255.872 332.18C273.115 321.783 250.57 279.322 270.038 274.198C295.257 267.562 313.363 318.323 338.241 310.504C356.004 304.92 314.149 277.182 318.325 259.021C322.513 240.807 370.002 236.172 358.765 221.245C344.417 202.185 308.452 231.519 288.173 218.968C276.298 211.618 297.268 188.19 288.195 177.567Z" stroke="#6260FF" stroke-width="1.28384"/>
<path d="M289.196 174.871C281.771 166.178 266.507 181.862 255.555 178.602C238.593 173.553 227.098 144.919 210.669 151.497C194.921 157.803 204.703 184.311 200.332 200.714C197.646 210.796 194.961 220.704 189.811 229.776C182.354 242.914 165.635 250.926 163.352 265.862C161.141 280.334 165.135 299.81 178.063 306.655C193.302 314.723 212.621 294.425 228.759 300.493C242.755 305.755 242.749 343.513 255.555 335.791C273.501 324.969 250.037 280.776 270.299 275.443C296.546 268.536 315.39 321.368 341.282 313.229C359.77 307.418 316.208 278.549 320.555 259.647C324.914 240.69 374.339 235.866 362.644 220.33C347.711 200.493 310.278 231.023 289.173 217.96C276.814 210.311 298.639 185.926 289.196 174.871Z" stroke="#6260FF" stroke-width="1.28384"/>
<path d="M290.2 172.174C282.484 163.141 266.621 179.439 255.241 176.051C237.614 170.805 225.669 141.048 208.596 147.885C192.232 154.437 202.396 181.984 197.854 199.031C195.062 209.508 192.272 219.804 186.921 229.231C179.172 242.884 161.797 251.21 159.425 266.731C157.127 281.77 161.278 302.01 174.713 309.123C190.548 317.508 210.625 296.414 227.395 302.719C241.939 308.188 241.933 347.426 255.241 339.401C273.89 328.155 249.506 282.23 270.562 276.688C297.838 269.51 317.42 324.413 344.327 315.955C363.538 309.917 318.27 279.916 322.787 260.273C327.317 240.573 378.679 235.56 366.525 219.415C351.007 198.801 312.108 230.527 290.176 216.953C277.332 209.003 300.013 183.663 290.2 172.174Z" stroke="#6260FF" stroke-width="1.28384"/>
<path d="M291.202 169.478C283.195 160.104 266.735 177.016 254.925 173.501C236.634 168.057 224.239 137.178 206.521 144.272C189.54 151.072 200.088 179.658 195.375 197.347C192.478 208.219 189.583 218.903 184.029 228.687C175.988 242.854 157.959 251.494 155.497 267.601C153.113 283.207 157.419 304.21 171.361 311.592C187.794 320.292 208.627 298.403 226.03 304.946C241.122 310.621 241.115 351.338 254.925 343.011C274.277 331.341 248.974 283.684 270.824 277.934C299.128 270.485 319.448 327.458 347.37 318.681C367.305 312.415 320.331 281.282 325.018 260.899C329.718 240.456 383.017 235.254 370.405 218.5C354.302 197.108 313.936 230.032 291.177 215.945C277.849 207.696 301.385 181.4 291.202 169.478Z" stroke="#6260FF" stroke-width="1.28384"/>
<path d="M292.206 166.782C283.908 157.067 266.849 174.594 254.61 170.951C235.655 165.309 222.809 133.308 204.449 140.66C186.851 147.707 197.781 177.331 192.897 195.664C189.895 206.931 186.894 218.003 181.139 228.142C172.806 242.825 154.121 251.779 151.571 268.471C149.099 284.644 153.563 306.41 168.011 314.06C185.04 323.077 206.631 300.392 224.666 307.173C240.306 313.054 240.299 355.252 254.61 346.621C274.666 334.527 248.444 285.138 271.088 279.179C300.42 271.459 321.478 330.503 350.414 321.408C371.074 314.913 322.393 282.65 327.25 261.525C332.121 240.339 387.356 234.948 374.286 217.586C357.598 195.416 315.766 229.536 292.18 214.938C278.368 206.389 302.759 179.137 292.206 166.782Z" stroke="#6260FF" stroke-width="1.28384"/>
<path d="M293.207 164.085C284.618 154.03 266.961 172.172 254.293 168.401C234.674 162.561 221.377 129.438 202.373 137.048C184.158 144.342 195.472 175.005 190.416 193.98C187.309 205.643 184.203 217.103 178.247 227.598C169.621 242.795 150.282 252.063 147.641 269.341C145.083 286.081 149.703 308.611 164.658 316.529C182.284 325.862 204.632 302.381 223.299 309.4C239.488 315.487 239.48 359.164 254.293 350.232C275.052 337.713 247.911 286.593 271.348 280.424C301.709 272.434 323.505 333.548 353.456 324.134C374.84 317.412 324.452 284.017 329.479 262.151C334.522 240.222 391.693 234.642 378.165 216.671C360.891 193.724 317.593 229.04 293.18 213.93C278.884 205.081 304.13 176.874 293.207 164.085Z" stroke="#6260FF" stroke-width="1.28384"/>
<path d="M294.21 161.389C285.331 150.993 267.076 169.749 253.979 165.851C233.695 159.813 219.948 125.567 200.3 133.435C181.468 140.976 193.165 172.678 187.938 192.296C184.726 204.354 181.515 216.203 175.356 227.053C166.438 242.765 146.444 252.347 143.715 270.21C141.07 287.518 145.846 310.811 161.307 318.997C179.531 328.646 202.635 304.37 221.935 311.627C238.672 317.92 238.664 363.077 253.979 353.842C275.44 340.899 247.38 288.047 271.611 281.669C303 273.408 325.535 336.593 356.5 326.86C378.608 319.91 326.514 285.383 331.711 262.777C336.924 240.105 396.032 234.336 382.046 215.756C364.187 192.032 319.422 228.545 294.183 212.922C279.402 203.773 305.503 174.611 294.21 161.389Z" stroke="#6260FF" stroke-width="1.28384"/>
<path d="M295.214 158.692C286.044 147.955 267.191 167.327 253.665 163.3C232.716 157.065 218.519 121.697 198.227 129.823C178.778 137.611 190.859 170.352 185.461 190.613C182.143 203.066 178.827 215.303 172.466 226.508C163.256 242.735 142.607 252.631 139.788 271.08C137.057 288.954 141.989 313.01 157.957 321.465C176.778 331.431 200.639 306.359 220.571 313.853C237.856 320.353 237.848 366.99 253.665 357.452C275.829 344.085 246.85 289.5 271.875 282.914C304.292 274.382 327.565 339.638 359.544 329.585C382.377 322.408 328.576 286.75 333.944 263.403C339.327 239.988 400.371 234.03 385.927 214.841C367.483 190.339 321.252 228.049 295.186 211.914C279.921 202.466 306.877 172.347 295.214 158.692Z" stroke="#6260FF" stroke-width="1.28384"/>
<path d="M296.218 155.996C286.756 144.918 267.305 164.904 253.35 160.75C231.737 154.317 217.09 117.826 196.154 126.21C176.088 134.245 188.552 168.025 182.983 188.929C179.56 201.777 176.138 214.402 169.576 225.964C160.074 242.705 138.77 252.915 135.861 271.949C133.043 290.391 138.132 315.21 154.607 323.933C174.024 334.215 198.642 308.348 219.206 316.08C237.04 322.786 237.032 370.903 253.35 361.062C276.218 347.271 246.319 290.954 272.138 284.159C305.583 275.357 329.595 342.683 362.588 332.311C386.146 324.906 330.638 288.117 336.176 264.029C341.73 239.871 404.711 233.724 389.808 213.926C370.78 188.647 323.082 227.553 296.188 210.906C280.439 201.158 308.25 170.084 296.218 155.996Z" stroke="#6260FF" stroke-width="1.28384"/>
<path d="M297.217 153.299C287.465 141.88 267.416 162.481 253.032 158.199C230.754 151.568 215.657 113.955 194.077 122.597C173.395 130.879 186.242 165.698 180.501 187.245C176.973 200.488 173.446 213.502 166.682 225.418C156.888 242.675 134.929 253.199 131.931 272.818C129.026 291.827 134.272 317.41 151.252 326.401C171.267 336.999 196.642 310.336 217.838 318.306C236.221 325.218 236.212 374.815 253.032 364.671C276.603 350.457 245.785 292.408 272.398 285.404C306.871 276.33 331.621 345.727 365.629 335.037C389.91 327.404 332.696 289.483 338.404 264.654C344.13 239.754 409.046 233.417 393.686 213.011C374.072 186.954 324.908 227.056 297.187 209.898C280.954 199.85 309.62 167.82 297.217 153.299Z" stroke="#6260FF" stroke-width="1.28384"/>
<path d="M298.221 150.603C288.178 138.844 267.531 160.059 252.718 155.649C229.775 148.82 214.227 110.085 192.004 118.985C170.705 127.514 183.935 163.372 178.023 185.562C174.389 199.2 170.758 212.602 163.792 224.874C153.705 242.646 131.091 253.483 128.004 273.688C125.013 293.264 130.415 319.61 147.902 328.87C168.514 339.784 194.645 312.326 216.474 320.534C235.405 327.652 235.396 378.728 252.718 368.282C276.991 353.643 245.254 293.863 272.661 286.649C308.163 277.305 333.651 348.772 368.673 337.763C393.679 329.903 334.757 290.85 340.636 265.281C346.532 239.637 413.386 233.112 397.567 212.096C377.368 185.262 326.737 226.561 298.19 208.891C281.472 198.543 310.994 165.558 298.221 150.603Z" stroke="#6260FF" stroke-width="1.28384"/>
<path d="M299.225 147.906C288.891 135.806 267.646 157.636 252.403 153.099C228.796 146.072 212.798 106.215 189.931 115.372C168.015 124.149 181.628 161.045 175.545 183.878C171.806 197.911 168.069 211.701 160.902 224.329C150.523 242.616 127.254 253.768 124.077 274.558C120.999 294.701 126.558 321.81 144.552 331.338C165.76 342.568 192.649 314.315 215.11 322.76C234.589 330.085 234.58 382.641 252.403 371.892C277.38 356.829 244.723 295.317 272.924 287.894C309.454 278.28 335.681 351.817 371.717 340.489C397.447 332.401 336.819 292.217 342.869 265.907C348.935 239.52 417.725 232.806 401.448 211.181C380.664 183.57 328.567 226.065 299.193 207.883C281.991 197.235 312.367 163.294 299.225 147.906Z" stroke="#6260FF" stroke-width="1.28384"/>
<path d="M300.228 145.209C289.603 132.769 267.76 155.214 252.089 150.549C227.818 143.324 211.369 102.345 187.859 111.76C165.325 120.783 179.322 158.719 173.067 182.194C169.223 196.623 165.381 210.801 158.012 223.785C147.341 242.586 123.417 254.052 120.151 275.427C116.986 296.138 122.701 324.01 141.201 333.806C163.007 345.353 190.653 316.304 213.746 324.987C233.773 332.518 233.764 386.554 252.089 375.502C277.769 360.015 244.193 296.771 273.187 289.139C310.746 279.254 337.711 354.862 374.762 343.215C401.216 334.899 338.881 293.584 345.101 266.533C351.338 239.403 422.065 232.5 405.329 210.266C383.96 181.877 330.396 225.569 300.195 206.875C282.51 195.928 313.741 161.031 300.228 145.209Z" stroke="#6260FF" stroke-width="1.28384"/>
<path d="M301.229 142.513C290.314 129.732 267.872 152.791 251.772 147.999C226.836 140.576 209.937 98.4742 185.783 108.147C162.633 117.418 177.012 156.392 170.587 180.511C166.637 195.334 162.69 209.901 155.119 223.24C144.156 242.556 119.577 254.336 116.221 276.297C112.97 297.574 118.842 326.21 137.848 336.275C160.251 348.137 188.654 318.293 212.379 327.214C232.955 334.951 232.945 390.466 251.772 379.112C278.155 363.201 243.66 298.225 273.448 290.384C312.035 280.228 339.738 357.907 377.803 345.941C404.982 337.397 340.941 294.95 347.33 267.159C353.739 239.286 426.401 232.194 409.208 209.351C387.254 180.185 332.223 225.074 301.195 205.867C283.025 194.62 315.112 158.768 301.229 142.513Z" stroke="#6260FF" stroke-width="1.28384"/>
<path d="M302.232 139.816C291.025 126.695 267.986 150.369 251.456 145.448C225.856 137.827 208.506 94.6038 183.709 104.534C159.941 114.053 174.704 154.066 168.107 178.827C164.053 194.046 160.001 209.001 152.228 222.695C140.973 242.526 115.738 254.62 112.293 277.166C108.955 299.011 114.983 328.41 134.497 338.743C157.497 350.922 186.656 320.282 211.014 329.441C232.137 337.384 232.128 394.379 251.456 382.723C278.542 366.387 243.128 299.679 273.71 291.629C313.325 281.203 341.766 360.952 380.846 348.667C408.749 339.895 343.001 296.317 349.561 267.785C356.14 239.169 430.739 231.887 413.087 208.436C390.548 178.493 334.051 224.578 302.197 204.86C283.543 193.313 316.484 156.505 302.232 139.816Z" stroke="#6260FF" stroke-width="1.28384"/>
<path d="M303.235 137.12C291.738 123.658 268.1 147.946 251.142 142.898C224.877 135.079 207.077 90.7333 181.636 100.922C157.251 110.687 172.398 151.739 165.63 177.143C161.47 192.757 157.312 208.1 149.338 222.15C137.79 242.496 111.901 254.904 108.367 278.036C104.942 300.448 111.127 330.61 131.146 341.211C154.743 353.706 184.66 322.27 209.649 331.667C231.322 339.817 231.312 398.292 251.142 386.333C278.931 369.573 242.597 301.133 273.973 292.874C314.617 282.177 343.796 363.997 383.891 351.393C412.518 342.393 345.063 297.684 351.794 268.411C358.543 239.052 435.079 231.581 416.969 207.522C393.845 176.8 335.881 224.082 303.2 203.852C284.061 192.005 317.858 154.241 303.235 137.12Z" stroke="#6260FF" stroke-width="1.28384"/>
<path d="M304.239 134.423C292.45 120.62 268.215 145.524 250.827 140.347C223.898 132.331 205.648 86.8629 179.563 97.3093C154.561 107.322 170.091 149.412 163.151 175.459C158.886 191.468 154.624 207.2 146.448 221.606C134.608 242.466 108.063 255.188 104.44 278.905C100.929 301.884 107.27 332.81 127.796 343.679C151.99 356.491 182.663 324.259 208.285 333.894C230.506 342.249 230.495 402.205 250.827 389.943C279.32 372.759 242.067 302.587 274.236 294.119C315.908 283.151 345.826 367.042 386.935 354.118C416.286 344.891 347.125 299.05 354.026 269.037C360.946 238.935 439.418 231.275 420.85 206.607C397.141 175.108 337.711 223.586 304.202 202.844C284.58 190.697 319.231 151.978 304.239 134.423Z" stroke="#6260FF" stroke-width="1.28384"/>
<path d="M305.24 131.727C293.161 117.583 268.327 143.101 250.511 137.797C222.917 129.583 204.216 82.9926 177.487 93.6968C151.869 103.956 167.782 147.086 160.671 173.776C156.301 190.18 151.933 206.3 143.555 221.061C131.423 242.437 104.224 255.472 100.511 279.775C96.9129 303.321 103.41 335.01 124.443 346.148C149.234 359.275 180.664 326.248 206.919 336.121C229.687 344.683 229.677 406.117 250.511 393.553C279.706 375.945 241.534 304.041 274.497 295.364C317.197 284.126 347.853 370.087 389.977 356.845C420.052 347.39 349.184 300.417 356.255 269.663C363.347 238.818 443.755 230.969 424.728 205.692C400.434 173.416 339.538 223.09 305.203 201.836C285.096 189.39 320.602 149.715 305.24 131.727Z" stroke="#6260FF" stroke-width="1.28384"/>
<path d="M306.243 129.031C293.873 114.546 268.442 140.679 250.196 135.247C221.938 126.835 202.787 79.1226 175.414 90.0846C149.179 100.591 165.475 144.76 158.193 172.092C153.717 188.892 149.245 205.4 140.665 220.517C128.241 242.407 100.386 255.757 96.5837 280.645C92.8994 304.758 99.5532 337.211 121.092 348.616C146.481 362.06 178.667 328.238 205.554 338.348C228.871 347.116 228.861 410.031 250.196 397.163C280.094 379.132 241.003 305.495 274.76 296.61C318.489 285.1 349.883 373.132 393.021 359.571C423.821 349.888 351.246 301.785 358.487 270.289C365.75 238.702 448.094 230.664 428.609 204.777C403.73 171.724 341.367 222.595 306.205 200.829C285.614 188.083 321.976 147.452 306.243 129.031Z" stroke="#6260FF" stroke-width="1.28384"/>
<path d="M307.246 126.334C294.585 111.509 268.555 138.256 249.881 132.697C220.958 124.087 201.356 75.2523 173.34 86.4722C146.488 97.2259 163.167 142.433 155.714 170.409C151.133 187.603 146.555 204.5 137.774 219.972C125.058 242.377 96.5479 256.041 92.6559 281.514C88.8849 306.195 95.6952 339.411 117.741 351.085C143.726 364.845 176.67 330.227 204.189 340.575C228.054 349.549 228.043 413.944 249.881 400.774C280.482 382.318 240.471 306.949 275.022 297.855C319.779 286.075 351.912 376.177 396.064 362.297C427.588 352.387 353.307 303.151 360.718 270.915C368.151 238.585 452.432 230.358 432.489 203.862C407.025 170.031 343.196 222.099 307.207 199.821C286.131 186.775 323.348 145.189 307.246 126.334Z" stroke="#6260FF" stroke-width="1.28384"/>
<path d="M308.247 123.638C295.295 108.472 268.667 135.834 249.564 130.147C219.976 121.339 199.924 71.3819 171.265 82.8595C143.796 93.8604 160.858 140.107 153.234 168.725C148.547 186.315 143.864 203.599 134.881 219.427C121.873 242.347 92.708 256.325 88.7266 282.384C84.8689 307.632 91.8357 341.611 114.388 353.553C140.97 367.629 174.671 332.216 202.822 342.801C227.236 351.982 227.225 417.856 249.564 404.384C280.868 385.504 239.938 308.403 275.283 299.1C321.068 287.049 353.939 379.222 399.105 365.023C431.354 354.885 355.366 304.518 362.948 271.541C370.552 238.468 456.769 230.052 436.368 202.947C410.319 168.339 345.023 221.603 308.207 198.813C286.647 185.467 324.719 142.926 308.247 123.638Z" stroke="#6260FF" stroke-width="1.28384"/>
<path d="M309.251 120.941C296.008 105.435 268.782 133.411 249.249 127.596C218.997 118.591 198.495 67.5114 169.192 79.2469C141.106 90.4949 158.551 137.78 150.756 167.041C145.964 185.026 141.176 202.699 131.991 218.883C118.69 242.318 88.8708 256.609 84.7999 283.253C80.8557 309.068 87.9789 343.811 111.038 356.021C138.217 370.414 172.675 334.205 201.458 345.028C226.42 354.415 226.409 421.769 249.249 407.994C281.257 388.69 239.408 309.857 275.546 300.345C322.36 288.023 355.969 382.267 402.15 367.749C435.123 357.383 357.428 305.885 365.18 272.167C372.955 238.351 461.109 229.745 440.249 202.032C413.615 166.647 346.852 221.107 309.21 197.805C287.166 184.16 326.093 140.662 309.251 120.941Z" stroke="#6260FF" stroke-width="1.28384"/>
<path d="M310.254 118.245C296.72 102.398 268.897 130.989 248.935 125.046C218.018 115.842 197.066 63.641 167.119 75.6343C138.416 87.1294 156.244 135.453 148.278 165.358C143.381 183.737 138.487 201.799 129.101 218.338C115.508 242.288 85.0333 256.894 80.873 284.123C76.8422 310.505 84.1219 346.011 107.687 358.489C135.463 373.198 170.678 336.193 200.094 347.255C225.604 356.848 225.592 425.682 248.935 411.604C281.645 391.876 238.877 311.311 275.81 301.59C323.651 288.997 357.999 385.311 405.194 370.475C438.891 359.881 359.49 307.251 367.412 272.793C375.358 238.234 465.448 229.439 444.13 201.117C416.911 164.954 348.682 220.611 310.212 196.798C287.684 182.852 327.466 138.399 310.254 118.245Z" stroke="#6260FF" stroke-width="1.28384"/>
<path d="M311.258 115.548C297.433 99.3603 269.012 128.566 248.62 122.496C217.039 113.094 195.637 59.7705 165.046 72.0217C135.726 83.7639 153.938 133.127 145.8 163.674C140.798 182.449 135.799 200.898 126.211 217.793C112.326 242.258 81.1961 257.178 76.9464 284.992C72.8289 311.942 80.2651 348.211 104.337 360.958C132.71 375.982 168.682 338.182 198.73 349.482C224.788 359.281 224.776 429.594 248.62 415.214C282.034 395.062 238.346 312.765 276.073 302.835C324.943 289.972 360.028 388.356 408.238 373.2C442.66 362.379 361.552 308.618 369.645 273.419C377.761 238.117 469.787 229.133 448.012 200.202C420.207 163.262 350.511 220.115 311.215 195.79C288.203 181.545 328.84 136.136 311.258 115.548Z" stroke="#6260FF" stroke-width="1.28384"/>
<path d="M312.26 112.852C298.144 96.3232 269.125 126.144 248.305 119.946C216.059 110.346 194.206 55.9002 162.971 68.4092C133.035 80.3986 151.63 130.8 143.32 161.99C138.213 181.16 133.109 199.998 123.319 217.248C109.142 242.228 77.3575 257.462 73.0183 285.862C68.8141 313.378 76.4068 350.411 100.985 363.426C129.955 378.767 166.684 340.171 197.364 351.708C223.971 361.714 223.959 433.507 248.305 418.824C282.422 398.248 237.814 314.219 276.335 304.08C326.233 290.946 362.057 391.401 411.281 375.926C446.427 364.877 363.612 309.985 371.875 274.045C380.162 238 474.125 228.827 451.891 199.288C423.502 161.569 352.34 219.62 312.216 194.782C288.72 180.237 330.212 133.872 312.26 112.852Z" stroke="#6260FF" stroke-width="1.28384"/>
<path d="M313.262 110.155C298.856 93.2859 269.238 123.721 247.989 117.395C215.079 107.598 192.776 52.0298 160.897 64.7966C130.344 77.0331 149.322 128.474 140.841 160.307C135.629 179.872 130.42 199.098 120.428 216.704C105.959 242.198 73.519 257.746 69.0905 286.731C64.7996 314.815 72.5488 352.611 97.6336 365.894C127.201 381.551 164.686 342.16 195.999 353.935C223.154 364.147 223.142 437.42 247.989 422.434C282.809 401.434 237.283 315.673 276.597 305.325C327.523 291.92 364.086 394.446 414.324 378.652C450.194 367.376 365.673 311.352 374.106 274.671C382.564 237.883 478.463 228.521 455.771 198.373C426.797 159.877 354.168 219.124 313.218 193.774C289.237 178.929 331.585 131.609 313.262 110.155Z" stroke="#6260FF" stroke-width="1.28384"/>
<path d="M314.265 107.458C299.567 90.2487 269.352 121.298 247.673 114.845C214.099 104.85 191.345 48.1593 158.823 61.184C127.652 73.6676 147.014 126.147 138.362 158.623C133.045 178.583 127.73 198.198 117.536 216.159C102.775 242.168 69.6804 258.03 65.1624 287.601C60.7849 316.252 68.6905 354.811 94.2819 368.362C124.446 384.336 162.688 344.149 194.633 356.162C222.337 366.58 222.324 441.333 247.673 426.044C283.196 404.62 236.751 317.127 276.859 306.57C328.814 292.895 366.114 397.491 417.367 381.378C453.962 369.874 367.734 312.718 376.337 275.296C384.966 237.766 482.801 228.215 459.651 197.458C430.091 158.185 355.996 218.628 314.219 192.766C289.754 177.622 332.957 129.346 314.265 107.458Z" stroke="#6260FF" stroke-width="1.28384"/>
<path d="M315.268 104.762C300.28 87.212 269.466 118.876 247.359 112.295C213.12 102.102 189.916 44.2895 156.75 57.572C124.963 70.3027 144.707 123.821 135.884 156.94C130.461 177.295 125.042 197.298 114.646 215.615C99.5929 242.139 65.8431 258.315 61.2357 288.471C56.7716 317.689 64.8337 357.011 90.9316 370.831C121.693 387.121 160.692 346.139 193.269 358.389C221.521 369.013 221.508 445.246 247.359 429.655C283.585 407.806 236.22 318.582 277.122 307.816C330.105 293.87 368.144 400.536 420.411 384.105C457.73 372.372 369.796 314.086 378.569 275.923C387.369 237.649 487.141 227.91 463.532 196.543C433.388 156.493 357.826 218.132 315.222 191.759C290.273 176.315 334.33 127.083 315.268 104.762Z" stroke="#6260FF" stroke-width="1.28384"/>
<path d="M316.269 102.066C300.99 84.1748 269.578 116.454 247.042 109.745C212.138 99.3539 188.484 40.419 154.675 53.9594C122.27 66.9372 142.398 121.495 133.404 155.256C127.876 176.006 122.351 196.398 111.754 215.07C96.4081 242.109 62.0032 258.599 57.3064 289.34C52.7557 319.126 60.9742 359.211 87.5786 373.299C118.937 389.905 158.693 348.128 191.902 360.616C220.703 371.446 220.689 449.159 247.042 433.265C283.971 410.992 235.687 320.036 277.383 309.061C331.394 294.844 370.171 403.581 423.453 386.83C461.496 374.871 371.855 315.452 380.799 276.549C389.769 237.532 491.478 227.603 467.411 195.628C436.681 154.8 359.653 217.637 316.222 190.751C290.789 175.007 335.701 124.82 316.269 102.066Z" stroke="#6260FF" stroke-width="1.28384"/>
<path d="M317.273 99.3693C301.703 81.1375 269.693 114.031 246.728 107.194C211.16 96.6057 187.055 36.5486 152.602 50.3468C119.58 63.5717 140.091 119.168 130.926 153.572C125.293 174.718 119.663 195.497 108.864 214.525C93.2259 242.079 58.166 258.883 53.3798 290.21C48.7424 320.562 57.1174 361.411 84.2283 375.768C116.184 392.69 156.697 350.116 190.538 362.843C219.887 373.879 219.873 453.072 246.728 436.875C284.36 414.178 235.157 321.49 277.646 310.306C332.686 295.818 372.201 406.626 426.497 389.556C465.265 377.369 373.917 316.819 383.031 277.175C392.172 237.415 495.817 227.297 471.292 194.713C439.977 153.108 361.483 217.141 317.225 189.743C291.307 173.699 337.075 122.557 317.273 99.3693Z" stroke="#6260FF" stroke-width="1.28384"/>
<path d="M318.276 96.6728C302.416 78.1004 269.808 111.609 246.413 104.644C210.18 93.8576 185.625 32.6783 150.529 46.7343C116.89 60.2064 137.785 116.841 128.448 151.889C122.709 173.429 116.974 194.597 105.973 213.981C90.0435 242.049 54.3286 259.167 49.4529 291.08C44.7289 321.999 53.2604 363.611 80.8778 378.236C113.43 395.474 154.7 352.105 189.174 365.069C219.071 376.312 219.057 456.984 246.413 440.485C284.749 417.364 234.626 322.944 277.909 311.551C333.977 296.793 374.231 409.671 429.541 392.282C469.033 379.867 375.979 318.186 385.263 277.801C394.575 237.298 500.156 226.991 475.173 193.799C443.273 151.416 363.312 216.645 318.227 188.736C291.826 172.392 338.448 120.293 318.276 96.6728Z" stroke="#6260FF" stroke-width="1.28384"/>
<path d="M319.279 93.9756C303.127 75.0625 269.921 109.185 246.098 102.093C209.2 91.1088 184.195 28.8072 148.455 43.1211C114.199 56.8403 135.477 114.514 125.969 150.204C120.125 172.14 114.285 193.696 103.082 213.435C86.86 242.019 50.4901 259.451 45.525 291.948C40.7144 323.435 49.4023 365.81 77.5263 380.704C110.676 398.258 152.702 354.094 187.809 367.295C218.254 378.744 218.24 460.896 246.098 444.095C285.136 420.55 234.094 324.397 278.171 312.795C335.268 297.766 376.26 412.715 432.585 395.008C472.8 382.364 378.039 319.552 387.494 278.426C396.977 237.181 504.494 226.685 479.053 192.883C446.568 149.723 365.14 216.148 319.229 187.727C292.343 171.084 339.821 118.03 319.279 93.9756Z" stroke="#6260FF" stroke-width="1.28384"/>
<path d="M320.282 91.2797C303.84 72.0259 270.036 106.763 245.783 99.5434C208.221 88.3612 182.766 24.9374 146.381 39.5091C111.509 53.4754 133.17 112.188 123.491 148.521C117.542 170.852 111.596 192.796 100.192 212.891C83.6776 241.99 46.6527 259.735 41.5982 292.818C36.7009 324.872 45.5453 368.011 74.1757 383.173C107.922 401.043 150.706 356.083 186.444 369.523C217.438 381.178 217.424 464.81 245.783 447.705C285.525 423.736 233.563 325.852 278.435 314.041C336.559 298.741 378.289 415.761 435.629 397.734C476.569 384.863 380.101 320.919 389.726 279.053C399.38 237.064 508.834 226.379 482.934 191.969C449.864 148.031 366.97 215.653 320.232 186.72C292.861 169.777 341.194 115.767 320.282 91.2797Z" stroke="#6260FF" stroke-width="1.28384"/>
<path d="M321.284 88.5831C304.55 68.9886 270.148 104.341 245.466 96.993C207.24 85.613 181.334 21.0669 144.306 35.8965C108.817 50.1099 130.861 109.862 121.01 146.837C114.956 169.564 108.905 191.896 97.2994 212.346C80.493 241.96 42.813 260.02 37.6691 293.688C32.6852 326.309 41.6861 370.211 70.823 385.641C105.166 403.828 148.707 358.072 185.078 371.749C216.62 383.611 216.605 468.722 245.466 451.316C285.911 426.922 233.03 327.306 278.695 315.286C337.848 299.715 380.317 418.805 438.671 400.46C480.335 387.361 382.161 322.286 391.956 279.679C401.78 236.947 513.171 226.073 486.813 191.054C453.158 146.338 368.797 215.157 321.232 185.712C293.378 168.469 342.566 113.504 321.284 88.5831Z" stroke="#6260FF" stroke-width="1.28384"/>
<path d="M322.287 85.8867C305.263 65.9515 270.263 101.918 245.152 94.4428C206.261 82.8649 179.904 17.1966 142.233 32.284C106.127 46.7445 128.554 107.535 118.532 145.154C112.373 168.275 106.217 190.996 94.4091 211.802C77.3106 241.93 38.9756 260.304 33.7422 294.558C28.6716 327.746 37.829 372.411 67.4725 388.109C102.413 406.612 146.71 360.061 183.713 373.976C215.804 386.044 215.789 472.635 245.152 454.926C286.3 430.108 232.5 328.76 278.958 316.531C339.14 300.69 382.346 421.85 441.715 403.186C484.103 389.86 384.222 323.653 394.188 280.305C404.183 236.83 517.51 225.767 490.694 190.139C456.454 144.646 370.626 214.661 322.234 184.704C293.896 167.161 343.939 111.24 322.287 85.8867Z" stroke="#6260FF" stroke-width="1.28384"/>
<path d="M323.291 83.1901C305.975 62.9142 270.377 99.4958 244.837 91.8925C205.282 80.1167 178.475 13.3262 140.16 28.6714C103.437 43.379 126.247 105.208 116.055 143.47C109.79 166.987 103.529 190.096 91.5191 211.257C74.1284 241.9 35.1384 260.588 29.8156 295.427C24.6584 329.182 33.9722 374.611 64.1222 390.577C99.6596 409.397 144.714 362.05 182.349 376.203C214.988 388.477 214.973 476.548 244.837 458.536C286.688 433.294 231.969 330.214 279.222 317.776C340.432 301.664 384.376 424.895 444.759 405.912C487.872 392.358 386.284 325.02 396.42 280.931C406.586 236.713 521.849 225.461 494.575 189.224C459.75 142.954 372.456 214.166 323.237 183.697C294.414 165.854 345.313 108.977 323.291 83.1901Z" stroke="#6260FF" stroke-width="1.28384"/>
<path d="M324.291 80.4935C306.684 59.877 270.488 97.0732 244.519 89.3421C204.299 77.3685 177.042 9.45572 138.083 25.0588C100.743 40.0135 123.937 102.882 113.573 141.786C107.203 165.698 100.836 189.195 88.6252 210.712C70.9423 241.87 31.2973 260.872 25.885 296.297C20.6412 330.619 30.1115 376.811 60.768 393.045C96.9025 412.181 142.714 364.039 180.981 378.43C214.168 390.91 214.153 480.461 244.519 462.146C287.073 436.48 231.435 331.668 279.481 319.021C341.719 302.638 386.402 427.94 447.8 408.638C491.637 394.856 388.343 326.386 398.649 281.556C408.985 236.596 526.185 225.155 498.453 188.309C463.042 141.261 374.282 213.67 324.236 182.689C294.929 164.546 346.682 106.714 324.291 80.4935Z" stroke="#6260FF" stroke-width="1.28384"/>
<path d="M325.294 77.7969C307.397 56.8397 270.603 94.6506 244.205 86.7918C203.321 74.6202 175.613 5.58528 136.011 21.4461C98.0534 36.6481 121.63 100.555 111.095 140.103C104.62 164.409 98.1481 188.295 85.7352 210.167C67.7601 241.84 27.46 261.156 21.9584 297.166C16.6279 332.056 26.2547 379.011 57.4177 395.514C94.1492 414.965 140.717 366.028 179.617 380.656C213.352 393.343 213.337 484.373 244.205 465.756C287.462 439.666 230.904 333.122 279.745 320.266C343.011 303.613 388.432 430.985 450.844 411.364C495.405 397.354 390.404 327.753 400.881 282.182C411.388 236.479 530.524 224.849 502.334 187.394C466.338 139.569 376.112 213.174 325.239 181.681C295.448 163.239 348.056 104.451 325.294 77.7969Z" stroke="#6260FF" stroke-width="1.28384"/>
<path d="M326.298 75.1005C308.11 53.8026 270.718 92.2281 243.89 84.2415C202.342 71.8722 174.184 1.71496 133.937 17.8337C95.3634 33.2827 119.324 98.2287 108.617 138.419C102.036 163.121 95.4596 187.395 82.8449 209.623C64.5777 241.811 23.6226 261.44 18.0315 298.036C12.6144 333.492 22.3977 381.211 54.0672 397.982C91.3957 417.75 138.721 368.017 178.253 382.883C212.536 395.776 212.521 488.286 243.89 469.366C287.851 442.852 230.374 334.576 280.008 321.511C344.302 304.587 390.462 434.03 453.888 414.09C499.174 399.852 392.466 329.12 403.113 282.808C413.791 236.362 534.863 224.543 506.215 186.479C469.634 137.877 377.941 212.678 326.241 180.673C295.966 161.931 349.429 102.187 326.298 75.1005Z" stroke="#6260FF" stroke-width="1.28384"/>
<path d="M327.3 72.4039C308.821 50.7654 270.831 89.8055 243.575 81.6912C201.361 69.1239 172.753 -2.15549 131.863 14.221C92.6724 29.9172 117.016 95.9021 106.138 136.735C99.452 161.832 92.7701 186.494 79.9537 209.078C61.3943 241.781 19.7842 261.724 14.1037 298.905C8.5999 334.929 18.5396 383.411 50.7157 400.45C88.6412 420.534 136.723 370.006 176.887 385.11C211.719 398.209 211.703 492.199 243.575 472.976C288.238 446.038 229.842 336.03 280.27 322.756C345.593 305.561 392.491 437.075 456.931 416.815C502.941 402.35 394.527 330.487 405.344 283.434C416.193 236.245 539.202 224.237 510.095 185.564C472.929 136.184 379.769 212.182 327.243 179.665C296.483 160.623 350.802 99.9241 327.3 72.4039Z" stroke="#6260FF" stroke-width="1.28384"/>
<path d="M328.302 69.7073C309.533 47.7281 270.944 87.3829 243.259 79.1408C200.381 66.3757 171.323 -6.02593 129.789 10.6084C89.9811 26.5517 114.708 93.5755 103.659 135.051C96.8675 160.544 90.0804 185.594 77.0622 208.533C58.2106 241.751 15.9455 262.009 10.1756 299.775C4.58516 336.366 14.6814 385.611 47.3639 402.918C85.8865 423.319 134.725 371.995 175.522 387.337C210.902 400.642 210.886 496.112 243.259 476.586C288.626 449.224 229.31 337.484 280.532 324.001C346.883 306.536 394.519 440.12 459.974 419.541C506.708 404.849 396.588 331.853 407.575 284.06C418.594 236.128 543.54 223.931 513.975 184.649C476.224 134.492 381.598 211.686 328.244 178.658C297.001 159.316 352.174 97.6608 328.302 69.7073Z" stroke="#6260FF" stroke-width="1.28384"/>
<path d="M329.305 67.0108C310.244 44.6908 271.058 84.9603 242.943 76.5904C199.401 63.6275 169.892 -9.89638 127.715 6.99582C87.2898 23.1862 112.4 91.2489 101.179 133.368C94.2829 159.255 87.3907 184.694 74.1707 207.988C55.0269 241.721 12.1068 262.293 6.24748 300.644C0.570425 337.802 10.8231 387.811 44.0121 405.387C83.1317 426.103 132.728 373.984 174.156 389.563C210.085 403.074 210.069 500.024 242.943 480.196C289.013 452.41 228.778 338.938 280.794 325.246C348.173 307.51 396.548 443.164 463.017 422.267C510.476 407.347 398.648 333.22 409.806 284.686C420.996 236.011 547.878 223.625 517.854 183.734C479.519 132.799 383.426 211.19 329.246 177.65C297.518 158.008 353.546 95.3975 329.305 67.0108Z" stroke="#6260FF" stroke-width="1.28384"/>
</svg>
