<svg width="511" height="387" viewBox="0 0 511 387" fill="none" xmlns="http://www.w3.org/2000/svg">
<path fill-rule="evenodd" clip-rule="evenodd" d="M253.192 164.433C256.699 167.467 260.178 173.442 264.61 172.1C280.88 167.175 293.09 140.986 308.748 147.617C321.051 152.827 290.103 171.714 293.991 184.543C297.771 197.014 326.057 192.541 326.314 205.575C326.551 217.602 306.091 218.135 294.728 221.941C287.421 224.388 278.379 219.527 271.948 223.784C265.951 227.753 268.495 238.747 262.767 243.098C257.423 247.157 249.588 247.242 243.06 245.726C236.547 244.214 229.329 240.792 226.547 234.687C223.444 227.877 233.282 217.716 227.923 212.508C219.682 204.5 203.679 211.494 194.97 204.002C187.302 197.406 183.489 185.636 185.038 175.616C186.55 165.841 195.378 158.75 202.948 152.422C210.079 146.462 218.547 137.907 227.572 140.064C239.141 142.83 244.181 156.639 253.192 164.433Z" stroke="#6260FF" stroke-width="1.28384"/>
<path fill-rule="evenodd" clip-rule="evenodd" d="M247.176 89.7743C259.796 100.688 272.312 122.181 288.258 117.355C346.8 99.6379 390.731 5.42458 447.07 29.2786C491.336 48.0209 379.984 115.966 393.973 162.114C407.573 206.978 509.349 190.89 510.273 237.776C511.126 281.045 437.508 282.959 396.624 296.65C370.335 305.454 337.8 287.966 314.662 303.28C293.086 317.561 302.238 357.111 281.628 372.764C262.402 387.365 234.209 387.67 210.723 382.217C187.288 376.776 161.319 364.468 151.309 342.506C140.143 318.008 175.54 281.453 156.258 262.718C126.608 233.911 69.0261 259.069 37.6925 232.118C10.1033 208.388 -3.61803 166.048 1.95833 130.003C7.39841 94.8392 39.1598 69.3269 66.399 46.5627C92.0544 25.1222 122.524 -5.65293 154.995 2.10868C196.62 12.0584 214.754 61.7361 247.176 89.7743Z" stroke="#6260FF" stroke-width="1.28384"/>
<path d="M265.072 171.027C260.414 172.436 256.759 166.158 253.073 162.969C243.603 154.778 238.306 140.266 226.147 137.359C216.663 135.092 207.763 144.082 200.27 150.346C192.314 156.996 183.037 164.449 181.448 174.722C179.819 185.252 183.827 197.621 191.885 204.553C201.037 212.426 217.856 205.077 226.516 213.492C232.149 218.965 221.81 229.644 225.071 236.801C227.995 243.217 235.58 246.813 242.425 248.402C249.285 249.995 257.52 249.906 263.135 245.641C269.156 241.068 266.482 229.514 272.784 225.342C279.543 220.868 289.046 225.977 296.724 223.405C308.666 219.406 330.169 218.846 329.92 206.206C329.65 192.509 299.922 197.209 295.95 184.102C291.864 170.621 324.389 150.772 311.459 145.296C295.003 138.328 282.171 165.851 265.072 171.027Z" stroke="#6260FF" stroke-width="1.28384"/>
<path d="M265.536 169.953C260.652 171.432 256.819 164.848 252.955 161.506C243.026 152.918 237.472 137.702 224.725 134.654C214.78 132.277 205.449 141.703 197.593 148.27C189.251 155.243 179.524 163.057 177.858 173.827C176.15 184.868 180.352 197.836 188.801 205.105C198.397 213.359 216.031 205.654 225.111 214.477C231.016 220.215 220.176 231.412 223.596 238.915C226.661 245.642 234.614 249.412 241.791 251.079C248.984 252.749 257.618 252.655 263.505 248.183C269.817 243.389 267.014 231.275 273.622 226.901C280.708 222.21 290.672 227.567 298.722 224.87C311.243 220.677 333.788 220.09 333.527 206.838C333.244 192.477 302.075 197.404 297.911 183.663C293.626 169.528 327.728 148.717 314.171 142.976C296.918 135.67 283.464 164.527 265.536 169.953Z" stroke="#6260FF" stroke-width="1.28384"/>
<path d="M266.001 168.879C260.891 170.426 256.881 163.538 252.838 160.041C242.45 151.056 236.639 135.137 223.302 131.948C212.898 129.461 203.136 139.323 194.916 146.194C186.188 153.489 176.012 161.664 174.269 172.932C172.482 184.483 176.879 198.051 185.718 205.655C195.758 214.291 214.207 206.23 223.707 215.461C229.885 221.464 218.544 233.178 222.121 241.029C225.329 248.067 233.649 252.011 241.158 253.754C248.683 255.502 257.716 255.404 263.876 250.725C270.48 245.709 267.547 233.035 274.46 228.459C281.874 223.552 292.298 229.155 300.721 226.334C313.821 221.947 337.408 221.334 337.135 207.468C336.839 192.443 304.229 197.599 299.872 183.222C295.39 168.434 331.067 146.661 316.884 140.655C298.833 133.011 284.757 163.202 266.001 168.879Z" stroke="#6260FF" stroke-width="1.28384"/>
<path d="M266.462 167.806C261.127 169.421 256.94 162.229 252.718 158.577C241.871 149.195 235.804 132.573 221.877 129.244C211.014 126.647 200.82 136.944 192.237 144.118C183.124 151.735 172.497 160.272 170.677 172.038C168.812 184.099 173.402 198.266 182.633 206.207C193.116 215.224 212.38 206.806 222.3 216.446C228.751 222.714 216.909 234.946 220.644 243.143C223.993 250.492 232.682 254.61 240.522 256.431C248.38 258.255 257.812 258.153 264.244 253.268C271.14 248.03 268.078 234.796 275.296 230.018C283.037 224.894 293.922 230.745 302.717 227.8C316.396 223.218 341.025 222.578 340.74 208.1C340.431 192.411 306.381 197.794 301.831 182.783C297.15 167.341 334.405 144.606 319.595 138.335C300.746 130.353 286.048 161.878 266.462 167.806Z" stroke="#6260FF" stroke-width="1.28384"/>
<path d="M266.927 166.732C261.366 168.415 257.001 160.919 252.601 157.113C241.295 147.334 234.971 130.009 220.455 126.538C209.132 123.831 198.507 134.565 189.56 142.042C180.061 149.982 168.985 158.88 167.088 171.143C165.144 183.715 169.929 198.481 179.549 206.758C190.476 216.157 210.556 207.383 220.896 217.43C227.62 223.964 215.276 236.713 219.17 245.257C222.66 252.917 231.716 257.209 239.889 259.107C248.079 261.009 257.91 260.902 264.615 255.81C271.802 250.351 268.61 236.557 276.134 231.576C284.203 226.235 295.549 232.334 304.716 229.264C318.973 224.489 344.645 223.821 344.348 208.731C344.026 192.379 308.534 197.99 303.792 182.343C298.913 166.248 337.744 142.551 322.308 136.014C302.661 127.695 287.342 160.553 266.927 166.732Z" stroke="#6260FF" stroke-width="1.28384"/>
<path d="M267.393 165.658C261.607 167.41 257.065 159.61 252.485 155.649C240.72 145.473 234.14 127.444 219.035 123.833C207.252 121.016 196.195 132.185 186.885 139.966C177.001 148.228 165.475 157.487 163.501 170.249C161.478 183.33 166.457 198.697 176.468 207.309C187.839 217.09 208.734 207.959 219.493 218.414C226.49 225.213 213.645 238.48 217.697 247.371C221.33 255.341 230.753 259.808 239.257 261.783C247.78 263.762 258.01 263.651 264.987 258.352C272.466 252.671 269.145 238.318 276.975 233.135C285.371 227.577 297.177 233.924 306.717 230.729C321.553 225.76 348.267 225.065 347.958 209.362C347.622 192.346 310.69 198.185 305.755 181.903C300.678 165.154 341.086 140.496 325.023 133.694C304.578 125.037 288.637 159.229 267.393 165.658Z" stroke="#6260FF" stroke-width="1.28384"/>
<path d="M267.855 164.587C261.843 166.407 257.124 158.302 252.365 154.187C240.141 143.615 233.304 124.882 217.61 121.13C205.367 118.204 193.879 129.808 184.206 137.893C173.936 146.477 161.96 156.097 159.909 169.357C157.807 182.948 162.98 198.914 173.382 207.862C185.196 218.025 206.907 208.538 218.086 219.401C225.356 226.465 212.01 240.249 216.22 249.487C219.994 257.769 229.785 262.409 238.621 264.461C247.476 266.517 258.106 266.402 265.355 260.897C273.126 254.994 269.675 240.081 277.81 234.696C286.534 228.921 298.801 235.515 308.713 232.196C324.128 227.033 351.884 226.311 351.563 209.996C351.214 192.316 312.841 198.382 307.713 181.465C302.439 164.063 344.423 138.443 327.733 131.375C306.491 122.381 289.927 157.906 267.855 164.587Z" stroke="#6260FF" stroke-width="1.28384"/>
<path d="M268.319 163.514C262.081 165.402 257.184 156.993 252.248 152.723C239.565 141.754 232.47 122.318 216.187 118.425C203.484 115.389 191.565 127.429 181.529 135.817C170.873 144.724 158.448 154.705 156.32 168.462C154.138 182.564 159.506 199.13 170.299 208.414C182.556 218.958 205.082 209.115 216.681 220.385C224.224 227.715 210.377 242.017 214.745 251.601C218.661 260.194 228.82 265.009 237.988 267.138C247.175 269.271 258.204 269.152 265.725 263.439C273.788 257.315 270.207 241.842 278.648 236.255C287.699 230.263 300.427 237.105 310.711 233.661C326.705 228.305 355.503 227.555 355.17 210.627C354.809 192.284 314.994 198.578 309.674 181.026C304.201 162.971 347.762 136.388 330.445 129.055C308.406 119.723 291.22 156.582 268.319 163.514Z" stroke="#6260FF" stroke-width="1.28384"/>
<path d="M268.783 162.44C262.319 164.397 257.246 155.684 252.13 151.259C238.988 139.893 231.637 119.754 214.764 115.72C201.602 112.574 189.251 125.05 178.852 133.742C167.81 142.97 154.936 153.313 152.731 167.568C150.47 182.18 156.032 199.345 167.216 208.965C179.917 219.89 203.258 209.691 215.276 221.37C223.093 228.964 208.744 243.784 213.27 253.715C217.328 262.619 227.855 267.608 237.354 269.814C246.874 272.024 258.302 271.901 266.096 265.981C274.45 259.636 270.74 243.603 279.486 237.813C288.865 231.605 302.053 238.694 312.71 235.126C329.282 229.575 359.123 228.799 358.778 211.258C358.403 192.251 317.148 198.773 311.635 180.586C305.965 161.877 351.102 134.333 333.158 126.735C310.321 117.064 292.513 155.258 268.783 162.44Z" stroke="#6260FF" stroke-width="1.28384"/>
<path d="M269.245 161.367C262.556 163.391 257.305 154.374 252.011 149.795C238.41 138.032 230.802 117.189 213.34 113.015C199.718 109.758 186.935 122.67 176.173 131.666C164.746 141.216 151.421 151.92 149.139 166.673C146.8 181.796 152.556 199.56 164.13 209.516C177.275 220.823 201.431 210.268 213.87 222.354C221.959 230.214 207.109 245.551 211.793 255.829C215.993 265.043 226.887 270.207 236.718 272.49C246.571 274.778 258.398 274.65 266.464 268.524C275.11 261.956 271.271 245.363 280.322 239.372C290.028 232.947 303.677 240.284 314.706 236.59C331.857 230.846 362.741 230.043 362.383 211.89C361.995 192.218 319.299 198.968 313.594 180.145C307.725 160.784 354.439 132.277 335.869 124.414C312.234 114.406 293.804 153.933 269.245 161.367Z" stroke="#6260FF" stroke-width="1.28384"/>
<path d="M269.71 160.293C262.794 162.386 257.366 153.064 251.894 148.331C237.833 136.17 229.969 114.625 211.917 110.31C197.836 106.943 184.622 120.291 173.496 129.59C161.683 139.463 147.909 150.528 145.55 165.778C143.132 181.411 149.082 199.775 161.047 210.067C174.635 221.755 199.607 210.844 212.465 223.338C220.827 231.463 205.477 247.318 210.319 257.943C214.66 267.468 225.922 272.806 236.085 275.166C246.27 277.531 258.497 277.398 266.834 271.066C275.772 264.277 271.803 247.124 281.16 240.93C291.194 234.288 305.304 241.873 316.705 238.055C334.435 232.117 366.361 231.286 365.991 212.521C365.59 192.186 321.453 199.163 315.555 179.705C309.488 159.69 357.778 130.222 338.582 122.093C314.149 111.748 295.097 152.609 269.71 160.293Z" stroke="#6260FF" stroke-width="1.28384"/>
<path d="M270.173 159.22C263.032 161.381 257.427 151.755 251.776 146.867C237.256 134.31 229.135 112.061 210.494 107.605C195.953 104.129 182.308 117.912 170.819 127.514C158.62 137.709 144.396 149.136 141.96 164.884C139.463 181.028 145.608 199.99 157.963 210.618C171.995 222.688 197.782 211.421 211.06 224.323C219.695 232.713 203.843 249.085 208.843 260.057C213.326 269.893 224.956 275.405 235.451 277.842C245.969 280.284 258.594 280.148 267.204 273.608C276.434 266.598 272.335 248.885 281.998 242.489C292.359 235.63 306.93 243.463 318.703 239.52C337.012 233.388 369.98 232.531 369.598 213.152C369.184 192.153 323.606 199.359 317.515 179.266C311.251 158.597 361.117 128.167 341.294 119.773C316.063 109.09 296.39 151.285 270.173 159.22Z" stroke="#6260FF" stroke-width="1.28384"/>
<path d="M270.638 158.145C263.271 160.375 257.489 150.445 251.659 145.403C236.68 132.448 228.302 109.496 209.072 104.899C194.071 101.313 179.994 115.532 168.142 125.438C155.558 135.955 140.885 147.743 138.371 163.989C135.795 180.643 142.134 200.205 154.88 211.169C169.356 223.62 195.958 211.997 209.656 225.307C218.564 233.962 202.211 250.852 207.369 262.17C211.994 272.317 223.991 278.004 234.818 280.518C245.668 283.037 258.693 282.896 267.575 276.15C277.097 268.918 272.868 250.645 282.836 244.047C293.525 236.972 308.556 245.051 320.701 240.984C339.59 234.658 373.6 233.774 373.206 213.783C372.779 192.12 325.76 199.553 319.477 178.825C313.014 157.504 364.457 126.112 344.007 117.452C317.979 106.431 297.683 149.96 270.638 158.145Z" stroke="#6260FF" stroke-width="1.28384"/>
<path d="M271.102 157.072C263.51 159.37 257.55 149.136 251.541 143.939C236.104 130.588 227.469 106.932 207.65 102.194C192.189 98.4983 177.681 113.153 165.465 123.362C152.496 134.202 137.372 146.351 134.782 163.095C132.127 180.259 138.66 200.42 151.797 211.72C166.716 224.553 194.133 212.574 208.251 226.291C217.432 235.212 200.578 252.619 205.895 264.285C210.661 274.743 223.026 280.603 234.185 283.194C245.367 285.791 258.791 285.646 267.945 278.693C277.759 271.239 273.401 252.406 283.674 245.606C294.691 238.314 310.183 246.641 322.7 242.449C342.167 235.93 377.22 235.018 376.814 214.415C376.374 192.088 327.913 199.749 321.438 178.386C314.777 156.411 367.797 124.057 346.72 115.132C319.894 103.773 298.977 148.636 271.102 157.072Z" stroke="#6260FF" stroke-width="1.28384"/>
<path d="M271.566 155.998C263.748 158.365 257.611 147.826 251.423 142.475C235.527 128.726 226.635 104.368 206.227 99.4889C190.306 95.6831 175.367 110.773 162.788 121.286C149.432 132.449 133.86 144.958 131.192 162.2C128.458 179.874 135.186 200.636 148.713 212.271C164.076 225.486 192.308 213.15 206.846 227.276C216.3 236.462 198.945 254.386 204.419 266.398C209.327 277.167 222.06 283.202 233.55 285.87C245.066 288.544 258.889 288.395 268.315 281.235C278.421 273.56 273.933 254.167 284.512 247.165C295.856 239.656 311.809 248.23 324.698 243.914C344.744 237.201 380.839 236.262 380.421 215.046C379.968 192.055 330.066 199.944 323.398 177.946C316.539 155.317 371.136 122.001 349.432 112.811C321.809 101.115 300.269 147.311 271.566 155.998Z" stroke="#6260FF" stroke-width="1.28384"/>
<path d="M272.029 154.925C263.985 157.359 257.671 146.516 251.304 141.01C234.949 126.865 225.801 101.803 204.802 96.7836C188.422 92.8679 173.052 108.394 160.109 119.21C146.368 130.695 130.346 143.566 127.602 161.306C124.789 179.49 131.71 200.851 145.628 212.822C161.435 226.419 190.482 213.727 205.44 228.26C215.167 237.711 197.31 256.153 202.943 268.512C207.993 279.592 221.093 285.801 232.915 288.546C244.763 291.297 258.985 291.143 268.684 283.777C279.081 275.88 274.464 255.928 285.348 248.723C297.021 240.997 313.433 249.82 326.695 245.378C347.32 238.471 384.457 237.505 384.027 215.677C383.561 192.023 332.218 200.139 325.358 177.506C318.301 154.224 374.474 119.946 352.143 110.491C323.722 98.4565 301.561 145.987 272.029 154.925Z" stroke="#6260FF" stroke-width="1.28384"/>
<path d="M272.493 153.851C264.222 156.354 257.731 145.207 251.186 139.546C234.372 125.004 224.967 99.2388 203.379 94.0783C186.539 90.0527 170.737 106.014 157.432 117.134C143.305 128.941 126.833 142.173 124.012 160.411C121.12 179.106 128.236 201.066 142.544 213.373C158.794 227.351 188.657 214.303 204.034 229.244C214.035 238.961 195.677 257.92 201.468 270.626C206.659 282.017 220.127 288.4 232.281 291.222C244.462 294.05 259.083 293.892 269.054 286.319C279.743 278.201 274.996 257.688 286.186 250.282C298.186 242.339 315.059 251.409 328.693 246.843C349.897 239.742 388.076 238.749 387.634 216.308C387.155 191.99 334.371 200.334 327.318 177.066C320.063 153.131 377.813 117.891 354.855 108.17C325.637 95.7981 302.853 144.662 272.493 153.851Z" stroke="#6260FF" stroke-width="1.28384"/>
<path d="M272.957 152.777C264.461 155.348 257.793 143.897 251.069 138.082C233.796 123.143 224.134 96.6742 201.957 91.3729C184.657 87.2374 168.424 103.635 154.755 115.058C140.243 127.187 123.321 140.781 120.423 159.516C117.452 178.721 124.762 201.281 139.461 213.924C156.155 228.284 186.833 214.879 202.63 230.228C212.903 240.21 194.044 259.687 199.993 272.74C205.326 284.442 219.162 290.999 231.648 293.898C244.161 296.804 259.181 296.641 269.424 288.861C280.405 280.521 275.529 259.449 287.024 251.84C299.351 243.68 316.686 252.998 330.692 248.307C352.474 241.013 391.696 239.993 391.241 216.939C390.749 191.957 336.525 200.529 329.279 176.626C321.826 152.037 381.152 115.835 357.568 105.849C327.552 93.1396 304.147 143.337 272.957 152.777Z" stroke="#6260FF" stroke-width="1.28384"/>
<path d="M273.419 151.703C264.697 154.343 257.852 142.587 250.95 136.618C233.217 121.282 223.298 94.1098 200.532 88.6676C182.773 84.4223 166.108 101.255 152.076 112.982C137.178 125.434 119.806 139.388 116.831 158.622C113.781 178.337 121.286 201.496 136.375 214.475C153.513 229.216 185.006 215.456 201.223 231.212C211.769 241.459 192.409 261.454 198.516 274.854C203.991 286.866 218.194 293.598 231.012 296.574C243.858 299.557 259.277 299.39 269.792 291.404C281.065 282.842 276.059 261.21 287.86 253.399C300.515 245.022 318.31 254.587 332.688 249.772C355.049 242.284 395.313 241.236 394.847 217.57C394.341 191.925 338.676 200.724 331.238 176.185C323.587 150.944 384.489 113.78 360.279 103.529C329.465 90.4813 305.437 142.013 273.419 151.703Z" stroke="#6260FF" stroke-width="1.28384"/>
<path d="M273.883 150.633C264.936 153.341 257.913 141.28 250.832 135.157C232.641 119.424 222.465 91.5484 199.11 85.9654C180.891 81.6101 163.794 98.8788 149.399 110.91C134.116 123.683 116.294 137.999 113.242 157.73C110.113 177.956 117.812 201.714 133.292 215.029C150.873 230.152 183.182 216.035 199.819 232.2C210.638 242.712 190.777 263.224 197.042 276.97C202.658 289.294 217.229 296.2 230.379 299.253C243.557 302.313 259.375 302.142 270.163 293.949C281.727 285.166 276.592 262.973 288.698 254.96C301.681 246.367 319.936 256.179 334.687 251.24C357.627 243.557 398.933 242.483 398.454 218.204C397.936 191.895 340.83 200.922 333.199 175.749C325.35 149.853 387.829 111.728 362.992 101.211C331.38 87.826 306.731 140.691 273.883 150.633Z" stroke="#6260FF" stroke-width="1.28384"/>
<path d="M274.347 149.559C265.174 152.335 257.974 139.971 250.715 133.692C232.064 117.563 221.632 88.984 197.687 83.2601C179.008 78.795 161.48 96.4993 146.722 108.834C131.053 121.929 112.782 136.606 109.652 156.835C106.445 177.571 114.338 201.929 130.209 215.58C148.233 231.084 181.357 216.612 198.414 233.184C209.506 243.961 189.144 264.991 195.567 279.084C201.325 291.719 216.264 298.799 229.745 301.929C243.255 305.066 259.473 304.891 270.533 296.491C282.389 287.486 277.124 264.734 289.536 256.519C302.846 247.708 321.562 257.769 336.685 252.704C360.204 244.828 402.552 243.727 402.062 218.835C401.53 191.862 342.983 201.117 335.16 175.308C327.112 148.76 391.168 109.673 365.704 98.8904C333.295 85.1677 308.023 139.367 274.347 149.559Z" stroke="#6260FF" stroke-width="1.28384"/>
<path d="M274.812 148.485C265.413 151.33 258.036 138.661 250.597 132.228C231.488 115.701 220.799 86.4196 196.265 80.5548C177.126 75.9798 159.167 94.1198 144.045 106.758C127.99 120.176 109.27 135.214 106.063 155.941C102.777 177.187 110.864 202.144 127.125 216.131C145.594 232.017 179.533 217.188 197.009 234.168C208.374 245.211 187.511 266.758 194.092 281.198C199.992 294.144 215.299 301.398 229.112 304.605C242.955 307.819 259.572 307.64 270.904 299.033C283.052 289.807 277.657 266.495 290.374 258.077C304.012 249.05 323.189 259.358 338.683 254.169C362.781 246.099 406.172 244.97 405.669 219.466C405.125 191.83 345.137 201.313 337.121 174.868C328.876 147.667 394.508 107.617 368.417 96.5698C335.21 82.5093 309.317 138.042 274.812 148.485Z" stroke="#6260FF" stroke-width="1.28384"/>
<path d="M275.275 147.412C265.651 150.325 258.096 137.351 250.479 130.764C230.911 113.84 219.965 83.8551 194.841 77.8495C175.243 73.1646 156.853 91.7403 141.368 104.682C124.927 118.422 105.757 133.821 102.474 155.046C99.1078 176.803 107.39 202.359 124.042 216.682C142.954 232.949 177.708 217.764 195.604 235.152C207.242 246.46 185.878 268.525 192.617 283.312C198.659 296.568 214.333 303.997 228.478 307.281C242.653 310.573 259.669 310.389 271.273 301.575C283.713 292.127 278.189 268.255 291.212 259.635C305.177 250.392 324.814 260.947 340.681 255.634C365.358 247.37 409.791 246.214 409.277 220.098C408.719 191.797 347.29 201.508 339.081 174.428C330.638 146.573 397.847 105.562 371.129 94.2492C337.124 79.851 310.609 136.718 275.275 147.412Z" stroke="#6260FF" stroke-width="1.28384"/>
<path d="M275.738 146.338C265.888 149.32 258.156 136.042 250.36 129.3C230.333 111.98 219.13 81.2912 193.417 75.1447C173.359 70.3499 154.538 89.3614 138.689 102.606C121.863 116.669 102.243 132.429 98.8827 154.152C95.438 176.419 103.914 202.575 120.957 217.234C140.312 233.882 175.882 218.341 194.198 236.137C206.109 247.71 184.243 270.292 191.141 285.426C197.324 298.993 213.366 306.596 227.842 309.958C242.35 313.326 259.766 313.138 271.642 304.118C284.374 294.448 278.72 270.016 292.048 261.194C306.341 251.734 326.439 262.537 342.678 257.099C367.934 248.641 413.409 247.458 412.883 220.729C412.312 191.765 349.442 201.703 341.041 173.989C332.399 145.48 401.185 103.507 373.84 91.929C339.038 77.1931 311.901 135.394 275.738 146.338Z" stroke="#6260FF" stroke-width="1.28384"/>
<path d="M276.202 145.264C266.126 148.314 258.217 134.732 250.242 127.836C229.756 110.118 218.297 78.7263 191.994 72.4389C171.476 67.5343 152.223 86.9814 136.012 100.53C118.8 114.915 98.7304 131.036 95.2929 153.257C91.7693 176.034 100.44 202.789 117.873 217.784C137.672 234.815 174.057 218.917 192.793 237.121C204.977 248.959 182.61 272.059 189.665 287.539C195.99 301.418 212.4 309.195 227.208 312.633C242.049 316.079 259.863 315.886 272.012 306.66C285.036 296.769 279.252 271.777 292.886 262.752C307.506 253.075 328.065 264.126 344.676 258.563C370.511 249.911 417.028 248.701 416.49 221.36C415.906 191.732 351.595 201.898 343.001 173.548C334.162 144.386 404.524 101.451 376.552 89.6079C340.953 74.5343 313.193 134.069 276.202 145.264Z" stroke="#6260FF" stroke-width="1.28384"/>
<path d="M276.666 144.191C266.364 147.309 258.278 133.423 250.125 126.372C229.179 108.257 217.464 76.1622 190.572 69.734C169.594 64.7195 149.91 84.6023 133.335 98.4543C115.738 113.162 95.2183 129.644 91.7038 152.362C88.1012 175.65 96.9658 203.005 114.79 218.336C135.033 235.747 172.233 219.494 191.388 238.105C203.845 250.209 180.977 273.826 188.191 289.654C194.658 303.843 211.435 311.794 226.575 315.31C241.748 318.833 259.962 318.636 272.383 309.202C285.698 299.089 279.785 273.538 293.724 264.311C308.672 254.417 329.691 265.715 346.675 260.028C373.088 251.183 420.648 249.945 420.097 221.991C419.501 191.699 353.748 202.093 344.962 173.109C335.925 143.293 407.863 99.3964 379.265 87.2876C342.868 71.8763 314.487 132.744 276.666 144.191Z" stroke="#6260FF" stroke-width="1.28384"/>
<path d="M277.128 143.117C266.6 146.303 258.337 132.113 250.006 124.908C228.601 106.396 216.628 73.5978 189.147 67.0287C167.71 61.9043 147.594 82.2228 130.656 96.3784C112.673 111.408 91.7038 128.252 88.1122 151.468C84.4307 175.266 93.4896 203.22 111.704 218.887C132.391 236.68 170.406 220.07 189.981 239.09C202.711 251.459 179.342 275.593 186.714 291.767C193.322 306.268 210.467 314.393 225.939 317.986C241.445 321.586 260.058 321.385 272.751 311.744C286.358 301.41 280.315 275.298 294.56 265.87C309.835 255.759 331.315 267.305 348.671 261.492C375.663 252.453 424.266 251.189 423.703 222.622C423.093 191.667 355.9 202.288 346.921 172.669C337.685 142.2 411.2 97.3411 381.976 84.967C344.781 69.2179 315.777 131.42 277.128 143.117Z" stroke="#6260FF" stroke-width="1.28384"/>
<path d="M277.593 142.044C266.839 145.298 258.399 130.804 249.888 123.444C228.024 104.535 215.795 71.0335 187.725 64.3235C165.828 59.0892 145.28 79.8434 127.979 94.3025C109.61 109.654 88.1917 126.859 84.5232 150.573C80.7627 174.881 90.0158 203.435 108.621 219.438C129.751 237.613 168.582 220.647 188.577 240.074C201.58 252.708 177.709 277.36 185.239 293.881C191.99 308.692 209.502 316.992 225.306 320.662C241.144 324.339 260.156 324.134 273.121 314.287C287.02 303.731 280.848 277.059 295.398 267.428C311.001 257.101 332.942 268.894 350.67 262.957C378.241 253.724 427.885 252.433 427.31 223.254C426.687 191.634 358.053 202.484 348.882 172.229C339.448 141.107 414.54 95.2859 384.689 82.6465C346.696 66.5597 317.071 130.096 277.593 142.044Z" stroke="#6260FF" stroke-width="1.28384"/>
<path d="M278.056 140.97C267.077 144.293 258.459 129.494 249.771 121.979C227.448 102.674 214.962 68.4689 186.302 61.6181C163.945 56.2739 142.966 77.4638 125.302 92.2265C106.547 107.901 84.6792 125.467 80.9336 149.679C77.0941 174.497 86.5415 203.65 105.537 219.989C127.111 238.545 166.757 221.223 187.172 241.058C200.448 253.957 176.076 279.127 183.764 295.995C190.656 311.117 208.536 319.591 224.672 323.338C240.843 327.092 260.254 326.882 273.491 316.829C287.682 306.051 281.38 278.82 296.236 268.987C312.167 258.442 334.568 270.483 352.668 264.422C380.818 254.995 431.505 253.677 430.918 223.885C430.282 191.601 360.207 202.679 350.843 171.788C341.211 140.013 417.879 93.2305 387.401 80.3257C348.611 63.9012 318.363 128.771 278.056 140.97Z" stroke="#6260FF" stroke-width="1.28384"/>
<path d="M278.519 139.896C267.314 143.288 258.519 128.185 249.651 120.516C226.869 100.813 214.127 65.905 184.878 58.9133C162.061 53.4593 140.651 75.0848 122.624 90.151C103.483 106.147 81.1651 124.075 77.3425 148.784C73.4241 174.113 83.0658 203.865 102.452 220.54C124.469 239.478 164.931 221.8 185.765 242.043C199.314 255.207 174.442 280.895 182.288 298.109C189.321 313.542 207.569 322.191 224.037 326.014C240.54 329.846 260.35 329.632 273.86 319.371C288.342 308.372 281.911 280.581 297.072 270.546C313.33 259.784 336.192 272.073 354.665 265.887C383.393 256.266 435.123 254.921 434.523 224.516C433.874 191.569 362.358 202.874 352.802 171.349C342.972 138.92 421.217 91.1757 390.112 78.0056C350.524 61.2434 319.655 127.447 278.519 139.896Z" stroke="#6260FF" stroke-width="1.28384"/>
<path d="M278.985 138.822C267.554 142.282 258.582 126.874 249.536 119.051C226.295 98.9517 213.296 63.3401 183.457 56.2075C160.181 50.6436 138.339 72.7049 119.949 88.0746C100.423 104.393 77.655 122.682 73.7554 147.889C69.758 173.728 79.594 204.08 99.3708 221.091C121.832 240.41 163.109 222.376 184.363 243.027C198.185 256.456 172.811 282.661 180.815 300.223C187.991 315.967 206.606 324.789 223.405 328.69C240.241 332.599 260.45 332.38 274.232 321.913C289.007 310.692 282.446 282.341 297.912 272.104C314.498 261.126 337.821 273.662 356.665 267.351C385.973 257.537 438.744 256.164 438.133 225.147C437.471 191.536 364.514 203.069 354.765 170.908C344.737 137.827 424.558 89.1199 392.827 75.6844C352.441 58.5846 320.95 126.122 278.985 138.822Z" stroke="#6260FF" stroke-width="1.28384"/>
<path d="M279.449 137.752C267.793 141.28 258.643 125.568 249.418 117.59C225.718 97.0937 212.462 60.7788 182.034 53.5054C158.298 47.8316 136.025 70.3285 117.272 86.0018C97.3598 102.643 74.1425 121.293 70.1658 146.998C66.0895 173.347 76.1197 204.298 96.2872 221.645C119.192 241.346 161.284 222.956 182.958 244.014C197.053 257.709 171.178 284.431 179.34 302.34C186.657 318.394 205.64 327.391 222.772 331.369C239.94 335.355 260.548 335.132 274.602 324.458C289.669 313.016 282.978 284.105 298.75 273.665C315.664 262.47 339.447 275.254 358.664 268.819C388.55 258.81 442.364 257.411 441.74 225.781C441.065 191.507 366.667 203.267 356.726 170.472C346.5 136.736 427.898 87.0678 395.539 73.367C354.356 55.9294 322.243 124.8 279.449 137.752Z" stroke="#6260FF" stroke-width="1.28384"/>
<path d="M279.911 136.678C268.029 140.274 258.702 124.258 249.298 116.126C225.139 95.2325 211.626 58.2143 180.609 50.8C156.413 45.0163 133.709 67.9489 114.592 83.9258C94.2948 100.889 70.6277 119.9 66.574 146.103C62.4188 172.962 72.6433 204.513 93.2013 222.196C116.55 242.279 159.457 223.532 181.551 244.998C195.919 258.958 169.543 286.198 177.863 304.453C185.322 320.819 204.673 329.99 222.135 334.045C239.636 338.108 260.644 337.881 274.97 327C290.328 315.337 283.508 285.865 299.586 275.224C316.827 263.812 341.071 276.843 360.66 270.283C391.125 260.081 445.981 258.654 445.346 226.412C444.657 191.474 368.818 203.462 358.684 170.031C348.26 135.643 431.235 85.0124 398.25 71.0462C356.268 53.2709 323.533 123.476 279.911 136.678Z" stroke="#6260FF" stroke-width="1.28384"/>
<path d="M280.376 135.604C268.267 139.269 258.764 122.948 249.181 114.661C224.563 93.3713 210.793 55.6498 179.187 48.0947C154.532 42.2011 131.396 65.5695 111.916 81.8498C91.2326 99.1352 67.1159 118.507 62.9852 145.208C58.751 172.578 69.1697 204.728 90.1184 222.747C113.91 243.211 157.633 224.108 180.146 245.982C194.787 260.208 167.91 287.965 176.388 306.567C183.989 323.244 203.708 332.589 221.502 336.721C239.336 340.861 260.742 340.63 275.341 329.543C290.991 317.657 284.041 287.626 300.424 276.782C317.993 265.154 342.697 278.432 362.659 271.748C393.703 261.352 449.601 259.898 448.953 227.043C448.252 191.441 370.972 203.657 360.646 169.591C350.024 134.549 434.574 82.9571 400.963 68.7256C358.184 50.6126 324.827 122.151 280.376 135.604Z" stroke="#6260FF" stroke-width="1.28384"/>
<path d="M280.84 134.53C268.506 138.263 258.825 121.639 249.064 113.197C223.987 91.5102 209.96 53.0854 177.765 45.3894C152.649 39.386 129.082 63.19 109.239 79.7739C88.1702 97.3816 63.6038 117.115 59.3961 144.314C55.0829 172.194 65.696 204.943 87.0353 223.298C111.271 244.144 155.809 224.685 178.742 246.967C193.656 261.457 166.278 289.732 174.914 308.681C182.656 325.668 202.743 335.188 220.869 339.397C239.035 343.615 260.841 343.379 275.712 332.085C291.653 319.978 284.574 289.387 301.262 278.341C319.159 266.495 344.324 280.022 364.657 273.212C396.28 262.623 453.221 261.142 452.561 227.674C451.847 191.409 373.126 203.852 362.607 169.151C351.787 133.456 437.914 80.9018 403.676 66.4049C360.099 47.9542 326.12 120.827 280.84 134.53Z" stroke="#6260FF" stroke-width="1.28384"/>
<path d="M281.302 133.457C268.742 137.258 258.884 120.33 248.945 111.734C223.408 89.6496 209.125 50.5215 176.34 42.6846C150.765 36.5713 126.767 60.811 106.56 77.6984C85.1054 95.6284 60.0893 115.723 55.8045 143.42C51.4124 171.81 62.2197 205.159 83.9497 223.849C108.629 245.077 153.982 225.262 177.335 247.951C192.522 262.707 164.642 291.5 173.437 310.795C181.321 328.094 201.775 337.788 220.233 342.073C238.731 346.368 260.937 346.128 276.08 334.627C292.313 322.299 285.104 291.148 302.098 279.9C320.322 267.837 345.948 281.611 366.653 274.678C398.855 263.894 456.838 262.386 456.167 228.306C455.439 191.376 375.277 204.048 364.566 168.712C353.547 132.363 441.251 78.847 406.386 64.0848C362.012 45.2964 327.411 119.503 281.302 133.457Z" stroke="#6260FF" stroke-width="1.28384"/>
<path d="M281.766 132.383C268.98 136.253 258.945 119.02 248.827 110.269C222.831 87.7885 208.291 47.957 174.917 39.9793C148.882 33.7561 124.452 58.4315 103.882 75.6225C82.0423 93.8747 56.5765 114.33 52.2147 142.525C47.7437 171.426 58.7452 205.374 80.8658 224.4C105.989 246.009 152.157 225.838 175.93 248.936C191.39 263.957 163.009 293.267 171.962 312.909C179.988 330.519 200.809 340.386 219.599 344.749C238.43 349.122 261.034 348.877 276.449 337.17C292.975 324.619 285.636 292.908 302.936 281.458C321.487 269.179 347.574 283.201 368.651 276.142C401.432 265.165 460.457 263.63 459.774 228.937C459.033 191.344 377.43 204.243 366.526 168.272C355.31 131.27 444.59 76.7917 409.098 61.7641C363.926 42.638 328.703 118.178 281.766 132.383Z" stroke="#6260FF" stroke-width="1.28384"/>
<path d="M282.23 131.31C269.219 135.248 259.006 117.71 248.709 108.805C222.255 85.9273 207.458 45.3926 173.494 37.274C147 30.9409 122.139 56.052 101.206 73.5465C78.9799 92.1211 53.0644 112.938 48.6256 141.63C44.0756 171.041 55.2714 205.589 77.7826 224.951C103.349 246.942 150.333 226.414 174.525 249.92C190.258 265.206 161.376 295.034 170.487 315.023C178.655 332.943 199.844 342.985 218.966 347.425C238.129 351.875 261.133 351.626 276.82 339.712C293.637 326.94 286.169 294.669 303.774 283.017C322.653 270.521 349.2 284.79 370.65 277.607C404.01 266.436 464.077 264.873 463.381 229.568C462.628 191.311 379.584 204.438 368.487 167.832C357.073 130.176 447.93 74.7364 411.811 59.4435C365.842 39.9797 329.997 116.853 282.23 131.31Z" stroke="#6260FF" stroke-width="1.28384"/>
<path d="M282.694 130.236C269.457 134.242 259.068 116.401 248.592 107.341C221.679 84.0662 206.625 42.8282 172.072 34.5688C145.118 28.1257 119.825 53.6725 98.5288 71.4706C75.9175 90.3674 49.5523 111.546 45.0365 140.736C40.4076 170.657 51.7977 205.804 74.6994 225.502C100.71 247.874 148.508 226.991 173.121 250.904C189.127 266.456 159.744 296.801 169.012 317.137C177.322 335.368 198.879 345.584 218.332 350.101C237.828 354.628 261.231 354.375 277.191 342.254C294.299 329.261 286.702 296.43 304.612 284.575C323.819 271.863 350.827 286.379 372.649 279.071C406.587 267.706 467.697 266.117 466.989 230.199C466.222 191.278 381.737 204.633 370.448 167.392C358.836 129.083 451.269 72.6811 414.524 57.1229C367.757 37.3213 331.29 115.529 282.694 130.236Z" stroke="#6260FF" stroke-width="1.28384"/>
<path d="M283.158 129.162C269.696 133.237 259.129 115.091 248.474 105.877C221.102 82.2049 205.792 40.2636 170.649 31.8633C143.235 25.3104 117.511 51.2929 95.8516 69.3945C72.8546 88.6136 46.0398 110.153 41.4469 139.841C36.739 170.272 48.3234 206.019 71.6158 226.053C98.0695 248.807 146.684 227.567 171.716 251.888C187.995 267.705 158.111 298.567 167.537 319.25C175.989 337.793 197.913 348.183 217.699 352.777C237.527 357.381 261.329 357.124 277.561 344.796C294.961 331.581 287.234 298.19 305.45 286.133C324.984 273.204 352.453 287.968 374.647 280.536C409.164 268.977 471.316 267.36 470.596 230.83C469.816 191.246 383.891 204.828 372.409 166.951C360.598 127.989 454.609 70.6256 417.237 54.8021C369.672 34.6629 332.583 114.204 283.158 129.162Z" stroke="#6260FF" stroke-width="1.28384"/>
<path d="M283.621 128.088C269.932 132.231 259.188 113.781 248.355 104.413C220.524 80.3438 204.957 37.6992 169.225 29.158C141.351 22.4953 115.196 48.9134 93.1729 67.3186C69.7903 86.86 42.5257 108.76 37.8559 138.946C33.069 169.888 44.8477 206.234 68.5307 226.604C95.428 249.739 144.857 228.143 170.309 252.872C186.861 268.954 156.476 300.334 166.061 321.364C174.654 340.217 196.946 350.782 217.063 355.453C237.224 360.134 261.425 359.872 277.929 347.338C295.622 333.902 287.765 299.951 306.286 287.692C326.148 274.546 354.077 289.557 376.644 282.001C411.74 270.248 474.934 268.604 474.202 231.462C473.409 191.213 386.042 205.023 374.368 166.511C362.36 126.896 457.946 68.5703 419.948 52.4815C371.585 32.0045 333.874 112.88 283.621 128.088Z" stroke="#6260FF" stroke-width="1.28384"/>
<path d="M284.085 127.015C270.17 131.226 259.249 112.472 248.237 102.949C219.947 78.4832 204.123 35.1353 167.802 26.4532C139.469 19.6806 112.882 46.5345 90.4957 65.2431C66.7274 85.1068 39.0132 107.368 34.2663 138.052C29.4005 169.504 41.3734 206.45 65.447 227.156C92.788 250.672 143.033 228.72 168.904 253.857C185.729 270.204 154.843 302.102 164.586 323.478C173.32 342.643 195.98 353.382 216.43 358.13C236.923 362.888 261.523 362.622 278.299 349.881C296.283 336.223 288.297 301.712 307.124 289.251C327.313 275.888 355.703 291.147 378.642 283.466C414.317 271.519 478.553 269.848 477.809 232.093C477.003 191.181 388.196 205.219 376.329 166.072C364.122 125.803 461.285 66.5155 422.66 50.1613C373.5 29.3466 335.167 111.556 284.085 127.015Z" stroke="#6260FF" stroke-width="1.28384"/>
<path d="M284.549 125.942C270.409 130.221 259.31 111.162 248.12 101.485C219.371 76.6221 203.29 32.5708 166.38 23.748C137.587 16.8654 110.568 44.155 87.819 63.1672C63.665 83.3531 35.5011 105.976 30.6772 137.157C25.7324 169.12 37.8996 206.665 62.3639 227.707C90.1485 251.605 141.208 229.297 167.5 254.841C184.598 271.454 153.21 303.869 163.111 325.592C171.988 345.067 195.015 355.981 215.796 360.806C236.622 365.641 261.621 365.371 278.67 352.423C296.946 338.543 288.83 303.473 307.962 290.809C328.479 277.23 357.33 292.737 380.641 284.93C416.894 272.79 482.173 271.092 481.417 232.724C480.598 191.148 390.349 205.414 378.29 165.632C365.885 124.71 464.625 64.4602 425.373 47.8407C375.415 26.6883 336.46 110.231 284.549 125.942Z" stroke="#6260FF" stroke-width="1.28384"/>
<path d="M285.011 124.868C270.645 129.216 259.37 109.852 248 100.021C218.792 74.7609 202.455 30.0064 164.955 21.0427C135.702 14.0502 108.253 41.7755 85.1398 61.0912C60.6002 81.5995 31.9866 104.584 27.0857 136.263C22.062 168.735 34.4234 206.88 59.2783 228.258C87.5065 252.538 139.382 229.873 166.093 255.826C183.464 272.703 151.575 305.636 161.634 327.706C170.652 347.492 194.048 358.58 215.16 363.482C236.319 368.394 261.717 368.12 279.038 354.965C297.606 340.864 289.36 305.233 308.798 292.368C329.643 278.571 358.954 294.326 382.637 286.395C419.469 274.061 485.791 272.336 485.023 233.355C484.19 191.115 392.501 205.609 380.249 165.192C367.646 123.616 467.962 62.4049 428.083 45.52C377.328 24.03 337.751 108.907 285.011 124.868Z" stroke="#6260FF" stroke-width="1.28384"/>
<path d="M285.476 123.797C270.884 128.213 259.431 108.545 247.883 98.5589C218.216 72.9024 201.622 27.4445 163.533 18.3399C133.82 11.2376 105.939 39.3986 82.4631 59.0179C57.5378 79.8484 28.4745 103.194 23.4966 135.371C18.3939 168.354 30.9496 207.097 56.1951 228.811C84.867 253.473 137.557 230.452 164.688 256.812C182.333 273.955 149.943 307.405 160.16 329.822C169.32 349.919 193.082 361.181 214.527 366.16C236.018 371.15 261.816 370.871 279.408 357.51C298.268 343.187 289.893 306.997 309.636 293.929C330.808 279.915 360.58 295.918 384.636 287.862C422.047 275.334 489.41 273.582 488.63 233.989C487.785 191.085 394.654 205.807 382.21 164.754C369.409 122.526 471.302 60.3522 430.796 43.202C379.243 21.3742 339.044 107.585 285.476 123.797Z" stroke="#6260FF" stroke-width="1.28384"/>
<path d="M285.939 122.723C271.122 127.207 259.492 107.236 247.765 97.0947C217.639 71.0412 200.788 24.8801 162.109 15.6346C131.937 8.42245 103.625 37.0191 79.7856 56.9419C54.4747 78.0947 24.9617 101.801 19.9067 134.476C14.7251 167.969 27.4751 207.312 53.1112 229.362C82.2267 254.405 135.732 231.028 163.283 257.797C181.2 275.205 148.309 309.172 158.684 331.936C167.986 352.344 192.117 363.78 213.893 368.836C235.716 373.903 261.913 373.62 279.778 360.052C298.93 345.507 290.425 308.757 310.474 295.487C331.974 281.257 362.206 297.507 386.633 289.327C424.624 276.605 493.029 274.826 492.237 234.62C491.379 191.053 396.807 206.002 384.17 164.314C371.171 121.432 474.641 58.2969 433.508 40.8813C381.158 18.7158 340.337 106.26 285.939 122.723Z" stroke="#6260FF" stroke-width="1.28384"/>
<path d="M286.401 121.649C271.358 126.202 259.551 105.926 247.646 95.6305C217.06 69.1801 199.952 22.3157 160.685 12.9294C130.053 5.60727 101.309 34.6396 77.1065 54.866C51.4099 76.341 21.4472 100.409 16.3152 133.581C11.0546 167.585 23.9989 207.528 50.0256 229.914C79.5847 255.338 133.906 231.605 161.876 258.781C180.066 276.454 146.674 310.939 157.207 334.05C166.651 354.769 191.149 366.379 213.257 371.512C235.413 376.657 262.009 376.369 280.146 362.594C299.59 347.828 290.955 310.518 311.31 297.046C333.137 282.599 363.83 299.096 388.63 290.791C427.199 277.876 496.647 276.069 495.843 235.251C494.971 191.02 398.958 206.197 386.129 163.874C372.932 120.339 477.978 56.2416 436.219 38.5607C383.07 16.0575 341.627 104.936 286.401 121.649Z" stroke="#6260FF" stroke-width="1.28384"/>
<path d="M286.868 120.576C271.599 125.197 259.614 104.617 247.53 94.1668C216.486 67.3195 199.121 19.7517 159.264 10.2246C128.172 2.79259 98.9973 32.2606 74.4317 52.7905C48.3494 74.5879 17.9371 99.0167 12.7281 132.687C7.38855 167.201 20.5271 207.743 46.9444 230.465C76.9472 256.271 132.083 232.182 160.474 259.766C178.937 277.704 145.043 312.707 155.735 336.164C165.32 357.194 190.186 368.979 212.626 374.189C235.114 379.41 262.109 379.118 280.519 365.137C300.254 350.149 291.49 312.279 312.15 298.605C334.305 283.941 365.458 300.686 390.63 292.256C429.778 279.147 500.269 277.314 499.452 235.883C498.568 190.988 401.114 206.393 388.092 163.435C374.697 119.246 481.32 54.1868 438.934 36.2405C384.988 13.3996 342.923 103.611 286.868 120.576Z" stroke="#6260FF" stroke-width="1.28384"/>
<path d="M287.332 119.502C271.837 124.192 259.675 103.307 247.413 92.7026C215.909 65.4583 198.288 17.1873 157.842 7.51926C126.29 -0.022584 96.6838 29.8811 71.7549 50.7146C45.287 72.8342 14.425 97.6242 9.13896 131.792C3.7205 166.817 17.0533 207.958 43.8612 231.016C74.3076 257.203 130.259 232.758 159.069 260.75C177.805 278.954 143.411 314.474 154.26 338.278C163.987 359.619 189.221 371.578 211.992 376.865C234.813 382.163 262.208 381.867 280.889 367.679C300.916 352.47 292.023 314.04 312.988 300.163C335.47 285.283 367.085 302.275 392.629 293.721C432.356 280.418 503.888 278.557 503.06 236.514C502.162 190.955 403.268 206.588 390.053 162.995C376.46 118.153 484.659 52.1315 441.647 33.9199C386.903 10.7413 344.216 102.287 287.332 119.502Z" stroke="#6260FF" stroke-width="1.28384"/>
<path d="M287.794 118.429C272.073 123.186 259.734 101.997 247.293 91.2384C215.331 63.5972 197.453 14.6229 156.417 4.81397C124.406 -2.83776 94.3679 27.5016 69.0758 48.6386C42.2222 71.0805 10.9105 96.2317 5.54743 130.898C0.050016 166.432 13.5771 208.173 40.7756 231.567C71.6657 258.136 128.432 233.335 157.662 261.734C176.671 280.203 141.776 316.241 152.783 340.392C162.652 362.043 188.253 374.177 211.357 379.541C234.51 384.917 262.304 384.616 281.257 370.221C301.576 354.79 292.553 315.8 313.824 301.722C336.634 286.624 368.709 303.864 394.625 295.186C434.931 281.688 507.506 279.801 506.665 237.145C505.755 190.923 405.419 206.783 392.012 162.555C378.221 117.059 487.996 50.0762 444.357 31.5993C388.816 8.08293 345.507 100.962 287.794 118.429Z" stroke="#6260FF" stroke-width="1.28384"/>
</svg>
