<svg width="1440" height="826" viewBox="0 0 1440 826" fill="none" xmlns="http://www.w3.org/2000/svg">
<path fill-rule="evenodd" clip-rule="evenodd" d="M488.557 337.505C501.472 323.145 538.535 336.074 548.552 319.903C564.447 294.242 532.373 251.256 555.054 230.156C572.645 213.79 610.192 228.305 636.341 238.231C660.922 247.562 672.161 277.417 697.503 284.228C740.384 295.754 811.943 252.222 826.44 289.327C843.35 332.608 751.973 344.379 736.799 384.803C729.74 403.608 780.171 425.055 769.128 442.012C756.787 460.961 719.764 452.731 693.358 451.505C676.28 450.712 658.24 429.445 644.026 436.204C623.956 445.747 630.011 475.284 613.983 489.247C578.267 520.362 547.081 567.042 493.636 567.219C455.296 567.345 412.967 523.463 411.25 489.915C409.096 447.863 465.995 427.7 484.613 390.994C492.72 375.011 476.34 351.089 488.557 337.505Z" stroke="#1F10FF"/>
<path fill-rule="evenodd" clip-rule="evenodd" d="M190.471 216.768C239.979 161.722 382.054 211.282 420.452 149.293C481.385 50.926 358.432 -113.851 445.375 -194.736C512.809 -257.471 656.739 -201.831 756.976 -163.782C851.206 -128.014 894.287 -13.5695 991.434 12.5424C1155.81 56.7248 1430.12 -110.148 1485.69 32.0886C1550.51 197.997 1200.23 243.12 1142.07 398.079C1115.01 470.165 1308.33 552.378 1265.99 617.38C1218.69 690.017 1076.77 658.47 975.543 653.77C910.075 650.731 840.924 569.207 786.437 595.115C709.5 631.697 732.714 744.92 671.273 798.446C534.361 917.719 414.815 1096.66 209.943 1097.34C62.9706 1097.82 -99.2881 929.607 -105.873 801.009C-114.127 639.807 103.985 562.515 175.354 421.812C206.431 360.543 143.639 268.84 190.471 216.768Z" stroke="#1F10FF"/>
<path d="M546.04 316.558C535.467 333.627 496.345 319.98 482.712 335.138C469.816 349.476 487.107 374.728 478.549 391.599C458.897 430.344 398.837 451.627 401.11 496.016C402.923 531.427 447.603 577.747 488.074 577.614C544.488 577.428 577.407 528.153 615.107 495.31C632.025 480.571 625.633 449.394 646.819 439.32C661.822 432.186 680.864 454.635 698.891 455.472C726.765 456.766 765.844 465.453 778.87 445.451C790.527 427.552 737.294 404.914 744.745 385.064C760.762 342.394 857.216 329.969 839.367 284.284C824.064 245.117 748.53 291.068 703.267 278.902C676.517 271.712 664.654 240.198 638.706 230.349L637.784 229.999C610.229 219.536 571.266 204.742 552.903 221.825C528.962 244.098 562.819 289.471 546.04 316.558Z" stroke="#1F10FF"/>
<path d="M543.529 313.21C532.398 331.178 491.217 316.813 476.867 332.768C463.293 347.861 481.493 374.442 472.485 392.201C451.799 432.984 388.578 455.388 390.97 502.113C392.879 539.388 439.911 588.146 482.511 588.006C541.894 587.81 576.546 535.942 616.23 501.37C634.039 485.856 627.311 453.037 649.611 442.434C665.404 434.924 685.448 458.554 704.424 459.435C733.765 460.797 774.901 469.941 788.613 448.887C800.883 430.046 744.849 406.216 752.692 385.322C769.551 340.406 871.082 327.327 852.293 279.238C836.185 238.01 756.675 286.379 709.03 273.572C680.872 266.003 668.385 232.831 641.071 222.463L640.101 222.095C611.096 211.082 570.082 195.509 550.753 213.491C525.552 236.936 561.19 284.698 543.529 313.21Z" stroke="#1F10FF"/>
<path d="M541.017 309.867C529.33 328.734 486.09 313.65 471.023 330.403C456.769 346.251 475.88 374.161 466.422 392.808C444.701 435.631 378.319 459.154 380.831 508.216C382.835 547.354 432.218 598.55 476.949 598.403C539.301 598.197 575.685 543.736 617.354 507.436C636.053 491.145 628.988 456.686 652.404 445.552C668.987 437.667 690.033 462.479 709.958 463.404C740.765 464.834 783.958 474.435 798.355 452.328C811.239 432.545 752.403 407.524 760.638 385.585C778.341 338.423 884.948 324.69 865.22 274.196C848.307 230.907 764.821 281.694 714.794 268.248C685.228 260.3 672.116 225.47 643.437 214.584L642.418 214.197C611.963 202.633 568.898 186.281 548.602 205.163C522.141 229.78 559.562 279.93 541.017 309.867Z" stroke="#1F10FF"/>
<path d="M538.505 306.524C526.262 326.289 480.962 310.487 465.177 328.038C450.245 344.641 470.266 373.879 460.357 393.414C437.602 438.276 368.059 462.92 370.691 514.318C372.79 555.32 424.525 608.954 471.386 608.8C536.707 608.584 574.823 551.53 618.477 513.501C638.066 496.435 630.665 460.334 655.196 448.671C672.568 440.41 694.616 466.403 715.49 467.372C747.765 468.871 793.014 478.929 808.097 455.769C821.595 435.044 759.957 408.831 768.584 385.847C787.13 336.44 898.814 322.053 878.146 269.155C860.427 223.804 772.966 277.01 720.557 262.923C689.582 254.597 675.846 218.108 645.802 206.703L644.735 206.298C612.829 194.183 567.714 177.053 546.451 196.834C518.73 222.624 557.933 275.161 538.505 306.524Z" stroke="#1F10FF"/>
<path d="M535.993 303.174C523.194 323.837 475.836 307.317 459.333 325.666C443.722 343.023 464.653 373.591 454.294 394.014C430.504 440.915 357.8 466.679 360.552 520.413C362.747 563.279 416.833 619.351 465.824 619.189C534.114 618.964 573.963 559.316 619.6 519.558C640.081 501.717 632.343 463.975 657.988 451.781C676.151 443.145 699.201 470.32 721.024 471.333C754.765 472.9 802.072 483.415 817.84 459.203C831.951 437.536 767.512 410.131 776.531 386.103C795.92 334.45 912.68 319.409 891.073 264.106C872.549 216.693 781.112 272.318 726.32 257.59C693.938 248.886 679.578 210.738 648.168 198.816L647.052 198.392C613.696 185.727 566.53 167.818 544.301 188.498C515.32 215.459 556.304 270.385 535.993 303.174Z" stroke="#1F10FF"/>
<path d="M533.479 299.831C520.123 321.392 470.706 304.154 453.486 323.3C437.196 341.412 459.037 373.309 448.227 394.62C423.403 443.56 347.538 470.444 350.409 526.515C352.7 571.244 409.137 629.754 460.258 629.586C531.518 629.351 573.099 567.109 620.721 525.623C642.092 507.005 634.017 467.624 660.778 454.899C679.73 445.888 703.782 474.244 726.554 475.301C761.762 476.936 811.126 487.909 827.58 462.643C842.305 440.034 775.063 411.438 784.475 386.365C804.706 332.466 926.543 316.771 903.997 259.064C884.667 209.59 789.255 267.633 732.081 252.265C698.291 243.183 683.306 203.376 650.53 190.935L649.366 190.493C614.56 177.277 565.343 158.589 542.148 180.168C511.907 208.303 554.673 265.616 533.479 299.831Z" stroke="#1F10FF"/>
<path d="M530.97 296.487C517.058 318.947 465.581 300.99 447.644 320.934C430.676 339.801 453.426 373.027 442.166 395.226C416.308 446.205 337.282 474.209 340.273 532.616C342.658 579.209 401.448 640.157 454.699 639.982C528.928 639.737 572.242 574.902 621.847 531.687C644.109 512.294 635.698 471.271 663.574 458.017C683.315 448.63 708.37 478.167 732.09 479.268C768.766 480.971 820.186 492.401 837.326 466.083C852.664 442.532 782.621 412.745 792.424 386.627C813.499 330.482 940.412 314.133 916.926 254.021C896.791 202.486 797.404 262.948 737.848 246.939C702.65 237.479 687.04 196.013 652.899 183.054L651.686 182.593C615.429 168.826 564.162 149.36 540 171.839C508.499 201.145 553.047 260.847 530.97 296.487Z" stroke="#1F10FF"/>
<path d="M528.457 293.142C513.988 316.501 460.452 297.826 441.797 318.568C424.15 338.189 447.811 372.744 436.101 395.831C409.208 448.849 327.021 477.974 330.131 538.717C332.613 587.174 393.753 650.56 449.134 650.377C526.332 650.122 571.379 582.694 622.969 537.751C646.121 517.582 637.373 474.918 666.364 461.133C686.896 451.371 712.952 482.09 737.622 483.235C775.764 485.006 829.241 496.894 847.066 469.523C863.018 445.03 790.173 414.051 800.369 386.888C822.287 328.498 954.277 311.495 929.851 248.979C908.911 195.382 805.548 258.262 743.609 241.613C707.003 231.774 690.77 188.65 655.263 175.172L654.002 174.693C616.294 160.376 562.976 140.131 537.848 163.508C505.087 193.987 551.417 256.077 528.457 293.142Z" stroke="#1F10FF"/>
<path d="M525.945 289.791C510.92 314.047 455.325 294.654 435.953 316.194C417.627 336.57 442.198 372.454 430.037 396.429C402.11 451.486 316.762 481.731 319.992 544.81C322.569 595.131 386.061 660.955 443.572 660.765C523.739 660.501 570.519 590.479 624.093 543.807C648.135 522.862 639.051 478.558 669.157 464.243C690.478 454.105 717.537 486.006 743.155 487.195C782.764 489.034 838.298 501.378 856.809 472.955C873.374 447.52 797.728 415.349 808.316 387.142C831.076 326.506 968.143 308.849 942.778 243.928C921.032 188.27 813.694 253.568 749.373 236.28C711.359 226.062 694.501 181.28 657.628 167.283L656.319 166.786C617.161 151.918 561.793 130.894 535.698 155.171C501.677 186.822 549.789 251.299 525.945 289.791Z" stroke="#1F10FF"/>
<path d="M523.433 286.449C507.851 311.604 450.198 291.493 430.108 313.83C411.103 334.961 436.584 372.174 423.973 397.037C395.012 454.133 306.502 485.498 309.852 550.914C312.524 603.099 378.368 671.36 438.009 671.163C521.145 670.889 569.657 598.274 625.216 549.874C650.148 528.153 640.728 482.207 671.949 467.362C694.059 456.849 722.121 489.931 748.688 491.165C789.764 493.072 847.355 505.873 866.551 476.397C883.73 450.02 805.281 416.658 816.262 387.406C839.865 324.524 982.008 306.213 955.704 238.888C933.153 181.169 821.839 248.885 755.136 230.956C715.714 220.36 698.232 173.919 659.993 159.404L658.635 158.889C618.027 143.47 560.608 121.667 533.547 146.843C498.266 179.666 548.16 246.532 523.433 286.449Z" stroke="#1F10FF"/>
<path d="M520.922 283.104C504.784 309.158 445.071 288.328 424.264 311.464C404.581 333.349 430.971 371.891 417.91 397.641C387.914 456.777 296.244 489.263 299.713 557.014C302.481 611.063 370.676 681.762 432.447 681.558C518.553 681.274 568.797 606.066 626.34 555.937C652.163 533.441 642.406 485.854 674.742 470.479C697.642 459.59 726.706 493.854 754.221 495.131C796.765 497.106 856.412 510.365 876.295 479.836C894.087 452.517 812.837 417.964 824.209 387.667C848.656 322.539 995.875 303.574 968.631 233.845C945.275 174.064 829.985 244.199 760.9 225.63C720.07 214.655 701.964 166.555 662.36 151.522L660.953 150.988C618.895 135.019 559.425 112.438 531.397 138.513C494.856 172.508 546.532 241.762 520.922 283.104Z" stroke="#1F10FF"/>
<path d="M518.412 279.758C501.717 306.709 439.946 285.162 418.421 309.095C398.059 331.735 425.36 371.605 411.848 398.244C380.818 459.42 285.987 493.025 289.575 563.113C292.438 619.025 362.985 692.162 426.886 691.951C515.961 691.658 567.938 613.856 627.465 561.998C654.178 538.726 644.085 489.499 677.536 473.593C701.226 462.329 731.292 497.774 759.756 499.096C803.767 501.139 865.471 514.855 886.039 483.274C904.444 455.012 820.393 419.267 832.157 387.926C857.447 320.552 1009.74 300.933 981.559 228.799C957.397 166.957 838.133 239.511 766.665 220.301C724.427 208.948 705.696 159.19 664.727 143.638L663.271 143.085C619.763 126.565 558.243 103.206 529.248 130.18C491.447 165.348 544.905 236.99 518.412 279.758Z" stroke="#1F10FF"/>
<path d="M515.898 276.413C498.646 304.264 434.816 281.998 412.573 306.728C391.533 330.123 419.744 371.323 405.781 398.849C373.717 462.064 275.725 496.789 279.433 569.213C282.391 626.99 355.29 702.565 421.321 702.347C513.365 702.043 567.075 621.648 628.586 568.062C656.19 544.014 645.76 493.146 680.326 476.71C704.806 465.071 735.873 501.697 765.287 503.063C810.764 505.174 874.525 519.347 895.779 486.713C914.798 457.51 827.944 420.573 840.101 388.187C866.234 318.568 1023.61 298.295 994.483 223.756C969.516 159.853 846.276 234.825 772.426 214.975C728.78 203.243 709.425 151.826 667.09 135.756L665.586 135.185C620.627 118.115 557.056 93.9766 527.095 121.85C488.034 158.19 543.274 232.22 515.898 276.413Z" stroke="#1F10FF"/>
<path d="M513.386 273.069C495.578 301.817 429.688 278.833 406.728 304.362C385.009 328.511 414.13 371.04 399.717 399.454C366.619 464.708 265.465 500.554 269.293 575.314C272.347 634.954 347.598 712.967 415.759 712.742C510.772 712.429 566.214 629.44 629.709 574.125C658.203 549.302 647.437 496.792 683.118 479.827C708.388 467.812 740.458 505.62 770.82 507.029C817.764 509.209 883.582 523.839 905.521 490.152C925.154 460.007 835.498 421.879 848.047 388.448C875.023 316.583 1037.47 295.656 1007.41 218.713C981.637 152.748 854.421 230.139 778.189 209.648C733.136 197.538 713.156 144.463 669.455 127.874L667.903 127.285C621.494 109.664 555.872 84.7468 524.945 113.519C484.623 151.031 541.645 227.449 513.386 273.069Z" stroke="#1F10FF"/>
<path d="M510.874 269.728C492.509 299.375 424.56 275.672 400.883 301.998C378.485 326.902 408.516 370.76 393.653 400.063C359.52 467.356 255.205 504.321 259.153 581.418C262.302 642.922 339.904 723.372 410.195 723.141C508.177 722.818 565.352 637.236 630.832 580.192C660.216 554.593 649.114 500.443 685.91 482.947C711.969 470.556 745.041 509.546 776.352 510.999C824.763 513.247 892.638 528.335 915.263 493.595C935.509 462.508 843.052 423.188 855.993 388.712C883.812 314.602 1051.34 293.021 1020.34 213.673C993.757 145.647 862.566 225.456 783.952 204.325C737.49 191.837 716.886 137.103 671.82 119.996L670.219 119.388C622.36 101.216 554.687 75.5207 522.793 105.192C481.212 143.876 540.016 222.683 510.874 269.728Z" stroke="#1F10FF"/>
<path d="M508.362 266.378C489.441 296.923 419.433 272.502 395.038 299.626C371.961 325.285 402.902 370.472 387.588 400.662C352.421 469.994 244.946 508.08 249.013 587.513C252.258 650.881 332.211 733.769 404.632 733.531C505.584 733.198 564.491 645.022 631.955 586.25C662.23 559.875 650.791 504.084 688.702 486.058C715.551 473.292 749.625 513.463 781.885 514.961C831.763 517.276 901.695 532.821 925.005 497.029C945.865 464.999 850.606 424.489 863.939 388.968C892.601 312.611 1065.2 290.377 1033.26 208.625C1005.88 138.537 870.711 220.764 789.715 198.993C741.845 186.127 720.617 129.734 674.185 112.109L672.535 111.482C623.226 92.7596 553.503 66.2857 520.643 96.8561C477.801 136.713 538.387 217.907 508.362 266.378Z" stroke="#1F10FF"/>
<path d="M505.853 263.031C486.375 294.475 414.308 269.336 389.196 297.258C365.44 323.671 397.291 370.187 381.527 401.266C345.326 472.637 234.689 511.843 238.876 593.612C242.216 658.843 324.521 744.17 399.073 743.924C502.993 743.581 563.633 652.813 633.081 592.312C664.247 565.161 652.471 507.729 691.497 489.173C719.136 476.032 754.212 517.384 787.421 518.926C838.766 521.31 910.755 537.312 934.75 500.467C956.224 467.495 858.163 425.793 871.889 389.227C901.393 310.625 1079.07 287.736 1046.19 203.58C1018 131.431 878.86 216.077 795.481 193.665C746.204 180.42 724.351 122.369 676.553 104.225L674.855 103.581C624.096 84.3072 552.322 57.0544 518.495 88.5241C474.393 129.553 536.761 213.135 505.853 263.031Z" stroke="#1F10FF"/>
<path d="M503.341 259.686C483.307 292.028 409.181 266.171 383.351 294.891C358.917 322.058 391.678 369.903 375.463 401.87C338.227 475.28 224.43 515.607 228.736 599.712C232.172 666.807 316.829 754.572 393.51 754.319C500.399 753.966 562.772 660.604 634.204 598.375C666.26 570.448 654.148 511.376 694.29 492.289C722.717 478.772 758.796 521.306 792.954 522.892C845.766 525.344 919.811 541.803 944.493 503.905C966.579 469.992 865.717 427.098 879.835 389.488C910.182 308.64 1092.94 285.097 1059.12 198.536C1030.12 124.326 887.005 211.39 801.244 188.338C750.559 174.715 728.082 115.005 678.918 96.3426L677.172 95.6795C624.962 75.8554 551.137 47.8241 516.344 80.1929C470.982 122.394 535.132 208.364 503.341 259.686Z" stroke="#1F10FF"/>
<path d="M500.83 256.34C480.24 289.58 404.055 263.005 377.507 292.522C352.394 320.444 386.065 369.619 369.401 402.473C331.13 477.923 214.172 519.369 218.598 605.811C222.129 674.769 309.137 764.972 387.949 764.712C497.807 764.35 561.912 668.394 635.329 604.436C668.275 575.734 655.827 515.02 697.083 495.404C726.301 481.511 763.382 525.227 798.488 526.857C852.767 529.377 928.87 546.293 954.236 507.343C976.937 472.487 873.273 428.402 887.783 389.747C918.973 306.653 1106.8 282.456 1072.05 193.491C1042.25 117.219 895.152 206.702 807.009 183.01C754.916 169.008 731.814 107.639 681.285 88.4587L679.49 87.7773C625.83 67.4025 549.955 38.5925 514.195 71.8604C467.573 115.234 533.505 203.592 500.83 256.34Z" stroke="#1F10FF"/>
<path d="M498.316 252.997C477.169 287.136 398.925 259.842 371.66 290.157C345.868 318.834 380.449 369.337 363.334 403.08C324.029 480.568 203.91 523.135 208.456 611.913C212.082 682.735 301.442 775.376 382.383 775.109C495.211 774.737 561.048 676.188 636.449 610.501C670.286 581.024 657.502 518.669 699.873 498.522C729.88 484.254 767.963 529.151 804.018 530.825C859.765 533.413 937.924 550.787 963.976 510.784C987.29 474.986 880.824 429.709 895.726 390.009C927.76 304.67 1120.67 279.819 1084.97 188.45C1054.36 110.116 903.295 202.017 812.769 177.685C759.268 163.305 735.542 100.277 683.648 80.5787L681.804 79.8788C626.694 58.9533 548.768 29.3646 512.042 63.5317C464.16 108.077 531.873 198.824 498.316 252.997Z" stroke="#1F10FF"/>
<path d="M495.804 249.65C474.101 284.687 393.798 256.675 365.815 287.788C339.345 317.22 374.836 369.052 357.27 403.682C316.931 483.21 193.651 526.897 198.316 618.011C202.038 690.697 293.749 785.775 376.821 785.501C492.618 785.12 560.188 683.978 637.573 616.562C672.3 586.309 659.179 522.313 702.665 501.636C733.462 486.993 772.547 533.071 809.551 534.789C866.765 537.445 946.98 555.276 973.719 514.221C997.646 477.481 888.379 431.012 903.673 390.268C936.549 302.683 1134.53 277.178 1097.9 183.404C1066.48 103.009 911.441 197.329 818.533 172.356C763.624 157.597 739.274 92.9115 686.013 72.6943L684.122 71.9762C627.561 50.5 547.584 20.1325 509.891 55.1988C460.749 100.917 530.245 194.051 495.804 249.65Z" stroke="#1F10FF"/>
<path d="M493.293 246.31C471.033 282.245 388.671 253.515 359.971 285.426C332.822 315.612 369.223 368.773 351.207 404.291C309.834 485.858 183.392 530.665 188.177 624.116C191.995 698.666 286.058 796.182 371.259 795.901C490.025 795.509 559.328 691.774 638.697 622.63C674.315 591.601 660.858 525.964 705.459 504.757C737.045 489.738 777.133 536.998 815.085 538.76C873.766 541.484 956.038 559.773 983.462 517.664C1008 479.982 895.934 432.322 911.62 390.533C945.339 300.702 1148.4 274.544 1110.82 178.365C1078.61 95.9088 919.587 192.647 824.297 167.034C767.98 151.897 743.005 85.5522 688.379 64.8167L686.439 64.0798C628.428 42.053 546.4 10.9073 507.742 46.8725C457.34 93.7626 528.617 189.285 493.293 246.31Z" stroke="#1F10FF"/>
<path d="M490.781 242.962C467.964 279.796 383.543 250.347 354.125 283.056C326.297 313.997 363.609 368.487 345.142 404.893C302.735 488.5 173.132 534.427 178.037 630.213C181.949 706.627 278.364 806.581 365.695 806.293C487.431 805.892 558.466 699.563 639.819 628.69C676.327 596.885 662.534 529.608 708.25 507.871C740.626 492.476 781.716 540.918 820.617 542.724C880.765 545.516 965.094 564.262 993.203 521.1C1018.36 482.476 903.487 433.625 919.565 390.791C954.128 298.714 1162.27 271.902 1123.75 173.319C1090.73 88.801 927.732 187.958 830.059 161.704C772.335 146.189 746.735 78.1856 690.744 56.9317L688.755 56.1767C629.294 33.5992 545.215 1.67439 505.59 38.5389C453.928 86.6013 526.987 184.512 490.781 242.962Z" stroke="#1F10FF"/>
<path d="M488.269 239.614C464.896 277.347 378.416 247.18 348.281 280.686C319.774 312.382 357.995 368.201 339.079 405.495C295.637 491.141 162.873 538.188 167.897 636.311C171.905 714.588 270.672 816.981 360.133 816.686C484.838 816.274 557.605 707.352 640.943 634.751C678.342 602.17 664.212 533.252 711.043 510.984C744.209 495.214 786.301 544.837 826.151 546.688C887.765 549.548 974.151 568.751 1002.95 524.537C1028.71 484.971 911.042 434.928 927.512 391.049C962.918 296.727 1176.13 269.26 1136.68 168.273C1102.85 81.6936 935.878 183.269 835.823 156.375C776.69 140.481 750.467 70.8192 693.11 49.0469L691.072 48.2733C630.161 25.1452 544.032 -7.55809 503.44 30.2055C450.518 79.4401 525.359 179.739 488.269 239.614Z" stroke="#1F10FF"/>
<path d="M485.757 236.269C461.828 274.9 373.288 244.015 342.436 278.319C313.25 310.769 352.382 367.917 333.014 406.1C288.538 493.784 152.614 541.952 157.757 642.411C161.861 722.552 262.979 827.382 354.57 827.08C482.244 826.659 556.744 715.143 642.066 640.814C680.355 607.457 665.889 536.898 713.835 514.1C747.79 497.955 790.884 548.759 831.683 550.653C894.765 553.582 983.208 573.242 1012.69 527.975C1039.07 487.467 918.596 436.233 935.458 391.31C971.707 294.741 1190 266.621 1149.6 163.229C1114.97 74.5883 944.023 178.582 841.586 151.048C781.045 134.775 754.198 63.4549 695.475 41.1642L693.388 40.3722C631.027 16.6933 542.847 -16.7884 501.289 21.8742C447.107 72.2811 523.73 174.968 485.757 236.269Z" stroke="#1F10FF"/>
<path d="M483.247 232.922C458.761 272.451 368.163 240.847 336.593 275.949C306.729 309.154 346.77 367.631 326.952 406.702C281.442 496.425 142.356 545.713 147.619 648.508C151.818 730.513 255.288 837.781 349.009 837.472C479.652 837.041 555.885 722.932 643.191 646.874C682.371 612.742 667.568 540.542 716.629 517.214C751.374 500.693 795.47 552.679 837.218 554.617C901.767 557.614 992.267 577.731 1022.43 531.412C1049.43 489.961 926.152 437.536 943.406 391.568C980.498 292.753 1203.87 263.979 1162.53 158.182C1127.09 67.4806 952.17 173.892 847.351 145.718C785.403 129.067 757.93 56.0884 697.842 33.2793L695.707 32.4689C631.895 8.23937 541.665 -26.0211 499.14 13.5407C443.698 65.1198 522.103 170.195 483.247 232.922Z" stroke="#1F10FF"/>
<path d="M480.734 229.579C455.691 270.006 363.034 237.685 330.746 273.584C300.204 307.544 341.155 367.35 320.887 407.308C274.342 499.071 132.095 549.479 137.478 654.611C141.773 738.479 247.594 848.185 343.445 847.869C477.057 847.428 555.022 730.726 644.313 652.939C684.383 618.031 669.243 544.19 719.42 520.332C754.955 503.436 800.053 556.603 842.75 558.586C908.765 561.65 1001.32 582.225 1032.17 534.853C1059.78 492.46 933.704 438.843 951.351 391.83C989.285 290.77 1217.73 261.342 1175.45 153.141C1139.21 60.3777 960.314 169.208 853.113 140.393C789.756 123.364 761.66 48.7266 700.206 25.3991L698.023 24.5703C632.76 -0.209881 540.479 -35.2489 496.988 5.212C440.286 57.9634 520.473 165.426 480.734 229.579Z" stroke="#1F10FF"/>
<path d="M478.224 226.234C452.625 267.56 357.909 234.52 324.904 271.218C293.682 305.932 335.544 367.067 314.825 407.914C267.246 501.716 121.838 553.244 127.341 660.712C131.731 746.444 239.903 858.588 337.885 858.265C474.466 857.814 554.164 738.518 645.438 659.003C686.399 623.319 670.923 547.837 722.214 523.449C758.539 506.177 804.64 560.526 848.285 562.553C915.768 565.686 1010.38 586.717 1041.92 538.292C1070.14 494.958 941.261 440.149 959.3 392.092C998.077 288.786 1231.6 258.704 1188.38 148.098C1151.33 53.2733 968.462 164.522 858.879 135.067C794.114 117.659 765.393 41.3633 702.573 17.5174L700.342 16.6703C633.629 -8.6606 539.298 -44.4785 494.84 -3.11837C436.878 50.8053 518.846 160.656 478.224 226.234Z" stroke="#1F10FF"/>
<path d="M475.71 222.89C449.555 265.114 352.779 231.356 319.057 268.851C287.157 304.32 329.928 366.785 308.759 408.519C260.146 504.36 111.577 557.008 117.199 666.812C121.684 754.409 232.208 868.99 332.32 868.66C471.87 868.2 553.301 746.311 646.559 665.067C688.41 628.607 672.598 551.484 725.004 526.566C762.119 508.919 809.221 564.449 853.816 566.519C922.765 569.721 1019.44 591.209 1051.66 541.732C1080.49 497.455 948.813 441.455 967.244 392.353C1006.86 286.801 1245.46 256.065 1201.31 143.055C1163.45 46.1692 976.605 159.836 864.64 129.741C798.467 111.955 769.122 34.0001 704.936 9.63585L702.657 8.77033C634.494 -17.1112 538.111 -53.7078 492.687 -11.4485C433.465 43.6473 517.215 155.886 475.71 222.89Z" stroke="#1F10FF"/>
<path d="M473.201 219.546C446.489 262.668 347.654 228.192 313.214 266.485C280.635 302.709 324.316 366.502 302.697 409.124C253.049 507.004 101.319 560.773 107.061 672.913C111.642 762.373 224.518 879.393 326.759 879.056C469.279 878.586 552.442 754.103 647.685 671.13C690.426 633.895 674.278 555.131 727.799 529.683C765.703 511.66 813.808 568.372 859.351 570.486C929.768 573.756 1028.49 595.701 1061.4 545.171C1090.85 499.953 956.369 442.761 975.192 392.614C1015.66 284.817 1259.33 253.427 1214.24 138.012C1175.58 39.0648 984.753 155.15 870.405 124.415C802.825 106.25 772.855 26.6368 707.304 1.75418L704.976 0.870269C635.362 -25.5619 536.929 -62.9371 490.539 -19.7788C430.056 36.4894 515.589 151.117 473.201 219.546Z" stroke="#1F10FF"/>
<path d="M470.688 216.199C443.419 260.22 342.526 225.025 307.368 264.116C274.111 301.094 318.702 366.217 296.632 409.727C245.95 509.646 91.0593 564.535 96.9209 679.011C101.597 770.335 216.824 889.793 321.196 889.448C466.684 888.969 551.58 761.893 648.807 677.191C692.439 639.181 675.954 558.776 730.59 532.797C769.284 514.399 818.391 572.292 864.883 574.451C936.767 577.788 1037.55 600.191 1071.14 548.608C1101.21 502.448 963.922 444.064 983.138 392.873C1024.44 282.83 1273.19 250.786 1227.16 132.967C1187.7 31.9577 992.898 150.462 876.167 119.086C807.179 100.543 776.585 19.2709 709.668 -6.1301L707.291 -7.03253C636.228 -34.0154 535.744 -72.1692 488.387 -28.1117C426.645 29.3286 513.959 146.344 470.688 216.199Z" stroke="#1F10FF"/>
<path d="M468.175 212.857C440.35 257.776 337.397 221.863 301.522 261.752C267.585 299.485 313.087 365.936 290.567 410.334C238.85 512.293 80.7984 568.302 86.7796 685.114C91.5511 778.302 209.13 900.197 315.631 899.846C464.089 899.356 550.717 769.687 649.929 683.257C694.451 644.471 677.63 562.425 733.381 535.916C772.865 517.142 822.974 576.217 870.415 578.42C943.765 581.825 1046.61 604.685 1080.89 552.05C1111.56 504.947 971.475 445.373 991.083 393.136C1033.23 280.847 1287.06 248.149 1240.09 127.926C1199.82 24.8555 1001.04 145.778 881.929 113.762C811.533 94.8402 780.315 11.9098 712.032 -14.0097L709.607 -14.9306C637.093 -42.4641 534.559 -81.3965 486.235 -36.4398C423.232 22.1728 512.329 141.576 468.175 212.857Z" stroke="#1F10FF"/>
<path d="M465.665 209.505C437.284 255.323 332.272 218.692 295.679 259.378C261.064 297.866 307.476 365.646 284.505 410.932C231.754 514.93 70.5414 572.059 76.6422 691.208C81.5092 786.26 201.439 910.593 310.071 910.235C461.498 909.735 549.859 777.472 651.054 689.314C696.467 649.752 679.309 566.065 736.176 539.026C776.449 519.877 827.56 580.133 875.95 582.38C950.767 585.853 1055.66 609.171 1090.63 555.482C1121.92 507.438 979.032 446.672 999.031 393.391C1042.02 278.856 1300.93 245.504 1253.02 122.876C1211.94 17.7445 1009.19 141.085 887.695 108.429C815.891 89.1287 784.048 4.53977 714.4 -21.898L711.926 -22.8372C637.962 -50.9214 533.377 -90.6327 484.087 -44.7768C419.824 15.0081 510.703 136.799 465.665 209.505Z" stroke="#1F10FF"/>
<path d="M463.153 206.162C434.215 252.878 327.144 215.528 289.834 257.012C254.54 296.255 301.862 365.364 278.441 411.538C224.656 517.575 60.2818 575.824 66.5023 697.31C71.4647 794.225 193.747 920.996 304.508 920.631C458.905 920.121 548.998 785.265 652.178 695.378C698.481 655.04 680.987 569.713 738.968 542.143C780.031 522.619 832.144 584.057 881.483 586.347C957.767 589.889 1064.72 613.664 1100.37 558.923C1132.28 509.936 986.586 447.978 1006.98 393.653C1050.81 276.872 1314.79 242.866 1265.94 117.834C1224.06 10.6405 1017.34 136.4 893.458 103.103C820.246 83.4246 787.779 -2.823 716.765 -29.7792L714.243 -30.737C638.828 -59.3718 532.193 -99.8616 481.936 -53.1066C416.413 7.85045 509.074 132.03 463.153 206.162Z" stroke="#1F10FF"/>
<path d="M460.641 202.817C431.146 250.431 322.017 212.364 283.989 254.645C248.017 294.642 296.248 365.081 272.377 412.143C217.557 520.219 50.0223 579.588 56.3624 703.41C61.4201 802.189 186.054 931.398 298.945 931.026C456.311 930.507 548.136 793.057 653.301 701.441C700.494 660.328 682.663 573.359 741.76 545.26C783.612 525.36 836.728 587.979 887.015 590.314C964.767 593.924 1073.78 618.155 1110.11 562.361C1142.63 512.433 994.14 449.284 1014.92 393.913C1059.6 274.887 1328.66 240.227 1278.87 112.79C1236.18 3.53569 1025.48 131.714 899.221 97.7763C824.601 77.7194 791.51 -10.1868 719.13 -37.6614L716.559 -38.6377C639.694 -67.8231 531.008 -109.091 479.785 -61.4374C413.002 0.691975 507.445 127.26 460.641 202.817Z" stroke="#1F10FF"/>
<path d="M458.128 199.474C428.077 247.987 316.888 209.201 278.143 252.281C241.492 293.033 290.634 364.8 266.312 412.75C210.458 522.865 39.7621 583.355 46.2218 709.513C51.375 810.155 178.36 941.802 293.382 941.423C453.716 940.894 547.275 800.851 654.423 707.507C702.507 665.618 684.34 577.008 744.551 548.379C787.193 528.103 841.311 591.904 892.548 594.283C971.766 597.961 1082.83 622.649 1119.86 565.803C1152.99 514.932 1001.69 450.592 1022.87 394.177C1068.39 272.905 1342.52 237.591 1291.79 107.749C1248.3 -3.5667 1033.62 127.03 904.983 92.4522C828.956 72.0167 795.24 -17.5481 721.495 -45.5411L718.875 -46.5356C640.56 -76.2718 529.823 -118.319 477.633 -69.7657C409.591 -6.46399 505.815 122.492 458.128 199.474Z" stroke="#1F10FF"/>
<path d="M455.619 196.125C425.011 245.536 311.763 206.032 272.301 249.909C234.971 291.416 285.022 364.512 260.25 413.35C203.362 525.505 29.5048 587.114 36.0842 715.608C41.3328 818.115 170.669 952.2 287.821 951.813C451.125 951.275 546.416 808.638 655.548 713.566C704.523 670.9 686.019 580.65 747.346 551.49C790.778 530.839 845.898 595.822 898.083 598.244C978.768 601.99 1091.89 627.137 1129.6 569.237C1163.34 517.425 1009.25 451.893 1030.82 394.433C1077.18 270.915 1356.39 234.947 1304.72 102.701C1260.42 -10.6761 1041.77 122.339 910.749 87.1208C833.313 66.307 798.973 -24.9165 723.862 -53.4279L721.194 -54.4409C641.428 -84.7278 528.641 -127.553 475.485 -78.1011C406.182 -13.6272 504.188 117.716 455.619 196.125Z" stroke="#1F10FF"/>
<path d="M453.106 192.781C421.942 243.091 306.635 202.868 266.455 247.543C228.446 289.804 279.408 364.23 254.185 413.956C196.263 528.15 19.2445 590.879 25.9435 721.71C31.2876 826.08 162.976 962.603 282.258 962.209C448.53 961.661 545.554 816.431 656.671 719.63C706.536 676.189 687.696 584.298 750.137 554.608C794.359 533.581 850.481 599.745 903.615 602.212C985.767 606.026 1100.95 631.629 1139.34 572.677C1173.7 519.923 1016.8 453.199 1038.76 394.694C1085.97 268.931 1370.26 232.309 1317.65 97.6586C1272.54 -17.78 1049.92 117.653 916.511 81.7951C837.667 60.6028 802.703 -32.2793 726.226 -61.309L723.51 -62.3403C642.294 -93.1779 527.456 -136.782 473.333 -86.4308C402.771 -20.7846 502.559 112.947 453.106 192.781Z" stroke="#1F10FF"/>
<path d="M450.592 189.437C418.871 240.646 301.505 199.705 260.608 245.178C221.92 288.193 273.792 363.948 248.119 414.562C189.162 530.795 8.98305 594.645 15.8016 727.812C21.2411 834.045 155.281 973.006 276.693 972.606C445.935 972.047 544.691 824.224 657.792 725.694C708.547 681.478 689.371 587.945 752.927 557.725C797.939 536.323 855.063 603.669 909.146 606.18C992.765 610.062 1110 636.122 1149.08 576.118C1184.05 522.421 1024.35 454.506 1046.71 394.956C1094.76 266.947 1384.12 229.671 1330.57 92.6163C1284.66 -24.8837 1058.06 112.968 922.272 76.4696C842.021 54.8989 806.432 -39.6419 728.59 -69.19L725.824 -70.2398C643.159 -101.628 526.27 -146.011 471.181 -94.7605C399.358 -27.942 500.928 108.178 450.592 189.437Z" stroke="#1F10FF"/>
<path d="M448.082 186.091C415.805 238.197 296.38 196.538 254.765 242.809C215.399 286.579 268.18 363.663 242.057 415.164C182.066 533.437 -1.27433 598.407 5.66387 733.91C11.1988 842.007 147.59 983.406 271.132 982.998C443.343 982.43 543.832 832.014 658.917 731.755C710.563 686.763 691.05 591.59 755.722 560.84C801.522 539.062 859.649 607.589 914.68 610.144C999.767 614.094 1119.06 640.612 1158.83 579.555C1194.41 524.916 1031.91 455.809 1054.66 395.215C1103.55 264.96 1397.99 227.03 1343.5 87.571C1296.79 -31.9905 1066.21 108.28 928.037 71.1409C846.378 49.1918 810.165 -47.0077 730.957 -77.0741L728.144 -78.1421C644.028 -110.081 525.088 -155.243 469.032 -103.093C395.949 -35.1026 499.301 103.405 448.082 186.091Z" stroke="#1F10FF"/>
<path d="M445.569 182.745C412.735 235.75 291.251 193.373 248.918 240.441C208.873 284.966 262.565 363.379 235.991 415.768C174.966 536.08 -11.5354 602.17 -4.47754 740.009C1.15283 849.97 139.896 993.807 265.568 993.392C440.748 992.815 542.969 839.805 660.038 737.818C712.575 692.049 692.726 595.235 758.512 563.955C805.102 541.802 864.231 611.51 920.212 614.109C1006.77 618.128 1128.12 645.103 1168.57 582.993C1204.76 527.412 1039.46 457.114 1062.6 395.475C1112.34 262.974 1411.85 224.39 1356.42 82.5266C1308.91 -39.0964 1074.35 103.592 933.799 65.8132C850.731 43.4856 813.894 -54.3724 733.32 -84.9572L730.459 -86.0437C644.893 -118.533 523.902 -164.474 466.88 -111.425C392.537 -42.2619 497.671 98.6339 445.569 182.745Z" stroke="#1F10FF"/>
<path d="M443.057 179.398C409.667 233.301 286.124 190.205 243.074 238.072C202.35 283.351 256.952 363.093 229.928 416.37C167.868 538.721 -21.7943 605.932 -14.6169 746.107C-8.89105 857.932 132.203 1004.21 260.005 1003.78C438.155 1003.2 542.109 847.594 661.162 743.878C714.589 697.335 694.403 598.88 761.305 567.069C808.685 544.541 868.816 615.43 925.745 618.073C1013.77 622.16 1137.17 649.592 1178.31 586.429C1215.12 529.906 1047.02 458.417 1070.55 395.733C1121.13 260.987 1425.72 221.749 1369.35 77.4805C1321.03 -46.2037 1082.5 98.9034 939.563 60.484C855.087 37.778 817.625 -61.7386 735.686 -92.8419L732.776 -93.947C645.759 -126.987 522.718 -173.706 464.73 -119.758C389.127 -49.4229 496.042 93.861 443.057 179.398Z" stroke="#1F10FF"/>
<path d="M440.546 176.057C406.599 230.859 280.997 187.045 237.23 235.709C195.827 281.744 251.339 362.814 223.865 416.98C160.77 541.37 -32.053 609.7 -24.7559 752.212C-18.9347 865.901 124.511 1014.61 254.443 1014.18C435.562 1013.59 541.248 855.391 662.286 749.946C716.604 702.627 696.081 602.531 764.098 570.19C812.268 547.286 873.401 619.357 931.279 622.045C1020.77 626.199 1146.23 654.089 1188.05 589.873C1225.48 532.408 1054.57 459.727 1078.49 395.999C1129.92 259.006 1439.58 219.115 1382.28 72.4419C1333.15 -53.3038 1090.64 94.2218 945.327 55.1621C859.444 32.0776 821.357 -69.0977 738.052 -100.719L735.093 -101.843C646.627 -135.434 521.534 -182.931 462.58 -128.084C385.717 -56.5767 494.414 89.0954 440.546 176.057Z" stroke="#1F10FF"/>
<path d="M438.036 172.71C403.533 228.41 275.872 183.878 231.387 233.34C189.305 280.129 245.727 362.528 217.802 417.582C153.674 544.011 -42.3105 613.462 -34.8938 758.31C-28.9772 873.862 116.821 1025.01 248.882 1024.58C432.97 1023.97 540.389 863.18 663.411 756.007C718.619 707.911 697.76 606.175 766.892 573.304C815.851 550.024 877.987 623.277 936.814 626.008C1027.77 630.231 1155.29 658.578 1197.8 593.31C1235.84 534.902 1062.13 461.03 1086.44 396.257C1138.71 257.019 1453.45 216.473 1395.21 67.3957C1345.27 -60.4114 1098.79 89.5327 951.092 49.8326C863.801 26.3697 825.09 -76.4641 740.419 -108.604L737.412 -109.746C647.494 -143.888 520.352 -192.164 460.431 -136.417C382.308 -63.7378 492.787 84.3223 438.036 172.71Z" stroke="#1F10FF"/>
<path d="M435.523 169.364C400.463 225.962 270.743 180.712 225.54 230.971C182.78 278.515 240.112 362.244 211.737 418.185C146.574 546.653 -52.5714 617.225 -45.0351 764.409C-39.023 881.825 109.126 1035.41 243.318 1034.97C430.375 1034.35 539.527 870.97 664.533 762.069C720.631 713.198 699.436 609.82 769.683 576.419C819.432 552.764 882.57 627.198 942.345 629.974C1034.77 634.264 1164.35 663.068 1207.54 596.747C1246.19 537.398 1069.68 462.334 1094.39 396.516C1147.5 255.032 1467.32 213.833 1408.13 62.351C1357.39 -67.5176 1106.94 84.845 956.853 44.5046C868.154 20.6633 828.819 -83.8292 742.783 -116.488L739.727 -117.648C648.36 -152.34 519.167 -201.395 458.279 -144.75C378.896 -70.8978 491.157 79.5505 435.523 169.364Z" stroke="#1F10FF"/>
<path d="M433.01 166.02C397.394 223.517 265.614 177.548 219.694 228.606C176.256 276.904 234.497 361.962 205.672 418.791C139.475 549.298 -62.8317 620.99 -55.1758 770.51C-49.0683 889.79 101.433 1045.82 237.755 1045.37C427.781 1044.74 538.665 878.763 665.655 768.133C722.644 718.486 701.112 613.467 772.474 579.536C823.013 555.506 887.153 631.122 947.877 633.941C1041.77 638.3 1173.4 667.561 1217.28 600.187C1256.54 539.896 1077.23 463.641 1102.33 396.778C1156.28 253.048 1481.18 211.195 1421.06 57.3086C1369.51 -74.6213 1115.08 80.1596 962.616 39.1789C872.509 14.9592 832.549 -91.1918 745.147 -124.369L742.042 -125.547C649.225 -160.79 517.981 -210.624 456.127 -153.079C375.484 -78.0551 489.527 74.7811 433.01 166.02Z" stroke="#1F10FF"/>
<path d="M430.499 162.673C394.326 221.069 260.487 174.382 213.85 226.237C169.733 275.29 228.884 361.677 199.608 419.394C132.377 551.94 -73.0906 624.752 -65.315 776.609C-59.112 897.752 93.7403 1056.22 232.192 1055.76C425.188 1055.12 537.804 886.553 666.779 774.194C724.658 723.772 702.79 617.112 775.267 582.651C826.595 558.245 891.737 635.042 953.41 637.905C1048.77 642.333 1182.46 672.051 1227.02 603.624C1266.9 542.391 1084.79 464.944 1110.28 397.037C1165.07 251.061 1495.05 208.554 1433.98 52.2634C1381.63 -81.7279 1123.23 75.4715 968.379 33.8504C876.865 9.25216 836.281 -98.5574 747.513 -132.253L744.36 -133.45C650.092 -169.244 516.798 -219.855 453.977 -161.412C372.074 -85.2155 487.899 70.0088 430.499 162.673Z" stroke="#1F10FF"/>
<path d="M427.987 159.33C391.258 218.624 255.36 171.219 208.005 223.872C163.209 273.679 223.271 361.395 193.545 420.001C125.279 554.586 -83.3498 628.518 -75.4546 782.711C-69.1562 905.718 86.0478 1066.62 226.63 1066.16C422.594 1065.51 536.943 894.347 667.903 780.259C726.672 729.061 704.468 620.761 778.06 585.769C830.178 560.988 896.322 638.967 958.944 641.874C1055.77 646.369 1191.52 676.545 1236.77 607.066C1277.26 544.89 1092.34 466.252 1118.23 397.3C1173.86 249.079 1508.91 205.917 1446.91 47.222C1393.75 -88.8307 1131.37 70.7871 974.143 28.5256C881.22 3.54901 840.012 -105.919 749.879 -140.133L746.677 -141.348C650.959 -177.693 515.614 -229.083 451.826 -169.741C368.663 -92.372 486.271 65.2404 427.987 159.33Z" stroke="#1F10FF"/>
<path d="M425.477 155.982C388.192 216.174 250.235 168.051 202.162 221.501C156.688 272.064 217.66 361.108 187.483 420.602C118.183 557.226 -93.6069 632.278 -85.5921 788.807C-79.1982 913.679 78.3573 1077.02 221.069 1076.55C420.003 1075.89 536.085 902.135 669.028 786.319C728.688 734.345 706.147 624.404 780.854 588.882C833.762 563.725 900.908 642.885 964.479 645.837C1062.77 650.4 1200.57 681.033 1246.51 610.501C1287.62 547.383 1099.9 467.554 1126.17 397.557C1182.65 247.09 1522.78 203.274 1459.84 42.1748C1405.88 -95.9392 1139.52 66.0969 979.908 23.1952C885.578 -2.15981 843.745 -113.287 752.246 -148.019L748.996 -149.253C651.828 -186.148 514.432 -238.317 449.678 -178.075C365.255 -99.5342 484.644 60.4663 425.477 155.982Z" stroke="#1F10FF"/>
<path d="M422.963 152.637C385.121 213.728 245.106 164.886 196.316 219.135C150.162 270.452 212.044 360.826 181.417 421.207C111.082 559.871 -103.868 636.043 -95.7339 794.908C-89.2447 921.643 70.6624 1087.42 215.505 1086.94C417.407 1086.28 535.221 909.927 670.149 792.382C730.7 739.633 707.822 628.05 783.644 591.998C837.341 566.466 905.49 646.808 970.01 649.803C1069.77 654.435 1209.63 685.525 1256.25 613.94C1297.97 549.881 1107.45 468.859 1134.12 397.818C1191.44 245.105 1536.65 200.635 1472.76 37.1315C1418 -103.044 1147.66 61.4108 985.669 17.8688C889.931 -7.86481 847.474 -120.65 754.61 -155.901L751.311 -157.153C652.692 -194.599 513.245 -247.547 447.525 -186.406C361.842 -106.692 483.013 55.6961 422.963 152.637Z" stroke="#1F10FF"/>
</svg>
