<svg width="1016" height="762" viewBox="0 0 1016 762" fill="none" xmlns="http://www.w3.org/2000/svg">
<path fill-rule="evenodd" clip-rule="evenodd" d="M724.015 645.38C738.795 637.106 760.872 656.374 774.227 645.957C795.419 629.428 788.259 587.49 812.669 576.231C831.601 567.498 853.434 588.144 868.707 602.377C883.065 615.757 880.016 642.205 895.874 653.768C922.705 673.334 991.062 656.117 987.658 689.116C983.686 727.607 912.859 714.78 886.645 743.214C874.451 756.441 903.042 785.722 888.646 796.514C872.559 808.574 848.746 793.049 830.017 785.665C817.904 780.89 812.784 759.614 799.916 761.534C781.745 764.244 775.049 789.181 758.156 796.385C720.511 812.436 680.31 841.955 641.405 829.123C613.495 819.917 599.221 774.778 610.576 747.707C624.81 713.773 673.734 711.564 701.054 686.921C712.95 676.19 710.034 653.207 724.015 645.38Z" stroke="#2413FF"/>
<path fill-rule="evenodd" clip-rule="evenodd" d="M552.755 477.099C609.412 445.381 694.04 519.243 745.234 479.312C826.469 415.949 799.023 255.188 892.594 212.028C965.167 178.552 1048.86 257.694 1107.41 312.254C1162.45 363.545 1150.76 464.929 1211.55 509.255C1314.4 584.257 1576.44 518.257 1563.38 644.755C1548.16 792.304 1276.66 743.133 1176.17 852.13C1129.42 902.835 1239.02 1015.08 1183.84 1056.45C1122.17 1102.68 1030.89 1043.16 959.096 1014.86C912.661 996.554 893.037 914.998 843.707 922.356C774.053 932.747 748.386 1028.34 683.627 1055.95C539.322 1117.48 385.219 1230.64 236.083 1181.45C129.095 1146.16 74.3774 973.124 117.905 869.353C172.469 739.273 360.01 730.806 464.736 636.339C510.338 595.203 499.159 507.103 552.755 477.099Z" stroke="#2413FF"/>
<path d="M773.66 642.689C759.563 653.684 736.26 633.346 720.658 642.08C705.9 650.342 708.979 674.601 696.421 685.928C667.584 711.941 615.942 714.272 600.917 750.092C588.931 778.666 603.999 826.313 633.459 836.03C674.526 849.576 716.96 818.417 756.696 801.474C774.528 793.87 781.596 767.548 800.776 764.687C814.359 762.66 819.763 785.118 832.55 790.159C852.319 797.952 877.455 814.34 894.436 801.61C909.631 790.219 879.451 759.311 892.323 745.349C919.994 715.335 994.756 728.875 998.948 688.246C1002.54 653.413 930.387 671.587 902.065 650.934C885.326 638.728 888.545 610.811 873.389 596.688L872.851 596.186C856.757 581.185 834 559.973 814.237 569.089C788.472 580.974 796.029 625.241 773.66 642.689Z" stroke="#2413FF"/>
<path d="M773.092 639.42C758.253 650.994 733.723 629.585 717.301 638.779C701.766 647.475 705.006 673.012 691.788 684.935C661.433 712.317 607.073 714.771 591.258 752.475C578.641 782.554 594.501 832.709 625.512 842.937C668.74 857.196 713.407 824.397 755.235 806.562C774.005 798.558 781.445 770.85 801.635 767.839C815.933 765.706 821.622 789.345 835.081 794.651C855.891 802.855 882.35 820.105 900.224 806.706C916.219 794.715 884.451 762.18 898.001 747.483C927.127 715.89 1005.82 730.142 1010.24 687.374C1014.02 650.708 938.068 669.839 908.255 648.099C890.635 635.251 894.023 605.864 878.07 590.998L877.503 590.469C860.562 574.679 836.608 552.351 815.805 561.946C788.683 574.457 796.638 621.054 773.092 639.42Z" stroke="#2413FF"/>
<path d="M772.523 636.154C756.942 648.307 731.186 625.828 713.942 635.481C697.63 644.613 701.033 671.426 687.154 683.945C655.281 712.696 598.203 715.273 581.597 754.863C568.349 786.445 585.002 839.107 617.564 849.848C662.953 864.819 709.854 830.38 753.773 811.653C773.482 803.249 781.294 774.156 802.493 770.994C817.506 768.755 823.479 793.576 837.611 799.147C859.462 807.761 887.243 825.874 906.012 811.804C922.807 799.214 889.45 765.053 903.677 749.621C934.26 716.448 1016.89 731.413 1021.53 686.507C1025.5 648.007 945.747 668.094 914.444 645.268C895.944 631.777 899.501 600.921 882.749 585.311L882.155 584.756C864.367 568.176 839.214 544.732 817.371 554.807C788.893 567.943 797.247 616.87 772.523 636.154Z" stroke="#2413FF"/>
<path d="M771.953 632.888C755.63 645.62 728.647 622.07 710.583 632.183C693.494 641.749 697.058 669.839 682.518 682.955C649.128 713.075 589.332 715.775 571.935 757.249C558.056 790.336 575.503 845.506 609.615 856.757C657.165 872.442 706.3 836.363 752.31 816.744C772.958 807.94 781.141 777.462 803.35 774.149C819.078 771.803 825.335 797.806 840.141 803.643C863.032 812.667 892.136 831.642 911.798 816.902C929.393 803.712 894.448 767.925 909.353 751.758C941.392 717.005 1027.96 732.683 1032.81 685.638C1036.97 645.306 953.426 666.349 920.632 642.435C901.251 628.302 904.977 595.977 887.428 579.624L886.805 579.043C868.17 561.673 841.82 537.112 818.937 547.667C789.103 561.429 797.854 612.686 771.953 632.888Z" stroke="#2413FF"/>
<path d="M771.387 629.617C754.322 642.927 726.113 618.307 707.227 628.88C689.362 638.881 693.088 668.248 677.887 681.959C642.979 713.448 580.465 716.271 562.277 759.631C547.768 794.221 566.007 851.899 601.67 863.662C651.382 880.059 702.749 842.341 750.851 821.83C772.437 812.626 780.993 780.762 804.211 777.299C820.654 774.846 827.196 802.031 842.674 808.133C866.606 817.568 897.033 837.405 917.589 821.996C935.983 808.206 899.45 770.792 915.032 753.89C948.527 717.557 1039.03 733.948 1044.1 684.765C1048.45 642.599 961.109 664.599 926.824 639.598C906.562 624.823 910.458 591.028 892.111 573.931L891.459 573.324C871.977 555.165 844.43 529.487 820.507 540.522C789.316 554.909 798.465 608.496 771.387 629.617Z" stroke="#2413FF"/>
<path d="M770.815 626.351C753.009 640.24 723.573 614.549 703.866 625.581C685.224 636.017 689.113 666.661 673.251 680.969C636.825 713.827 571.593 716.772 552.614 762.017C537.474 798.112 556.506 858.297 593.72 870.572C645.593 887.682 699.194 848.323 749.387 826.921C771.912 817.317 780.84 784.067 805.067 780.453C822.225 777.894 829.051 806.261 845.202 812.628C870.174 822.473 901.925 843.173 923.374 827.094C942.569 812.704 904.447 773.663 920.706 756.027C955.658 718.115 1050.09 735.218 1055.39 683.896C1059.93 639.897 968.787 662.854 933.011 636.766C911.868 621.348 915.933 586.084 896.789 568.244L896.109 567.61C875.78 548.661 847.034 521.868 822.071 533.382C789.525 548.395 799.071 604.312 770.815 626.351Z" stroke="#2413FF"/>
<path d="M770.248 623.084C751.7 637.552 721.038 610.79 700.51 622.282C681.091 633.153 685.141 665.074 668.619 679.978C630.675 714.205 562.725 717.273 542.955 764.403C527.184 802.002 547.01 864.695 585.774 877.481C639.808 895.304 695.643 854.305 747.927 832.011C771.39 822.007 780.69 787.372 805.927 783.608C823.8 780.941 830.911 810.491 847.735 817.123C873.747 827.378 906.821 848.941 929.164 832.191C949.158 817.202 909.448 776.535 926.385 758.163C962.793 718.671 1061.16 736.487 1066.68 683.027C1071.41 637.195 976.468 661.108 939.202 633.933C917.178 617.873 921.413 581.14 901.471 562.556L900.762 561.896C879.586 542.158 849.643 514.248 823.64 526.242C789.737 541.88 799.682 600.127 770.248 623.084Z" stroke="#2413FF"/>
<path d="M769.678 619.818C750.388 634.864 718.499 607.032 697.15 618.984C676.954 630.29 681.167 663.487 663.983 678.987C624.522 714.583 553.854 717.774 533.294 766.79C516.892 805.892 537.51 871.093 577.825 884.39C634.021 902.926 692.088 860.288 746.464 837.102C770.866 826.697 780.538 790.677 806.784 786.762C825.372 783.989 832.767 814.72 850.264 821.618C877.317 832.283 911.714 854.708 934.95 837.289C955.744 821.701 914.446 779.406 932.06 760.3C969.924 719.228 1072.23 737.757 1077.97 682.158C1082.88 634.493 984.147 659.362 945.39 631.101C922.485 614.398 926.889 576.195 906.149 556.868L905.413 556.182C883.39 535.654 852.249 506.628 825.205 519.102C789.947 535.365 800.289 595.942 769.678 619.818Z" stroke="#2413FF"/>
<path d="M769.111 616.546C749.079 632.171 715.964 603.269 693.793 615.68C672.821 627.421 677.195 661.895 659.351 677.992C618.372 714.957 544.986 718.27 523.635 769.171C506.602 809.777 528.013 877.486 569.878 891.295C628.236 910.543 688.537 866.265 745.004 842.188C770.345 831.383 780.388 793.977 807.644 789.912C826.947 787.032 834.626 818.945 852.796 826.108C880.89 837.184 916.609 860.471 940.74 842.382C962.333 826.194 919.446 782.273 937.738 762.432C977.059 719.78 1083.3 739.022 1089.26 681.285C1094.36 631.786 991.829 657.612 951.581 628.263C927.795 610.918 932.368 571.246 910.831 551.176L910.066 550.463C887.196 529.146 854.858 499.003 826.774 511.957C790.159 528.846 800.899 591.752 769.111 616.546Z" stroke="#2413FF"/>
<path d="M768.542 613.281C747.768 629.484 713.426 599.512 690.435 612.383C668.685 624.558 673.222 660.309 654.717 677.002C612.22 715.336 536.116 718.772 513.974 771.558C496.31 813.668 518.515 883.885 561.93 898.205C622.449 918.167 684.984 872.249 743.542 847.279C769.821 836.074 780.237 797.283 808.502 793.067C828.52 790.081 836.484 823.176 855.327 830.604C884.461 842.09 921.503 866.24 946.527 847.481C968.921 830.693 924.445 785.145 943.415 764.569C984.192 720.338 1094.37 740.292 1100.55 680.417C1105.84 629.085 999.508 655.867 957.77 625.432C933.103 607.444 937.846 566.303 915.511 545.489L914.718 544.75C891 522.643 857.464 491.384 828.34 504.818C790.37 522.332 801.507 587.568 768.542 613.281Z" stroke="#2413FF"/>
<path d="M767.974 610.013C746.458 626.796 710.89 595.753 687.077 609.083C664.551 621.694 669.25 658.721 650.083 676.01C606.069 715.713 527.247 719.272 504.314 773.944C486.02 817.557 509.017 890.282 553.983 905.113C616.664 925.788 681.431 878.23 742.081 852.369C769.299 840.763 780.086 800.587 809.361 796.22C830.094 793.128 838.342 827.405 857.858 835.099C888.033 846.994 926.398 872.007 952.316 852.577C975.509 835.19 929.445 788.016 949.092 766.705C991.325 720.894 1105.44 741.561 1111.83 679.547C1117.32 626.381 1007.19 654.121 963.96 622.598C938.412 603.968 943.324 561.358 920.192 539.801L919.37 539.035C894.806 516.138 860.072 483.763 829.908 497.676C790.581 515.816 802.117 583.382 767.974 610.013Z" stroke="#2413FF"/>
<path d="M767.407 606.745C745.149 624.106 708.354 591.993 683.72 605.783C660.418 618.828 665.278 657.133 645.451 675.018C599.918 716.09 518.379 719.772 494.655 776.328C475.73 821.446 499.52 896.678 546.037 912.021C610.879 933.409 677.88 884.211 740.621 857.458C768.777 845.452 779.937 803.891 810.221 799.373C831.669 796.174 840.201 831.633 860.39 839.592C891.605 851.898 931.294 877.773 958.105 857.673C982.098 839.687 934.446 790.886 954.77 768.84C998.46 721.45 1116.51 742.829 1123.12 678.677C1128.8 623.678 1014.87 652.373 970.151 619.764C943.722 600.492 948.804 556.412 924.874 534.111L924.024 533.319C898.612 509.633 862.681 476.141 831.476 490.534C790.794 509.3 802.727 579.196 767.407 606.745Z" stroke="#2413FF"/>
<path d="M766.836 603.479C743.836 621.418 705.815 588.234 680.36 602.484C656.28 615.964 661.303 655.546 640.815 674.027C593.764 716.468 509.507 720.273 484.993 778.714C465.437 825.336 490.02 903.076 538.087 918.93C605.09 941.031 674.325 890.193 739.157 862.548C768.252 850.142 779.783 807.196 811.077 802.528C833.24 799.222 842.057 835.863 862.919 844.087C895.174 856.803 936.185 883.54 963.891 862.771C988.684 844.185 939.443 793.757 960.445 770.977C1005.59 722.007 1127.57 744.098 1134.41 677.808C1140.27 620.976 1022.55 650.628 976.338 616.931C949.028 597.017 954.279 551.467 929.551 528.424L928.673 527.605C902.414 503.129 865.285 468.521 833.041 483.394C791.002 502.785 803.333 575.011 766.836 603.479Z" stroke="#2413FF"/>
<path d="M766.269 600.21C742.527 618.729 703.279 584.474 677.003 599.184C652.147 613.099 657.331 653.957 636.182 673.034C587.614 716.845 500.639 720.772 475.334 781.099C455.147 829.224 480.523 909.472 530.141 925.838C599.305 948.651 670.773 896.173 737.697 867.637C767.73 854.831 779.634 810.499 811.937 805.68C834.815 802.267 843.916 840.09 865.451 848.58C898.747 861.706 941.081 889.306 969.68 867.867C995.273 848.681 944.444 796.627 966.123 773.111C1012.73 722.562 1138.64 745.366 1145.7 676.937C1151.75 618.272 1030.23 648.88 982.529 614.097C954.338 593.54 959.759 546.521 934.233 522.734L933.326 521.889C906.221 496.624 867.894 460.899 834.609 476.252C791.214 496.269 803.943 570.824 766.269 600.21Z" stroke="#2413FF"/>
<path d="M765.696 596.947C741.213 616.044 700.739 580.719 673.641 595.889C648.008 610.238 653.355 652.373 631.545 672.047C581.459 717.227 491.766 721.276 465.67 783.488C444.852 833.118 471.022 915.873 522.19 932.75C593.516 956.277 667.217 902.159 736.232 872.731C767.204 859.525 779.48 813.807 812.793 808.838C836.385 805.319 845.771 844.324 867.979 853.079C902.315 866.615 945.972 895.077 975.465 872.968C1001.86 853.183 949.44 799.502 971.796 775.251C1019.85 723.122 1149.7 746.639 1156.99 676.072C1163.23 615.573 1037.91 647.138 988.716 611.268C959.643 590.068 965.233 541.58 938.91 517.05L937.975 516.178C910.022 490.124 870.498 453.283 836.173 469.115C791.422 489.757 804.548 566.643 765.696 596.947Z" stroke="#2413FF"/>
<path d="M765.13 593.676C739.905 613.352 698.204 576.956 670.286 592.585C643.876 607.37 649.385 650.782 626.914 671.051C575.31 717.6 482.899 721.773 456.012 785.87C434.564 837.003 461.526 922.266 514.245 939.655C587.732 963.894 663.667 908.137 734.773 877.817C766.684 864.21 779.331 817.107 813.654 811.988C837.961 808.362 847.631 848.549 870.512 857.569C905.889 871.516 950.869 900.84 981.255 878.061C1008.45 857.676 954.441 802.368 977.476 777.383C1026.99 723.674 1160.78 747.904 1168.28 675.198C1174.71 612.866 1045.59 645.388 994.908 608.43C964.955 586.588 970.714 536.631 943.593 511.357L942.629 510.459C913.83 483.615 873.107 445.658 837.743 461.97C791.635 483.238 805.16 562.453 765.13 593.676Z" stroke="#2413FF"/>
<path d="M764.563 590.408C738.596 610.663 695.668 573.197 666.929 589.286C639.743 604.505 645.413 649.193 622.282 670.059C569.16 717.977 474.03 722.272 446.353 788.255C424.274 840.892 452.029 928.663 506.299 946.563C581.947 971.515 660.115 914.118 733.314 882.906C766.162 868.9 779.182 820.411 814.514 815.141C839.536 811.408 849.49 852.777 873.044 862.063C909.462 876.42 955.764 906.607 987.045 883.158C1015.04 862.174 959.442 805.239 983.154 779.519C1034.13 724.23 1171.84 749.172 1179.57 674.328C1186.19 610.163 1053.27 643.641 1001.1 605.597C970.265 583.112 976.193 531.686 948.274 505.669L947.283 504.745C917.636 477.111 875.716 438.037 839.311 454.829C791.848 476.722 805.77 558.267 764.563 590.408Z" stroke="#2413FF"/>
<path d="M763.994 587.14C737.285 607.973 693.131 569.437 663.57 585.985C635.607 601.64 641.44 647.605 617.647 669.067C563.008 718.354 465.16 722.772 436.692 790.64C413.982 844.781 442.531 935.059 498.351 953.471C576.161 979.136 656.562 920.098 731.852 887.995C765.639 873.588 779.03 823.714 815.372 818.293C841.109 814.454 851.348 857.005 875.575 866.556C913.033 881.323 960.658 912.373 992.832 888.254C1021.62 866.67 964.441 808.109 988.83 781.654C1041.26 724.785 1182.91 750.44 1190.86 673.458C1197.66 607.459 1060.95 641.894 1007.29 602.762C975.573 579.636 981.671 526.74 952.954 499.979L951.934 499.028C921.44 470.605 878.323 430.415 840.878 447.687C792.058 470.206 806.378 554.081 763.994 587.14Z" stroke="#2413FF"/>
<path d="M763.428 583.872C735.976 605.284 690.596 565.677 660.215 582.685C631.475 598.774 637.469 646.016 613.016 668.074C556.859 718.73 456.293 723.271 427.035 793.024C403.693 848.669 433.035 941.455 490.405 960.379C570.377 986.757 653.012 926.079 730.393 893.084C765.118 878.277 778.882 827.018 816.233 821.446C842.685 817.5 853.208 861.233 878.108 871.049C916.606 886.227 965.555 918.139 998.623 893.35C1028.21 871.167 969.443 810.978 994.51 783.789C1048.39 725.341 1193.98 751.708 1202.15 672.587C1209.15 604.755 1068.63 640.147 1013.48 599.928C980.884 576.159 987.151 521.794 957.637 494.29L956.589 493.313C925.248 464.1 880.932 422.793 842.447 440.545C792.272 463.689 806.989 549.894 763.428 583.872Z" stroke="#2413FF"/>
<path d="M762.857 580.606C734.663 602.596 688.057 561.919 656.854 579.387C627.337 595.911 633.494 644.43 608.38 667.084C550.705 719.109 447.421 723.773 417.372 795.411C393.4 852.56 423.534 947.854 482.455 967.288C564.588 994.379 649.456 932.062 728.929 898.175C764.593 882.968 778.728 830.323 817.089 824.601C844.256 820.549 855.064 865.463 880.636 875.545C920.175 891.132 970.447 923.907 1004.41 898.448C1034.8 875.665 974.44 813.85 1000.18 785.926C1055.52 725.898 1205.05 752.978 1213.43 671.719C1220.62 602.054 1076.31 638.401 1019.67 597.096C986.19 572.685 992.627 516.85 962.315 488.603L961.238 487.599C929.05 457.597 883.537 415.174 844.012 433.405C792.48 457.175 807.596 545.71 762.857 580.606Z" stroke="#2413FF"/>
<path d="M762.29 577.337C733.354 599.907 685.521 558.159 653.497 576.086C623.204 593.045 629.523 642.841 603.747 666.091C544.555 719.486 438.553 724.272 407.713 797.795C383.11 856.448 414.038 954.25 474.509 974.196C558.803 1002 645.905 938.042 727.469 903.264C764.071 887.656 778.579 833.626 817.949 827.754C845.831 823.594 856.923 869.691 883.168 880.038C923.748 896.036 975.343 929.673 1010.2 903.544C1041.39 880.162 979.441 816.72 1005.86 788.061C1062.66 726.453 1216.12 754.246 1224.72 670.848C1232.1 599.35 1083.99 636.654 1025.86 594.262C991.5 569.208 998.106 511.904 966.997 482.913L965.892 481.883C932.857 451.092 886.146 407.552 845.58 426.263C792.693 450.659 808.206 541.523 762.29 577.337Z" stroke="#2413FF"/>
<path d="M761.719 574.073C732.041 597.221 682.982 554.403 650.137 572.79C619.067 590.183 625.547 641.256 599.111 665.103C538.401 719.866 429.681 724.775 398.05 800.183C372.817 860.34 404.537 960.65 466.559 981.107C553.015 1009.62 642.35 944.027 726.005 908.356C763.546 892.349 778.426 836.933 818.805 830.91C847.402 826.644 858.778 873.923 885.697 884.535C927.317 900.943 980.234 935.443 1015.98 908.644C1047.97 884.662 984.438 819.593 1011.54 790.199C1069.79 727.012 1227.18 755.517 1236.01 669.981C1243.57 596.649 1091.67 634.91 1032.04 591.431C996.806 565.735 1003.58 506.962 971.674 477.228L970.541 476.171C936.659 444.59 888.75 399.934 847.145 419.125C792.901 444.146 808.812 537.34 761.719 574.073Z" stroke="#2413FF"/>
<path d="M761.152 570.803C730.732 594.53 680.446 550.641 646.78 569.488C614.933 587.316 621.576 639.666 594.479 664.109C532.251 720.241 420.813 725.273 388.391 802.566C362.527 864.227 395.04 967.044 458.613 988.013C547.23 1017.24 638.798 950.006 724.545 913.444C763.025 897.036 778.276 840.235 819.665 834.061C848.977 829.689 860.638 878.149 888.229 889.027C930.89 905.845 985.13 941.207 1021.77 913.738C1054.56 889.157 989.439 822.462 1017.22 792.332C1076.92 727.566 1238.25 756.784 1247.3 669.109C1255.05 593.944 1099.35 633.161 1038.24 588.595C1002.12 562.256 1009.06 502.014 976.356 471.537L975.195 470.454C940.466 438.083 891.359 392.311 848.713 411.982C793.114 437.628 809.422 533.152 761.152 570.803Z" stroke="#2413FF"/>
<path d="M760.584 567.536C729.422 591.841 677.91 546.882 643.422 566.188C610.799 584.452 617.604 638.078 589.846 663.117C526.1 720.618 411.944 725.773 378.732 804.952C352.236 868.117 385.543 973.441 450.666 994.922C541.444 1024.86 635.246 955.987 723.084 918.533C762.502 901.725 778.126 843.539 820.524 837.215C850.551 832.736 862.496 882.378 890.761 893.521C934.462 910.749 990.025 946.974 1027.56 918.835C1061.15 893.654 994.438 825.332 1022.89 794.468C1084.06 728.122 1249.32 758.053 1258.59 668.24C1266.53 591.241 1107.03 631.415 1044.43 585.762C1007.43 558.781 1014.54 497.069 981.037 465.848L979.847 464.739C944.271 431.579 893.967 384.69 850.281 404.841C793.325 431.112 810.031 528.967 760.584 567.536Z" stroke="#2413FF"/>
<path d="M760.015 564.267C728.112 589.151 675.373 543.121 640.065 562.887C606.664 581.585 613.631 636.488 585.212 662.124C519.949 720.994 403.075 726.271 369.072 807.335C341.946 872.004 376.045 979.837 442.719 1001.83C535.659 1032.48 631.694 961.967 721.623 923.621C761.98 906.413 777.975 846.842 821.383 840.367C852.125 835.781 864.355 886.606 893.292 898.014C938.034 915.652 994.92 952.739 1033.35 923.93C1067.74 898.15 999.438 828.201 1028.57 796.602C1091.19 728.676 1260.39 759.32 1269.88 667.368C1278.01 588.537 1114.71 629.667 1050.62 582.927C1012.73 555.303 1020.02 492.122 985.718 460.158L984.499 459.022C948.076 425.072 896.574 377.067 851.848 397.698C793.537 424.595 810.641 524.779 760.015 564.267Z" stroke="#2413FF"/>
<path d="M759.447 560.999C726.802 586.462 672.837 539.362 636.707 559.588C602.53 578.721 609.659 634.901 580.579 661.132C513.798 721.372 394.206 726.772 359.412 809.721C331.655 875.894 366.547 986.234 434.772 1008.74C529.873 1040.11 628.141 967.949 720.162 928.711C761.457 911.103 777.825 850.146 822.242 843.52C853.699 838.828 866.213 890.835 895.823 902.508C941.605 920.557 999.815 958.507 1039.14 929.028C1074.33 902.647 1004.44 831.072 1034.25 798.739C1098.33 729.233 1271.46 760.589 1281.17 666.499C1289.49 585.834 1122.39 627.921 1056.81 580.094C1018.04 551.828 1025.5 487.177 990.399 454.47L989.152 453.308C951.882 418.568 899.182 369.447 853.416 390.557C793.748 418.08 811.25 520.594 759.447 560.999Z" stroke="#2413FF"/>
<path d="M758.877 557.733C725.49 583.774 670.298 535.604 633.348 556.289C598.393 575.857 605.684 633.314 575.944 660.141C507.645 721.75 385.335 727.273 349.75 812.107C321.362 879.784 357.048 992.632 426.823 1015.65C524.085 1047.73 624.587 973.931 718.699 933.802C760.933 915.793 777.672 853.451 823.099 846.675C855.27 841.876 868.069 895.064 898.353 907.003C945.175 925.462 1004.71 964.274 1044.92 934.125C1080.91 907.145 1009.44 833.944 1039.92 800.875C1105.46 729.79 1282.53 761.858 1292.45 665.63C1300.97 583.131 1130.07 626.175 1062.99 577.261C1023.35 548.352 1030.97 482.233 995.077 448.782L993.803 447.594C955.685 412.065 901.788 361.827 854.982 383.417C793.957 411.565 811.857 516.409 758.877 557.733Z" stroke="#2413FF"/>
<path d="M758.311 554.465C724.182 581.086 667.764 531.845 629.992 552.99C594.261 572.993 601.714 631.726 571.312 659.15C501.496 722.128 376.468 727.773 340.092 814.493C311.074 883.673 347.552 999.029 418.878 1022.56C518.302 1055.35 621.037 979.913 717.24 938.892C760.412 920.483 777.524 856.755 823.96 849.828C856.846 844.923 869.93 899.293 900.886 911.497C948.749 930.366 1009.6 970.041 1050.72 939.222C1087.5 911.643 1014.44 836.814 1045.6 803.011C1112.59 730.346 1293.6 763.127 1303.74 664.76C1312.45 580.429 1137.76 624.429 1069.19 574.428C1028.66 544.877 1036.45 477.287 999.76 443.094L998.457 441.879C959.493 405.56 904.398 354.206 856.551 376.276C794.171 405.049 812.468 512.223 758.311 554.465Z" stroke="#2413FF"/>
<path d="M757.741 551.199C722.87 578.398 665.225 528.087 626.632 549.691C590.125 570.129 597.74 630.139 566.677 658.159C495.343 722.506 367.597 728.274 330.43 816.879C300.781 887.563 338.053 1005.43 410.928 1029.46C512.514 1062.97 617.482 985.895 715.777 943.982C759.888 925.173 777.371 860.06 824.817 852.983C858.418 847.97 871.786 903.523 903.415 915.992C952.319 935.271 1014.5 975.809 1056.5 944.32C1094.09 916.141 1019.44 839.686 1051.28 805.147C1119.72 730.903 1304.66 764.396 1315.03 663.891C1323.92 577.726 1145.43 622.683 1075.37 571.595C1033.97 541.402 1041.93 472.343 1004.44 437.406L1003.11 436.165C963.296 399.057 907.003 346.586 858.117 369.135C794.38 398.535 813.076 508.038 757.741 551.199Z" stroke="#2413FF"/>
<path d="M757.173 547.932C721.56 575.709 662.689 524.328 623.275 546.392C585.99 567.265 593.767 628.552 562.044 657.168C489.192 722.884 358.728 728.774 320.771 819.265C290.49 891.453 328.555 1011.82 402.981 1036.37C506.728 1070.59 613.93 991.876 714.316 949.072C759.366 929.863 777.221 863.365 825.676 856.137C859.992 851.018 873.644 907.752 905.947 920.487C955.891 940.176 1019.39 981.576 1062.29 949.417C1100.68 920.639 1024.44 842.557 1056.95 807.283C1126.86 731.459 1315.73 765.666 1326.32 663.022C1335.4 575.024 1153.12 620.937 1081.56 568.762C1039.28 537.926 1047.41 467.398 1009.12 431.718L1007.76 430.45C967.101 392.552 909.611 338.965 859.684 361.995C794.592 392.019 813.685 503.853 757.173 547.932Z" stroke="#2413FF"/>
<path d="M756.605 544.663C720.25 573.019 660.152 520.567 619.917 543.092C581.856 564.399 589.795 626.963 557.41 656.175C483.041 723.26 349.859 729.273 311.111 821.649C280.2 895.341 319.057 1018.22 395.034 1043.28C500.942 1078.21 610.378 997.857 712.855 954.16C758.843 934.551 777.071 866.667 826.535 859.289C861.566 854.063 875.503 911.98 908.478 924.979C959.463 945.079 1024.29 987.341 1068.08 954.513C1107.27 925.135 1029.44 845.426 1062.63 809.418C1133.99 732.014 1326.8 766.933 1337.61 662.151C1346.88 572.32 1160.8 619.189 1087.75 565.927C1044.59 534.449 1052.89 462.452 1013.8 426.028L1012.41 424.734C970.907 386.047 912.218 331.343 861.252 354.852C794.803 385.503 814.294 499.666 756.605 544.663Z" stroke="#2413FF"/>
<path d="M756.034 541.397C718.937 570.332 657.613 516.809 616.556 539.793C577.718 561.535 585.82 625.376 552.774 655.184C476.887 723.638 340.987 729.774 301.448 824.035C269.906 899.231 309.557 1024.62 387.084 1050.19C495.154 1085.84 606.823 1003.84 711.391 959.251C758.318 939.242 776.917 869.972 827.391 862.443C863.137 857.111 877.358 916.209 911.007 929.475C963.032 949.984 1029.18 993.109 1073.86 959.61C1113.85 929.633 1034.43 848.297 1068.31 811.555C1141.12 732.571 1337.86 768.203 1348.9 661.282C1358.35 569.617 1168.47 617.444 1093.94 563.094C1049.89 530.974 1058.36 457.507 1018.48 420.34L1017.06 419.02C974.709 379.543 914.823 323.723 862.816 347.712C795.012 378.988 814.9 495.481 756.034 541.397Z" stroke="#2413FF"/>
<path d="M755.468 538.126C717.629 567.64 655.078 513.047 613.201 536.49C573.586 558.667 581.849 623.785 548.143 654.189C470.737 724.013 332.12 730.271 291.79 826.417C259.617 903.118 300.061 1031.01 379.139 1057.1C489.37 1093.45 603.272 1009.82 709.932 964.338C757.797 943.928 776.769 873.273 828.252 865.594C864.713 860.155 879.219 920.435 913.54 933.966C966.605 954.886 1034.08 998.873 1079.65 964.704C1120.44 934.127 1039.43 851.165 1073.99 813.687C1148.26 733.124 1348.94 769.468 1360.19 660.41C1369.83 566.911 1176.16 615.694 1100.13 560.258C1055.2 527.495 1063.84 452.559 1023.16 414.649L1021.72 413.302C978.517 373.036 917.433 316.099 864.386 340.568C795.225 372.469 815.512 491.292 755.468 538.126Z" stroke="#2413FF"/>
<path d="M754.898 534.861C716.318 564.953 652.54 509.29 609.842 533.193C569.451 555.805 577.876 622.199 543.509 653.2C464.585 724.392 323.25 730.773 282.129 828.805C249.326 907.009 290.562 1037.41 371.191 1064.01C483.583 1101.08 599.719 1015.8 708.47 969.429C757.274 948.62 776.617 876.58 829.11 868.749C866.286 863.204 881.076 924.666 916.07 938.462C970.176 959.792 1038.97 1004.64 1085.44 969.803C1127.03 938.627 1044.43 854.038 1079.66 815.825C1155.39 733.682 1360 770.739 1371.48 659.542C1381.31 564.211 1183.84 613.95 1106.32 557.427C1060.51 524.021 1069.32 447.616 1027.84 408.962L1026.37 407.589C982.321 366.533 920.04 308.48 865.952 333.429C795.436 365.956 816.12 487.109 754.898 534.861Z" stroke="#2413FF"/>
<path d="M754.33 531.592C715.008 562.263 650.004 505.529 606.484 529.892C565.316 552.938 573.903 620.61 538.875 652.207C458.434 724.768 314.381 731.272 272.47 831.188C239.035 910.897 281.065 1043.81 363.244 1070.91C477.798 1108.7 596.167 1021.78 707.009 974.518C756.751 953.308 776.467 879.882 829.969 871.901C867.86 866.249 882.934 928.893 918.602 942.955C973.748 964.695 1043.86 1010.41 1091.23 974.898C1133.62 943.122 1049.43 856.907 1085.34 817.959C1162.52 734.237 1371.07 772.006 1382.76 658.671C1392.79 561.506 1191.52 612.202 1112.51 554.592C1065.82 520.544 1074.8 442.669 1032.52 403.272L1031.02 401.873C986.127 360.027 922.647 300.858 867.52 326.286C795.647 359.439 816.729 482.921 754.33 531.592Z" stroke="#2413FF"/>
<path d="M753.76 528.326C713.696 559.576 647.465 501.772 603.125 526.594C561.18 550.076 569.929 619.024 534.24 651.217C452.281 725.147 305.51 731.774 262.808 833.576C228.742 914.788 271.565 1050.21 355.295 1077.82C472.01 1116.32 592.612 1027.76 705.546 979.609C756.227 957.999 776.314 883.188 830.826 875.057C869.432 869.298 884.791 933.124 921.131 947.451C977.318 969.601 1048.76 1016.18 1097.02 979.997C1140.2 947.622 1054.43 859.779 1091.01 820.097C1169.66 734.795 1382.14 773.277 1394.05 657.803C1404.27 558.805 1199.2 610.457 1118.7 551.76C1071.13 517.07 1080.28 437.726 1037.2 397.585L1035.67 396.16C989.93 353.525 925.253 293.239 869.085 319.147C795.856 352.925 817.336 478.738 753.76 528.326Z" stroke="#2413FF"/>
<path d="M753.196 525.056C712.39 556.885 644.933 498.01 599.771 523.292C557.049 547.208 565.96 617.433 529.611 650.222C446.134 725.522 296.645 732.272 253.152 835.958C218.456 918.674 262.071 1056.6 347.352 1084.73C466.228 1123.94 589.064 1033.74 704.089 984.696C755.708 962.686 776.168 886.489 831.689 878.207C871.01 872.342 886.653 937.35 923.666 951.942C980.894 974.503 1053.66 1021.94 1102.81 985.091C1146.8 952.116 1059.43 862.647 1096.7 822.23C1176.79 735.348 1393.21 774.543 1405.34 656.931C1415.75 556.099 1206.88 608.708 1124.89 548.924C1076.44 513.591 1085.76 432.778 1041.89 391.894L1040.33 390.442C993.739 347.018 927.865 285.615 870.657 312.003C796.072 346.407 817.949 474.549 753.196 525.056Z" stroke="#2413FF"/>
<path d="M752.625 521.789C711.077 554.196 642.393 494.251 596.41 519.993C552.912 544.344 561.985 615.846 524.974 649.231C439.98 725.9 287.773 732.772 243.489 838.344C208.162 922.564 252.571 1063 339.402 1091.64C460.439 1131.56 585.509 1039.72 702.625 989.786C755.183 967.376 776.015 889.794 832.546 881.361C872.581 875.389 888.509 941.58 926.195 956.437C984.463 979.408 1058.55 1027.71 1108.6 990.189C1153.38 956.614 1064.43 865.518 1102.37 824.366C1183.92 735.904 1404.28 775.812 1416.63 656.061C1427.22 553.397 1214.56 606.962 1131.08 546.091C1081.75 510.116 1091.23 427.833 1046.56 386.206L1044.98 384.727C997.542 340.513 930.469 277.995 872.221 304.863C796.28 339.891 818.556 470.364 752.625 521.789Z" stroke="#2413FF"/>
<path d="M752.055 518.523C709.765 551.509 639.855 490.493 593.051 516.695C548.776 541.481 558.011 614.259 520.339 648.241C433.827 726.279 278.902 733.274 233.827 840.731C197.869 926.455 243.071 1069.4 331.453 1098.55C454.652 1139.18 581.954 1045.71 701.163 994.877C754.659 972.066 775.862 893.099 833.403 884.516C874.153 878.438 890.365 945.81 928.724 960.932C988.033 984.313 1063.44 1033.48 1114.38 995.287C1159.97 961.112 1069.43 868.39 1108.05 826.503C1191.06 736.462 1415.34 777.082 1427.92 655.193C1438.7 550.695 1222.24 605.217 1137.27 543.259C1087.05 506.641 1096.71 422.889 1051.24 380.519L1049.63 379.013C1001.34 334.01 933.075 270.375 873.787 297.723C796.49 333.377 819.163 466.179 752.055 518.523Z" stroke="#2413FF"/>
<path d="M751.487 515.255C708.455 548.82 637.318 486.734 589.693 513.395C544.641 538.616 554.038 612.671 515.706 647.249C427.676 726.656 270.033 733.773 224.167 843.116C187.579 930.344 233.573 1075.79 323.505 1105.46C448.866 1146.8 578.402 1051.69 699.702 999.966C754.136 976.755 775.712 896.403 834.262 887.669C875.727 881.484 892.223 950.038 931.255 965.426C991.604 989.217 1068.33 1039.24 1120.17 1000.38C1166.56 965.609 1074.43 871.26 1113.72 828.639C1198.19 737.017 1426.41 778.35 1439.21 654.323C1450.18 547.991 1229.92 603.47 1143.46 540.425C1092.36 503.165 1102.19 417.944 1055.92 374.83L1054.28 373.298C1005.15 327.506 935.683 262.754 875.355 290.581C796.701 326.861 819.772 461.993 751.487 515.255Z" stroke="#2413FF"/>
<path d="M750.919 511.987C707.145 546.13 634.782 482.974 586.335 510.095C540.507 535.75 550.066 611.082 511.073 646.256C421.525 727.032 261.163 734.272 214.508 845.5C177.288 934.232 224.076 1082.19 315.558 1112.36C443.08 1154.42 574.85 1057.67 698.241 1005.06C753.614 981.444 775.561 899.706 835.121 890.822C877.301 884.53 894.082 954.266 933.787 969.919C995.176 994.121 1073.23 1045.01 1125.96 1005.48C1173.15 970.106 1079.43 874.13 1119.4 830.773C1205.32 737.572 1437.48 779.618 1450.5 653.452C1461.66 545.288 1237.6 601.722 1149.65 537.591C1097.67 499.688 1107.67 412.998 1060.6 369.14L1058.93 367.583C1008.96 321 938.29 255.132 876.922 283.439C796.913 320.345 820.381 457.807 750.919 511.987Z" stroke="#2413FF"/>
<path d="M750.35 508.717C705.834 543.439 632.244 479.212 582.977 506.793C536.371 532.883 546.093 609.492 506.438 645.262C415.373 727.407 252.293 734.77 204.847 847.883C166.996 938.119 214.577 1088.58 307.61 1119.27C437.294 1162.04 571.296 1063.65 696.779 1010.14C753.091 986.131 775.41 903.008 835.979 893.973C878.874 887.575 895.939 958.493 936.317 974.411C998.747 999.023 1078.12 1050.77 1131.75 1010.57C1179.73 974.601 1084.43 876.998 1125.08 832.907C1212.46 738.126 1448.55 780.884 1461.78 652.58C1473.13 542.582 1245.28 599.974 1155.84 534.755C1102.98 496.21 1113.14 408.05 1065.28 363.449L1063.58 361.865C1012.76 314.493 940.897 247.509 878.489 276.296C797.123 313.827 820.99 453.619 750.35 508.717Z" stroke="#2413FF"/>
<path d="M749.781 505.453C704.523 540.754 629.707 475.456 579.618 503.496C532.236 530.022 542.119 607.907 501.804 644.274C409.221 727.788 243.423 735.274 195.186 850.272C156.705 942.011 205.078 1094.98 299.662 1126.18C431.507 1169.67 567.743 1069.63 695.317 1015.24C752.567 990.824 775.258 906.315 836.837 897.13C880.447 890.625 897.797 962.725 938.847 978.908C1002.32 1003.93 1083.02 1056.54 1137.53 1015.67C1186.32 979.101 1089.43 879.872 1130.75 835.046C1219.59 738.686 1459.61 782.156 1473.07 651.714C1484.61 539.882 1252.96 598.23 1162.03 531.924C1108.29 492.737 1118.62 403.108 1069.96 357.764L1068.23 356.153C1016.57 307.992 943.504 239.891 880.055 269.158C797.334 307.314 821.598 449.436 749.781 505.453Z" stroke="#2413FF"/>
<path d="M749.213 502.186C703.214 538.065 627.171 471.697 576.261 500.197C528.102 527.157 538.148 606.319 497.172 643.282C403.071 728.165 234.555 735.774 185.527 852.657C146.415 945.901 195.582 1101.38 291.716 1133.09C425.722 1177.29 564.192 1075.61 693.857 1020.32C752.046 995.513 775.109 909.619 837.697 900.283C882.022 893.671 899.656 966.953 941.38 983.402C1005.89 1008.83 1087.91 1062.31 1143.32 1020.77C1192.91 983.599 1094.43 882.743 1136.43 837.182C1226.72 739.242 1470.68 783.425 1484.36 650.844C1496.09 537.179 1260.64 596.484 1168.22 529.091C1113.6 489.262 1124.1 398.163 1074.64 352.076L1072.89 350.438C1020.37 301.487 946.112 232.271 881.624 262.017C797.546 300.799 822.208 445.25 749.213 502.186Z" stroke="#2413FF"/>
<path d="M748.644 498.917C701.902 535.375 624.634 467.937 572.903 496.896C523.967 524.291 534.174 604.731 492.537 642.289C396.919 728.541 225.685 736.273 175.866 855.041C136.123 949.789 186.083 1107.78 283.768 1140C419.936 1184.91 560.638 1081.59 692.395 1025.41C751.522 1000.2 774.957 912.922 838.555 903.436C883.595 896.717 901.513 971.181 943.91 987.895C1009.46 1013.74 1092.81 1068.07 1149.11 1025.87C1199.5 988.095 1099.43 885.612 1142.11 839.316C1233.86 739.796 1481.75 784.692 1495.65 649.973C1507.57 534.475 1268.32 594.736 1174.41 526.256C1118.91 485.785 1129.58 393.217 1079.32 346.386L1077.54 344.722C1024.18 294.981 948.719 224.648 883.19 254.874C797.757 294.282 822.816 441.064 748.644 498.917Z" stroke="#2413FF"/>
<path d="M748.074 495.65C700.591 532.687 622.095 464.178 569.543 493.598C519.831 521.427 530.2 603.143 487.902 641.298C390.766 728.919 216.814 736.773 166.205 857.427C125.831 953.679 176.584 1114.17 275.819 1146.91C414.148 1192.53 557.084 1087.58 690.932 1030.5C750.998 1004.89 774.805 916.227 839.412 906.59C885.167 899.765 903.369 975.411 946.439 992.39C1013.03 1018.64 1097.7 1073.84 1154.9 1030.96C1206.08 992.592 1104.42 888.483 1147.78 841.452C1240.99 740.353 1492.82 785.962 1506.94 649.104C1519.04 531.773 1276 592.99 1180.6 523.424C1124.21 482.309 1135.05 388.272 1084 340.698L1082.19 339.008C1027.98 288.478 951.325 217.028 884.756 247.734C797.966 287.767 823.423 436.878 748.074 495.65Z" stroke="#2413FF"/>
<path d="M747.506 492.382C699.28 529.997 619.559 460.418 566.185 490.297C515.696 518.562 526.228 601.555 483.269 640.305C384.615 729.296 207.945 737.273 156.545 859.812C115.54 957.567 167.086 1120.57 267.872 1153.81C408.362 1200.15 553.532 1093.56 689.471 1035.59C750.475 1009.58 774.655 919.53 840.271 909.742C886.741 902.811 905.228 979.639 948.971 996.883C1016.6 1023.55 1102.59 1079.61 1160.69 1036.06C1212.67 997.089 1109.42 891.353 1153.46 843.587C1248.12 740.908 1503.89 787.23 1518.23 648.233C1530.52 529.069 1283.68 591.243 1186.79 520.589C1129.52 478.833 1140.53 383.326 1088.68 335.009L1086.84 333.292C1031.78 281.972 953.932 209.406 886.323 240.592C798.177 281.251 824.033 432.692 747.506 492.382Z" stroke="#2413FF"/>
<path d="M746.938 489.117C697.97 527.311 617.022 456.661 562.828 487C511.562 515.699 522.255 599.969 478.635 639.316C378.464 729.676 199.076 737.775 146.885 862.199C105.249 961.459 157.588 1126.97 259.925 1160.72C402.577 1207.78 549.979 1099.54 688.01 1040.68C749.953 1014.27 774.504 922.837 841.13 912.898C888.315 905.86 907.086 983.87 951.502 1001.38C1020.18 1028.45 1107.49 1085.38 1166.47 1041.16C1219.26 1001.59 1114.42 894.226 1159.14 845.725C1255.25 741.467 1514.95 788.501 1529.52 647.366C1542 526.369 1291.36 589.499 1192.98 517.758C1134.83 475.359 1146.01 378.383 1093.36 329.323L1091.49 327.58C1035.59 275.47 956.54 201.788 887.891 233.453C798.389 274.737 824.642 428.509 746.938 489.117Z" stroke="#2413FF"/>
<path d="M746.371 485.846C696.661 524.619 614.487 452.899 559.471 483.697C507.428 512.832 518.284 598.378 474.003 638.321C372.314 730.05 190.208 738.272 137.226 864.582C94.9597 965.345 148.092 1133.36 251.979 1167.63C396.792 1215.39 546.428 1105.52 686.55 1045.77C749.432 1018.96 774.355 926.138 841.99 916.049C889.89 908.904 908.946 988.095 954.034 1005.87C1023.75 1033.35 1112.38 1091.14 1172.26 1046.25C1225.85 1006.08 1119.43 897.094 1164.82 847.858C1262.39 742.02 1526.02 789.766 1540.81 646.493C1553.48 523.662 1299.04 587.749 1199.17 514.922C1140.14 471.88 1151.49 373.435 1098.05 323.631L1096.15 321.861C1039.4 268.963 959.149 194.164 889.46 226.309C798.601 268.219 825.252 424.32 746.371 485.846Z" stroke="#2413FF"/>
<path d="M745.801 482.579C695.349 521.931 611.948 449.14 556.111 480.398C503.292 509.967 514.31 596.791 469.368 637.33C366.161 730.428 181.337 738.773 127.564 866.967C84.6671 969.235 138.592 1139.76 244.029 1174.54C391.004 1223.02 542.874 1111.5 685.087 1050.86C748.907 1023.65 774.202 929.442 842.847 919.203C891.462 911.951 910.802 992.325 956.564 1010.37C1027.32 1038.26 1117.28 1096.91 1178.05 1051.35C1232.43 1010.58 1124.42 899.964 1170.49 849.994C1269.52 742.576 1537.09 791.035 1552.09 645.624C1564.96 520.96 1306.72 586.003 1205.36 512.088C1145.45 468.405 1156.97 368.49 1102.73 317.942L1100.8 316.146C1043.2 262.458 961.754 186.543 891.025 219.168C798.811 261.704 825.859 420.134 745.801 482.579Z" stroke="#2413FF"/>
</svg>
