<svg width="1329" height="1407" viewBox="0 0 1329 1407" fill="none" xmlns="http://www.w3.org/2000/svg">
<path fill-rule="evenodd" clip-rule="evenodd" d="M262.807 569.428C323.116 594.551 262.792 727.17 322.527 753.629C385.109 781.35 471.629 623.622 511.239 679.471C551.897 736.797 374.781 780.047 389.946 848.686C404.965 916.666 592.922 882.087 570.571 948.018C547.205 1016.94 425.659 933.619 355.126 951.397C333.874 956.754 339.949 992.461 326.269 1009.6C308.24 1032.18 286.856 1051.02 262.807 1067.04C223.384 1093.29 183.437 1151.62 139.496 1133.96C97.295 1116.99 135.588 1037.34 105.044 1003.62C71.3209 966.393 -44.839 993.477 -31.6798 944.985C-13.8734 879.369 104.535 904.678 146.423 851.142C166.762 825.147 108.469 791.468 113.915 758.906C118.917 728.998 154.408 715.236 173.139 691.399C204.712 651.219 215.65 549.784 262.807 569.428Z" stroke="#2714FF" stroke-opacity="0.94" stroke-width="1.35284"/>
<path fill-rule="evenodd" clip-rule="evenodd" d="M278.634 -132.038C482.991 -46.8892 278.583 402.598 480.995 492.279C693.052 586.232 986.224 51.643 1120.44 240.933C1258.21 435.228 658.055 581.817 709.441 814.455C760.333 1044.86 1397.22 927.661 1321.49 1151.12C1242.31 1384.74 830.455 1102.32 591.457 1162.57C519.444 1180.73 540.027 1301.75 493.675 1359.83C432.583 1436.37 360.123 1500.24 278.634 1554.52C145.049 1643.48 9.68752 1841.19 -139.204 1781.33C-282.202 1723.84 -152.448 1453.87 -255.944 1339.58C-370.215 1213.4 -763.822 1305.2 -719.232 1140.84C-658.895 918.449 -257.669 1004.23 -115.733 822.78C-46.8126 734.674 -244.339 620.527 -225.885 510.162C-208.937 408.796 -88.6757 362.15 -25.2063 281.36C81.7804 145.177 118.844 -198.618 278.634 -132.038Z" stroke="#2714FF" stroke-opacity="0.94" stroke-width="1.35284"/>
<path d="M325.633 748.506C263.1 720.806 326.25 581.974 263.116 555.674C213.751 535.11 202.301 641.297 169.248 683.36C149.64 708.313 112.487 722.721 107.251 754.029C101.55 788.117 162.573 823.374 141.281 850.587C97.4316 906.63 -26.5223 880.136 -45.1626 948.826C-58.9381 999.59 62.6619 971.237 97.9645 1010.21C129.938 1045.51 89.8525 1128.89 134.03 1146.65C180.028 1165.14 221.847 1104.08 263.116 1076.6C288.291 1059.83 310.677 1040.11 329.551 1016.46C343.87 998.526 337.511 961.146 359.759 955.538C433.595 936.927 560.833 1024.16 585.294 952.001C608.691 882.981 411.931 919.18 396.209 848.016C380.334 776.161 565.745 730.884 523.183 670.873C481.718 612.408 391.146 777.525 325.633 748.506Z" stroke="#2714FF" stroke-opacity="0.94" stroke-width="1.35284"/>
<path d="M328.741 743.382C263.41 714.443 329.385 569.398 263.427 541.921C211.853 520.436 199.891 631.376 165.36 675.32C144.874 701.391 106.059 716.443 100.589 749.153C94.6327 784.766 158.386 821.601 136.141 850.032C90.3301 908.583 -39.1692 880.903 -58.6435 952.667C-73.0353 1005.7 54.0049 976.081 90.8869 1016.8C124.291 1053.68 82.4119 1140.79 128.566 1159.35C176.622 1178.66 220.311 1114.86 263.427 1086.16C289.728 1068.64 313.115 1048.03 332.834 1023.33C347.794 1004.59 341.151 965.539 364.394 959.68C441.533 940.236 574.463 1031.37 600.018 955.984C624.462 883.876 418.9 921.694 402.474 847.345C385.889 772.275 579.595 724.972 535.129 662.275C491.808 601.193 397.184 773.7 328.741 743.382Z" stroke="#2714FF" stroke-opacity="0.94" stroke-width="1.35284"/>
<path d="M331.848 738.254C263.72 708.075 332.519 556.817 263.737 528.163C209.955 505.758 197.48 621.45 161.47 667.277C140.108 694.464 99.6301 710.161 93.9255 744.272C87.7145 781.411 154.198 819.823 131.001 849.472C83.2276 910.532 -51.8172 881.666 -72.1253 956.504C-87.1334 1011.81 45.3469 980.921 83.8082 1023.38C118.643 1061.84 74.9704 1152.69 123.101 1172.04C173.215 1192.18 218.775 1125.65 263.737 1095.71C291.165 1077.45 315.553 1055.95 336.116 1030.2C351.717 1010.65 344.789 969.927 369.027 963.818C449.469 943.541 588.092 1038.58 614.742 959.963C640.232 884.766 425.867 924.205 408.738 846.671C391.443 768.385 593.444 719.056 547.074 653.673C501.898 589.975 403.222 769.871 331.848 738.254Z" stroke="#2714FF" stroke-opacity="0.94" stroke-width="1.35284"/>
<path d="M334.954 733.133C264.029 701.714 335.654 544.243 264.047 514.412C208.056 491.087 195.069 611.531 157.581 659.24C135.341 687.544 93.2012 703.886 87.2623 739.398C80.7962 778.063 150.01 818.052 125.86 848.919C76.1251 912.487 -64.4651 882.435 -85.6072 960.348C-101.232 1017.93 36.6889 985.768 76.7296 1029.97C112.995 1070.01 67.5288 1164.59 117.636 1184.73C169.807 1205.71 217.238 1136.44 264.047 1105.27C292.601 1086.26 317.991 1063.88 339.398 1037.07C355.639 1016.72 348.427 974.322 373.661 967.961C457.406 946.852 601.721 1045.79 629.465 963.949C656.003 885.663 432.835 926.721 415.002 846.003C396.997 764.501 607.293 713.146 559.018 645.077C511.988 578.762 409.26 766.048 334.954 733.133Z" stroke="#2714FF" stroke-opacity="0.94" stroke-width="1.35284"/>
<path d="M338.061 728.009C264.338 695.351 338.788 531.667 264.357 500.659C206.157 476.413 192.658 601.609 153.691 651.201C130.574 680.621 86.7722 697.608 80.5991 734.521C73.878 774.712 145.822 816.279 120.719 848.364C69.0226 914.44 -77.113 883.202 -99.089 964.189C-115.33 1024.04 28.0309 990.612 69.651 1036.56C107.347 1078.18 60.0872 1176.49 112.171 1197.43C166.4 1219.23 215.702 1147.23 264.357 1114.83C294.037 1095.07 320.428 1071.81 342.68 1043.93C359.562 1022.79 352.065 978.714 378.294 972.103C465.343 950.16 615.35 1053.01 644.188 967.932C671.773 886.557 439.803 929.236 421.266 845.332C402.551 760.615 621.141 707.233 570.963 636.479C522.077 567.548 415.297 762.223 338.061 728.009Z" stroke="#2714FF" stroke-opacity="0.94" stroke-width="1.35284"/>
<path d="M341.171 722.881C264.65 688.984 341.925 519.086 264.67 486.901C204.262 461.735 190.25 591.683 149.804 643.158C125.81 673.695 80.3462 691.326 73.9389 729.641C66.9627 771.356 141.636 814.502 115.581 847.804C61.9231 916.388 -89.758 883.965 -112.568 968.026C-129.425 1030.15 19.3758 995.452 62.5753 1043.15C101.701 1086.34 52.6486 1188.39 106.708 1210.12C162.996 1232.74 214.169 1158.01 264.67 1124.39C295.476 1103.87 322.869 1079.73 345.965 1050.8C363.488 1028.85 355.706 983.103 382.93 976.24C473.282 953.465 628.983 1060.21 658.915 971.911C687.546 887.447 446.773 931.746 427.534 844.658C408.107 756.725 634.993 701.317 582.911 627.877C532.17 556.329 421.338 758.394 341.171 722.881Z" stroke="#2714FF" stroke-opacity="0.94" stroke-width="1.35284"/>
<path d="M344.277 717.758C264.958 682.621 345.059 506.51 264.978 473.148C202.362 447.062 187.838 581.762 145.914 635.119C121.042 666.773 73.9163 685.049 67.2747 724.765C60.0435 768.006 137.447 812.729 110.44 847.25C54.8196 918.341 -102.407 884.733 -126.051 971.868C-143.524 1036.26 10.7168 1000.3 55.4956 1049.73C96.0521 1094.51 45.2061 1200.29 101.242 1222.81C159.588 1246.27 212.631 1168.8 264.978 1133.95C296.911 1112.68 325.306 1087.66 349.246 1057.67C367.409 1034.91 359.343 987.496 387.563 980.382C481.218 956.774 642.611 1067.43 673.637 975.895C703.315 888.342 453.74 934.261 433.797 843.988C413.66 752.839 648.841 695.405 594.854 619.28C542.259 545.115 427.375 754.569 344.277 717.758Z" stroke="#2714FF" stroke-opacity="0.94" stroke-width="1.35284"/>
<path d="M347.385 712.634C265.268 676.257 348.194 493.934 265.289 459.395C200.465 432.388 185.428 571.841 142.025 627.08C116.277 659.85 67.4883 678.771 60.6125 719.888C53.1262 764.655 133.26 810.956 105.3 846.694C47.7181 920.294 -115.054 885.5 -139.532 975.709C-157.621 1042.37 2.0598 1005.14 48.418 1056.32C90.4049 1102.68 37.7655 1212.19 95.778 1235.51C156.181 1259.79 211.096 1179.59 265.289 1143.51C298.348 1121.49 327.744 1095.58 352.529 1064.53C371.333 1040.98 362.983 991.888 392.197 984.524C489.156 960.083 656.241 1074.64 688.362 979.878C719.086 889.237 460.708 936.775 440.062 843.318C419.215 748.953 662.691 689.493 606.8 610.682C552.349 533.901 433.413 750.744 347.385 712.634Z" stroke="#2714FF" stroke-opacity="0.94" stroke-width="1.35284"/>
<path d="M350.49 707.51C265.577 669.894 351.328 481.357 265.598 445.641C198.565 417.715 183.017 561.919 138.135 619.041C111.509 652.928 61.0585 672.494 53.9484 715.011C46.2071 761.304 129.071 809.183 100.158 846.139C40.6147 922.247 -127.703 886.267 -153.014 979.55C-171.72 1048.49 -6.59915 1009.98 41.3384 1062.91C84.7558 1110.85 30.323 1224.09 90.312 1248.2C152.773 1273.31 209.558 1190.38 265.598 1153.06C299.784 1130.3 330.181 1103.51 355.81 1071.4C375.255 1047.04 366.62 996.281 396.83 988.665C497.092 963.391 669.869 1081.85 703.084 983.861C734.856 890.131 467.675 939.29 446.325 842.647C424.768 745.067 676.539 683.58 618.744 602.084C562.438 522.686 439.45 746.919 350.49 707.51Z" stroke="#2714FF" stroke-opacity="0.94" stroke-width="1.35284"/>
<path d="M353.598 702.383C265.887 663.527 354.463 468.777 265.909 431.884C196.667 403.037 180.607 551.993 134.246 610.998C106.743 646.002 54.6305 666.212 47.2862 710.131C39.2898 757.949 124.884 807.406 95.0183 845.58C33.5132 924.196 -140.35 887.03 -166.495 983.387C-185.817 1054.6 -15.2562 1014.82 34.2607 1069.5C79.1086 1119.01 22.8824 1235.98 84.8478 1260.89C149.367 1286.83 208.023 1201.17 265.909 1162.62C301.221 1139.11 332.62 1111.43 359.093 1078.27C379.178 1053.1 370.259 1000.67 401.465 992.803C505.03 966.696 683.499 1089.06 717.809 987.84C750.627 891.021 474.644 941.8 452.59 841.973C430.323 741.177 690.389 677.664 630.69 593.482C572.529 511.468 445.489 743.09 353.598 702.383Z" stroke="#2714FF" stroke-opacity="0.94" stroke-width="1.35284"/>
<path d="M356.707 697.259C266.198 657.163 357.599 456.2 266.221 418.13C194.771 388.363 178.198 542.072 130.359 602.958C101.978 639.079 48.2035 659.934 40.6249 705.254C32.3735 754.598 120.697 805.633 89.8795 845.024C26.4126 926.148 -152.996 887.797 -179.975 987.228C-199.914 1060.71 -23.9122 1019.67 27.184 1076.08C73.4623 1127.18 15.4428 1247.88 79.3846 1273.59C145.961 1300.35 206.488 1211.96 266.221 1172.18C302.659 1147.91 335.059 1119.36 362.377 1085.14C383.103 1059.17 373.899 1005.06 406.1 996.945C512.968 970.005 697.13 1096.27 732.534 991.824C766.399 891.916 481.613 944.315 458.857 841.302C435.879 737.291 704.24 671.752 642.636 584.884C582.62 500.253 451.528 739.265 356.707 697.259Z" stroke="#2714FF" stroke-opacity="0.94" stroke-width="1.35284"/>
<path d="M359.814 692.135C266.507 650.8 360.733 443.624 266.531 404.377C192.872 373.689 175.787 532.15 126.469 594.919C97.2115 632.157 41.7746 653.657 33.9617 700.378C25.4553 751.247 116.509 803.859 84.7387 844.469C19.3102 928.101 -165.644 888.564 -193.457 991.07C-214.012 1066.82 -32.5703 1024.51 20.1054 1082.67C67.8141 1135.35 8.00127 1259.78 73.9195 1286.28C142.554 1313.87 204.952 1222.75 266.531 1181.74C304.095 1156.72 337.497 1127.28 365.659 1092C387.026 1065.24 377.537 1009.45 410.733 1001.09C520.905 973.313 710.759 1103.48 747.257 995.807C782.169 892.81 488.581 946.829 465.121 840.632C441.433 733.405 718.089 665.84 654.581 576.286C592.71 489.039 457.566 735.44 359.814 692.135Z" stroke="#2714FF" stroke-opacity="0.94" stroke-width="1.35284"/>
<path d="M362.921 687.01C266.816 644.435 363.868 431.046 266.841 390.622C190.974 359.014 173.376 522.227 122.58 586.878C92.4447 625.232 35.3457 647.377 27.2986 695.5C18.5371 747.894 112.321 802.084 79.5981 843.912C12.2077 930.052 -178.291 889.329 -206.939 994.909C-228.11 1072.93 -41.2282 1029.36 13.0268 1089.26C62.1659 1143.51 0.559738 1271.68 68.4544 1298.97C139.147 1327.39 203.416 1233.53 266.841 1191.3C305.531 1165.53 339.935 1135.21 368.941 1098.87C390.948 1071.3 381.176 1013.85 415.367 1005.23C528.842 976.62 724.388 1110.7 761.981 999.788C797.939 893.703 495.548 949.342 471.385 839.96C446.987 729.517 731.938 659.925 666.526 567.686C602.8 477.823 463.604 731.613 362.921 687.01Z" stroke="#2714FF" stroke-opacity="0.94" stroke-width="1.35284"/>
<path d="M366.027 681.886C267.126 638.071 367.002 418.469 267.151 376.868C189.075 344.34 170.965 512.305 118.69 578.839C87.6779 618.31 28.9167 641.099 20.6354 690.623C11.6189 744.543 108.133 800.311 74.4573 843.357C5.10522 932.005 -190.939 890.096 -220.421 998.75C-242.208 1079.05 -49.8862 1034.2 5.94812 1095.85C56.5177 1151.68 -6.88181 1283.58 62.9893 1311.67C135.74 1340.91 201.879 1244.32 267.151 1200.85C306.967 1174.34 342.372 1143.13 372.223 1105.74C394.871 1077.36 384.814 1018.24 420 1009.37C536.779 979.928 738.018 1117.91 776.704 1003.77C813.709 894.597 502.516 951.856 477.649 839.289C452.541 725.631 745.786 654.013 678.471 559.088C612.889 466.608 469.641 727.788 366.027 681.886Z" stroke="#2714FF" stroke-opacity="0.94" stroke-width="1.35284"/>
<path d="M369.134 676.762C267.435 631.708 370.137 405.893 267.461 363.115C187.176 329.666 168.554 502.384 114.8 570.8C82.9112 611.387 22.4878 634.822 13.9722 685.746C4.70059 741.192 103.945 798.538 69.3166 842.801C-1.99725 933.958 -203.587 890.864 -233.903 1002.59C-256.306 1085.16 -58.5443 1039.04 -1.13054 1102.43C50.8695 1159.85 -14.3234 1295.48 57.5241 1324.36C132.332 1354.44 200.343 1255.11 267.461 1210.41C308.404 1183.15 344.81 1151.06 375.505 1112.61C398.794 1083.43 388.452 1022.63 424.634 1013.51C544.715 983.237 751.647 1125.12 791.428 1007.75C829.479 895.492 509.483 954.37 483.913 838.619C458.095 721.745 759.635 648.101 690.415 550.49C622.979 455.394 475.679 723.963 369.134 676.762Z" stroke="#2714FF" stroke-opacity="0.94" stroke-width="1.35284"/>
<path d="M372.241 671.639C267.744 625.345 373.271 393.316 267.77 349.362C185.278 314.993 166.143 492.462 110.911 562.761C78.1443 604.465 16.0588 628.544 7.30899 680.87C-2.21765 737.841 99.7565 796.765 64.1758 842.246C-9.09973 935.911 -216.235 891.631 -247.384 1006.43C-270.404 1091.27 -67.2022 1043.89 -8.20917 1109.02C45.2213 1168.02 -21.7649 1307.38 52.059 1337.06C128.925 1367.96 198.806 1265.9 267.77 1219.97C309.84 1191.96 347.247 1158.99 378.787 1119.47C402.716 1089.5 392.09 1027.02 429.267 1017.65C552.652 986.546 765.276 1132.33 806.151 1011.74C845.25 896.386 516.451 956.885 490.177 837.949C463.649 717.859 773.484 642.189 702.36 541.892C633.069 444.179 481.716 720.138 372.241 671.639Z" stroke="#2714FF" stroke-opacity="0.94" stroke-width="1.35284"/>
<path d="M375.35 666.511C268.055 618.977 376.407 380.736 268.082 335.604C183.381 300.315 163.735 482.536 107.023 554.717C73.3795 597.539 9.63187 622.262 0.647766 675.989C-9.13393 734.486 95.5703 794.988 59.037 841.687C-16.2003 937.859 -228.881 892.394 -260.864 1010.27C-284.5 1097.38 -75.8583 1048.73 -15.2859 1115.61C39.5751 1176.18 -29.2045 1319.27 46.5958 1349.75C125.52 1381.48 197.272 1276.68 268.082 1229.53C311.278 1200.76 349.687 1166.91 382.071 1126.34C406.641 1095.56 395.73 1031.41 433.903 1021.79C560.591 989.851 778.907 1139.54 820.877 1015.72C861.022 897.277 523.42 959.395 496.444 837.274C469.205 713.969 787.335 636.272 714.307 533.29C643.16 432.961 487.756 716.309 375.35 666.511Z" stroke="#2714FF" stroke-opacity="0.94" stroke-width="1.35284"/>
<path d="M378.457 661.387C268.365 612.614 379.543 368.159 268.393 321.851C181.483 285.641 161.325 472.615 103.135 546.678C68.6138 590.616 3.20392 615.985 -6.01443 671.113C-16.0512 731.135 91.3831 793.215 53.8972 841.131C-23.3018 939.812 -241.528 893.161 -274.345 1014.11C-298.598 1103.49 -84.5153 1053.57 -22.3635 1122.2C33.9279 1184.35 -36.6451 1331.17 41.1316 1362.44C122.113 1395 195.737 1287.47 268.393 1239.09C312.715 1209.57 352.126 1174.83 385.354 1133.21C410.565 1101.62 399.369 1035.8 438.537 1025.93C568.528 993.159 792.537 1146.75 835.601 1019.7C876.793 898.171 530.389 961.91 502.709 836.604C474.76 710.083 801.185 630.36 726.253 524.692C653.251 421.746 493.795 712.484 378.457 661.387Z" stroke="#2714FF" stroke-opacity="0.94" stroke-width="1.35284"/>
<path d="M381.564 656.264C268.674 606.251 382.677 355.583 268.703 308.098C179.585 270.968 158.914 462.694 99.2452 538.64C63.847 583.694 -3.22504 609.708 -12.6776 666.237C-22.9694 727.785 87.1949 791.442 48.7565 840.577C-30.4042 941.765 -254.176 893.928 -287.827 1017.95C-312.696 1109.61 -93.1733 1058.42 -29.4421 1128.78C28.2797 1192.52 -44.0867 1343.07 35.6665 1375.14C118.706 1408.52 194.2 1298.26 268.703 1248.65C314.151 1218.38 354.563 1182.76 388.636 1140.07C414.487 1107.69 403.008 1040.2 443.171 1030.07C576.465 996.468 806.166 1153.97 850.324 1023.68C892.563 899.066 537.357 964.425 508.973 835.934C480.314 706.197 815.034 624.448 738.197 516.094C663.341 410.532 499.832 708.66 381.564 656.264Z" stroke="#2714FF" stroke-opacity="0.94" stroke-width="1.35284"/>
<path d="M384.671 651.14C268.984 599.888 385.811 343.007 269.013 294.344C177.686 256.294 156.503 452.772 95.3556 530.6C59.0802 576.772 -9.65393 603.43 -19.3408 661.36C-29.8876 724.434 83.0067 789.669 43.6158 840.021C-37.5067 943.718 -266.824 894.695 -301.309 1021.79C-326.794 1115.72 -101.831 1063.26 -36.5208 1135.37C22.6315 1200.69 -51.5282 1354.97 30.2013 1387.83C115.299 1422.04 192.664 1309.05 269.013 1258.21C315.587 1227.19 357.001 1190.69 391.918 1146.94C418.41 1113.75 406.646 1044.59 447.804 1034.21C584.402 999.777 819.795 1161.18 865.048 1027.67C908.333 899.96 544.324 966.939 515.237 835.263C485.868 702.311 828.883 618.535 750.142 507.496C673.43 399.318 505.87 704.834 384.671 651.14Z" stroke="#2714FF" stroke-opacity="0.94" stroke-width="1.35284"/>
<path d="M387.78 646.014C269.295 593.522 388.948 330.428 269.325 280.589C175.79 241.618 154.094 442.848 91.4681 522.559C54.3154 569.847 -16.0809 597.15 -26.002 656.482C-36.8039 721.08 78.8205 787.893 38.477 839.464C-44.6072 945.669 -279.47 895.46 -314.789 1025.63C-340.89 1121.83 -110.487 1068.1 -43.5974 1141.96C16.9853 1208.85 -58.9678 1366.87 24.7382 1400.52C111.894 1435.56 191.129 1319.84 269.325 1267.76C317.026 1236 359.441 1198.61 395.202 1153.81C422.335 1119.82 410.286 1048.98 452.44 1038.35C592.341 1003.08 833.426 1168.39 879.774 1031.65C924.106 900.853 551.294 969.451 521.503 834.591C491.424 698.423 842.734 612.621 762.089 498.896C683.522 388.101 511.91 701.007 387.78 646.014Z" stroke="#2714FF" stroke-opacity="0.94" stroke-width="1.35284"/>
<path d="M390.885 640.89C269.603 587.159 392.081 317.852 269.634 266.835C173.89 226.944 151.682 432.927 87.5775 514.52C49.5476 562.924 -22.5108 590.872 -32.6662 651.605C-43.7231 717.729 74.6313 786.12 33.3352 838.908C-51.7107 947.621 -292.119 896.227 -328.272 1029.47C-354.989 1127.94 -119.146 1072.95 -50.6771 1148.55C11.3361 1217.02 -66.4103 1378.77 19.272 1413.22C108.485 1449.08 189.592 1330.63 269.634 1277.32C318.461 1244.81 361.877 1206.54 398.483 1160.68C426.256 1125.88 413.923 1053.37 457.072 1042.49C600.276 1006.39 847.054 1175.6 894.496 1035.63C939.875 901.747 558.26 971.965 527.766 833.921C496.977 694.537 856.581 606.709 774.033 490.298C693.61 376.887 517.946 697.182 390.885 640.89Z" stroke="#2714FF" stroke-opacity="0.94" stroke-width="1.35284"/>
<path d="M393.993 635.767C269.913 580.796 395.216 305.276 269.945 253.082C171.992 212.271 149.272 423.006 83.6889 506.481C44.7818 556.003 -28.9388 584.595 -39.3284 646.729C-50.6404 714.379 70.4441 784.347 28.1954 838.353C-58.8122 949.575 -304.766 896.995 -341.752 1033.32C-369.086 1134.06 -127.803 1077.79 -57.7547 1155.14C5.68884 1225.19 -73.8509 1390.67 13.8079 1425.91C105.079 1462.61 188.056 1341.42 269.945 1286.88C319.898 1253.62 364.316 1214.46 401.766 1167.55C430.18 1131.95 417.562 1057.76 461.707 1046.64C608.214 1009.7 860.684 1182.81 909.22 1039.62C955.646 902.642 565.229 974.48 534.032 833.251C502.532 690.651 870.431 600.797 785.978 481.701C703.701 365.673 523.985 693.358 393.993 635.767Z" stroke="#2714FF" stroke-opacity="0.94" stroke-width="1.35284"/>
<path d="M397.1 630.639C270.222 574.429 398.351 292.695 270.255 239.325C170.094 197.593 146.861 413.08 79.7993 498.438C40.015 549.076 -35.3677 578.313 -45.9916 641.848C-57.5586 711.024 66.256 782.57 23.0547 837.794C-65.9147 951.523 -317.414 897.758 -355.234 1037.15C-383.184 1140.17 -136.461 1082.63 -64.8334 1161.72C0.0405884 1233.35 -81.2925 1402.56 8.34268 1438.6C101.672 1476.12 186.52 1352.2 270.255 1296.44C321.334 1262.42 366.754 1222.39 405.048 1174.41C434.103 1138.01 421.2 1062.15 466.34 1050.77C616.151 1013.01 874.313 1190.02 923.944 1043.59C971.416 903.532 572.196 976.991 540.296 832.576C508.086 686.761 884.28 594.88 797.923 473.099C713.791 354.454 530.023 689.528 397.1 630.639Z" stroke="#2714FF" stroke-opacity="0.94" stroke-width="1.35284"/>
<path d="M400.207 625.516C270.531 568.065 401.485 280.119 270.564 225.571C168.195 182.919 144.451 403.158 75.9098 490.399C35.2482 542.153 -41.7967 572.036 -52.6548 636.972C-64.4769 707.673 62.0677 780.797 17.9139 837.239C-73.0172 953.476 -330.062 898.525 -368.716 1040.99C-397.282 1146.28 -145.119 1087.47 -71.912 1168.31C-5.6076 1241.52 -88.7341 1414.46 2.87753 1451.3C98.2644 1489.64 184.984 1362.99 270.564 1306C322.77 1271.23 369.191 1230.31 408.33 1181.28C438.025 1144.07 424.839 1066.55 470.974 1054.91C624.088 1016.31 887.943 1197.23 938.667 1047.58C987.186 904.426 579.164 979.505 546.56 831.906C513.64 682.875 898.129 588.968 809.868 464.5C723.88 343.24 536.06 685.703 400.207 625.516Z" stroke="#2714FF" stroke-opacity="0.94" stroke-width="1.35284"/>
<path d="M403.313 620.392C270.841 561.702 404.619 267.542 270.874 211.818C166.297 168.246 142.04 393.237 72.0203 482.359C30.4815 535.231 -48.2256 565.758 -59.318 632.095C-71.3951 704.322 57.8796 779.024 12.7733 836.683C-80.1196 955.429 -342.709 899.292 -382.198 1044.83C-411.381 1152.39 -153.777 1092.32 -78.9907 1174.9C-11.2557 1249.69 -96.1756 1426.36 -2.58752 1463.99C94.8572 1503.17 183.447 1373.78 270.874 1315.56C324.206 1280.04 371.629 1238.24 411.612 1188.15C441.948 1150.14 428.477 1070.94 475.607 1059.06C632.024 1019.62 901.572 1204.45 953.391 1051.56C1002.96 905.321 586.132 982.019 552.824 831.235C519.194 678.989 911.978 583.056 821.813 455.903C733.97 332.025 542.098 681.878 403.313 620.392Z" stroke="#2714FF" stroke-opacity="0.94" stroke-width="1.35284"/>
<path d="M406.422 615.269C271.152 555.339 407.756 254.966 271.186 198.065C164.4 153.572 139.631 383.316 68.1328 474.321C25.7167 528.309 -54.6525 559.481 -65.9791 627.219C-78.3112 700.971 53.6935 777.251 7.63452 836.129C-87.2201 957.382 -355.355 900.06 -395.678 1048.68C-425.477 1158.51 -162.433 1097.16 -86.0673 1181.49C-16.9019 1257.86 -103.615 1438.26 -8.05066 1476.69C91.452 1516.69 181.913 1384.57 271.186 1325.12C325.645 1288.85 374.069 1246.17 414.896 1195.01C445.873 1156.21 432.117 1075.33 480.243 1063.2C639.963 1022.93 915.203 1211.66 968.116 1055.54C1018.73 906.216 593.101 984.534 559.091 830.565C524.75 675.103 925.829 577.144 833.76 447.305C744.062 320.811 548.138 678.054 406.422 615.269Z" stroke="#2714FF" stroke-opacity="0.94" stroke-width="1.35284"/>
<path d="M409.529 610.141C271.462 548.972 410.891 242.386 271.497 184.307C162.502 138.895 137.22 373.39 64.2436 466.277C20.9504 521.383 -61.081 553.199 -72.6419 622.339C-85.2291 697.616 49.5057 775.474 2.4942 835.569C-94.3222 959.331 -368.003 900.823 -409.159 1052.51C-439.574 1164.61 -171.091 1102 -93.1455 1188.07C-22.5497 1266.02 -111.056 1450.16 -13.5154 1489.38C88.0451 1530.21 180.377 1395.35 271.497 1334.67C327.081 1297.65 376.507 1254.09 418.179 1201.88C449.796 1162.27 435.756 1079.72 484.877 1067.34C647.9 1026.24 928.833 1218.87 982.84 1059.52C1034.5 907.106 600.069 987.045 565.355 829.891C530.304 671.213 939.678 571.228 845.704 438.703C754.152 309.593 554.176 674.225 409.529 610.141Z" stroke="#2714FF" stroke-opacity="0.94" stroke-width="1.35284"/>
<path d="M412.636 605.017C271.771 542.608 414.025 229.809 271.807 170.554C160.603 124.221 134.81 363.468 60.3541 458.238C16.1837 514.46 -67.5099 546.921 -79.305 617.462C-92.1473 694.265 45.3176 773.701 -2.64651 835.014C-101.425 961.284 -380.651 901.59 -422.641 1056.35C-453.673 1170.73 -179.749 1106.85 -100.224 1194.66C-28.1978 1274.19 -118.498 1462.06 -18.9805 1502.07C84.6379 1543.73 178.841 1406.14 271.807 1344.23C328.518 1306.46 378.944 1262.01 421.461 1208.75C453.719 1168.33 439.394 1084.11 489.51 1071.48C655.837 1029.55 942.462 1226.08 997.564 1063.51C1050.27 908.001 607.037 989.559 571.619 829.221C535.858 667.327 953.527 565.315 857.649 430.105C764.242 298.378 560.214 670.4 412.636 605.017Z" stroke="#2714FF" stroke-opacity="0.94" stroke-width="1.35284"/>
<path d="M415.743 599.896C272.08 536.247 417.159 217.235 272.116 156.803C158.705 109.549 132.399 353.549 56.4646 450.201C11.4169 507.54 -73.9388 540.646 -85.9682 612.588C-99.0655 690.916 41.1294 771.93 -7.78726 834.461C-108.527 963.239 -393.299 902.359 -436.123 1060.2C-467.771 1176.84 -188.407 1111.69 -107.303 1201.25C-33.846 1282.36 -125.939 1473.96 -24.4456 1514.77C81.2306 1557.25 177.304 1416.93 272.116 1353.79C329.954 1315.27 381.382 1269.94 424.743 1215.62C457.641 1174.4 443.032 1088.51 494.144 1075.62C663.774 1032.86 956.091 1233.3 1012.29 1067.49C1066.04 908.897 614.005 992.076 577.883 828.553C541.412 663.443 967.376 559.405 869.594 421.509C774.331 287.166 566.251 666.577 415.743 599.896Z" stroke="#2714FF" stroke-opacity="0.94" stroke-width="1.35284"/>
<path d="M418.85 594.768C272.389 529.88 420.294 204.655 272.426 143.045C156.806 94.8717 129.988 343.624 52.575 442.158C6.65012 500.613 -80.3678 534.364 -92.6314 607.707C-105.984 687.561 36.9412 770.152 -12.928 833.901C-115.63 965.187 -405.947 903.122 -449.605 1064.03C-481.869 1182.95 -197.065 1116.53 -114.381 1207.83C-39.4942 1290.52 -133.381 1485.86 -29.9107 1527.46C77.8234 1570.77 175.768 1427.72 272.426 1363.35C331.39 1324.08 383.82 1277.86 428.025 1222.48C461.564 1180.46 446.67 1092.9 498.777 1079.76C671.711 1036.16 969.72 1240.5 1027.01 1071.47C1081.81 909.788 620.972 994.586 584.148 827.878C546.966 659.553 981.225 553.489 881.539 412.907C784.421 275.947 572.289 662.748 418.85 594.768Z" stroke="#2714FF" stroke-opacity="0.94" stroke-width="1.35284"/>
<path d="M421.959 589.644C272.701 523.516 423.431 192.078 272.739 129.292C154.91 80.1978 127.58 333.702 48.6879 434.119C1.88577 493.691 -86.7943 528.086 -99.2921 602.831C-112.9 684.21 32.7555 768.379 -18.0663 833.346C-122.73 967.14 -418.592 903.889 -463.084 1067.88C-495.965 1189.06 -205.72 1121.38 -121.458 1214.42C-45.14 1298.69 -140.82 1497.76 -35.3734 1540.15C74.4185 1584.29 174.234 1438.51 272.739 1372.91C332.828 1332.89 386.26 1285.79 431.31 1229.35C465.489 1186.53 450.311 1097.29 503.413 1083.9C679.65 1039.47 983.352 1247.72 1041.74 1075.45C1097.58 910.682 627.942 997.1 590.414 827.208C552.522 655.667 995.076 547.576 893.486 404.309C794.513 264.733 578.329 658.923 421.959 589.644Z" stroke="#2714FF" stroke-opacity="0.94" stroke-width="1.35284"/>
<path d="M425.065 584.521C273.01 517.153 426.564 179.502 273.048 115.538C153.011 65.5242 125.168 323.78 44.7979 426.08C-2.8815 486.769 -93.2237 521.809 -105.956 597.954C-119.818 680.86 28.5668 766.606 -23.2076 832.791C-129.833 969.093 -431.24 904.656 -476.566 1071.72C-510.063 1195.18 -214.379 1126.22 -128.537 1221.01C-50.7886 1306.86 -148.262 1509.66 -40.8391 1552.85C71.0107 1597.81 172.697 1449.3 273.048 1382.47C334.264 1341.7 388.697 1293.72 434.591 1236.22C469.411 1192.59 453.949 1101.68 508.046 1088.04C687.586 1042.78 996.98 1254.93 1056.46 1079.44C1113.35 911.576 634.909 999.615 596.678 826.537C558.076 651.781 1008.92 541.664 905.43 395.711C804.602 253.518 584.366 655.098 425.065 584.521Z" stroke="#2714FF" stroke-opacity="0.94" stroke-width="1.35284"/>
<path d="M428.173 579.397C273.319 510.79 429.699 166.925 273.359 101.785C151.113 50.8503 122.758 313.859 40.9088 418.041C-7.64777 479.846 -99.6521 515.531 -112.618 593.078C-126.736 677.508 24.3792 764.833 -28.3478 832.235C-136.935 971.046 -443.888 905.423 -490.048 1075.56C-524.161 1201.29 -223.036 1131.07 -135.615 1227.6C-56.4364 1315.03 -155.703 1521.56 -46.3037 1565.54C67.6039 1611.34 171.161 1460.09 273.359 1392.02C335.701 1350.51 391.135 1301.64 437.874 1243.08C473.335 1198.66 457.587 1106.07 512.68 1092.18C695.523 1046.09 1010.61 1262.14 1071.18 1083.42C1129.12 912.471 641.877 1002.13 602.943 825.867C563.63 647.895 1022.77 535.752 917.375 387.113C814.693 242.304 590.404 651.273 428.173 579.397Z" stroke="#2714FF" stroke-opacity="0.94" stroke-width="1.35284"/>
<path d="M431.279 574.269C273.628 504.422 432.833 154.345 273.668 88.0273C149.214 36.1725 120.347 303.933 37.0192 409.997C-12.4146 472.92 -106.081 509.249 -119.282 588.197C-133.654 674.153 20.1909 763.056 -33.4886 831.676C-144.037 972.994 -456.536 906.186 -503.53 1079.4C-538.259 1207.4 -231.695 1135.91 -142.694 1234.18C-62.0846 1323.19 -163.145 1533.45 -51.7689 1578.23C64.1966 1624.85 169.624 1470.87 273.668 1401.58C337.137 1359.31 393.573 1309.56 441.156 1249.95C477.257 1204.72 461.225 1110.46 517.314 1096.32C703.46 1049.39 1024.24 1269.35 1085.91 1087.4C1144.89 913.361 648.845 1004.64 609.207 825.192C569.184 644.005 1036.62 529.835 929.32 378.511C824.782 231.085 596.442 647.443 431.279 574.269Z" stroke="#2714FF" stroke-opacity="0.94" stroke-width="1.35284"/>
<path d="M434.386 569.145C273.938 498.059 435.968 141.768 273.978 74.274C147.316 21.4988 117.936 294.012 33.1296 401.958C-17.1814 465.997 -112.51 502.972 -125.945 583.321C-140.572 670.802 16.0027 761.283 -38.6293 831.121C-151.14 974.947 -469.184 906.953 -517.012 1083.24C-552.357 1213.51 -240.353 1140.75 -149.772 1240.77C-67.7328 1331.36 -170.586 1545.35 -57.234 1590.92C60.7894 1638.38 168.088 1481.66 273.978 1411.14C338.573 1368.12 396.01 1317.49 444.438 1256.82C481.18 1210.78 464.864 1114.85 521.947 1100.46C711.397 1052.7 1037.87 1276.56 1100.63 1091.38C1160.66 914.256 655.812 1007.15 615.471 824.522C574.738 640.119 1050.47 523.923 941.265 369.913C834.872 219.871 602.48 643.619 434.386 569.145Z" stroke="#2714FF" stroke-opacity="0.94" stroke-width="1.35284"/>
<path d="M437.495 564.022C274.249 491.696 439.105 129.192 274.291 60.5206C145.419 6.82516 115.528 284.09 29.2426 393.919C-21.9457 459.075 -118.937 496.694 -132.606 578.444C-147.488 667.451 11.817 759.509 -43.7676 830.566C-158.24 976.9 -481.829 907.72 -530.491 1087.08C-566.453 1219.63 -249.008 1145.59 -156.848 1247.36C-73.3786 1339.53 -178.025 1557.25 -62.6967 1603.62C57.3845 1651.9 166.554 1492.45 274.291 1420.7C340.012 1376.93 398.451 1325.42 447.722 1263.69C485.105 1216.85 468.504 1119.25 526.583 1104.6C719.336 1056.01 1051.5 1283.77 1115.36 1095.37C1176.44 915.15 662.782 1009.67 621.737 823.852C580.295 636.233 1064.32 518.011 953.212 361.315C844.964 208.657 608.52 639.794 437.495 564.022Z" stroke="#2714FF" stroke-opacity="0.94" stroke-width="1.35284"/>
<path d="M440.602 558.901C274.558 485.335 442.239 116.618 274.6 46.7698C143.52 -7.84593 113.116 274.171 25.3525 385.883C-26.713 452.155 -125.366 490.419 -139.269 573.57C-154.407 664.103 7.62836 757.739 -48.9088 830.013C-165.343 978.855 -494.478 908.49 -543.973 1090.92C-580.551 1225.74 -257.667 1150.44 -163.927 1253.95C-79.0272 1347.7 -185.467 1569.15 -68.1624 1616.32C53.9767 1665.42 165.017 1503.24 274.6 1430.26C341.447 1385.74 400.888 1333.35 451.004 1270.56C489.027 1222.92 472.142 1123.64 531.216 1108.75C727.272 1059.32 1065.13 1290.99 1130.08 1099.35C1192.21 916.047 669.75 1012.19 628.001 823.184C585.848 632.35 1078.17 512.101 965.156 352.72C855.053 197.445 614.557 635.971 440.602 558.901Z" stroke="#2714FF" stroke-opacity="0.94" stroke-width="1.35284"/>
<path d="M443.709 553.773C274.868 478.968 445.374 104.038 274.91 33.0123C141.622 -22.5238 110.706 264.245 21.4635 377.839C-31.4792 445.228 -131.794 484.137 -145.932 568.69C-161.325 660.748 3.44073 755.962 -54.0491 829.453C-172.445 980.804 -507.125 909.253 -557.455 1094.76C-594.649 1231.85 -266.324 1155.28 -171.006 1260.53C-84.6749 1355.86 -192.908 1581.05 -73.627 1629.01C50.57 1678.94 163.481 1514.03 274.91 1439.81C342.884 1394.54 403.326 1341.27 454.286 1277.42C492.95 1228.98 475.781 1128.03 535.85 1112.89C735.21 1062.62 1078.76 1298.2 1144.8 1103.33C1207.98 916.937 676.718 1014.7 634.266 822.51C591.403 628.459 1092.02 506.185 977.102 344.118C865.143 186.226 620.595 632.142 443.709 553.773Z" stroke="#2714FF" stroke-opacity="0.94" stroke-width="1.35284"/>
<path d="M446.815 548.649C275.176 472.604 448.507 91.4611 275.22 19.2588C139.723 -37.1976 108.295 254.324 17.5734 369.8C-36.2465 438.306 -138.224 477.86 -152.596 563.813C-168.243 657.397 -0.748047 754.188 -59.1904 828.898C-179.548 982.757 -519.773 910.02 -570.937 1098.6C-608.748 1237.96 -274.983 1160.13 -178.085 1267.12C-90.3236 1364.03 -200.35 1592.95 -79.0926 1641.7C47.1622 1692.46 161.944 1524.81 275.22 1449.37C344.32 1403.35 405.763 1349.19 457.568 1284.29C496.872 1235.04 479.418 1132.42 540.483 1117.03C743.146 1065.93 1092.39 1305.41 1159.53 1107.32C1223.75 917.832 683.685 1017.21 640.53 821.839C596.956 624.573 1105.87 500.273 989.046 335.52C875.232 175.012 626.632 628.317 446.815 548.649Z" stroke="#2714FF" stroke-opacity="0.94" stroke-width="1.35284"/>
<path d="M449.923 543.525C275.486 466.241 451.642 78.8848 275.53 5.50543C137.825 -51.8712 105.884 244.402 13.6844 361.761C-41.0128 431.384 -144.652 471.582 -159.258 558.937C-175.161 654.046 -4.93567 752.415 -64.3306 828.343C-186.649 984.71 -532.421 910.787 -584.418 1102.44C-622.845 1244.08 -283.64 1164.97 -185.163 1273.71C-95.9713 1372.2 -207.791 1604.85 -84.5572 1654.4C43.7555 1705.98 160.409 1535.6 275.53 1458.93C345.757 1412.16 408.201 1357.12 460.85 1291.16C500.796 1241.11 483.057 1136.82 545.117 1121.17C751.083 1069.24 1106.02 1312.62 1174.25 1111.3C1239.52 918.726 690.653 1019.72 646.794 821.169C602.511 620.687 1119.72 494.36 1000.99 326.922C885.323 163.797 632.671 624.492 449.923 543.525Z" stroke="#2714FF" stroke-opacity="0.94" stroke-width="1.35284"/>
<path d="M453.029 538.398C275.795 459.873 454.777 66.3043 275.84 -8.25209C135.927 -66.5491 103.473 234.477 9.79486 353.718C-45.7796 424.457 -151.081 465.3 -165.922 554.056C-182.079 650.691 -9.12384 750.638 -69.4713 827.784C-193.752 986.658 -545.069 911.551 -597.9 1106.28C-636.943 1250.18 -292.298 1169.81 -192.241 1280.29C-101.619 1380.36 -215.233 1616.74 -90.0223 1667.09C40.3482 1719.5 158.872 1546.39 275.84 1468.49C347.193 1420.97 410.639 1365.04 464.132 1298.02C504.718 1247.17 486.695 1141.2 549.751 1125.31C759.02 1072.55 1119.65 1319.83 1188.97 1115.28C1255.29 919.617 697.62 1022.24 653.058 820.494C608.065 616.797 1133.57 488.444 1012.94 318.32C895.412 152.579 638.708 620.663 453.029 538.398Z" stroke="#2714FF" stroke-opacity="0.94" stroke-width="1.35284"/>
<path d="M456.136 533.274C276.104 453.51 457.911 53.7279 276.15 -22.0055C134.028 -81.2227 101.062 224.555 5.90533 345.679C-50.5463 417.535 -157.51 459.023 -172.585 549.18C-188.998 647.34 -13.312 748.865 -74.612 827.228C-200.854 988.611 -557.717 912.318 -611.382 1110.12C-651.042 1256.3 -300.956 1174.65 -199.32 1286.88C-107.268 1388.53 -222.675 1628.64 -95.4875 1679.78C36.9409 1733.02 157.336 1557.18 276.15 1478.05C348.629 1429.78 413.077 1372.97 467.414 1304.89C508.641 1253.24 490.333 1145.6 554.384 1129.45C766.957 1075.86 1133.27 1327.04 1203.7 1119.26C1271.06 920.511 704.588 1024.75 659.323 819.824C613.619 612.911 1147.42 482.532 1024.88 309.722C905.502 141.364 644.746 616.838 456.136 533.274Z" stroke="#2714FF" stroke-opacity="0.94" stroke-width="1.35284"/>
<path d="M459.243 528.15C276.414 447.147 461.045 41.1513 276.46 -35.759C132.129 -95.8966 98.6516 214.633 2.01569 337.639C-55.3132 410.612 -163.939 452.745 -179.248 544.303C-195.916 643.989 -17.5002 747.092 -79.7528 826.673C-207.957 990.564 -570.365 913.085 -624.864 1113.96C-665.14 1262.41 -309.614 1179.5 -206.399 1293.47C-112.916 1396.7 -230.116 1640.54 -100.953 1692.47C33.5336 1746.54 155.799 1567.97 276.46 1487.61C350.065 1438.59 415.514 1380.89 470.696 1311.76C512.564 1259.3 493.972 1149.99 559.018 1133.59C774.893 1079.16 1146.9 1334.26 1218.42 1123.24C1286.83 921.405 711.555 1027.26 665.587 819.154C619.172 609.025 1161.27 476.619 1036.83 301.124C915.592 130.15 650.783 613.013 459.243 528.15Z" stroke="#2714FF" stroke-opacity="0.94" stroke-width="1.35284"/>
<path d="M462.35 523.026C276.723 440.783 464.18 28.5749 276.77 -49.5124C130.231 -110.57 96.2408 204.712 -1.87378 329.6C-60.0798 403.69 -170.368 446.467 -185.911 539.426C-202.834 640.638 -21.6884 745.319 -84.8935 826.118C-215.059 992.517 -583.013 913.852 -638.346 1117.8C-679.238 1268.52 -318.272 1184.34 -213.477 1300.06C-118.564 1404.86 -237.558 1652.44 -106.418 1705.17C30.1264 1760.07 154.263 1578.76 276.77 1497.17C351.501 1447.39 417.952 1388.82 473.978 1318.62C516.486 1265.37 497.61 1154.38 563.651 1137.73C782.83 1082.47 1160.53 1341.47 1233.14 1127.23C1302.6 922.3 718.523 1029.78 671.851 818.483C624.726 605.139 1175.11 470.707 1048.77 292.526C925.681 118.935 656.821 609.188 462.35 523.026Z" stroke="#2714FF" stroke-opacity="0.94" stroke-width="1.35284"/>
<path d="M465.461 517.903C277.036 434.421 467.318 15.9989 277.084 -63.2654C128.336 -125.244 93.8342 194.791 -5.75897 321.561C-64.8423 396.768 -176.793 440.19 -192.57 534.55C-209.748 637.287 -25.8722 743.546 -90.03 825.563C-222.158 994.47 -595.656 914.619 -651.823 1121.64C-693.332 1274.64 -326.926 1189.19 -220.552 1306.65C-124.208 1413.03 -244.995 1664.34 -111.879 1717.86C26.7234 1773.59 152.731 1589.55 277.084 1506.73C352.942 1456.2 420.394 1396.75 477.265 1325.49C520.413 1271.43 501.252 1158.77 568.289 1141.87C790.771 1085.78 1174.17 1348.68 1247.87 1131.21C1318.37 923.195 725.495 1032.29 678.12 817.813C630.285 601.253 1188.97 464.795 1060.72 283.928C935.775 107.721 662.863 605.363 465.461 517.903Z" stroke="#2714FF" stroke-opacity="0.94" stroke-width="1.35284"/>
<path d="M468.568 512.777C277.346 428.055 470.453 3.42032 277.394 -77.021C126.438 -139.919 91.4234 184.867 -9.6485 313.52C-69.6091 389.843 -183.221 433.91 -199.233 529.672C-216.666 633.934 -30.0603 741.77 -95.1706 825.005C-229.26 996.42 -608.304 915.384 -665.305 1125.48C-707.43 1280.75 -335.584 1194.03 -227.63 1313.23C-129.856 1421.2 -252.436 1676.24 -117.344 1730.56C23.3162 1787.11 151.194 1600.33 277.394 1516.28C354.378 1465.01 422.832 1404.67 480.547 1332.36C524.336 1277.49 504.891 1163.16 572.923 1146.01C798.708 1089.09 1187.8 1355.89 1262.59 1135.19C1334.14 924.087 732.463 1034.81 684.384 817.141C635.839 597.365 1202.82 458.881 1072.66 275.328C945.865 96.5046 668.901 601.536 468.568 512.777Z" stroke="#2714FF" stroke-opacity="0.94" stroke-width="1.35284"/>
<path d="M471.674 507.653C277.655 421.691 473.587 -9.15627 277.704 -90.7745C124.539 -154.593 89.0125 174.945 -13.5381 305.481C-74.3759 382.921 -189.65 427.632 -205.896 524.795C-223.584 630.583 -34.2485 739.997 -100.311 824.45C-236.362 998.373 -620.952 916.151 -678.787 1129.32C-721.528 1286.86 -344.242 1198.87 -234.709 1319.82C-135.504 1429.37 -259.878 1688.14 -122.809 1743.25C19.9089 1800.63 149.658 1611.12 277.704 1525.84C355.814 1473.82 425.269 1412.6 483.829 1339.23C528.259 1283.56 508.529 1167.56 577.556 1150.15C806.645 1092.4 1201.42 1363.1 1277.32 1139.17C1349.91 924.981 739.43 1037.32 690.648 816.47C641.393 593.479 1216.67 452.968 1084.61 266.73C955.955 85.29 674.939 597.711 471.674 507.653Z" stroke="#2714FF" stroke-opacity="0.94" stroke-width="1.35284"/>
<path d="M474.781 502.53C277.964 415.329 476.721 -21.7323 278.014 -104.528C122.641 -169.267 86.6016 165.024 -17.4277 297.442C-79.1426 375.999 -196.079 421.355 -212.559 519.919C-230.503 627.233 -38.4367 738.224 -105.452 823.895C-243.465 1000.33 -633.6 916.918 -692.269 1133.16C-735.626 1292.97 -352.9 1203.72 -241.788 1326.41C-141.152 1437.53 -267.32 1700.04 -128.274 1755.94C16.5016 1814.15 148.122 1621.91 278.014 1535.4C357.25 1482.63 427.707 1420.52 487.111 1346.1C532.182 1289.63 512.167 1171.95 582.19 1154.3C814.582 1095.71 1215.05 1370.32 1292.04 1143.16C1365.68 925.876 746.398 1039.83 696.912 815.8C646.947 589.593 1230.51 447.056 1096.55 258.133C966.044 74.076 680.976 593.886 474.781 502.53Z" stroke="#2714FF" stroke-opacity="0.94" stroke-width="1.35284"/>
<path d="M477.889 497.402C278.274 408.961 479.856 -34.3126 278.324 -118.285C120.743 -183.944 84.1913 155.099 -21.3167 289.399C-83.9089 369.072 -202.508 415.074 -219.222 515.038C-237.42 623.878 -42.6243 736.447 -110.592 823.336C-250.567 1002.28 -646.247 917.682 -705.75 1137C-749.724 1299.08 -361.557 1208.56 -248.866 1332.99C-146.8 1445.7 -274.761 1711.94 -133.739 1768.63C13.0949 1827.67 146.586 1632.7 278.324 1544.96C358.687 1491.43 430.145 1428.45 490.394 1352.96C536.105 1295.69 515.806 1176.34 586.824 1158.43C822.519 1099.01 1228.68 1377.52 1306.77 1147.14C1381.45 926.767 753.366 1042.35 703.177 815.126C652.501 585.703 1244.36 441.14 1108.5 249.531C976.135 62.8576 687.015 590.057 477.889 497.402Z" stroke="#2714FF" stroke-opacity="0.94" stroke-width="1.35284"/>
</svg>
